<svg xmlns="http://www.w3.org/2000/svg" xmlns:xlink="http://www.w3.org/1999/xlink" width="223.134" height="37.202" viewBox="0 0 195.9 32.3" xmlns:v="https://vecta.io/nano"><g fill="#1a869e"><path d="M28.4 18l-3.8-4.7 2.3-1.9 3.8 4.7z"/><path d="M26.9 20.9L24.6 19l3.8-4.7 2.3 1.9zM12.6 18l-2.3-1.9 3.8-4.7 2.3 1.9z"/><path d="M14.1 20.9l-3.8-4.7 2.3-1.9 3.8 4.7zm23.5 8.6H3.4V2.8h34.2v26.7zM7.3 25.6h26.5V6.7H7.3v18.9z"/></g><g fill="#333"><path d="M62.4 7.7l-3 17.5c-.5 0-.9.1-1.2.1H57c-.4 0-.7-.1-1-.4s-.4-.7-.5-1.2L55 21l-.8-6.4-.8 6.4-.7 4.2c-.8.1-1.7.1-2.6.1-.4 0-.6-.1-.9-.4s-.4-.7-.5-1.1l-1.4-8-1.2-7.3v-.3c0-.1 0-.3.1-.3.1-.1.3-.1.5-.1H49l1.2 8.2c.4 2.2.6 4.4.7 6.5h.2l.6-6.5 1.1-6.7c0-.3.1-.5.2-.6s.2-.2.5-.2h2l1.3 7.5c.3 1.6.5 3.8.7 6.5h.2l.6-6.5 1.1-7.5c0-.3.1-.5.2-.6s.2-.2.5-.2h2.3zM63.7 25c-.5-.3-1-1-1.2-1.9s-.4-2.3-.4-4.2c0-4.3 1.4-6.5 4.1-6.5.9 0 1.7.2 2.2.6.6.4 1 1 1.2 1.9.3.9.4 2.2.4 3.9 0 2.4-.3 4-1 5.1-.7 1-1.7 1.5-3.1 1.5a3.79 3.79 0 0 1-2.2-.4zm2.9-2.1c.1-.2.2-.6.3-1.2s.1-1.5.1-2.7l-.1-2.7c0-.6-.1-1-.3-1.2-.1-.2-.3-.3-.6-.3s-.6.3-.7.9c-.2.6-.3 1.7-.3 3.3l.1 2.8c.1.6.2 1 .3 1.2a.55.55 0 0 0 .5.3c.4-.1.5-.2.7-.4zm5.1-9.3c1.1-.8 2.3-1.1 3.5-1.1.7 0 1.1.1 1.3.3s.4.5.4 1a4.53 4.53 0 0 1-.3 1.6c-.3-.1-.6-.2-.9-.2-.2 0-.4 0-.5.1l-.6.3v9.2c0 .2 0 .3-.1.4s-.4.1-.8.1h-1.9l-.1-11.7zM79.3 25c-.6-.3-1-.8-1.4-1.7s-.5-2.1-.5-3.8c0-2.4.3-4.2.9-5.4.6-1.1 1.5-1.7 2.5-1.7.6 0 1.1.1 1.5.5V8.1c0-.4.1-.7.2-.9s.4-.3.7-.3 1-.1 1.8-.1v17.9c-1.1.5-2.4.8-3.7.8-.8 0-1.5-.2-2-.5zm3-2.2V15c-.1-.1-.3-.1-.5-.1s-.4.1-.6.3-.3.6-.5 1.2c-.1.6-.2 1.6-.2 2.9 0 1.5.1 2.5.2 3s.4.8.7.8c.4-.1.6-.2.9-.3zM92.4 8.2c.7.3 1.2.8 1.6 1.5.4.8.6 1.8.6 3.1 0 2.1-.4 3.5-1.3 4.4-.9.8-2 1.2-3.4 1.2h-.2v6.3c0 .2 0 .3-.1.4s-.4.1-.8.1H87v-17c0-.2 0-.3.1-.4s.2-.1.4-.1h2.4c.9 0 1.8.2 2.5.5zm-1.3 7c.2-.5.3-1.4.3-2.7 0-.8-.1-1.4-.3-1.8s-.5-.6-.9-.6h-.7v5.8h.5c.5 0 .9-.2 1.1-.7zm4.8-1.6c1.1-.8 2.3-1.1 3.5-1.1.7 0 1.1.1 1.3.3s.3.5.3 1a4.53 4.53 0 0 1-.3 1.6c-.3-.1-.6-.2-.9-.2-.2 0-.4 0-.6.1s-.4.2-.5.3v9.2c0 .2 0 .3-.1.4s-.4.1-.8.1h-1.9V13.6zm12.8 8.5c.1.5.2 1.1.2 1.9 0 .5-.3.9-1 1.1-.7.3-1.5.4-2.5.4-1.2 0-2.2-.4-2.9-1.3s-1-2.4-1-4.6c0-1.9.2-3.4.6-4.4s.9-1.8 1.5-2.1c.6-.4 1.4-.5 2.3-.5 2.1 0 3.2 1.4 3.2 4.1 0 1.4-.1 2.6-.3 3.6-1 .2-2.4.3-4.3.3 0 .9.2 1.5.4 1.8.2.4.6.5 1.2.5.8-.1 1.6-.4 2.6-.8zm-4-6.4c-.2.5-.3 1.4-.3 2.6.9 0 1.6-.1 1.9-.2.1-.2.1-.7.1-1.3 0-.8-.1-1.3-.2-1.5s-.3-.4-.7-.4c-.3 0-.6.2-.8.8zm5.7 8.3c0-.5.2-1 .5-1.5.7.4 1.4.5 2.2.5.4 0 .8-.1 1-.3s.3-.5.3-.8c0-.5-.2-1-.6-1.4l-2.2-2.3c-.4-.4-.7-.9-.9-1.4s-.3-.9-.3-1.3c0-1 .3-1.7 1-2.3s1.7-.8 3.2-.8c1.2 0 2.1.2 2.5.5s.6.7.6 1.1c0 .2 0 .4-.1.7-.1.2-.2.5-.4.6-.7-.4-1.4-.5-2.2-.5s-1.2.3-1.2.8c0 .2 0 .3.2.5.1.2.3.4.6.7l1.8 1.9c.5.6.8 1.1 1 1.5s.3 1 .3 1.6c0 1.1-.4 2-1.1 2.6s-1.8 1-3 1c-2.3.1-3.2-.4-3.2-1.4z"/><use xlink:href="#B"/><path d="M132.4 24.8c-.6-.5-1-1.3-1.3-2.5s-.5-3-.5-5.3c0-6.4 1.7-9.6 5-9.6 1 0 1.6.1 1.9.4s.5.6.5 1.1a3.81 3.81 0 0 1-.4 1.7c-.4-.3-.8-.4-1.3-.4-.8 0-1.5.5-2 1.4s-.8 2.7-.8 5.2c0 1.4.1 2.6.2 3.4s.3 1.4.6 1.7.7.5 1.2.5c.8 0 1.5-.1 1.9-.4.2.5.4 1 .4 1.6s-.3 1-.8 1.4c-.5.3-1.3.5-2.2.5-1 0-1.8-.3-2.4-.7zm8.3.4c-.5-.2-.9-.6-1.2-1.1-.3-.6-.5-1.4-.5-2.5 0-1.6.3-2.6.8-3.2s1.2-.9 2.1-.9c.2 0 .5 0 .8.1l.8.3v-1.7c0-.3-.1-.6-.2-.7-.2-.1-.4-.2-.8-.2-.5 0-1 .1-1.5.2-.6.1-1.1.2-1.5.4-.2-.5-.4-1-.4-1.6 0-.2 0-.3.1-.5s.1-.3.2-.4c.2-.2.7-.3 1.3-.5.7-.2 1.5-.2 2.4-.2 1.2 0 2 .2 2.4.7.5.5.7 1.2.7 2.4V17l-.1 8c-.9.5-2.1.8-3.6.8-.7-.3-1.3-.4-1.8-.6zm2.7-2.3v-3.2c-.2-.1-.4-.2-.7-.2s-.5.1-.7.4-.2.8-.2 1.6c0 .6.1 1.1.2 1.3.1.3.3.4.7.4s.6-.1.7-.3zm4.6-9.3c1.1-.8 2.3-1.1 3.5-1.1.7 0 1.1.1 1.3.3s.3.5.3 1a4.53 4.53 0 0 1-.3 1.6c-.3-.1-.6-.2-.9-.2-.2 0-.4 0-.6.1s-.4.2-.5.3v9.2c0 .2 0 .3-.1.4s-.4.1-.8.1H148V13.6zm7.3 11.4c-.6-.3-1-1-1.2-1.9-.3-.9-.4-2.3-.4-4.2 0-4.3 1.4-6.5 4.2-6.5.9 0 1.7.2 2.2.6.6.4 1 1 1.2 1.9.3.9.4 2.2.4 3.9 0 2.4-.3 4-1 5.1-.7 1-1.7 1.5-3.1 1.5-1 .1-1.7-.1-2.3-.4zm2.9-2.1c.1-.2.2-.6.3-1.2s.1-1.5.1-2.7l-.1-2.7c0-.6-.1-1-.3-1.2-.1-.2-.3-.3-.6-.3s-.6.3-.7.9c-.2.6-.3 1.7-.3 3.3l.1 2.8c.1.6.2 1 .3 1.2s.3.3.6.3c.3-.1.5-.2.6-.4zm5.8 1.6c-.5-.6-.8-1.6-.8-2.8v-8.5c0-.2 0-.3.1-.4s.4-.1.8-.1h1.9v9.1c0 .4.1.7.2.9s.3.3.7.3a1.69 1.69 0 0 0 1-.3v-9.6c0-.2 0-.3.1-.4s.3-.1.8-.1h1.9v11.8c-.5.3-1 .5-1.7.7s-1.3.3-2 .3c-1.4.1-2.4-.3-3-.9z"/><use xlink:href="#B" x="53.6"/><path d="M187.6 22.1c.1.5.2 1.1.2 1.9 0 .5-.3.9-1 1.1-.7.3-1.5.4-2.5.4-1.2 0-2.2-.4-2.9-1.3s-1-2.4-1-4.6c0-1.9.2-3.4.6-4.4s.9-1.8 1.5-2.1c.6-.4 1.4-.5 2.3-.5 2.1 0 3.2 1.4 3.2 4.1 0 1.4-.1 2.6-.3 3.6-1 .2-2.4.3-4.3.3 0 .9.2 1.5.4 1.8.2.4.6.5 1.2.5.8-.1 1.7-.4 2.6-.8zm-4-6.4c-.2.5-.3 1.4-.3 2.6.9 0 1.6-.1 1.9-.2.1-.2.1-.7.1-1.3 0-.8-.1-1.3-.2-1.5s-.3-.4-.7-.4c-.3 0-.6.2-.8.8zm6-7.6c0-.4.1-.7.2-.9.2-.2.4-.3.7-.3s.9-.1 1.8-.1v17.9c0 .2 0 .3-.1.4s-.3.1-.8.1h-1.8V8.1z"/></g><defs ><path id="B" d="M118.6 24c0-.5.2-1 .5-1.5.7.4 1.4.5 2.2.5.4 0 .8-.1 1-.3s.3-.5.3-.8c0-.5-.2-1-.6-1.4l-2.2-2.3c-.4-.4-.7-.9-.9-1.4s-.3-.9-.3-1.3c0-1 .3-1.7 1-2.3s1.7-.8 3.2-.8c1.2 0 2.1.2 2.5.5s.6.7.6 1.1c0 .2 0 .4-.1.7-.1.2-.2.5-.4.6-.7-.4-1.4-.5-2.2-.5s-1.2.3-1.2.8c0 .2 0 .3.2.5.1.2.3.4.6.7l1.8 1.9c.5.6.8 1.1 1 1.5s.3 1 .3 1.6c0 1.1-.4 2-1.1 2.6s-1.8 1-3 1c-2.2.1-3.2-.4-3.2-1.4z"/></defs></svg>