<?xml version="1.0" encoding="utf-8"?>
<!-- Generator: Adobe Illustrator 24.0.0, SVG Export Plug-In . SVG Version: 6.00 Build 0)  -->
<svg version="1.1" id="Layer_1" xmlns="http://www.w3.org/2000/svg" xmlns:xlink="http://www.w3.org/1999/xlink" x="0px" y="0px"
	 viewBox="0 0 512 512" style="enable-background:new 0 0 512 512;" xml:space="preserve">
<path d="M135.3,344.3c-6.5-14.2-6.9-18.3,7.4-23.1c25.6-8,8,9.2,43.2,49.2h0.3v-93.9c1.2-50.2,44-92.2,97.7-92.2
	c53.9,0,97.7,43.5,97.7,96.8c0,63.4-60.8,113.2-128.5,93.3c-10.5-4.2-2.1-31.7,8.5-28.6c53,0,89.4-10.1,89.4-64.4
	c0-61-77.1-89.6-116.9-44.6c-23.5,26.4-17.6,42.1-17.6,157.6c50.7,31,118.3,22,160.4-20.1c24.8-24.8,38.5-58,38.5-93
	c0-35.2-13.8-68.2-38.8-93.3c-24.8-24.8-57.8-38.5-93.3-38.5s-68.8,13.8-93.5,38.5c-0.3,0.3-16,16.5-21.2,23.9l-0.5,0.6
	c-3.3,4.7-6.3,9.1-20.1,6.1c-6.9-1.7-14.3-5.8-14.3-11.8V20c0-5,3.9-10.5,10.5-10.5h241.3c8.3,0,8.3,11.6,8.3,15.1
	c0,3.9,0,15.1-8.3,15.1H162.3v132.9h0.3c104.2-109.8,282.8-36,282.8,108.9C445.4,459.6,200.6,501.8,135.3,344.3L135.3,344.3z
	 M198.6,83.5c-0.5,4.2,4.6,24.5,14.6,20.6C338,56.6,416,144.5,422.6,144.5c4.8,0,22.8-15.3,14.3-22.8
	C343.7,32.7,202.4,64.7,198.6,83.5L198.6,83.5z M425,414.7C315,524.6,126,475.5,93,310.5c0-12.2-30.4-7.4-28.9,3.3
	c24,173.4,246,256.9,381.6,121.3C452.6,427.3,433.1,406.7,425,414.7L425,414.7z M245.6,306.6c0,4,4.3,7.3,5.5,8.5
	c3,3,6.1,4.4,8.5,4.4c3.8,0,2.6,0.2,22.3-19.5c19.6,19.3,19.1,19.5,22.3,19.5c5.4,0,18.5-10.4,10.7-18.2L297.6,284l18.2-18.2
	c6.3-6.8-10.1-21.8-16.2-15.7L281.7,268c-18.6-18.8-18.4-19.5-21.5-19.5c-5,0-18,11.7-12.4,17.3L266,284
	C247.9,301.9,245.6,303.2,245.6,306.6z"/>
</svg>
