<?xml version="1.0" encoding="utf-8"?>
<!-- Generator: Adobe Illustrator 24.0.0, SVG Export Plug-In . SVG Version: 6.00 Build 0)  -->
<svg version="1.1" id="Layer_1" xmlns="http://www.w3.org/2000/svg" xmlns:xlink="http://www.w3.org/1999/xlink" x="0px" y="0px"
	 viewBox="0 0 512 512" style="enable-background:new 0 0 512 512;" xml:space="preserve">
<path d="M455.9,255.8L443,413.1c-3.3,40.7-63.9,35.1-60.6-4.9l10-122.5l-41.1,2.3c10.1,20.7,15.8,43.9,15.8,68.5
	c0,41.2-16.1,78.7-42.3,106.5l-39.3-39.3c57.9-63.7,13.1-167.2-74-167.2c-25.9,0-49.5,9.9-67.2,26L105,243.2
	c22-20.7,50.1-35.1,81.4-40.2l75.3-85.7l-42.6-24.8l-51.6,46c-30,26.8-70.6-18.5-40.5-45.4l68-60.7c9.8-8.8,24.1-10.2,35.5-3.6
	c0,0,139.3,80.9,139.5,81.1c16.2,10.1,20.7,36,6.1,52.6L317.7,229l106.1-5.9C442.3,222,457.4,237.5,455.9,255.8L455.9,255.8z
	 M391,101.8c28.1,0,50.9-22.8,50.9-50.9S419.1,0,391,0s-50.9,22.8-50.9,50.9S362.9,101.8,391,101.8z M211.6,456.5
	c-80.6,0-127.4-90.6-82.7-156.1l-39.7-39.7C68.4,287,56,320.3,56,356.4c0,130.7,150.7,201.4,251.4,122.5l-39.7-39.7
	C251.7,450.1,232.4,456.5,211.6,456.5L211.6,456.5z"/>
</svg>
