<?xml version="1.0" encoding="utf-8"?>
<!-- Generator: Adobe Illustrator 24.0.0, SVG Export Plug-In . SVG Version: 6.00 Build 0)  -->
<svg version="1.1" id="Layer_1" xmlns="http://www.w3.org/2000/svg" xmlns:xlink="http://www.w3.org/1999/xlink" x="0px" y="0px"
	 viewBox="0 0 512 512" style="enable-background:new 0 0 512 512;" xml:space="preserve">
<path d="M257.7,252.8V252l-41-52.6c0,0-9.6,1.3-20,12.1C189.5,218.9,3.1,402.7,2,404.1c-5.6,8,1.3,5.4,12.6,1.4
	c0.6,0,91.6-29.3,91.6-29.3c0.4-0.5-0.1-0.1,0.5-0.5c-0.3-4.1-0.6-21-0.8-22.2c-0.5-4.2,1.8-5.5,5.6-7.1l74.1-27
	C186,318.8,256.3,254.1,257.7,252.8L257.7,252.8z M385.8,348.9c10.6,12.9,16.6,10.6,24.6,7.4c2.6-1,92.3-38.1,94.2-39.1
	c6.4-3.4-1.4-13.4-5.8-18.7c-1.7-2-164.1-196.5-165.7-198.6c-7.8-9.8-11.4-10.3-30.7-10.2c-8.2,0-85.4,0.4-93.2,0.5
	c-15.4,0.1-26.3-0.2-15.4,13.5C200,111.2,381.2,343.3,385.8,348.9z M507.9,350.1c-1.8-0.2-19.7-3.8-30.4-5.8c0,0-92,40.3-94,41.3
	c-12.8,5.8-21.5-2.6-29.4-11.7l-45.7-59.2c-4.3-0.7-48.3-7.7-52.2-7.4c-2.5,0.2-7.7,0.6-11.5,2.3c-3.9,1.7-116.1,42.2-120.1,43.8
	c-4.1,1.6-9.1,2.9-8.9,6.1c0.2,2,1.6,2.1,3.7,2.8c2.2,0.6,240.7,54.1,246.4,55.3c12.5,2.6,30.8,8.4,42.9,1.4
	c1.7-1,99-61.1,100.6-62.2C513.6,353.5,512.7,351.3,507.9,350.1z"/>
</svg>
