<?xml version="1.0" encoding="utf-8"?>
<!-- Generator: Adobe Illustrator 24.0.0, SVG Export Plug-In . SVG Version: 6.00 Build 0)  -->
<svg version="1.1" id="Layer_1" xmlns="http://www.w3.org/2000/svg" xmlns:xlink="http://www.w3.org/1999/xlink" x="0px" y="0px"
	 viewBox="0 0 512 512" style="enable-background:new 0 0 512 512;" xml:space="preserve">
<path d="M421.5,468.2c-1.2-7.7-1.3-7.6-9.6-7.6c-99.8,0.2-111.8-2.4-112.7-2.6c-12.3-1.7-20.6-10.5-21-23.1
	c-0.1-1.6-0.2-71.6-1-129.1c-0.1-4.7,1.6-6.4,5.9-7.5c12.5-3,24.9-6.1,37.3-9.7c4.3-1.3,6.8-0.2,8.4,3.5
	c4.5,10.3,8.8,20.6,13.2,30.9c1.6,3.7,0.1,4.4-3.4,4.4c-10-0.2-20-0.1-30.4-0.1v27h116c-1.4-9.5-2.7-18.1-4-27.5
	c-7,0-13.8,0.4-20.4-0.1c-22.6-1.6-18.3-4.4-84-158.6C307,148,287.9,106,279.3,78.9c-4.4-14,5.5-25.4,18.9-26.6
	c18.6-1.7,37.5-1.6,56.2-2c20.6-0.4,41.2-0.4,61.8-0.5c3.1,0,4-1.4,4.3-4.3c1.2-9.8,2.7-19.5,4-29.2c0.8-5.3,1.6-10.7,2.4-16.1
	L87.8,0c-3.6,0-5.3,1.1-4.6,5.3c2.2,13.2-0.8,0.8,6.4,45.3c63.4,0,71.8,0.9,101.8,0.5c12.3-0.2,37,3.5,37.7,22.1
	c0.4,11.4-1.1,11.3-32.6,87.4c-53.8,129.8-50.7,120.3-67.3,161c-1.7,4.1-3.6,5.2-7.6,5.2c-8.5-0.2-17-0.3-25.4,0.1
	c-1.9,0.1-5.2,1.8-5.5,3.2c-1.5,8.1-2.2,16.3-3.2,24.9h114.3v-27.6c-6.9,0-33.5,0.4-35.3-2.9c5.3-12.3,10.4-24.4,15.7-36.7
	c16.3,4,31.9,7.8,47.6,11.7c3.4,0.9,4.6,3,4.6,6.8c-0.1,42.9,0.1,85.9,0.2,128.8c0,10.2-5.5,19.1-14.9,23.1
	c-6.5,2.7-3.3,3.4-121.4,2.4c-5.3,0-7.1,2-7.6,6.8c-1.5,12.9-2.9,25.9-5,38.8c-0.8,5,1.3,5.7,5.3,5.7c183.2,0.6-30.7,0,337.1,0
	C425.6,496.9,423.7,482.5,421.5,468.2z M246.6,262.5c-13.3-4.2-26.6-8.2-39.9-12.5c-2-0.8-3.9-1.8-5.8-2.9
	c17.2-44.3,34.2-88.1,51.3-132.1c7.5,2.4,7.9-0.8,9.4,0c9.3,22.5,18.1,60.1,27,82.8c6.6,16.7,13,33.5,19.7,50.9
	c-1.3,0.8-2.6,1.5-3.9,2.1c-13.1,3.9-26.4,7.5-39.4,11.7C259,264.6,252.5,264.6,246.6,262.5L246.6,262.5z"/>
</svg>
