<?xml version="1.0" encoding="utf-8"?>
<!-- Generator: Adobe Illustrator 24.0.0, SVG Export Plug-In . SVG Version: 6.00 Build 0)  -->
<svg version="1.1" id="Layer_1" xmlns="http://www.w3.org/2000/svg" xmlns:xlink="http://www.w3.org/1999/xlink" x="0px" y="0px"
	 viewBox="0 0 512 512" style="enable-background:new 0 0 512 512;" xml:space="preserve">
<path d="M469.3,56.9H42.7C19.1,56.9,0,76,0,99.6v312.9c0,23.6,19.1,42.7,42.7,42.7h426.7c23.6,0,42.7-19.1,42.7-42.7V99.6
	C512,76,492.9,56.9,469.3,56.9z M469.3,412.4H42.7V99.6h426.7V412.4z M184.9,256c31.4,0,56.9-25.5,56.9-56.9s-25.5-56.9-56.9-56.9
	S128,167.7,128,199.1S153.5,256,184.9,256z M105.2,369.8h159.3c11,0,19.9-7.6,19.9-17.1v-17.1c0-28.3-26.8-51.2-59.7-51.2
	c-9.6,0-16.6,7.1-39.8,7.1c-23.9,0-29.7-7.1-39.8-7.1c-33,0-59.7,22.9-59.7,51.2v17.1C85.3,362.1,94.2,369.8,105.2,369.8z
	 M320,312.9h99.6c3.9,0,7.1-3.2,7.1-7.1v-14.2c0-3.9-3.2-7.1-7.1-7.1H320c-3.9,0-7.1,3.2-7.1,7.1v14.2
	C312.9,309.7,316.1,312.9,320,312.9z M320,256h99.6c3.9,0,7.1-3.2,7.1-7.1v-14.2c0-3.9-3.2-7.1-7.1-7.1H320c-3.9,0-7.1,3.2-7.1,7.1
	v14.2C312.9,252.8,316.1,256,320,256z M320,199.1h99.6c3.9,0,7.1-3.2,7.1-7.1v-14.2c0-3.9-3.2-7.1-7.1-7.1H320
	c-3.9,0-7.1,3.2-7.1,7.1V192C312.9,195.9,316.1,199.1,320,199.1z"/>
</svg>
