<?xml version="1.0" encoding="utf-8"?>
<!-- Generator: Adobe Illustrator 24.0.0, SVG Export Plug-In . SVG Version: 6.00 Build 0)  -->
<svg version="1.1" id="Layer_1" xmlns="http://www.w3.org/2000/svg" xmlns:xlink="http://www.w3.org/1999/xlink" x="0px" y="0px"
	 viewBox="0 0 512 512" style="enable-background:new 0 0 512 512;" xml:space="preserve">
<path d="M469.3,56.9H42.7C19.1,56.9,0,76,0,99.6v312.9c0,23.6,19.1,42.7,42.7,42.7h426.7c23.6,0,42.7-19.1,42.7-42.7V99.6
	C512,76,492.9,56.9,469.3,56.9z M156.4,142.2c31.4,0,56.9,25.5,56.9,56.9S187.8,256,156.4,256s-56.9-25.5-56.9-56.9
	S125.1,142.2,156.4,142.2z M256,352.7c0,9.4-8.9,17.1-19.9,17.1H76.8c-11,0-19.9-7.6-19.9-17.1v-17.1c0-28.3,26.8-51.2,59.7-51.2
	h4.4c10.9,4.5,22.8,7.1,35.4,7.1s24.5-2.6,35.4-7.1h4.4c33,0,59.7,22.9,59.7,51.2V352.7z M455.1,305.8c0,3.9-3.2,7.1-7.1,7.1H320
	c-3.9,0-7.1-3.2-7.1-7.1v-14.2c0-3.9,3.2-7.1,7.1-7.1h128c3.9,0,7.1,3.2,7.1,7.1V305.8z M455.1,248.9c0,3.9-3.2,7.1-7.1,7.1H320
	c-3.9,0-7.1-3.2-7.1-7.1v-14.2c0-3.9,3.2-7.1,7.1-7.1h128c3.9,0,7.1,3.2,7.1,7.1V248.9z M455.1,192c0,3.9-3.2,7.1-7.1,7.1H320
	c-3.9,0-7.1-3.2-7.1-7.1v-14.2c0-3.9,3.2-7.1,7.1-7.1h128c3.9,0,7.1,3.2,7.1,7.1V192z"/>
</svg>
