<?xml version="1.0" encoding="utf-8"?>
<!-- Generator: Adobe Illustrator 24.0.0, SVG Export Plug-In . SVG Version: 6.00 Build 0)  -->
<svg version="1.1" id="Layer_1" xmlns="http://www.w3.org/2000/svg" xmlns:xlink="http://www.w3.org/1999/xlink" x="0px" y="0px"
	 viewBox="0 0 512 512" style="enable-background:new 0 0 512 512;" xml:space="preserve">
<path d="M468,160c6.6,0,12-5.4,12-12v-40c0-6.6-5.4-12-12-12h-20V48c0-26.5-21.5-48-48-48H80C53.5,0,32,21.5,32,48v416
	c0,26.5,21.5,48,48,48h320c26.5,0,48-21.5,48-48v-48h20c6.6,0,12-5.4,12-12v-40c0-6.6-5.4-12-12-12h-20v-64h20c6.6,0,12-5.4,12-12
	v-40c0-6.6-5.4-12-12-12h-20v-64H468z M240,128c35.3,0,64,28.7,64,64s-28.7,64-64,64s-64-28.7-64-64S204.7,128,240,128z M352,364.8
	c0,10.6-10,19.2-22.4,19.2H150.4c-12.4,0-22.4-8.6-22.4-19.2v-19.2c0-31.8,30.1-57.6,67.2-57.6h5c12.3,5.1,25.7,8,39.8,8
	s27.6-2.9,39.8-8h5c37.1,0,67.2,25.8,67.2,57.6V364.8z"/>
</svg>
