<?xml version="1.0" encoding="utf-8"?>
<!-- Generator: Adobe Illustrator 24.0.0, SVG Export Plug-In . SVG Version: 6.00 Build 0)  -->
<svg version="1.1" id="Layer_1" xmlns="http://www.w3.org/2000/svg" xmlns:xlink="http://www.w3.org/1999/xlink" x="0px" y="0px"
	 viewBox="0 0 512 512" style="enable-background:new 0 0 512 512;" xml:space="preserve">
<path d="M442.9,321.4L348.7,224h49.2c15.3,0,23.7-16.6,13.9-27.5L298.5,70c3.4-6.6,5.5-14,5.5-22c0-26.5-21.5-48-48-48
	s-48,21.5-48,48c0,8,2.1,15.3,5.6,22L100.2,196.5c-9.8,10.9-1.4,27.5,13.9,27.5h49.2l-94.2,97.4C57.3,333.6,67.3,352,85.7,352H224
	v32H112c-8.8,0-16,7.2-16,16v96c0,8.8,7.2,16,16,16h288c8.8,0,16-7.2,16-16v-96c0-8.8-7.2-16-16-16H288v-32h138.3
	C444.7,352,454.7,333.6,442.9,321.4z M256,32c8.9,0,16,7.2,16,16c0,8.8-7.2,16-16,16s-16-7.2-16-16C240,39.2,247.1,32,256,32z
	 M368,432v32H144v-32H368z"/>
</svg>
