<?xml version="1.0" encoding="utf-8"?>
<!-- Generator: Adobe Illustrator 24.0.0, SVG Export Plug-In . SVG Version: 6.00 Build 0)  -->
<svg version="1.1" id="Layer_1" xmlns="http://www.w3.org/2000/svg" xmlns:xlink="http://www.w3.org/1999/xlink" x="0px" y="0px"
	 viewBox="0 0 512 512" style="enable-background:new 0 0 512 512;" xml:space="preserve">
<path d="M256,373.1c-25.2-31.7-40.1-59.4-45-83.2c-22.6-88,112.6-88,90.1,0C295.6,314.2,280.8,341.9,256,373.1L256,373.1z
	 M394.1,446.4c-42.1,18.3-83.7-10.9-119.3-50.5c103.9-130.1,46.1-200-18.8-200c-54.9,0-85.2,46.5-73.3,100.5
	c6.9,29.2,25.2,62.4,54.4,99.5c-32.5,36-60.6,52.7-85.1,54.9c-50,7.4-89.1-41.1-71.3-91.1c15.1-39.2,111.7-231.2,115.9-241.6
	c15.8-30.1,25.6-57.4,59.4-57.4c32.3,0,43.4,25.9,60.4,59.9c36,70.6,89.4,177.5,114.8,239.1C444.3,392.8,429.8,431,394.1,446.4
	L394.1,446.4z M441.1,310.2C312.3,35.9,305.1,32,256,32c-45.5,0-64.9,31.7-84.7,72.8C65.2,317.1,54.9,347.2,54,349.8
	C28.8,419.1,80.7,480,143.6,480c21.7,0,60.6-6.1,112.4-62.4c58.7,63.8,101.3,62.4,112.4,62.4c62.9,0,114.9-60.9,89.6-130.2
	C458,345.9,441.2,310.9,441.1,310.2L441.1,310.2z"/>
</svg>
