<?xml version="1.0" encoding="utf-8"?>
<!-- Generator: Adobe Illustrator 24.0.0, SVG Export Plug-In . SVG Version: 6.00 Build 0)  -->
<svg version="1.1" id="Layer_1" xmlns="http://www.w3.org/2000/svg" xmlns:xlink="http://www.w3.org/1999/xlink" x="0px" y="0px"
	 viewBox="0 0 512 512" style="enable-background:new 0 0 512 512;" xml:space="preserve">
<path d="M261.3,182.6c-49.3,0-89.2,39.9-89.2,89.2S212,361,261.3,361s89.2-39.9,89.2-89.2S310.5,182.6,261.3,182.6L261.3,182.6z
	 M324,239.2l-58.9,30.6c-1.8,0.9-3.8-0.4-3.8-2.3V201c0-1.5,1.3-2.7,2.7-2.6c26.2,1,48.9,15.7,61.1,37.1
	C325.8,236.8,325.3,238.5,324,239.2L324,239.2z M421.1,32H90.9C58.4,32,32,58.4,32,90.9V421c0,32.6,26.4,59,58.9,59H421
	c32.6,0,58.9-26.4,58.9-58.9V90.9C480,58.4,453.6,32,421.1,32z M218.5,116.7c0-10.8,8.7-19.5,19.5-19.5h45.3
	c10.8,0,19.5,8.7,19.5,19.5v15.4c0,1.8-1.7,3-3.3,2.5c-12.3-3.4-25.1-5.1-38.1-5.1c-13.5,0-26.7,1.8-39.4,5.5
	c-1.7,0.5-3.4-0.8-3.4-2.5v-15.8L218.5,116.7z M134.1,153.7l9.2-9.2c7.6-7.6,19.9-7.6,27.5,0l7.7,7.7c1.1,1.1,1,3-0.3,4
	c-6.2,4.5-12.1,9.4-17.6,14.9c-5.4,5.4-10.4,11.3-14.8,17.4c-1,1.3-2.9,1.5-4,0.3l-7.7-7.7C126.5,173.6,126.5,161.3,134.1,153.7
	L134.1,153.7z M261.3,398.5c-70,0-126.6-56.7-126.6-126.6s56.7-126.6,126.6-126.6c70,0,126.6,56.6,126.6,126.6
	C387.9,341.7,331.2,398.5,261.3,398.5z"/>
</svg>
