<?xml version="1.0" encoding="utf-8"?>
<!-- Generator: Adobe Illustrator 24.0.0, SVG Export Plug-In . SVG Version: 6.00 Build 0)  -->
<svg version="1.1" id="Layer_1" xmlns="http://www.w3.org/2000/svg" xmlns:xlink="http://www.w3.org/1999/xlink" x="0px" y="0px"
	 viewBox="0 0 512 512" style="enable-background:new 0 0 512 512;" xml:space="preserve">
<path d="M44.8,352h262.3c7.1,0,12.8-5.7,12.8-12.8c0,0,0,0,0,0v-38.3c0-7.1-5.7-12.8-12.8-12.8c0,0,0,0,0,0H44.8
	c-7.1,0-12.8,5.7-12.8,12.8c0,0,0,0,0,0v38.3C32,346.3,37.7,352,44.8,352C44.8,352,44.8,352,44.8,352z M44.8,96h262.3
	c7.1,0,12.8-5.7,12.8-12.8c0,0,0,0,0,0V44.8c0-7.1-5.7-12.8-12.8-12.8c0,0,0,0,0,0H44.8C37.7,32,32,37.7,32,44.8c0,0,0,0,0,0v38.3
	C32,90.3,37.7,96,44.8,96C44.8,96,44.8,96,44.8,96z M464,160H48c-8.8,0-16,7.2-16,16v32c0,8.8,7.2,16,16,16h416c8.8,0,16-7.2,16-16
	v-32C480,167.2,472.8,160,464,160z M464,416H48c-8.8,0-16,7.2-16,16v32c0,8.8,7.2,16,16,16h416c8.8,0,16-7.2,16-16v-32
	C480,423.2,472.8,416,464,416z"/>
</svg>
