<?xml version="1.0" encoding="utf-8"?>
<!-- Generator: Adobe Illustrator 24.0.0, SVG Export Plug-In . SVG Version: 6.00 Build 0)  -->
<svg version="1.1" id="Layer_1" xmlns="http://www.w3.org/2000/svg" xmlns:xlink="http://www.w3.org/1999/xlink" x="0px" y="0px"
	 viewBox="0 0 512 512" style="enable-background:new 0 0 512 512;" xml:space="preserve">
<path d="M48,224h416c8.8,0,16-7.2,16-16v-32c0-8.8-7.2-16-16-16H48c-8.8,0-16,7.2-16,16v32C32,216.8,39.2,224,48,224z M464,416H48
	c-8.8,0-16,7.2-16,16v32c0,8.8,7.2,16,16,16h416c8.8,0,16-7.2,16-16v-32C480,423.2,472.8,416,464,416z M467.2,32H204.8
	c-7.1,0-12.8,5.7-12.8,12.8c0,0,0,0,0,0v38.3c0,7.1,5.7,12.8,12.8,12.8c0,0,0,0,0,0h262.3c7.1,0,12.8-5.7,12.8-12.8c0,0,0,0,0,0
	V44.8C480,37.7,474.3,32,467.2,32C467.2,32,467.2,32,467.2,32z M467.2,288H204.8c-7.1,0-12.8,5.7-12.8,12.8c0,0,0,0,0,0v38.3
	c0,7.1,5.7,12.8,12.8,12.8c0,0,0,0,0,0h262.3c7.1,0,12.8-5.7,12.8-12.8c0,0,0,0,0,0v-38.3C480,293.7,474.3,288,467.2,288
	C467.2,288,467.2,288,467.2,288z"/>
</svg>
