<?xml version="1.0" encoding="utf-8"?>
<!-- Generator: Adobe Illustrator 24.0.0, SVG Export Plug-In . SVG Version: 6.00 Build 0)  -->
<svg version="1.1" id="Layer_1" xmlns="http://www.w3.org/2000/svg" xmlns:xlink="http://www.w3.org/1999/xlink" x="0px" y="0px"
	 viewBox="0 0 512 512" style="enable-background:new 0 0 512 512;" xml:space="preserve">
<path d="M464,160H48c-8.8,0-16,7.2-16,16v32c0,8.8,7.2,16,16,16h416c8.8,0,16-7.2,16-16v-32C480,167.2,472.8,160,464,160z M464,416
	H48c-8.8,0-16,7.2-16,16v32c0,8.8,7.2,16,16,16h416c8.8,0,16-7.2,16-16v-32C480,423.2,472.8,416,464,416z M140.1,96h231.8
	c6.7,0,12.1-5.4,12.1-12.1c0,0,0,0,0,0V44.1c0-6.7-5.4-12.1-12.1-12.1H140.1c-6.7,0-12.1,5.4-12.1,12.1c0,0,0,0,0,0v39.8
	C128,90.6,133.4,96,140.1,96z M371.9,352c6.7,0,12.1-5.4,12.1-12.1c0,0,0,0,0,0v-39.8c0-6.7-5.4-12.1-12.1-12.1H140.1
	c-6.7,0-12.1,5.4-12.1,12.1c0,0,0,0,0,0v39.8c0,6.7,5.4,12.1,12.1,12.1c0,0,0,0,0,0H371.9z"/>
</svg>
