<?xml version="1.0" encoding="utf-8"?>
<!-- Generator: Adobe Illustrator 24.0.0, SVG Export Plug-In . SVG Version: 6.00 Build 0)  -->
<svg version="1.1" id="Layer_1" xmlns="http://www.w3.org/2000/svg" xmlns:xlink="http://www.w3.org/1999/xlink" x="0px" y="0px"
	 viewBox="0 0 512 512" style="enable-background:new 0 0 512 512;" xml:space="preserve">
<path d="M409.7,32H102.3C63.4,32,32,63.4,32,102.3v307.5c0,38.8,31.4,70.3,70.3,70.3h307.5c38.5,0,69.8-31.1,70.3-69.6
	c-46-25.6-110.6-60.3-171.6-88.4c-32.1,44-84.1,81-148.6,81c-70.6,0-93.7-45.3-97-76.4c-4-39,14.9-81.5,99.5-81.5
	c35.4,0,79.3,10.3,127.1,25c16.5-30.1,26.5-60.3,26.5-60.3H137.6V193h92.1v-31.2H120.3v-19h109.4V92.3h50.9v50.4h109.4v19H280.6V193
	h88.8c0,0-15.2,46.6-38.4,90.9c48.9,16.7,100,36,148.6,52.7V102.3C479.8,63.6,448.4,32,409.7,32z M79.3,323
	c1,20.2,10.3,53.7,69.9,53.7c52.1,0,92.6-39.7,117.9-72.9c-44.6-18.7-84.5-31.4-109.4-31.4C90.2,272.4,78.3,305.4,79.3,323z"/>
</svg>
