<?xml version="1.0" encoding="utf-8"?>
<!-- Generator: Adobe Illustrator 24.0.0, SVG Export Plug-In . SVG Version: 6.00 Build 0)  -->
<svg version="1.1" id="Layer_1" xmlns="http://www.w3.org/2000/svg" xmlns:xlink="http://www.w3.org/1999/xlink" x="0px" y="0px"
	 viewBox="0 0 512 512" style="enable-background:new 0 0 512 512;" xml:space="preserve">
<path d="M448,112c-17.6,0-32,14.4-32,32v72c0,4.4-3.6,8-8,8h-16c-4.4,0-8-3.6-8-8V64c0-17.6-14.4-32-32-32s-32,14.4-32,32v152
	c0,4.4-3.6,8-8,8h-16c-4.4,0-8-3.6-8-8V32c0-17.6-14.4-32-32-32s-32,14.4-32,32v184c0,4.4-3.6,8-8,8h-16c-4.4,0-8-3.6-8-8V64
	c0-17.6-14.4-32-32-32s-32,14.4-32,32v241l-23.6-32.5c-13-17.9-38-21.8-55.9-8.8c-17.9,13-21.8,38-8.8,55.9l125.6,172.7
	c9,12.4,23.5,19.8,38.8,19.8h197.6c22.3,0,41.6-15.3,46.7-37l26.5-112.7c3.2-13.7,4.9-28.3,5.1-42.3V144
	C480,126.4,465.6,112,448,112L448,112z M208,416c-8.8,0-16-7.2-16-16s7.2-16,16-16s16,7.2,16,16S216.8,416,208,416z M208,320
	c-8.8,0-16-7.2-16-16s7.2-16,16-16s16,7.2,16,16S216.8,320,208,320z M272,448c-8.8,0-16-7.2-16-16s7.2-16,16-16s16,7.2,16,16
	S280.8,448,272,448z M272,352c-8.8,0-16-7.2-16-16s7.2-16,16-16s16,7.2,16,16S280.8,352,272,352z M336,384c-8.8,0-16-7.2-16-16
	s7.2-16,16-16s16,7.2,16,16S344.8,384,336,384z M368,448c-8.8,0-16-7.2-16-16s7.2-16,16-16s16,7.2,16,16S376.8,448,368,448z
	 M400,320c-8.8,0-16-7.2-16-16s7.2-16,16-16s16,7.2,16,16S408.8,320,400,320z"/>
</svg>
