<?xml version="1.0" encoding="utf-8"?>
<!-- Generator: Adobe Illustrator 24.0.0, SVG Export Plug-In . SVG Version: 6.00 Build 0)  -->
<svg version="1.1" id="Layer_1" xmlns="http://www.w3.org/2000/svg" xmlns:xlink="http://www.w3.org/1999/xlink" x="0px" y="0px"
	 viewBox="0 0 512 512" style="enable-background:new 0 0 512 512;" xml:space="preserve">
<path d="M-0.4,314c1.9-3.5,4.4-4.1,8.1-2.1c8.7,4.7,17.3,9.5,26.1,14c34,16.9,69.8,30,106.7,38.8c17.5,4.2,35.1,7.5,52.9,9.9
	c26.4,3.5,53,5,79.6,4.4c14.6-0.3,29.2-1.5,43.6-3.2c47.1-5.5,93.1-17.6,136.8-35.9c2.4-1,4.9-1.7,7.6-1c5.6,1.5,7.5,7.5,3.4,11.6
	c-2.5,2.3-5.2,4.4-8,6.2c-25.7,17.7-53.8,30.5-83.4,40.1c-20.5,6.6-41.6,11.5-62.9,14.7c-14.8,2.3-29.6,3.6-44.6,4
	c-0.7,0-1.4,0.1-2.1,0.3h-17.7c-0.7-0.1-1.4-0.2-2.1-0.3c-3-0.2-6-0.3-9-0.3c-14.1-0.6-28.2-2.1-42.2-4.4
	c-22.9-3.7-45.5-9.6-67.4-17.5c-45-16.2-86.4-41-122-72.9c-1.5-1.3-2.5-3.2-3.7-4.8L-0.4,314z M132,96.1l-3.6,0.5
	c-11.5,1.4-22.5,5.8-31.8,12.6c-2,1.4-3.9,2.9-5.9,4.5c-0.2-0.4-0.3-0.8-0.3-1.2c-0.3-2.3-0.7-4.6-1.1-6.9c-0.6-3.9-2.5-5.5-6.4-5.5
	h-9.6c-5.8,0-6.9,1.1-6.9,6.9v175.3c0,0.8,0,1.7,0.1,2.5c0.2,2.5,1.7,4.1,4.1,4.2c5.9,0.1,11.8,0.1,17.7,0c2.4,0,3.9-1.7,4.2-4.2
	c0.1-0.8,0.1-1.7,0.1-2.5v-60.6c0.9,0.8,1.4,1.2,1.8,1.6c15,12.5,32.3,16.6,51.1,12.9c17.1-3.4,29-13.8,36.7-29.2
	c5.9-11.6,8.3-24,8.6-36.9c0.4-14.3-1-28.4-6.8-41.7c-7.1-16.4-18.9-27.2-36.8-30.9c-2.7-0.6-5.4-0.8-8.2-1.3
	C136.6,96.1,134.3,96.1,132,96.1z M92.2,131.2c-0.1-1.1,0.5-2.2,1.4-2.8c11.5-8,24.1-12.1,38.2-11.1c12.5,0.9,22.7,7,28.1,21.7
	c3.3,9,4.1,18.3,4.1,27.6c0,8.7-0.7,17.3-3.4,25.6c-5.7,17.8-18.8,24.6-35.7,23.9c-11.7-0.5-21.9-5-31.3-11.6
	c-1-0.6-1.5-1.6-1.4-2.8c0.1-11.8,0-23.5,0-35.4S92.3,143,92.2,131.2L92.2,131.2z M264.6,96.1c-0.8,0.1-1.7,0.3-2.4,0.3
	c-8.2,0.3-16.3,1.5-24.2,3.4c-5.1,1.3-10.1,3.2-15,4.9c-3,1-4.5,3.2-4.4,6.5c0.1,2.8-0.1,5.5,0,8.3c0.1,4,1.8,5.1,5.7,4.1
	c6.5-1.7,13.1-3.5,19.7-4.8c10.3-1.9,20.7-2.8,31.2-1.2c5.4,0.8,10.6,2.4,14.1,7c3.1,4,4.3,8.8,4.4,13.7c0.3,7,0.2,13.9,0.3,20.9
	c0,0.4-0.1,0.8-0.2,1.2c-0.4-0.1-0.8,0-1.1-0.1c-8.8-2.2-17.8-3.5-26.8-4.1c-9.5-0.5-18.8,0.1-27.9,3.3
	c-10.8,3.8-19.5,10.3-24.6,20.9c-3.9,8.2-4.5,16.9-3.3,25.7c1.7,11.7,7.5,20.8,17.9,26.6c10,5.5,20.8,6.2,31.7,4.5
	c12.6-1.9,23.9-7.3,33.8-15.4c0.4-0.4,0.9-0.7,1.3-0.9c0.5,3.2,0.9,6.2,1.5,9.2c0.5,2.6,2.1,4.3,4.5,4.4c4.5,0.1,9.1,0.1,13.7,0
	c2.2,0,4-1.8,4-3.9c0.1-0.8,0.1-1.6,0.1-2.3v-88.8c0-3.6-0.2-7.2-0.8-10.8c-1.6-10.8-6.2-19.7-15.9-25.5c-5.6-3.4-11.8-5-18.3-5.9
	c-3-0.4-6-0.7-9-1.1C271.3,96.1,267.9,96.1,264.6,96.1L264.6,96.1z M293.9,203c0.1,1-0.4,2-1.3,2.5c-9.4,6.8-19.7,11.3-31.3,12.5
	c-4.8,0.5-9.5,0.3-14.1-1.5c-5-1.8-8.9-6-10.4-11.1c-1.7-5.3-1.7-10.9-0.1-16.3c2.1-7,7-10.9,13.7-13.1c6.7-2,13.8-2.7,20.8-1.8
	c7,0.6,13.9,1.9,20.9,2.8c1.3,0.2,1.8,0.8,1.8,2.2c-0.1,4,0,8,0,12S293.8,199.1,293.9,203z M511.6,311.4c-0.8-4.2-4-5.8-7.6-7
	c-5.7-1.8-11.6-2.9-17.6-3.3c-11-0.9-22-0.4-32.8,1.6c-12,2.3-23.4,6.1-33.5,13.1c-1.2,0.8-2.3,1.8-3.1,2.9c-0.6,1-0.7,2.2-0.4,3.4
	c0.3,1.3,1.8,1.6,3,1.5c0.6,0,1.2,0,1.8-0.1c6.5-0.7,13-1.4,19.5-2.1c9.5-0.9,19.2-1.5,28.7-0.8c4.1,0.3,8.1,1.1,12.1,2.3
	c4.3,1.2,6.2,4.4,6.4,8.7c0.3,6.7-1.2,13.2-2.9,19.5c-3.4,12.9-8.4,25.4-13.2,37.8c-0.4,0.8-0.6,1.7-0.8,2.5c-0.4,2.4,1,4,3.4,3.4
	c1.5-0.3,2.9-1.1,4-2.1c3.8-3.5,7.3-7.3,10.6-11.2c10.7-13.7,17-29.6,20.7-46.6c0.7-3,1.2-6.1,1.8-9.1L511.6,311.4L511.6,311.4z
	 M400.9,208.2c-10.8-29.9-21.6-59.8-32.4-89.8c-1.7-4.8-3.5-9.5-5.3-14.2c-0.9-2.4-2.7-4-5.4-4c-6.4-0.1-12.7-0.2-19.2-0.1
	c-2.1,0-3.1,1.7-2.7,3.8c0.4,1.7,0.9,3.4,1.6,5.1c16.4,40.6,32.9,81.3,49.5,121.9c1.4,3.4,1.8,6.4,0.2,9.9
	c-2.8,6.1-4.9,12.6-7.8,18.7c-2.5,5.4-6.7,9.5-12.7,11.1c-4.2,1.1-8.6,1.4-12.9,0.9c-2.1-0.2-4.2-0.7-6.3-0.8
	c-2.8-0.2-4.3,1.1-4.4,4c-0.1,2.8-0.1,5.6,0,8.3c0.1,4.6,1.7,6.7,6.2,7.5c4.7,0.9,9.4,1.5,14.2,1.7c14.3,0.3,25.7-5.4,33.1-17.9
	c3-4.9,5.5-10.1,7.7-15.4c19.9-50.1,39.6-100.2,59.1-150.5c0.6-1.5,1.1-3,1.3-4.6c0.3-2.3-0.8-3.7-3.1-3.7c-5.5-0.1-11.1,0-16.7,0
	c-2.9-0.2-5.6,1.6-6.5,4.4c-0.4,1.2-0.9,2.3-1.3,3.4l-29.2,83.8c-2.1,6-4.3,12.1-6.5,18.6C401.4,209.3,401.2,208.8,400.9,208.2
	L400.9,208.2z"/>
</svg>
