<?xml version="1.0" encoding="utf-8"?>
<!-- Generator: Adobe Illustrator 24.0.0, SVG Export Plug-In . SVG Version: 6.00 Build 0)  -->
<svg version="1.1" id="Layer_1" xmlns="http://www.w3.org/2000/svg" xmlns:xlink="http://www.w3.org/1999/xlink" x="0px" y="0px"
	 viewBox="0 0 512 512" style="enable-background:new 0 0 512 512;" xml:space="preserve">
<path d="M294,149.4c-55.7,2-193.7,17.7-193.7,134.2c0,125.1,158.1,130.3,209.7,49.4c7.5,11.6,40.5,42.8,51.7,53.5l64.9-64
	c0,0-36.9-29-36.9-60.3V94.1c0-28.9-28-94.1-128.3-94.1C160.8,0,107.4,62.9,107.4,119.2l84,7.7c18.6-56.6,61.9-56.6,61.9-56.6
	C299.9,70.3,294,104.4,294,149.4L294,149.4z M294,248.5c0,91.4-96.2,77.7-96.2,19.7c0-54,57.7-64.8,96.2-66.1V248.5z M449.3,435.4
	c-8.8,11.4-80,76.6-199.4,76.6S39.1,430.3,11.1,396.5c-7.7-8.8,1.2-12.9,6.3-9.5c83.8,50.9,214.6,134.6,425.7,34.7
	C451.7,417.5,458.2,424,449.3,435.4z M494.9,437.9c-7.5,18-18.3,30.6-24.2,35.5c-6.3,5.1-10.8,3.1-7.5-4.4
	c3.4-7.5,22.1-53.2,14.5-62.9c-7.5-9.5-42.3-4.9-54.8-3.7c-12.3,1.2-14.8,2.3-16-0.4c-2.6-6.5,24.8-17.7,42.8-20
	c17.9-2,46.9-0.9,52.6,6.5C506.5,394.5,502.3,419.7,494.9,437.9L494.9,437.9z"/>
</svg>
