<?xml version="1.0" encoding="utf-8"?>
<!-- Generator: Adobe Illustrator 24.0.0, SVG Export Plug-In . SVG Version: 6.00 Build 0)  -->
<svg version="1.1" id="Layer_1" xmlns="http://www.w3.org/2000/svg" xmlns:xlink="http://www.w3.org/1999/xlink" x="0px" y="0px"
	 viewBox="0 0 512 512" style="enable-background:new 0 0 512 512;" xml:space="preserve">
<path d="M232.4,202.4c-16.2-8.1-35.3-9-51.8-3.1c34.1,0,57,16.4,68.5,40.5c6.9,14.3-4.1,30.5-18.9,30.5c14.7,0,25.8,16.1,18.9,30.5
	c-11.8,24.7-36.9,40.7-64.2,40.7c-0.4,0-75.6-6.9-75.6-6.9l-53.1,26.7c-7.5,3.8-15.9,0.3-19.1-6.2L1.5,283.8
	c-3.3-6.9-0.9-15.1,5.6-18.9l46.5-26.5l32.9-59.4c5.1-45.8,27.8-87.8,63.8-117.4c9.1-7.6,22.7-6.2,30,2.9c7.6,9.1,6.2,22.5-2.9,30
	c-10,8.4-18.9,18-26,28.5c17.3-11.8,37.3-19.8,59.3-22.5c11.8-1.6,22.5,6.7,23.8,18.5c1.6,11.8-6.7,22.5-18.4,23.8
	c-12.9,1.6-24.9,6-35.3,12.2c20.9-4.6,47-2.5,70.5,8.9c10.7,5.3,15.1,18,9.8,28.7C255.8,203.1,242.9,207.5,232.4,202.4L232.4,202.4z
	 M210.7,258c-4.9-10-14.7-16.2-25.8-16.2c-15.7,0-28.4,12.6-28.5,28.3c0,0.1,0,0.1,0,0.2c0,17.1,14.2,28.5,28.5,28.5
	c11.1,0,20.9-6.2,25.8-16.2c3.6-7.6,10.9-12,18.7-12.2C221.5,270,214.2,265.6,210.7,258z M510.5,228.2c3.3,6.9,0.9,15.1-5.6,18.9
	l-46.5,26.5l-32.9,59.4c-5.1,45.8-27.8,87.8-63.8,117.4c-8.7,7.3-22.2,6.5-30-2.9c-7.6-9.1-6.2-22.5,2.9-30c10-8.4,18.9-18,26-28.5
	c-17.3,11.8-37.3,19.8-59.3,22.5c-8,2-22-4.5-23.8-18.5c-1.6-11.8,6.7-22.5,18.4-23.8c12.9-1.6,24.9-6,35.3-12.2
	c-20.9,4.6-47,2.5-70.5-8.9c-10.7-5.3-15.1-18-9.8-28.7c5.1-10.4,18-14.9,28.5-9.8c16.2,8.1,35.3,9,51.8,3.1
	c-34.1,0-57-16.4-68.5-40.5c-6.9-14.3,4.1-30.5,18.9-30.5c-14.7,0-25.8-16.1-18.9-30.5c11.2-23.5,35.2-40.7,65.6-40.7l74.2,6.9
	l53.1-26.7c7.5-3.8,15.9-0.3,19.1,6.2L510.5,228.2L510.5,228.2z M327.1,213.3c-11.1,0-20.9,6.2-25.8,16.2
	c-3.6,7.6-10.9,12-18.7,12.2c7.8,0.2,15.1,4.7,18.7,12.2c4.9,10,14.7,16.2,25.8,16.2c15.7,0,28.4-12.6,28.5-28.3c0-0.1,0-0.1,0-0.2
	C355.6,224.6,341.3,213.3,327.1,213.3L327.1,213.3z"/>
</svg>
