<?xml version="1.0" encoding="utf-8"?>
<!-- Generator: Adobe Illustrator 24.0.0, SVG Export Plug-In . SVG Version: 6.00 Build 0)  -->
<svg version="1.1" id="Layer_1" xmlns="http://www.w3.org/2000/svg" xmlns:xlink="http://www.w3.org/1999/xlink" x="0px" y="0px"
	 viewBox="0 0 512 512" style="enable-background:new 0 0 512 512;" xml:space="preserve">
<path d="M274.4,0C203.6,0,124.1,19.3,63.9,63.3c-5.8,3.5-10.4,10.5-8.2,22.2c1.3,5.8,5.8,31.3,11.7,45.3c4.7,11.7,16.2,11.7,23.2,7
	c37.1-25.5,110.3-54.5,174.1-54.5c66.2,0,67.3,32.5,67.3,83.5v44c-100,12.9-242.6,39.5-278.6,54.6C12.9,284,18.7,372.2,18.7,393.1
	C18.7,414,36,512,161.4,512c54.6,0,129.9-23.7,175.2-48.1v29c0,3.4,2.4,9.4,7,10.4c3.5,1.1,57.9,2.3,68.5,2.3
	c10.5,0,71.4,0.3,76-0.8c4.7-1.1,5.8-7,5.8-10.4v-339C493.7,63.7,427.6,0,274.4,0z M331.8,397.7c-24.5,15.1-55.7,27.9-90.4,27.9
	c-60.3,0-67.3-38.3-67.4-51.1c0-13.9-3.4-48.8,20.9-60.5c27.8-15.1,85.8-33.6,136.9-38.3V397.7z"/>
</svg>
