<?xml version="1.0" encoding="utf-8"?>
<!-- Generator: Adobe Illustrator 24.0.0, SVG Export Plug-In . SVG Version: 6.00 Build 0)  -->
<svg version="1.1" id="Layer_1" xmlns="http://www.w3.org/2000/svg" xmlns:xlink="http://www.w3.org/1999/xlink" x="0px" y="0px"
	 viewBox="0 0 512 512" style="enable-background:new 0 0 512 512;" xml:space="preserve">
<path d="M10.7,341.6h28.9C59.1,433.2,161.4,484.3,256,484.3c94.7,0,197-51.2,216.4-142.7h28.9c9.5,0,14.3-11.5,7.6-18.3l-59.8-59.8
	c-4.2-4.2-11-4.2-15.1,0l-59.8,59.8c-6.7,6.7-2,18.3,7.6,18.3h31.3c-18.1,48.4-75.8,77.2-128.5,83.8V256H331
	c5.9,0,10.7-4.8,10.7-10.7v-35.7c0-5.9-4.8-10.7-10.7-10.7h-46.4V194c33.2-11.8,57.1-43.5,57.1-80.7c0-46.6-37.8-85-84.4-85.6
	c-47.8-0.7-86.8,37.9-86.8,85.6c0,37.3,23.8,69,57.1,80.7v4.9h-46.4c-5.9,0-10.7,4.8-10.7,10.7v35.7c0,5.9,4.8,10.7,10.7,10.7h46.4
	v169.5c-52.6-6.6-110.4-35.4-128.5-83.8h31.3c9.5,0,14.3-11.5,7.6-18.3l-59.8-59.8c-4.2-4.2-11-4.2-15.1,0L3.2,323.3
	C-3.6,330.1,1.2,341.6,10.7,341.6z M256,84.8c15.7,0,28.5,12.8,28.5,28.5s-12.8,28.5-28.5,28.5s-28.5-12.8-28.5-28.5
	S240.3,84.8,256,84.8z"/>
</svg>
