<?xml version="1.0" encoding="utf-8"?>
<!-- Generator: Adobe Illustrator 24.0.0, SVG Export Plug-In . SVG Version: 6.00 Build 0)  -->
<svg version="1.1" id="Layer_1" xmlns="http://www.w3.org/2000/svg" xmlns:xlink="http://www.w3.org/1999/xlink" x="0px" y="0px"
	 viewBox="0 0 512 512" style="enable-background:new 0 0 512 512;" xml:space="preserve">
<path d="M373.8,293c-11.8,0-21.3-9.6-21.3-21.3c0-11.8,9.6-21.3,21.3-21.3c11.8,0,21.3,9.6,21.3,21.3
	C395.1,283.4,385.6,293,373.8,293 M138.2,293c-11.8,0-21.3-9.6-21.3-21.3c0-11.8,9.6-21.3,21.3-21.3c11.7,0,21.3,9.6,21.3,21.3
	C159.5,283.4,149.9,293,138.2,293 M381.4,164.6L424,90.8c2.8-4.1,1.6-9.6-2.5-12.3c-4.1-2.8-9.6-1.6-12.3,2.5
	c-0.2,0.3-0.4,0.6-0.6,1l0,0l-43.1,74.7c-69.8-31.3-149.5-31.3-219.2,0L103.2,82c-2.2-4.4-7.5-6.2-11.9-4c-4.4,2.2-6.2,7.5-4,11.9
	c0.2,0.3,0.4,0.7,0.6,1l0,0l42.6,73.8C57.3,204.3,7.3,278.4,0,366h512C504.7,278.4,454.6,204.3,381.4,164.6"/>
</svg>
