<?xml version="1.0" encoding="utf-8"?>
<!-- Generator: Adobe Illustrator 24.0.0, SVG Export Plug-In . SVG Version: 6.00 Build 0)  -->
<svg version="1.1" id="Layer_1" xmlns="http://www.w3.org/2000/svg" xmlns:xlink="http://www.w3.org/1999/xlink" x="0px" y="0px"
	 viewBox="0 0 512 512" style="enable-background:new 0 0 512 512;" xml:space="preserve">
<path d="M255.7,239l136-136c9.4-9.4,24.6-9.4,33.9,0l22.6,22.6c9.4,9.4,9.4,24.6,0,33.9L351.9,256l96.4,96.4
	c9.4,9.4,9.4,24.6,0,33.9L425.7,409c-9.4,9.4-24.6,9.4-33.9,0l-136-136C246.3,263.6,246.3,248.4,255.7,239L255.7,239z M63.7,273
	l136,136c9.4,9.4,24.6,9.4,33.9,0l22.6-22.6c9.4-9.4,9.4-24.6,0-33.9L159.9,256l96.4-96.4c9.4-9.4,9.4-24.6,0-33.9L233.7,103
	c-9.4-9.4-24.6-9.4-33.9,0l-136,136C54.3,248.4,54.3,263.6,63.7,273z"/>
</svg>
