<?xml version="1.0" encoding="utf-8"?>
<!-- Generator: Adobe Illustrator 24.0.0, SVG Export Plug-In . SVG Version: 6.00 Build 0)  -->
<svg version="1.1" id="Layer_1" xmlns="http://www.w3.org/2000/svg" xmlns:xlink="http://www.w3.org/1999/xlink" x="0px" y="0px"
	 viewBox="0 0 512 512" style="enable-background:new 0 0 512 512;" xml:space="preserve">
<path d="M273,255.7l136,136c9.4,9.4,9.4,24.6,0,33.9l-22.6,22.6c-9.4,9.4-24.6,9.4-33.9,0L256,351.9l-96.4,96.4
	c-9.4,9.4-24.6,9.4-33.9,0L103,425.7c-9.4-9.4-9.4-24.6,0-33.9l136-136C248.4,246.3,263.6,246.3,273,255.7L273,255.7z M239,63.7
	l-136,136c-9.4,9.4-9.4,24.6,0,33.9l22.6,22.6c9.4,9.4,24.6,9.4,33.9,0l96.4-96.4l96.4,96.4c9.4,9.4,24.6,9.4,33.9,0l22.6-22.6
	c9.4-9.4,9.4-24.6,0-33.9l-136-136C263.6,54.3,248.4,54.3,239,63.7L239,63.7z"/>
</svg>
