<?xml version="1.0" encoding="utf-8"?>
<!-- Generator: Adobe Illustrator 24.0.0, SVG Export Plug-In . SVG Version: 6.00 Build 0)  -->
<svg version="1.1" id="Layer_1" xmlns="http://www.w3.org/2000/svg" xmlns:xlink="http://www.w3.org/1999/xlink" x="0px" y="0px"
	 viewBox="0 0 512 512" style="enable-background:new 0 0 512 512;" xml:space="preserve">
<path d="M256,8C119,8,8,119,8,256s111,248,248,248s248-111,248-248S393,8,256,8z M256,456c-110.3,0-200-89.7-200-200
	S145.7,56,256,56s200,89.7,200,200S366.3,456,256,456z M256,312c-33.6,0-65.2,14.8-86.8,40.6c-8.5,10.2-7.1,25.3,3.1,33.8
	s25.3,7.2,33.8-3c24.8-29.7,75-29.7,99.8,0c8.1,9.7,23.2,11.9,33.8,3c10.2-8.5,11.5-23.6,3.1-33.8C321.2,326.8,289.6,312,256,312
	L256,312z M208,240c10.3,0,19.9-6.7,23-17.1c3.8-12.7-3.4-26.1-16.1-29.9l-80-24c-12.8-3.9-26.1,3.4-29.9,16.1
	c-3.8,12.7,3.4,26.1,16.1,29.9l28.2,8.5c-3.1,4.9-5.3,10.4-5.3,16.6c0,17.7,14.3,32,32,32S208,257.7,208,240L208,240z M407,185.1
	c-3.8-12.7-17.1-19.9-29.9-16.1l-80,24c-12.7,3.8-19.9,17.2-16.1,29.9c3.1,10.4,12.7,17.1,23,17.1c0,17.7,14.3,32,32,32
	s32-14.3,32-32c0-6.2-2.2-11.7-5.3-16.6l28.2-8.5C403.6,211.2,410.8,197.8,407,185.1L407,185.1z"/>
</svg>
