<?xml version="1.0" encoding="utf-8"?>
<!-- Generator: Adobe Illustrator 24.0.0, SVG Export Plug-In . SVG Version: 6.00 Build 0)  -->
<svg version="1.1" id="Layer_1" xmlns="http://www.w3.org/2000/svg" xmlns:xlink="http://www.w3.org/1999/xlink" x="0px" y="0px"
	 viewBox="0 0 512 512" style="enable-background:new 0 0 512 512;" xml:space="preserve">
<path d="M256,8C119,8,8,119,8,256s111,248,248,248s248-111,248-248S393,8,256,8z M144,240c0-9.3,4.1-17.5,10.5-23.4l-31-9.3
	c-8.5-2.5-13.3-11.5-10.7-19.9c2.5-8.5,11.4-13.2,19.9-10.7l80,24c8.5,2.5,13.3,11.5,10.7,19.9c-2.1,6.9-8.4,11.4-15.3,11.4
	c-0.5,0-1.1-0.2-1.7-0.2c0.7,2.7,1.7,5.3,1.7,8.2c0,17.7-14.3,32-32,32S144,257.7,144,240z M312,394.2c-27.8-33.4-84.2-33.4-112.1,0
	c-13.5,16.3-38.2-4.2-24.6-20.5c20-24,49.4-37.8,80.6-37.8s60.6,13.8,80.6,37.8C350.3,390.2,325.4,410.3,312,394.2z M388.6,207.3
	l-31,9.3c6.3,5.8,10.5,14.1,10.5,23.4c0,17.7-14.3,32-32,32s-32-14.3-32-32c0-2.9,0.9-5.6,1.7-8.2c-0.6,0.1-1.1,0.2-1.7,0.2
	c-6.9,0-13.2-4.5-15.3-11.4c-2.5-8.5,2.3-17.4,10.7-19.9l80-24c8.4-2.5,17.4,2.3,19.9,10.7C401.9,195.9,397.1,204.8,388.6,207.3
	L388.6,207.3z"/>
</svg>
