<?xml version="1.0" encoding="utf-8"?>
<!-- Generator: Adobe Illustrator 24.0.0, SVG Export Plug-In . SVG Version: 6.00 Build 0)  -->
<svg version="1.1" id="Layer_1" xmlns="http://www.w3.org/2000/svg" xmlns:xlink="http://www.w3.org/1999/xlink" x="0px" y="0px"
	 viewBox="0 0 512 512" style="enable-background:new 0 0 512 512;" xml:space="preserve">
<path d="M512,241.8l-2.6,22.6l-27.6,1.8l-1.6,14.5l27.6-1.8l-2.6,22.6l-27.5,1.8l-1.8,16.1l27.5-1.8l-2.4,20.9l-51.8,3.3l10.2-90.6
	l-37.8,92.3l-25.5,1.6l-19-94.2l24.2-1.6l10.9,63.5l25.4-65.9L512,241.8L512,241.8z M341.4,348.4l22.6-1.4l10.3-96.1l-22.7,1.5
	L341.4,348.4L341.4,348.4z M129.6,361.7l-15.5-28.8l-2.8,29.9l-22.6,1.4l2.2-23.3c-8.8,14.4-25.6,27.4-45.5,28.6
	C19.1,371.1-2.4,352.8,0.2,323c2.1-23.4,21.4-50.2,54-52.3c30.2-1.9,38.1,18.6,41,23l2.2-24.6l31.1-2c16.1-1,31,3,34,19l2.1-21.3
	l51.8-3.4l-2.2,22.3l-29.1,1.9l-1.4,14.3l29.1-1.8l-2.2,22.3l-29.1,1.8l-1.5,15.9l29-1.8l-1.7,16.6l44-93.8l19-1.3l25.7,88.5
	l7.1-68.5l-17.8,1.1l2.3-22.3l60-3.9l-2.4,22.4l-19.4,1.3l-7.8,73.5l-46.4,3l-3.4-12.5l-31.5,2l-6.4,13L129.6,361.7L129.6,361.7z
	 M94.2,305.5L73,306.9c-5.4-9.9-11.5-13.3-21-12.6c-15.2,1-26.6,14-27.7,26.6c-1.1,12.8,5.8,26,23,25c10.2-0.6,17-6.9,23.1-15.1
	l21.6-1.4L94.2,305.5L94.2,305.5z M139,299.4c1-10.3-6.1-10.9-20.9-9.9l-2.2,22.8C127.4,311.5,138,310.6,139,299.4z M155.9,356
	l4.6-48c-4,10.8-11.8,16.9-22.3,21.3L155.9,356L155.9,356z M264.2,320l-6.3-30.2l-12.6,31.4L264.2,320L264.2,320z M128.2,260.3
	l-3.4-14L93,248.4L86.6,263L61,264.7l45.6-97.5l19.1-1.3l24.6,81.6l7.9-83.8l21.6-1.4l30.2,50.9l5.2-53.3l22.8-1.5l-3.2,33
	c5.9-10.8,18.3-35.8,50.9-38c32.4-2.2,41.9,23.4,42.7,24.2l2.6-25.6l31.4-2.2c10.2-0.7,22.2,0.2,29,7.8l-3.5-9.5l25.8-1.8l10.3,34.6
	l18.4-36.6l24.8-1.8l-34.9,62.7l-3.8,35.4l-22.7,1.5l3.8-35.4l-12.6-34.4c0.8,17.8-7.4,32.1-25.6,39.7l20.2,31l-29.1,1.9l-15.4-29.4
	l-3.2,30.6l-22.7,1.5l2.6-25.2c-5.4,7.4-15.8,28.3-47.7,30.4c-21,1.4-36.5-8.2-44.3-31.4l-3.2,32.2l-20,1.3l-30.1-50.6l-5,53
	L128.2,260.3L128.2,260.3z M349.4,194.6c8.2-0.6,14-1.7,17.3-3.4c3.6-1.9,5.6-5.1,6.1-9.7c0.5-4.2-0.5-7-2.7-8.3
	c-2.9-1.7-8.5-2.2-18.3-1.6L349.4,194.6L349.4,194.6z M262.2,222.4c4.5,4.7,10.2,6.8,17,6.3c3.8-0.2,7.3-1.4,10.6-3.3
	c4.4-2.4,8.5-6.4,12.1-11.4l-27.4,1.8l1.9-19.1l50.5-3.4l1-9.6l-25,1.7c-3.3-3-6.2-5.3-8.9-6.5c-3.2-1.4-6.5-2.2-9.8-2
	c-6.4,0.4-12.2,2.9-17.6,7.4c-6.2,5.1-9.6,11.6-10.3,19.5C255.5,211.5,257.5,217.6,262.2,222.4L262.2,222.4z M101.1,229l19-1.3
	l-6.6-30.1L101.1,229z"/>
</svg>
