<?xml version="1.0" encoding="utf-8"?>
<!-- Generator: Adobe Illustrator 24.0.0, SVG Export Plug-In . SVG Version: 6.00 Build 0)  -->
<svg version="1.1" id="Layer_1" xmlns="http://www.w3.org/2000/svg" xmlns:xlink="http://www.w3.org/1999/xlink" x="0px" y="0px"
	 viewBox="0 0 512 512" style="enable-background:new 0 0 512 512;" xml:space="preserve">
<path d="M392,256h-44.6c21.1-34,36.6-74.4,36.6-112C384,55.6,326.7,0,256,0S128,55.6,128,144c0,37.6,15.5,78,36.6,112H120
	c-13.3,0-24,10.7-24,24v32c0,13.3,10.8,24,24,24h96v152c0,13.3,10.8,24,24,24h32c13.3,0,24-10.8,24-24V336h96c13.3,0,24-10.8,24-24
	v-32C416,266.7,405.3,256,392,256z M256,80c29.6,0,48,24.5,48,64c0,34.7-27.1,78.1-48,100.9c-20.9-22.7-48-66.2-48-100.9
	C208,104.5,226.4,80,256,80z"/>
</svg>
