<?xml version="1.0" encoding="utf-8"?>
<!-- Generator: Adobe Illustrator 24.0.0, SVG Export Plug-In . SVG Version: 6.00 Build 0)  -->
<svg version="1.1" id="Layer_1" xmlns="http://www.w3.org/2000/svg" xmlns:xlink="http://www.w3.org/1999/xlink" x="0px" y="0px"
	 viewBox="0 0 512 512" style="enable-background:new 0 0 512 512;" xml:space="preserve">
<path d="M432,32H80c-26.5,0-48,21.5-48,48v352c0,26.5,21.5,48,48,48h352c26.5,0,48-21.5,48-48V80C480,53.5,458.5,32,432,32z
	 M159,384.5c-5.5,9.6-17.8,12.8-27.3,7.3c-9.6-5.5-12.8-17.8-7.3-27.3l14.3-24.7c16.1-4.9,29.3-1.1,39.6,11.4L159,384.5z
	 M297.9,330.6H116c-11,0-20-9-20-20s9-20,20-20h51l65.4-113.2L211.9,142c-5.5-9.6-2.2-21.8,7.3-27.3c9.6-5.5,21.8-2.2,27.3,7.3
	l8.9,15.4l8.9-15.4c5.5-9.6,17.8-12.8,27.3-7.3c9.6,5.5,12.8,17.8,7.3,27.3l-85.8,148.6h62.1C295.4,290.6,306.7,314.3,297.9,330.6
	L297.9,330.6z M396,330.6h-29l19.6,33.9c5.5,9.6,2.2,21.8-7.3,27.3c-9.6,5.5-21.8,2.2-27.3-7.3c-32.9-56.9-57.5-99.7-74-128.1
	c-16.7-29-4.8-58,7.1-67.8c13.1,22.7,32.7,56.7,58.9,102h52c11,0,20,9,20,20C416,321.7,407,330.6,396,330.6L396,330.6z"/>
</svg>
