<?xml version="1.0" encoding="utf-8"?>
<!-- Generator: Adobe Illustrator 24.0.0, SVG Export Plug-In . SVG Version: 6.00 Build 0)  -->
<svg version="1.1" id="Layer_1" xmlns="http://www.w3.org/2000/svg" xmlns:xlink="http://www.w3.org/1999/xlink" x="0px" y="0px"
	 viewBox="0 0 512 512" style="enable-background:new 0 0 512 512;" xml:space="preserve">
<path d="M33.6,246.6c17.8,0,23.2,2.2,26.8,11.7H61V240c0-9-3.8-12.3-14.3-12.3c-9,0-11.5,2-12.1,10.2H3.7
	c0.2-11.1,1.2-15.3,4.6-19.5c5.8-7,15.1-9.4,36.9-9.4c26.4,0,37.7,4,43.1,15.1c1.6,3.4,3.2,12.5,3.2,19v61.1H61l1-15.3h-0.8
	c-4.2,12.5-10.9,16.3-28.4,16.3c-24.2,0-32.9-8.1-32.9-29.8C-0.1,255.1,9.7,246.6,33.6,246.6L33.6,246.6z M47.3,285.1
	c10.5,0,13.5-2.4,13.5-10.7c0-7.3-3.4-9.3-15.7-9.3c-10.5,0-14.3,2.4-14.3,9.7C30.7,283.1,33.8,285.1,47.3,285.1z M109.5,209.1h30.6
	l-1.2,16.5h0.6c7.3-13.7,12.7-16.7,30-16.7c11.5,0,19.8,2.4,25.2,7.3c7.8,6.9,10.2,16.3,10.2,38.5c0,24-2.4,34.5-9.7,42.3
	c-5.4,5.8-13.1,8.1-26.6,8.1c-16.3,0-23.4-4.4-27-17h-0.6v56.3h-31.6V209.1L109.5,209.1z M174.3,257.7c0-22-2.6-26-16.6-26
	c-13.5,0-16.6,4-16.6,23c0,22.4,2.8,26.8,17,26.8C171.2,281.5,174.3,277,174.3,257.7z M220.6,209.1h30.6l-1.2,16.5h0.6
	c7.3-13.7,12.7-16.7,30-16.7c11.5,0,19.8,2.4,25.2,7.3c7.8,6.9,10.2,16.3,10.2,38.5c0,24-2.4,34.5-9.7,42.3
	c-5.4,5.8-13.1,8.1-26.6,8.1c-16.3,0-23.4-4.4-27-17h-0.6v56.3h-31.6L220.6,209.1L220.6,209.1z M285.3,257.7c0-22-2.6-26-16.6-26
	c-13.5,0-16.6,4-16.6,23c0,22.4,2.8,26.8,17,26.8C282.3,281.5,285.3,277,285.3,257.7z M328.4,254.7c0-20.3,2.6-30.2,9.8-36.7
	c7-6.5,17.8-9,36.1-9c34.3,0,44.6,10.2,44.6,44.6v8.9h-60.3c-0.2,1.6-0.2,3.2-0.2,3.8c0,13.5,3.6,17.5,16.1,17.5
	c11.1,0,14.3-2.4,14.3-11.1h30v1.8c0,7.8-2,15.1-5.4,19.8c-5.8,7.8-15.7,10.9-35.5,10.9c-22,0-33.3-2.6-40.5-9.8
	C330.6,288.5,328.4,278.3,328.4,254.7L328.4,254.7z M389.5,245.4c-0.2-1.4-0.2-2.6-0.2-3c0-9.8-2.6-11.7-15.7-11.7
	c-11.5,0-13.7,2.4-14.5,12.1l-0.2,2.6H389.5z M434,209.1h30.6l-1.4,15.9h0.6c5.4-11.9,11.5-16.2,23.8-16.2c8.6,0,15.3,2.6,18.7,7.4
	c4.2,5.8,5.4,11.5,5.4,27.2c0,1.2,0,4,0.2,7.4h-28c0.2-1.4,0.2-2.6,0.2-3.2c0-12.3-1.6-15.5-8.2-15.5c-5,0-8.6,2.6-10.5,7.4
	c-0.8,2.4-0.8,3.4-0.8,9.8V304H434L434,209.1L434,209.1z"/>
</svg>
