<?xml version="1.0" encoding="utf-8"?>
<!-- Generator: Adobe Illustrator 24.0.0, SVG Export Plug-In . SVG Version: 6.00 Build 0)  -->
<svg version="1.1" id="Layer_1" xmlns="http://www.w3.org/2000/svg" xmlns:xlink="http://www.w3.org/1999/xlink" x="0px" y="0px"
	 viewBox="0 0 512 512" style="enable-background:new 0 0 512 512;" xml:space="preserve">
<path d="M93.5,178c-6,7.1-15.6,12.7-25.2,11.9c-1.2-9.6,3.5-19.8,9-26.1c6-7.3,16.5-12.5,25-12.9C103.4,160.9,99.4,170.7,93.5,178
	 M102.2,191.8c-13.9-0.8-25.8,7.9-32.4,7.9c-6.7,0-16.8-7.5-27.8-7.3c-14.3,0.2-27.6,8.3-34.9,21.2c-15,25.8-3.9,64,10.6,85
	c7.1,10.4,15.6,21.8,26.8,21.4c10.6-0.4,14.8-6.9,27.6-6.9c12.9,0,16.6,6.9,27.8,6.7c11.6-0.2,18.9-10.4,26-20.8
	c8.1-11.8,11.4-23.3,11.6-23.9c-0.2-0.2-22.4-8.7-22.6-34.3c-0.2-21.4,17.5-31.6,18.3-32.2C123.3,193.8,107.7,192.2,102.2,191.8
	 M182.6,162.8v155.9h24.2v-53.3h33.5c30.6,0,52.1-21,52.1-51.4s-21.1-51.2-51.3-51.2L182.6,162.8L182.6,162.8z M206.8,183.2h27.9
	c21,0,33,11.2,33,30.9s-12,31-33.1,31h-27.8V183.2L206.8,183.2z M336.5,319.9c15.2,0,29.3-7.7,35.7-19.9h0.5v18.7h22.4v-77.6
	c0-22.5-18-37-45.7-37c-25.7,0-44.7,14.7-45.4,34.9h21.8c1.8-9.6,10.7-15.9,22.9-15.9c14.8,0,23.1,6.9,23.1,19.6v8.6l-30.2,1.8
	c-28.1,1.7-43.3,13.2-43.3,33.2C298.4,306.5,314.1,319.9,336.5,319.9z M343.1,301.4c-12.9,0-21.1-6.2-21.1-15.7
	c0-9.8,7.9-15.5,23-16.4l26.9-1.7v8.8C371.9,291,359.5,301.4,343.1,301.4z M425.1,361.1c23.6,0,34.7-9,44.4-36.3L512,205.6h-24.6
	l-28.5,92.1h-0.5l-28.5-92.1h-25.3l41,113.5l-2.2,6.9c-3.7,11.7-9.7,16.2-20.4,16.2c-1.9,0-5.6-0.2-7.1-0.4v18.7
	C417.3,360.9,423.3,361.1,425.1,361.1L425.1,361.1z"/>
</svg>
