<?xml version="1.0" encoding="utf-8"?>
<!-- Generator: Adobe Illustrator 24.0.0, SVG Export Plug-In . SVG Version: 6.00 Build 0)  -->
<svg version="1.1" id="Layer_1" xmlns="http://www.w3.org/2000/svg" xmlns:xlink="http://www.w3.org/1999/xlink" x="0px" y="0px"
	 viewBox="0 0 512 512" style="enable-background:new 0 0 512 512;" xml:space="preserve">
<path d="M382.9,129c26,4.7,47.3,18.7,63.9,42c14.6,20.7,24.6,46.7,30,78c4.7,28.7,4.3,57.3-1,86c-8,47.3-24,87-47.9,119
	c-28.6,38.7-64.6,58-107.9,58c-10.7,0-22.3-3.3-35-10c-8.7-5.3-18.3-8-29-8s-20.3,2.7-29,8c-12.7,6.7-24.3,10-35,10
	c-43.3,0-79.2-19.3-107.9-58c-24-32-40-71.7-47.9-119c-5.3-28.7-5.7-57.3-1-86c5.3-31.3,15.3-57.3,30-78c16.7-23.3,38-37.3,63.9-42
	c16-2.7,37.9-0.3,65.9,7c24,6.7,44.3,14.7,60.9,24c16.6-9.3,37-17.3,60.9-24C344.9,128.7,366.9,126.3,382.9,129z M327.9,88
	c-9.3,8.7-21.6,15-37,19c-10.7,3.3-22.3,5-35,5l-15-1c-1.3-9.3-1.3-20,0-32c2.7-24,10.3-42.3,23-55c9.3-8.7,21.6-15,37-19
	c10.7-3.3,22.3-5,35-5l15,1l1,15c0,12.7-1.7,24.3-5,35C342.9,66.3,336.6,78.7,327.9,88L327.9,88z"/>
</svg>
