<?xml version="1.0" encoding="utf-8"?>
<!-- Generator: Adobe Illustrator 24.0.0, SVG Export Plug-In . SVG Version: 6.00 Build 0)  -->
<svg version="1.1" id="Layer_1" xmlns="http://www.w3.org/2000/svg" xmlns:xlink="http://www.w3.org/1999/xlink" x="0px" y="0px"
	 viewBox="0 0 512 512" style="enable-background:new 0 0 512 512;" xml:space="preserve">
<path d="M497.8,426.7h-14.2V113.8H28.4v312.9H14.2C6.4,426.7,0,433,0,440.9v28.4c0,7.9,6.4,14.2,14.2,14.2h142.2
	c7.9,0,14.2-6.4,14.2-14.2V312.9c0-47.1,38.2-85.3,85.3-85.3s85.3,38.2,85.3,85.3l0,142.2v14.2c0,7.9,6.4,14.2,14.2,14.2h142.2
	c7.9,0,14.2-6.4,14.2-14.2v-28.4C512,433,505.6,426.7,497.8,426.7z M497.8,28.4H14.2C6.4,28.4,0,34.8,0,42.7v28.4
	C0,79,6.4,85.3,14.2,85.3h483.6c7.9,0,14.2-6.4,14.2-14.2V42.7C512,34.8,505.6,28.4,497.8,28.4z"/>
</svg>
