<?xml version="1.0" encoding="utf-8"?>
<!-- Generator: Adobe Illustrator 24.0.0, SVG Export Plug-In . SVG Version: 6.00 Build 0)  -->
<svg version="1.1" id="Layer_1" xmlns="http://www.w3.org/2000/svg" xmlns:xlink="http://www.w3.org/1999/xlink" x="0px" y="0px"
	 viewBox="0 0 512 512" style="enable-background:new 0 0 512 512;" xml:space="preserve">
<path d="M66.9,289.5l-22.2-22.2c-9.4-9.4-9.4-24.6,0-33.9L239,39c9.4-9.4,24.6-9.4,33.9,0l194.3,194.3c9.4,9.4,9.4,24.6,0,33.9
	L445,289.4c-9.5,9.5-25,9.3-34.3-0.4L296,168.6V456c0,13.3-10.7,24-24,24h-32c-13.3,0-24-10.7-24-24V168.6L101.2,289.1
	C91.9,298.9,76.4,299.1,66.9,289.5z"/>
</svg>
