<?xml version="1.0" encoding="utf-8"?>
<!-- Generator: Adobe Illustrator 24.0.0, SVG Export Plug-In . SVG Version: 6.00 Build 0)  -->
<svg version="1.1" id="Layer_1" xmlns="http://www.w3.org/2000/svg" xmlns:xlink="http://www.w3.org/1999/xlink" x="0px" y="0px"
	 viewBox="0 0 512 512" style="enable-background:new 0 0 512 512;" xml:space="preserve">
<path d="M445.1,222.5l22.2,22.2c9.4,9.4,9.4,24.6,0,33.9L273,473c-9.4,9.4-24.6,9.4-33.9,0L44.7,278.6c-9.4-9.4-9.4-24.6,0-33.9
	l22.2-22.2c9.5-9.5,25-9.3,34.3,0.4L216,343.4V56c0-13.3,10.7-24,24-24h32c13.3,0,24,10.7,24,24v287.4l114.8-120.5
	C420.1,213.1,435.6,212.9,445.1,222.5L445.1,222.5z"/>
</svg>
