<?xml version="1.0" encoding="utf-8"?>
<!-- Generator: Adobe Illustrator 24.0.0, SVG Export Plug-In . SVG Version: 6.00 Build 0)  -->
<svg version="1.1" id="Layer_1" xmlns="http://www.w3.org/2000/svg" xmlns:xlink="http://www.w3.org/1999/xlink" x="0px" y="0px"
	 viewBox="0 0 512 512" style="enable-background:new 0 0 512 512;" xml:space="preserve">
<path d="M289.5,445.1l-22.2,22.2c-9.4,9.4-24.6,9.4-33.9,0L39,273c-9.4-9.4-9.4-24.6,0-33.9L233.4,44.7c9.4-9.4,24.6-9.4,33.9,0
	l22.2,22.2c9.5,9.5,9.3,25-0.4,34.3L168.6,216H456c13.3,0,24,10.7,24,24v32c0,13.3-10.7,24-24,24H168.6l120.5,114.8
	C298.9,420.1,299.1,435.6,289.5,445.1L289.5,445.1z"/>
</svg>
