<?xml version="1.0" encoding="utf-8"?>
<!-- Generator: Adobe Illustrator 24.0.0, SVG Export Plug-In . SVG Version: 6.00 Build 0)  -->
<svg version="1.1" id="Layer_1" xmlns="http://www.w3.org/2000/svg" xmlns:xlink="http://www.w3.org/1999/xlink" x="0px" y="0px"
	 viewBox="0 0 576 512" style="enable-background:new 0 0 576 512;" xml:space="preserve">
<path d="M492,303.3c34.5-35.6,51.6-71.1,52-103.2c0.7-58.2-52.8-105.1-150.6-120C279,62.6,137,93.9,32,153.3
	c46.2-23.6,98.3-42.8,151.7-51.7C250,83.4,319.7,79,380.4,88.4c135.6,21.2,174.9,113.3,87.8,206c-9.1,9.6-19.6,18.8-31.1,27.2
	L303,120.4L134,374.1C75.6,348,66,294,117,239.7c18.5-19.7,42.9-37.2,70.7-51.6c17.8-10.8,35.3-20.1,55.1-27.3
	c-57.9,18-109.1,47-143.6,82.6c-24.6,25.4-36.8,50.8-37.1,73.7c-0.4,31.2,20.8,57.9,60.8,73.8l-30.7,46h90.3l19.6-30.6
	c19.7,0.9,40.3,0,61-2.4l-20.3,33h120.4l-29-47.2c16.5-4.7,32.8-10.2,48.4-16.6l40.8,63.8h90.3l-65.2-98.1
	C465,327.9,479.6,316,492,303.3z M325.2,374.8L303,338.8L274,386.1c-20.8,3.1-41.5,4.5-61.5,3.9L303,248.4l70,109.3
	C357.7,364.4,341.6,370.1,325.2,374.8L325.2,374.8z"/>
</svg>
