<?xml version="1.0" encoding="utf-8"?>
<!-- Generator: Adobe Illustrator 24.0.0, SVG Export Plug-In . SVG Version: 6.00 Build 0)  -->
<svg version="1.1" id="Layer_1" xmlns="http://www.w3.org/2000/svg" xmlns:xlink="http://www.w3.org/1999/xlink" x="0px" y="0px"
	 viewBox="0 0 512 512" style="enable-background:new 0 0 512 512;" xml:space="preserve">
<path d="M350.4,208h-39.1c-1.5,27-6.5,51.4-14.2,70.4C324.8,265.2,345.1,239.2,350.4,208z M350.4,176c-5.3-31.2-25.6-57.2-53.3-70.4
	c7.7,19.1,12.7,43.4,14.2,70.4H350.4z M256,97.3c-7.7,7.4-20.8,34.4-23.4,78.7h46.9C276.8,131.7,263.7,104.8,256,97.3z M214.9,105.6
	c-27.7,13.2-48,39.2-53.3,70.4h39.1C202.2,149,207.2,124.7,214.9,105.6z M214.9,278.4c-7.7-19.1-12.7-43.4-14.2-70.4h-39.1
	C166.9,239.2,187.2,265.2,214.9,278.4z M279.4,208h-46.9c2.7,44.3,15.7,71.2,23.4,78.7C263.7,279.2,276.8,252.3,279.4,208z
	 M480,358.4V25.6c0-16-9.6-25.6-25.6-25.6H128C73.6,0,32,41.6,32,96v320c0,54.4,41.6,96,96,96h326.4c12.8,0,25.6-9.6,25.6-25.6v-16
	c0-6.4-3.2-12.8-9.6-19.2c-3.2-16-3.2-60.8,0-73.6C476.8,374.4,480,368,480,358.4L480,358.4z M256,64c70.7,0,128,57.3,128,128
	s-57.3,128-128,128s-128-57.3-128-128S185.3,64,256,64z M416,448H128c-19.2,0-32-12.8-32-32s16-32,32-32h288V448z"/>
</svg>
