<?xml version="1.0" encoding="utf-8"?>
<!-- Generator: Adobe Illustrator 24.0.0, SVG Export Plug-In . SVG Version: 6.00 Build 0)  -->
<svg version="1.1" id="Layer_1" xmlns="http://www.w3.org/2000/svg" xmlns:xlink="http://www.w3.org/1999/xlink" x="0px" y="0px"
	 viewBox="0 0 512 512" style="enable-background:new 0 0 512 512;" xml:space="preserve">
<path d="M256,224c-17.7,0-32,14.3-32,32s14.3,32,32,32c17.7,0,32-14.3,32-32C288,238.3,273.7,224,256,224z M470.2,128
	c-10.9-19.5-40.5-50.8-116.3-41.9C332.4,34.9,299.6,0,256,0s-76.4,34.9-97.9,86.1C82.3,77.4,52.7,108.5,41.8,128
	c-16.4,29.4-15,73.1,25.1,128c-40.1,54.9-41.5,98.6-25.1,128c29.1,52.4,101.6,43.6,116.3,41.9c21.5,51.3,54.3,86.1,97.9,86.1
	s76.4-34.9,97.9-86.1c14.6,1.8,87.1,10.5,116.3-41.9c16.4-29.4,15-73.1-25.1-128C485.2,201.1,486.5,157.4,470.2,128L470.2,128z
	 M95.3,352c-4-7.3-0.1-24.8,15-48.3c6.9,6.5,14.1,12.9,21.9,19.1c1.6,13.8,4,27.1,6.8,40.1C114.3,363.9,99.1,358.6,95.3,352z
	 M132.2,189.1c-7.8,6.3-15,12.6-21.9,19.1c-15.1-23.5-19-41-15-48.3c3.4-6.1,16.4-11.5,37.9-11.5c1.8,0,3.9,0.4,5.8,0.4
	C136.1,162.3,133.8,175.6,132.2,189.1z M256,64c9.5,0,22.3,13.5,33.9,37.3c-11.3,3.8-22.5,8-33.9,12.9c-11.4-4.9-22.6-9.1-33.9-12.9
	C233.7,77.5,246.5,64,256,64z M256,448c-9.5,0-22.3-13.5-33.9-37.3c11.3-3.8,22.5-8,33.9-12.9c11.4,4.9,22.6,9.1,33.9,12.9
	C278.3,434.5,265.5,448,256,448z M256,336c-44.2,0-80-35.8-80-80s35.8-80,80-80s80,35.8,80,80C336,300.2,300.2,336,256,336z
	 M416.7,352c-3.6,6.6-19,11.9-43.6,11c2.8-13,5.1-26.4,6.8-40.1c7.8-6.3,15-12.6,21.9-19.1C416.8,327.3,420.7,344.8,416.7,352z
	 M401.7,208.3c-6.9-6.5-14.1-12.9-21.9-19.1c-1.6-13.5-3.9-26.9-6.8-40.3c1.9,0,4-0.4,5.8-0.4c21.5,0,34.5,5.4,37.9,11.5
	C420.7,167.3,416.8,184.8,401.7,208.3z"/>
</svg>
