<?xml version="1.0" encoding="utf-8"?>
<!-- Generator: Adobe Illustrator 24.0.0, SVG Export Plug-In . SVG Version: 6.00 Build 0)  -->
<svg version="1.1" id="Layer_1" xmlns="http://www.w3.org/2000/svg" xmlns:xlink="http://www.w3.org/1999/xlink" x="0px" y="0px"
	 viewBox="0 0 512 512" style="enable-background:new 0 0 512 512;" xml:space="preserve">
<path d="M512,211.1v43.2l-256,160L0,254.4v-43.2l256,160L512,211.1z M356.4,268.7l37.7-23.5c-29.8-44.6-80.6-74.1-138.2-74.1
	S147.5,200.5,117.8,245h0.2c2-1.8,4.1-3.6,6.2-5.4C196,180.2,299.8,193.2,356.4,268.7L356.4,268.7z M180.3,283.8
	c13.5-9.5,29.2-15,45.9-15c27.5,0,52.2,14.7,69.1,38.1l36.3-22.7c-16.7-23.9-44.5-39.6-75.8-39.6
	C224.7,244.6,197.1,260.1,180.3,283.8z M82.9,180.1c105.4-83.4,254.6-61.1,334,49.7l0.6,0.8l39-24.3
	C413.7,140.9,339.8,97.7,255.9,97.7c-82.8,0-157.3,42.8-200.4,108.5C63.4,197.8,73.7,187.4,82.9,180.1z"/>
</svg>
