<?xml version="1.0" encoding="utf-8"?>
<!-- Generator: Adobe Illustrator 24.0.0, SVG Export Plug-In . SVG Version: 6.00 Build 0)  -->
<svg version="1.1" id="Layer_1" xmlns="http://www.w3.org/2000/svg" xmlns:xlink="http://www.w3.org/1999/xlink" x="0px" y="0px"
	 viewBox="0 0 512 512" style="enable-background:new 0 0 512 512;" xml:space="preserve">
<path d="M85.8,278l-15.2-33.4H28.9L13.7,278H0l49.8-105.1L99.5,278H85.8z M49.8,199.5l-15.7,34h31.4
	C65.4,233.5,49.8,199.5,49.8,199.5z M139.9,281.4L90.1,176.3h13.7l36.1,76.8l36.1-76.8h13.6L139.9,281.4z M204.4,278V176.3h12.4V278
	H204.4z M371.7,185.5V278h-13.8v-92.5h-33v-9.2h79.7v9.2H371.7z M512,226.2c0,7.4-1.4,14.2-4.1,20.6c-2.7,6.4-6.6,12.1-11.4,16.9
	s-10.5,8.6-16.9,11.4c-6.4,2.7-13.3,4.1-20.6,4.1s-14.2-1.4-20.6-4.1s-12.1-6.6-16.9-11.4s-8.6-10.4-11.4-16.9
	c-2.7-6.4-4.1-13.3-4.1-20.6s1.4-14.2,4.1-20.6c2.7-6.4,6.6-12.1,11.4-16.9c4.8-4.8,10.4-6.7,16.9-9.5c6.4-2.7,13.3-4.1,20.6-4.1
	s14.2,1.4,20.6,4.1c6.4,2.7,12.1,4.6,16.9,9.5c4.8,4.8,8.6,10.5,11.4,16.9C510.6,212,512,218.9,512,226.2z M499.6,226.2
	c0-5.8-1-11.2-3.1-16.2s-5-9.4-8.6-13c-3.7-3.7-8-6.6-13-8.7c-5-2.2-10.2-3.2-15.8-3.2s-10.9,1-15.8,3.2c-5,2.2-9.3,5-13,8.7
	s-6.6,8-8.6,13s-3.1,10.5-3.1,16.2c0,5.8,1,11.2,3.1,16.2s5,9.4,8.6,13s8,6.6,13,8.7s10.2,3.2,15.8,3.2s10.9-1,15.8-3.2
	c5-2.2,9.3-5,13-8.7s6.6-8,8.6-13C498.6,237.4,499.6,232,499.6,226.2L499.6,226.2z M423.8,303.6v-5l71.1-8l-194.3,10.7
	c0.5-1.8,0.9-3.7,1.1-5.8c0.2-1.6,0.4-3.4,0.5-5.2l51.8-6.5l-51.9,1.5c0-0.3-0.1-0.6-0.1-0.9c-2.2-13.8-20.4-19-20.4-19l-0.9-21h19
	l15.2,33.4h13.7l-49.8-105.1L229,277.8h13.7l15.2-33.4h18.9l-0.9,21.1c0,0-18.2,5.2-20.4,19c-0.1,0.2-0.1,0.6-0.1,0.9l-51.9-1.5
	l51.8,6.5c0.1,1.8,0.2,3.5,0.5,5.2c0.2,2.1,0.6,4,1.1,5.8L62.6,290.6l71.1,8v5c-4.7,0.7-8.4,4.8-8.4,9.8c0,5.4,4.5,9.9,9.9,9.9
	s9.9-4.5,9.9-9.9c0-5-3.7-9-8.4-9.8V299l64.2,7.2v4.3c-4.6,0.9-7.9,5-7.9,9.7c0,5.4,4.5,8.2,9.9,8.2s9.9-2.7,9.9-8.2
	c0-4.8-3.4-8.8-7.9-9.7v-3.9l22.7,2.6v19h-4.7v11.1h4.7V334h4v5.3h4.7v-11h-4.7v-18.6l30.6,3.4c6.5,9.1,15.2,10.9,15.2,10.9
	l-0.1,5.4l-4.1,0.2l-0.1,9.7h3.3l0.1-4h4.2l0.1,4h3.3l-0.1-9.7l-4.1-0.2l-0.1-5.4c0,0,8.7-1.7,15.2-10.9l30.6-3.4v18.6h-4.7v11h4.7
	V334h4v5.3h4.7v-11h-4.7v-19l22.7-2.6v3.9c-4.6,0.9-7.9,5-7.9,9.7c0,5.4,4.5,8.2,9.9,8.2s9.9-2.7,9.9-8.2c0-4.8-3.4-8.8-7.9-9.7
	v-4.3l64.2-7.2v4.6c-4.7,0.7-8.4,4.8-8.4,9.8c0,5.4,4.5,9.9,9.9,9.9s9.9-4.5,9.9-9.9C432.2,308.4,428.6,304.3,423.8,303.6z
	 M263.1,233.5l15.7-34l15.7,34h-14.3l-1.4-32.2l-1.4,32.2H263.1z"/>
</svg>
