<?xml version="1.0" encoding="utf-8"?>
<!-- Generator: Adobe Illustrator 24.0.0, SVG Export Plug-In . SVG Version: 6.00 Build 0)  -->
<svg version="1.1" id="Layer_1" xmlns="http://www.w3.org/2000/svg" xmlns:xlink="http://www.w3.org/1999/xlink" x="0px" y="0px"
	 viewBox="0 0 512 512" style="enable-background:new 0 0 512 512;" xml:space="preserve">
<path d="M144.3,213.6c-0.6,18.1,8.5,26.1,8.7,31.2c-0.2,2.1-1.4,4-3.3,5l-10.2,7.2c-1.3,0.9-2.9,1.5-4.5,1.5
	c-0.3,0-6.6,1.5-16.4-20.5c-12.2,15.2-30.6,23.9-50.1,23.6c-13,0.7-48.3-7.4-46.5-45c-1.3-30.6,27.2-49.6,56.7-48
	c5.7,0,17.3,0.3,37.6,5v-12.5c2.2-21.2-11.8-37.6-35.8-35.1c-1.9,0-15.5-0.4-36.7,8.1c-5.9,2.7-6.6,2.3-8.6,2.3
	c-5.9,0-3.5-17.2-2.4-19.4c4.2-5.1,28.7-14.7,52.8-14.5c16.1-1.4,32.1,3.5,44.6,13.8c10.2,11.4,15.3,26.6,14.1,41.9L144.3,213.6
	L144.3,213.6z M75.2,239.5c25.9-0.4,36.9-16,39.4-24.4c2-8,1.6-13.1,1.6-21.9c-7.7-1.9-18.9-3.9-31.6-3.9
	c-12.1-0.9-34.3,4.5-33.4,25.8C50.2,228.6,60.1,240.3,75.2,239.5z M211.9,258c-6.3,0.6-9.2-3.9-10.1-8.3l-39.8-131.7
	c-0.8-2.2-1.3-4.5-1.5-6.9c-0.3-2,1.1-3.9,3.1-4.2c0.2,0-1.7,0,17.8,0c7-0.7,9.3,4.8,10,8.3l28.6,112.7l26.5-112.7
	c0.4-2.6,2.4-8.9,10.2-8.2h13.7c1.7-0.1,8.9-0.4,10.1,8.3l26.7,114.1l29.5-114.1c0.4-1.7,2.2-9.1,10.1-8.3h15.8
	c0.7-0.1,4.9-0.6,4.2,6.9c-0.3,1.5,2.7-8.5-42.2,135.9c-0.9,4.4-3.9,8.9-10.1,8.3h-15c-8.8,0.9-10-7.7-10.1-8.6l-26.5-109.7
	l-26.2,109.6c-0.1,0.9-1.4,9.5-10.1,8.6L211.9,258L211.9,258z M430.7,262.5c-4.7,0-27.1-0.2-45.9-9.8c-3.8-1.6-6.3-5.4-6.2-9.5v-8.6
	c0-6.8,5-5.5,7.1-4.7c8,3.2,13.2,5.7,23,7.7c29.3,6,42.2-1.8,45.4-3.6c10.5-6.2,11.4-20.5,4.2-28c-8.4-7-12.4-7.3-42.5-16.8
	c-3.7-1-35-10.9-35-41.9c-0.5-22.6,20-44.9,55.6-44.8c10.1,0,37.1,3.3,44.5,12.5c1.1,1.7,1.6,3.6,1.5,5.6v8.1c0,3.6-1.3,5.3-3.9,5.3
	c-6.2-0.7-17.1-8.9-39.3-8.6c-5.5-0.3-31.9,0.7-30.7,20c-0.3,15.2,21.3,20.9,23.8,21.5c29.2,8.8,38.9,10.2,50.5,23.7
	c13.7,17.8,6.3,38.6,3.5,44.4C470.9,264.9,431.4,262.5,430.7,262.5L430.7,262.5z M462.9,346.3c-56,41.4-137.3,63.4-206.8,63.4
	c-93.7,0.6-184.2-33.8-253.8-96.6C-3,308.5,1.7,302,8,305.6c77.2,44.2,164.6,67.4,253.5,67.3c66.4-0.4,132.1-13.8,193.3-39.6
	C464.2,329.2,472.2,339.5,462.9,346.3L462.9,346.3z M486.2,319.7c-7.2-9.2-47.4-4.3-65.4-2.2c-5.4,0.6-6.4-4.1-1.4-7.6
	c32.1-22.5,84.7-16.1,90.8-8.5c6,7.6-1.6,60.3-31.6,85.5c-4.6,3.9-9,1.8-7-3.3C478.2,366.7,493.4,328.9,486.2,319.7z"/>
</svg>
