<?xml version="1.0" encoding="utf-8"?>
<!-- Generator: Adobe Illustrator 24.0.0, SVG Export Plug-In . SVG Version: 6.00 Build 0)  -->
<svg version="1.1" id="Layer_1" xmlns="http://www.w3.org/2000/svg" xmlns:xlink="http://www.w3.org/1999/xlink" x="0px" y="0px"
	 viewBox="0 0 512 512" style="enable-background:new 0 0 512 512;" xml:space="preserve">
<path d="M256,160c44.2,0,80-35.8,80-80S300.2,0,256,0s-80,35.8-80,80S211.8,160,256,160z M202.6,408.8l25.6-32l-61.5-51.2L120.8,383
	c-11.4,14.2-11.7,34.4-0.8,49l48,64c7.9,10.5,19.9,16,32,16c8.3,0,16.8-2.6,24-8c17.7-13.2,21.2-38.3,8-56L202.6,408.8z
	 M345.3,325.6l-61.5,51.2l25.6,32L280,448c-13.2,17.7-9.7,42.8,8,56c7.2,5.4,15.6,8,24,8c12.2,0,24.2-5.5,32-16l48-64
	c10.9-14.6,10.6-34.8-0.8-49L345.3,325.6L345.3,325.6z M440.7,145c-12.7-18.1-37.6-22.4-55.7-9.8l-40.6,28.5
	c-52.7,37-124.2,37-176.8,0L127,135.3c-18.1-12.7-43-8.3-55.7,9.7c-12.7,18.1-8.3,43,9.7,55.7l40.6,28.5
	c17,11.9,35.4,20.9,54.4,27.9V288h160v-30.8c19-7,37.4-16,54.4-27.9l40.6-28.5C449.1,188,453.4,163.1,440.7,145L440.7,145z"/>
</svg>
