<?xml version="1.0" encoding="utf-8"?>
<!-- Generator: Adobe Illustrator 24.0.0, SVG Export Plug-In . SVG Version: 6.00 Build 0)  -->
<svg version="1.1" id="Layer_1" xmlns="http://www.w3.org/2000/svg" xmlns:xlink="http://www.w3.org/1999/xlink" x="0px" y="0px"
	 viewBox="0 0 512 512" style="enable-background:new 0 0 512 512;" xml:space="preserve">
<path d="M460.8,102.4H164.2c-13.6,0-26.6,5.4-36.2,15L7.5,237.9c-10,10-10,26.2,0,36.2L128,394.6c9.6,9.6,22.6,15,36.2,15h296.6
	c28.3,0,51.2-22.9,51.2-51.2V153.6C512,125.3,489.1,102.4,460.8,102.4z M393,305.6c5,5,5,13.1,0,18.1L375,341.8c-5,5-13.1,5-18.1,0
	l-49.6-49.6l-49.6,49.6c-5,5-13.1,5-18.1,0l-18.1-18.1c-5-5-5-13.1,0-18.1L271,256l-49.6-49.6c-5-5-5-13.1,0-18.1l18.1-18.1
	c5-5,13.1-5,18.1,0l49.6,49.6l49.6-49.6c5-5,13.1-5,18.1,0l18.1,18.1c5,5,5,13.1,0,18.1L343.4,256L393,305.6z"/>
</svg>
