<?xml version="1.0" encoding="utf-8"?>
<!-- Generator: Adobe Illustrator 24.0.0, SVG Export Plug-In . SVG Version: 6.00 Build 0)  -->
<svg version="1.1" id="Layer_1" xmlns="http://www.w3.org/2000/svg" xmlns:xlink="http://www.w3.org/1999/xlink" x="0px" y="0px"
	 viewBox="0 0 512 512" style="enable-background:new 0 0 512 512;" xml:space="preserve">
<path d="M194.6,327.5c31-31,39.3-53.1,48-76.4c9.4-25.1,19.2-51.1,54.5-86.5s61.4-45.1,86.5-54.6c21.2-8,41.5-15.7,68.3-40.3
	l-33.5-33.2c-9.7-9.5-24.8-10.6-35.7-2.5c-12.1,9-22.4,12.8-36.4,18C219.6,99.1,186,198.5,178.4,218.8C152,288.9,98.8,303,90.7,306
	c-22.1,8.2-48.6,18.1-80.9,44.8C-2.5,361-3.1,379.6,8.2,390.9L40,422.5c31.3-29,55.3-38.2,78.4-46.9
	C141.6,366.7,163.6,358.5,194.6,327.5z M503.9,121.2l-31.8-31.6c-31.3,29-55.3,38.2-78.4,46.9c-23.3,8.8-45.4,17-76.4,48
	s-39.3,53.1-48,76.4c-9.5,25.2-19.2,51.2-54.6,86.5s-61.3,45.1-86.5,54.5c-21.2,8-41.4,15.7-68.2,40.3l33.5,33.3
	c9.7,9.5,24.8,10.6,35.7,2.5c12.1-8.9,22.3-12.7,36.4-18c126.4-47,160-145.7,168-166.7c26.4-70,79.6-84.1,87.8-87.2
	c22.1-8.2,48.7-18.1,81-44.8C514.7,151.2,515.2,132.4,503.9,121.2L503.9,121.2z"/>
</svg>
