<?xml version="1.0" encoding="utf-8"?>
<!-- Generator: Adobe Illustrator 24.0.0, SVG Export Plug-In . SVG Version: 6.00 Build 0)  -->
<svg version="1.1" id="Layer_1" xmlns="http://www.w3.org/2000/svg" xmlns:xlink="http://www.w3.org/1999/xlink" x="0px" y="0px"
	 viewBox="0 0 512 512" style="enable-background:new 0 0 512 512;" xml:space="preserve">
<path d="M217.9,232.3c7.2-3.1,10.4-11.5,7.3-18.7c0,0,0,0,0-0.1l-3.2-7.3c3.3-1,6.6-1.8,9.9-2.5c9.7-1.7,18.9-5.4,27-11.1l8,7.2
	c5.8,5.3,14.8,4.9,20.1-0.9s4.9-14.8-0.9-20.1l0,0l-7.8-7c7-11.6,10.2-25.1,9.3-38.5l9.5-2.8c7.5-2.2,11.8-10.2,9.5-17.7
	s-10.2-11.8-17.7-9.5l-9.1,2.7c-6.5-12.3-16.7-22.2-29.1-28.5L253,69c2-7.6-2.6-15.4-10.2-17.4c-7.6-2-15.4,2.6-17.4,10.2l-2.3,8.6
	c-4.5-0.2-9,0.1-13.4,0.9c-9.1,1.5-17.8,4-26.5,6.6l-2.7-7.6c-2.6-7.4-10.8-11.3-18.2-8.7c-7.4,2.6-11.3,10.8-8.7,18.2l2.8,7.8
	c-12.2,5.3-24,11.6-35.2,18.9l-5.1-6.7c-4.7-6.3-13.6-7.6-20-2.9c-6.3,4.7-7.6,13.5-2.9,19.8c0,0,0,0.1,0.1,0.1l5.2,6.9
	c-10.1,8.6-19.5,18.1-28,28.3l-7.1-5.1c-6.4-4.6-15.3-3.3-19.9,3.1c-4.6,6.3-3.3,15.1,3,19.8c0,0,0.1,0,0.1,0.1l7.1,5.2
	c-7.1,11.2-13.3,22.9-18.4,35.1l-8.4-2.9c-7.4-2.6-15.5,1.4-18,8.8c-2.6,7.4,1.4,15.5,8.8,18l0,0l8.3,2.8c-2.2,8-4.6,15.9-6,24.2
	c-0.8,5-1,10.1-0.7,15.2l-9.3,2.7c-7.5,2.2-11.8,10.1-9.5,17.7s10.1,11.8,17.7,9.5l9-2.7c6.5,12.2,16.7,22.2,29.1,28.3l-2.3,8.8
	c-1.8,7.7,2.9,15.3,10.5,17.2c7.5,1.8,15-2.6,17.1-10.1L84,339c0.8,0,1.7,0.2,2.5,0.2c13-0.1,25.7-3.9,36.5-11.1l6.9,7
	c5.5,5.6,14.5,5.8,20.1,0.3c5.6-5.5,5.8-14.5,0.3-20.1l-7.3-7.5c4.9-7.5,8.1-16,9.7-24.8c0.8-4.2,1.8-8.4,3.1-12.4l7.2,3.4
	c7.1,3.3,15.6,0.3,18.9-6.8c3.3-7.1,0.3-15.6-6.8-18.9l-7-3.3c0.5-0.8,1-1.7,1.5-2.4c2-2.6,4.1-5.1,6.3-7.5c2.9-3.2,6-6.3,9.3-9.1
	c2.5-2.2,5.2-4.3,8-6.3c0.9-0.6,1.9-1.1,2.8-1.7l3.1,7.1c2.3,5.2,7.4,8.5,13.1,8.5C214.1,233.5,216.1,233.1,217.9,232.3z M102.4,256
	c-14.1,0-25.6-11.5-25.6-25.6s11.5-25.6,25.6-25.6s25.6,11.5,25.6,25.6S116.5,256,102.4,256z M166.4,179.2
	c-7.1,0-12.8-5.7-12.8-12.8s5.7-12.8,12.8-12.8s12.8,5.7,12.8,12.8S173.5,179.2,166.4,179.2z M511.4,215.4
	c-1.8-6-7.4-10.2-13.6-10.2c-1.4,0-2.7,0.2-4.1,0.6l-9,2.7c-6.5-12.2-16.7-22.1-29.1-28.3l2.3-8.8c1.8-7.7-2.9-15.3-10.6-17.1
	c-7.4-1.8-14.9,2.7-17,10L428,173c-0.8,0-1.7-0.2-2.5-0.2c-13,0.1-25.7,3.9-36.5,11.1l-6.9-7c-5.5-5.6-14.5-5.8-20.1-0.3
	c-5.6,5.5-5.8,14.5-0.3,20.1l0,0l7.3,7.5c-4.9,7.5-8.2,16-9.7,24.9c-0.8,4.2-1.8,8.4-3.1,12.4L349,238c-7.1-3.3-15.6-0.3-18.9,6.8
	c-3.3,7.1-0.3,15.6,6.8,18.9l7,3.3c-0.5,0.8-1,1.7-1.5,2.4c-2,2.6-4.1,5.2-6.4,7.6c-2.9,3.2-6,6.3-9.3,9.1c-2.6,2.2-5.2,4.3-8,6.3
	c-0.9,0.6-1.9,1.1-2.8,1.7l-3.1-7.1c-2.3-5.2-7.4-8.5-13.1-8.5c-2,0-3.9,0.4-5.7,1.2c-7.2,3.1-10.4,11.5-7.3,18.7c0,0,0,0,0,0
	l3.2,7.3c-3.2,1-6.6,1.8-9.9,2.5c-9.7,1.7-18.9,5.5-27,11.1l-8-7.2c-5.7-5.4-14.7-5.1-20.1,0.6c-5.4,5.7-5.1,14.7,0.6,20.1
	c0.1,0.1,0.2,0.2,0.3,0.3l7.8,7c-7,11.6-10.2,25.1-9.3,38.5l-9.5,2.8c-7.5,2.2-11.8,10.2-9.5,17.7s10.2,11.8,17.7,9.5l0,0l9.1-2.7
	c6.5,12.3,16.7,22.2,29.1,28.5l-2.3,8.7c-2,7.6,2.6,15.4,10.2,17.4c7.6,2,15.4-2.6,17.4-10.2l2.3-8.6c4.5,0.2,9-0.1,13.4-0.9
	c9.1-1.5,17.8-4.1,26.5-6.6l2.7,7.6c2.6,7.4,10.8,11.3,18.2,8.7c7.4-2.6,11.3-10.8,8.7-18.2l-2.8-7.8c12.2-5.3,24-11.6,35.2-18.9
	l5.1,6.7c4.7,6.3,13.6,7.6,19.9,2.9c6.3-4.6,7.6-13.5,3-19.8c0,0-0.1-0.1-0.1-0.1l-5.2-6.9c10.1-8.6,19.5-18.1,28-28.3l7.1,5.1
	c6.2,4.8,15.1,3.7,19.9-2.5c4.8-6.2,3.7-15.1-2.5-19.9c-0.2-0.2-0.4-0.3-0.6-0.5l-7.1-5.2c7.1-11.2,13.3-22.9,18.4-35.1l8.4,2.9
	c7.4,2.6,15.5-1.4,18-8.8s-1.4-15.5-8.8-18l0,0l-8.3-2.8c2.2-8,4.6-15.9,6-24.2c0.8-5,1-10.2,0.7-15.2l9.3-2.7
	C509.3,230.9,513.7,223,511.4,215.4C511.5,215.5,511.5,215.5,511.4,215.4z M332.8,384c-14.1,0-25.6-11.5-25.6-25.6
	s11.5-25.6,25.6-25.6c14.1,0,25.6,11.5,25.6,25.6S347,384,332.8,384z"/>
</svg>
