<?xml version="1.0" encoding="utf-8"?>
<!-- Generator: Adobe Illustrator 24.0.0, SVG Export Plug-In . SVG Version: 6.00 Build 0)  -->
<svg version="1.1" id="Layer_1" xmlns="http://www.w3.org/2000/svg" xmlns:xlink="http://www.w3.org/1999/xlink" x="0px" y="0px"
	 viewBox="0 0 512 512" style="enable-background:new 0 0 512 512;" xml:space="preserve">
<path d="M204.8,320L204.8,320c0-12.9,1.1-7-68.1-145.2c-14.1-28.2-54.6-28.3-68.7,0C-1.6,314.2,0,307.5,0,320h0
	c0,35.3,45.8,64,102.4,64S204.8,355.3,204.8,320z M102.4,192L160,307.2H44.8L102.4,192z M512,320c0-12.9,1.1-7-68-145.2
	c-14.1-28.2-54.6-28.3-68.7,0c-69.7,139.4-68,132.7-68,145.2h0c0,35.3,45.8,64,102.4,64S512,355.3,512,320L512,320z M352,307.2
	L409.6,192l57.6,115.2H352z M422.4,409.6H281.6V173.8c18.8-8.2,32.9-25.2,37.1-45.8h103.7c7.1,0,12.8-5.7,12.8-12.8V89.6
	c0-7.1-5.7-12.8-12.8-12.8H306.9c-11.7-15.5-30-25.6-50.9-25.6s-39.2,10.1-50.9,25.6H89.6c-7.1,0-12.8,5.7-12.8,12.8v25.6
	c0,7.1,5.7,12.8,12.8,12.8h103.7c4.2,20.6,18.3,37.6,37.1,45.8v235.8H89.6c-7.1,0-12.8,5.7-12.8,12.8V448c0,7.1,5.7,12.8,12.8,12.8
	h332.8c7.1,0,12.8-5.7,12.8-12.8v-25.6C435.2,415.3,429.5,409.6,422.4,409.6z"/>
</svg>
