<?xml version="1.0" encoding="utf-8"?>
<!-- Generator: Adobe Illustrator 24.0.0, SVG Export Plug-In . SVG Version: 6.00 Build 0)  -->
<svg version="1.1" id="Layer_1" xmlns="http://www.w3.org/2000/svg" xmlns:xlink="http://www.w3.org/1999/xlink" x="0px" y="0px"
	 viewBox="0 0 512 512" style="enable-background:new 0 0 512 512;" xml:space="preserve">
<path d="M422.4,409.6H281.6V173.8c16.3-7.2,28.9-21,34.7-38l105.6-35.4c6.7-2.2,10.3-9.5,8.1-16.2l-8.1-24.3
	c-2.2-6.7-9.5-10.3-16.2-8.1l-94.3,31.6c-11-19.2-31.5-32.3-55.3-32.3c-35.3,0-64,28.7-64,64c0,2.7,0.5,5.4,0.8,8L90.1,157.7
	c-6.7,2.2-10.3,9.5-8.1,16.2l8.1,24.3c2.2,6.7,9.5,10.3,16.2,8.1L220,168.1c3.3,2.2,6.7,4.1,10.4,5.7V448c0,7.1,5.7,12.8,12.8,12.8
	h179.2c7.1,0,12.8-5.7,12.8-12.8v-25.6C435.2,415.3,429.5,409.6,422.4,409.6z M512,294.4c0-12.9,1.1-7-68-145.2
	c-14.1-28.2-54.6-28.3-68.7,0c-69.7,139.4-68,132.7-68,145.2h0c0,35.3,45.8,64,102.4,64S512,329.7,512,294.4L512,294.4z M352,281.6
	l57.6-115.2l57.6,115.2H352z M136.7,251.6c-14.1-28.2-54.6-28.3-68.7,0C-1.6,391,0,384.3,0,396.8h0c0,35.3,45.8,64,102.4,64
	s102.4-28.7,102.4-64h0C204.8,383.9,205.9,389.8,136.7,251.6z M44.8,384l57.6-115.2L160,384H44.8z"/>
</svg>
