<?xml version="1.0" encoding="utf-8"?>
<!-- Generator: Adobe Illustrator 24.0.0, SVG Export Plug-In . SVG Version: 6.00 Build 0)  -->
<svg version="1.1" id="Layer_1" xmlns="http://www.w3.org/2000/svg" xmlns:xlink="http://www.w3.org/1999/xlink" x="0px" y="0px"
	 viewBox="0 0 512 512" style="enable-background:new 0 0 512 512;" xml:space="preserve">
<path d="M76.8,422.4V448c0,7.1,5.7,12.8,12.8,12.8h179.2c7.1,0,12.8-5.7,12.8-12.8V173.8c3.6-1.6,7.1-3.5,10.4-5.7l113.6,38.1
	c6.7,2.2,14-1.4,16.2-8.1l8.1-24.3c2.2-6.7-1.4-14-8.1-16.2l-102.7-34.4c0.3-2.7,0.8-5.3,0.8-8c0-35.3-28.7-64-64-64
	c-23.8,0-44.2,13.1-55.3,32.3l-94.3-31.6c-6.7-2.2-14,1.4-16.2,8.1L82,84.2c-2.2,6.7,1.4,14,8.1,16.2l105.6,35.4
	c5.8,17,18.4,30.8,34.7,38v235.8H89.6C82.5,409.6,76.8,415.3,76.8,422.4z M0,294.4c0,35.3,45.8,64,102.4,64s102.4-28.7,102.4-64l0,0
	c0-12.5,1.7-5.8-68-145.2c-14.1-28.3-54.6-28.2-68.7,0C-1.1,287.4,0,281.5,0,294.4L0,294.4z M44.8,281.6l57.6-115.2L160,281.6H44.8z
	 M307.2,396.8L307.2,396.8c0,35.3,45.8,64,102.4,64s102.4-28.7,102.4-64l0,0c0-12.5,1.7-5.8-68-145.2c-14.1-28.3-54.6-28.2-68.7,0
	C306.1,389.8,307.2,383.9,307.2,396.8z M352,384l57.6-115.2L467.2,384H352z"/>
</svg>
