<?xml version="1.0" encoding="utf-8"?>
<!-- Generator: Adobe Illustrator 24.0.0, SVG Export Plug-In . SVG Version: 6.00 Build 0)  -->
<svg version="1.1" id="Layer_1" xmlns="http://www.w3.org/2000/svg" xmlns:xlink="http://www.w3.org/1999/xlink" x="0px" y="0px"
	 viewBox="0 0 512 512" style="enable-background:new 0 0 512 512;" xml:space="preserve">
<path d="M0,179.2v153.6C0,361,23,384,51.2,384H128V128H51.2C23,128,0,151,0,179.2z M460.8,128H384v256h76.8
	c28.2,0,51.2-23,51.2-51.2V179.2C512,151,489,128,460.8,128z M153.6,384h204.8V128H153.6V384z M294.4,198.4
	c10.6,0,19.2,8.6,19.2,19.2c0,10.6-8.6,19.2-19.2,19.2s-19.2-8.6-19.2-19.2C275.2,207,283.8,198.4,294.4,198.4z M294.4,275.2
	c10.6,0,19.2,8.6,19.2,19.2s-8.6,19.2-19.2,19.2s-19.2-8.6-19.2-19.2S283.8,275.2,294.4,275.2z M217.6,198.4
	c10.6,0,19.2,8.6,19.2,19.2c0,10.6-8.6,19.2-19.2,19.2s-19.2-8.6-19.2-19.2S207,198.4,217.6,198.4z M217.6,275.2
	c10.6,0,19.2,8.6,19.2,19.2s-8.6,19.2-19.2,19.2s-19.2-8.6-19.2-19.2S207,275.2,217.6,275.2z"/>
</svg>
