<?xml version="1.0" encoding="utf-8"?>
<!-- Generator: Adobe Illustrator 24.0.0, SVG Export Plug-In . SVG Version: 6.00 Build 0)  -->
<svg version="1.1" id="Layer_1" xmlns="http://www.w3.org/2000/svg" xmlns:xlink="http://www.w3.org/1999/xlink" x="0px" y="0px"
	 viewBox="0 0 512 512" style="enable-background:new 0 0 512 512;" xml:space="preserve">
<path d="M48,132h416c8.8,0,16-7.2,16-16V76c0-8.8-7.2-16-16-16H48c-8.8,0-16,7.2-16,16v40C32,124.8,39.2,132,48,132z M48,292h416
	c8.8,0,16-7.2,16-16v-40c0-8.8-7.2-16-16-16H48c-8.8,0-16,7.2-16,16v40C32,284.8,39.2,292,48,292z M48,452h416c8.8,0,16-7.2,16-16
	v-40c0-8.8-7.2-16-16-16H48c-8.8,0-16,7.2-16,16v40C32,444.8,39.2,452,48,452z"/>
</svg>
