<?xml version="1.0" encoding="utf-8"?>
<!-- Generator: Adobe Illustrator 24.0.0, SVG Export Plug-In . SVG Version: 6.00 Build 0)  -->
<svg version="1.1" id="Layer_1" xmlns="http://www.w3.org/2000/svg" xmlns:xlink="http://www.w3.org/1999/xlink" x="0px" y="0px"
	 viewBox="0 0 512 512" style="enable-background:new 0 0 512 512;" xml:space="preserve">
<path d="M376.5,363.9l28.8-13.9c11.1,22.9,26,43.2,44.1,60.9c34-42.5,54.5-96.3,54.5-154.9c0-58.5-20.4-112.2-54.2-154.6
	c-17.8,17.3-32.6,37.1-43.6,59.5l-28.7-14.1c12.8-26,30-49,50.8-69C383.6,34.7,323,8,256,8C189.1,8,128.5,34.6,83.9,77.7
	c20.7,19.9,37.9,42.9,50.7,68.8l-28.7,14.1c-11-22.3-25.7-42.1-43.5-59.4C28.4,143.7,8,197.4,8,256s20.4,112.3,54.4,154.7
	c18.2-17.7,33.2-38,44.3-61l28.8,13.9c-12.9,26.7-30.3,50.3-51.5,70.7c44.5,43.1,105.1,69.7,172,69.7c66.8,0,127.3-26.5,171.9-69.5
	C406.8,414.1,389.4,390.6,376.5,363.9z M148.2,331.9l-30.5-9.8c14.9-46.4,12.7-93.8-0.6-134l30.4-10
	C162.5,223.7,165.5,278,148.2,331.9L148.2,331.9z M364.5,178.5l30.4,10c-13.2,40.1-15.5,87.5-0.6,134l-30.5,9.8
	C346.5,278.3,349.5,224,364.5,178.5L364.5,178.5z"/>
</svg>
