<?xml version="1.0" encoding="utf-8"?>
<!-- Generator: Adobe Illustrator 24.0.0, SVG Export Plug-In . SVG Version: 6.00 Build 0)  -->
<svg version="1.1" id="Layer_1" xmlns="http://www.w3.org/2000/svg" xmlns:xlink="http://www.w3.org/1999/xlink" x="0px" y="0px"
	 viewBox="0 0 512 512" style="enable-background:new 0 0 512 512;" xml:space="preserve">
<path d="M435.2,179.2v51.2h25.6v51.2h-25.6v51.2h-384V179.2H435.2 M448,128H38.4C17.2,128,0,145.2,0,166.4v179.2
	C0,366.8,17.2,384,38.4,384H448c21.2,0,38.4-17.2,38.4-38.4v-12.8h6.4c10.6,0,19.2-8.6,19.2-19.2V198.4c0-10.6-8.6-19.2-19.2-19.2
	h-6.4v-12.8C486.4,145.2,469.2,128,448,128z M256,204.8H76.8v102.4H256V204.8z"/>
</svg>
