<?xml version="1.0" encoding="utf-8"?>
<!-- Generator: Adobe Illustrator 24.0.0, SVG Export Plug-In . SVG Version: 6.00 Build 0)  -->
<svg version="1.1" id="Layer_1" xmlns="http://www.w3.org/2000/svg" xmlns:xlink="http://www.w3.org/1999/xlink" x="0px" y="0px"
	 viewBox="0 0 512 512" style="enable-background:new 0 0 512 512;" xml:space="preserve">
<path d="M140.8,256c35.3,0,64-28.7,64-64s-28.7-64-64-64s-64,28.7-64,64S105.5,256,140.8,256z M422.4,153.6H243.2
	c-7.1,0-12.8,5.7-12.8,12.8v115.2H51.2V115.2c0-7.1-5.7-12.8-12.8-12.8H12.8c-7.1,0-12.8,5.7-12.8,12.8v281.6
	c0,7.1,5.7,12.8,12.8,12.8h25.6c7.1,0,12.8-5.7,12.8-12.8v-38.4h409.6v38.4c0,7.1,5.7,12.8,12.8,12.8h25.6c7.1,0,12.8-5.7,12.8-12.8
	V243.2C512,193.7,471.9,153.6,422.4,153.6z"/>
</svg>
