<?xml version="1.0" encoding="utf-8"?>
<!-- Generator: Adobe Illustrator 24.0.0, SVG Export Plug-In . SVG Version: 6.00 Build 0)  -->
<svg version="1.1" id="Layer_1" xmlns="http://www.w3.org/2000/svg" xmlns:xlink="http://www.w3.org/1999/xlink" x="0px" y="0px"
	 viewBox="0 0 512 512" style="enable-background:new 0 0 512 512;" xml:space="preserve">
<path d="M218.5,293c0,19.3-14,25.4-31.2,25.4h-45.1v-52.9h46C206.8,265.6,218.5,273.3,218.5,293L218.5,293z M210.8,210.7
	c0-17.7-13.7-21.9-28.9-21.9h-39.6v44.8H185C200.1,233.6,210.8,227,210.8,210.7L210.8,210.7z M343.1,233.9
	c-18.3,0-30.5,11.4-31.7,29.7h62.2C371.9,245.1,362.3,233.9,343.1,233.9L343.1,233.9z M480,80v352c0,26.5-21.5,48-48,48H80
	c-26.5,0-48-21.5-48-48V80c0-26.5,21.5-48,48-48h352C458.5,32,480,53.5,480,80z M303.7,185h77.8v-18.9h-77.8V185z M260.7,295.3
	c0-24.1-11.4-44.9-35-51.6c17.2-8.2,26.2-17.7,26.2-37c0-38.2-28.5-47.5-61.4-47.5H100v192h93.1C228,351,260.7,334.3,260.7,295.3z
	 M412,280.5c0-41.1-24.1-75.4-67.6-75.4c-42.4,0-71.1,31.8-71.1,73.6c0,43.3,27.3,73,71.1,73c33.2,0,54.7-14.9,65.1-46.8h-33.7
	c-3.7,11.9-18.6,18.1-30.2,18.1c-22.4,0-34.1-13.1-34.1-35.3h100.2C411.8,285.4,412,282.9,412,280.5L412,280.5z"/>
</svg>
