<?xml version="1.0" encoding="utf-8"?>
<!-- Generator: Adobe Illustrator 24.0.0, SVG Export Plug-In . SVG Version: 6.00 Build 0)  -->
<svg version="1.1" id="Layer_1" xmlns="http://www.w3.org/2000/svg" xmlns:xlink="http://www.w3.org/1999/xlink" x="0px" y="0px"
	 viewBox="0 0 512 512" style="enable-background:new 0 0 512 512;" xml:space="preserve">
<path d="M206.2,239.3c28.3-13.5,43-34,43-65.8c0-62.8-46.8-78-100.7-78H0v315h152.7c57.2,0,111-27.5,111-91.5
	C263.7,279.5,245,250.2,206.2,239.3L206.2,239.3z M69.2,149.2h65c25,0,47.5,7,47.5,36c0,26.8-17.5,37.5-42.2,37.5H69.2
	C69.2,222.7,69.2,149.2,69.2,149.2z M143.3,357h-74v-86.8h75.5c30.5,0,49.8,12.7,49.8,45C194.5,347,171.5,357,143.3,357L143.3,357z
	 M462,143H334.2v-31H462V143L462,143z M512,299.7c0-67.5-39.5-123.7-111-123.7c-69.5,0-116.7,52.3-116.7,120.7
	c0,71,44.7,119.7,116.7,119.7c54.5,0,89.8-24.5,106.8-76.7h-55.3c-6,19.5-30.5,29.8-49.5,29.8c-36.7,0-56-21.5-56-58h164.5
	C511.7,307.7,512,303.7,512,299.7z M347,272c2-30,22-48.7,52-48.7c31.5,0,47.3,18.5,50,48.7H347z"/>
</svg>
