<?xml version="1.0" encoding="utf-8"?>
<!-- Generator: Adobe Illustrator 24.0.0, SVG Export Plug-In . SVG Version: 6.00 Build 0)  -->
<svg version="1.1" id="Layer_1" xmlns="http://www.w3.org/2000/svg" xmlns:xlink="http://www.w3.org/1999/xlink" x="0px" y="0px"
	 viewBox="0 0 512 512" style="enable-background:new 0 0 512 512;" xml:space="preserve">
<path d="M256,512c35.3,0,64-28.6,64-64H192C192,483.4,220.7,512,256,512z M471.4,362.3c-19.3-20.8-55.5-52-55.5-154.3
	c0-77.7-54.5-139.9-127.9-155.2V32c0-17.7-14.3-32-32-32c-17.7,0-32,14.3-32,32v20.8C150.6,68.1,96.1,130.3,96.1,208
	c0,102.3-36.2,133.5-55.5,154.3c-6,6.5-8.7,14.2-8.6,21.7c0.1,16.4,13,32,32.1,32h383.8c19.1,0,32-15.6,32.1-32
	C480,376.4,477.4,368.7,471.4,362.3z"/>
</svg>
