<?xml version="1.0" encoding="utf-8"?>
<!-- Generator: Adobe Illustrator 24.0.0, SVG Export Plug-In . SVG Version: 6.00 Build 0)  -->
<svg version="1.1" id="Layer_1" xmlns="http://www.w3.org/2000/svg" xmlns:xlink="http://www.w3.org/1999/xlink" x="0px" y="0px"
	 viewBox="0 0 512 512" style="enable-background:new 0 0 512 512;" xml:space="preserve">
<path d="M507.2,428L28.8,54c-5.5-4.4-13.6-3.5-18,2l-8,10c-4.4,5.5-3.5,13.6,2,18l478.4,374c5.5,4.4,13.6,3.5,18-2l8-10
	C513.6,440.5,512.7,432.4,507.2,428L507.2,428z M130.8,345.6c13.4-17.6,27.6-44.6,33.1-88.5l-36.4-28.4
	C125,301.3,98.4,325.2,83.7,341c-4.8,5.2-6.9,11.3-6.9,17.4c0.1,13.1,10.4,25.6,25.7,25.6h223.7l-49.1-38.4L130.8,345.6L130.8,345.6
	z M256,128c49.5,0,89.6,40.1,89.6,89.6c0,0.2,0,0.3,0,0.5c0,13.5,0.9,25.4,2.2,36.6l47.6,37.2c-6.6-17.7-11.5-41.2-11.5-74.3
	c0-62.2-43.6-111.9-102.4-124.1V76.8c0-14.1-11.5-25.6-25.6-25.6c-14.1,0-25.6,11.5-25.6,25.6v16.7c-20.8,4.3-39.6,13.6-55.3,26.2
	l30.5,23.9C220,133.7,237.3,128,256,128z M256,460.8c28.3,0,51.2-22.9,51.2-51.2H204.8C204.8,437.9,227.7,460.8,256,460.8z"/>
</svg>
