<?xml version="1.0" encoding="utf-8"?>
<!-- Generator: Adobe Illustrator 24.0.0, SVG Export Plug-In . SVG Version: 6.00 Build 0)  -->
<svg version="1.1" id="Layer_1" xmlns="http://www.w3.org/2000/svg" xmlns:xlink="http://www.w3.org/1999/xlink" x="0px" y="0px"
	 viewBox="0 0 512 512" style="enable-background:new 0 0 512 512;" xml:space="preserve">
<path d="M507.1,417.7l-72.5-56c0.2-1.1,0.6-2.1,0.6-3.2c0-6-2.1-12.2-6.9-17.4c-15.5-16.6-44.4-41.6-44.4-123.4
	c0-62.2-43.6-111.9-102.4-124.1V76.8c0-14.1-11.5-25.6-25.6-25.6c-14.1,0-25.6,11.5-25.6,25.6v16.7c-32.3,6.7-59.7,24.9-78.1,50.1
	l-116-89.6c-5.6-4.3-13.6-3.3-18,2.2L2.7,76.4c-4.3,5.6-3.3,13.6,2.2,18l470.7,363.8c5.6,4.3,13.6,3.3,18-2.2l15.7-20.2
	C513.6,430.1,512.6,422,507.1,417.7z M125.8,252.4c-6.9,54.4-29.1,74.7-42.1,88.6c-4.8,5.2-6.9,11.3-6.9,17.4
	c0.1,13.1,10.4,25.6,25.7,25.6H296L125.8,252.4z M256,460.8c28.3,0,51.2-22.9,51.2-51.2H204.8C204.8,437.9,227.7,460.8,256,460.8z"
	/>
</svg>
