<?xml version="1.0" encoding="utf-8"?>
<!-- Generator: Adobe Illustrator 24.0.0, SVG Export Plug-In . SVG Version: 6.00 Build 0)  -->
<svg version="1.1" id="Layer_1" xmlns="http://www.w3.org/2000/svg" xmlns:xlink="http://www.w3.org/1999/xlink" x="0px" y="0px"
	 viewBox="0 0 512 512" style="enable-background:new 0 0 512 512;" xml:space="preserve">
<path d="M480,358.4V25.6c0-16-9.6-25.6-25.6-25.6H128C73.6,0,32,41.6,32,96v320c0,54.4,41.6,96,96,96h326.4
	c12.8,0,25.6-9.6,25.6-25.6v-16c0-6.4-3.2-12.8-9.6-19.2c-3.2-16-3.2-60.8,0-73.6C476.8,374.4,480,368,480,358.4L480,358.4z
	 M176,144c0-8.8,7.2-16,16-16h48V80c0-8.8,7.2-16,16-16h32c8.8,0,16,7.2,16,16v48h48c8.8,0,16,7.2,16,16v32c0,8.8-7.2,16-16,16h-48
	v112c0,8.8-7.2,16-16,16h-32c-8.8,0-16-7.2-16-16V192h-48c-8.8,0-16-7.2-16-16V144z M412.8,448H128c-19.2,0-32-12.8-32-32
	s16-32,32-32h284.8V448z"/>
</svg>
