<?xml version="1.0" encoding="utf-8"?>
<!-- Generator: Adobe Illustrator 24.0.0, SVG Export Plug-In . SVG Version: 6.00 Build 0)  -->
<svg version="1.1" id="Layer_1" xmlns="http://www.w3.org/2000/svg" xmlns:xlink="http://www.w3.org/1999/xlink" x="0px" y="0px"
	 viewBox="0 0 512 512" style="enable-background:new 0 0 512 512;" xml:space="preserve">
<path d="M410,204.8c-13.1-0.1-25.6,2.4-37.1,6.8l-62.1-100.1c-3.5-5.6-9.7-9.1-16.3-9.1h-51.2c-7.1,0-12.8,5.7-12.8,12.8V128
	c0,7.1,5.7,12.8,12.8,12.8h40.5l11.9,19.2h-90.8v-12.8c0-7.1-5.7-12.8-12.8-12.8h-70c-10.8,0-19.8,8.8-19.6,19.5
	c0.2,10.4,8.7,18.9,19.2,18.9h39l-23.5,38c-10.7-3.9-22.3-6-34.4-6C46.5,204.7,0.3,250.4,0,306.6c-0.3,56.8,45.6,103,102.4,103
	c47.7,0,87.8-32.6,99.2-76.8h41.6c6.6,0,12.8-3.4,16.3-9.1l68.8-111.1l12,19.3c-20.4,18.8-33.1,45.7-33,75.5
	c0.1,55.1,46.3,101.6,101.4,102.2c56.5,0.5,102.5-44.6,103.4-100.8C512.9,252,466.8,205,410,204.8L410,204.8z M149.4,263.8
	c7.8,8.4,13.3,18.9,15.7,30.6h-34.6L149.4,263.8z M102.4,371.2c-35.3,0-64-28.7-64-64s28.7-64,64-64c4.7,0,9.3,0.5,13.7,1.5
	l-36.4,58.8c-7.9,12.8,1.3,29.3,16.3,29.3h65C151.1,355.4,128.6,371.2,102.4,371.2z M232.5,294.4H204c-3.2-25.4-15.6-47.9-33.9-64
	l19.8-32h102L232.5,294.4L232.5,294.4z M406.2,371.1c-32.8-1.7-59.2-28.6-60.5-61.4c-0.6-16.9,5.3-32.4,15.5-44.2l35.5,57.3
	c3.7,6,11.6,7.9,17.6,4.1l10.9-6.7c6-3.7,7.9-11.6,4.1-17.6l-35.6-57.3c5.2-1.3,10.5-2,15.9-2c35.3,0,64,28.7,64,64
	C473.6,343.6,443,373.1,406.2,371.1z"/>
</svg>
