<?xml version="1.0" encoding="utf-8"?>
<!-- Generator: Adobe Illustrator 24.0.0, SVG Export Plug-In . SVG Version: 6.00 Build 0)  -->
<svg version="1.1" id="Layer_1" xmlns="http://www.w3.org/2000/svg" xmlns:xlink="http://www.w3.org/1999/xlink" x="0px" y="0px"
	 viewBox="0 0 512 512" style="enable-background:new 0 0 512 512;" xml:space="preserve">
<path d="M320,128c21.2,0,38.4-17.2,38.4-38.4S341.2,51.2,320,51.2s-38.4,17.2-38.4,38.4S298.8,128,320,128z M316.8,224.8
	c4.5,3.6,10.2,5.6,16,5.6H384c14.1,0,25.6-11.5,25.6-25.6s-11.5-25.6-25.6-25.6h-42.2l-57-45.6c-9.6-7.7-23.3-7.5-32.6,0.5
	l-89.6,76.8c-10.7,9.2-12,25.4-2.8,36.1c1.5,1.8,3.3,3.3,5.2,4.6l65.4,43.6V384c0,14.1,11.5,25.6,25.6,25.6
	c14.1,0,25.6-11.5,25.6-25.6V281.6c0-8.6-4.3-16.5-11.4-21.3l-33.1-22.1l46.6-39.9L316.8,224.8z M409.6,256
	c-56.6,0-102.4,45.8-102.4,102.4S353,460.8,409.6,460.8S512,415,512,358.4S466.2,256,409.6,256z M409.6,409.6
	c-28.3,0-51.2-22.9-51.2-51.2s22.9-51.2,51.2-51.2c28.3,0,51.2,22.9,51.2,51.2S437.9,409.6,409.6,409.6z M102.4,256
	C45.8,256,0,301.8,0,358.4s45.8,102.4,102.4,102.4S204.8,415,204.8,358.4S159,256,102.4,256z M102.4,409.6
	c-28.3,0-51.2-22.9-51.2-51.2s22.9-51.2,51.2-51.2s51.2,22.9,51.2,51.2S130.7,409.6,102.4,409.6z"/>
</svg>
