<?xml version="1.0" encoding="utf-8"?>
<!-- Generator: Adobe Illustrator 24.0.0, SVG Export Plug-In . SVG Version: 6.00 Build 0)  -->
<svg version="1.1" id="Layer_1" xmlns="http://www.w3.org/2000/svg" xmlns:xlink="http://www.w3.org/1999/xlink" x="0px" y="0px"
	 viewBox="0 0 512 512" style="enable-background:new 0 0 512 512;" xml:space="preserve">
<path d="M448,32H64c-17.6,0-32,14.4-32,32v384c0,17.6,14.4,32,32,32h384c17.6,0,32-14.4,32-32V64C480,46.4,465.6,32,448,32z
	 M384,289.4c0,49.4-11.4,82.6-103.8,82.6h-16.9c-44.1,0-62.4-14.9-70.4-38.8H192V368h-64V136h64v74.7h1.1
	c4.6-30.5,39.7-38.8,69.7-38.8h17.3c92.4,0,103.8,33.1,103.8,82.5L384,289.4L384,289.4z M320,260.5v22.9c0,21.7-3.4,33.8-38.4,33.8
	h-45.3c-28.9,0-44.1-6.5-44.1-35.7v-19c0-29.3,15.2-35.7,44.1-35.7h45.3C316.6,226.6,320,238.8,320,260.5L320,260.5z"/>
</svg>
