<?xml version="1.0" encoding="utf-8"?>
<!-- Generator: Adobe Illustrator 24.0.0, SVG Export Plug-In . SVG Version: 6.00 Build 0)  -->
<svg version="1.1" id="Layer_1" xmlns="http://www.w3.org/2000/svg" xmlns:xlink="http://www.w3.org/1999/xlink" x="0px" y="0px"
	 viewBox="0 0 512 512" style="enable-background:new 0 0 512 512;" xml:space="preserve">
<path d="M480,384c-28,0-31.3-32-74.5-32c-43.4,0-46.8,32-74.8,32c-27.7,0-31.5-32-74.8-32c-42.8,0-47.2,32-74.5,32
	c-28.1,0-31.2-32-74.8-32c-43.5,0-46.7,32-74.8,32v-80c0-26.5,21.5-48,48-48h16V112h64v144h64V112h64v144h64V112h64v144h16
	c26.5,0,48,21.5,48,48V384z M480,512H32v-96c43.4,0,46.8-32,74.8-32c28,0,31.3,32,74.8,32c42.8,0,47.2-32,74.5-32
	c28.1,0,31.2,32,74.8,32c43.4,0,46.8-32,74.8-32c27.5,0,31.3,32,74.5,32V512z M128,96c-17.8,0-32-14.3-32-32c0-31,32-23,32-64
	c12,0,32,29.5,32,56S145.8,96,128,96z M256,96c-17.8,0-32-14.3-32-32c0-31,32-23,32-64c12,0,32,29.5,32,56S273.8,96,256,96z M384,96
	c-17.8,0-32-14.3-32-32c0-31,32-23,32-64c12,0,32,29.5,32,56S401.8,96,384,96z"/>
</svg>
