<?xml version="1.0" encoding="utf-8"?>
<!-- Generator: Adobe Illustrator 24.0.0, SVG Export Plug-In . SVG Version: 6.00 Build 0)  -->
<svg version="1.1" id="Layer_1" xmlns="http://www.w3.org/2000/svg" xmlns:xlink="http://www.w3.org/1999/xlink" x="0px" y="0px"
	 viewBox="0 0 512 512" style="enable-background:new 0 0 512 512;" xml:space="preserve">
<path d="M86.4,67.2C181.8-22,332.5-24,429.5,71c14.3,14.1-6.4,37.1-22.4,21.5c-84.8-82.4-215.8-80.3-298.9-3.2
	C91.9,104.4,71.7,81,86.4,67.2z M185.3,485.8c19.3,5.7,29.3-23.6,7.9-30C81,421.9,17.4,306.1,45.7,194.8c5-19.6-24.9-28.1-30.2-7.1
	C-16.6,315.1,56.6,447.5,185.3,485.8z M333.4,483.8c121.9-40.2,192.9-166.9,164.4-291c-4.5-19.7-34.9-13.8-30,7.9
	c24.2,107.7-37.1,217.9-143.2,253.4C303.4,461.1,314.2,490.1,333.4,483.8z M270.5,404.8l0.2-71.8c0-8.2-6.6-14.8-14.8-14.8
	s-14.8,6.7-14.8,14.8l-0.2,71.8c0,8.2,6.6,14.8,14.8,14.8C263.9,419.6,270.5,413,270.5,404.8z M341.5,135.8
	c2.1,90.9,4.7,131.9-85.5,132.5c-92.5-0.7-86.9-44.3-85.5-132.5c0-21.8-32.5-19.6-32.5,0v71.6c0,69.3,60.7,90.9,118,90.1
	c57.3,0.8,118-20.8,118-90.1v-71.6C374,116.2,341.5,114,341.5,135.8z"/>
</svg>
