<?xml version="1.0" encoding="utf-8"?>
<!-- Generator: Adobe Illustrator 24.0.0, SVG Export Plug-In . SVG Version: 6.00 Build 0)  -->
<svg version="1.1" id="Layer_1" xmlns="http://www.w3.org/2000/svg" xmlns:xlink="http://www.w3.org/1999/xlink" x="0px" y="0px"
	 viewBox="0 0 512 512" style="enable-background:new 0 0 512 512;" xml:space="preserve">
<path d="M348.4,85.3h148L512,28.4H170.7v312.9h256l15.5-56.9h-93.7c-3.9,0-7.1-3.2-7.1-7.1v-14.2c0-3.9,3.2-7.1,7.1-7.1h101.5
	l15.5-56.9h-117c-3.9,0-7.1-3.2-7.1-7.1v-14.2c0-3.9,3.2-7.1,7.1-7.1h124.8l15.5-56.9H348.4c-3.9,0-7.1-3.2-7.1-7.1V92.4
	C341.3,88.5,344.5,85.3,348.4,85.3z M141.2,326.2L118.2,270c-2.5-6.1-8.7-9.8-15.3-9.1l-40,3.9c-15.4-41.7-15.7-88.7,0-131.3l40,3.9
	c6.6,0.6,12.9-3.1,15.3-9.1l22.9-56.2c2.7-6.6,0.2-14.1-5.9-17.8l-34.9-21.4c-12.7-7.8-29.1-4.8-39,6.3
	c-82.3,92.1-81.8,230.7,1.9,322.2c8.8,9.6,25.9,11.1,37,4.3l35-21.5C141.3,340.3,143.8,332.8,141.2,326.2L141.2,326.2z M426.7,369.8
	h-256c-31.4,0-56.9,25.5-56.9,56.9v28.4c0,15.7,12.7,28.4,28.4,28.4h312.9c15.7,0,28.4-12.7,28.4-28.4v-28.4
	C483.6,395.2,458.1,369.8,426.7,369.8z M298.7,455.1c-15.7,0-28.4-12.7-28.4-28.4s12.7-28.4,28.4-28.4s28.4,12.7,28.4,28.4
	S314.4,455.1,298.7,455.1z"/>
</svg>
