<?xml version="1.0" encoding="utf-8"?>
<!-- Generator: Adobe Illustrator 24.0.0, SVG Export Plug-In . SVG Version: 6.00 Build 0)  -->
<svg version="1.1" id="Layer_1" xmlns="http://www.w3.org/2000/svg" xmlns:xlink="http://www.w3.org/1999/xlink" x="0px" y="0px"
	 viewBox="0 0 512 512" style="enable-background:new 0 0 512 512;" xml:space="preserve">
<path d="M444.1,510.8c-3.8,2.3-8.7,1.1-11-2.7L307.8,301.7c5.1-2,9.5-5.3,13-9.5l126,207.6C449.1,503.6,447.9,508.5,444.1,510.8
	C444.2,510.8,444.2,510.8,444.1,510.8L444.1,510.8z M206.8,314.3l-32.5,89.5l36.1,88.3c6.7,16.4,25.4,24.2,41.7,17.5
	c16.4-6.7,24.2-25.4,17.5-41.7L206.8,314.3L206.8,314.3z M160,88c24.3,0,44-19.7,44-44S184.3,0,160,0s-44,19.7-44,44
	S135.7,88,160,88z M314.8,257.1l-120-152c-4.7-6-11.8-9.1-18.8-9.1v0h-32v0c-7.1,0-14.2,3.2-18.9,9.2L64,183.8v95.7
	c0,13.5,11,24.8,24.5,24.5c13-0.2,23.5-10.9,23.5-24v-79.8l16-20.6v140.7L73.9,469.1c-6,16.6,2.5,35,19.1,41c16.6,6,35-2.5,41-19.1
	L200,309.6V202.4l-31.4-39.8c-1.4-1.7-1.1-4.2,0.6-5.6c1.7-1.4,4.2-1.1,5.6,0.6l102.3,129.2c9.1,11.6,24.4,11.3,33.7,4
	C321.3,282.6,323,267.5,314.8,257.1z"/>
</svg>
