<?xml version="1.0" encoding="utf-8"?>
<!-- Generator: Adobe Illustrator 24.0.0, SVG Export Plug-In . SVG Version: 6.00 Build 0)  -->
<svg version="1.1" id="Layer_1" xmlns="http://www.w3.org/2000/svg" xmlns:xlink="http://www.w3.org/1999/xlink" x="0px" y="0px"
	 viewBox="0 0 512 512" style="enable-background:new 0 0 512 512;" xml:space="preserve">
<path d="M478.6,222.7c-1.8-8-6.8-15.4-12.5-18.5c-1.8-1-13-2.2-25-2.7c-20.1-0.9-22.3-1.3-28.7-5c-10.1-5.9-12.8-12.3-12.9-29.5
	c-0.1-33-13.8-63.7-40.9-91.3c-19.3-19.7-40.9-33-65.5-40.5c-5.9-1.8-19.1-2.4-63.3-2.9c-69.4-0.8-84.8,0.6-108.4,10
	C77.9,59.5,46.7,96.1,35.3,142.9c-2.1,8.8-2.6,22.9-3.1,103.9c-0.6,101.5,0.1,116.4,6.4,136.5c15.6,49.6,59.9,86.3,104.4,94.3
	c14.8,2.7,197.3,3.3,216,0.8c32.5-4.4,58-17.5,81.9-41.9c17.3-17.7,28.1-36.8,35.2-62.1C481,356.8,480.6,231.6,478.6,222.7
	L478.6,222.7z M156.5,159.1c7.8-7.9,10-8.2,58.8-8.2c43.9,0,45.4,0.1,51.8,3.4c9.3,4.7,13.4,11.3,13.4,21.9
	c0,9.5-3.8,16.2-12.3,21.6c-4.6,2.9-7.3,3.1-50.3,3.3c-26.5,0.2-47.7-0.4-50.8-1.2C150.5,195.2,144.3,171.4,156.5,159.1z
	 M348.3,358.9l-14.9,2.4l-77.5,0.9c-68.1,0.8-87.3-0.4-90.9-2c-7.1-3.1-13.8-11.7-14.9-19.4c-1.1-7.3,2.6-17.3,8.2-22.4
	c7.1-6.4,10.2-6.6,97.3-6.7c89.6-0.1,89.1-0.1,97.6,7.8C365.3,330.8,362.7,350.7,348.3,358.9L348.3,358.9z"/>
</svg>
