<?xml version="1.0" encoding="utf-8"?>
<!-- Generator: Adobe Illustrator 24.0.0, SVG Export Plug-In . SVG Version: 6.00 Build 0)  -->
<svg version="1.1" id="Layer_1" xmlns="http://www.w3.org/2000/svg" xmlns:xlink="http://www.w3.org/1999/xlink" x="0px" y="0px"
	 viewBox="0 0 512 512" style="enable-background:new 0 0 512 512;" xml:space="preserve">
<path d="M324.6,171.1L281.7,214l-0.3-86L324.6,171.1 M281.4,390.9l43.1-43.1l-42.9-42.9L281.4,390.9z M448,259.4
	C448,465,376.1,512,262.9,512S64,465,64,259.4S147.4,0,260.6,0S448,53.9,448,259.4z M289.5,259.4l79.4-88.6L243.8,36.5v176.9
	L170,139.6l-27,26.9l92.7,93l-92.7,93l26.9,26.9l73.8-73.8l2.3,170l127.4-127.5L289.5,259.4L289.5,259.4z"/>
</svg>
