<?xml version="1.0" encoding="utf-8"?>
<!-- Generator: Adobe Illustrator 25.0.0, SVG Export Plug-In . SVG Version: 6.00 Build 0)  -->
<svg version="1.1" id="Layer_1" xmlns="http://www.w3.org/2000/svg" xmlns:xlink="http://www.w3.org/1999/xlink" x="0px" y="0px"
	 viewBox="0 0 512 512" style="enable-background:new 0 0 512 512;" xml:space="preserve">
<path d="M397.5,238c15.2-18.6,24.6-41.3,27-65.2C431.9,96.5,372,32,297.4,32H98c-8.8,0-16,7.2-16,16v48c0,8.8,7.2,16,16,16h31.9v288
	H98c-8.8,0-16,7.2-16,16v48c0,8.8,7.2,16,16,16h209.3c70.8,0,134.1-51.8,141-122.4C453.1,309.1,431.9,265.5,397.5,238z M209.7,112
	h87.8c26.5,0,48,21.5,48,48s-21.5,48-48,48h-87.8V112z M297.4,400h-87.8V288h87.8c30.9,0,56,25.1,56,56S328.3,400,297.4,400z"/>
</svg>
