<?xml version="1.0" encoding="utf-8"?>
<!-- Generator: Adobe Illustrator 25.0.0, SVG Export Plug-In . SVG Version: 6.00 Build 0)  -->
<svg version="1.1" id="Layer_1" xmlns="http://www.w3.org/2000/svg" xmlns:xlink="http://www.w3.org/1999/xlink" x="0px" y="0px"
	 viewBox="0 0 512 512" style="enable-background:new 0 0 512 512;" xml:space="preserve">
<path d="M334.5,512c23.2,0,44.4-12.6,56-32.7c16.2-28.1,25.5-60.6,25.5-95.3c0-36.1-10.1-69.8-27.4-98.6l43.4-43.4l9.4,9.4
	c6.2,6.2,16.4,6.2,22.6,0l11.3-11.3c6.2-6.2,6.2-16.4,0-22.6l-52.7-52.7c-6.2-6.2-16.4-6.2-22.6,0L388.7,176
	c-6.2,6.2-6.2,16.4,0,22.6l9.4,9.4l-39.4,39.4c-11.6-11.4-24.5-21.3-38.6-29.5V63.7l16,0c8.8,0,16-7.2,16-16l0-31.7
	c0-8.9-7.2-16-16-16L112,0.3c-8.8,0-16,7.2-16,16L96,48c0,8.8,7.2,16,16,16l16,0v153.9C70.7,251.1,32,313,32,384
	c0,34.8,9.3,67.3,25.5,95.3c11.6,20.1,32.8,32.7,56,32.7H334.5z M152.1,259.4l23.9-13.9V63.9l96-0.1v181.8l23.9,13.9
	c24.8,14.4,44.1,35.7,56.6,60.6h-257C107.9,295.2,127.2,273.8,152.1,259.4z"/>
</svg>
