<?xml version="1.0" encoding="utf-8"?>
<!-- Generator: Adobe Illustrator 24.0.0, SVG Export Plug-In . SVG Version: 6.00 Build 0)  -->
<svg version="1.1" id="Layer_1" xmlns="http://www.w3.org/2000/svg" xmlns:xlink="http://www.w3.org/1999/xlink" x="0px" y="0px"
	 viewBox="0 0 512 512" style="enable-background:new 0 0 512 512;" xml:space="preserve">
<path d="M304,136c8.8,0,16-7.2,16-16s-7.2-16-16-16s-16,7.2-16,16S295.2,136,304,136z M480,358.4V25.6c0-16-9.6-25.6-25.6-25.6H128
	C73.6,0,32,41.6,32,96v320c0,54.4,41.6,96,96,96h326.4c12.8,0,25.6-9.6,25.6-25.6v-16c0-6.4-3.2-12.8-9.6-19.2
	c-3.2-16-3.2-60.8,0-73.6C476.8,374.4,480,368,480,358.4L480,358.4z M272,56c44.2,0,80,28.7,80,64c0,20.9-12.7,39.2-32,50.9V184
	c0,8.8-7.2,16-16,16h-64c-8.8,0-16-7.2-16-16v-13.1c-19.3-11.7-32-30-32-50.9C192,84.7,227.8,56,272,56z M156.8,223.3l6.3-14.7
	c1.7-4.1,6.4-5.9,10.5-4.2l98.3,42.1l98.4-42.1c4.1-1.7,8.8,0.1,10.5,4.2l6.3,14.7c1.7,4.1-0.1,8.8-4.2,10.5L312.6,264l70.3,30.1
	c4.1,1.7,5.9,6.4,4.2,10.5l-6.3,14.7c-1.7,4.1-6.4,5.9-10.5,4.2L272,281.4l-98.3,42.2c-4.1,1.7-8.8-0.1-10.5-4.2l-6.3-14.7
	c-1.7-4.1,0.1-8.8,4.2-10.5l70.4-30.1L161,233.8C156.9,232.1,155.1,227.4,156.8,223.3L156.8,223.3z M412.8,448H128
	c-19.2,0-32-12.8-32-32s16-32,32-32h284.8V448z M240,136c8.8,0,16-7.2,16-16s-7.2-16-16-16s-16,7.2-16,16S231.2,136,240,136z"/>
</svg>
