<?xml version="1.0" encoding="utf-8"?>
<!-- Generator: Adobe Illustrator 24.0.0, SVG Export Plug-In . SVG Version: 6.00 Build 0)  -->
<svg version="1.1" id="Layer_1" xmlns="http://www.w3.org/2000/svg" xmlns:xlink="http://www.w3.org/1999/xlink" x="0px" y="0px"
	 viewBox="0 0 512 512" style="enable-background:new 0 0 512 512;" xml:space="preserve">
<path d="M482,56.9c-48.7,2.8-145.5,12.8-205.3,49.4c-4.1,2.5-6.5,7-6.5,11.7v323.4c0,10.3,11.2,16.8,20.7,12
	c61.5-31,150.4-39.4,194.4-41.7c15-0.8,26.7-12.8,26.7-27.3V84.2C512,68.5,498.4,56,482,56.9z M235.3,106.3
	C175.6,69.8,78.7,59.7,30,56.9C13.6,56,0,68.5,0,84.2v300.3C0,399,11.7,411,26.7,411.8c44,2.3,133,10.8,194.5,41.7
	c9.4,4.8,20.6-1.7,20.6-12V117.9C241.8,113.2,239.4,108.9,235.3,106.3z"/>
</svg>
