<?xml version="1.0" encoding="utf-8"?>
<!-- Generator: Adobe Illustrator 24.0.0, SVG Export Plug-In . SVG Version: 6.00 Build 0)  -->
<svg version="1.1" id="Layer_1" xmlns="http://www.w3.org/2000/svg" xmlns:xlink="http://www.w3.org/1999/xlink" x="0px" y="0px"
	 viewBox="0 0 512 512" style="enable-background:new 0 0 512 512;" xml:space="preserve">
<path d="M324.3,311.9c0,42.4-39.7,41.4-43.9,41.4h-80.9v-81.7h80.9C322.9,271.7,324.3,303.6,324.3,311.9z M274.1,238.8
	c0.7,0,38.4,1,38.4-36.3c0-15.5-3.5-35.9-38.4-35.9h-74.7v72.2H274.1z M480,106.7v298.7c-0.1,41.2-33.5,74.5-74.7,74.7H106.7
	c-41.2-0.1-74.5-33.5-74.7-74.7V106.7c0.1-41.2,33.5-74.5,74.7-74.7h298.7C446.5,32.1,479.9,65.5,480,106.7z M370,317.9
	c0-21.6-6.6-58.3-49-67.4v-0.7c22.9-9.8,37.3-28.3,37.3-55.6c0-7,2-64.8-77.6-64.8h-127v261.3c128.2,0,139.9,1.7,163.6-5.7
	C331.5,380.6,370,367,370,317.9z"/>
</svg>
