<?xml version="1.0" encoding="utf-8"?>
<!-- Generator: Adobe Illustrator 24.0.0, SVG Export Plug-In . SVG Version: 6.00 Build 0)  -->
<svg version="1.1" id="Layer_1" xmlns="http://www.w3.org/2000/svg" xmlns:xlink="http://www.w3.org/1999/xlink" x="0px" y="0px"
	 viewBox="0 0 512 512" style="enable-background:new 0 0 512 512;" xml:space="preserve">
<path d="M272,224h-32c-8.8,0-16,7.2-16,16v32c0,8.8,7.2,16,16,16h32c8.8,0,16-7.2,16-16v-32C288,231.2,280.8,224,272,224z M368,224
	h-32c-8.8,0-16,7.2-16,16v32c0,8.8,7.2,16,16,16h32c8.8,0,16-7.2,16-16v-32C384,231.2,376.8,224,368,224z M464,224h-32
	c-8.8,0-16,7.2-16,16v32c0,8.8,7.2,16,16,16h32c8.8,0,16-7.2,16-16v-32C480,231.2,472.8,224,464,224z M176,224h-32
	c-8.8,0-16,7.2-16,16v32c0,8.8,7.2,16,16,16h32c8.8,0,16-7.2,16-16v-32C192,231.2,184.8,224,176,224z M272,416h-32
	c-8.8,0-16,7.2-16,16v32c0,8.8,7.2,16,16,16h32c8.8,0,16-7.2,16-16v-32C288,423.2,280.8,416,272,416z M368,416h-32
	c-8.8,0-16,7.2-16,16v32c0,8.8,7.2,16,16,16h32c8.8,0,16-7.2,16-16v-32C384,423.2,376.8,416,368,416z M464,416h-32
	c-8.8,0-16,7.2-16,16v32c0,8.8,7.2,16,16,16h32c8.8,0,16-7.2,16-16v-32C480,423.2,472.8,416,464,416z M464,320h-32
	c-8.8,0-16,7.2-16,16v32c0,8.8,7.2,16,16,16h32c8.8,0,16-7.2,16-16v-32C480,327.2,472.8,320,464,320z M464,128h-32
	c-8.8,0-16,7.2-16,16v32c0,8.8,7.2,16,16,16h32c8.8,0,16-7.2,16-16v-32C480,135.2,472.8,128,464,128z M272,320h-32
	c-8.8,0-16,7.2-16,16v32c0,8.8,7.2,16,16,16h32c8.8,0,16-7.2,16-16v-32C288,327.2,280.8,320,272,320z M272,128h-32
	c-8.8,0-16,7.2-16,16v32c0,8.8,7.2,16,16,16h32c8.8,0,16-7.2,16-16v-32C288,135.2,280.8,128,272,128z M176,416h-32
	c-8.8,0-16,7.2-16,16v32c0,8.8,7.2,16,16,16h32c8.8,0,16-7.2,16-16v-32C192,423.2,184.8,416,176,416z M272,32h-32
	c-8.8,0-16,7.2-16,16v32c0,8.8,7.2,16,16,16h32c8.8,0,16-7.2,16-16V48C288,39.2,280.8,32,272,32z M368,32h-32c-8.8,0-16,7.2-16,16
	v32c0,8.8,7.2,16,16,16h32c8.8,0,16-7.2,16-16V48C384,39.2,376.8,32,368,32z M464,32h-32c-8.8,0-16,7.2-16,16v32c0,8.8,7.2,16,16,16
	h32c8.8,0,16-7.2,16-16V48C480,39.2,472.8,32,464,32z M80,224H48c-8.8,0-16,7.2-16,16v32c0,8.8,7.2,16,16,16h32c8.8,0,16-7.2,16-16
	v-32C96,231.2,88.8,224,80,224z M80,416H48c-8.8,0-16,7.2-16,16v32c0,8.8,7.2,16,16,16h32c8.8,0,16-7.2,16-16v-32
	C96,423.2,88.8,416,80,416z M80,320H48c-8.8,0-16,7.2-16,16v32c0,8.8,7.2,16,16,16h32c8.8,0,16-7.2,16-16v-32
	C96,327.2,88.8,320,80,320z M80,128H48c-8.8,0-16,7.2-16,16v32c0,8.8,7.2,16,16,16h32c8.8,0,16-7.2,16-16v-32
	C96,135.2,88.8,128,80,128z M80,32H48c-8.8,0-16,7.2-16,16v32c0,8.8,7.2,16,16,16h32c8.8,0,16-7.2,16-16V48C96,39.2,88.8,32,80,32z
	 M176,32h-32c-8.8,0-16,7.2-16,16v32c0,8.8,7.2,16,16,16h32c8.8,0,16-7.2,16-16V48C192,39.2,184.8,32,176,32z"/>
</svg>
