<?xml version="1.0" encoding="utf-8"?>
<!-- Generator: Adobe Illustrator 24.0.0, SVG Export Plug-In . SVG Version: 6.00 Build 0)  -->
<svg version="1.1" id="Layer_1" xmlns="http://www.w3.org/2000/svg" xmlns:xlink="http://www.w3.org/1999/xlink" x="0px" y="0px"
	 viewBox="0 0 512 512" style="enable-background:new 0 0 512 512;" xml:space="preserve">
<path d="M272,416h-32c-8.8,0-16,7.2-16,16v32c0,8.8,7.2,16,16,16h32c8.8,0,16-7.2,16-16v-32C288,423.2,280.8,416,272,416z M176,416
	h-32c-8.8,0-16,7.2-16,16v32c0,8.8,7.2,16,16,16h32c8.8,0,16-7.2,16-16v-32C192,423.2,184.8,416,176,416z M368,416h-32
	c-8.8,0-16,7.2-16,16v32c0,8.8,7.2,16,16,16h32c8.8,0,16-7.2,16-16v-32C384,423.2,376.8,416,368,416z M464,224h-32
	c-8.8,0-16,7.2-16,16v32c0,8.8,7.2,16,16,16h32c8.8,0,16-7.2,16-16v-32C480,231.2,472.8,224,464,224z M464,320h-32
	c-8.8,0-16,7.2-16,16v32c0,8.8,7.2,16,16,16h32c8.8,0,16-7.2,16-16v-32C480,327.2,472.8,320,464,320z M464,416h-32
	c-8.8,0-16,7.2-16,16v32c0,8.8,7.2,16,16,16h32c8.8,0,16-7.2,16-16v-32C480,423.2,472.8,416,464,416z M464,128h-32
	c-8.8,0-16,7.2-16,16v32c0,8.8,7.2,16,16,16h32c8.8,0,16-7.2,16-16v-32C480,135.2,472.8,128,464,128z M464,32H64
	c-17.7,0-32,14.3-32,32v400c0,8.8,7.2,16,16,16h32c8.8,0,16-7.2,16-16V96h368c8.8,0,16-7.2,16-16V48C480,39.2,472.8,32,464,32z"/>
</svg>
