<?xml version="1.0" encoding="utf-8"?>
<!-- Generator: Adobe Illustrator 24.0.0, SVG Export Plug-In . SVG Version: 6.00 Build 0)  -->
<svg version="1.1" id="Layer_1" xmlns="http://www.w3.org/2000/svg" xmlns:xlink="http://www.w3.org/1999/xlink" x="0px" y="0px"
	 viewBox="0 0 512 512" style="enable-background:new 0 0 512 512;" xml:space="preserve">
<path d="M340.6,256c-13.5,0-26.2-7.2-33.1-18.7L256,152l-51.4,85.3c-7,11.6-19.7,18.8-33.2,18.8c-3.6,0-7.2-0.5-10.6-1.5L51.2,223.2
	v142.4c0,11.8,8,22,19.4,24.8l172.9,43.3c8.2,2,16.7,2,24.8,0l173.1-43.3c11.4-2.9,19.4-13.1,19.4-24.8V223.2l-109.6,31.3
	C347.7,255.5,344.2,256,340.6,256z M510.6,166.2L469.4,84c-2.5-5-7.8-7.8-13.4-7.1L256,102.4l73.4,121.7c3,5,9.1,7.4,14.8,5.8
	l158.3-45.2C510.4,182.4,514.2,173.6,510.6,166.2L510.6,166.2z M42.6,84L1.4,166.2c-3.7,7.4,0.2,16.2,8.1,18.4l158.3,45.2
	c5.7,1.6,11.8-0.8,14.8-5.8L256,102.4L55.8,76.9C50.3,76.2,45,79,42.6,84z"/>
</svg>
