<?xml version="1.0" encoding="utf-8"?>
<!-- Generator: Adobe Illustrator 24.0.0, SVG Export Plug-In . SVG Version: 6.00 Build 0)  -->
<svg version="1.1" id="Layer_1" xmlns="http://www.w3.org/2000/svg" xmlns:xlink="http://www.w3.org/1999/xlink" x="0px" y="0px"
	 viewBox="0 0 512 512" style="enable-background:new 0 0 512 512;" xml:space="preserve">
<path d="M497.8,284.4h-71.1v85.3l-28.4-18.9l-28.4,18.9v-85.3h-71.1c-7.8,0-14.2,6.4-14.2,14.2v170.7c0,7.8,6.4,14.2,14.2,14.2
	h199.1c7.8,0,14.2-6.4,14.2-14.2V298.7C512,290.8,505.6,284.4,497.8,284.4z M156.4,227.6h199.1c7.8,0,14.2-6.4,14.2-14.2V42.7
	c0-7.8-6.4-14.2-14.2-14.2h-71.1v85.3L256,94.8l-28.4,18.9V28.4h-71.1c-7.8,0-14.2,6.4-14.2,14.2v170.7
	C142.2,221.2,148.6,227.6,156.4,227.6z M213.3,284.4h-71.1v85.3l-28.4-18.9l-28.4,18.9v-85.3H14.2c-7.8,0-14.2,6.4-14.2,14.2v170.7
	c0,7.8,6.4,14.2,14.2,14.2h199.1c7.8,0,14.2-6.4,14.2-14.2V298.7C227.6,290.8,221.2,284.4,213.3,284.4z"/>
</svg>
