<?xml version="1.0" encoding="utf-8"?>
<!-- Generator: Adobe Illustrator 24.0.0, SVG Export Plug-In . SVG Version: 6.00 Build 0)  -->
<svg version="1.1" id="Layer_1" xmlns="http://www.w3.org/2000/svg" xmlns:xlink="http://www.w3.org/1999/xlink" x="0px" y="0px"
	 viewBox="0 0 512 512" style="enable-background:new 0 0 512 512;" xml:space="preserve">
<path d="M102.4,252.8c0,28.3-22.9,51.2-51.2,51.2S0,281.1,0,252.8s22.9-51.2,51.2-51.2S102.4,224.5,102.4,252.8z M51.2,355.2
	c-14.1,0-25.6,11.5-25.6,25.6c0,14.1,11.5,25.6,25.6,25.6s25.6-11.5,25.6-25.6C76.8,366.7,65.3,355.2,51.2,355.2z M51.2,73.6
	C22.9,73.6,0,96.5,0,124.8S22.9,176,51.2,176s51.2-22.9,51.2-51.2S79.5,73.6,51.2,73.6z M179.2,227.2c-14.1,0-25.6,11.5-25.6,25.6
	s11.5,25.6,25.6,25.6c14.1,0,25.6-11.5,25.6-25.6S193.3,227.2,179.2,227.2z M179.2,355.2c-14.1,0-25.6,11.5-25.6,25.6
	c0,14.1,11.5,25.6,25.6,25.6c14.1,0,25.6-11.5,25.6-25.6C204.8,366.7,193.3,355.2,179.2,355.2z M179.2,73.6
	c-28.3,0-51.2,22.9-51.2,51.2s22.9,51.2,51.2,51.2s51.2-22.9,51.2-51.2S207.5,73.6,179.2,73.6z M358.4,227.2
	c-14.1,0-25.6,11.5-25.6,25.6s11.5,25.6,25.6,25.6s25.6-11.5,25.6-25.6S372.5,227.2,358.4,227.2z M358.4,355.2
	c-14.1,0-25.6,11.5-25.6,25.6c0,14.1,11.5,25.6,25.6,25.6s25.6-11.5,25.6-25.6C384,366.7,372.5,355.2,358.4,355.2z M358.4,73.6
	c-28.3,0-51.2,22.9-51.2,51.2s22.9,51.2,51.2,51.2c28.3,0,51.2-22.9,51.2-51.2S386.7,73.6,358.4,73.6z M486.4,227.2
	c-14.1,0-25.6,11.5-25.6,25.6s11.5,25.6,25.6,25.6c14.1,0,25.6-11.5,25.6-25.6S500.5,227.2,486.4,227.2z M486.4,355.2
	c-14.1,0-25.6,11.5-25.6,25.6c0,14.1,11.5,25.6,25.6,25.6c14.1,0,25.6-11.5,25.6-25.6C512,366.7,500.5,355.2,486.4,355.2z
	 M486.4,99.2c-14.1,0-25.6,11.5-25.6,25.6s11.5,25.6,25.6,25.6c14.1,0,25.6-11.5,25.6-25.6S500.5,99.2,486.4,99.2z"/>
</svg>
