<?xml version="1.0" encoding="utf-8"?>
<!-- Generator: Adobe Illustrator 24.0.0, SVG Export Plug-In . SVG Version: 6.00 Build 0)  -->
<svg version="1.1" id="Layer_1" xmlns="http://www.w3.org/2000/svg" xmlns:xlink="http://www.w3.org/1999/xlink" x="0px" y="0px"
	 viewBox="0 0 512 512" style="enable-background:new 0 0 512 512;" xml:space="preserve">
<path d="M184.9,28.4c-26.6,0-48.6,18.2-54.9,42.8c-0.7,0-1.2-0.2-2-0.2c-31.4,0-56.9,25.5-56.9,56.9c0,4.3,0.5,8.4,1.5,12.4
	c-26,10.7-44.2,36.1-44.2,65.8c0,11.2,2.8,21.6,7.4,31C14.5,249.5,0,272.3,0,298.7c0,29.6,18.1,55,43.9,65.7
	c-0.8,4.1-1.2,8.3-1.2,12.5c0,35.4,28.6,64,64,64c3.6,0,7.2-0.4,10.7-1.1c8.5,25.3,32.2,43.7,60.4,43.7c35.4,0,64-28.6,64-64V85.3
	C241.8,54,216.3,28.4,184.9,28.4z M512,298.7c0-26.4-14.5-49.2-35.8-61.4c4.6-9.4,7.4-19.8,7.4-31c0-29.7-18.2-55.1-44.2-65.8
	c0.9-4,1.5-8.2,1.5-12.4c0-31.4-25.5-56.9-56.9-56.9c-0.7,0-1.3,0.2-2,0.2c-6.3-24.6-28.4-42.8-54.9-42.8
	c-31.4,0-56.9,25.4-56.9,56.9v334.2c0,35.4,28.6,64,64,64c28.3,0,51.9-18.4,60.4-43.7c3.5,0.6,7,1.1,10.7,1.1c35.4,0,64-28.6,64-64
	c0-4.3-0.4-8.4-1.2-12.5C493.9,353.7,512,328.3,512,298.7z"/>
</svg>
