<?xml version="1.0" encoding="utf-8"?>
<!-- Generator: Adobe Illustrator 24.0.0, SVG Export Plug-In . SVG Version: 6.00 Build 0)  -->
<svg version="1.1" id="Layer_1" xmlns="http://www.w3.org/2000/svg" xmlns:xlink="http://www.w3.org/1999/xlink" x="0px" y="0px"
	 viewBox="0 0 512 512" style="enable-background:new 0 0 512 512;" xml:space="preserve">
<path d="M120.8,204.8h27c8.8,0,14.9-8.7,11.9-16.9c-3.9-10.9-6-22.4-6-34.3s2.1-23.4,6-34.3c3-8.3-3.1-16.9-11.9-16.9h-27
	c-5.6,0-10.8,3.6-12.3,9c-3.9,13.6-6,27.7-6,42.2s2.1,28.6,6,42.2C110,201.2,115.1,204.8,120.8,204.8L120.8,204.8z M71.9,69.9
	c4.5-8.5-1.6-18.7-11.2-18.7H32.5c-5,0-9.7,2.9-11.8,7.4C7.5,87.6,0,119.7,0,153.6c0,19.8,2.5,54.7,21.4,95.1
	c2.1,4.5,6.7,7.3,11.7,7.3h27.9c9.6,0,15.7-10.2,11.2-18.7C32.2,162.6,58.7,94.8,71.9,69.9L71.9,69.9z M491.2,58.6
	c-2.1-4.6-6.8-7.4-11.8-7.4h-28.3c-9.6,0-15.7,10.1-11.2,18.6c14.6,27.4,38.7,95.5,0.2,167.4c-4.6,8.5,1.4,18.8,11.1,18.8h28.2
	c5,0,9.7-2.9,11.8-7.4c13.2-29,20.8-61.1,20.8-95S504.5,87.6,491.2,58.6z M391.2,102.4h-27c-8.8,0-14.9,8.7-11.9,16.9
	c3.9,10.9,6,22.4,6,34.3s-2.1,23.4-6,34.3c-3,8.3,3.1,16.9,11.9,16.9h27c5.6,0,10.8-3.6,12.3-9c3.9-13.6,6-27.7,6-42.2
	s-2.1-28.6-6-42.2C402,106,396.9,102.4,391.2,102.4z M298.2,182.5c5.6-8.2,9-18.2,9-28.9c0-28.3-22.9-51.2-51.2-51.2
	c-28.3,0-51.2,22.9-51.2,51.2c0,10.7,3.3,20.7,9,28.9L109.4,433.2c-2.7,6.5,0.4,14,6.9,16.7l23.6,9.8c6.5,2.7,14-0.4,16.7-6.9
	l39.4-94.5H316l39.4,94.5c2.7,6.5,10.2,9.6,16.7,6.9l23.6-9.8c6.5-2.7,9.6-10.2,6.9-16.7L298.2,182.5L298.2,182.5z M217.3,307.2
	l38.7-93l38.7,93H217.3z"/>
</svg>
