<?xml version="1.0" encoding="utf-8"?>
<!-- Generator: Adobe Illustrator 24.0.0, SVG Export Plug-In . SVG Version: 6.00 Build 0)  -->
<svg version="1.1" id="Layer_1" xmlns="http://www.w3.org/2000/svg" xmlns:xlink="http://www.w3.org/1999/xlink" x="0px" y="0px"
	 viewBox="0 0 512 512" style="enable-background:new 0 0 512 512;" xml:space="preserve">
<path d="M205.2,224.6l69.4,87.3c0,0-13.3,81.9-61.3,120.1C165.3,470.3,0,459.4,0,459.4s3-18.5,8.8-44.3l75.7-89.7
	c3.2-3.8-0.7-9.3-5.3-7.6l-48.3,17.7c11.6-33.3,26.2-64,43.7-78C122.5,219.2,205.2,224.6,205.2,224.6L205.2,224.6z M509.2,76
	l-15.9-20c-4.4-5.5-12.4-6.4-17.9-2l-186,142.2l-27.3-34.4c-4.1-5.1-12.1-4.2-14.9,1.8L227,207.2l69.4,87.3l47-10
	c6.4-1.4,9.1-9,5.1-14.1l-27.3-34.3L507.2,94C512.7,89.6,513.6,81.6,509.2,76L509.2,76z"/>
</svg>
