<?xml version="1.0" encoding="utf-8"?>
<!-- Generator: Adobe Illustrator 24.0.0, SVG Export Plug-In . SVG Version: 6.00 Build 0)  -->
<svg version="1.1" id="Layer_1" xmlns="http://www.w3.org/2000/svg" xmlns:xlink="http://www.w3.org/1999/xlink" x="0px" y="0px"
	 viewBox="0 0 512 512" style="enable-background:new 0 0 512 512;" xml:space="preserve">
<path d="M416,0H96C78.3,0,64,14.3,64,32v224h384V32C448,14.3,433.7,0,416,0z M64,320c0,35.4,28.7,64,64,64h64v64
	c0,35.4,28.7,64,64,64s64-28.6,64-64v-64h64c35.3,0,64-28.6,64-64v-32H64V320z M256,424c13.3,0,24,10.7,24,24c0,13.3-10.8,24-24,24
	s-24-10.8-24-24C232,434.7,242.8,424,256,424z"/>
</svg>
