<?xml version="1.0" encoding="utf-8"?>
<!-- Generator: Adobe Illustrator 24.0.0, SVG Export Plug-In . SVG Version: 6.00 Build 0)  -->
<svg version="1.1" id="Layer_1" xmlns="http://www.w3.org/2000/svg" xmlns:xlink="http://www.w3.org/1999/xlink" x="0px" y="0px"
	 viewBox="0 0 512 512" style="enable-background:new 0 0 512 512;" xml:space="preserve">
<path d="M160,148v-40c0-6.6,5.4-12,12-12h40c6.6,0,12,5.4,12,12v40c0,6.6-5.4,12-12,12h-40C165.4,160,160,154.6,160,148z M300,160
	h40c6.6,0,12-5.4,12-12v-40c0-6.6-5.4-12-12-12h-40c-6.6,0-12,5.4-12,12v40C288,154.6,293.4,160,300,160z M172,256h40
	c6.6,0,12-5.4,12-12v-40c0-6.6-5.4-12-12-12h-40c-6.6,0-12,5.4-12,12v40C160,250.6,165.4,256,172,256z M300,256h40
	c6.6,0,12-5.4,12-12v-40c0-6.6-5.4-12-12-12h-40c-6.6,0-12,5.4-12,12v40C288,250.6,293.4,256,300,256z M224,340v-40
	c0-6.6-5.4-12-12-12h-40c-6.6,0-12,5.4-12,12v40c0,6.6,5.4,12,12,12h40C218.6,352,224,346.6,224,340z M300,352h40
	c6.6,0,12-5.4,12-12v-40c0-6.6-5.4-12-12-12h-40c-6.6,0-12,5.4-12,12v40C288,346.6,293.4,352,300,352z M480,476v36H32v-36
	c0-6.6,5.4-12,12-12h19.5V24c0-13.3,10.7-24,24-24h337c13.3,0,24,10.7,24,24v440H468C474.6,464,480,469.4,480,476z M111.5,463H224
	v-67c0-6.6,5.4-12,12-12h40c6.6,0,12,5.4,12,12v67h112.5V49L112,48L111.5,463z"/>
</svg>
