<?xml version="1.0" encoding="utf-8"?>
<!-- Generator: Adobe Illustrator 24.0.0, SVG Export Plug-In . SVG Version: 6.00 Build 0)  -->
<svg version="1.1" id="Layer_1" xmlns="http://www.w3.org/2000/svg" xmlns:xlink="http://www.w3.org/1999/xlink" x="0px" y="0px"
	 viewBox="0 0 512 512" style="enable-background:new 0 0 512 512;" xml:space="preserve">
<path d="M256,8C119,8,8,119,8,256s111,248,248,248s248-111,248-248S393,8,256,8z M256,440c-101.7,0-184-82.3-184-184
	c0-101.7,82.3-184,184-184c101.7,0,184,82.3,184,184C440,357.7,357.7,440,256,440z M256,128c-70.7,0-128,57.3-128,128
	s57.3,128,128,128s128-57.3,128-128S326.7,128,256,128z M256,320c-35.3,0-64-28.7-64-64s28.7-64,64-64s64,28.7,64,64
	S291.3,320,256,320z"/>
</svg>
