<?xml version="1.0" encoding="utf-8"?>
<!-- Generator: Adobe Illustrator 24.0.0, SVG Export Plug-In . SVG Version: 6.00 Build 0)  -->
<svg version="1.1" id="Layer_1" xmlns="http://www.w3.org/2000/svg" xmlns:xlink="http://www.w3.org/1999/xlink" x="0px" y="0px"
	 viewBox="0 0 512 512" style="enable-background:new 0 0 512 512;" xml:space="preserve">
<path d="M32,32v128h128V32H32z M152,152H40V40h112V152z M192,32v128h128V32H192z M312,152H200V40h112V152z M352,32v128h128V32H352z
	 M472,152H360V40h112V152z M32,192v128h128V192H32z M152,312H40V200h112V312z M192,192v128h128V192H192z M312,312H200V200h112V312z
	 M352,192v128h128V192H352z M472,312H360V200h112V312z M32,352v128h128V352H32z M152,472H40V360h112V472z M192,352v128h128V352H192z
	 M312,472H200V360h112V472z M352,352v128h128V352H352z"/>
</svg>
