<?xml version="1.0" encoding="utf-8"?>
<!-- Generator: Adobe Illustrator 24.0.0, SVG Export Plug-In . SVG Version: 6.00 Build 0)  -->
<svg version="1.1" id="Layer_1" xmlns="http://www.w3.org/2000/svg" xmlns:xlink="http://www.w3.org/1999/xlink" x="0px" y="0px"
	 viewBox="0 0 512 512" style="enable-background:new 0 0 512 512;" xml:space="preserve">
<path d="M396.8,230.4c-63.7,0-115.2,51.5-115.2,115.2s51.5,115.2,115.2,115.2S512,409.3,512,345.6S460.5,230.4,396.8,230.4z
	 M448,350.6c0,4.3-3.5,7.8-7.8,7.8h-48.5c-4.3,0-7.8-3.5-7.8-7.8v-61.3c0-4.3,3.5-7.8,7.8-7.8h10.1c4.3,0,7.8,3.5,7.8,7.8v43.4h30.6
	c4.3,0,7.8,3.5,7.8,7.8V350.6z M396.8,204.8c4.3,0,8.6,0.3,12.8,0.6v-39c0-20.5-17.9-38.4-38.4-38.4h-64V89.6
	c0-20.5-17.9-38.4-38.4-38.4h-128c-20.5,0-38.4,17.9-38.4,38.4V128h-64C17.9,128,0,145.9,0,166.4v64h316.1
	C339,214.3,366.8,204.8,396.8,204.8z M256,128H153.6v-25.6H256V128z M261.5,307.2h-95.1c-7.1,0-12.8-5.7-12.8-12.8V256H0v115.2
	c0,20.5,17.9,38.4,38.4,38.4h233.1c-9.9-19.2-15.5-40.9-15.5-64C256,332.3,258,319.4,261.5,307.2z"/>
</svg>
