<?xml version="1.0" encoding="utf-8"?>
<!-- Generator: Adobe Illustrator 24.0.0, SVG Export Plug-In . SVG Version: 6.00 Build 0)  -->
<svg version="1.1" id="Layer_1" xmlns="http://www.w3.org/2000/svg" xmlns:xlink="http://www.w3.org/1999/xlink" x="0px" y="0px"
	 viewBox="0 0 512 512" style="enable-background:new 0 0 512 512;" xml:space="preserve">
<path d="M256,51.4C114.6,51.4,0,143,0,256s114.6,204.6,256,204.6S512,369,512,256S397.4,51.4,256,51.4z M178,377.7l-126.5,1.2
	L122,113.3h121.9c57.7,0,77.6,26.2,71.3,66.5c-0.3,2.1-0.8,4.2-1.4,6.3c-5.2-1.2-10.4-1.8-15.7-1.8c-38.7,0-70.1,31-70.1,69.1
	c0,33.9,24.8,62.1,57.5,68C268.9,355.4,234.2,377.1,178,377.7L178,377.7z M320,211.3h29.2l-20.2,82.5h-32.4l-10.2-32.6l-7.2,32.6
	h-34.6l24.3-82.5h28.6l13.7,33.6L320,211.3z M453.2,377.7h-180l14.5-55.9c3.5,0.5,7,0.8,10.5,0.8c38.7,0,70.1-30.9,70.1-69.1
	c0-29.8-19.2-55.2-46-64.9l19.5-75.2h84.5l-48.5,187.6h94.9L453.2,377.7z M186.3,268.2h-22.6l-12.6,51.6h22.6
	c14.7,0,29.3-2.9,34.7-24.3C213.4,275.1,201,268.2,186.3,268.2z M205.8,177.4h-19.5L175.6,221h19.5c16.4,0,32.3-13.4,35.8-27.5
	C235.2,176.3,222.3,177.4,205.8,177.4z"/>
</svg>
