<?xml version="1.0" encoding="utf-8"?>
<!-- Generator: Adobe Illustrator 24.0.0, SVG Export Plug-In . SVG Version: 6.00 Build 0)  -->
<svg version="1.1" id="Layer_1" xmlns="http://www.w3.org/2000/svg" xmlns:xlink="http://www.w3.org/1999/xlink" x="0px" y="0px"
	 viewBox="0 0 512 512" style="enable-background:new 0 0 512 512;" xml:space="preserve">
<path d="M432,0H80C54.4,0,32,22.4,32,48v416c0,25.6,22.4,48,48,48h352c25.6,0,48-22.4,48-48V48C480,22.4,457.6,0,432,0z M160,435.2
	c0,6.4-6.4,12.8-12.8,12.8h-38.4c-6.4,0-12.8-6.4-12.8-12.8v-38.4c0-6.4,6.4-12.8,12.8-12.8h38.4c6.4,0,12.8,6.4,12.8,12.8V435.2z
	 M160,307.2c0,6.4-6.4,12.8-12.8,12.8h-38.4c-6.4,0-12.8-6.4-12.8-12.8v-38.4c0-6.4,6.4-12.8,12.8-12.8h38.4
	c6.4,0,12.8,6.4,12.8,12.8V307.2z M288,435.2c0,6.4-6.4,12.8-12.8,12.8h-38.4c-6.4,0-12.8-6.4-12.8-12.8v-38.4
	c0-6.4,6.4-12.8,12.8-12.8h38.4c6.4,0,12.8,6.4,12.8,12.8V435.2L288,435.2z M288,307.2c0,6.4-6.4,12.8-12.8,12.8h-38.4
	c-6.4,0-12.8-6.4-12.8-12.8v-38.4c0-6.4,6.4-12.8,12.8-12.8h38.4c6.4,0,12.8,6.4,12.8,12.8V307.2L288,307.2z M416,435.2
	c0,6.4-6.4,12.8-12.8,12.8h-38.4c-6.4,0-12.8-6.4-12.8-12.8V268.8c0-6.4,6.4-12.8,12.8-12.8h38.4c6.4,0,12.8,6.4,12.8,12.8V435.2
	L416,435.2z M416,179.2c0,6.4-6.4,12.8-12.8,12.8H108.8c-6.4,0-12.8-6.4-12.8-12.8V76.8c0-6.4,6.4-12.8,12.8-12.8h294.4
	c6.4,0,12.8,6.4,12.8,12.8V179.2z"/>
</svg>
