<?xml version="1.0" encoding="utf-8"?>
<!-- Generator: Adobe Illustrator 24.0.0, SVG Export Plug-In . SVG Version: 6.00 Build 0)  -->
<svg version="1.1" id="Layer_1" xmlns="http://www.w3.org/2000/svg" xmlns:xlink="http://www.w3.org/1999/xlink" x="0px" y="0px"
	 viewBox="0 0 512 512" style="enable-background:new 0 0 512 512;" xml:space="preserve">
<path d="M468,160H44c-6.6,0-12-5.4-12-12v-36c0-26.5,21.5-48,48-48h48V12c0-6.6,5.4-12,12-12h40c6.6,0,12,5.4,12,12v52h128V12
	c0-6.6,5.4-12,12-12h40c6.6,0,12,5.4,12,12v52h48c26.5,0,48,21.5,48,48v36C480,154.6,474.6,160,468,160z M44,192h424
	c6.6,0,12,5.4,12,12v260c0,26.5-21.5,48-48,48H80c-26.5,0-48-21.5-48-48V204C32,197.4,37.4,192,44,192z M301.3,352l48.1-48.1
	c4.7-4.7,4.7-12.3,0-17l-28.3-28.3c-4.7-4.7-12.3-4.7-17,0L256,306.7l-48.1-48.1c-4.7-4.7-12.3-4.7-17,0l-28.3,28.3
	c-4.7,4.7-4.7,12.3,0,17l48.1,48.1l-48.1,48.1c-4.7,4.7-4.7,12.3,0,17l28.3,28.3c4.7,4.7,12.3,4.7,17,0l48.1-48.1l48.1,48.1
	c4.7,4.7,12.3,4.7,17,0l28.3-28.3c4.7-4.7,4.7-12.3,0-17L301.3,352z"/>
</svg>
