<?xml version="1.0" encoding="utf-8"?>
<!-- Generator: Adobe Illustrator 24.0.0, SVG Export Plug-In . SVG Version: 6.00 Build 0)  -->
<svg version="1.1" id="Layer_1" xmlns="http://www.w3.org/2000/svg" xmlns:xlink="http://www.w3.org/1999/xlink" x="0px" y="0px"
	 viewBox="0 0 512 512" style="enable-background:new 0 0 512 512;" xml:space="preserve">
<path d="M32,464c0,26.5,21.5,48,48,48h352c26.5,0,48-21.5,48-48V192H32V464z M352,268c0-6.6,5.4-12,12-12h40c6.6,0,12,5.4,12,12v40
	c0,6.6-5.4,12-12,12h-40c-6.6,0-12-5.4-12-12V268z M352,396c0-6.6,5.4-12,12-12h40c6.6,0,12,5.4,12,12v40c0,6.6-5.4,12-12,12h-40
	c-6.6,0-12-5.4-12-12V396z M224,268c0-6.6,5.4-12,12-12h40c6.6,0,12,5.4,12,12v40c0,6.6-5.4,12-12,12h-40c-6.6,0-12-5.4-12-12V268z
	 M224,396c0-6.6,5.4-12,12-12h40c6.6,0,12,5.4,12,12v40c0,6.6-5.4,12-12,12h-40c-6.6,0-12-5.4-12-12V396z M96,268
	c0-6.6,5.4-12,12-12h40c6.6,0,12,5.4,12,12v40c0,6.6-5.4,12-12,12h-40c-6.6,0-12-5.4-12-12V268z M96,396c0-6.6,5.4-12,12-12h40
	c6.6,0,12,5.4,12,12v40c0,6.6-5.4,12-12,12h-40c-6.6,0-12-5.4-12-12V396z M432,64h-48V16c0-8.8-7.2-16-16-16h-32
	c-8.8,0-16,7.2-16,16v48H192V16c0-8.8-7.2-16-16-16h-32c-8.8,0-16,7.2-16,16v48H80c-26.5,0-48,21.5-48,48v48h448v-48
	C480,85.5,458.5,64,432,64z"/>
</svg>
