<?xml version="1.0" encoding="utf-8"?>
<!-- Generator: Adobe Illustrator 24.0.0, SVG Export Plug-In . SVG Version: 6.00 Build 0)  -->
<svg version="1.1" id="Layer_1" xmlns="http://www.w3.org/2000/svg" xmlns:xlink="http://www.w3.org/1999/xlink" x="0px" y="0px"
	 viewBox="0 0 512 512" style="enable-background:new 0 0 512 512;" xml:space="preserve">
<path d="M180,288h-40c-6.6,0-12-5.4-12-12v-40c0-6.6,5.4-12,12-12h40c6.6,0,12,5.4,12,12v40C192,282.6,186.6,288,180,288z M288,276
	v-40c0-6.6-5.4-12-12-12h-40c-6.6,0-12,5.4-12,12v40c0,6.6,5.4,12,12,12h40C282.6,288,288,282.6,288,276z M384,276v-40
	c0-6.6-5.4-12-12-12h-40c-6.6,0-12,5.4-12,12v40c0,6.6,5.4,12,12,12h40C378.6,288,384,282.6,384,276z M288,372v-40
	c0-6.6-5.4-12-12-12h-40c-6.6,0-12,5.4-12,12v40c0,6.6,5.4,12,12,12h40C282.6,384,288,378.6,288,372z M192,372v-40
	c0-6.6-5.4-12-12-12h-40c-6.6,0-12,5.4-12,12v40c0,6.6,5.4,12,12,12h40C186.6,384,192,378.6,192,372z M384,372v-40
	c0-6.6-5.4-12-12-12h-40c-6.6,0-12,5.4-12,12v40c0,6.6,5.4,12,12,12h40C378.6,384,384,378.6,384,372z M480,112v352
	c0,26.5-21.5,48-48,48H80c-26.5,0-48-21.5-48-48V112c0-26.5,21.5-48,48-48h48V12c0-6.6,5.4-12,12-12h40c6.6,0,12,5.4,12,12v52h128
	V12c0-6.6,5.4-12,12-12h40c6.6,0,12,5.4,12,12v52h48C458.5,64,480,85.5,480,112z M432,458V160H80v298c0,3.3,2.7,6,6,6h340
	C429.3,464,432,461.3,432,458z"/>
</svg>
