<?xml version="1.0" encoding="utf-8"?>
<!-- Generator: Adobe Illustrator 24.0.0, SVG Export Plug-In . SVG Version: 6.00 Build 0)  -->
<svg version="1.1" id="Layer_1" xmlns="http://www.w3.org/2000/svg" xmlns:xlink="http://www.w3.org/1999/xlink" x="0px" y="0px"
	 viewBox="0 0 512 512" style="enable-background:new 0 0 512 512;" xml:space="preserve">
<path d="M32,464c0,26.5,21.5,48,48,48h352c26.5,0,48-21.5,48-48V192H32V464z M96,272c0-8.8,7.2-16,16-16h288c8.8,0,16,7.2,16,16v64
	c0,8.8-7.2,16-16,16H112c-8.8,0-16-7.2-16-16V272z M432,64h-48V16c0-8.8-7.2-16-16-16h-32c-8.8,0-16,7.2-16,16v48H192V16
	c0-8.8-7.2-16-16-16h-32c-8.8,0-16,7.2-16,16v48H80c-26.5,0-48,21.5-48,48v48h448v-48C480,85.5,458.5,64,432,64z"/>
</svg>
