<?xml version="1.0" encoding="utf-8"?>
<!-- Generator: Adobe Illustrator 24.0.0, SVG Export Plug-In . SVG Version: 6.00 Build 0)  -->
<svg version="1.1" id="Layer_1" xmlns="http://www.w3.org/2000/svg" xmlns:xlink="http://www.w3.org/1999/xlink" x="0px" y="0px"
	 viewBox="0 0 512 512" style="enable-background:new 0 0 512 512;" xml:space="preserve">
<path d="M432,64h-48V12c0-6.6-5.4-12-12-12h-40c-6.6,0-12,5.4-12,12v52H192V12c0-6.6-5.4-12-12-12h-40c-6.6,0-12,5.4-12,12v52H80
	c-26.5,0-48,21.5-48,48v352c0,26.5,21.5,48,48,48h352c26.5,0,48-21.5,48-48V112C480,85.5,458.5,64,432,64z M426,464H86
	c-3.3,0-6-2.7-6-6V160h352v298C432,461.3,429.3,464,426,464z"/>
</svg>
