<?xml version="1.0" encoding="utf-8"?>
<!-- Generator: Adobe Illustrator 24.0.0, SVG Export Plug-In . SVG Version: 6.00 Build 0)  -->
<svg version="1.1" id="Layer_1" xmlns="http://www.w3.org/2000/svg" xmlns:xlink="http://www.w3.org/1999/xlink" x="0px" y="0px"
	 viewBox="0 0 512 512" style="enable-background:new 0 0 512 512;" xml:space="preserve">
<path d="M44,192h424c6.6,0,12,5.4,12,12v260c0,26.5-21.5,48-48,48H80c-26.5,0-48-21.5-48-48V204C32,197.4,37.4,192,44,192z M480,148
	v-36c0-26.5-21.5-48-48-48h-48V12c0-6.6-5.4-12-12-12h-40c-6.6,0-12,5.4-12,12v52H192V12c0-6.6-5.4-12-12-12h-40
	c-6.6,0-12,5.4-12,12v52H80c-26.5,0-48,21.5-48,48v36c0,6.6,5.4,12,12,12h424C474.6,160,480,154.6,480,148z"/>
</svg>
