<?xml version="1.0" encoding="utf-8"?>
<!-- Generator: Adobe Illustrator 24.0.0, SVG Export Plug-In . SVG Version: 6.00 Build 0)  -->
<svg version="1.1" id="Layer_1" xmlns="http://www.w3.org/2000/svg" xmlns:xlink="http://www.w3.org/1999/xlink" x="0px" y="0px"
	 viewBox="0 0 512 512" style="enable-background:new 0 0 512 512;" xml:space="preserve">
<path d="M368,292v24c0,6.6-5.4,12-12,12h-76v76c0,6.6-5.4,12-12,12h-24c-6.6,0-12-5.4-12-12v-76h-76c-6.6,0-12-5.4-12-12v-24
	c0-6.6,5.4-12,12-12h76v-76c0-6.6,5.4-12,12-12h24c6.6,0,12,5.4,12,12v76h76C362.6,280,368,285.4,368,292z M480,112v352
	c0,26.5-21.5,48-48,48H80c-26.5,0-48-21.5-48-48V112c0-26.5,21.5-48,48-48h48V12c0-6.6,5.4-12,12-12h40c6.6,0,12,5.4,12,12v52h128
	V12c0-6.6,5.4-12,12-12h40c6.6,0,12,5.4,12,12v52h48C458.5,64,480,85.5,480,112z M432,458V160H80v298c0,3.3,2.7,6,6,6h340
	C429.3,464,432,461.3,432,458z"/>
</svg>
