<?xml version="1.0" encoding="utf-8"?>
<!-- Generator: Adobe Illustrator 24.0.0, SVG Export Plug-In . SVG Version: 6.00 Build 0)  -->
<svg version="1.1" id="Layer_1" xmlns="http://www.w3.org/2000/svg" xmlns:xlink="http://www.w3.org/1999/xlink" x="0px" y="0px"
	 viewBox="0 0 512 512" style="enable-background:new 0 0 512 512;" xml:space="preserve">
<path d="M499.2,409.6h-19.7L287.6,145.4l42.7-58.8c4.2-5.7,2.9-13.7-2.8-17.9l-20.7-15c-5.7-4.2-13.7-2.9-17.9,2.8L256,101.8
	l-32.9-45.4c-4.2-5.7-12.2-7-17.9-2.8l-20.7,15c-5.7,4.2-7,12.2-2.8,17.9l42.7,58.8L32.5,409.6H12.8c-7.1,0-12.8,5.7-12.8,12.8V448
	c0,7.1,5.7,12.8,12.8,12.8h486.4c7.1,0,12.8-5.7,12.8-12.8v-25.6C512,415.3,506.3,409.6,499.2,409.6z M256,281.6l93.1,128H162.9
	L256,281.6z"/>
</svg>
