<?xml version="1.0" encoding="utf-8"?>
<!-- Generator: Adobe Illustrator 24.0.0, SVG Export Plug-In . SVG Version: 6.00 Build 0)  -->
<svg version="1.1" id="Layer_1" xmlns="http://www.w3.org/2000/svg" xmlns:xlink="http://www.w3.org/1999/xlink" x="0px" y="0px"
	 viewBox="0 0 512 512" style="enable-background:new 0 0 512 512;" xml:space="preserve">
<path d="M493.6,295.2L377.1,128.7c-19.8-28.3-51.4-43.4-83.4-43.4c-20.1,0-40.4,6-58.2,18.4c-17.5,12.3-30,29.2-36.9,47.8
	c-2.6-52.7-45.7-94.7-99-94.7c-55,0-99.6,44.5-99.6,99.6v199.1c0,55,44.5,99.6,99.6,99.6s99.6-44.5,99.6-99.6V223
	c2.9,7.6,6.5,15.2,11.4,22.2l116.6,166.5c19.7,28.3,51.3,43.4,83.4,43.4c20.2,0,40.4-6,58.2-18.4
	C514.7,404.5,525.8,341.2,493.6,295.2L493.6,295.2z M142.2,256H56.9v-99.6c0-23.6,19.1-42.7,42.7-42.7s42.7,19.1,42.7,42.7V256z
	 M315.4,295.9l-58.3-83.3c-6.8-9.8-9.5-21.7-7.4-33.4c2-11.7,8.6-22,18.4-28.9c7.6-5.3,16.4-8.1,25.6-8.1c14.7,0,28.4,7.1,36.7,19.1
	l58.3,83.3L315.4,295.9z"/>
</svg>
