<?xml version="1.0" encoding="utf-8"?>
<!-- Generator: Adobe Illustrator 24.0.0, SVG Export Plug-In . SVG Version: 6.00 Build 0)  -->
<svg version="1.1" id="Layer_1" xmlns="http://www.w3.org/2000/svg" xmlns:xlink="http://www.w3.org/1999/xlink" x="0px" y="0px"
	 viewBox="0 0 512 512" style="enable-background:new 0 0 512 512;" xml:space="preserve">
<path d="M114.6,227.8l-9.9,37.1c-2.4,9-2.9,18.3-1.9,27.5l-28.2,23.2c-5.3,4.3-13-0.3-11.7-7l12.4-61.3c0.8-4.2-2.1-8.2-6.4-8.6
	l-62.3-6c-6.8-0.7-9-9.5-3.3-13.2l52.1-34.6c3.6-2.4,4.3-7.3,1.6-10.6l-39.8-48.3c-4.3-5.3,0.3-13,7-11.7l61.3,12.4
	c4.2,0.8,8.2-2.1,8.6-6.4l6-62.3c0.7-6.8,9.5-9,13.2-3.3l34.6,52.1c2.4,3.6,7.3,4.3,10.6,1.6L207,68.4c5.3-4.3,13,0.3,11.7,7
	l-9.1,44.9c-2.2,2.4-4.3,4.9-6.3,7.5l-25.7,34.4l-8.6,11.5C142.9,180.7,121.7,201.3,114.6,227.8z M510.3,333.9l-9.9,37.1
	c-2.5,9.3-7.5,17.3-14,23.5c-2.2,2.1-4.5,3.9-7,5.6l-11.2,41.8c-0.9,3.4-2.5,6.5-4.5,9.1c-6.1,7.9-16.6,11.7-26.8,9l-24.7-6.6
	c-13.7-3.7-21.8-17.7-18.1-31.4l6.6-24.7l-197.8-53l-6.6,24.7c-3.7,13.7-17.7,21.8-31.4,18.1l-24.7-6.6
	c-10.2-2.7-17.4-11.3-18.7-21.2c-0.5-3.3-0.3-6.7,0.6-10.1l11.2-41.8c-1.3-2.7-2.4-5.5-3.3-8.4c-2.6-8.6-2.9-18-0.4-27.4l9.9-37.1
	c4.2-15.8,15.5-27.9,29.5-33.8c4.7-2,9.7-3.3,14.8-3.8l14.5-19.4l25.7-34.4c2.8-3.7,5.8-7.1,9-10.3c6.4-6.3,13.6-11.6,21.4-15.6
	c3.9-2,7.9-3.8,12-5.2c8.3-2.9,17-4.5,25.8-4.8c8.8-0.3,17.8,0.7,26.7,3l98.1,26.3c8.9,2.4,17.2,6,24.7,10.7
	c11.2,7,20.7,16.5,27.8,27.6c7.1,11.1,11.7,23.9,13.3,37.6l5.1,42.6l2.9,24c8.3,6,14.6,14.3,18.2,23.9
	C512.4,312.6,513.1,323.3,510.3,333.9L510.3,333.9z M204.5,238.7c-14.8-4-27.4,3.2-31.3,18c-4,14.8,3.3,27.3,18.1,31.3
	c14.8,4,36.4,12.4,40.4-2.4C235.6,270.8,219.3,242.6,204.5,238.7L204.5,238.7z M436.9,261.2l-5.1-42.6c-0.5-3.9-1.5-7.6-3.1-11.1
	c-4.6-10.4-13.8-18.4-25.1-21.5l-98.1-26.3c-15.2-4.1-31.3,1.5-40.7,14.1l-25.7,34.4l137.6,36.9L436.9,261.2z M451.7,304.9
	c-14.8-4-43,12.2-47,27c-4,14.8,19,18.3,33.8,22.3s27.4-3.2,31.3-18C473.8,321.4,466.6,308.9,451.7,304.9z"/>
</svg>
