<?xml version="1.0" encoding="utf-8"?>
<!-- Generator: Adobe Illustrator 24.0.0, SVG Export Plug-In . SVG Version: 6.00 Build 0)  -->
<svg version="1.1" id="Layer_1" xmlns="http://www.w3.org/2000/svg" xmlns:xlink="http://www.w3.org/1999/xlink" x="0px" y="0px"
	 viewBox="0 0 512 512" style="enable-background:new 0 0 512 512;" xml:space="preserve">
<path d="M454.7,148.3l-11.2-28.1l-19.9-49.8C406.4,27.6,365.6,0,319.5,0h-127c-46.1,0-86.9,27.6-104,70.4l-19.9,49.8l-11.2,28.1
	C33.2,157.5,16,180.7,16,208v48c0,16.1,6.2,30.7,16,41.9V352c0,17.7,14.3,32,32,32h32c17.7,0,32-14.3,32-32v-32h256v32
	c0,17.7,14.3,32,32,32h32c17.7,0,32-14.3,32-32v-54.1c9.8-11.3,16-25.8,16-41.9v-48C496,180.7,478.8,157.5,454.7,148.3z M147.9,94.2
	C155.2,76,172.8,64,192.5,64h127c19.6,0,37.3,11.9,44.6,30.2L384,144H128L147.9,94.2z M96,255.8c-19.2,0-32-12.8-32-31.9
	S76.8,192,96,192s48,28.7,48,47.9S115.2,255.8,96,255.8L96,255.8z M416,255.8c-19.2,0-48,3.2-48-16s28.8-47.8,48-47.8
	s32,12.8,32,31.9S435.2,255.8,416,255.8z"/>
<path d="M-631-214"/>
</svg>
