<?xml version="1.0" encoding="utf-8"?>
<!-- Generator: Adobe Illustrator 24.0.0, SVG Export Plug-In . SVG Version: 6.00 Build 0)  -->
<svg version="1.1" id="Layer_1" xmlns="http://www.w3.org/2000/svg" xmlns:xlink="http://www.w3.org/1999/xlink" x="0px" y="0px"
	 viewBox="0 0 512 512" style="enable-background:new 0 0 512 512;" xml:space="preserve">
<path d="M480,128h-32V80c0-8.8-7.2-16-16-16h-96c-8.8,0-16,7.2-16,16v48H192V80c0-8.8-7.2-16-16-16H80c-8.8,0-16,7.2-16,16v48H32
	c-17.7,0-32,14.3-32,32v256c0,17.7,14.3,32,32,32h448c17.7,0,32-14.3,32-32V160C512,142.3,497.7,128,480,128z M192,264
	c0,4.4-3.6,8-8,8H72c-4.4,0-8-3.6-8-8v-16c0-4.4,3.6-8,8-8h112c4.4,0,8,3.6,8,8V264z M448,264c0,4.4-3.6,8-8,8h-40v40
	c0,4.4-3.6,8-8,8h-16c-4.4,0-8-3.6-8-8v-40h-40c-4.4,0-8-3.6-8-8v-16c0-4.4,3.6-8,8-8h40v-40c0-4.4,3.6-8,8-8h16c4.4,0,8,3.6,8,8v40
	h40c4.4,0,8,3.6,8,8V264z"/>
<path d="M-631-150"/>
</svg>
