<?xml version="1.0" encoding="utf-8"?>
<!-- Generator: Adobe Illustrator 24.0.0, SVG Export Plug-In . SVG Version: 6.00 Build 0)  -->
<svg version="1.1" id="Layer_1" xmlns="http://www.w3.org/2000/svg" xmlns:xlink="http://www.w3.org/1999/xlink" x="0px" y="0px"
	 viewBox="0 0 512 512" style="enable-background:new 0 0 512 512;" xml:space="preserve">
<path d="M332.8,214.4c-7.1,0-12.8,5.7-12.8,12.8s5.7,12.8,12.8,12.8c7.1,0,12.8-5.7,12.8-12.8C345.6,220.1,339.9,214.4,332.8,214.4z
	 M499.2,304h-38.4V176c0-70.7-57.3-128-128-128H51.2C22.9,48,0,70.9,0,99.2V304c0,28.3,22.9,51.2,51.2,51.2h25.6
	c0,42.4,34.4,76.8,76.8,76.8s76.8-34.4,76.8-76.8h268.8c7.1,0,12.8-5.7,12.8-12.8v-25.6C512,309.7,506.3,304,499.2,304z
	 M153.6,393.6c-21.2,0-38.4-17.2-38.4-38.4c0-21.2,17.2-38.4,38.4-38.4S192,334,192,355.2C192,376.4,174.8,393.6,153.6,393.6z
	 M204.8,201.6c0,14.1-11.5,25.6-25.6,25.6H76.8c-14.1,0-25.6-11.5-25.6-25.6v-51.2c0-14.1,11.5-25.6,25.6-25.6h102.4
	c14.1,0,25.6,11.5,25.6,25.6L204.8,201.6L204.8,201.6z M358.4,304H256V150.4c0-14.1,11.5-25.6,25.6-25.6h51.2
	c14.1,0,25.6,11.5,25.6,25.6L358.4,304L358.4,304z"/>
<path d="M-631-150"/>
</svg>
