<?xml version="1.0" encoding="utf-8"?>
<!-- Generator: Adobe Illustrator 24.0.0, SVG Export Plug-In . SVG Version: 6.00 Build 0)  -->
<svg version="1.1" id="Layer_1" xmlns="http://www.w3.org/2000/svg" xmlns:xlink="http://www.w3.org/1999/xlink" x="0px" y="0px"
	 viewBox="0 0 512 512" style="enable-background:new 0 0 512 512;" xml:space="preserve">
<path d="M354.9,304H157.1c-10.7,0-16.1-13-8.5-20.5l98.9-98.3c4.7-4.7,12.2-4.7,16.9,0l98.9,98.3C371,291,365.6,304,354.9,304z
	 M480,80v352c0,26.5-21.5,48-48,48H80c-26.5,0-48-21.5-48-48V80c0-26.5,21.5-48,48-48h352C458.5,32,480,53.5,480,80z M432,426V86
	c0-3.3-2.7-6-6-6H86c-3.3,0-6,2.7-6,6v340c0,3.3,2.7,6,6,6h340C429.3,432,432,429.3,432,426z"/>
</svg>
