<?xml version="1.0" encoding="utf-8"?>
<!-- Generator: Adobe Illustrator 24.0.0, SVG Export Plug-In . SVG Version: 6.00 Build 0)  -->
<svg version="1.1" id="Layer_1" xmlns="http://www.w3.org/2000/svg" xmlns:xlink="http://www.w3.org/1999/xlink" x="0px" y="0px"
	 viewBox="0 0 512 512" style="enable-background:new 0 0 512 512;" xml:space="preserve">
<path d="M304,157.1v197.8c0,10.7-13,16.1-20.5,8.5l-98.3-98.9c-4.7-4.7-4.7-12.2,0-16.9l98.3-98.9C291,141,304,146.4,304,157.1
	L304,157.1z M480,80v352c0,26.5-21.5,48-48,48H80c-26.5,0-48-21.5-48-48V80c0-26.5,21.5-48,48-48h352C458.5,32,480,53.5,480,80z
	 M432,426V86c0-3.3-2.7-6-6-6H86c-3.3,0-6,2.7-6,6v340c0,3.3,2.7,6,6,6h340C429.3,432,432,429.3,432,426z"/>
</svg>
