<?xml version="1.0" encoding="utf-8"?>
<!-- Generator: Adobe Illustrator 24.0.0, SVG Export Plug-In . SVG Version: 6.00 Build 0)  -->
<svg version="1.1" id="Layer_1" xmlns="http://www.w3.org/2000/svg" xmlns:xlink="http://www.w3.org/1999/xlink" x="0px" y="0px"
	 viewBox="0 0 512 512" style="enable-background:new 0 0 512 512;" xml:space="preserve">
<path d="M448.6,312.9H188.1l5.8,28.4h238.6c13.7,0,23.8,12.7,20.8,26.1l-4.9,21.6c16.6,8.1,28.1,25.1,28.1,44.8
	c0,27.7-22.7,50.2-50.5,49.8c-26.5-0.4-48.3-21.9-49-48.4c-0.4-14.5,5.4-27.6,14.9-36.9H205.5c9.2,9,15,21.6,15,35.6
	c0,28.3-23.6,51-52.2,49.7c-25.4-1.2-46-21.7-47.3-47c-1-19.6,9.3-36.8,24.9-45.9L83.5,85.3H21.3C9.6,85.3,0,75.8,0,64V49.8
	C0,38,9.6,28.4,21.3,28.4h91.1c10.1,0,18.9,7.1,20.9,17.1l8.1,39.8h349.1c13.7,0,23.8,12.7,20.8,26.1l-42,184.9
	C467.2,306,458.6,312.9,448.6,312.9z M362.7,177.8H320v-35.6c0-7.9-6.4-14.2-14.2-14.2h-14.2c-7.9,0-14.2,6.4-14.2,14.2v35.6h-42.7
	c-7.9,0-14.2,6.4-14.2,14.2v14.2c0,7.9,6.4,14.2,14.2,14.2h42.7V256c0,7.9,6.4,14.2,14.2,14.2h14.2c7.9,0,14.2-6.4,14.2-14.2v-35.6
	h42.7c7.9,0,14.2-6.4,14.2-14.2V192C376.9,184.1,370.5,177.8,362.7,177.8z"/>
</svg>
