<?xml version="1.0" encoding="utf-8"?>
<!-- Generator: Adobe Illustrator 24.0.0, SVG Export Plug-In . SVG Version: 6.00 Build 0)  -->
<svg version="1.1" id="Layer_1" xmlns="http://www.w3.org/2000/svg" xmlns:xlink="http://www.w3.org/1999/xlink" x="0px" y="0px"
	 viewBox="0 0 512 512" style="enable-background:new 0 0 512 512;" xml:space="preserve">
<path d="M289,177.6c0-14.6-12.5-16.3-24.3-16.3l-34.7-0.3v61.6h14.6v-22.3h16c16.3,0,12.9,9.2,13.1,22.3h14.7v-12
	c0-8.2-1.3-13.4-9.8-16.3C285.1,191.6,289,184.7,289,177.6L289,177.6z M262.8,187.7h-18.4v-13.6h18.7c4.5,0,9.5,0.9,9.5,6.6
	C272.6,186.5,267.9,187.7,262.8,187.7L262.8,187.7z M248,267.2h-46.8l-18.7,20.3l-18.2-20.3h-59.1l-0.1,61.6h58.1l18.9-20.4
	l18.1,20.4h28.6l0.1-20.7c16.8,0,43.8,4.1,43.8-20.7C272.8,272,261.9,267.2,248,267.2L248,267.2z M155.8,315.8h-36.1v-12.3H152V291
	h-32.2v-11.1h37l15.9,17.9L155.8,315.8z M214.2,323.1l-22.5-25l22.5-24.3V323.1z M247.8,295.5H229v-15.6h19.1c5,0,9.1,2,9.1,7.5
	C257.1,293,253.1,295.5,247.8,295.5z M219.7,174.1v-13h-49.3v61.6h49.3V210h-34.6v-12.3h33.6v-12.5h-33.6v-11.1L219.7,174.1z
	 M511.9,255.5h-0.2H511.9z M339,283.8c0-14.6-12.5-16.6-24.1-16.6h-35l-0.1,61.6h14.7l0.1-22.5h15.6c9.8,0,13.1,1.8,13.1,12.3
	l-0.1,10.2h14.7l0.1-12.3c0-7.9-1.6-13.4-9.8-16.3C335.2,297.4,338.9,290.6,339,283.8z M313,293.8h-18.4v-13.9h18.7
	c4.5,0,9.5,0.9,9.5,6.6C322.8,292.6,318,293.8,313,293.8z M159.5,222.7v-61.6H135l-17.5,41.8l-19.3-41.8H74.1v58.4l-25-58.4H27.4
	L1,222.7h15.9l5.7-13.6h30.7l5.7,13.6h30v-48.2l21.3,48.2h13l21.3-48.2v48.2H159.5z M27.8,196.3l10-24.5L48,196.3H27.8z M452,337.5
	v-4c-9.6,5-3.5,4-139.2,4c0-22.4,0.1-21.2,0-22.4c-1.5-0.1-2.8-0.1-8.4-0.1c0,15.9-0.1,6-0.1,22.5h-35.2c0-10.7,0.1-13.6,0.1-25.9
	c-8.9,5.3-20.3,5.7-30.5,5.5c0,13.1-0.1,7.4-0.1,20.4h-43.4c-4.5-5.1-2.4-2.8-13.7-15.5c-2.8,3.1-11.4,12.3-14.3,15.5H94.4v-82h73.8
	c4.4,5,2.5,2.8,13.8,15.3c2.8-3.1,10.8-11.9,13.9-15.3h51.5c8.7,0,16,1.7,21.6,5v-5c48.2,0,57.1-1.2,67.3,4.5v-4.5h69.5v4.6
	c10.1-6.1,17.4-4.6,57.7-4.6v4.4c9.2-5.2,14.7-4.6,48.2-4.4V99.6c0-23.5-19.1-42.6-42.6-42.6H42.6C19.1,57,0,76.1,0,99.6v97.5
	c8.4-19.5,17.5-40.9,20.5-47.9h35.3c3.8,9,1.4,3.3,8,18.7v-18.7h40.9c2.6,5.5,9.9,21.3,12.3,26.7c5.2-12.1,9-21.2,11.2-26.7h91.5
	c0-0.1,10.2,0,10.3,0c38.8,0.2,47.6-0.7,57.2,4.7v-4.7h35.4v8.3c6.8-5.4,15.9-8.3,27.3-8.3h24.5c0,0.4,1.7,0.3,2,0.3h28.8
	c3.7,8.7,2.3,5.3,7.8,18.3v-18.3h38.5c4.4,7.1-0.9-1.6,10,16.3v-16.3h35.4v81.7h-37c-4.8-8-1.2-2-11.7-19.5v19.5h-46.9
	c-5.7-13.1-0.1-0.3-5.9-13.6h-16.9c-3.7,8.9-2,4.6-5.7,13.6h-23.8c-10.9,0-19.8-2.7-26.4-7.9v7.9h-59.1c-0.3-12.3-0.1-22-0.1-22
	c-1.6-0.3-3-0.2-8.7-0.2v22.3H134.5v-10.1c-2.2,5-2.4,5.2-4.5,10.1h-26.2c-3.6-7.9-2.6-5.7-4.5-10.1v10.1h-47c-3.7-9-2-4.7-5.7-13.6
	H29.4c-3.7,8.9-2,4.6-5.7,13.6H0.1v181c0,23.5,19.1,42.6,42.6,42.6h426.5c23.5,0,42.6-19.1,42.6-42.6V332
	C500.7,339.4,482.9,337.5,452,337.5L452,337.5z M484.2,280.2H511v-13h-29.2c-11.4,0-21.1,5.9-21.1,18.4c0,29.3,37.9,11.4,37.9,24.3
	c0,4.5-3.8,5.7-7.5,5.7h-28.4l-0.1,13.1H491c7.5,0,15.6-1.6,20-7.9v-22.9c-9.3-12.3-34.9-1.2-34.9-12
	C476.1,280.8,480.1,280.2,484.2,280.2z M433.6,315.5H405l-0.1,13.1h28.6c13.1,0,23.3-5,23.3-19.5c0-29.5-38.1-10-38.1-23.4
	c0-5,4.4-5.7,8.2-5.7h27v-13h-29.5c-11.4,0-20.9,5.9-20.9,18.4c0,29.3,37.9,11.1,37.9,24.3C441.3,314.6,437.2,315.5,433.6,315.5z
	 M396.1,279.9v-12.7h-49l-0.1,61.6h49l0.1-12.7l-34.3-0.3v-12.3h33.7V291h-33.6v-11.1L396.1,279.9z M346.1,183.9
	c-0.3,0.2-1.2,2-1.2,6.8c0,5.3,0.8,6.8,1,7c0.2,0.1,1,0.4,3,0.4l6.5-15c-1,0-1.9-0.1-2.8-0.1C347.6,183,346.3,183.6,346.1,183.9z
	 M364.2,174.5L364.2,174.5L364.2,174.5z M349.8,161c-20.9,0-30.2,10.7-30.2,31.4c0,19.7,9.1,30.2,29.3,30.2H366l5.7-13.6h30.5
	l5.9,13.6h29.9v-46.1l27.7,46.1h21v-61.3h-15V204l-25.9-42.7h-22.5v58.1l-24.8-58.1h-22l-20.9,48.4H349c-11.8,0-14.3-7.2-14.3-17.7
	c0-21.1,13.9-17.8,29.4-17.5V161L349.8,161z M387.2,171.8l10,24.5h-20.3L387.2,171.8z M297.4,161.1v61.6h15v-61.6H297.4z"/>
</svg>
