<?xml version="1.0" encoding="utf-8"?>
<!-- Generator: Adobe Illustrator 24.0.0, SVG Export Plug-In . SVG Version: 6.00 Build 0)  -->
<svg version="1.1" id="Layer_1" xmlns="http://www.w3.org/2000/svg" xmlns:xlink="http://www.w3.org/1999/xlink" x="0px" y="0px"
	 viewBox="0 0 512 512" style="enable-background:new 0 0 512 512;" xml:space="preserve">
<path d="M110.8,207.8c0.1-10.5,0-20.9,0-31.4v-31.4c0-1.2,0.4-1.8,1.2-2.4c10.2-7.1,21.4-10.8,34-9.9c11.1,0.8,20.2,6.2,25,19.3
	c2.9,7.9,3.6,16.2,3.6,24.6c0,7.7-0.6,15.4-3,22.8c-5.1,15.8-16.6,22-31.7,21.2c-10.4-0.4-19.5-4.4-27.9-10.4
	C111.2,209.6,110.8,208.9,110.8,207.8L110.8,207.8z M248.5,220.8c4.1,1.6,8.3,1.8,12.5,1.3c10.3-1.1,19.5-5.1,27.8-11.1
	c0.8-0.5,1.2-1.2,1.2-2.2c-0.1-3.5,0-7,0-10.5c0-3.6-0.1-7.1,0-10.7c0-1.2-0.4-1.8-1.6-2c-6.2-0.8-12.4-2-18.6-2.6
	c-6.2-0.5-12.4-0.3-18.5,1.7c-6,2-10.4,5.5-12.2,11.6c-1.4,4.8-1.4,9.6,0.1,14.4C240.7,215.7,243.9,219,248.5,220.8z M512,99.6
	v312.9c0,23.6-19.1,42.7-42.7,42.7H42.7C19.1,455.1,0,436,0,412.4V99.6C0,76,19.1,56.9,42.7,56.9h426.7C492.9,56.9,512,76,512,99.6z
	 M327.6,120.8c0.4,1.5,0.8,3,1.4,4.5c14.7,36.1,29.2,72.3,44,108.4c1.2,3.1,1.5,5.7,0.2,8.8c-2.5,5.5-4.4,11.2-6.9,16.6
	c-2.3,4.9-6,8.4-11.3,10c-3.7,1-7.6,1.2-11.5,0.8c-1.9-0.2-3.7-0.6-5.6-0.7c-2.5-0.2-3.7,1-3.8,3.6c-0.1,2.5-0.1,5,0,7.4
	c0.1,4.1,1.4,6,5.5,6.7c4.2,0.7,8.4,1.4,12.6,1.5c12.7,0.3,22.8-4.8,29.4-15.9c2.6-4.4,5-9,6.8-13.7c17.6-44.5,35.1-89.2,52.6-133.8
	c0.5-1.3,1-2.7,1.2-4.1c0.4-2.1-0.6-3.2-2.8-3.3c-5-0.1-9.9,0-14.8,0c-2.8,0-4.7,1.2-5.7,3.8c-0.4,1-0.8,2-1.2,3l-25.9,74.4
	c-1.9,5.4-3.7,10.8-5.8,16.5c-0.4-0.8-0.5-1.2-0.7-1.7c-9.6-26.6-19.2-53.2-28.8-79.8c-1.5-4.2-3.1-8.4-4.7-12.6
	c-0.8-2.2-2.4-3.6-4.8-3.6c-5.7-0.1-11.4-0.2-17.1-0.1C328.1,117.5,327.1,118.9,327.6,120.8L327.6,120.8z M215.5,211.6
	c1.5,10.4,6.8,18.5,16,23.6c8.8,4.9,18.4,5.5,28.2,4.1c11.3-1.7,21.2-6.5,30-13.8c0.4-0.3,0.7-0.5,1.2-0.9c0.4,2.8,0.8,5.5,1.3,8.2
	c0.4,2.3,1.9,3.8,4,3.9c4.1,0.1,8.1,0.1,12.2,0c2-0.1,3.4-1.4,3.6-3.5c0.1-0.7,0.1-1.4,0.1-2v-78.9c0-3.2-0.2-6.4-0.6-9.6
	c-1.4-9.6-5.5-17.5-14.1-22.6c-5-2.9-10.5-4.4-16.2-5.2c-2.7-0.4-5.3-0.6-8.1-1h-8.9c-0.7,0.1-1.4,0.3-2.2,0.3
	c-7.3,0.4-14.5,1.2-21.5,3.1c-4.5,1.2-8.9,2.8-13.3,4.4c-2.7,0.9-4,2.8-3.9,5.8c0.1,2.5-0.1,5,0,7.4c0.1,3.6,1.6,4.6,5.1,3.6
	c5.8-1.5,11.6-3.1,17.5-4.3c9.2-1.7,18.4-2.4,27.6-1.1c4.8,0.7,9.3,2.1,12.5,6.2c2.8,3.6,3.7,7.8,3.9,12.2
	c0.3,6.1,0.2,12.4,0.3,18.5c0,0.4-0.1,0.6-0.2,1.1c-0.4,0-0.7,0-1-0.1c-7.8-1.9-15.7-3.2-23.8-3.6c-8.4-0.4-16.8,0.1-24.8,2.8
	c-9.6,3.4-17.3,9.2-21.9,18.5C214.8,196,214.4,203.7,215.5,211.6z M87.7,123.5v155.8c0,0.7,0,1.5,0.1,2.2c0.2,2.2,1.5,3.6,3.6,3.7
	c5.2,0.1,10.5,0.1,15.7,0c2.2,0,3.6-1.5,3.6-3.6c0.1-0.7,0.1-1.5,0.1-2.2v-54c0.8,0.6,1.2,1.1,1.7,1.4
	c13.3,11.1,28.6,14.8,45.4,11.5c15.2-3,25.7-12.4,32.6-26c5.2-10.3,7.4-21.4,7.7-32.9c0.4-12.7-0.9-25.2-6-37.1
	c-6.3-14.6-16.8-24.3-32.6-27.5c-2.4-0.5-4.9-0.7-7.3-1.1h-6.2c-1.1,0.2-2.1,0.3-3.2,0.4c-10.4,1.2-19.8,5.2-28.3,11.3
	c-1.8,1.2-3.5,2.7-5.2,4c-0.1-0.4-0.3-0.7-0.4-1.1c-0.4-2-0.6-4.1-1-6.1c-0.5-3.5-2.2-4.9-5.7-5h-8.6
	C88.6,117.3,87.7,118.3,87.7,123.5L87.7,123.5z M438.8,329.8c-2.4-0.6-4.5,0-6.8,0.9c-39,16.4-79.6,26.8-121.6,31.8
	c-12.9,1.5-25.9,2.5-38.8,2.8c-23.6,0.6-47.3-0.7-70.8-3.8c-15.8-2.1-31.6-5.1-47.1-8.8c-32.9-7.9-64.6-19.3-94.8-34.5
	c-7.8-3.9-15.5-8.3-23.2-12.4c-3.4-1.9-5.5-1.3-7.3,1.9v1.5c1.1,1.4,2,3,3.3,4.3c32,28.6,68.1,50.2,108.4,64.8
	c19.5,7,39.5,12.2,59.8,15.6c12.4,2,24.9,3.4,37.5,4c2.7,0.1,5.3,0.2,8,0.4c0.6,0,1.2,0.2,1.9,0.3H263c0.6-0.1,1.2-0.3,1.9-0.3
	c13.2-0.4,26.5-1.6,39.6-3.6c19-2.8,37.7-7.2,55.9-13.1c26.3-8.5,51.3-19.9,74.1-35.6c2.5-1.7,5.1-3.4,7.1-5.5
	C445.5,336.4,443.7,331.1,438.8,329.8L438.8,329.8z M483.6,305.2c-0.7-3.7-3.6-5.2-6.8-6.2c-5.1-1.7-10.3-2.5-15.6-2.9
	c-9.8-0.8-19.6-0.4-29.2,1.4c-10.7,2-20.8,5.4-29.8,11.6c-1.1,0.7-2.1,1.6-2.8,2.7c-0.5,0.8-0.6,2-0.4,3c0.3,1.2,1.5,1.4,2.7,1.3
	c0.5,0,1.1,0,1.6-0.1l17.3-1.9c8.5-0.8,17.1-1.3,25.6-0.7c3.6,0.3,7.2,1.1,10.7,2c3.8,1,5.5,3.9,5.7,7.7c0.3,6-1.1,11.6-2.6,17.3
	c-3.1,11.5-7.4,22.6-11.8,33.6c-0.3,0.7-0.6,1.5-0.7,2.2c-0.4,2.2,0.9,3.6,3,3.1c1.2-0.3,2.7-1,3.6-1.9c3.3-3.2,6.7-6.4,9.4-10
	c9.5-12.3,15.1-26.3,18.4-41.4c0.6-2.7,1.1-5.4,1.5-8.1C483.6,313.9,483.6,309.5,483.6,305.2L483.6,305.2z"/>
</svg>
