<?xml version="1.0" encoding="utf-8"?>
<!-- Generator: Adobe Illustrator 24.0.0, SVG Export Plug-In . SVG Version: 6.00 Build 0)  -->
<svg version="1.1" id="Layer_1" xmlns="http://www.w3.org/2000/svg" xmlns:xlink="http://www.w3.org/1999/xlink" x="0px" y="0px"
	 viewBox="0 0 512 512" style="enable-background:new 0 0 512 512;" xml:space="preserve">
<path d="M268.6,222.5c0,15.3-9.3,24.1-25.8,24.1h-21.6v-48.2h21.7C259.3,198.4,268.6,207.1,268.6,222.5L268.6,222.5z M310.8,278.1
	c0,7.4,6.4,12.2,16.4,12.2c12.8,0,22.4-8.1,22.4-19.5V264l-20.9,1.3C317,266.1,310.8,270.5,310.8,278.1z M512,98.6v312.9
	c0,23.6-19.1,42.7-42.7,42.7H42.7C19.1,454.1,0,435,0,411.4V98.6C0,75,19.1,55.9,42.7,55.9h426.7C492.9,55.9,512,75,512,98.6z
	 M113.6,203.6c7.5,0.6,14.9-3.7,19.6-9.2c4.6-5.7,7.6-13.3,6.8-21.1c-6.6,0.3-14.8,4.4-19.5,10C116.4,188.2,112.7,196.2,113.6,203.6
	L113.6,203.6z M167.5,269.8c-0.2-0.2-17.4-6.8-17.6-26.7c-0.2-16.6,13.6-24.6,14.2-25.1c-7.8-11.6-19.9-12.8-24.1-13.1
	c-10.8-0.6-20.1,6.1-25.2,6.1c-5.2,0-13.1-5.9-21.6-5.7C82,205.7,71.6,212,66,222c-11.6,20.1-3,49.8,8.3,66.1
	c5.5,8.1,12.2,17,20.9,16.6c8.3-0.4,11.6-5.3,21.5-5.3c10,0,12.9,5.3,21.6,5.2c9.1-0.2,14.7-8.1,20.3-16.2
	C164.7,279.3,167.3,270.4,167.5,269.8z M287.8,222.4c0-23.6-16.4-39.8-39.9-39.8h-45.5v121.2h18.8v-41.4h26
	C271.1,262.4,287.8,246,287.8,222.4z M367.8,243.4c0-17.5-14-28.8-35.6-28.8c-20,0-34.8,11.5-35.3,27.1h17
	c1.4-7.5,8.4-12.4,17.8-12.4c11.6,0,18,5.3,18,15.3v6.7l-23.5,1.4c-21.9,1.3-33.7,10.3-33.7,25.9c0,15.7,12.2,26.1,29.7,26.1
	c11.8,0,22.8-6,27.7-15.5h0.4v14.6h17.4L367.8,243.4L367.8,243.4z M458.7,215.8h-19.1l-22.1,71.6h-0.4l-22.1-71.6h-19.8l31.9,88.3
	l-1.7,5.3c-2.8,9.1-7.6,12.6-15.9,12.6c-1.5,0-4.4-0.2-5.5-0.3v14.6c1.1,0.4,5.8,0.4,7.2,0.4c18.4,0,27-7,34.6-28.3L458.7,215.8z"/>
</svg>
