<?xml version="1.0" encoding="utf-8"?>
<!-- Generator: Adobe Illustrator 24.0.0, SVG Export Plug-In . SVG Version: 6.00 Build 0)  -->
<svg version="1.1" id="Layer_1" xmlns="http://www.w3.org/2000/svg" xmlns:xlink="http://www.w3.org/1999/xlink" x="0px" y="0px"
	 viewBox="0 0 512 512" style="enable-background:new 0 0 512 512;" xml:space="preserve">
<path d="M462.6,202.8c0-7-4.9-10.8-13.9-10.8h-4.4v22.1h4.2C457.7,214.1,462.6,210.2,462.6,202.8L462.6,202.8z M469.3,56.9H42.7
	C19.1,56.9,0,76,0,99.6v312.9c0,23.6,19.1,42.7,42.7,42.7h426.7c23.6,0,42.7-19.1,42.7-42.7V99.6C512,76,492.9,56.9,469.3,56.9z
	 M430.1,180.4c20.1,0,47-3.6,47,21.7c0,11.2-5.9,18.4-16.6,20.6l22.9,30.6H466l-19.7-29.2h-2v29.2h-14.2L430.1,180.4z M380.4,180.4
	h40.3v12.4h-26v16.2h25.2v12.3h-25.2v19.7h26v12.3h-40.3V180.4z M319.4,180.4l19.5,49.1l19.7-49.1h15.6l-31.6,74.8h-7.6l-31.1-74.8
	H319.4z M269.7,177.8c22,0,39.6,17.8,39.6,39.6c0,22-17.8,39.6-39.6,39.6c-22,0-39.6-17.8-39.6-39.6
	C230,195.5,247.8,177.8,269.7,177.8z M225.9,183.2v16.9c-17.9-17.9-41.6-4.2-41.6,16.9c0,22.2,24.4,34.2,41.6,17.1v16.9
	c-26.4,12.7-56.3-5.1-56.3-34C169.6,189.2,199,169.9,225.9,183.2z M139.5,242.1c10.1,0,19.9-13.6-2.9-21.7
	c-13.3-4.9-18-10.1-18-20.2c0-20.6,27.2-27.9,44.2-12.7l-7.5,9.6c-9.2-10.3-22.1-5.5-22.1,2.2c0,3.9,2.4,6.1,10.9,9.2
	c16.2,5.9,21,11.1,21,22.8c0,26.2-34.5,33.2-50.3,10l9.2-8.8C127.2,238.8,132.7,242.1,139.5,242.1L139.5,242.1z M49.2,253.3H28.4
	v-72.9h20.8c23.2,0,39.2,15.1,39.2,36.5C88.4,233.4,76.7,253.3,49.2,253.3z M109.2,253.3H95v-72.9h14.2V253.3z M483.6,413.3
	c0,7.3-6,13.3-13.3,13.3H113.8C282.3,395,454,302.9,483.6,284.4V413.3z M65.9,198.8c-4.6-4.4-10.3-5.9-19.5-5.9h-3.7v48.2h3.7
	c9.2,0,15.1-1.8,19.5-5.7c5.1-4.6,7.9-11.4,7.9-18.4S70.9,203.2,65.9,198.8z"/>
</svg>
