<?xml version="1.0" encoding="utf-8"?>
<!-- Generator: Adobe Illustrator 24.0.0, SVG Export Plug-In . SVG Version: 6.00 Build 0)  -->
<svg version="1.1" id="Layer_1" xmlns="http://www.w3.org/2000/svg" xmlns:xlink="http://www.w3.org/1999/xlink" x="0px" y="0px"
	 viewBox="0 0 512 512" style="enable-background:new 0 0 512 512;" xml:space="preserve">
<path d="M213.1,99.5c-86.1,0-156.3,69.9-156.3,156.3c0,86.1,70.1,156.3,156.3,156.3c86.4,0,156.3-70.1,156.3-156.3
	C369.3,169.3,299.5,99.5,213.1,99.5z M177.6,348c-37.1-14.1-63.5-50.1-63.5-92.3s26.4-78.1,63.5-92.5V348z M248.5,348.3V163.2
	c37.1,14.4,63.5,50.4,63.5,92.5S285.6,333.9,248.5,348.3L248.5,348.3z M469.3,56.9H42.7C19.1,56.9,0,76,0,99.6v312.9
	c0,23.6,19.1,42.7,42.7,42.7h426.7c23.6,0,42.7-19.1,42.7-42.7V99.6C512,76,492.9,56.9,469.3,56.9z M293.1,426.7h-80.3
	c-94.4,0-172.3-76-172.3-169.1c0-101.9,77.9-172.3,172.3-172.3h80.3c93.3,0,178.4,70.4,178.4,172.3
	C471.5,350.7,386.4,426.7,293.1,426.7z"/>
</svg>
