<?xml version="1.0" encoding="utf-8"?>
<!-- Generator: Adobe Illustrator 24.0.0, SVG Export Plug-In . SVG Version: 6.00 Build 0)  -->
<svg version="1.1" id="Layer_1" xmlns="http://www.w3.org/2000/svg" xmlns:xlink="http://www.w3.org/1999/xlink" x="0px" y="0px"
	 viewBox="0 0 512 512" style="enable-background:new 0 0 512 512;" xml:space="preserve">
<path d="M383.6,245.6v-28.7c36.6,0,34.2,0.2,34.2,0.2c6.5,1.2,11.8,6.5,11.8,14.2c0,7.8-5.3,12.9-11.8,14
	C416.7,245.7,414.8,245.6,383.6,245.6z M421.6,263.6c-2.5-0.6-2.9-0.4-38-0.4v31.1c35.2,0,35.6,0.2,38-0.4c6.7-1.3,12-7.1,12-15.1
	C433.6,270.9,428.3,264.9,421.6,263.6z M512,99.6v312.9c0,23.6-19.1,42.7-42.7,42.7H42.7C19.1,455.1,0,436,0,412.4V99.6
	C0,76,19.1,56.9,42.7,56.9h426.7C492.9,56.9,512,76,512,99.6z M161.8,199.4h-50.7c0,59.6,9.5,97.5-31.8,97.5
	c-17.3,0-34.5-5.1-50.8-13.2v24.9c26.7,7.4,60.4,7.4,60.4,7.4C175.9,316,161.8,273.6,161.8,199.4z M320.4,203.4
	c-56.4-14.2-146.7-13.2-146.7,52.7c0,68.5,96.2,65.4,146.7,52.6v-25.2c-42.3,22-95.6,19.6-95.6-27.6s53.2-49.4,95.6-27.7V203.4z
	 M483.6,283.1c0-16.4-14.7-27.1-33.8-28.4V254c17.3-2.4,26.9-13.8,26.9-26.8c0-16.9-14-26.7-32.9-27.6c0,0,5.6-0.3-106.9-0.3v113.3
	H446C467.6,312.7,483.6,301.2,483.6,283.1z"/>
</svg>
