<?xml version="1.0" encoding="utf-8"?>
<!-- Generator: Adobe Illustrator 24.0.0, SVG Export Plug-In . SVG Version: 6.00 Build 0)  -->
<svg version="1.1" id="Layer_1" xmlns="http://www.w3.org/2000/svg" xmlns:xlink="http://www.w3.org/1999/xlink" x="0px" y="0px"
	 viewBox="0 0 512 512" style="enable-background:new 0 0 512 512;" xml:space="preserve">
<path d="M429.2,393.3c0,6-4.1,10.4-10,10.4c-6,0-10-4.6-10-10.4s3.9-10.4,10-10.4C425.2,382.9,429.2,387.5,429.2,393.3z M153,382.9
	c-6.3,0-10,4.6-10,10.4s3.6,10.4,10,10.4c5.8,0,9.7-4.4,9.7-10.4C162.6,387.5,158.8,382.9,153,382.9z M257.4,382.6
	c-4.8,0-7.7,3.1-8.4,7.7h17C265.2,385.3,262,382.6,257.4,382.6z M353.2,382.9c-6,0-9.7,4.6-9.7,10.4s3.6,10.4,9.7,10.4
	s10-4.4,10-10.4C363.2,387.5,359.3,382.9,353.2,382.9z M447.4,406.1c0,0.3,0.3,0.4,0.3,1c0,0.3-0.3,0.4-0.3,1
	c-0.3,0.3-0.3,0.4-0.4,0.7c-0.3,0.3-0.4,0.4-1,0.4c-0.3,0.3-0.4,0.3-1,0.3c-0.3,0-0.4,0-1-0.3c-0.3,0-0.4-0.3-0.7-0.4
	c-0.3-0.3-0.4-0.4-0.4-0.7c-0.3-0.4-0.3-0.7-0.3-1c0-0.4,0-0.7,0.3-1c0-0.4,0.3-0.7,0.4-1c0.3-0.3,0.4-0.3,0.7-0.4
	c0.4-0.3,0.7-0.3,1-0.3c0.4,0,0.7,0,1,0.3c0.4,0.3,0.7,0.3,1,0.4S447.1,405.6,447.4,406.1z M445.4,407.3c0.4,0,0.4-0.3,0.7-0.3
	c0.3-0.3,0.3-0.4,0.3-0.7c0-0.3,0-0.4-0.3-0.7c-0.3,0-0.4-0.3-1-0.3h-1.4v3.1h0.7v-1.2h0.3l1,1.2h0.7L445.4,407.3L445.4,407.3z
	 M512,100.6v312.9c0,23.6-19.1,42.7-42.7,42.7H42.7C19.1,456.1,0,437,0,413.4V100.6C0,77,19.1,57.9,42.7,57.9h426.7
	C492.9,57.9,512,77,512,100.6z M56.9,224.6c0,68,55.2,123.1,123.1,123.1c24.2,0,47.9-7.3,68-20.5c-64.8-52.7-64.4-152.2,0-204.9
	c-20.1-13.3-43.8-20.5-68-20.5C112.1,101.7,56.9,156.9,56.9,224.6z M256,321.4c62.7-48.9,62.4-144.2,0-193.3
	C193.6,177.2,193.3,272.6,256,321.4z M129.5,389.2c0-7.7-5.1-12.8-13.1-13.1c-4.1,0-8.4,1.2-11.4,5.8c-2.1-3.6-5.8-5.8-10.8-5.8
	c-3.4,0-6.8,1.2-9.4,4.8V377h-7.3v32.6h7.3c0-16.8-2.2-26.8,8-26.8c9.1,0,7.3,9.1,7.3,26.8h7c0-16.3-2.2-26.8,8-26.8
	c9.1,0,7.3,8.9,7.3,26.8h7.3v-20.4H129.5z M169.4,377h-7v3.9c-2.4-2.9-5.8-4.8-10.4-4.8c-9.2,0-16.2,7.3-16.2,17.2
	c0,10,7,17.2,16.2,17.2c4.6,0,8-1.7,10.4-4.8v4.1h7V377z M205.4,399.8c0-13.3-20.4-7.3-20.4-13.5c0-5.1,10.6-4.3,16.4-1l2.9-5.8
	c-8.4-5.4-26.8-5.3-26.8,7.3c0,12.7,20.4,7.4,20.4,13.3c0,5.6-12,5.2-18.4,0.7l-3.1,5.6C186.4,413.2,205.4,411.8,205.4,399.8
	L205.4,399.8z M236.9,408l-2-6c-3.4,1.9-10.8,3.9-10.8-3.6v-14.8h11.6V377h-11.6v-10h-7.3v10H210v6.5h6.8v14.8
	C216.8,414,232.2,411.1,236.9,408L236.9,408z M248.7,396.1h24.4c0-14.4-6.6-20.1-15.5-20.1c-9.4,0-16.2,7-16.2,17.2
	c0,18.2,20.1,21.2,30,12.6l-3.4-5.3C261.2,406.2,250.8,405.6,248.7,396.1z M301.2,377c-4.1-1.8-10.3-1.6-13.5,3.9V377h-7.3v32.6h7.3
	v-18.4c0-10.3,8.4-9,11.4-7.5L301.2,377L301.2,377z M310.7,393.3c0-10.1,10.3-13.4,18.4-7.5l3.4-5.8c-10.3-8.1-29.1-3.6-29.1,13.3
	c0,17.6,19.9,21.2,29.1,13.3l-3.4-5.8C320.9,406.7,310.7,403.2,310.7,393.3z M370,377h-7.3v3.9c-7.4-9.8-26.6-4.3-26.6,12.4
	c0,17.1,19.9,22,26.6,12.4v4.1h7.3V377z M399.9,377c-2.1-1.1-9.8-2.6-13.5,3.9V377h-7v32.6h7v-18.4c0-9.8,8-9.2,11.4-7.5L399.9,377
	L399.9,377z M435.7,363.8h-7v17.2c-7.3-9.7-26.6-4.5-26.6,12.4c0,17.2,20,21.9,26.6,12.4v4.1h7V363.8L435.7,363.8z M442.5,297v4.1
	h0.7V297h1.7v-0.7h-4.1v0.7H442.5L442.5,297z M448.4,407c0-0.4,0-1-0.3-1.4c-0.3-0.3-0.4-0.7-0.7-1c-0.3-0.3-0.7-0.4-1-0.7
	c-0.4,0-1-0.3-1.4-0.3c-0.3,0-0.7,0.3-1.2,0.3c-0.4,0.3-0.7,0.4-1,0.7c-0.4,0.3-0.7,0.7-0.7,1c-0.3,0.4-0.3,1-0.3,1.4
	c0,0.3,0,0.7,0.3,1.2c0,0.3,0.3,0.7,0.7,1c0.3,0.3,0.4,0.4,1,0.7c0.4,0.3,1,0.3,1.2,0.3c0.4,0,1,0,1.4-0.3c0.3-0.3,0.7-0.4,1-0.7
	s0.4-0.7,0.7-1C448.4,407.8,448.4,407.3,448.4,407z M451.2,296.2H450l-1.4,3.1l-1.4-3.1h-1.2v4.8h0.7v-3.6l1.4,3.1h1l1.2-3.1v3.6h1
	V296.2z M455.1,224.6c0-67.7-55.2-122.9-123.1-122.9c-24.2,0-47.9,7.3-68,20.5c64.1,52.7,65.1,152.4,0,204.9
	c20.1,13.3,44,20.5,68,20.5C399.9,347.8,455.1,292.6,455.1,224.6z"/>
</svg>
