<?xml version="1.0" encoding="utf-8"?>
<!-- Generator: Adobe Illustrator 24.0.0, SVG Export Plug-In . SVG Version: 6.00 Build 0)  -->
<svg version="1.1" id="Layer_1" xmlns="http://www.w3.org/2000/svg" xmlns:xlink="http://www.w3.org/1999/xlink" x="0px" y="0px"
	 viewBox="0 0 512 512" style="enable-background:new 0 0 512 512;" xml:space="preserve">
<path d="M165.6,258c0,10.8-8.6,19.1-19.6,19.1c-8.2,0-14.2-4.6-14.2-13.3c0-10.8,8.4-19.6,19.3-19.6
	C159.4,244.2,165.6,249.2,165.6,258z M71.6,214.8h-4.2c-1.3,0-2.7,0.9-2.8,2.4L60.7,241l7.3-0.3c9.8,0,17.3-1.3,19.1-12.6
	C89.2,216.2,81.6,214.8,71.6,214.8z M324,214.8h-4c-1.6,0-2.7,0.9-2.8,2.4l-3.7,23.7l7.1-0.3c11.6,0,19.6-2.7,19.6-16
	C340,215.3,331.6,214.8,324,214.8L324,214.8z M512,99.6v312.9c0,23.6-19.1,42.7-42.7,42.7H42.7C19.1,455.1,0,436,0,412.4V99.6
	C0,76,19.1,56.9,42.7,56.9h426.7C492.9,56.9,512,76,512,99.6z M114,219.9c0-18.7-14.4-24.9-30.8-24.9H47.6c-2.2,0-4.4,1.8-4.6,4.2
	L28.4,290c-0.3,1.8,1.1,3.6,2.8,3.6h16.9c2.4,0,4.6-2.6,4.9-5.1l4-23.6c0.9-6.4,11.7-4.2,16-4.2C98.5,260.6,114,245.5,114,219.9
	L114,219.9z M188.9,227.7H172c-3.4,0-3.6,4.9-3.7,7.3c-5.2-7.6-12.6-8.9-21.1-8.9c-21.8,0-38.4,19.1-38.4,40.2
	c0,17.3,10.8,28.6,28.2,28.6c8,0,18-4.4,23.6-10.6c-0.4,1.3-0.9,4.2-0.9,5.5c0,2,0.9,3.6,2.8,3.6h15.3c2.4,0,4.4-2.6,4.9-5.1
	l9.1-57.2C192,229.5,190.7,227.7,188.9,227.7L188.9,227.7z M224.9,314.8l56.6-82.3c0.4-0.4,0.4-0.9,0.4-1.5c0-1.5-1.3-3.1-2.8-3.1
	H262c-1.5,0-3.1,0.9-4,2.2l-23.6,34.7l-9.8-33.3c-0.7-2-2.7-3.6-4.9-3.6h-16.6c-1.5,0-2.8,1.6-2.8,3.1c0,1.1,17.3,50.5,18.8,55.2
	c-2.4,3.4-18.2,25.4-18.2,28.1c0,1.6,1.3,2.8,2.8,2.8h17.1C222.5,317,224,316.1,224.9,314.8L224.9,314.8z M366.5,219.9
	c0-18.7-14.4-24.9-30.8-24.9h-35.3c-2.4,0-4.6,1.8-4.9,4.2l-14.4,90.7c-0.2,1.8,1.2,3.6,2.8,3.6h18.2c1.8,0,3.1-1.3,3.6-2.8l4-25.8
	c0.9-6.4,11.7-4.2,16-4.2C350.9,260.6,366.5,245.5,366.5,219.9L366.5,219.9z M441.3,227.7h-16.9c-3.4,0-3.6,4.9-3.8,7.3
	c-4.9-7.6-12.4-8.9-21.1-8.9c-21.8,0-38.4,19.1-38.4,40.2c0,17.3,10.8,28.6,28.2,28.6c8.3,0,18.2-4.4,23.6-10.6
	c-0.3,1.3-0.9,4.2-0.9,5.5c0,2,0.9,3.6,2.8,3.6h15.4c2.4,0,4.4-2.6,4.9-5.1l9.1-57.2C444.4,229.5,443.1,227.7,441.3,227.7
	L441.3,227.7z M483.6,198.1c0-1.8-1.3-3.1-2.8-3.1h-16.4c-1.3,0-2.7,1.1-2.8,2.4L447,289.9l-0.3,0.4c0,1.6,1.3,3.1,3.1,3.1h14.7
	c2.2,0,4.4-2.6,4.6-5.1l14.4-90V198.1L483.6,198.1z M403.6,244.2c-10.8,0-19.3,8.6-19.3,19.6c0,8.6,6.2,13.3,14.4,13.3
	c10.7,0,19.3-8.2,19.3-19.1C418,249.2,411.8,244.2,403.6,244.2z"/>
</svg>
