<?xml version="1.0" encoding="utf-8"?>
<!-- Generator: Adobe Illustrator 24.0.0, SVG Export Plug-In . SVG Version: 6.00 Build 0)  -->
<svg version="1.1" id="Layer_1" xmlns="http://www.w3.org/2000/svg" xmlns:xlink="http://www.w3.org/1999/xlink" x="0px" y="0px"
	 viewBox="0 0 512 512" style="enable-background:new 0 0 512 512;" xml:space="preserve">
<path d="M437.7,224.7c-7.9,0-16.6,6-16.6,20.2h32.6C453.7,230.7,445.4,224.7,437.7,224.7z M333.3,227c-7.3,0-11.8,2.6-15.1,6.2
	l0.2,46.9c3.1,3.3,7.6,6,14.9,6c11.6,0,19.5-12.7,19.5-29.7C352.8,239.9,344.8,226.9,333.3,227z M469.3,56.9H42.7
	C19.1,56.9,0,76,0,99.6v312.9c0,23.6,19.1,42.7,42.7,42.7h426.7c23.6,0,42.7-19.1,42.7-42.7V99.6C512,76,492.9,56.9,469.3,56.9z
	 M108.6,278.3c0,22.8-18,35.6-44.4,35.8c-10.8,0-22.8-2.1-34.5-7.2v-30.1c10.7,5.7,24.1,10,34.6,10c7,0,12.1-1.9,12.1-7.7
	c0-15.1-48-9.4-48-44.4c0-22.4,17.1-35.7,42.7-35.7c10.5,0,20.9,1.6,31.4,5.8v29.7c-9.6-5.2-21.8-8.1-31.4-8.1
	c-6.7,0-10.8,2-10.8,6.8C60.4,247.5,108.6,240.7,108.6,278.3L108.6,278.3z M169.8,228h-24v44.9c0,18.6,20,12.8,24,11.2v25.7
	c-4.2,2.3-11.8,4.2-22.1,4.2c-18.8,0-32.8-13.8-32.8-32.4l0.2-101.2l30.8-6.6v27.4h23.9L169.8,228L169.8,228z M235.6,230.1
	c-4-1.3-16.6-3.2-24.1,6.6v75h-31.6V201.1h27.3l2,9.3c7.4-13.6,22.1-10.8,26.3-9.3h0.1V230.1z M274.8,311.7H243V201.1h31.7
	L274.8,311.7L274.8,311.7z M274.8,184.7l-31.7,6.8v-25.7l31.7-6.8V184.7z M340.6,314c-11,0-17.8-4.7-22.3-8l-0.1,35.7l-31.6,6.7
	V201.1h27.8l1.6,7.8c4.4-4,12.4-9.9,24.7-9.9c22.1,0,43,20,43,56.7C383.8,295.8,363.2,314,340.6,314L340.6,314z M483.2,268.3h-61.8
	c1.4,14.8,12.3,19.1,24.5,19.1c12.5,0,22.4-2.7,31-7v25.4c-8.6,4.7-19.9,8.2-35,8.2c-30.8,0-52.3-19.3-52.3-57.3
	c0-32.2,18.2-57.7,48.3-57.7c30,0,45.6,25.5,45.6,57.9C483.6,259.9,483.3,266.5,483.2,268.3z"/>
<path d="M-632-154"/>
</svg>
