<?xml version="1.0" encoding="utf-8"?>
<!-- Generator: Adobe Illustrator 24.0.0, SVG Export Plug-In . SVG Version: 6.00 Build 0)  -->
<svg version="1.1" id="Layer_1" xmlns="http://www.w3.org/2000/svg" xmlns:xlink="http://www.w3.org/1999/xlink" x="0px" y="0px"
	 viewBox="0 0 512 512" style="enable-background:new 0 0 512 512;" xml:space="preserve">
<path d="M417.9,234c0,0,6.8,33.1,8.3,40h-29.7c2.9-7.9,14.2-38.7,14.2-38.7c-0.2,0.3,2.9-8.1,4.7-13.2L417.9,234L417.9,234z
	 M512,99.6v312.9c0,23.6-19.1,42.7-42.7,42.7H42.7C19.1,455.1,0,436,0,412.4V99.6C0,76,19.1,56.9,42.7,56.9h426.7
	C492.9,56.9,512,76,512,99.6z M135.6,322.8l56.2-138H154L119,279.1l-3.8-19.1l-12.4-63.5c-2-8.8-8.4-11.3-16.2-11.6H29.1l-0.6,2.8
	c14,3.6,26.6,8.7,37.5,15.2l31.8,120H135.6z M219.5,323l22.4-138.1h-35.7L183.8,323H219.5L219.5,323z M343.8,277.9
	c0.2-15.7-9.4-27.7-30-37.6c-12.5-6.3-20.2-10.6-20.2-17.1c0.2-5.9,6.5-11.9,20.5-11.9c11.6-0.3,20.2,2.5,26.6,5.2l3.2,1.5l4.9-29.9
	c-7-2.8-18.2-5.9-32-5.9c-35.3,0-60.1,18.8-60.3,45.7c-0.3,19.8,17.8,30.8,31.3,37.5c13.8,6.8,18.5,11.2,18.5,17.2
	c-0.2,9.2-11.2,13.5-21.4,13.5c-14.2,0-21.9-2.2-33.5-7.4l-4.7-2.2l-5,31c8.4,3.8,23.8,7.2,39.8,7.4
	C319.1,325.1,343.6,306.5,343.8,277.9L343.8,277.9z M469.3,323l-28.8-138.1h-27.6c-8.5,0-15,2.5-18.7,11.5L341.2,323h37.5
	c0,0,6.1-17.1,7.5-20.7H432c1.1,4.9,4.3,20.7,4.3,20.7H469.3z"/>
</svg>
