<?xml version="1.0" encoding="utf-8"?>
<!-- Generator: Adobe Illustrator 24.0.0, SVG Export Plug-In . SVG Version: 6.00 Build 0)  -->
<svg version="1.1" id="Layer_1" xmlns="http://www.w3.org/2000/svg" xmlns:xlink="http://www.w3.org/1999/xlink" x="0px" y="0px"
	 viewBox="0 0 512 512" style="enable-background:new 0 0 512 512;" xml:space="preserve">
<path d="M321.6,97.5l31.6,31.7l-76.3,76.5V97.5H321.6z M159.2,129.2l76.3,76.5V97.5h-44.7L159.2,129.2z M200.7,87.6h44.7v127.9
	l10.8,10.8l10.8-10.8V87.6h44.7L256.2,32L200.7,87.6z M226.9,255.7l-10.8-10.8H87.5v-44.8L32,255.7l55.5,55.6v-44.8h128.6
	L226.9,255.7L226.9,255.7z M306.2,235h107.9v-44.8l-31.6-31.7L306.2,235z M479.5,255.7L424,200.1v44.8H296.3l-10.8,10.8l10.8,10.8
	H424v44.8L479.5,255.7L479.5,255.7z M97.4,176.2l32.5-31.7l90.3,90.5h15.3v-15.3l-90.3-90.5l31.6-31.7H97.4V176.2z M414.1,97.5
	h-78.5l31.6,31.7l-90.3,90.5V235h15.3l90.3-90.5l31.6,31.7V97.5z M235.5,413.9V305.8l-76.3,76.5l31.6,31.7h44.7V413.9z M97.4,235
	h108.8l-76.3-76.5l-32.5,31.7L97.4,235z M414.1,335.2l-31.6,31.7l-90.3-90.5h-15.3v15.3l90.3,90.5l-31.6,31.7h78.5V335.2z
	 M414.1,276.4H306.2l76.3,76.5l31.6-31.7V276.4z M353.2,382.2l-76.3-76.5v108.1h44.7L353.2,382.2z M129.9,352.9l76.3-76.5H97.4v44.8
	L129.9,352.9z M311.7,423.8H267V295.9l-10.8-10.8l-10.8,10.8v127.9h-44.7l55.5,55.6L311.7,423.8z M145.2,382.2l90.3-90.5v-15.3
	h-15.3l-90.3,90.5l-32.5-31.7v78.7h79.4L145.2,382.2z"/>
</svg>
