<?xml version="1.0" encoding="utf-8"?>
<!-- Generator: Adobe Illustrator 24.0.0, SVG Export Plug-In . SVG Version: 6.00 Build 0)  -->
<svg version="1.1" id="Layer_1" xmlns="http://www.w3.org/2000/svg" xmlns:xlink="http://www.w3.org/1999/xlink" x="0px" y="0px"
	 viewBox="0 0 512 512" style="enable-background:new 0 0 512 512;" xml:space="preserve">
<path d="M144,128c0-29.5,16.2-55,40-68.9V256h48V48h48v208h48V59.1c23.8,13.9,40,39.4,40,68.9v128h48V128C416,57.3,358.7,0,288,0
	h-64C153.3,0,96,57.3,96,128v128h48V128z M478.3,341.9l-10.7-32c-4.4-13.1-16.6-21.9-30.4-21.9H74.7c-13.8,0-26,8.8-30.4,21.9
	l-10.7,32C26.8,362.6,42.2,384,64,384v112c0,8.8,7.2,16,16,16h32c8.8,0,16-7.2,16-16V384h256v112c0,8.8,7.2,16,16,16h32
	c8.8,0,16-7.2,16-16V384C469.8,384,485.2,362.6,478.3,341.9z"/>
</svg>
