<?xml version="1.0" encoding="utf-8"?>
<!-- Generator: Adobe Illustrator 24.0.0, SVG Export Plug-In . SVG Version: 6.00 Build 0)  -->
<svg version="1.1" id="Layer_1" xmlns="http://www.w3.org/2000/svg" xmlns:xlink="http://www.w3.org/1999/xlink" x="0px" y="0px"
	 viewBox="0 0 512 512" style="enable-background:new 0 0 512 512;" xml:space="preserve">
<path d="M166.4,332.8c-1.9,0-3.8,0.3-5.6,0.9c-10.4,3.4-21.3,5.5-32.8,5.5c-11.5,0-22.4-2.2-32.8-5.5c-1.8-0.6-3.7-0.9-5.6-0.9
	C40,332.8-0.3,373.2,0,422.9c0.1,21,17.4,37.9,38.4,37.9h179.2c21,0,38.3-16.9,38.4-37.9C256.3,373.2,216,332.8,166.4,332.8z
	 M128,307.2c42.4,0,76.8-34.4,76.8-76.8s-34.4-76.8-76.8-76.8S51.2,188,51.2,230.4S85.6,307.2,128,307.2z M473.6,51.2H166.4
	C145.2,51.2,128,69,128,90.9V128c18.7,0,36.1,5.4,51.2,14.2v-39.8h281.6v230.4h-51.2v-51.2H307.2v51.2h-61
	c15.3,13.4,26.5,31,31.8,51.2h195.6c21.2,0,38.4-17.8,38.4-39.7V90.9C512,69,494.8,51.2,473.6,51.2z"/>
</svg>
