<?xml version="1.0" encoding="utf-8"?>
<!-- Generator: Adobe Illustrator 24.0.0, SVG Export Plug-In . SVG Version: 6.00 Build 0)  -->
<svg version="1.1" id="Layer_1" xmlns="http://www.w3.org/2000/svg" xmlns:xlink="http://www.w3.org/1999/xlink" x="0px" y="0px"
	 viewBox="0 0 512 512" style="enable-background:new 0 0 512 512;" xml:space="preserve">
<path d="M496.8,286.1H273.4l148.7,148.7c5.6,5.6,15.1,6.1,20.9,0.7c36.4-34.4,61.5-80.6,68.8-132.6
	C513.1,294,505.7,286.1,496.8,286.1L496.8,286.1z M481.9,225.1c-7.8-112.5-97.6-202.3-210.1-210.1c-8.6-0.6-15.8,6.7-15.8,15.2
	v210.6h210.6C475.2,240.9,482.4,233.7,481.9,225.1L481.9,225.1z M210.8,286.1V62.8c0-8.9-7.9-16.4-16.8-15.2
	C81.9,63.5-3.9,161.5,0.1,279c4.1,120.6,108,219.5,228.6,218c47.4-0.6,91.3-15.9,127.3-41.4c7.4-5.3,7.9-16.2,1.5-22.7L210.8,286.1z
	"/>
</svg>
