<?xml version="1.0" encoding="utf-8"?>
<!-- Generator: Adobe Illustrator 24.0.0, SVG Export Plug-In . SVG Version: 6.00 Build 0)  -->
<svg version="1.1" id="Layer_1" xmlns="http://www.w3.org/2000/svg" xmlns:xlink="http://www.w3.org/1999/xlink" x="0px" y="0px"
	 viewBox="0 0 512 512" style="enable-background:new 0 0 512 512;" xml:space="preserve">
<path d="M298.7,426.7H14.2C6.4,426.7,0,433,0,440.9v28.4c0,7.9,6.4,14.2,14.2,14.2h284.4c7.9,0,14.2-6.4,14.2-14.2v-28.4
	C312.9,433,306.5,426.7,298.7,426.7z M483.6,142.2V99.6c0-7.9-6.4-14.2-14.2-14.2c-7.9,0-14.2,6.4-14.2,14.2v42.7h-28.4V99.6
	c0-7.9-6.4-14.2-14.2-14.2c-7.9,0-14.2,6.4-14.2,14.2v42.7H384c-7.9,0-14.2,6.4-14.2,14.2v28.4c0,31.8,21,58.4,49.8,67.5v105.3
	c0,12.4-8.4,23.9-20.7,25.9c-15.6,2.6-29.1-9.4-29.1-24.5v-24.9c0-43.2-35-78.2-78.2-78.2h-7.1V85.3c0-31.4-25.5-56.9-56.9-56.9
	H85.3c-31.4,0-56.9,25.5-56.9,56.9v312.9h256v-99.6h7.1c19.6,0,35.6,15.9,35.6,35.6v21.9c0,35.3,25.7,66.8,60.8,70.2
	c40.3,3.9,74.3-27.7,74.3-67.2V252.4c28.8-9.1,49.8-35.7,49.8-67.5v-28.4c0-7.9-6.4-14.2-14.2-14.2H483.6z M231.2,184.7l-83.3,123.6
	c-2,3-5.5,4.7-9.2,4.7c-6.8,0-12-5.6-10.4-11.5l20.5-73.8H96c-6.4,0-11.4-5-10.6-10.6l14.2-95.1c0.7-4.6,5.2-8.1,10.6-8.1h60.4
	c7,0,12.1,5.8,10.3,11.7l-10.3,45.1H222C230.2,170.7,235.3,178.5,231.2,184.7z"/>
</svg>
