<?xml version="1.0" encoding="utf-8"?>
<!-- Generator: Adobe Illustrator 24.0.0, SVG Export Plug-In . SVG Version: 6.00 Build 0)  -->
<svg version="1.1" id="Layer_1" xmlns="http://www.w3.org/2000/svg" xmlns:xlink="http://www.w3.org/1999/xlink" x="0px" y="0px"
	 viewBox="0 0 512 512" style="enable-background:new 0 0 512 512;" xml:space="preserve">
<path d="M432,480H80c-26.5,0-48-21.5-48-48V80c0-26.5,21.5-48,48-48h352c26.5,0,48,21.5,48,48v352C480,458.5,458.5,480,432,480z
	 M227.3,381.9l184-184c6.2-6.2,6.2-16.4,0-22.6l-22.6-22.6c-6.2-6.2-16.4-6.2-22.6,0L216,302.7l-70.1-70.1c-6.2-6.2-16.4-6.2-22.6,0
	l-22.6,22.6c-6.2,6.2-6.2,16.4,0,22.6l104,104C210.9,388.2,221.1,388.2,227.3,381.9L227.3,381.9z"/>
</svg>
