<?xml version="1.0" encoding="utf-8"?>
<!-- Generator: Adobe Illustrator 24.0.0, SVG Export Plug-In . SVG Version: 6.00 Build 0)  -->
<svg version="1.1" id="Layer_1" xmlns="http://www.w3.org/2000/svg" xmlns:xlink="http://www.w3.org/1999/xlink" x="0px" y="0px"
	 viewBox="0 0 512 512" style="enable-background:new 0 0 512 512;" xml:space="preserve">
<path d="M83,272.5l40.6,18.1c7.9,3.5,16.9,3.7,24.9,0.5l12.8-5.1c9-3.6,16-11.2,18.8-20.5l9.2-30.6c1.7-6.8,6.3-12.5,12.6-15.6
	l22.1-11.1v50.3c0,18.2-10.3,34.8-26.5,42.9l-57.2,28.6C113.1,343.5,96,371.2,96,401.5V416h319.9V224c0-106-85.9-192-191.9-192H76
	c-6.6,0-12,5.4-12,12c0,2.6,0.6,5.2,1.8,7.6L80,80l-9,9c-4.5,4.5-7,10.6-7,17v137.2C64,255.9,71.4,267.3,83,272.5z M116,128
	c11,0,20,9,20,20s-9,20-20,20s-20-9-20-20S105,128,116,128z M432,448H80c-8.8,0-16,7.2-16,16v32c0,8.8,7.2,16,16,16h352
	c8.8,0,16-7.2,16-16v-32C448,455.2,440.8,448,432,448z"/>
</svg>
