<?xml version="1.0" encoding="utf-8"?>
<!-- Generator: Adobe Illustrator 24.0.0, SVG Export Plug-In . SVG Version: 6.00 Build 0)  -->
<svg version="1.1" id="Layer_1" xmlns="http://www.w3.org/2000/svg" xmlns:xlink="http://www.w3.org/1999/xlink" x="0px" y="0px"
	 viewBox="0 0 512 512" style="enable-background:new 0 0 512 512;" xml:space="preserve">
<path d="M104,287.9c0,51.6,22.1,73.8,56,84.6V416h192v-43.5c33.9-10.8,56-33,56-84.6c0-30.6-10.7-67.1-26.7-102.6L281,285.6
	c-3.1,3.1-8.2,3.1-11.3,0l-11.3-11.3c-3.1-3.1-3.1-8.2,0-11.3l107.9-107.9c-20.8-37.9-46.5-72.1-70.9-92.6C309.4,59.1,320,47,320,32
	c0-17.7-14.3-32-32-32h-64c-17.7,0-32,14.3-32,32c0,15,10.6,27.1,24.6,30.5C163.8,106.8,104,214.5,104,287.9z M400,448H112
	c-8.8,0-16,7.2-16,16v32c0,8.8,7.2,16,16,16h288c8.8,0,16-7.2,16-16v-32C416,455.2,408.8,448,400,448z"/>
</svg>
