<?xml version="1.0" encoding="utf-8"?>
<!-- Generator: Adobe Illustrator 24.0.0, SVG Export Plug-In . SVG Version: 6.00 Build 0)  -->
<svg version="1.1" id="Layer_1" xmlns="http://www.w3.org/2000/svg" xmlns:xlink="http://www.w3.org/1999/xlink" x="0px" y="0px"
	 viewBox="0 0 512 512" style="enable-background:new 0 0 512 512;" xml:space="preserve">
<path d="M139.5,217.5L63.1,100.1c47.6-59.2,119-91.8,192-92.1c42.3-0.3,85.5,10.5,124.8,33.2c43.4,25.2,76.4,61.4,97.4,103
	L272,133.4C213.9,130,158.6,162.7,139.5,217.5z M172.4,256c0,46.2,37.4,83.6,83.6,83.6s83.6-37.4,83.6-83.6s-37.4-83.6-83.6-83.6
	S172.4,209.7,172.4,256z M487.3,166.8L347.6,174c37.9,44.3,38.5,108.2,6.6,157.2L242.1,503.6c46.5,2.5,94.4-7.7,137.8-32.9
	C487.3,408.7,530.8,278.7,487.3,166.8L487.3,166.8z M141.7,303.6L48.4,120.1C22.9,159.1,8,205.9,8,256c0,124,90.8,226.7,209.5,244.9
	l63.7-124.8C223.6,386.9,168,355.3,141.7,303.6L141.7,303.6z"/>
</svg>
