<?xml version="1.0" encoding="utf-8"?>
<!-- Generator: Adobe Illustrator 24.0.0, SVG Export Plug-In . SVG Version: 6.00 Build 0)  -->
<svg version="1.1" id="Layer_1" xmlns="http://www.w3.org/2000/svg" xmlns:xlink="http://www.w3.org/1999/xlink" x="0px" y="0px"
	 viewBox="0 0 512 512" style="enable-background:new 0 0 512 512;" xml:space="preserve">
<path d="M371.6,248.5l-90-54v-41H320c7.1,0,12.8-5.7,12.8-12.8v-25.6c0-7.1-5.7-12.8-12.8-12.8h-38.4V64c0-7.1-5.7-12.8-12.8-12.8
	h-25.6c-7.1,0-12.8,5.7-12.8,12.8v38.4H192c-7.1,0-12.8,5.7-12.8,12.8v25.6c0,7.1,5.7,12.8,12.8,12.8h38.4v41l-90,54
	c-7.7,4.6-12.4,13-12.4,22v190.3h76.8V384c0-28.3,22.9-51.2,51.2-51.2s51.2,22.9,51.2,51.2v76.8H384V270.5
	C384,261.5,379.3,253.2,371.6,248.5z M0,368v80c0,7.1,5.7,12.8,12.8,12.8h89.6V307.2l-86.9,37.2C6.1,348.5,0,357.7,0,368z
	 M496.5,344.4l-86.9-37.2v153.6h89.6c7.1,0,12.8-5.7,12.8-12.8v-80C512,357.7,505.9,348.5,496.5,344.4z"/>
</svg>
