<?xml version="1.0" encoding="utf-8"?>
<!-- Generator: Adobe Illustrator 24.0.0, SVG Export Plug-In . SVG Version: 6.00 Build 0)  -->
<svg version="1.1" id="Layer_1" xmlns="http://www.w3.org/2000/svg" xmlns:xlink="http://www.w3.org/1999/xlink" x="0px" y="0px"
	 viewBox="0 0 512 512" style="enable-background:new 0 0 512 512;" xml:space="preserve">
<path d="M492.8,204.8H384V70.4c0-10.6-8.6-19.2-19.2-19.2H249.6c-10.6,0-19.2,8.6-19.2,19.2V128h-51.2V64c0-7.1-5.7-12.8-12.8-12.8
	h-12.8c-7.1,0-12.8,5.7-12.8,12.8v64H89.6V64c0-7.1-5.7-12.8-12.8-12.8H64c-7.1,0-12.8,5.7-12.8,12.8v64h-32
	C8.6,128,0,136.6,0,147.2v288c0,14.1,11.5,25.6,25.6,25.6h460.8c14.1,0,25.6-11.5,25.6-25.6V224C512,213.4,503.4,204.8,492.8,204.8z
	 M102.4,374.4c0,5.3-4.3,9.6-9.6,9.6h-32c-5.3,0-9.6-4.3-9.6-9.6v-32c0-5.3,4.3-9.6,9.6-9.6h32c5.3,0,9.6,4.3,9.6,9.6V374.4z
	 M102.4,297.6c0,5.3-4.3,9.6-9.6,9.6h-32c-5.3,0-9.6-4.3-9.6-9.6v-32c0-5.3,4.3-9.6,9.6-9.6h32c5.3,0,9.6,4.3,9.6,9.6V297.6z
	 M102.4,220.8c0,5.3-4.3,9.6-9.6,9.6h-32c-5.3,0-9.6-4.3-9.6-9.6v-32c0-5.3,4.3-9.6,9.6-9.6h32c5.3,0,9.6,4.3,9.6,9.6V220.8z
	 M204.8,374.4c0,5.3-4.3,9.6-9.6,9.6h-32c-5.3,0-9.6-4.3-9.6-9.6v-32c0-5.3,4.3-9.6,9.6-9.6h32c5.3,0,9.6,4.3,9.6,9.6V374.4z
	 M204.8,297.6c0,5.3-4.3,9.6-9.6,9.6h-32c-5.3,0-9.6-4.3-9.6-9.6v-32c0-5.3,4.3-9.6,9.6-9.6h32c5.3,0,9.6,4.3,9.6,9.6V297.6z
	 M204.8,220.8c0,5.3-4.3,9.6-9.6,9.6h-32c-5.3,0-9.6-4.3-9.6-9.6v-32c0-5.3,4.3-9.6,9.6-9.6h32c5.3,0,9.6,4.3,9.6,9.6V220.8z
	 M332.8,297.6c0,5.3-4.3,9.6-9.6,9.6h-32c-5.3,0-9.6-4.3-9.6-9.6v-32c0-5.3,4.3-9.6,9.6-9.6h32c5.3,0,9.6,4.3,9.6,9.6V297.6z
	 M332.8,220.8c0,5.3-4.3,9.6-9.6,9.6h-32c-5.3,0-9.6-4.3-9.6-9.6v-32c0-5.3,4.3-9.6,9.6-9.6h32c5.3,0,9.6,4.3,9.6,9.6V220.8z
	 M332.8,144c0,5.3-4.3,9.6-9.6,9.6h-32c-5.3,0-9.6-4.3-9.6-9.6v-32c0-5.3,4.3-9.6,9.6-9.6h32c5.3,0,9.6,4.3,9.6,9.6V144z
	 M460.8,374.4c0,5.3-4.3,9.6-9.6,9.6h-32c-5.3,0-9.6-4.3-9.6-9.6v-32c0-5.3,4.3-9.6,9.6-9.6h32c5.3,0,9.6,4.3,9.6,9.6V374.4z
	 M460.8,297.6c0,5.3-4.3,9.6-9.6,9.6h-32c-5.3,0-9.6-4.3-9.6-9.6v-32c0-5.3,4.3-9.6,9.6-9.6h32c5.3,0,9.6,4.3,9.6,9.6V297.6z"/>
</svg>
