<?xml version="1.0" encoding="utf-8"?>
<!-- Generator: Adobe Illustrator 24.0.0, SVG Export Plug-In . SVG Version: 6.00 Build 0)  -->
<svg version="1.1" id="Layer_1" xmlns="http://www.w3.org/2000/svg" xmlns:xlink="http://www.w3.org/1999/xlink" x="0px" y="0px"
	 viewBox="0 0 512 512" style="enable-background:new 0 0 512 512;" xml:space="preserve">
<path d="M256,130.7L61.8,302c-1.4,1.3-3.3,1.9-4.9,3v164.4c0,7.9,6.4,14.2,14.2,14.2h369.8c7.9,0,14.2-6.4,14.2-14.2V305
	c-1.5-1-3.3-1.6-4.7-2.8L256,130.7z M341.3,362.7c0,3.9-3.2,7.1-7.1,7.1h-49.8v49.8c0,3.9-3.2,7.1-7.1,7.1h-42.7
	c-3.9,0-7.1-3.2-7.1-7.1v-49.8h-49.8c-3.9,0-7.1-3.2-7.1-7.1V320c0-3.9,3.2-7.1,7.1-7.1h49.8v-49.8c0-3.9,3.2-7.1,7.1-7.1h42.7
	c3.9,0,7.1,3.2,7.1,7.1v49.8h49.8c3.9,0,7.1,3.2,7.1,7.1V362.7z M507.3,238.5L279.8,37.6c-13.5-12.2-34-12.2-47.5,0L4.7,238.5
	c-5.8,5.2-6.3,14.2-1.1,20.1c0,0,0,0,0,0l19,21.2c5.2,5.8,14.2,6.3,20.1,1.1c0,0,0,0,0,0L246.6,101c5.4-4.7,13.4-4.7,18.8,0
	l203.8,179.8c5.8,5.3,14.8,4.8,20.1-1.1c0,0,0,0,0,0l19-21.2C513.6,252.7,513.1,243.7,507.3,238.5z"/>
</svg>
