<?xml version="1.0" encoding="utf-8"?>
<!-- Generator: Adobe Illustrator 24.0.0, SVG Export Plug-In . SVG Version: 6.00 Build 0)  -->
<svg version="1.1" id="Layer_1" xmlns="http://www.w3.org/2000/svg" xmlns:xlink="http://www.w3.org/1999/xlink" x="0px" y="0px"
	 viewBox="0 0 512 512" style="enable-background:new 0 0 512 512;" xml:space="preserve">
<path d="M400,64h-80c0-35.3-28.7-64-64-64s-64,28.7-64,64h-80c-26.5,0-48,21.5-48,48v352c0,26.5,21.5,48,48,48h288
	c26.5,0,48-21.5,48-48V112C448,85.5,426.5,64,400,64z M256,40c13.3,0,24,10.7,24,24s-10.7,24-24,24c-13.3,0-24-10.7-24-24
	S242.7,40,256,40z M377.2,271.8l-143,141.8c-4.7,4.7-12.3,4.6-17-0.1l-82.6-83.3c-4.7-4.7-4.6-12.3,0.1-17l28.4-28.2
	c4.7-4.7,12.3-4.6,17,0.1l46,46.4l106-105.2c4.7-4.7,12.3-4.6,17,0.1l28.2,28.4C382,259.6,381.9,267.1,377.2,271.8z"/>
</svg>
