<?xml version="1.0" encoding="utf-8"?>
<!-- Generator: Adobe Illustrator 24.0.0, SVG Export Plug-In . SVG Version: 6.00 Build 0)  -->
<svg version="1.1" id="Layer_1" xmlns="http://www.w3.org/2000/svg" xmlns:xlink="http://www.w3.org/1999/xlink" x="0px" y="0px"
	 viewBox="0 0 512 512" style="enable-background:new 0 0 512 512;" xml:space="preserve">
<path d="M400,64h-80c0-35.3-28.7-64-64-64s-64,28.7-64,64h-80c-26.5,0-48,21.5-48,48v352c0,26.5,21.5,48,48,48h288
	c26.5,0,48-21.5,48-48V112C448,85.5,426.5,64,400,64z M160,424c-13.3,0-24-10.7-24-24s10.7-24,24-24s24,10.7,24,24
	S173.3,424,160,424z M160,328c-13.3,0-24-10.7-24-24s10.7-24,24-24s24,10.7,24,24S173.3,328,160,328z M160,232
	c-13.3,0-24-10.7-24-24s10.7-24,24-24s24,10.7,24,24S173.3,232,160,232z M256,40c13.3,0,24,10.7,24,24s-10.7,24-24,24
	c-13.3,0-24-10.7-24-24S242.7,40,256,40z M384,408c0,4.4-3.6,8-8,8H232c-4.4,0-8-3.6-8-8v-16c0-4.4,3.6-8,8-8h144c4.4,0,8,3.6,8,8
	V408z M384,312c0,4.4-3.6,8-8,8H232c-4.4,0-8-3.6-8-8v-16c0-4.4,3.6-8,8-8h144c4.4,0,8,3.6,8,8V312z M384,216c0,4.4-3.6,8-8,8H232
	c-4.4,0-8-3.6-8-8v-16c0-4.4,3.6-8,8-8h144c4.4,0,8,3.6,8,8V216z"/>
</svg>
