<?xml version="1.0" encoding="utf-8"?>
<!-- Generator: Adobe Illustrator 24.0.0, SVG Export Plug-In . SVG Version: 6.00 Build 0)  -->
<svg version="1.1" id="Layer_1" xmlns="http://www.w3.org/2000/svg" xmlns:xlink="http://www.w3.org/1999/xlink" x="0px" y="0px"
	 viewBox="0 0 512 512" style="enable-background:new 0 0 512 512;" xml:space="preserve">
<path d="M400,64h-80c0-35.3-28.7-64-64-64s-64,28.7-64,64h-80c-26.5,0-48,21.5-48,48v352c0,26.5,21.5,48,48,48h288
	c26.5,0,48-21.5,48-48V112C448,85.5,426.5,64,400,64z M256,40c13.3,0,24,10.7,24,24s-10.7,24-24,24c-13.3,0-24-10.7-24-24
	S242.7,40,256,40z M400,458c0,3.3-2.7,6-6,6H118c-3.3,0-6-2.7-6-6V118c0-3.3,2.7-6,6-6h42v36c0,6.6,5.4,12,12,12h168
	c6.6,0,12-5.4,12-12v-36h42c3.3,0,6,2.7,6,6V458z"/>
</svg>
