<?xml version="1.0" encoding="utf-8"?>
<!-- Generator: Adobe Illustrator 24.0.0, SVG Export Plug-In . SVG Version: 6.00 Build 0)  -->
<svg version="1.1" id="Layer_1" xmlns="http://www.w3.org/2000/svg" xmlns:xlink="http://www.w3.org/1999/xlink" x="0px" y="0px"
	 viewBox="0 0 512 512" style="enable-background:new 0 0 512 512;" xml:space="preserve">
<g>
	<path d="M437,75C389.5,27.4,323.7,0,256,0S122.5,27.4,75,75C27.4,122.5,0,188.3,0,256s27.4,133.5,75,181c47.5,47.5,113.4,75,181,75
		s133.5-27.4,181-75c47.5-47.5,75-113.4,75-181S484.6,122.5,437,75z M416.9,416.9C374.9,459,316.3,482.7,256,482.7
		S139,459,95.1,416.9c-87.8-87.8-87.8-232.2,0-320C137.1,54.9,195.7,31.1,256,31.1s117,23.8,160.9,65.8
		C504.7,184.7,504.7,327.3,416.9,416.9z"/>
	<path d="M369.4,142.6c-5.5-5.5-14.6-5.5-20.1,0l-91.4,91.4l-91.4-91.4c-5.5-5.5-14.6-5.5-20.1,0c-9.1,5.5-9.1,14.6-3.7,21.9
		l91.4,91.4l-91.4,91.4c-5.5,5.5-5.5,14.6,0,20.1c3.7,3.7,7.3,3.7,11,3.7c3.7,0,7.3-1.8,11-3.7l91.4-91.4l91.4,91.4
		c3.7,3.7,7.3,3.7,11,3.7c3.7,0,7.3-1.8,11-3.7c5.5-5.5,5.5-14.6,0-20.1L277.9,256l91.4-91.4C374.9,157.3,374.9,148.1,369.4,142.6z"
		/>
</g>
</svg>
