<?xml version="1.0" encoding="utf-8"?>
<!-- Generator: Adobe Illustrator 24.0.0, SVG Export Plug-In . SVG Version: 6.00 Build 0)  -->
<svg version="1.1" id="Layer_1" xmlns="http://www.w3.org/2000/svg" xmlns:xlink="http://www.w3.org/1999/xlink" x="0px" y="0px"
	 viewBox="0 0 512 512" style="enable-background:new 0 0 512 512;" xml:space="preserve">
<path d="M326.3,303.9l-184.6-2.3c-1.2,0-2.2-0.6-2.9-1.5c-0.6-1-0.8-2.2-0.4-3.3c0.7-1.8,2.3-3.1,4.3-3.3l186.4-2.3
	c22.1-1,46-18.9,54.4-40.6l10.6-27.6c0.3-0.7,0.4-1.5,0.4-2.3c0-0.4,0-0.9-0.1-1.3c-15-65.4-80.2-106.3-145.6-91.3
	c-40.9,9.4-74.1,39.2-87.8,78.9c-24-18.1-58.2-13.4-76.3,10.7c-10,13.2-13.4,30.3-9.3,46.3C33.5,264.9,0,299,0,340.9
	c0,3.7,0.3,7.5,0.8,11.2c0.3,1.8,1.8,3.1,3.6,3.1l340.9,0c0,0,0.1,0,0.1,0c2,0,3.7-1.3,4.2-3.2l2.6-9c3.1-10.7,2-20.6-3.3-27.9
	C344.1,308.3,336.1,304.4,326.3,303.9z M411.1,224.9c-1.7,0-3.4,0-5.1,0.1c-1.2,0.1-2.3,0.9-2.7,2.1l-7.3,25
	c-3.1,10.7-2,20.6,3.3,27.9c4.8,6.7,12.8,10.7,22.6,11.1l39.4,2.4c1.1,0,2.2,0.6,2.8,1.5c0.7,1,0.8,2.2,0.4,3.3
	c-0.7,1.8-2.3,3.1-4.3,3.3l-40.9,2.4c-22.2,1-46.1,18.9-54.5,40.6l-3,7.7c-0.4,1.1,0.1,2.4,1.3,2.8c0.2,0.1,0.4,0.1,0.7,0.1
	c0,0,0.1,0,0.1,0h140.7c1.7,0,3.2-1.1,3.6-2.7c2.5-8.9,3.8-18,3.7-27.2C512,269.8,466.8,224.9,411.1,224.9z"/>
</svg>
