<?xml version="1.0" encoding="utf-8"?>
<!-- Generator: Adobe Illustrator 24.0.0, SVG Export Plug-In . SVG Version: 6.00 Build 0)  -->
<svg version="1.1" id="Layer_1" xmlns="http://www.w3.org/2000/svg" xmlns:xlink="http://www.w3.org/1999/xlink" x="0px" y="0px"
	 viewBox="0 0 512 512" style="enable-background:new 0 0 512 512;" xml:space="preserve">
<path d="M460.2,311.8c0.2-1.5,0.6-3,0.6-4.5c0-28.2-23-51.2-51.2-51.2c-10.1,0-19.4,3-27.3,8c-14.1-31-45.2-52.8-81.5-52.8
	c-49.4,0-89.6,40.1-89.6,89.6c0,2.4,0.6,4.6,0.7,7c-39.7,3-71.1,35.8-71.1,76.2c0,42.4,34.4,76.8,76.8,76.8h217.6
	c42.4,0,76.8-34.4,76.8-76.8C512,350.4,490.2,322.2,460.2,311.8L460.2,311.8z M115.8,293.7c-35-35-35-91.8,0-126.6
	c35-35,91.8-35,126.7,0c7.8,7.8,13.5,16.7,17.8,26.2c7.8-3,16.1-4.8,24.6-6l23.8-71.1c3.2-9.5-5.8-18.5-15.4-15.4l-70.2,23.4
	L190,57.9c-4.4-9-17.2-9-21.7,0l-33.1,66.2l-70.3-23.4c-9.4-3.1-18.5,5.9-15.4,15.4L73,186.3L6.7,219.5c-9,4.5-9,17.2,0,21.7
	L73,274.3l-23.4,70.2c-3.2,9.5,5.8,18.5,15.4,15.4l60.9-20.2c4.9-9.9,11.2-19,18.9-26.8C134.2,308.6,124.3,302.2,115.8,293.7
	L115.8,293.7z M112,230.3c0,32.6,23.4,59.8,54.3,65.8c6.4-3.8,13-7,20.2-9.4c4.3-35.4,24.8-66,53.9-84c-10.6-23.3-34-39.6-61.2-39.6
	C142.2,163.2,112,193.3,112,230.3L112,230.3z"/>
</svg>
