<?xml version="1.0" encoding="utf-8"?>
<!-- Generator: Adobe Illustrator 24.0.0, SVG Export Plug-In . SVG Version: 6.00 Build 0)  -->
<svg version="1.1" id="Layer_1" xmlns="http://www.w3.org/2000/svg" xmlns:xlink="http://www.w3.org/1999/xlink" x="0px" y="0px"
	 viewBox="0 0 512 512" style="enable-background:new 0 0 512 512;" xml:space="preserve">
<path d="M350.1,154l-9.4,7.6c-22.5-19.3-51.5-33.6-83.3-33.6C185.8,128,128,188.8,128,260.3c0,6.6,0.4,13.1,1.4,19.4
	c-2-56,41.8-97.4,92.6-97.4c24.2,0,46.2,9.4,62.6,24.7l-25.2,20.4c-8.3-0.9-16.8,1.8-23.1,8.1c-11.1,11-11.1,28.9,0,40
	c11.1,11,28.9,11,40,0c6.3-6.3,9-14.9,8.1-23.1l75.2-88.8C365.9,157.1,356.3,147.7,350.1,154L350.1,154z M266.3,265.5
	c-5.6,5.5-14.6,5.5-20.2,0c-5.6-5.6-5.6-14.6,0-20.2s14.6-5.6,20.2,0C271.9,250.9,271.9,260,266.3,265.5z M256,32
	C132.5,32,32,132.5,32,256s100.5,224,224,224s224-100.5,224-224S379.5,32,256,32z M256,416c-88.2,0-160-71.8-160-160
	S167.8,96,256,96s160,71.8,160,160S344.2,416,256,416z"/>
</svg>
