<?xml version="1.0" encoding="utf-8"?>
<!-- Generator: Adobe Illustrator 24.0.0, SVG Export Plug-In . SVG Version: 6.00 Build 0)  -->
<svg version="1.1" id="Layer_1" xmlns="http://www.w3.org/2000/svg" xmlns:xlink="http://www.w3.org/1999/xlink" x="0px" y="0px"
	 viewBox="0 0 512 512" style="enable-background:new 0 0 512 512;" xml:space="preserve">
<path d="M123.5,295.9c6.8,56.9,56,96,121.4,92.5c42.6,36,113.7,38.1,154.9-4.7c57.5,0.9,98.5-37.1,109.3-82.7
	c12.3-52-15.1-110.1-76.6-128.9c-27.4-73.2-109.2-84.4-155-70.7c-47.6,14.4-70.1,44.2-82.5,91.2c-6.5,2.2-22,7.4-37.4,20
	c9.7,0,12.6,7.4,12.6,16.2v17c0,8.9-7.2,16.2-16.2,16.2h-16.8c-8.9,0-16.2-5-16.2-13.9v-5.5H82.1c-3.2,0-9,3.6-9,9.9v33.6
	c0,5.3,4.4,9.8,9.7,9.8L123.5,295.9L123.5,295.9z M312.5,302.6c-8.9,38.5,18,60.2,46,72.1c-89.1,28.1-142.6-42.2-112.5-92.1
	c-27.6,18-28,59.2-24.3,77.2c-14.9-10.3-44.7-26.9-47.7-66.3c-2.5-33.2,17.9-62.9,47.4-78.1c25.4-13.1,86-7.1,111.1,33.9
	c-11.7-39.9-44.7-58.3-84.6-62.2c25.7-25.5,53.5-41.8,94.9-36.3c58,7.7,110.7,68.8,56.3,125.1c29.1-13.5,40.5-45.2,39.5-63.9
	l8.7,16.3c9.8,18.3,12.6,39.6,7.8,59.8c-7.6,32.4-33.7,57.2-66.2,63.6C362.1,357,319.8,347.5,312.5,302.6L312.5,302.6z M106.4,216.1
	H73.3c-7.4,0-13.5-6.1-13.5-13.5v-32.9c0-7.4,6.1-13.5,13.5-13.5h33.1c7.4,0,13.5,6.1,13.5,13.5v32.9
	C119.8,210,113.8,216.1,106.4,216.1L106.4,216.1z M8.4,182.9c-4.7,0-8.4-3.7-8.4-8.4v-23.1c0-4.7,3.7-8.4,8.4-8.4h23
	c4.6,0,8.4,3.7,8.4,8.4v23.1c0,4.7-3.7,8.4-8.4,8.4H8.4z M139.6,161.8V144c0-4.2,3.5-7.7,7.7-7.7h17.8c4.2,0,7.7,3.5,7.7,7.7v17.8
	c0,4.2-3.5,7.7-7.7,7.7h-17.8C143.1,169.6,139.6,166.1,139.6,161.8z M46.5,239v20.8c0,5.2-4.2,9.6-9.5,9.6H16.1
	c-5.2,0-9.5-4.3-9.5-9.6V239c0-5.2,4.2-9.6,9.5-9.6H37C42.3,229.4,46.5,233.7,46.5,239z"/>
</svg>
