<?xml version="1.0" encoding="utf-8"?>
<!-- Generator: Adobe Illustrator 24.0.0, SVG Export Plug-In . SVG Version: 6.00 Build 0)  -->
<svg version="1.1" id="Layer_1" xmlns="http://www.w3.org/2000/svg" xmlns:xlink="http://www.w3.org/1999/xlink" x="0px" y="0px"
	 viewBox="0 0 512 512" style="enable-background:new 0 0 512 512;" xml:space="preserve">
<path d="M430.1,232.5c3.3-8.6,5.1-17.9,5.1-27.7c0-42.4-34.4-76.8-76.8-76.8c-15.8,0-30.5,4.8-42.6,13
	c-22.2-38.4-63.5-64.2-111-64.2c-70.7,0-128,57.3-128,128c0,2.2,0.1,4.3,0.2,6.5C32.2,227,0,269.8,0,320
	c0,63.6,51.6,115.2,115.2,115.2h294.4c56.6,0,102.4-45.8,102.4-102.4C512,283.3,476.8,241.9,430.1,232.5z"/>
</svg>
