<?xml version="1.0" encoding="utf-8"?>
<!-- Generator: Adobe Illustrator 24.0.0, SVG Export Plug-In . SVG Version: 6.00 Build 0)  -->
<svg version="1.1" id="Layer_1" xmlns="http://www.w3.org/2000/svg" xmlns:xlink="http://www.w3.org/1999/xlink" x="0px" y="0px"
	 viewBox="0 0 512 512" style="enable-background:new 0 0 512 512;" xml:space="preserve">
<path d="M311.6,228.9c-6.1-33.1-34.9-58.2-69.8-58.2c-10.9,0-21.2,2.7-30.5,7.1c-15.5-21.4-40.5-35.6-69.1-35.6
	c-47.1,0-85.3,38.2-85.3,85.3c0,0.4,0.2,1,0.2,1.4C24.5,235.5,0,264.2,0,298.7c0,39.3,31.8,71.1,71.1,71.1h227.6
	c39.3,0,71.1-31.8,71.1-71.1C369.8,263.8,344.7,234.9,311.6,228.9z M504.8,227.4c-62.6,11.8-120-35.8-120-98.5
	c0-36.1,19.5-69.3,51.1-87.2c4.9-2.8,3.6-10.1-1.9-11.1c-7.7-1.4-15.6-2.1-23.6-2.1c-69.2,0-125.4,54.4-128.4,122.6
	c23.7,10.6,42.8,30,52.4,54.8c33,12.7,56.9,42.1,62.4,77.2c4.5,0.4,8.9,1.3,13.5,1.3c39.7,0,76.1-18,100.1-47.4
	C514.2,232.7,510.3,226.3,504.8,227.4L504.8,227.4z M324,400.1c-6.8-3.8-15.5-1.6-19.4,5.3l-32.5,56.9c-3.9,6.8-1.5,15.5,5.3,19.4
	c2.2,1.2,4.6,1.9,7,1.9c4.9,0,9.7-2.6,12.4-7.2l32.5-56.9C333.2,412.6,330.8,404,324,400.1z M238.7,400.1
	c-6.8-3.8-15.5-1.6-19.4,5.3l-32.5,56.9c-3.9,6.8-1.5,15.5,5.3,19.4c2.2,1.2,4.6,1.9,7,1.9c4.9,0,9.7-2.6,12.4-7.2l32.5-56.9
	C247.8,412.6,245.5,404,238.7,400.1z M153.3,400.1c-6.8-3.8-15.5-1.6-19.4,5.3l-32.5,56.9c-3.9,6.8-1.5,15.5,5.3,19.4
	c2.2,1.2,4.6,1.9,7,1.9c4.9,0,9.7-2.6,12.4-7.2l32.5-56.9C162.5,412.6,160.2,404,153.3,400.1z M68,400.1c-6.8-3.8-15.5-1.6-19.4,5.3
	l-32.5,56.9c-3.9,6.8-1.5,15.5,5.3,19.4c2.2,1.2,4.6,1.9,7,1.9c4.9,0,9.7-2.6,12.4-7.2l32.5-56.9C77.1,412.6,74.8,404,68,400.1z"/>
</svg>
