<?xml version="1.0" encoding="utf-8"?>
<!-- Generator: Adobe Illustrator 24.0.0, SVG Export Plug-In . SVG Version: 6.00 Build 0)  -->
<svg version="1.1" id="Layer_1" xmlns="http://www.w3.org/2000/svg" xmlns:xlink="http://www.w3.org/1999/xlink" x="0px" y="0px"
	 viewBox="0 0 512 512" style="enable-background:new 0 0 512 512;" xml:space="preserve">
<path d="M304.7,342c5.1-8.5,8.2-18.4,8.2-29.1c0-31.4-25.5-56.9-56.9-56.9c-15.3,0-29.2,6.1-39.4,15.9
	c-14.5-26.3-42.2-44.4-74.4-44.4c-47.1,0-85.3,38.2-85.3,85.3c0,1.8,0.4,3.4,0.5,5.1C24.1,329.6,0,361,0,398.2
	c0,47.1,38.2,85.3,85.3,85.3h213.3c39.3,0,71.1-31.8,71.1-71.1C369.8,375.2,341.1,345.1,304.7,342z M502.5,293.7
	c-82.8,15.7-158.7-47.7-158.7-131.3c0-48.2,25.8-92.4,67.6-116.3c6.5-3.6,4.8-13.4-2.5-14.8c-10.4-1.9-20.8-2.8-31.2-2.8
	c-94.1,0-170.6,76.4-170.6,170.7c0,7.6,0.6,14.9,1.6,22.2c5.2,3.8,10.3,7.9,14.8,12.6c10.1-4.2,21.1-6.4,32.4-6.4
	c47,0,85.3,38.3,85.3,85.3c0,3.2-0.2,6.4-0.5,9.5c21,9.6,37.7,26.2,47.6,46.8c48.4-3,92.2-26,121.9-62.6
	C514.9,300.8,509.8,292.3,502.5,293.7z"/>
</svg>
