<?xml version="1.0" encoding="utf-8"?>
<!-- Generator: Adobe Illustrator 24.0.0, SVG Export Plug-In . SVG Version: 6.00 Build 0)  -->
<svg version="1.1" id="Layer_1" xmlns="http://www.w3.org/2000/svg" xmlns:xlink="http://www.w3.org/1999/xlink" x="0px" y="0px"
	 viewBox="0 0 512 512" style="enable-background:new 0 0 512 512;" xml:space="preserve">
<path d="M453.8,228.9c-6.1-33.1-34.9-58.2-69.8-58.2c-10.9,0-21.2,2.7-30.5,7.1c-15.5-21.4-40.5-35.6-69.1-35.6
	c-47.1,0-85.3,38.2-85.3,85.3c0,0.4,0.2,1,0.2,1.4c-32.5,6.6-57.1,35.2-57.1,69.7c0,39.3,31.8,71.1,71.1,71.1h227.6
	c39.3,0,71.1-31.8,71.1-71.1C512,263.8,486.9,234.9,453.8,228.9z M110.3,259.5c-33.2-33.2-33.2-87.4,0-120.7
	c30.8-30.8,79.2-32.7,112.6-6.6c17.8-11.5,38.8-18.4,61.5-18.4c0.6,0,1.2,0.2,1.8,0.2l7.9-23.7c3-9.1-5.6-17.6-14.7-14.6L212.5,98
	L181,34.8c-4.3-8.5-16.4-8.5-20.7,0L128.7,98L61.8,75.6c-9.1-3-17.6,5.6-14.6,14.7l22.3,66.9L6.4,188.8c-8.5,4.3-8.5,16.4,0,20.7
	l63.1,31.6L47.2,308c-3,9.1,5.6,17.6,14.7,14.7l52.6-17.5c-0.2-2.1-0.6-4.2-0.6-6.4c0-11.1,2-21.8,5.5-31.9
	C116.2,264.4,113.1,262.2,110.3,259.5L110.3,259.5z M172.4,207.9c3.8-21.8,14-41.2,28.4-56.9c-8.7-5.5-19-8.8-30-8.8
	c-31.4,0-56.9,25.5-56.9,56.9c0,16.6,7.3,31.5,18.8,41.9C142.6,226.8,156.2,215.3,172.4,207.9L172.4,207.9z M466.2,400.1
	c-6.8-3.8-15.5-1.6-19.4,5.3l-32.5,56.9c-3.9,6.8-1.5,15.5,5.3,19.4c2.2,1.2,4.6,1.9,7,1.9c4.9,0,9.7-2.6,12.4-7.2l32.5-56.9
	C475.4,412.6,473.1,404,466.2,400.1z M380.9,400.1c-6.8-3.8-15.5-1.6-19.4,5.3L329,462.3c-3.9,6.8-1.5,15.5,5.3,19.4
	c2.2,1.2,4.6,1.9,7,1.9c4.9,0,9.7-2.6,12.4-7.2l32.5-56.9C390,412.6,387.7,404,380.9,400.1z M295.6,400.1
	c-6.8-3.8-15.5-1.6-19.4,5.3l-32.5,56.9c-3.9,6.8-1.5,15.5,5.3,19.4c2.2,1.2,4.6,1.9,7,1.9c4.9,0,9.7-2.6,12.4-7.2l32.5-56.9
	C304.7,412.6,302.4,404,295.6,400.1z M210.2,400.1c-6.8-3.8-15.5-1.6-19.4,5.3l-32.5,56.9c-3.9,6.8-1.5,15.5,5.3,19.4
	c2.2,1.2,4.6,1.9,7,1.9c4.9,0,9.7-2.6,12.4-7.2l32.5-56.9C219.4,412.6,217.1,404,210.2,400.1z"/>
</svg>
