<?xml version="1.0" encoding="utf-8"?>
<!-- Generator: Adobe Illustrator 24.0.0, SVG Export Plug-In . SVG Version: 6.00 Build 0)  -->
<svg version="1.1" id="Layer_1" xmlns="http://www.w3.org/2000/svg" xmlns:xlink="http://www.w3.org/1999/xlink" x="0px" y="0px"
	 viewBox="0 0 512 512" style="enable-background:new 0 0 512 512;" xml:space="preserve">
<path d="M263.1,440.9h-49.8V329.6l150-150c13.8-13.8,4-37.4-15.5-37.4H21.9c-19.5,0-29.3,23.6-15.5,37.4l150,150v111.3h-49.8
	c-19.6,0-35.6,15.9-35.6,35.6c0,3.9,3.2,7.1,7.1,7.1h213.3c3.9,0,7.1-3.2,7.1-7.1C298.7,456.8,282.7,440.9,263.1,440.9z M384,28.4
	c-55.7,0-102.5,35.7-120.2,85.3h46.7c14.8-25.4,42-42.7,73.5-42.7c47,0,85.3,38.3,85.3,85.3S431,241.8,384,241.8
	c-12.5,0-24.3-2.8-35-7.7l-31.3,31.3c19.4,11.8,41.9,19,66.3,19c70.7,0,128-57.3,128-128S454.7,28.4,384,28.4z"/>
</svg>
