<?xml version="1.0" encoding="utf-8"?>
<!-- Generator: Adobe Illustrator 24.0.0, SVG Export Plug-In . SVG Version: 6.00 Build 0)  -->
<svg version="1.1" id="Layer_1" xmlns="http://www.w3.org/2000/svg" xmlns:xlink="http://www.w3.org/1999/xlink" x="0px" y="0px"
	 viewBox="0 0 512 512" style="enable-background:new 0 0 512 512;" xml:space="preserve">
<path d="M223.1,460.4l-48.8-14.2c-5.1-1.4-8-6.8-6.6-11.9L277,58.2c1.4-5.1,6.8-8,11.9-6.6l48.8,14.2c5.1,1.4,8,6.8,6.6,11.9
	L235,453.8C233.5,458.9,228.2,461.9,223.1,460.4z M131.9,370.6l34.8-37.1c3.7-3.9,3.4-10.2-0.6-13.8L93.6,256l72.5-63.8
	c4.1-3.6,4.4-9.8,0.6-13.8l-34.8-37.1c-3.6-3.8-9.7-4.1-13.6-0.4L3.1,249c-4.1,3.8-4.1,10.2,0,14L118.3,371
	C122.3,374.7,128.3,374.6,131.9,370.6L131.9,370.6z M393.7,371.1L508.9,263c4.1-3.8,4.1-10.2,0-14L393.7,140.9
	c-3.8-3.6-9.9-3.4-13.6,0.4l-34.8,37.1c-3.7,3.9-3.4,10.2,0.6,13.8l72.5,63.8l-72.5,63.8c-4.1,3.6-4.4,9.8-0.6,13.8l34.8,37.1
	C383.7,374.6,389.7,374.7,393.7,371.1L393.7,371.1z"/>
</svg>
