<?xml version="1.0" encoding="utf-8"?>
<!-- Generator: Adobe Illustrator 24.0.0, SVG Export Plug-In . SVG Version: 6.00 Build 0)  -->
<svg version="1.1" id="Layer_1" xmlns="http://www.w3.org/2000/svg" xmlns:xlink="http://www.w3.org/1999/xlink" x="0px" y="0px"
	 viewBox="0 0 512 512" style="enable-background:new 0 0 512 512;" xml:space="preserve">
<path d="M442.5,202.9c30.7,0,33.5,53.1-0.3,53.1h-10.8v44.3h-26.6v-97.4H442.5L442.5,202.9z M492,352.6
	C449.9,444.5,370.4,504,268,504C131,504,20,393,20,256S131,8,268,8c97.4,0,172.8,53.7,218.2,138.4l-186,108.8L492,352.6z
	 M453.5,365.1l-60.3-30.7c-27.1,44.3-70.4,71.4-122.4,71.4c-82.5,0-149.2-66.7-149.2-148.9c0-82.5,66.7-149.2,149.2-149.2
	c48.4,0,88.9,23.5,116.9,63.4l59.5-34.6c-40.7-62.6-104.7-100-179.2-100C146.8,36.5,48.5,134.8,48.5,256S146.8,475.5,268,475.5
	C346.6,475.5,414.5,433.4,453.5,365.1z"/>
</svg>
