<?xml version="1.0" encoding="utf-8"?>
<!-- Generator: Adobe Illustrator 24.0.0, SVG Export Plug-In . SVG Version: 6.00 Build 0)  -->
<svg version="1.1" id="Layer_1" xmlns="http://www.w3.org/2000/svg" xmlns:xlink="http://www.w3.org/1999/xlink" x="0px" y="0px"
	 viewBox="0 0 512 512" style="enable-background:new 0 0 512 512;" xml:space="preserve">
<path d="M151.6,368.4h153.6c42.4,0,76.8-34.4,76.8-76.8h25.6c56.5,0,102.4-45.9,102.4-102.4S464.1,86.8,407.6,86.8H94
	c-10.6,0-19.2,8.6-19.2,19.2v185.6C74.8,334,109.2,368.4,151.6,368.4z M407.6,138c28.2,0,51.2,23,51.2,51.2s-23,51.2-51.2,51.2H382
	V138H407.6z M445.7,445.2H36.7c-38.1,0-48.8-51.2-28.8-51.2h466.6C494.5,394,483.9,445.2,445.7,445.2L445.7,445.2z"/>
</svg>
