<?xml version="1.0" encoding="utf-8"?>
<!-- Generator: Adobe Illustrator 24.0.0, SVG Export Plug-In . SVG Version: 6.00 Build 0)  -->
<svg version="1.1" id="Layer_1" xmlns="http://www.w3.org/2000/svg" xmlns:xlink="http://www.w3.org/1999/xlink" x="0px" y="0px"
	 viewBox="0 0 512 512" style="enable-background:new 0 0 512 512;" xml:space="preserve">
<path d="M409.7,203.8l-6.6,11.4c-2.4,4.2-7.5,6-12.1,4.3c-9.4-3.5-18.1-8.6-25.7-14.9c-3.7-3-4.6-8.4-2.2-12.6l6.6-11.4
	c-5.5-6.4-9.8-13.8-12.7-21.9h-13.2c-4.8,0-9-3.4-9.8-8.2c-1.6-9.6-1.7-19.7,0-29.7c0.8-4.8,5-8.3,9.8-8.3H357
	c2.9-8.1,7.2-15.5,12.7-21.9l-6.6-11.4c-2.4-4.2-1.5-9.5,2.2-12.6c7.6-6.3,16.3-11.4,25.7-14.9c4.6-1.7,9.7,0.1,12.1,4.3l6.6,11.4
	c8.4-1.5,17-1.5,25.4,0l6.6-11.4c2.4-4.2,7.5-6,12.1-4.3c9.4,3.5,18.1,8.6,25.7,14.9c3.7,3,4.6,8.4,2.2,12.6l-6.6,11.4
	c5.5,6.4,9.8,13.8,12.7,21.9H501c4.8,0,9,3.4,9.8,8.2c1.6,9.6,1.7,19.7,0,29.7c-0.8,4.8-5,8.3-9.8,8.3h-13.2
	c-2.9,8.1-7.2,15.5-12.7,21.9l6.6,11.4c2.4,4.2,1.5,9.5-2.2,12.6c-7.6,6.3-16.3,11.4-25.7,14.9c-4.6,1.7-9.7-0.1-12.1-4.3l-6.6-11.4
	C426.7,205.4,418.1,205.4,409.7,203.8z M401.3,156.8c30.8,23.7,65.9-11.4,42.2-42.2C412.7,90.8,377.6,126,401.3,156.8z M309,279.9
	l27,13.4c8.1,4.6,11.6,14.5,8.4,23.3c-7.1,19.4-21.1,37.1-34.1,52.6c-5.9,7.1-16.2,8.9-24.2,4.2l-23.3-13.4
	c-12.8,11-27.7,19.7-43.9,25.4v26.9c0,9.3-6.6,17.3-15.8,18.9c-19.7,3.4-40.3,3.5-60.7,0c-9.2-1.6-16-9.5-16-18.9v-26.9
	c-16.2-5.8-31.1-14.4-43.9-25.4l-23.3,13.4c-8,4.6-18.3,2.9-24.2-4.2c-13-15.5-26.6-33.3-33.8-52.6c-3.2-8.7,0.3-18.6,8.4-23.3
	l26.6-13.4c-3.1-16.7-3.1-33.9,0-50.7L9.6,215.7c-8.1-4.6-11.7-14.5-8.4-23.2c7.1-19.4,20.8-37.1,33.8-52.6
	c5.9-7.1,16.2-8.9,24.2-4.2L82.5,149c12.8-11,27.7-19.7,43.9-25.4v-27c0-9.2,6.6-17.2,15.7-18.8c19.7-3.4,40.4-3.5,60.8-0.1
	c9.2,1.6,16,9.5,16,18.9v26.9c16.2,5.8,31.1,14.4,43.9,25.4l23.3-13.4c8-4.6,18.3-2.9,24.2,4.2c13,15.5,26.6,33.3,33.7,52.6
	c3.2,8.7,0.1,18.6-8,23.3l-27,13.4C312.2,245.9,312.2,263.1,309,279.9z M214.9,296.8c47.4-61.6-23-131.9-84.6-84.6
	C83,273.9,153.3,344.2,214.9,296.8z M409.7,443l-6.6,11.4c-2.4,4.2-7.5,6-12.1,4.3c-9.4-3.5-18.1-8.6-25.7-14.9
	c-3.7-3-4.6-8.4-2.2-12.6l6.6-11.4c-5.5-6.4-9.8-13.8-12.7-21.9h-13.2c-4.8,0-9-3.4-9.8-8.2c-1.6-9.6-1.7-19.7,0-29.7
	c0.8-4.8,5-8.3,9.8-8.3H357c2.9-8.1,7.2-15.5,12.7-21.9l-6.6-11.4c-2.4-4.2-1.5-9.5,2.2-12.6c7.6-6.3,16.3-11.4,25.7-14.9
	c4.6-1.7,9.7,0.1,12.1,4.3l6.6,11.4c8.4-1.5,17-1.5,25.4,0l6.6-11.4c2.4-4.2,7.5-6,12.1-4.3c9.4,3.5,18.1,8.6,25.7,14.9
	c3.7,3,4.6,8.4,2.2,12.6l-6.6,11.4c5.5,6.4,9.8,13.8,12.7,21.9H501c4.8,0,9,3.4,9.8,8.2c1.6,9.6,1.7,19.7,0,29.7
	c-0.8,4.8-5,8.3-9.8,8.3h-13.2c-2.9,8.1-7.2,15.5-12.7,21.9l6.6,11.4c2.4,4.2,1.5,9.5-2.2,12.6c-7.6,6.3-16.3,11.4-25.7,14.9
	c-4.6,1.7-9.7-0.1-12.1-4.3L435,443C426.7,444.5,418.1,444.5,409.7,443z M401.3,395.9c30.8,23.7,65.9-11.4,42.2-42.2
	C412.7,329.9,377.6,365.1,401.3,395.9L401.3,395.9z"/>
</svg>
