<?xml version="1.0" encoding="utf-8"?>
<!-- Generator: Adobe Illustrator 24.0.0, SVG Export Plug-In . SVG Version: 6.00 Build 0)  -->
<svg version="1.1" id="Layer_1" xmlns="http://www.w3.org/2000/svg" xmlns:xlink="http://www.w3.org/1999/xlink" x="0px" y="0px"
	 viewBox="0 0 512 512" style="enable-background:new 0 0 512 512;" xml:space="preserve">
<path d="M369.8,199.1c0-78.6-82.8-142.2-184.9-142.2S0,120.5,0,199.1c0,30.5,12.5,58.6,33.8,81.8C21.9,307.7,2.2,329.1,2,329.3
	c-2,2-2.5,5.1-1.3,7.7s3.6,4.3,6.5,4.3c32.5,0,59.5-10.9,78.8-22.2c28.6,14,62.5,22.2,98.9,22.2C287,341.3,369.8,277.7,369.8,199.1z
	 M478.2,394.7c21.2-23.1,33.8-51.3,33.8-81.8c0-59.5-47.6-110.4-114.9-131.6c0.8,5.9,1.2,11.8,1.2,17.9
	c0,94.1-95.7,170.7-213.3,170.7c-9.6,0-18.9-0.7-28.2-1.7c28,51.1,93.8,87,170.4,87c36.4,0,70.3-8.2,98.9-22.2
	c19.4,11.3,46.3,22.2,78.8,22.2c2.8,0,5.4-1.7,6.5-4.3c1.2-2.6,0.6-5.6-1.3-7.7C509.8,442.8,490.1,421.6,478.2,394.7z"/>
</svg>
