<?xml version="1.0" encoding="utf-8"?>
<!-- Generator: Adobe Illustrator 24.0.0, SVG Export Plug-In . SVG Version: 6.00 Build 0)  -->
<svg version="1.1" id="Layer_1" xmlns="http://www.w3.org/2000/svg" xmlns:xlink="http://www.w3.org/1999/xlink" x="0px" y="0px"
	 viewBox="0 0 512 512" style="enable-background:new 0 0 512 512;" xml:space="preserve">
<path d="M472.9,371.7c24.4-24.1,39.1-54.3,39.1-87.3c0-71.1-68-129.9-156.6-140.3c-28-51.2-93.8-87.2-170.5-87.2
	C82.8,56.9,0,120.5,0,199.1c0,32.9,14.7,63.1,39.1,87.3C25.5,313.7,6,334.8,5.6,335.2c-5.6,6-7.2,14.7-3.9,22.2
	c3.2,7.6,10.7,12.4,18.8,12.4c47.5,0,85.9-18,111.3-34.5c8.2,1.9,16.6,3.3,25.2,4.4c27.9,51,93.4,86.9,170,86.9
	c18.5,0,36.3-2.1,53.1-6c25.3,16.4,63.6,34.5,111.3,34.5c8.2,0,15.6-4.9,18.8-12.4c3.2-7.6,1.7-16.3-3.9-22.2
	C506.1,420.2,486.5,399,472.9,371.7z M123.8,289.7l-15.2,9.9c-12.5,8.1-25.3,14.5-38.3,19c2.4-4.2,4.8-8.6,7.1-13.2l13.8-27.6
	l-22-21.8c-12-11.9-26.4-31.4-26.4-56.9c0-53.9,65.1-99.5,142.2-99.5s142.2,45.6,142.2,99.5s-65.1,99.5-142.2,99.5
	c-14.7,0-29.3-1.7-43.6-5L123.8,289.7L123.8,289.7z M442.9,341.3L421,363l13.8,27.6c2.3,4.5,4.7,9,7.1,13.2
	c-13-4.5-25.8-10.9-38.3-19l-15.2-9.9l-17.7,4.1c-14.2,3.3-28.9,5-43.6,5c-48,0-90.8-17.9-116.7-44.2c90-9.6,159.4-68.8,159.4-140.7
	c0-3-0.4-6-0.6-8.9c57.2,12.9,100.2,50.5,100.2,94.2C469.3,309.9,454.9,329.4,442.9,341.3z"/>
</svg>
