<?xml version="1.0" encoding="utf-8"?>
<!-- Generator: Adobe Illustrator 24.0.0, SVG Export Plug-In . SVG Version: 6.00 Build 0)  -->
<svg version="1.1" id="Layer_1" xmlns="http://www.w3.org/2000/svg" xmlns:xlink="http://www.w3.org/1999/xlink" x="0px" y="0px"
	 viewBox="0 0 512 512" style="enable-background:new 0 0 512 512;" xml:space="preserve">
<path d="M51.2,243.2c0,39.7,17.1,76,45.6,104.6C86.7,388,53.4,423.9,53,424.4c-1.8,1.8-2.2,4.6-1.2,7c1,2.3,3.3,3.8,5.8,3.8
	c53,0,92.8-25.4,112.5-41.1c26.2,9.8,55.2,15.5,85.9,15.5c21.9,0,43-2.9,62.7-8L58.3,200.3C53.8,214,51.2,228.3,51.2,243.2z
	 M507,417.7l-91.5-70.7c28.2-28.5,45.3-64.4,45.3-103.8c0-91.9-91.7-166.4-204.8-166.4c-52.1,0-99.4,16.1-135.5,42.2l-84.1-65
	c-5.6-4.3-13.6-3.4-18,2.2L2.7,76.3C-1.6,81.9-0.6,89.9,5,94.2L475.7,458c5.6,4.3,13.6,3.4,18-2.2l15.7-20.2
	C513.7,430.1,512.6,422,507,417.7L507,417.7z"/>
</svg>
