<?xml version="1.0" encoding="utf-8"?>
<!-- Generator: Adobe Illustrator 24.0.0, SVG Export Plug-In . SVG Version: 6.00 Build 0)  -->
<svg version="1.1" id="Layer_1" xmlns="http://www.w3.org/2000/svg" xmlns:xlink="http://www.w3.org/1999/xlink" x="0px" y="0px"
	 viewBox="0 0 512 512" style="enable-background:new 0 0 512 512;" xml:space="preserve">
<path d="M369.8,199.1c0-78.6-82.8-142.2-184.9-142.2S0,120.6,0,199.1c0,30.5,12.6,58.6,33.8,81.8C21.9,307.8,2.2,329,2,329.3
	c-2.7,2.8-2.6,7.3,0.3,10c1.3,1.3,3.1,2,4.9,2c32.5,0,59.5-10.9,78.9-22.2c28.6,14,62.5,22.2,98.9,22.2
	C287,341.3,369.8,277.7,369.8,199.1z M170.7,284.4V270c-10-0.5-19.8-4-27.9-10.1c-3.5-2.6-3.6-7.8-0.5-10.8l10.4-10
	c2.5-2.3,6.1-2.5,9-0.6c3.4,2.2,7.3,3.3,11.4,3.3h25c5.8,0,10.5-5.3,10.5-11.7c0-5.3-3.2-9.9-7.8-11.3l-40-12
	c-16.5-5-28.1-20.8-28.1-38.6c0-21.8,16.9-39.5,37.9-40.1v-14.3c0-3.9,3.2-7.1,7.1-7.1H192c3.9,0,7.1,3.2,7.1,7.1v14.5
	c10,0.5,19.8,4,27.9,10.1c3.5,2.6,3.6,7.8,0.5,10.8l-10.4,10c-2.5,2.3-6.1,2.5-9,0.6c-3.4-2.2-7.3-3.3-11.4-3.3h-25
	c-5.8,0-10.5,5.3-10.5,11.7c0,5.3,3.2,9.9,7.8,11.3l40,12c16.5,5,28.1,20.8,28.1,38.6c0,21.8-16.9,39.5-37.9,40.1v14.3
	c0,3.9-3.2,7.1-7.1,7.1h-14.2C173.8,291.6,170.7,288.4,170.7,284.4L170.7,284.4z M478.2,394.7c21.2-23.1,33.8-51.3,33.8-81.8
	c0-59.5-47.5-110.4-115-131.6c0.8,5.9,1.2,11.8,1.2,17.8c0,94.1-95.7,170.7-213.3,170.7c-9.6,0-19-0.7-28.2-1.7
	c28,51.1,93.8,87,170.4,87c36.4,0,70.3-8.2,98.9-22.2c19.4,11.3,46.4,22.2,78.9,22.2c2.8,0,5.4-1.7,6.5-4.3c1.1-2.6,0.6-5.6-1.4-7.7
	C509.8,442.8,490.1,421.6,478.2,394.7z"/>
</svg>
