<?xml version="1.0" encoding="utf-8"?>
<!-- Generator: Adobe Illustrator 24.0.0, SVG Export Plug-In . SVG Version: 6.00 Build 0)  -->
<svg version="1.1" id="Layer_1" xmlns="http://www.w3.org/2000/svg" xmlns:xlink="http://www.w3.org/1999/xlink" x="0px" y="0px"
	 viewBox="0 0 512 512" style="enable-background:new 0 0 512 512;" xml:space="preserve">
<path d="M256,8C119,8,8,119,8,256s111,248,248,248s248-111,248-248S393,8,256,8z M96,256H64c0-105.9,86.1-192,192-192v32
	C167.8,96,96,167.8,96,256z M256,352c-53,0-96-43-96-96s43-96,96-96s96,43,96,96S309,352,256,352z M256,224c-17.7,0-32,14.3-32,32
	s14.3,32,32,32s32-14.3,32-32S273.7,224,256,224z"/>
</svg>
