<?xml version="1.0" encoding="utf-8"?>
<!-- Generator: Adobe Illustrator 24.0.0, SVG Export Plug-In . SVG Version: 6.00 Build 0)  -->
<svg version="1.1" id="Layer_1" xmlns="http://www.w3.org/2000/svg" xmlns:xlink="http://www.w3.org/1999/xlink" x="0px" y="0px"
	 viewBox="0 0 512 512" style="enable-background:new 0 0 512 512;" xml:space="preserve">
<path d="M468,192H344c-13.3,0-24-10.7-24-24V44c0-6.6,5.4-12,12-12h40c6.6,0,12,5.4,12,12v84h84c6.6,0,12,5.4,12,12v40
	C480,186.6,474.6,192,468,192z M192,168V44c0-6.6-5.4-12-12-12h-40c-6.6,0-12,5.4-12,12v84H44c-6.6,0-12,5.4-12,12v40
	c0,6.6,5.4,12,12,12h124C181.3,192,192,181.3,192,168z M192,468V344c0-13.3-10.7-24-24-24H44c-6.6,0-12,5.4-12,12v40
	c0,6.6,5.4,12,12,12h84v84c0,6.6,5.4,12,12,12h40C186.6,480,192,474.6,192,468z M384,468v-84h84c6.6,0,12-5.4,12-12v-40
	c0-6.6-5.4-12-12-12H344c-13.3,0-24,10.7-24,24v124c0,6.6,5.4,12,12,12h40C378.6,480,384,474.6,384,468z"/>
</svg>
