<?xml version="1.0" encoding="utf-8"?>
<!-- Generator: Adobe Illustrator 24.0.0, SVG Export Plug-In . SVG Version: 6.00 Build 0)  -->
<svg version="1.1" id="Layer_1" xmlns="http://www.w3.org/2000/svg" xmlns:xlink="http://www.w3.org/1999/xlink" x="0px" y="0px"
	 viewBox="0 0 512 512" style="enable-background:new 0 0 512 512;" xml:space="preserve">
<path d="M233.4,233.4c-12.5,12.5-12.5,32.8,0,45.3c12.5,12.5,32.8,12.5,45.3,0c12.5-12.5,12.5-32.8,0-45.3S245.9,220.9,233.4,233.4z
	 M256,8C119,8,8,119,8,256s111,248,248,248s248-111,248-248S393,8,256,8z M382.1,156.1l-66,144.3c-3.2,7-8.8,12.6-15.8,15.8
	l-144.3,66c-16.6,7.6-33.8-9.5-26.2-26.2l66-144.4c3.2-7,8.8-12.6,15.8-15.8l144.3-66C372.6,122.2,389.8,139.4,382.1,156.1
	L382.1,156.1z"/>
</svg>
