<?xml version="1.0" encoding="utf-8"?>
<!-- Generator: Adobe Illustrator 24.0.0, SVG Export Plug-In . SVG Version: 6.00 Build 0)  -->
<svg version="1.1" id="Layer_1" xmlns="http://www.w3.org/2000/svg" xmlns:xlink="http://www.w3.org/1999/xlink" x="0px" y="0px"
	 viewBox="0 0 512 512" style="enable-background:new 0 0 512 512;" xml:space="preserve">
<path d="M465.9,65.9l-51.9-51.9c-9-9-21.2-14.1-33.9-14.1H208c-26.5,0-48,21.5-48,48v48H80c-26.5,0-48,21.5-48,48v320
	c0,26.5,21.5,48,48,48h224c26.5,0,48-21.5,48-48v-48h80c26.5,0,48-21.5,48-48V99.9C480,87.2,474.9,74.9,465.9,65.9z M298,464H86
	c-3.3,0-6-2.7-6-6V150c0-3.3,2.7-6,6-6h74v224c0,26.5,21.5,48,48,48h96v42C304,461.3,301.3,464,298,464z M426,368H214
	c-3.3,0-6-2.7-6-6V54c0-3.3,2.7-6,6-6h106v88c0,13.3,10.7,24,24,24h88v202C432,365.3,429.3,368,426,368z M432,112h-64V48h9.6
	c1.6,0,3.1,0.6,4.2,1.8l48.4,48.4c1.1,1.1,1.8,2.7,1.8,4.2V112z"/>
</svg>
