<?xml version="1.0" encoding="utf-8"?>
<!-- Generator: Adobe Illustrator 24.0.0, SVG Export Plug-In . SVG Version: 6.00 Build 0)  -->
<svg version="1.1" id="Layer_1" xmlns="http://www.w3.org/2000/svg" xmlns:xlink="http://www.w3.org/1999/xlink" x="0px" y="0px"
	 viewBox="0 0 512 512" style="enable-background:new 0 0 512 512;" xml:space="preserve">
<path d="M128,230.4v51.2h256v-51.2c0-28.2,23-51.2,51.2-51.2h25.6c0-42.4-34.4-76.8-76.8-76.8H128c-42.4,0-76.8,34.4-76.8,76.8h25.6
	C105,179.2,128,202.2,128,230.4z M460.8,204.8h-25.6c-14.2,0-25.6,11.4-25.6,25.6v76.8H102.4v-76.8c0-14.2-11.4-25.6-25.6-25.6H51.2
	C23,204.8,0,227.8,0,256c0,18.9,10.4,35.2,25.6,44.1v96.7c0,7,5.8,12.8,12.8,12.8h51.2c7,0,12.8-5.8,12.8-12.8V384h307.2v12.8
	c0,7,5.8,12.8,12.8,12.8h51.2c7,0,12.8-5.8,12.8-12.8v-96.7c15.2-8.9,25.6-25.2,25.6-44.1C512,227.8,489,204.8,460.8,204.8z"/>
</svg>
