<?xml version="1.0" encoding="utf-8"?>
<!-- Generator: Adobe Illustrator 24.0.0, SVG Export Plug-In . SVG Version: 6.00 Build 0)  -->
<svg version="1.1" id="Layer_1" xmlns="http://www.w3.org/2000/svg" xmlns:xlink="http://www.w3.org/1999/xlink" x="0px" y="0px"
	 viewBox="0 0 512 512" style="enable-background:new 0 0 512 512;" xml:space="preserve">
<path d="M168.2,226.1c-4.5-19.8-21.5-33-40.8-33H97.8c-5.7,0-10,3.6-11.4,8.7L58.5,305.9l19.8-0.1c5.4,0,9.8-3.6,11.4-8.6l20.6-76.6
	H126c6.7,0,13,4.5,14.6,11.8c2,8.7-4.7,18.1-14.6,18.1h-8.2c-5.6,0-10,3.7-11.4,8.6l-5.1,19h25.6
	C156.6,278.3,173.5,249.3,168.2,226.1L168.2,226.1z M43,248.5h14.9c5.5,0,9.9-3.5,11.4-8.7l5-18.9h-32c-18.3,0-35.1,11.3-41,32.9
	c-7,27,13.4,52.2,40.2,52.2h9.9l5.7-20.9c1-3.5-1.8-6.6-5.1-6.6h-9C23.2,278.4,23.1,248.5,43,248.5L43,248.5z M241,220.6h-62.3
	l-2.8,10.7c-1.9,7.7,3.6,14.8,11.4,14.8h46c3.2,0,1.9,3.4,1.7,4.2l-6.9,25.4c-0.3,1.1-0.7,4.2-4.4,4.2h-27.9c-4.2,0-4.2-6.3,0-6.3
	H213c5.4,0,9.8-3.7,11.4-8.6l2.8-10.6h-38.7c-31.4,0-34.9,51.1-0.6,51.1l46,0.2c9,0,16.5-5.8,18.7-14.2l11.2-41.4
	C267.7,234.7,256.1,220.6,241,220.6L241,220.6z M506.5,193.1h-15.1c-3.9,0-7.4,2.6-8.3,6.3l-28.5,106.5c16.6,0,31.8-11,35.9-27.6
	l21.2-78.6C512.7,196.3,510.1,193.1,506.5,193.1L506.5,193.1z M317.4,220.9L317.4,220.9l-38.6,0.1l-21,78.4c-1,3.5,1.8,6.6,5.1,6.6
	H278c3.8,0,7.4-2.4,8.3-6.2l13.8-51.2H316c10,0,17.1,9.4,14.5,18.7l-8.5,32c-1,3.4,1.5,6.6,5.1,6.6h15.3c3.7,0,7.3-2.3,8.2-6.2
	l7-26.5C364.9,246.7,345,220.9,317.4,220.9L317.4,220.9z M396.1,280.6c-2.9,0-4.8-2.7-4.1-5.4l6.4-24c0.7-3.1,3-4.8,6.2-4.8H431
	c2.1,0,3.7,1.9,3.1,4.1l-0.6,2.1c-0.5,1.6-1.5,2.4-3.1,2.4h-17.3c-5.6,0-10.1,3.7-11.4,8.6L399,274h42.7c8.4,0,16.2-5.3,18.6-14.1
	l2.6-9.6c3.9-15.3-7.4-29.4-22.6-29.4h-37.8c-14.3,0-27,9.6-30.9,23.7l-8.6,32c-4,14.2,6.6,29.4,22.6,29.4H439
	c5.4,0,9.8-3.6,11.4-8.6l4.6-16.8L396.1,280.6L396.1,280.6z"/>
<path d="M-631-150"/>
</svg>
