<?xml version="1.0" encoding="utf-8"?>
<!-- Generator: Adobe Illustrator 24.0.0, SVG Export Plug-In . SVG Version: 6.00 Build 0)  -->
<svg version="1.1" id="Layer_1" xmlns="http://www.w3.org/2000/svg" xmlns:xlink="http://www.w3.org/1999/xlink" x="0px" y="0px"
	 viewBox="0 0 512 512" style="enable-background:new 0 0 512 512;" xml:space="preserve">
<path d="M255.6,8C397.4,8,504,118.1,504,256c0,147.1-118.5,248-248.4,248C121.6,504,8,394.5,8,256C8,123.1,112.7,8,255.6,8z
	 M256.4,52.7C138.2,52.7,52.7,150.6,52.7,256c0,109.8,91.2,202.8,203.7,202.8c103.2,0,202.8-81.1,202.8-202.8
	C459.3,142.2,369,52.7,256.4,52.7L256.4,52.7z M256,113.2c-81.9,0-102.5,77.3-102.5,142.8S174.1,398.8,256,398.8
	S358.5,321.5,358.5,256S337.9,113.2,256,113.2L256,113.2z M256,167.1c3.3,0,6.4,0.5,9.2,1.2c5.9,5.1,8.8,12.1,3.1,21.9l-54.5,100.2
	c-1.7-12.7-1.9-25.1-1.9-34.4C211.9,227.2,213.9,167.1,256,167.1L256,167.1z M296.8,213.3c2.9,15.4,3.3,31.4,3.3,42.7
	c0,28.9-2,88.9-44.1,88.9c-13.5,0-32.6-7.7-20.1-26.4L296.8,213.3L296.8,213.3z"/>
</svg>
