<?xml version="1.0" encoding="utf-8"?>
<!-- Generator: Adobe Illustrator 24.0.0, SVG Export Plug-In . SVG Version: 6.00 Build 0)  -->
<svg version="1.1" id="Layer_1" xmlns="http://www.w3.org/2000/svg" xmlns:xlink="http://www.w3.org/1999/xlink" x="0px" y="0px"
	 viewBox="0 0 512 512" style="enable-background:new 0 0 512 512;" xml:space="preserve">
<path d="M255.7,8C111.6,8,8,124.8,8,256c0,136.3,111.7,248,247.7,248C385.9,504,504,403.1,504,256C504,117,396.4,8,255.7,8z
	 M256.3,458.7c-112,0-203.6-92.5-203.6-202.7c0-23.2,3.7-45.2,10.9-66l65.7,29.1h-4.7v29.5h23.3c0,6.2-0.4,3.2-0.4,19.5h-22.8v29.5
	h27c11.4,67,67.2,101.3,124.6,101.3c26.6,0,50.6-7.9,64.8-15.8l-10-46.1c-8.7,4.6-28.2,10.8-47.3,10.8c-28.2,0-58.1-10.9-67.3-50.2
	h90.3l128.3,56.8C433.6,356.5,378.9,458.7,256.3,458.7L256.3,458.7z M239.6,268.1l-0.5-0.4l0.9,0.4H239.6z M316.8,248.6h3.7v-29.5
	h-70.3l-28.6-12.6c2.5-5.5,5.4-10.5,8.8-14.3c12.9-15.8,31.1-22.4,51.1-22.4c18.3,0,35.3,5.4,46.1,10l11.6-47.3
	c-15-6.6-37-12.4-62.3-12.4c-39,0-72.2,15.8-95.9,42.3c-5.3,6.1-9.8,12.9-13.9,20.1l-81.6-36.1c64.6-96.8,157.7-93.6,170.7-93.6
	c113,0,203,90.2,203,203.4c0,18.7-2.1,36.3-6.3,52.9L316.8,248.6L316.8,248.6z"/>
</svg>
