<?xml version="1.0" encoding="utf-8"?>
<!-- Generator: Adobe Illustrator 24.0.0, SVG Export Plug-In . SVG Version: 6.00 Build 0)  -->
<svg version="1.1" id="Layer_1" xmlns="http://www.w3.org/2000/svg" xmlns:xlink="http://www.w3.org/1999/xlink" x="0px" y="0px"
	 viewBox="0 0 512 512" style="enable-background:new 0 0 512 512;" xml:space="preserve">
<path d="M255.6,8C397.4,8,504,118.1,504,256c0,147.1-118.5,248-248.4,248C121.6,504,8,394.5,8,256C8,123.1,112.7,8,255.6,8z
	 M256.4,52.7C138.2,52.7,52.7,150.6,52.7,256c0,109.8,91.2,202.8,203.7,202.8c103.2,0,202.8-81.1,202.8-202.8
	C459.3,142.2,369,52.7,256.4,52.7L256.4,52.7z M363.4,258.3c-4.7,0-9,2.8-10.7,7.2l-4,9.5l-11-92.8c-1.7-13.9-22-13.4-23.1,0.4
	l-4.3,51.4l-5.2-68.8c-1.1-14.3-22.1-14.2-23.2,0l-3.5,44.9l-5.9-94.3c-0.9-14.5-22.3-14.4-23.2,0l-5.1,83.7l-4.3-66.3
	c-0.9-14.4-22.2-14.4-23.2,0l-5.3,80.2l-4.1-57c-1.1-14.3-22-14.3-23.2-0.2l-7.7,89.8l-1.8-12.2c-1.7-11.4-17.1-13.6-22-3.3
	l-13.2,27.7H95.5v23.2h51.3c4.4,0,8.4-2.5,10.4-6.4l10.7,73.1c2,13.5,21.9,13,23.1-0.7l3.8-43.6l5.7,78.3
	c1.1,14.4,22.3,14.2,23.2-0.1l4.6-70.4l4.8,73.3c0.9,14.4,22.3,14.4,23.2-0.1l4.9-80.5l4.5,71.8c0.9,14.3,22.1,14.5,23.2,0.2
	l4.6-58.6l4.9,64.4c1.1,14.3,22,14.2,23.1,0.1l6.8-83l2.7,22.3c1.4,11.8,17.7,14.1,22.3,3.1l18-43.4h50.5V258L363.4,258.3
	L363.4,258.3z M285.4,263.5h-21.9v21.9c0,4.1-3.3,7.5-7.5,7.5c-4.1,0-7.5-3.3-7.5-7.5v-21.9h-21.9c-4.1,0-7.5-3.3-7.5-7.5
	c0-4.1,3.4-7.5,7.5-7.5h21.9v-21.9c0-4.1,3.4-7.5,7.5-7.5s7.5,3.3,7.5,7.5v21.9h21.9c4.1,0,7.5,3.3,7.5,7.5
	C292.9,260.1,289.5,263.5,285.4,263.5z"/>
</svg>
