<?xml version="1.0" encoding="utf-8"?>
<!-- Generator: Adobe Illustrator 24.0.0, SVG Export Plug-In . SVG Version: 6.00 Build 0)  -->
<svg version="1.1" id="Layer_1" xmlns="http://www.w3.org/2000/svg" xmlns:xlink="http://www.w3.org/1999/xlink" x="0px" y="0px"
	 viewBox="0 0 512 512" style="enable-background:new 0 0 512 512;" xml:space="preserve">
<path d="M255.6,8C397.4,8,504,118.1,504,256c0,147.1-118.5,248-248.4,248C121.6,504,8,394.5,8,256C8,123.1,112.7,8,255.6,8z
	 M256.4,52.7C138.2,52.7,52.7,150.6,52.7,256c0,109.8,91.2,202.8,203.7,202.8c103.2,0,202.8-81.1,202.8-202.8
	C459.3,142.2,369,52.7,256.4,52.7L256.4,52.7z M350.4,197v42.5H170.1V197H350.4z M350.4,276.8v42.5H170.1v-42.5H350.4z"/>
</svg>
