<?xml version="1.0" encoding="utf-8"?>
<!-- Generator: Adobe Illustrator 24.0.0, SVG Export Plug-In . SVG Version: 6.00 Build 0)  -->
<svg version="1.1" id="Layer_1" xmlns="http://www.w3.org/2000/svg" xmlns:xlink="http://www.w3.org/1999/xlink" x="0px" y="0px"
	 viewBox="0 0 512 512" style="enable-background:new 0 0 512 512;" xml:space="preserve">
<path d="M256,8C119,8,8,119.1,8,256c0,137,111,248,248,248s248-111,248-248C504,119.1,393,8,256,8z M256,457.5
	c-139.2,0-235.8-138-190.2-267.9l78.8,35.1c-2.1,10.5-3.3,21.5-3.3,32.9c0,99,73.9,126.9,120.4,126.9c22.9,0,53.5-6.7,79.4-29.5
	L305,311.1c-5.5,6.3-17.6,16.7-36.3,16.7c-37.8,0-53.7-39.9-53.9-71.9c230.4,102.6,216.5,96.5,217.9,96.8
	C398.4,415.1,332.1,457.5,256,457.5L256,457.5z M450.2,307.5l-224-100c18.8-34,54.9-30.7,74.7-11l40.4-41.6
	c-27.1-23.3-58-27.5-78.1-27.5c-47.4,0-80.9,20.5-100.7,51.6l-74.9-33.4c36.1-54.9,98.1-91.2,168.5-91.2
	c111.1,0,201.5,90.4,201.5,201.5c0,18-2.4,35.4-6.8,52C450.5,307.8,450.4,307.7,450.2,307.5L450.2,307.5z"/>
</svg>
