<?xml version="1.0" encoding="utf-8"?>
<!-- Generator: Adobe Illustrator 24.0.0, SVG Export Plug-In . SVG Version: 6.00 Build 0)  -->
<svg version="1.1" id="Layer_1" xmlns="http://www.w3.org/2000/svg" xmlns:xlink="http://www.w3.org/1999/xlink" x="0px" y="0px"
	 viewBox="0 0 512 512" style="enable-background:new 0 0 512 512;" xml:space="preserve">
<path d="M255.6,8C112.7,8,8,123.1,8,256c0,138.5,113.6,248,247.6,248C385.5,504,504,403.1,504,256C504,118.1,397.4,8,255.6,8z
	 M256.4,458.8c-112.5,0-203.7-93-203.7-202.8c0-105.4,85.5-203.3,203.7-203.3c112.6,0,202.9,89.5,202.8,203.3
	C459.2,377.7,359.6,458.8,256.4,458.8z M324.7,186h-53.2v137.2h53.2c21.4,0,70-5.1,70-68.6C394.7,191.2,346.1,186,324.7,186z
	 M325.5,294.5h-19.9v-79.7l19.4-0.1c3.8,0,35-2.1,35,39.9C360,279.2,349.5,294.5,325.5,294.5z M211.7,186h-68.2v137.3h34.6V279h27
	c54.1,0,57.1-37.5,57.1-46.5C262.2,201.5,245.4,186,211.7,186L211.7,186z M206.8,253.3h-29.2v-41.6h28.3
	C236.8,211.7,234.7,253.3,206.8,253.3L206.8,253.3z"/>
</svg>
