<?xml version="1.0" encoding="utf-8"?>
<!-- Generator: Adobe Illustrator 24.0.0, SVG Export Plug-In . SVG Version: 6.00 Build 0)  -->
<svg version="1.1" id="Layer_1" xmlns="http://www.w3.org/2000/svg" xmlns:xlink="http://www.w3.org/1999/xlink" x="0px" y="0px"
	 viewBox="0 0 512 512" style="enable-background:new 0 0 512 512;" xml:space="preserve">
<path d="M255.7,8C111.6,8,8,124.8,8,256c0,136.4,111.8,248,247.7,248C385.9,504,504,403.2,504,256C504,117.2,396.5,8,255.7,8z
	 M256.3,458.7c-112,0-203.6-92.5-203.6-202.7c0-21.1,3-41.2,9-60.3l127,56.5h-27.9v38.6h58.1l5.7,11.8v18.7h-63.8V360h63.8v56h61.7
	v-56h64.2v-35.7l81,36.1C430,362.6,374.4,458.7,256.3,458.7z M343.9,321.4h-57.6v-18.7l2.9-5.6L343.9,321.4L343.9,321.4z M350.4,270
	v-17.8h-38.6l63-116H309l-43.4,96l-23-10.2L203,136.3h-65.8l27.3,51l-81.9-36.5c27.8-44.1,82.6-98.1,173.7-98.1
	c112.8,0,203,90,203,203.4c0,21-2.7,40.6-7.9,59L350.4,270z"/>
</svg>
