<?xml version="1.0" encoding="utf-8"?>
<!-- Generator: Adobe Illustrator 24.0.0, SVG Export Plug-In . SVG Version: 6.00 Build 0)  -->
<svg version="1.1" id="Layer_1" xmlns="http://www.w3.org/2000/svg" xmlns:xlink="http://www.w3.org/1999/xlink" x="0px" y="0px"
	 viewBox="0 0 512 512" style="enable-background:new 0 0 512 512;" xml:space="preserve">
<path d="M253.8,214.9l-33.2,17.3c-9.4-19.6-25.2-19.9-27.5-19.9c-22.1,0-33.2,14.6-33.2,43.8c0,23.6,9.2,43.8,33.2,43.8
	c14.5,0,24.6-7.1,30.6-21.3l30.6,15.5c-6.2,11.5-25.7,39-65.1,39c-22.6,0-74-10.3-74-77c0-58.7,43-77.1,72.6-77.1
	C218.6,179,240.5,191,253.8,214.9L253.8,214.9z M396.9,214.9l-32.8,17.3c-9.5-19.8-25.7-19.9-27.9-19.9c-22.1,0-33.2,14.6-33.2,43.8
	c0,23.5,9.2,43.8,33.2,43.8c14.5,0,24.6-7.1,30.5-21.3l31,15.5c-2.1,3.8-21.4,39-65.1,39c-22.7,0-74-9.9-74-77
	c0-58.7,43-77.1,72.6-77.1C362,179,383.9,191,396.9,214.9L396.9,214.9z M255.6,8.1C112.7,8.1,8,123.1,8,256
	c0,138.5,113.6,248,247.6,248C385.5,504,504,403.2,504,256C504,118.2,397.4,8,255.6,8.1L255.6,8.1z M256.4,458.9
	c-112.5,0-203.7-93-203.7-202.8c0-105.4,85.4-203.3,203.7-203.3c112.5,0,202.8,89.5,202.8,203.3
	C459.3,377.7,359.6,458.9,256.4,458.9L256.4,458.9z"/>
</svg>
