<?xml version="1.0" encoding="utf-8"?>
<!-- Generator: Adobe Illustrator 24.0.0, SVG Export Plug-In . SVG Version: 6.00 Build 0)  -->
<svg version="1.1" id="Layer_1" xmlns="http://www.w3.org/2000/svg" xmlns:xlink="http://www.w3.org/1999/xlink" x="0px" y="0px"
	 viewBox="0 0 512 512" style="enable-background:new 0 0 512 512;" xml:space="preserve">
<path d="M322.9,194.4v101.4h-28.3v120.5h-77.1V295.9h-28.3V194.4c0-4.4,1.6-8.2,4.6-11.3c3.1-3.1,6.9-4.7,11.3-4.7H307
	c4.1,0,7.8,1.6,11.1,4.7C321.2,186.3,322.9,190,322.9,194.4z M221.4,130.7c0-23.3,11.5-35,34.5-35s34.5,11.7,34.5,35
	c0,23-11.5,34.5-34.5,34.5S221.4,153.7,221.4,130.7z M255.6,8C397.4,8,504,118.1,504,256c0,147.1-118.5,248-248.4,248
	C121.6,504,8,394.5,8,256C8,123.1,112.7,8,255.6,8z M256.4,52.7C138.2,52.7,52.7,150.6,52.7,256c0,109.8,91.2,202.8,203.7,202.8
	c103.2,0,202.8-81.1,202.8-202.8C459.3,142.2,369,52.7,256.4,52.7L256.4,52.7z"/>
</svg>
