<?xml version="1.0" encoding="utf-8"?>
<!-- Generator: Adobe Illustrator 24.0.0, SVG Export Plug-In . SVG Version: 6.00 Build 0)  -->
<svg version="1.1" id="Layer_1" xmlns="http://www.w3.org/2000/svg" xmlns:xlink="http://www.w3.org/1999/xlink" x="0px" y="0px"
	 viewBox="0 0 512 512" style="enable-background:new 0 0 512 512;" xml:space="preserve">
<path d="M255.6,8C395.4,8,504,115.9,504,256c0,147.2-118.5,248-248.4,248C121.1,504,8,393.2,8,256C8,123.1,112.7,8,255.6,8z
	 M63.8,189.1c-7.4,20.4-11.1,42.7-11.1,66.9c0,110.9,92.1,202.4,203.7,202.4c122.4,0,177.2-101.8,178.5-104.1l-93.4-41.6
	c-7.7,37.1-41.2,53-68.2,55.4v38.1h-28.8V368c-27.5-0.3-52.6-10.2-75.3-29.7l34.1-34.5c31.7,29.4,86.4,31.8,86.4-2.2
	c0-6.2-2.2-11.2-6.6-15.1C268.9,280.5,281.3,286.4,63.8,189.1L63.8,189.1z M256.4,52.3c-38.4,0-112.4,8.7-170.5,93l94.8,42.5
	c10-31.3,40.4-42.9,63.8-44.3v-38.1h28.8v38.1c22.7,1.2,43.4,8.9,62,23L303,199.7c-42.7-29.9-83.5-8-70,11.1
	c53.4,24.1,43.8,19.8,93,41.6l127.1,56.7c4.1-17.4,6.2-35.1,6.2-53.1c0-57-19.8-105-59.3-143.9C360.7,72.2,312.8,52.3,256.4,52.3
	L256.4,52.3z"/>
</svg>
