<?xml version="1.0" encoding="utf-8"?>
<!-- Generator: Adobe Illustrator 24.0.0, SVG Export Plug-In . SVG Version: 6.00 Build 0)  -->
<svg version="1.1" id="Layer_1" xmlns="http://www.w3.org/2000/svg" xmlns:xlink="http://www.w3.org/1999/xlink" x="0px" y="0px"
	 viewBox="0 0 512 512" style="enable-background:new 0 0 512 512;" xml:space="preserve">
<path d="M0,412.4c0,23.6,19.1,42.7,42.7,42.7h426.7c23.6,0,42.7-19.1,42.7-42.7V256H0V412.4z M170.7,352c0-5.9,4.8-10.7,10.7-10.7
	h120.9c5.9,0,10.7,4.8,10.7,10.7v35.6c0,5.9-4.8,10.7-10.7,10.7H181.3c-5.9,0-10.7-4.8-10.7-10.7V352z M56.9,352
	c0-5.9,4.8-10.7,10.7-10.7h64c5.9,0,10.7,4.8,10.7,10.7v35.6c0,5.9-4.8,10.7-10.7,10.7h-64c-5.9,0-10.7-4.8-10.7-10.7V352z
	 M512,99.6v42.7H0V99.6C0,76,19.1,56.9,42.7,56.9h426.7C492.9,56.9,512,76,512,99.6z"/>
</svg>
