<?xml version="1.0" encoding="utf-8"?>
<!-- Generator: Adobe Illustrator 24.0.0, SVG Export Plug-In . SVG Version: 6.00 Build 0)  -->
<svg version="1.1" id="Layer_1" xmlns="http://www.w3.org/2000/svg" xmlns:xlink="http://www.w3.org/1999/xlink" x="0px" y="0px"
	 viewBox="0 0 512 512" style="enable-background:new 0 0 512 512;" xml:space="preserve">
<path d="M469.2,56.9H42.8C19.1,56.9,0,76,0,99.6v312.9c0,23.6,19.1,42.7,42.8,42.7h426.5c23.6,0,42.8-19.1,42.8-42.7V99.6
	C512,76,492.9,56.9,469.2,56.9L469.2,56.9z M48.1,99.6h415.8c2.9,0,5.3,2.4,5.3,5.3v37.3H42.8v-37.3C42.8,102,45.2,99.6,48.1,99.6z
	 M463.9,412.4H48.1c-2.9,0-5.3-2.4-5.3-5.3V256h426.5v151.1C469.2,410,466.8,412.4,463.9,412.4z M170.7,323.6v35.6
	c0,5.9-4.8,10.7-10.7,10.7H96c-5.9,0-10.7-4.8-10.7-10.7v-35.6c0-5.9,4.8-10.7,10.7-10.7h64C165.9,312.9,170.7,317.7,170.7,323.6z
	 M341.3,323.6v35.6c0,5.9-4.8,10.7-10.7,10.7H209.8c-5.9,0-10.7-4.8-10.7-10.7v-35.6c0-5.9,4.8-10.7,10.7-10.7h120.9
	C336.5,312.9,341.3,317.7,341.3,323.6z"/>
</svg>
