<?xml version="1.0" encoding="utf-8"?>
<!-- Generator: Adobe Illustrator 24.0.0, SVG Export Plug-In . SVG Version: 6.00 Build 0)  -->
<svg version="1.1" id="Layer_1" xmlns="http://www.w3.org/2000/svg" xmlns:xlink="http://www.w3.org/1999/xlink" x="0px" y="0px"
	 viewBox="0 0 512 512" style="enable-background:new 0 0 512 512;" xml:space="preserve">
<path d="M257.8,0c0.3,0.2,216.6,124.5,217.1,124.7c3,1.2,3.7,3.5,3.7,6.6c-0.1,83.4-0.1,166.9,0,250.4c0.2,2.4-1.2,4.7-3.4,5.8
	c-21.4,12-207.9,118.3-218.9,124.6h-3C174,466.3,35.1,386.6,34.9,386.5c-1.2-0.6-2-1.9-1.9-3.2c0-0.9,0-225.9,0-253.1
	c-0.2-2.1,1-4.1,2.9-4.9C59.2,112.1,245.2,6,256.1,0H257.8z M247.4,20.4l-0.2-0.2C182.4,57.1,117.7,94,53,130.9
	c0,0.1,0.1,0.2,0.1,0.4L84,142.9c-7.7,6-8.3,6-10.7,5.1c-0.1,0-24.2-9.3-26.8-10v230.4c0.9-1.4,64.1-110.9,64.1-111
	c1.6-2.8,3-1.9,9.1-1.5c1.4,0.1,1.5,0.2,0.8,1.4c-41.2,71.3-36.4,63-67.5,116.9c-0.8,1.4-0.6,1.1,1.3,1.1h186.5
	c1.4,0,1.7-0.2,1.7-1.6v-8.9c0-1.3,2.4-0.8-18.4-1c-7.5-0.1-14.1-3.2-21.4-12.7c-7.4-9.7-14.6-19.4-21.9-29.2
	c-2.3-3.1-3.4-2.4-16.8-2.4c-1.8,0-1.8,0-1.8,1.8c0.3,26.2,0.1,25.3,1,32.7c0.5,4.4,2.2,4.2,9.7,4.8c3.1,0.3,3.9,4.1,0.5,4.9
	c-1.6,0.4-31.6,0.5-33.7-0.1c-1.3-0.4-2-1.7-1.7-3c0.3-0.9,1-1.6,2-1.8c3.3-0.8,6.2,0.8,6.7-4.4c1.3-13.7,1.2-9,1.1-79.4
	c0-10.8-0.4-12.6-5.4-13.5c-1.2-0.2-3.5-0.2-4.7-0.5c-2.9-1-2-4.8,1.8-4.9c33.7,0,46.1-1.1,56.1,4.9c7.7,4.6,12,11.5,12.5,20.4
	c0.9,14.6-6.5,22.4-15,32.6c-0.6,0.5-0.7,1.4-0.2,2.1c0,0.1,0.1,0.1,0.2,0.2c2.6,3.3,5,6.6,7.7,9.8c27.6,33.2,24.1,30.5,41.3,33.1
	c0.9,0.1,1-0.4,1-1.1v-11c0-1,0.3-1.4,1.4-1.3c7.8,1.2,15.8,1.1,23.6-0.3c1.1-0.1,1.5,0.2,1.5,1.3c0,0.1,0.9,26.7,0.9,26.8
	c-0.1,1.5,0.7,1.6,1.9,1.6h186.7c-27.2-47-54.2-94-81.2-140.8c2.3-0.7-0.4,0,6.7-1.4c2-0.4,2-0.4,3.1,1.4
	c7.3,12.6,77.3,134,77.4,134.1V138c-1.7,0.5-103.3,38.7-105.8,39.7c-1.1,0.4-1.5,0.2-1.9-0.9c-0.6-1.9-1.3-3.8-2.1-5.6
	c-0.3-0.8-0.1-1.1,0.6-1.4c0.1,0,95.5-35.8,103-38.8c-65.4-37.6-130.6-75-196-112.6l86.8,150.4l-0.3,0.3c-9.6-0.9-10.5-1.6-11.8-3.9
	c-1-1.7-73.5-127.7-82-142.2c-9.1,14.7-83.6,146.2-85.4,146.3c-2.9,0.2-5.9,0.1-9.3,0.1C190,119.6,218.7,69.9,247.4,20.4L247.4,20.4
	z M299.3,150.3c1.9-0.1,3.7-0.4,5.5-0.9c1.7-0.3,2.5,0.2,2.6,1.9c0,0.1,0.1,19.1-0.9,20.4s-1.9,1.2-2.6-0.2c-5-9.7,6.2-9.7-39.1-12
	c-0.7,0-1,0.2-1,0.9c0,0.1,3.7,122,3.7,122.1c0,0.9,0.5,1.2,1.2,1.5c3,1.2,5.9,2.5,8.7,4c7.3,4.3,11.4,10.8,12.4,19.3
	c1.4,11.8-2.8,35.8-32.2,37.1c-2.8,0.1-28.3,1.1-34.1-23.3c-4.7-19.3,8.3-32.7,19.9-36.4c1.3-0.2,2.1-1.4,2-2.7
	c0.1-5.6,3-107.1,3.7-121.4c0.1-1.1-0.6-1.2-1.4-1.1c-32.3,0.5-36.8-0.3-40.2,8.5c-2.4,6.2-4.1,1.3-3.9,0.2c1.1-6,2.2-12,3.3-18
	c0.4-2.1,1.4-2.6,3.4-1.9c5.6,2.1,6.7,1.7,37.3,1.9c1.7,0,1.8-0.1,1.8-1.9c0.7-27.5,0.6-22.6,1-29.6c0.1-1.2-0.5-2.3-1.6-2.8
	c-5.6-2.9-8.8-7.6-8.9-13.9c-0.4-14.8,17.7-21.7,27.4-11.5c6.8,7.2,5.8,18.9-2.5,24.2c-1.6,0.9-2.4,2.6-2.2,4.3
	c0,0.6-0.1-4.3,1,30.1c0,0.9,0.4,1.1,1.2,1.1C265,150.8,287.9,150.7,299.3,150.3L299.3,150.3z M100.3,141.7
	c19.8-4.5,32.7-0.6,52.5,1.7c2.8,0.3,3.7,1.2,3.6,4c-0.2,5-1.2,22.3-1.2,23.1c0,1-0.7,1.9-1.6,2.3c-4.1,1.7-3.6-4.4-4-7.3
	c-3.1-22.4-73.9-32.7-74.6,25.4c-0.3,23.9,17,53.6,54.1,50.9c27.2-2,19-20.2,24.8-20.5c1.5-0.2,2.9,0.8,3.1,2.3c0,0.3,0,0.7-0.1,1
	c-1.8,10.9-3.4,18.9-3.4,19.1c-1.5,9.2-86.7,22.1-93.3-42.1C57.3,176,70.4,148.5,100.3,141.7L100.3,141.7z M180.3,229.4h-19.5
	c-1.2,0.1-2.3-0.6-2.7-1.8c2.4-3.8,5.9,0.9,5.9-6.1c-0.1-25.8,0.2-38,0.2-40.1c0-3.4-0.5-4.6-3.3-4.9c-7-0.7-3.1-3.4-1.1-3.4
	c11.8-0.1,22.6-0.2,30.1,0.7c8.8,1.1,16.7,12.6,7.9,22.6c-2,2.3-4,4.4-6.1,6.7c0.9,1.1,6.9,8.8,17.3,19.7c2.7,2.8,6.1,3.5,9.9,3.1
	c1.2,0,2.2-0.9,2.2-2.1c0.3-3.4,0.3,4.7,0.4-40.6c0-5.6-0.3-6.6-3.2-6.8c-3.9-0.4-4-2.3-0.7-3.4l19.1-0.1c0.3,0,4.5,0.5,1,3.4
	c0,0.1-0.2,0-0.2,0c-3.6,0.3-3.9,1-4,4.6c-0.3,43.9,0.1,40.2,0.4,42.8c0.1,0.8,0.3,2.2,5.1,2.1c2.5,0,3.9,3.4,0,3.4
	c-10.4,0.1-20.7,0-31.1,0.1c-10.7,0-13.5-6.2-24.2-20.8c-1.6-2.2-8.3-2.4-8.2-0.4c0.9,16.5,0,17.8,4,17.7
	C184.1,225.7,184.1,229.4,180.3,229.4L180.3,229.4z M455.3,219.2c-1.2,7.1,0.2,10.4-5.3,10.3c-61.5-0.4-47.8-0.2-50.7-0.3
	c-1.2-0.1-2.4-0.4-3.6-0.7c-2.5-0.6,1.5-1.2-0.4-5.6c-1.4-3.4-2.8-6.8-4.1-10.2c-0.2-0.9-1.1-1.5-2-1.4c-4.9-0.2-9.7-0.2-14.6,0.1
	c-0.7,0.1-1.3,0.5-1.6,1.1c-1.6,3.6-3.1,7.3-4.5,11c-1.3,3.2,7.9,1.3,12.2,2.2c3,0.6,4.5,3.7,0.7,3.7h-26.4c-2.9,0-3.1-3.1-0.7-3.2
	c2.5,0.1,4.8-1.2,5.9-3.5c1.5-3,2.8-6,4.1-9.1c18.2-42.1,17.1-40.2,18.4-41.6c0.6-0.8,1.7-1,2.5-0.5c0.2,0.1,0.3,0.3,0.5,0.5
	c2.9,3.3,18.4,44.7,23.6,51.9c2,2.7,5.7,2,6.4,2c3.6,0.1,4-1.1,4.1-4.3c0.1-1.9,0.1,1.2,0.1-41.2c0-4.5-2.4-3.7-5.5-4.3
	c-0.3,0-2.6-0.6-0.1-3.1c0.2-0.2-0.9-0.2,21.7-0.1c2.3,0,5.3,2.8-1.2,3.4c-1.4-0.1-2.6,1-2.7,2.4c0,0.1,0,0.3,0,0.4
	c-0.1,1.6-0.2,38.9,0.3,41.2c0.3,1.5,1.7,2.5,3.2,2.4c13.3,0.4,14.9,0.4,16-3.4C453.2,213.6,455.6,216.8,455.3,219.2L455.3,219.2z
	 M350.5,283.6c-4.2,0-4.4-3.4-0.6-3.4c35.9-0.2,28.1,0.4,37.2-0.6c1.7-0.2,2.4,0.2,2.3,1.9c-0.3,3.4-0.6,6.8-1,10.2
	c-0.3,2.2-3.2,2.6-3.4-0.1c-0.4-5.3-2.1-4.5-15.6-5.1c-1.6-0.1-1.6,0-1.6,1.5V304c0,1.6,0,1.6,1.6,1.5c3.1-0.3,10.3,0.3,15.7-1.5
	c0.5-0.2,3.3-1.8,3.1,1.8c0,0.2-0.8,10.4-1.2,11.4c-0.5,1.3-1.9,1.5-2.6,0.3c-1.2-2,0-5.1-3.7-5.3c-15.4-0.9-12.9-2.5-12.9,6
	c0,12.3-0.8,16.1,3.9,16.2c16.6,0.5,14.4,0,16.4-5.7c0.8-2.4,3.5-1.8,3.2,0.6c-0.4,3.2-0.9,6.4-1.2,9.6c0,0.4-0.2,2.4-4.7,2.4
	c-37.2-0.1-34.5-0.2-35.2-0.3c-2.7-0.5-2.2-3,0.2-3.5c1.1-0.2,4,0.5,4.2-2.6C356.9,278.7,354.4,283.6,350.5,283.6L350.5,283.6z
	 M350.1,174.1c2.5,0.6,3.1,1.8,3,4.6c-0.3,5.3-0.3,9-0.5,9.7c-0.7,2.2-3.1,2.1-3.3-0.3c-0.4-4.8-3-7.8-7.6-9.1
	c-26.3-7.7-32.8,15.5-27.2,30.2c5.9,15.4,22,15.9,28.9,13.8c5.9-1.9,5.9-6.5,6.9-7.6c1.2-1.3,2.3-1.8,3.1,1.1c0,0.1,0.6,11.9-6,12.8
	c-1.6,0.2-19.4,3.7-32.7-3.4c-21-11.2-16.7-35.5-6.9-45.3C321.8,166.5,347.7,173.5,350.1,174.1L350.1,174.1z M321.8,280.1
	c3.3,0,3.7,3,0.2,3.4c-2.6,0.3-5-0.4-5,5.5c0,2-0.2,29,0.4,41.5c0.1,2.3,1.1,3.5,3.4,3.6c22,1.2,15-1.6,18.8-6.3
	c1.8-2.2,2.8,0.8,2.8,1.1c0.4,13.6-4,12.4-5.2,12.4l-38.2-0.2c-1.9-0.2-2.1-3-0.4-3.4c2-0.5,4.9,0.4,5.1-2.8
	c1-15.9,0.6-44.6,0.3-47.8c-0.3-3.8-2.8-3.3-5.7-3.7c-2.5-0.4-2-3.2,0.3-3.2C300.2,280.1,316.7,280.1,321.8,280.1z M290.2,222.4
	c0.1,4.1,2.9,3.5,6,3.6c2.6,0.1,2.5,3.4-0.1,3.4c-6.5,0-13.7,0-21.6-0.1c-3.8,0-3.4-3.4,0-3.4c4.5,0,3.2,1.6,3.4-45.5
	c0-5.1-3.3-3.5-4.7-4.2c-2.6-1.2-1.4-3.1,0.4-3.1c1.3,0,20.2-0.4,21.2,0.2s1.9,1.6-0.4,2.9c-1,0.5-3.9-0.3-4.1,2.5
	C290.2,178.8,289.4,180.2,290.2,222.4L290.2,222.4z M253.3,496.6c1,0.7,2.3,0.7,3.3,0c17-9.8,182-103.6,197.4-112.5
	c-0.1-0.4,11.3-0.2-181.5-0.3c-1.2,0-1.6,0.4-1.5,1.6c0,0.1,1.3,44.5,1.2,50.4c-0.1,2.6-0.6,5.2-1.4,7.7c-0.6,1.8,0.4-0.5-13.5,32.2
	c-0.7,1.7-1,2.2-2-0.1c-4.2-10.3-8.3-20.7-12.6-31c-1.5-3.4-2.2-7.1-2-10.8c0.2-2.5,0.8-16.1,1.5-48c0-2,0-2-2-2h-183
	C59.8,385.5,235.5,486.4,253.3,496.6L253.3,496.6z M162.4,307.9c0,2.4,0.4,2.8,2.8,3c11.5,1.2,21,3.7,25.6-7.3
	c6-14.5,2.7-34.4-12.5-38.8c-2-0.6-16-2.8-15.9,1.5C162.4,274.3,162.3,277.8,162.4,307.9z M268.1,292.8c0,2.1,1.1,38.7,1.1,39.1
	c0.3,9.9-25.6,5.8-25.2-2.6c0.1-2,1.4-37.4,1.1-39.4c-14.1,7.4-14.4,40.2,6.4,48.8c8.2,3.6,17.7,0.5,22.4-7.1
	c4.9-7.8,6.8-29.5-5.4-39C268.4,292.7,268.2,292.7,268.1,292.8L268.1,292.8z M255.8,94.8c-9.8,0-9.7,14.8-0.1,14.9
	C265.4,109.8,265.9,94.8,255.8,94.8L255.8,94.8z M175.7,198.7c0,1.8,0.4,2.4,2.2,2.6c13.6,1.4,12.5-11,12.2-13.4
	c-1.7-11.2-14.4-10.2-14.4-7.8C175.7,184.6,175.6,193.7,175.7,198.7z M388,205.1l-6.1-15.8c-2.2,5.5-4.2,10.6-6.2,15.8H388z"/>
</svg>
