<?xml version="1.0" encoding="utf-8"?>
<!-- Generator: Adobe Illustrator 24.0.0, SVG Export Plug-In . SVG Version: 6.00 Build 0)  -->
<svg version="1.1" id="Layer_1" xmlns="http://www.w3.org/2000/svg" xmlns:xlink="http://www.w3.org/1999/xlink" x="0px" y="0px"
	 viewBox="0 0 512 512" style="enable-background:new 0 0 512 512;" xml:space="preserve">
<path d="M435.2,76.8h-13.1c-11.7-15.4-30-25.6-50.9-25.6c-35.4,0-64,28.6-64,64V132L9.7,366.1C3.6,370.6,0,377.8,0,385.4
	c0,18,18.9,29.7,35,21.6l97.3-48.6h77.2l35.5,96.1c1.8,5,7.3,7.5,12.3,5.8l18-6.6c5-1.8,7.5-7.3,5.8-12.3l-30.7-83h31.3
	c1.5,0,3-0.2,4.6-0.2l35.6,96.3c1.8,5,7.3,7.5,12.3,5.8l18-6.6c5-1.8,7.5-7.3,5.8-12.3l-33-89.3c63.8-18.6,110.4-77.5,110.4-147.3
	v-64L512,128C512,99.8,477.6,76.8,435.2,76.8z M371.2,134.4c-10.6,0-19.2-8.6-19.2-19.2c0-10.6,8.6-19.2,19.2-19.2
	c10.6,0,19.2,8.6,19.2,19.2S381.8,134.4,371.2,134.4z"/>
</svg>
