<?xml version="1.0" encoding="utf-8"?>
<!-- Generator: Adobe Illustrator 24.0.0, SVG Export Plug-In . SVG Version: 6.00 Build 0)  -->
<svg version="1.1" id="Layer_1" xmlns="http://www.w3.org/2000/svg" xmlns:xlink="http://www.w3.org/1999/xlink" x="0px" y="0px"
	 viewBox="0 0 512 512" style="enable-background:new 0 0 512 512;" xml:space="preserve">
<path d="M422.4,409.6H89.6c-7,0-12.8,5.8-12.8,12.8V448c0,7,5.8,12.8,12.8,12.8h332.8c7,0,12.8-5.8,12.8-12.8v-25.6
	C435.2,415.4,429.4,409.6,422.4,409.6z M473.6,153.6c-21.2,0-38.4,17.2-38.4,38.4c0,5.7,1.3,11,3.5,15.8l-57.9,34.7
	c-12.3,7.4-28.2,3.2-35.4-9.3l-65.2-114.1c8.6-7,14.2-17.6,14.2-29.6c0-21.2-17.2-38.4-38.4-38.4s-38.4,17.2-38.4,38.4
	c0,12,5.6,22.6,14.2,29.6l-65.2,114.1c-7.1,12.5-23.1,16.6-35.4,9.3l-57.8-34.7c2.2-4.8,3.5-10.2,3.5-15.8
	c0-21.2-17.2-38.4-38.4-38.4S0,170.8,0,192s17.2,38.4,38.4,38.4c2.1,0,4.2-0.3,6.2-0.6L102.4,384h307.2l57.8-154.2
	c2,0.3,4.1,0.6,6.2,0.6c21.2,0,38.4-17.2,38.4-38.4S494.8,153.6,473.6,153.6z"/>
</svg>
