<?xml version="1.0" encoding="utf-8"?>
<!-- Generator: Adobe Illustrator 24.0.0, SVG Export Plug-In . SVG Version: 6.00 Build 0)  -->
<svg version="1.1" id="Layer_1" xmlns="http://www.w3.org/2000/svg" xmlns:xlink="http://www.w3.org/1999/xlink" x="0px" y="0px"
	 viewBox="0 0 512 512" style="enable-background:new 0 0 512 512;" xml:space="preserve">
<path d="M310.1,256L476.5,89.6c4.7-4.7,4.7-12.3,0-17c-32.8-32.8-86-32.8-118.8,0L242.2,188.1l-24.9-24.9
	c4.3-10.9,6.7-22.8,6.7-35.3c0-53-43-96-96-96s-96,43-96,96s43,96,96,96c4.5,0,9-0.3,13.4-0.9l32.9,32.9l-32.9,32.9
	c-4.4-0.6-8.8-0.9-13.4-0.9c-53,0-96,43-96,96s43,96,96,96s96-43,96-96c0-12.5-2.4-24.3-6.7-35.3l24.9-24.9l115.5,115.5
	c32.8,32.8,86,32.8,118.8,0c4.7-4.7,4.7-12.3,0-17L310.1,256z M128,160c-17.6,0-32-14.4-32-32s14.4-32,32-32s32,14.4,32,32
	S145.6,160,128,160z M128,416c-17.6,0-32-14.4-32-32s14.4-32,32-32s32,14.4,32,32S145.6,416,128,416z"/>
</svg>
