<?xml version="1.0" encoding="utf-8"?>
<!-- Generator: Adobe Illustrator 24.0.0, SVG Export Plug-In . SVG Version: 6.00 Build 0)  -->
<svg version="1.1" id="Layer_1" xmlns="http://www.w3.org/2000/svg" xmlns:xlink="http://www.w3.org/1999/xlink" x="0px" y="0px"
	 viewBox="0 0 512 512" style="enable-background:new 0 0 512 512;" xml:space="preserve">
<path d="M380,305.5c-17.5,31.6-57.4,54.5-96,54.5c-56.6,0-104-47.4-104-104s47.4-104,104-104c38.6,0,78.5,22.9,96,54.5
	c13.7-50.9,41.7-93.3,87-117.8C421.7,39.1,356.5,8,284,8C147,8,36,119,36,256s111,248,248,248c72.5,0,137.7-31.1,183-80.7
	C421.7,398.8,393.7,356.4,380,305.5z"/>
</svg>
