<?xml version="1.0" encoding="utf-8"?>
<!-- Generator: Adobe Illustrator 24.0.0, SVG Export Plug-In . SVG Version: 6.00 Build 0)  -->
<svg version="1.1" id="Layer_1" xmlns="http://www.w3.org/2000/svg" xmlns:xlink="http://www.w3.org/1999/xlink" x="0px" y="0px"
	 viewBox="0 0 512 512" style="enable-background:new 0 0 512 512;" xml:space="preserve">
<path d="M58.1,104.7C57.5,88.1,60,72.2,70.3,58.3c0.3,7.1,1.2,14,4,20.8C80,52.6,93.3,31.6,115,16c-1.8,5.7-3.4,11.4-2.9,17
	c8.4-7.1,18.1-17.1,42.8-21.9c14.2-2.7,28.6-1.9,40.5,1c37.1,9,58.7,33,67.1,69.6c5.1,22.2,0.7,43.3-8,63.9
	c-5,11.9-11.6,23.5-19.9,33.8c-1.9-1.8-3.8-3.7-5.6-5.4c-41.2-39.3-25.8-24.3-36-36c-1.1-1.2-1-2.1-0.1-3.5c8-13,11.4-27.2,9.6-42.4
	c-1.1-9.4-4.1-18.2-10.9-25.2c-14-14.7-37.7-14.4-51.5,0.6c-11,12-13.6,26.4-10.5,42c0.2,1.3,0.4,2.6,0,3.8
	c-3.3,13.2-4.4,26.6-2.4,40.1c0.1,0.5,0.1,1.1,0.1,1.5c0,0.3-0.1,0.5-0.2,1.1c-21-10.6-34.7-27.3-41.6-50.3
	c-8,17.1-10.7,34.2-6.4,52.1C64.3,143.2,58.8,124.9,58.1,104.7L58.1,104.7z M510.3,223.4c-11.2-11.2-24.1-19.6-38.6-25.6
	c-12.3-5-25-7.6-38.4-6.8c-9.6,0.6-18.9,3-27.9,6.2c-2.4,0.9-4.9,1.5-7.4,2.1c-4.7,1.2-7-3-4.5-6.5c3.1-4.4,3.3-4,14.4-11.6
	c0.6-0.4,1.2-0.8,2.1-1.4h-2.4c-0.6,0-1.2,0.2-1.8,0.3c-18.6,3.2-29.6,14.9-47.1,28.5c-10,7.8-13.3,3.7-11.6-0.5
	c1.3-3.4,3.2-6.5,4.9-9.6c1-1.7,2.2-3.3,3.4-4.9c-0.2-0.2-0.5-0.3-0.7-0.5c-26,17.6-45,40.8-55.6,70.6c0.3,0.3,0.7,0.6,1,0.9
	c0.3-0.6,0.5-1.2,0.9-1.6c10-11.7,22-21,35.2-28.7c17.5-10.2,36.1-17.6,56.5-19.5c4.1-0.4,8.4-0.1,12.6-0.1
	c-1.7,0.7-3.4,0.9-5.1,1.1c-17.8,2.3-34.2,8.7-49.6,17.8c-29.1,17.2-52.5,40.6-72.3,67.8c-0.3,0.4-0.4,0.9-0.7,1.3
	c14,5.1,23.1,16.7,34.8,24.7c0.2-0.1,0.3-0.2,0.4-0.4l1.2-2.6c11.7-25.9,26-50.4,45-71.7c16.1-18.1,36.6-24.4,60.2-19.3
	c5.7,1.3,11,4.2,16.6,6.5c2.2-1.3,4.9-3.1,7.7-4.5c8.1-4.1,16.8-6.7,25.7-8.7c14.2-3,28.4-4.7,42.9-1.3v-0.5
	C511.5,224.3,510.8,223.9,510.3,223.4L510.3,223.4z M283.6,392.4c-37.9-31.8-22-18.8-41.1-34.3c-0.8,0.9,0-0.2-1.8,2.9
	c-10.8,18.4-24.6,34-42.4,45.8c-9.9,6.5-20.7,11.4-32.8,11.4c-20.8,0-36.8-9.1-47.6-26.8c-11.6-18.8-12.8-39.2-7.9-60.3
	c7.5-32.5,29-53.2,37.2-61.9c-18-6-31.8,1.6-44.7,13.4c0.8-13.4,4.1-25.2,11.4-35.9c-23.4,10.2-44.2,24.1-62.4,42.3
	c-0.3-5.6,5.2-42.1,5.4-43c0.3-2.6-0.6-5.1-2.9-7.1c-23.3,23.8-42.9,49.9-54,81.5c7.1-5.7,14.3-11,22.7-15.6
	c-8,21.5-18.9,50.8-7.5,97.4c4.4,18.3,11.5,35.4,23.2,50.4c2.8,3.6,6.1,6.6,9.1,9.9c0.2-0.2,0.4-0.3,0.6-0.5
	c-1.3-6.7-2.1-13.6-1.4-21.1c2.1,3.1,3.8,5.8,5.7,8.3c12.1,15.4,27.6,26.4,45.5,34.3c24.1,10.9,49.2,12.8,75,8.3
	c52.9-9.3,87.3-46.8,111.7-95.1C285.5,394.7,285.1,393.6,283.6,392.4L283.6,392.4z M449.3,347.7c-9.1-3-21.4-4-27.6-2.8
	c9.5,3.9,13.6,6.4,18.1,11.6c12.1,13.9,10,33.4-5.2,43.9c-11.3,7.8-24,10.1-37.5,8.8c-1.2-0.1-2.2-0.4-2.9-0.6
	c2.7-3.6,5.8-6.7,7.8-10.4c9.1-16.2,5.2-40.5-8.4-54c-2-2-4.4-3.8-6.7-5.7c-0.3,1.3-0.1,2,0.1,2.7c4,16-7.8,31.2-23.9,30.6
	c-7.3-0.3-13.4-3.7-18.9-8.2c-18.8-15.5-37.7-30.9-56.3-46.5c-5.7-4.7-12-7.8-19.4-8.4c-4.4-0.4-9-0.6-13.4-0.9
	c-5.7-0.4-8.5-2.7-10-8.1c-0.9-3.3-1.4-6.5-2.1-9.8c-1.4-7.8-6-12.5-13.8-13.7c-4.2-0.7-8.6-1-12.8-1.4
	c-12.5-1.3-19.1-7.1-21.8-19.5c-4.8,10.6-1.5,21.6,7,28.8c4.3,3.7,9,7,13.3,10.8c4.4,3.7,7.1,8.4,7.6,14.3c0.4,4.5,0.8,9.1,1.7,13.6
	c2.1,10.2,8.6,17.7,16.4,24.2c15.9,13.2,31.8,26.3,47.7,39.6c17.2,14.4,13.4,31.6,12.5,53.9c-0.9,22.1,11.7,41.3,32.3,49.3
	c1,0.4,1.9,0.6,3.5,1.1c-15.1-17.5-9.7-42.5,0.7-50.4c0.3,2.1,0.4,4.1,0.9,6.2c9.1,42.5,43.7,61.8,81.9,54.8
	c15.4-2.8,29.5-8.6,41.3-19.1c1.9-1.7,3.6-3.9,5.7-6.3c-18.6,4.4-34.5,0.1-49-10.2c0.7-0.3,1.3-0.3,1.8-0.3
	c20.5,1.7,39.1-3.3,54.9-16.8c18.8-16,25.6-41.3,16.8-63.6C483.4,365.8,468.7,354,449.3,347.7L449.3,347.7z M74.4,182.1
	c-5.1-8.9-12.7-15-21.3-20.5c13.2-0.5,25.6,0.2,38.1,3.6c-6.7-11.7-8.2-23.8-4.8-37.3c5.1,11.5,13.2,19.4,22.7,25.8
	c19,12.7,34.4,18.9,45,29.1c3.3,3.2,6.1,6.8,9.2,10.5c-0.8-2-1.3-3.9-2.1-5.8c-4.8-10.2-12.5-17.9-21.8-24.1
	c-1.7-1.2-2.7-2.4-3.3-4.3c-3.2-12-2.9-24.2-0.7-36.2c1-5.3,2.7-10.5,4.3-15.7c0.8-2.3,2.2-4.4,3.9-6.4c0.6,6.6,0,24.6,18.9,44.3
	c10.4,10.9,21.6,21.1,32.6,31.5c8.7,8.2,17.6,16.1,24.6,25.8c1.1,1.5,2.1,3.2,3.7,4.5c-4.8-12.5-13.7-23.2-23.3-32.5
	c-9.2-9-18.7-17.7-28.1-26.4c-3.2-2.9-4.4-6.5-4.9-10.5c-1.2-10,0-19.8,4.1-29.1c0.5-1,1.1-1.9,1.8-3.2c0.5,4,0.6,7.6,1.3,11.2
	c4.6,22.2,19.6,35,47.5,61.1c9.6,9.1,18.6,18.5,24.7,30.4c4.6,9,7,18.3,5.5,28.5c-0.1,0.6,0.5,1.6,1.1,1.9c6,2.5,9.6,6.6,9.3,13.8
	c7.4-2.5,12-7.7,15.8-14c4,19.5-8.8,48.4-26.2,56.5c0.4-4.3,4.8-22.5-15.9-26.7c-6.5-1.3-12.3-1.3-22.1-2c4.5-8.7,10-19.8,0.5-21.6
	c-24-4.4-50.8,1.8-55.7,4.4c7.9,0.4,15.7,1,22.6,3.2c-1.9,6.3-3.9,12.2-5.6,18.2c-1.8,6.3,2,14.1,9,9.2c1.2-0.9,2.2-1.8,3.2-2.6
	c-3,17.2-2.8,15.3-2.7,17.6c0.3,9.8,9.1,7.5,15.1,7c-2.4,11.4-28.4,26.3-43.7,24.8c6.7-4.5,12.2-9.9,15.3-17.2
	c-6.3,0.8-12.4,1.5-18.5,2.3l-0.3-0.9c4.5-3.3,7.7-7.5,9.8-12.6c8.4-20.3-3.5-36.6-24.1-38.4c-8.8-0.8-17.1,0.8-24.9,5.3
	c6-15,16.6-25.6,31.4-33.2c-14.6-4.1-8.6-2.6-23.7-6.1c14.1-9,29.1-12.7,44.8-14.1c-5-3.1-46.3-3.5-67.6,20.1
	c7.6,1.3,14.9,2.7,22.3,4c-22.9,6.7-42.4,19-60.1,34.3c1.1-4.6,2.6-9.1,3.2-13.8c0.6-4.3,0.8-8.9,0.1-13.1
	c-1.4-9.1-8.6-14.5-19-15.7c-7.6-0.9-15,0.1-22.4,1.3c-0.9,0.1-1.6,0.3-2.8,0C35.4,214,54.9,207.4,71.3,196
	C77.3,192.2,78,188.6,74.4,182.1L74.4,182.1z M198,208c3.2,15.4,12.1,24.6,22.9,23.4C216.5,220.5,209.3,212.6,198,208z"/>
</svg>
