<?xml version="1.0" encoding="utf-8"?>
<!-- Generator: Adobe Illustrator 24.0.0, SVG Export Plug-In . SVG Version: 6.00 Build 0)  -->
<svg version="1.1" id="Layer_1" xmlns="http://www.w3.org/2000/svg" xmlns:xlink="http://www.w3.org/1999/xlink" x="0px" y="0px"
	 viewBox="0 0 512 512" style="enable-background:new 0 0 512 512;" xml:space="preserve">
<path d="M251,244.4c11,0,16.8-8.1,19.8-14.3c-0.8-0.9-4-3.4-5.9-5.3c-1.9,3.4-6.6,8.6-11.1,8.6c-8.2,0-12.3-11.8-2.6-21.3
	c-0.4-0.2-3.4-1.4-6.4,1.9c0-2.4,0.8-4.1,1.7-5.3c-2.8,1-7.8,4.5-9.1,6.3c0.2-4.6,1.3-6,0.5-7.2l-0.2-0.2c0,0-6.8,4.5-7.4,11.8
	c0,0,0.9-1.3,1.7-1.5c0.5-0.2,1,0,0.5,1.5c-0.2,0.5-4.6,12.6,4.1,20.8c-0.5-1.3-1.5-6.1,1.9-1.5C238.2,238.8,243.1,244.4,251,244.4
	L251,244.4z M293,227.5c0-3.2-3.9-3.5-4.5-3.6c1.6,3.1,0.7,6,0.2,7.2C290.6,230.8,293,229.8,293,227.5z M301.2,231.7
	c0-5.1-5-9.1-10.8-8.6c6.4,1,4.5,11-4,9.1c3-2.1,2.6-7.9-1-10c1.1,3.4-2.4,6.6-5.9,3.7c-1.9-1.5-6.4-5.3-8.5-6.9
	c-1.9-1.7-4.4-0.8-5.3-1.4c-1-0.9-0.4-3-1.8-4c-1.3-0.6-2.4-0.2-3.8-0.8c-1.3-0.5-2.2-1.5-2.1-2.8c-2,3.5,2.7,5,3.6,6.8
	c0.8,1.5-0.6,3.8,3.2,6.8c11.8,9.3,7.3,6.4,8.3,14.5c0.5,3.4,3.4,5.4,5.1,5.9c-1.7-1.5-2.3-5.1,0-7.4c0,11.1,15.4,10.6,18.5,5.1
	c-1.9,0.9-5.6-0.2-7.2-1.5C295.7,241,300.9,236.9,301.2,231.7L301.2,231.7z M269.7,217c1.6,0.6,1.3,0.6,5.1,3.6
	c8.2-19.6,17.4-12.6,17.6-12.4c1.8-1.5,7.8-3,11-2.2c-1.9-2.2-6-5-10.6-5c-3.8,0-5.9,1.8-6.4,1c-0.6-1.1,2.6-2.7,2.6-2.7
	c-4.3,0.2-7.7,5.4-9,4.7c-0.9-0.4,1.1-3,1.1-3c-4.1,2.3-7.4,7.3-8.2,10.4c3.7-4.6,11-7.8,15.8-7.2
	C280.3,204.7,273.1,212.1,269.7,217L269.7,217z M463.7,258.5c-16.6,0-32,1-40.2,1.7l5.9,6.6v61.8l-5.9,6.6
	c8.3,0.6,24.7,1.7,41.3,1.7c33.7,0,47.3-16.6,47.3-39.1C512,274.2,493.4,258.5,463.7,258.5L463.7,258.5z M451.6,319v-42.6
	c24.1-2.6,37.4,3,37.4,21C489,317.8,471.9,321.5,451.6,319z M241.3,196c-0.8-2.7-0.2-5.5,0.9-7.5c0.8,2.4,2.1,5.1,6,7.2
	c-0.4-1.9-0.2-4.5,0.4-6.4c-1.1-4.3,1.7-7.9,5.1-7.9c5.5,0,6.8,7,3.8,11.5c1.7,2.6,4.4,4.5,6.2,6.2c2.6-3,4.4-7.6,4.4-11
	c0-6.6-4.4-12.7-13.4-13.2c-16-0.7-16.2,13.3-16,15.1C239,194.2,241.4,196.2,241.3,196z M241,200.8c-0.4,1.4-5.6,3-8.2,5.5
	c3.8-0.8,5.6-0.2,6.2,1.4c0.4,1.1-0.2,2.7-0.4,4.5c1.3-1.4,5.6-4.4,8.8-5c-0.8-0.2-2.7-0.6-3.4-0.6c2.3-2.7,7.4-3.6,10.2-3
	c-1.8-0.2-5.4,0.9-6.8,2.1c1.3,0.2,2.4,0.5,3.4,0.9c-1.7,0.6-3.8,2.7-4.6,4.9c5.6-4,10.5,4.2,5.6,6.6c0.6,0.2,2.2,0,2.8-0.4
	c-0.2,0.9-1.5,2.4-2.4,2.7c2.3,0,5.6-1.5,6.6-3.7c0,0-1.4,0.5-2.1-0.2s0.2-3.4,0.2-3.4c-1.8,2.3-2.7-1-1-3.4
	c-0.8-0.2-2.8-0.5-3.7-0.4c2.6-0.9,8.3-1.4,9-0.2c0.5,0.9-0.8,2.7-0.8,2.7c3.2-0.4,6.6,0.9,5.4,4.1c2.3-1.1,4.4-4.7,3.8-8.3
	c-0.2,0.8-1.3,1.9-2.3,2.2c0.2-1.1-0.8-1.8-1.5-2.1c1.4-7.7-11.7-11.4-11.3-19.1c-0.8,1-1.4,4-0.6,5.7c2.2,2.6,7,5.4,8.1,9.8
	c-2.1-5.1-12.1-9.1-11.7-16.2c-1.3,1.3-2.1,6.2-1,8.8c1.9,1.1,3.6,3,3.8,4.9c-1.8-4.1-9.1-4.9-11.1-9.8c-0.5,1.8-0.2,4,0.8,5.4
	c0,0-1.8-0.6-5.6-0.5C238.5,197.1,241.2,199.4,241,200.8L241,200.8z M261.7,206.7c-2.2,0-2.8-1.7-3.4-3.4
	C261,204.3,261.7,206.7,261.7,206.7z M292.8,209.7l-0.8-0.5c-0.9-0.8-2.3-1.1-3.8-1.1c-2.3,0-4.6,1-6,2.7c-0.6,0.6-1.1,1.4-1.7,2.1
	v12.6c2.8,2.1,5.7-2.3,2.4-5.8c1.2,0.2,3.7,2.2,4.1,2.6c0,0,2.1-0.4,4-0.4c1.7,0,3.1,0.2,4.5,0.9V208c-0.9,0.4-1.8,0.8-2.2,1.1
	L292.8,209.7z M63.9,295.9c13.8-3.7,13-14.4,13-15.9c0-16.5-19.3-20-29.6-20H2.4l6.6,6.9v23.6H0l9.1,11.7V328l-6.7,6.9
	c49.4,0,59,1.2,69.1-4.7c5.4-3.2,7.9-7.8,7.9-14.1C79.4,312,81.5,301,63.9,295.9z M30.9,273.9c16,0,23.7-0.6,23.7,7.3v2.4
	c0,9.7-15.2,7-23.7,7L30.9,273.9z M30.9,321.3v-18.1c9.8,0,26.2-1.8,26.2,7v3.6h0.2C57.2,322.8,47.2,321.3,30.9,321.3L30.9,321.3z
	 M111.8,305.8l18.5,0.2v-0.2l11.3-17h-29.8V277h41.9l-11.3-16.8V260l-58.8,0.2l5.9,6.6v61.7l-5.9,6.6h65l11.3-17l-48.1,0.2
	L111.8,305.8z M283.6,257.8c-59.1,0-62,79.4-0.2,79.4C345.7,337.2,342.6,257.8,283.6,257.8z M283.4,319.8
	c-29.9,0-29.5-44.2,0.2-44.2C313,275.6,314.6,319.8,283.4,319.8z M210.3,313.1l35.3-53h-33.4l4.9,5.8l-16.4,29.8h-0.2l-16.8-29.8
	l5.1-5.8h-35.9l35.3,52.6l0.2,15.5l-6.2,6.6h34.1l-5.8-6.6L210.3,313.1z M187.6,192.1c1.3,1,2.3,1.9,2.3,5.3v31
	c0,3.4-0.6,4.2-2.2,5.1c-0.1,0.1-6,3.6-6.3,3.7h28.1c8,0,13.9-1.2,20.8-6.9c-0.5-4,0.2-7.6,0.6-9.6c0-0.2-1.4,1.1-2.2,2.8
	c0-4.6,1.3-12.3,7.7-16.4c-0.1,0-3-0.6-7.2,0.9c1.6-2.5,8-6.3,8.3-6.3c-6.6-20.8-30.4-18.3-25.8-18.3c-24.7,0-26.1,0.2-31.9-3.2
	C180,180.8,180.3,186.7,187.6,192.1L187.6,192.1z M204.8,196.5c3.7,0,18.5-2.6,18.5,13.8c0,16.6-14.7,13.8-18.5,13.8V196.5z
	 M387.9,260.2l5.6,6.6v34h-0.2c-4.3-11.5-33.8-33.2-36.2-40.7h-25.3l5.9,6.8v61.5L332,335h31.2l-5.9-6.6v-37.9h0.2
	c3,8.5,35.6,34.3,38.8,44.5h17v-68.2l5.9-6.6L387.9,260.2z M302.6,183.3c-25.8,0-26.2,0.2-31.9-3.2c0.1,0.6,0.4,6.6,7.7,11.9
	c2.5,1.6,2.3,3.4,2.3,7.6c1.4-0.9,3-1.8,4.9-2.4c-0.9,0.9-2.2,2.2-2.8,3.6c0.8-0.9,6-4.1,11.7-2.8c-1.3,0.2-3.2,0.9-4.9,2.3
	c0.1,0,1.7-0.9,6-0.2v-3.4c3.8,0,18.5-2.7,18.5,13.8c0,16.4-14.8,13.8-15.8,13.8c4.6,3.5,4.6,9.6,1.8,13h0.2
	c26.7,0,29.4-21.8,29.4-27.2C329.6,207.1,328.7,184.6,302.6,183.3L302.6,183.3z"/>
</svg>
