<?xml version="1.0" encoding="utf-8"?>
<!-- Generator: Adobe Illustrator 24.0.0, SVG Export Plug-In . SVG Version: 6.00 Build 0)  -->
<svg version="1.1" id="Layer_1" xmlns="http://www.w3.org/2000/svg" xmlns:xlink="http://www.w3.org/1999/xlink" x="0px" y="0px"
	 viewBox="0 0 512 512" style="enable-background:new 0 0 512 512;" xml:space="preserve">
<path d="M330.9,267c-7.4-4.2-15.8-6.3-24.4-6.2c-13.2,0-24.4,4.4-33.4,13.3s-13.6,20-13.6,33.4c0,14.1,4.4,25.6,13.3,34.6
	c8.9,9,20,13.4,33.4,13.4c13.7,0,25-4.6,34.1-13.8s13.6-20.6,13.7-34.3c0-8.2-2.1-16.3-6.1-23.5C343.9,276.9,338,271,330.9,267z
	 M32,32v448h448V32H32z M406.7,405.3h-53.1v-23.9h-0.7c-10.5,17.5-29.1,26.2-55.8,26.2c-18.4,0-34.7-4.4-48.9-13.1
	c-14.1-8.6-25.5-21-32.9-35.8c-7.7-15.1-11.6-32.1-11.6-50.9c0-18.4,3.9-35.1,11.8-50.2c7.5-14.7,18.9-27.1,32.9-35.8
	c14.1-8.7,30-13.1,47.7-13.1c10.2-0.1,20.2,1.6,29.7,5.2c8.9,3.5,17.2,9.1,25,17V153l55.8-12.1L406.7,405.3z"/>
</svg>
