<?xml version="1.0" encoding="utf-8"?>
<!-- Generator: Adobe Illustrator 24.0.0, SVG Export Plug-In . SVG Version: 6.00 Build 0)  -->
<svg version="1.1" id="Layer_1" xmlns="http://www.w3.org/2000/svg" xmlns:xlink="http://www.w3.org/1999/xlink" x="0px" y="0px"
	 viewBox="0 0 512 512" style="enable-background:new 0 0 512 512;" xml:space="preserve">
<path d="M480,73.1v45.7c0,40.3-100.3,73.1-224,73.1S32,159.1,32,118.9V73.1C32,32.9,132.3,0,256,0S480,32.9,480,73.1z M480,176
	v102.9c0,40.3-100.3,73.1-224,73.1S32,319.1,32,278.9V176c48.1,33.1,136.2,48.6,224,48.6S431.9,209.1,480,176z M480,336v102.9
	c0,40.3-100.3,73.1-224,73.1S32,479.1,32,438.9V336c48.1,33.1,136.2,48.6,224,48.6S431.9,369.1,480,336z"/>
</svg>
