<?xml version="1.0" encoding="utf-8"?>
<!-- Generator: Adobe Illustrator 24.0.0, SVG Export Plug-In . SVG Version: 6.00 Build 0)  -->
<svg version="1.1" id="Layer_1" xmlns="http://www.w3.org/2000/svg" xmlns:xlink="http://www.w3.org/1999/xlink" x="0px" y="0px"
	 viewBox="0 0 512 512" style="enable-background:new 0 0 512 512;" xml:space="preserve">
<path d="M216,260c0,15.5-12.5,28-28,28s-28-12.5-28-28c0-44.1,35.9-80,80-80s80,35.9,80,80c0,15.5-12.5,28-28,28s-28-12.5-28-28
	c0-13.2-10.8-24-24-24S216,246.8,216,260z M240,84c-97,0-176,79-176,176c0,15.5,12.5,28,28,28s28-12.5,28-28
	c0-66.2,53.8-120,120-120s120,53.8,120,120c0,75.2-71,70.3-72,143.6v0.4c0,28.7-23.3,52-52,52c-15.5,0-28,12.5-28,28s12.5,28,28,28
	c59.5,0,107.9-48.3,108-107.8c0.6-34.4,72-48.2,72-144.2C416,163,337,84,240,84z M508.5,31.8L480.2,3.5c-4.7-4.7-12.3-4.7-17,0
	l-87,87c-4.7,4.7-4.7,12.3,0,17l28.3,28.3c4.7,4.7,12.3,4.7,17,0l87-87C513.2,44.1,513.2,36.5,508.5,31.8L508.5,31.8z M169,314.7
	c-4.7-4.7-12.3-4.7-17,0L3.5,463.2c-4.7,4.7-4.7,12.3,0,17l28.3,28.3c4.7,4.7,12.3,4.7,17,0L197.3,360c4.7-4.7,4.7-12.3,0-17
	L169,314.7z"/>
</svg>
