<?xml version="1.0" encoding="utf-8"?>
<!-- Generator: Adobe Illustrator 24.0.0, SVG Export Plug-In . SVG Version: 6.00 Build 0)  -->
<svg version="1.1" id="Layer_1" xmlns="http://www.w3.org/2000/svg" xmlns:xlink="http://www.w3.org/1999/xlink" x="0px" y="0px"
	 viewBox="0 0 512 512" style="enable-background:new 0 0 512 512;" xml:space="preserve">
<path d="M401.3,246.3H512v-64.6H401.3V246.3z M401.3,91.7v64.6H512V91.7H401.3z M401.3,336.2H512v-64.6H401.3V336.2z M0,426.2h110.7
	v-64.6H0V426.2z M133.8,426.2h110.7v-64.6H133.8V426.2z M267.5,426.2h110.7v-64.6H267.6L267.5,426.2z M401.3,426.2H512v-64.6H401.3
	V426.2z M267.6,336.2h110.7v-64.6H267.6V336.2z M133.8,336.2h110.7v-64.6H133.8L133.8,336.2z M133.8,246.3h110.7v-64.6H133.8
	L133.8,246.3z"/>
</svg>
