<?xml version="1.0" encoding="utf-8"?>
<!-- Generator: Adobe Illustrator 24.0.0, SVG Export Plug-In . SVG Version: 6.00 Build 0)  -->
<svg version="1.1" id="Layer_1" xmlns="http://www.w3.org/2000/svg" xmlns:xlink="http://www.w3.org/1999/xlink" x="0px" y="0px"
	 viewBox="0 0 512 512" style="enable-background:new 0 0 512 512;" xml:space="preserve">
<path d="M478.5,68c-0.4-1.5-0.9-3-1.4-4.5c-0.9-2.5-2-4.8-3.3-7.1c-1.4-2.4-3-4.8-4.7-6.9c-2.1-2.5-4.4-4.8-6.9-6.8
	c-1.1-0.9-2.2-1.7-3.3-2.5c-1.3-0.9-2.6-1.7-4-2.4c-1.8-1-3.6-1.8-5.5-2.5c-1.7-0.7-3.5-1.3-5.4-1.7c-3.8-1-7.9-1.5-12-1.5H80
	C53.5,32,32,53.5,32,80v352c0,4.1,0.5,8.2,1.5,12c2,7.7,5.8,14.6,11,20.3c1,1.1,2.1,2.2,3.3,3.3c5.7,5.2,12.6,9,20.3,11
	c3.8,1,7.9,1.5,12,1.5h352c26.5,0,48-21.5,48-48V80C480,75.9,479.5,71.8,478.5,68z M448,432c0,8.8-7.2,16-16,16H256V256H64V80
	c0-8.8,7.2-16,16-16h176v192h192V432z"/>
</svg>
