<?xml version="1.0" encoding="utf-8"?>
<!-- Generator: Adobe Illustrator 24.0.0, SVG Export Plug-In . SVG Version: 6.00 Build 0)  -->
<svg version="1.1" id="Layer_1" xmlns="http://www.w3.org/2000/svg" xmlns:xlink="http://www.w3.org/1999/xlink" x="0px" y="0px"
	 viewBox="0 0 512 512" style="enable-background:new 0 0 512 512;" xml:space="preserve">
<path d="M509.9,256.7l-15.7-23.5c-22.6-33.8-60.2-54-100.9-54H204.8l-65-65c16.1-16.1,18.1-40.9,6-59.1c-2.7-4.2-8.6-4.7-12.2-1.2
	l-33.4,33.4L65.9,53.1c-2.9-2.9-7.7-2.4-9.9,1c-9.8,14.9-8.2,35.2,4.9,48.3c2.6,2.6,5.8,4.2,9,6c-1.8,1.4-3.8,2.5-5.1,4.3L5.1,192.2
	c-5.8,7.8-6.7,18.2-2.4,26.8l11.4,22.9C18.5,250.5,27.4,256,37,256h24.8c6.8,0,13.3-2.7,18.1-7.5l30.5-27.7l43.2,86.4h281.6V245
	c13,9.8,14.6,14.1,32.1,40.2c3.9,5.9,11.8,7.4,17.8,3.5l21.3-14.2C512.2,270.6,513.8,262.6,509.9,256.7z M237,245.8l-13.2,12.9
	l3.1,18.2c0.6,3.3-2.9,5.8-5.8,4.2l-16.3-8.6l-16.3,8.6c-2.9,1.5-6.3-1-5.8-4.2l3.1-18.2l-13.2-12.9c-2.4-2.3-1-6.3,2.2-6.8
	l18.2-2.6l8.2-16.6c1.4-3,5.7-3,7.2,0l8.2,16.6l18.2,2.6C238.1,239.5,239.4,243.5,237,245.8L237,245.8z M326.6,245.8l-13.2,12.9
	l3.1,18.2c0.6,3.3-2.9,5.8-5.8,4.2l-16.3-8.6l-16.3,8.6c-2.9,1.5-6.3-1-5.8-4.2l3.1-18.2l-13.2-12.9c-2.4-2.3-1-6.3,2.2-6.8
	l18.2-2.6l8.2-16.6c1.4-3,5.7-3,7.2,0l8.2,16.6l18.2,2.6C327.7,239.5,329,243.5,326.6,245.8L326.6,245.8z M416.2,245.8L403,258.7
	l3.1,18.2c0.6,3.3-2.9,5.8-5.8,4.2l-16.3-8.6l-16.3,8.6c-2.9,1.5-6.3-1-5.8-4.2l3.1-18.2l-13.2-12.9c-2.4-2.3-1-6.3,2.2-6.8
	l18.2-2.6l8.2-16.6c1.4-3,5.7-3,7.2,0l8.2,16.6l18.2,2.6C417.3,239.5,418.6,243.5,416.2,245.8L416.2,245.8z M153.6,448
	c0,7,5.8,12.8,12.8,12.8h51.2c7,0,12.8-5.8,12.8-12.8v-64h128v64c0,7,5.8,12.8,12.8,12.8h51.2c7,0,12.8-5.8,12.8-12.8V332.8H153.6
	V448z"/>
</svg>
