<?xml version="1.0" encoding="utf-8"?>
<!-- Generator: Adobe Illustrator 24.0.0, SVG Export Plug-In . SVG Version: 6.00 Build 0)  -->
<svg version="1.1" id="Layer_1" xmlns="http://www.w3.org/2000/svg" xmlns:xlink="http://www.w3.org/1999/xlink" x="0px" y="0px"
	 viewBox="0 0 512 512" style="enable-background:new 0 0 512 512;" xml:space="preserve">
<path d="M469.3,28.4H42.7C19.1,28.4,0,47.6,0,71.1v284.4c0,23.6,19.1,42.7,42.7,42.7h170.7l-14.2,42.7h-64
	c-11.8,0-21.3,9.5-21.3,21.3s9.5,21.3,21.3,21.3h241.8c11.8,0,21.3-9.5,21.3-21.3s-9.5-21.3-21.3-21.3h-64l-14.2-42.7h170.7
	c23.6,0,42.7-19.1,42.7-42.7V71.1C512,47.6,492.9,28.4,469.3,28.4z M455.1,341.3H56.9v-256h398.2V341.3z"/>
</svg>
