<?xml version="1.0" encoding="utf-8"?>
<!-- Generator: Adobe Illustrator 24.0.0, SVG Export Plug-In . SVG Version: 6.00 Build 0)  -->
<svg version="1.1" id="Layer_1" xmlns="http://www.w3.org/2000/svg" xmlns:xlink="http://www.w3.org/1999/xlink" x="0px" y="0px"
	 viewBox="0 0 512 512" style="enable-background:new 0 0 512 512;" xml:space="preserve">
<path d="M221.9,512l31.1-38.4c12.3-0.2,25.6-1.4,36.5-6.6c38.9-18.6,38.4-61.9,38.3-63.8c-0.1-5-0.8-4.4-28.9-37.4H378
	c-0.2,50.1-7.3,68.5-10.2,75.7c-9.4,23.7-43.9,62.8-95.2,69.4C263.9,512,239.8,512.1,221.9,512L221.9,512z M422.3,344.3
	c38.6,0,58.5-13.6,73.7-30.9l-175.5-0.3l-17.4,31.3L422.3,344.3z M378.7,120.4v168.3h-73.5l-32.7,55.5H266
	c-52.3,0-58.1-56.5-58.3-58.9c-1.2-13.2-21.3-11.6-20.1,1.8c1.4,15.8,8.8,40,26.4,57.1h-91c-25.5,0-110.8-26.8-107-114V16.9
	c0-16,9.7-16.6,15-16.8h82c0.2,0,0.3,0.1,0.5,0.1c4.3-0.4,50.1-2.1,50.1,43.7c0,13.3,20.2,13.4,20.2,0c0-18.2-5.5-32.8-15.8-43.7
	h84.2C360.9-0.2,378.7,79.6,378.7,120.4L378.7,120.4z M246.2,176.4l64,29.3C323.5,160.2,268,134,246.2,176.4z"/>
</svg>
