<?xml version="1.0" encoding="utf-8"?>
<!-- Generator: Adobe Illustrator 24.0.0, SVG Export Plug-In . SVG Version: 6.00 Build 0)  -->
<svg version="1.1" id="Layer_1" xmlns="http://www.w3.org/2000/svg" xmlns:xlink="http://www.w3.org/1999/xlink" x="0px" y="0px"
	 viewBox="0 0 512 512" style="enable-background:new 0 0 512 512;" xml:space="preserve">
<path d="M190.4,292.2h47l17.8-24.2h-47L190.4,292.2z M0,277.5v5.1h65.4l3.8-5.1H0z M138.3,268c-7,0-4.8-2.9-3.7-4.4
	c2.2-3,6.1-8.3,8.3-11.3c2.2-3,2.2-4.7-2.2-4.7H99.9L67,292.2h80.1c26.5,0,41.2-18,45.8-24.2H138.3L138.3,268z M392.3,262.5
	l31.4-42.7H374l-31.4,42.7H392.3L392.3,262.5z M76.2,268H0v5.1h72.5C72.5,273.1,76.2,268,76.2,268z M165,246.7
	c-2.2,3-6,8.3-8.2,11.4c-1.1,1.6-3.3,4.4,3.7,4.4H197c0,0,5.8-8,10.8-14.7c6.7-9.1,0.6-28-23.4-28H90.1L73.8,242h89.1
	C167.4,242,167.3,243.8,165,246.7L165,246.7z M0,292.2h58.5l3.8-5.1H0V292.2z M258.4,292.2h47l17.8-24.2h-47
	C276.2,268,258.4,292.2,258.4,292.2z M436,292.2h76v-5.1h-72.2L436,292.2z M453.8,268l-3.8,5.1H512V268L453.8,268L453.8,268z
	 M443,282.6h69v-5.1h-65.2L443,282.6z M311.7,219.8l-18,24.5h-21l18-24.5h-47l-31.4,42.7h114.9l31.4-42.7H311.7z M338.5,268
	c0,0-3.4,4.7-5.1,7c-5.9,8-0.7,17.3,18.6,17.3h75.4l17.8-24.2L338.5,268L338.5,268z"/>
</svg>
