<?xml version="1.0" encoding="utf-8"?>
<!-- Generator: Adobe Illustrator 24.0.0, SVG Export Plug-In . SVG Version: 6.00 Build 0)  -->
<svg version="1.1" id="Layer_1" xmlns="http://www.w3.org/2000/svg" xmlns:xlink="http://www.w3.org/1999/xlink" x="0px" y="0px"
	 viewBox="0 0 512 512" style="enable-background:new 0 0 512 512;" xml:space="preserve">
<path d="M396.8,256c7,0,12.8-5.8,12.8-12.8c0-7-5.8-12.8-12.8-12.8c-7,0-12.8,5.8-12.8,12.8C384,250.2,389.8,256,396.8,256z
	 M256,192c38.8,0,70.4-31.6,70.4-70.4S294.8,51.2,256,51.2s-70.4,31.6-70.4,70.4S217.2,192,256,192z M47.8,342.4
	c8.2,12.2,23.4,14.2,34.3,7.8c13-7.7,45-25.4,84.2-38.9V384h179.2v-72.6c39.3,13.4,71.3,31.2,84.2,38.9c10.9,6.4,26.2,4.2,34.3-7.8
	l14.2-21.4c7-10.6,6.1-27.7-8-36.1c-9.5-5.7-23.8-13.6-40.9-21.9C407,300,350,277.4,359.4,235c-31.9-10.1-67.3-17.4-103.4-17.4
	c-45.6,0-90.3,11.6-128,25.8c-0.2,32.2-38.1,50.6-63.4,28.8c-9,4.8-17,9.3-23,12.8c-14.1,8.4-15,25.4-8,36.1L47.8,342.4z
	 M294.4,326.4c10.6,0,19.2,8.6,19.2,19.2s-8.6,19.2-19.2,19.2s-19.2-8.6-19.2-19.2S283.8,326.4,294.4,326.4z M217.6,249.6
	c10.6,0,19.2,8.6,19.2,19.2c0,10.6-8.6,19.2-19.2,19.2c-10.6,0-19.2-8.6-19.2-19.2C198.4,258.2,207,249.6,217.6,249.6z M89.6,256
	c7,0,12.8-5.8,12.8-12.8c0-7-5.8-12.8-12.8-12.8s-12.8,5.8-12.8,12.8C76.8,250.2,82.6,256,89.6,256z M499.2,409.6H12.8
	c-7,0-12.8,5.8-12.8,12.8V448c0,7,5.8,12.8,12.8,12.8h486.4c7,0,12.8-5.8,12.8-12.8v-25.6C512,415.4,506.2,409.6,499.2,409.6z"/>
</svg>
