<?xml version="1.0" encoding="utf-8"?>
<!-- Generator: Adobe Illustrator 24.0.0, SVG Export Plug-In . SVG Version: 6.00 Build 0)  -->
<svg version="1.1" id="Layer_1" xmlns="http://www.w3.org/2000/svg" xmlns:xlink="http://www.w3.org/1999/xlink" x="0px" y="0px"
	 viewBox="0 0 512 512" style="enable-background:new 0 0 512 512;" xml:space="preserve">
<style type="text/css">
	.st0{fill:none;}
</style>
<path d="M473.6,204.8h-95c10.2,23.7,5.7,52.2-13.6,71.5l-109,109v37.1c0,21.2,17.2,38.4,38.4,38.4h179.2c21.2,0,38.4-17.2,38.4-38.4
	V243.2C512,222,494.8,204.8,473.6,204.8z M384,352c-10.6,0-19.2-8.6-19.2-19.2s8.6-19.2,19.2-19.2s19.2,8.6,19.2,19.2
	S394.6,352,384,352z M346.9,202.6L207,62.7c-15.3-15.3-40.2-15.3-55.5,0l-140,139.9c-15.3,15.3-15.3,40.2,0,55.5l139.9,140
	c15.3,15.3,40.2,15.3,55.5,0l140-139.9C362.2,242.8,362.2,218,346.9,202.6L346.9,202.6z M76.8,249.6c-10.6,0-19.2-8.6-19.2-19.2
	c0-10.6,8.6-19.2,19.2-19.2c10.6,0,19.2,8.6,19.2,19.2S87.4,249.6,76.8,249.6z M179.2,352c-10.6,0-19.2-8.6-19.2-19.2
	s8.6-19.2,19.2-19.2c10.6,0,19.2,8.6,19.2,19.2S189.8,352,179.2,352z M179.2,249.6c-10.6,0-19.2-8.6-19.2-19.2
	c0-10.6,8.6-19.2,19.2-19.2c10.6,0,19.2,8.6,19.2,19.2S189.8,249.6,179.2,249.6z M179.2,147.2c-10.6,0-19.2-8.6-19.2-19.2
	s8.6-19.2,19.2-19.2c10.6,0,19.2,8.6,19.2,19.2S189.8,147.2,179.2,147.2z M281.6,249.6c-10.6,0-19.2-8.6-19.2-19.2
	c0-10.6,8.6-19.2,19.2-19.2s19.2,8.6,19.2,19.2C300.8,241,292.2,249.6,281.6,249.6z"/>
<line class="st0" x1="-151" y1="29" x2="-153" y2="29"/>
</svg>
