<?xml version="1.0" encoding="utf-8"?>
<!-- Generator: Adobe Illustrator 24.0.0, SVG Export Plug-In . SVG Version: 6.00 Build 0)  -->
<svg version="1.1" id="Layer_1" xmlns="http://www.w3.org/2000/svg" xmlns:xlink="http://www.w3.org/1999/xlink" x="0px" y="0px"
	 viewBox="0 0 512 512" style="enable-background:new 0 0 512 512;" xml:space="preserve">
<path d="M122.8,215.1L17.2,371c-3.1,5,0.1,11.5,5.9,12.1l208.3,22.1L122.8,215.1L122.8,215.1z M23.4,315.4l75.3-122.3l-76.6-46
	c-2.7-1.6-6.1,0.3-6.1,3.4v162.8C16,317.4,21.3,318.9,23.4,315.4z M34.3,423.6l194.4,87.7c5.3,2.5,11.4-1.4,11.4-7.3v-65.7L36.4,416
	C32,415.5,30.2,421.6,34.3,423.6L34.3,423.6z M115.5,165.8l79.9-142.9c4.3-7.1-3.6-15.3-10.8-11.1L33.8,110.3
	c-2.5,1.6-2.4,5.3,0.1,6.8L115.5,165.8L115.5,165.8z M256,176h109.2L269.6,7.6C266.5,2.5,261.3,0,256,0s-10.5,2.5-13.6,7.6
	L146.8,176H256z M489.9,147.1l-76.6,46l75.3,122.3c2.1,3.4,7.4,1.9,7.4-2.1V150.5C496,147.4,492.6,145.5,489.9,147.1z M396.5,165.8
	l81.5-48.7c2.5-1.5,2.6-5.2,0.1-6.8L327.4,11.7c-7.2-4.1-15.1,4.1-10.8,11.1L396.5,165.8z M475.5,416L272,438.3V504
	c0,5.8,6,9.7,11.4,7.3l194.4-87.7C481.8,421.6,480,415.5,475.5,416L475.5,416z M389.3,215.1L280.6,405.2l208.3-22.1
	c5.8-0.6,9-7.1,5.9-12.1L389.3,215.1L389.3,215.1z M256,208H155.6L256,383.8L356.4,208H256z"/>
</svg>
