<?xml version="1.0" encoding="utf-8"?>
<!-- Generator: Adobe Illustrator 24.0.0, SVG Export Plug-In . SVG Version: 6.00 Build 0)  -->
<svg version="1.1" id="Layer_1" xmlns="http://www.w3.org/2000/svg" xmlns:xlink="http://www.w3.org/1999/xlink" x="0px" y="0px"
	 viewBox="0 0 512 512" style="enable-background:new 0 0 512 512;" xml:space="preserve">
<path d="M416,32H96c-35.3,0-64,28.7-64,64v320c0,35.4,28.7,64,64,64h320c35.4,0,64-28.6,64-64V96C480,60.7,451.4,32,416,32z
	 M160,384c-17.7,0-32-14.3-32-32s14.3-32,32-32s32,14.3,32,32S177.7,384,160,384z M160,192c-17.7,0-32-14.3-32-32s14.3-32,32-32
	s32,14.3,32,32S177.7,192,160,192z M352,384c-17.7,0-32-14.3-32-32s14.3-32,32-32s32,14.3,32,32S369.7,384,352,384z M352,192
	c-17.7,0-32-14.3-32-32s14.3-32,32-32s32,14.3,32,32S369.7,192,352,192z"/>
</svg>
