<?xml version="1.0" encoding="utf-8"?>
<!-- Generator: Adobe Illustrator 24.0.0, SVG Export Plug-In . SVG Version: 6.00 Build 0)  -->
<svg version="1.1" id="Layer_1" xmlns="http://www.w3.org/2000/svg" xmlns:xlink="http://www.w3.org/1999/xlink" x="0px" y="0px"
	 viewBox="0 0 512 512" style="enable-background:new 0 0 512 512;" xml:space="preserve">
<path d="M454.2,109.9L288.2,9.1C268.3-3,243.7-3,223.8,9.1l-166,100.9c-5.3,3.2-5.3,11.3,0.1,14.5L256,242.6l198.1-118.1
	C459.5,121.2,459.5,113.2,454.2,109.9z M468,154.6L272,271.5v223.8c0,12.9,13.4,20.9,24,14.4l152.2-92.5
	c19.7-12,31.8-33.9,31.8-57.7V161.8C480,155.4,473.4,151.4,468,154.6L468,154.6z M32,161.8v197.7c0,23.8,12.1,45.7,31.8,57.7
	L216,509.7c10.7,6.5,24.1-1.5,24.1-14.4V271.5L44,154.6C38.6,151.4,32,155.4,32,161.8z"/>
</svg>
