<?xml version="1.0" encoding="utf-8"?>
<!-- Generator: Adobe Illustrator 24.0.0, SVG Export Plug-In . SVG Version: 6.00 Build 0)  -->
<svg version="1.1" id="Layer_1" xmlns="http://www.w3.org/2000/svg" xmlns:xlink="http://www.w3.org/1999/xlink" x="0px" y="0px"
	 viewBox="0 0 512 512" style="enable-background:new 0 0 512 512;" xml:space="preserve">
<path d="M486.4,128H25.6C11.5,128,0,139.5,0,153.6v204.8C0,372.5,11.5,384,25.6,384h460.8c14.1,0,25.6-11.5,25.6-25.6V153.6
	C512,139.5,500.5,128,486.4,128z M243.2,332.8c0,3.5-2.9,6.4-6.4,6.4H57.6c-3.5,0-6.4-2.9-6.4-6.4v-6.4c0-3.5,2.9-6.4,6.4-6.4h179.2
	c3.5,0,6.4,2.9,6.4,6.4V332.8z M57.6,281.6v-12.8c0-3.5,2.9-6.4,6.4-6.4h12.8c3.5,0,6.4,2.9,6.4,6.4v12.8c0,3.5-2.9,6.4-6.4,6.4H64
	C60.5,288,57.6,285.1,57.6,281.6z M108.8,281.6v-12.8c0-3.5,2.9-6.4,6.4-6.4H128c3.5,0,6.4,2.9,6.4,6.4v12.8c0,3.5-2.9,6.4-6.4,6.4
	h-12.8C111.7,288,108.8,285.1,108.8,281.6z M160,281.6v-12.8c0-3.5,2.9-6.4,6.4-6.4h12.8c3.5,0,6.4,2.9,6.4,6.4v12.8
	c0,3.5-2.9,6.4-6.4,6.4h-12.8C162.9,288,160,285.1,160,281.6z M211.2,281.6v-12.8c0-3.5,2.9-6.4,6.4-6.4h12.8c3.5,0,6.4,2.9,6.4,6.4
	v12.8c0,3.5-2.9,6.4-6.4,6.4h-12.8C214.1,288,211.2,285.1,211.2,281.6z M243.2,230.4c0,7.1-5.7,12.8-12.8,12.8H64
	c-7.1,0-12.8-5.7-12.8-12.8V192c0-7.1,5.7-12.8,12.8-12.8h166.4c7.1,0,12.8,5.7,12.8,12.8V230.4z M460.8,332.8
	c0,3.5-2.9,6.4-6.4,6.4H275.2c-3.5,0-6.4-2.9-6.4-6.4v-6.4c0-3.5,2.9-6.4,6.4-6.4h179.2c3.5,0,6.4,2.9,6.4,6.4V332.8z"/>
</svg>
