<?xml version="1.0" encoding="utf-8"?>
<!-- Generator: Adobe Illustrator 24.0.0, SVG Export Plug-In . SVG Version: 6.00 Build 0)  -->
<svg version="1.1" id="Layer_1" xmlns="http://www.w3.org/2000/svg" xmlns:xlink="http://www.w3.org/1999/xlink" x="0px" y="0px"
	 viewBox="0 0 512 512" style="enable-background:new 0 0 512 512;" xml:space="preserve">
<path d="M257.9,32C135.3,32,32,130.5,32,252.1C32,256,32.1,480,32.1,480l225.8-0.2c122.7,0,222.1-102.3,222.1-223.9
	S380.6,32,257.9,32z M256,384c-19.4,0-37.9-4.3-54.4-12.1L120.5,392l22.9-75c-9.8-18.1-15.4-38.9-15.4-61c0-70.7,57.3-128,128-128
	s128,57.3,128,128S326.7,384,256,384z"/>
</svg>
