<?xml version="1.0" encoding="utf-8"?>
<!-- Generator: Adobe Illustrator 24.0.0, SVG Export Plug-In . SVG Version: 6.00 Build 0)  -->
<svg version="1.1" id="Layer_1" xmlns="http://www.w3.org/2000/svg" xmlns:xlink="http://www.w3.org/1999/xlink" x="0px" y="0px"
	 viewBox="0 0 512 512" style="enable-background:new 0 0 512 512;" xml:space="preserve">
<path d="M256,8C119,8,8,119,8,256s111,248,248,248s248-111,248-248S393,8,256,8z M256,456c-110.3,0-200-89.7-200-200
	S145.7,56,256,56s200,89.7,200,200S366.3,456,256,456z M222.2,238.1c7.8-7.8,7.8-20.5,0-28.3L204.3,192l17.9-17.9
	c7.8-7.8,7.8-20.5,0-28.3s-20.5-7.8-28.3,0L176,163.7l-17.8-17.8c-7.8-7.8-20.5-7.8-28.3,0s-7.8,20.5,0,28.3l17.9,17.9L129.9,210
	c-7.8,7.8-7.8,20.5,0,28.3c7.8,7.8,20.5,7.8,28.3,0l17.8-17.8l17.8,17.8C201.7,246,214.3,246,222.2,238.1L222.2,238.1z M382.2,145.9
	c-7.8-7.8-20.5-7.8-28.3,0L336,163.7l-17.8-17.8c-7.8-7.8-20.5-7.8-28.3,0s-7.8,20.5,0,28.3l17.9,17.9L289.9,210
	c-7.8,7.8-7.8,20.5,0,28.3s20.5,7.8,28.3,0l17.8-17.8l17.8,17.8c7.8,7.8,20.5,7.8,28.3,0s7.8-20.5,0-28.3l-17.8-18l17.9-17.9
	C389.9,166.3,389.9,153.7,382.2,145.9L382.2,145.9z M256,272c-35.3,0-64,28.7-64,64s28.7,64,64,64s64-28.7,64-64S291.3,272,256,272z
	"/>
</svg>
