<?xml version="1.0" encoding="utf-8"?>
<!-- Generator: Adobe Illustrator 24.0.0, SVG Export Plug-In . SVG Version: 6.00 Build 0)  -->
<svg version="1.1" id="Layer_1" xmlns="http://www.w3.org/2000/svg" xmlns:xlink="http://www.w3.org/1999/xlink" x="0px" y="0px"
	 viewBox="0 0 512 512" style="enable-background:new 0 0 512 512;" xml:space="preserve">
<path d="M32.1,494.1c-1.1,9.5,6.3,17.8,15.9,17.8l32.3,0.1c8.1,0,14.9-5.9,16-13.9c0.7-4.9,1.8-11.1,3.4-18.1H412
	c1.6,6.9,2.9,13.2,3.5,18.1c1.1,8,7.9,14,16,13.9l32.3-0.1c9.6,0,17.1-8.3,15.9-17.8c-4.6-37.9-25.6-129-118.9-207.7
	c-17.6,12.4-37.1,24.2-58.5,35.4c6.2,4.6,11.4,9.4,17,14.2H191.7c21.3-18.1,47-35.6,78.7-51.4C442.5,199.1,474.1,65.8,479.9,17.9
	C481,8.4,473.6,0.1,464,0.1L431.6,0c-8.1,0-14.9,5.9-16,13.9c-0.7,4.9-1.8,11.1-3.4,18.1H99.8c-1.6-7-2.7-13.1-3.4-18.1
	c-1.1-8-7.9-14-16-13.9L48.1,0.1c-9.6,0-17.1,8.3-16,17.8C37.3,60.8,63.4,171.8,192,256C63.5,340.2,37.3,451.2,32.1,494.1z
	 M256,219.6c-25.1-13.7-46.4-28.4-64.3-43.6h128.5C302.4,191.2,281.1,206,256,219.6L256,219.6z M387.1,96c-5.8,10.4-12.8,21.1-21,32
	H146c-8.3-10.9-15.3-21.6-21-32H387.1z M124.9,416c5.8-10.4,12.8-21.1,21-32h219.4c8.3,10.9,15.4,21.6,21.2,32H124.9z"/>
</svg>
