<?xml version="1.0" encoding="utf-8"?>
<!-- Generator: Adobe Illustrator 24.0.0, SVG Export Plug-In . SVG Version: 6.00 Build 0)  -->
<svg version="1.1" id="Layer_1" xmlns="http://www.w3.org/2000/svg" xmlns:xlink="http://www.w3.org/1999/xlink" x="0px" y="0px"
	 viewBox="0 0 512 512" style="enable-background:new 0 0 512 512;" xml:space="preserve">
<path d="M279.9,240.3H227v-47.5h52.9V240.3L279.9,240.3z M279.9,76.8H227v48.6h52.9V76.8z M342.5,192.7h-52.9v47.5h52.9L342.5,192.7
	L342.5,192.7z M217.4,135h-52.9v48.1h52.9V135z M279.9,135H227v48.1h52.9V135z M501.3,215c-11.5-7.8-38.1-10.6-58.5-6.7
	c-2.6-19.2-13.4-35.9-32.9-51l-11.2-7.4l-7.4,11.2c-14.7,22.2-18.7,58.9-3,83c-7,3.8-20.6,8.9-38.7,8.6H1.9
	c-7,40.6,4.6,93.4,35.2,129.7c29.7,35.1,74.2,53,132.3,53c125.9,0,219.1-58,262.7-163.3c17.1,0.3,54.1,0.1,73-36.2
	c1.2-2,5.3-10.6,6.8-13.7L501.3,215L501.3,215z M92.5,192.7H39.7v47.5h52.9L92.5,192.7L92.5,192.7z M155,192.7h-52.9v47.5H155V192.7
	z M217.4,192.7h-52.9v47.5h52.9V192.7z M155,135h-52.9v48.1H155V135z"/>
</svg>
