<?xml version="1.0" encoding="utf-8"?>
<!-- Generator: Adobe Illustrator 24.0.0, SVG Export Plug-In . SVG Version: 6.00 Build 0)  -->
<svg version="1.1" id="Layer_1" xmlns="http://www.w3.org/2000/svg" xmlns:xlink="http://www.w3.org/1999/xlink" x="0px" y="0px"
	 viewBox="0 0 512 512" style="enable-background:new 0 0 512 512;" xml:space="preserve">
<path d="M266.1,224L416,277.5V496c0,8.8-7.2,16-16,16h-64c-8.8,0-16-7.2-16-16V384H160v112c0,8.8-7.2,16-16,16H80
	c-8.8,0-16-7.2-16-16V282.1C26.8,268.8,0,233.7,0,192c0-17.7,14.3-32,32-32s32,14.3,32,32c0,17.7,14.3,32,32,32H266.1z M512,112v32
	c0,35.3-28.7,64-64,64h-32v35.6l-128-45.7V48c0-14.3,17.2-21.4,27.3-11.3L342.6,64h53.6c10.9,0,23.8,7.9,28.6,17.7L432,96h64
	C504.8,96,512,103.2,512,112z M400,112c0-8.8-7.2-16-16-16s-16,7.2-16,16s7.2,16,16,16S400,120.8,400,112z"/>
</svg>
