<?xml version="1.0" encoding="utf-8"?>
<!-- Generator: Adobe Illustrator 24.0.0, SVG Export Plug-In . SVG Version: 6.00 Build 0)  -->
<svg version="1.1" id="Layer_1" xmlns="http://www.w3.org/2000/svg" xmlns:xlink="http://www.w3.org/1999/xlink" x="0px" y="0px"
	 viewBox="0 0 512 512" style="enable-background:new 0 0 512 512;" xml:space="preserve">
<path d="M261.5,275.3c16,4.4,30.8,11.9,44,22l143.6-47.8c7.5-2.5,11.5-10.6,9-18L404.4,70.4c-2.5-7.5-10.6-11.5-18-9l-54.3,18.1
	l29.4,88.4l-54,17.9l-29.4-88.4l-54.8,18.2c-7.5,2.5-11.5,10.6-9,18L261.5,275.3L261.5,275.3z M511.3,318.6l-9.1-27
	c-2.5-7.5-10.6-11.5-18-9l-189.8,63.3c-15.3-19.6-38.8-32.4-65.3-32.9L140.8,47.9c-3.9-11.6-14.8-19.5-27-19.5H14.2
	C6.4,28.5,0,34.9,0,42.7v28.4c0,7.8,6.4,14.2,14.2,14.2h79l82,245.9c-23.2,18.1-37.1,47.6-32,80.4c5.4,35,33.7,64.3,68.7,70.4
	c53.5,9.5,99.8-30.9,100.8-82.3l189.6-63.3C509.7,334,513.8,326,511.3,318.6z M227.6,440.9c-23.6,0-42.7-19.1-42.7-42.7
	c0-23.6,19.1-42.7,42.7-42.7s42.7,19.1,42.7,42.7C270.2,421.8,251.1,440.9,227.6,440.9z"/>
</svg>
