<?xml version="1.0" encoding="utf-8"?>
<!-- Generator: Adobe Illustrator 24.0.0, SVG Export Plug-In . SVG Version: 6.00 Build 0)  -->
<svg version="1.1" id="Layer_1" xmlns="http://www.w3.org/2000/svg" xmlns:xlink="http://www.w3.org/1999/xlink" x="0px" y="0px"
	 viewBox="0 0 512 512" style="enable-background:new 0 0 512 512;" xml:space="preserve">
<path d="M166.4,307.2h307.2c7,0,12.8-5.8,12.8-12.8V89.6c0-7-5.8-12.8-12.8-12.8H358.4v102.4L320,153.6l-38.4,25.6V76.8H166.4
	c-7,0-12.8,5.8-12.8,12.8v204.8C153.6,301.4,159.4,307.2,166.4,307.2z M499.2,358.4H102.4V64c0-7-5.8-12.8-12.8-12.8H12.8
	C5.8,51.2,0,57,0,64v25.6c0,7,5.8,12.8,12.8,12.8h38.4v294.4c0,7,5.8,12.8,12.8,12.8h66.3c-1.4,4-2.3,8.3-2.3,12.8
	c0,21.2,17.2,38.4,38.4,38.4s38.4-17.2,38.4-38.4c0-4.5-1-8.8-2.3-12.8h158.3c-1.4,4-2.3,8.3-2.3,12.8c0,21.2,17.2,38.4,38.4,38.4
	c21.2,0,38.4-17.2,38.4-38.4c0-4.5-1-8.8-2.3-12.8h66.2c7,0,12.8-5.8,12.8-12.8v-25.6C512,364.2,506.2,358.4,499.2,358.4z"/>
</svg>
