<?xml version="1.0" encoding="utf-8"?>
<!-- Generator: Adobe Illustrator 24.0.0, SVG Export Plug-In . SVG Version: 6.00 Build 0)  -->
<svg version="1.1" id="Layer_1" xmlns="http://www.w3.org/2000/svg" xmlns:xlink="http://www.w3.org/1999/xlink" x="0px" y="0px"
	 viewBox="0 0 512 512" style="enable-background:new 0 0 512 512;" xml:space="preserve">
<path d="M321.2,233.4l-108-31.6c-12.5-3.6-21.2-15.3-21.2-28.3c0-16.3,13.2-29.5,29.5-29.5h66.3c12.2,0,24.2,3.7,34.2,10.5
	c6.1,4.1,14.3,3.1,19.5-2l34.8-34c7.1-6.9,6.1-18.4-1.8-24.5C350,74.8,319.4,64.1,288,64V16c0-8.8-7.2-16-16-16h-32
	c-8.8,0-16,7.2-16,16v48h-2.5c-63.7,0-114.9,54.7-109,119.6c4.2,46.1,39.4,83.6,83.8,96.6l102.5,30c12.5,3.7,21.2,15.3,21.2,28.3
	c0,16.3-13.2,29.5-29.5,29.5h-66.3c-12.2,0-24.2-3.7-34.2-10.5c-6.1-4.1-14.3-3.1-19.5,2l-34.8,34c-7.1,6.9-6.1,18.4,1.8,24.5
	c24.5,19.2,55.1,29.9,86.5,30v48c0,8.8,7.2,16,16,16h32c8.8,0,16-7.2,16-16v-48.2c46.6-0.9,90.3-28.6,105.7-72.7
	C415.2,313.5,379.1,250.3,321.2,233.4L321.2,233.4z"/>
</svg>
