<?xml version="1.0" encoding="utf-8"?>
<!-- Generator: Adobe Illustrator 24.0.0, SVG Export Plug-In . SVG Version: 6.00 Build 0)  -->
<svg version="1.1" id="Layer_1" xmlns="http://www.w3.org/2000/svg" xmlns:xlink="http://www.w3.org/1999/xlink" x="0px" y="0px"
	 viewBox="0 0 512 512" style="enable-background:new 0 0 512 512;" xml:space="preserve">
<path d="M499.2,409.6h-64V142c0-21.8-17.2-39.6-38.4-39.6h-89.6v51.2H384v307.2h115.2c7.1,0,12.8-5.7,12.8-12.8v-25.6
	C512,415.3,506.3,409.6,499.2,409.6z M249.8,52L96.2,91.8c-11.4,3-19.4,13.6-19.4,25.7v292.1h-64c-7.1,0-12.8,5.7-12.8,12.8V448
	c0,7.1,5.7,12.8,12.8,12.8h268.8V77.7C281.6,60.5,266,47.8,249.8,52z M211.2,281.6c-10.6,0-19.2-11.5-19.2-25.6
	c0-14.1,8.6-25.6,19.2-25.6c10.6,0,19.2,11.5,19.2,25.6S221.8,281.6,211.2,281.6z"/>
</svg>
