<?xml version="1.0" encoding="utf-8"?>
<!-- Generator: Adobe Illustrator 24.0.0, SVG Export Plug-In . SVG Version: 6.00 Build 0)  -->
<svg version="1.1" id="Layer_1" xmlns="http://www.w3.org/2000/svg" xmlns:xlink="http://www.w3.org/1999/xlink" x="0px" y="0px"
	 viewBox="0 0 512 512" style="enable-background:new 0 0 512 512;" xml:space="preserve">
<path d="M14.7,255.8l138.9-25.5l-73,55c-8.1,8.1-2.4,21.8,9,21.8h178.2c-7.6-21.1-11.8-43.6-11.8-66.7v-33.8l-95.8-70.1
	c-19.1-12.7-44.2-11.2-61.6,3.7L4.6,233.3C-5.3,241.6,1.9,257.6,14.7,255.8z M460.2,283.1l-80.5-40.2c-13-6.5-21.2-19.8-21.2-34.3
	v-29.4h51.2l22.5,18.1c4.8,4.8,11.3,7.5,18.1,7.5H475c9.7,0,18.6-5.5,22.9-14.2l11.4-22.9c4.3-8.7,3.4-19.1-2.4-26.8l-59.6-79.5
	c-4.8-6.4-12.4-10.2-20.5-10.2h-190c-5.7,0-8.6,6.9-4.5,10.9l49.3,40.3l-47.7,19.9c-4.7,2.4-4.7,9.1,0,11.4l47.7,19.9v86.9
	c0,57.7,28.8,111.5,76.8,143.5c-156.5,5.4-275.6,32.8-347.3,48.7C4.6,434.1,0,439.9,0,446.6c0,7.8,6.4,14.2,14.2,14.2h399.3
	c50.6,0,95.7-38,98.4-88.6C513.9,334.4,493.7,299.9,460.2,283.1L460.2,283.1z M391.3,104.2l36.5,9.1c-2.2,8.7-10,15.1-19.3,14.6
	C398.2,127.4,387.9,117.9,391.3,104.2L391.3,104.2z"/>
</svg>
