<?xml version="1.0" encoding="utf-8"?>
<!-- Generator: Adobe Illustrator 24.0.0, SVG Export Plug-In . SVG Version: 6.00 Build 0)  -->
<svg version="1.1" id="Layer_1" xmlns="http://www.w3.org/2000/svg" xmlns:xlink="http://www.w3.org/1999/xlink" x="0px" y="0px"
	 viewBox="0 0 512 512" style="enable-background:new 0 0 512 512;" xml:space="preserve">
<path d="M416,352c-0.4,0-0.7,0.1-1,0.1l-39.2-65.3c5.1-9.2,8.2-19.6,8.2-30.8s-3.1-21.6-8.2-30.8l39.2-65.3c0.4,0,0.7,0.1,1,0.1
	c35.4,0,64-28.6,64-64s-28.6-64-64-64c-23.6,0-44,13-55.1,32H151.1C140,45,119.6,32,96,32c-35.3,0-64,28.7-64,64
	c0,23.6,13,44,32,55.1v209.8C45,372,32,392.4,32,416c0,35.4,28.7,64,64,64c23.6,0,44-13,55.1-32h209.8c11.1,19,31.5,32,55.1,32
	c35.4,0,64-28.6,64-64C480,380.6,451.3,352,416,352z M128,360.9V151.1c9.6-5.6,17.6-13.5,23.1-23.1h208.4L321,192.1
	c-0.4,0-0.7-0.1-1-0.1c-35.4,0-64,28.6-64,64s28.6,64,64,64c0.4,0,0.7-0.1,1-0.1l38.5,64.1H151.1C145.6,374.4,137.6,366.4,128,360.9
	z M304,256c0-8.8,7.2-16,16-16s16,7.2,16,16s-7.2,16-16,16S304,264.8,304,256z M432,96c0,8.8-7.2,16-16,16s-16-7.2-16-16
	s7.2-16,16-16S432,87.2,432,96z M96,80c8.8,0,16,7.2,16,16s-7.2,16-16,16s-16-7.2-16-16S87.2,80,96,80z M80,416c0-8.8,7.2-16,16-16
	s16,7.2,16,16s-7.2,16-16,16S80,424.8,80,416z M416,432c-8.8,0-16-7.2-16-16s7.2-16,16-16s16,7.2,16,16S424.8,432,416,432z"/>
</svg>
