<?xml version="1.0" encoding="utf-8"?>
<!-- Generator: Adobe Illustrator 24.0.0, SVG Export Plug-In . SVG Version: 6.00 Build 0)  -->
<svg version="1.1" id="Layer_1" xmlns="http://www.w3.org/2000/svg" xmlns:xlink="http://www.w3.org/1999/xlink" x="0px" y="0px"
	 viewBox="0 0 512 512" style="enable-background:new 0 0 512 512;" xml:space="preserve">
<path d="M256,56.9C114.6,56.9,0,107.8,0,170.7v170.7c0,62.8,114.6,113.8,256,113.8s256-50.9,256-113.8V170.7
	C512,107.8,397.4,56.9,256,56.9z M182.2,197.7c-4,14.8-12.9,27.2-25.2,36c-68-11.9-114.4-35.6-114.4-63c0-26.8,44.5-50.1,110.3-62.2
	l22.8,39.4C184.4,163,186.8,180.7,182.2,197.7z M256,241.8c-18.7,0-36.8-0.9-54.1-2.4c7.2-23.2,28.6-40.3,54.1-40.3s47,17,54.1,40.3
	C292.8,240.9,274.7,241.8,256,241.8z M312.9,113.8c0,31.4-25.5,56.9-56.9,56.9s-56.9-25.5-56.9-56.9v-11.6
	c18.1-1.7,37.2-2.6,56.9-2.6s38.8,1,56.9,2.6V113.8z M354.6,233.7c-12.3-8.8-21.3-21.2-25.2-36c-4.5-16.9-2.2-34.6,6.6-49.8
	l22.8-39.5c65.9,12.1,110.6,35.5,110.6,62.3C469.3,198.1,422.8,221.8,354.6,233.7z"/>
</svg>
