<?xml version="1.0" encoding="utf-8"?>
<!-- Generator: Adobe Illustrator 24.0.0, SVG Export Plug-In . SVG Version: 6.00 Build 0)  -->
<svg version="1.1" id="Layer_1" xmlns="http://www.w3.org/2000/svg" xmlns:xlink="http://www.w3.org/1999/xlink" x="0px" y="0px"
	 viewBox="0 0 512 512" style="enable-background:new 0 0 512 512;" xml:space="preserve">
<path d="M351.5,114.7c-22.2-14-43.5-19.5-64.7-33.5c-13-8.8-31.3-30-46.5-48.3c-2.7,29.3-11.5,41.2-22,49.5
	c-21.3,17-34.8,22.2-53.5,32.3C149,123,64,181.5,64,290.5C64,399.7,155.8,480,257.8,480C359.5,480,448,406,448,294
	C448,181.7,365,123,351.5,114.7z M354,440.3c-20.1,20.1-90.1,28.7-116.7,4.2c-4.8-4.8,0.3-12,6.5-12c0,0,17,13.3,51.5,13.3
	c27,0,46-7.7,54.5-14C355.9,427.2,358.2,436.1,354,440.3z M299.5,387.7c8.7-3.6,29-3.8,36.8,1.3c4.1,2.8,16.1,18.8,6.2,23.7
	c-8.4,4.2-1.2-15.7-26.5-15.7c-14.7,0-19.5,5.2-26.7,11c-7,6-9.8,8-12.2,4.7C271.1,404.5,293,390.4,299.5,387.7z M392,405
	c-15.2-1-45.5-48.8-65-49.5c-30.9-0.9-104.1,80.7-161.3,42c-38.8-26.6-14.6-104.8,51.8-105.2c49.5-0.5,83.8,49,108.5,48.5
	c21.3-0.3,61.8-41.8,81.8-41.8C456.5,299,431.1,408.3,392,405z"/>
</svg>
