<?xml version="1.0" encoding="utf-8"?>
<!-- Generator: Adobe Illustrator 24.0.0, SVG Export Plug-In . SVG Version: 6.00 Build 0)  -->
<svg version="1.1" id="Layer_1" xmlns="http://www.w3.org/2000/svg" xmlns:xlink="http://www.w3.org/1999/xlink" x="0px" y="0px"
	 viewBox="0 0 512 512" style="enable-background:new 0 0 512 512;" xml:space="preserve">
<path d="M83.2,128H44.8c-10.6,0-19.2,8.6-19.2,19.2v83.2H6.4c-3.5,0-6.4,2.9-6.4,6.4v38.4c0,3.5,2.9,6.4,6.4,6.4h19.2v83.2
	c0,10.6,8.6,19.2,19.2,19.2h38.4c10.6,0,19.2-8.6,19.2-19.2V147.2C102.4,136.6,93.8,128,83.2,128z M505.6,230.4h-19.2v-83.2
	c0-10.6-8.6-19.2-19.2-19.2h-38.4c-10.6,0-19.2,8.6-19.2,19.2v217.6c0,10.6,8.6,19.2,19.2,19.2h38.4c10.6,0,19.2-8.6,19.2-19.2
	v-83.2h19.2c3.5,0,6.4-2.9,6.4-6.4v-38.4C512,233.3,509.1,230.4,505.6,230.4z M364.8,76.8h-38.4c-10.6,0-19.2,8.6-19.2,19.2v134.4
	H204.8V96c0-10.6-8.6-19.2-19.2-19.2h-38.4c-10.6,0-19.2,8.6-19.2,19.2v320c0,10.6,8.6,19.2,19.2,19.2h38.4
	c10.6,0,19.2-8.6,19.2-19.2V281.6h102.4V416c0,10.6,8.6,19.2,19.2,19.2h38.4c10.6,0,19.2-8.6,19.2-19.2V96
	C384,85.4,375.4,76.8,364.8,76.8z"/>
</svg>
