<?xml version="1.0" encoding="utf-8"?>
<!-- Generator: Adobe Illustrator 24.0.0, SVG Export Plug-In . SVG Version: 6.00 Build 0)  -->
<svg version="1.1" id="Layer_1" xmlns="http://www.w3.org/2000/svg" xmlns:xlink="http://www.w3.org/1999/xlink" x="0px" y="0px"
	 viewBox="0 0 512 512" style="enable-background:new 0 0 512 512;" xml:space="preserve">
<path d="M335,134.5l0.2-0.2l-11.5-57.6h-80.4v102.4h48.6C304.8,163.7,319.2,148.5,335,134.5L335,134.5z M217.6,76.8h-80.4
	l-20.5,102.4h100.9V76.8z M369,134.5c14.6,13,28.4,27,40.9,41.2c4.6-4.5,9.1-8.9,13.8-13l17-15.2l17,15.2c0.9,0.7,1.7,1.7,2.5,2.5
	c-0.1-0.6,0.2-1.2,0-1.8l-19.2-76.8c-1.4-5.7-6.5-9.7-12.3-9.7h-79.1l9.8,49.2L369,134.5z M12.8,179.2h77.9l20.5-102.4H32
	c-5.8,0-11,4-12.4,9.7L0.4,163.3C-1.7,171.3,4.4,179.2,12.8,179.2z M272.5,204.8H25.6l3.2,25.6h-16c-7,0-12.8,5.8-12.8,12.8v25.6
	c0,7,5.8,12.8,12.8,12.8h22.4l16,128v12.8c0,7,5.8,12.8,12.8,12.8h25.6c7,0,12.8-5.8,12.8-12.8v-12.8h167.1
	c-24.2-27-39-62.3-39-101.1C230.4,279.8,246.3,242.1,272.5,204.8z M440.9,181.7c-11.9,10.6-22.6,21.8-32.2,33
	c-15.6-20.6-34.9-41.6-56.8-61.1c-56.2,50.2-96,115.5-96,154.9c0,70,57.3,126.7,128,126.7s128-56.7,128-126.7
	C512,279.2,482.3,218.7,440.9,181.7L440.9,181.7z M426,365.3c-11.8,8.6-26.3,13.6-42,13.6c-39.2,0-71.1-26.8-71.1-70.4
	c0-21.7,13.2-40.8,39.5-73.5c3.8,4.5,53.7,70.5,53.7,70.5l31.8-37.6c2.2,3.8,4.3,7.6,6.2,11.2C459,308.4,452.7,345.9,426,365.3
	L426,365.3z"/>
</svg>
