<?xml version="1.0" encoding="utf-8"?>
<!-- Generator: Adobe Illustrator 24.0.0, SVG Export Plug-In . SVG Version: 6.00 Build 0)  -->
<svg version="1.1" id="Layer_1" xmlns="http://www.w3.org/2000/svg" xmlns:xlink="http://www.w3.org/1999/xlink" x="0px" y="0px"
	 viewBox="0 0 512 512" style="enable-background:new 0 0 512 512;" xml:space="preserve">
<path d="M497.8,170.7c9.2,0,16-8.7,13.8-17.7l-21.3-85.3c-1.6-6.3-7.3-10.8-13.8-10.8h-87.9l22.8,113.8H497.8z M241.8,56.9h-89.3
	l-22.8,113.8h112.1V56.9z M359.6,56.9h-89.3v113.8h112.1L359.6,56.9z M14.2,170.7h86.5l22.8-113.8H35.6c-6.5,0-12.2,4.4-13.8,10.8
	L0.4,153C-1.8,162,5,170.7,14.2,170.7z M497.8,227.6H480l3.6-28.4H28.4l3.6,28.4H14.2C6.4,227.6,0,234,0,241.8v28.4
	c0,7.8,6.4,14.2,14.2,14.2h24.9l17.8,142.2v14.2c0,7.8,6.4,14.2,14.2,14.2h28.4c7.8,0,14.2-6.4,14.2-14.2v-14.2h284.4v14.2
	c0,7.8,6.4,14.2,14.2,14.2h28.4c7.8,0,14.2-6.4,14.2-14.2v-14.2l17.8-142.2h24.9c7.8,0,14.2-6.4,14.2-14.2v-28.4
	C512,234,505.6,227.6,497.8,227.6z"/>
</svg>
