<?xml version="1.0" encoding="utf-8"?>
<!-- Generator: Adobe Illustrator 24.0.0, SVG Export Plug-In . SVG Version: 6.00 Build 0)  -->
<svg version="1.1" id="Layer_1" xmlns="http://www.w3.org/2000/svg" xmlns:xlink="http://www.w3.org/1999/xlink" x="0px" y="0px"
	 viewBox="0 0 512 512" style="enable-background:new 0 0 512 512;" xml:space="preserve">
<path d="M329.2,47.5c1.2-13,21.3-14,36.6-8.7c0.9,0.3,26.2,9.7,19,15.2C356.9,46.6,328.4,72.2,329.2,47.5z M128.2,54.4
	c30.7-8.1,62,20,61.1-7.1c-1.3-14.2-23.4-15.3-40.2-9.6C148.1,38,120.4,48.2,128.2,54.4z M335.4,160c-8.8,0-16,7.2-16,16
	s7.2,16,16,16s16-7.2,16-16S344.2,160,335.4,160z M175.7,160c-8.8,0-16,7.2-16,16s7.2,16,16,16s16-7.2,16-16S184.5,160,175.7,160z
	 M494.2,323.2c-9.9,24-40.7,11-63.9-1.2c-13.5,69.1-58.1,111.4-126.3,124.2c0.3,0.9-2-0.1,24,1c33.6,1.4,63.8-3.1,97.4-8
	c-19.8-13.8-11.4-37.1-9.8-38.1c1.4-0.9,14.7,1.7,21.6,11.5c8.6-12.5,28.4-14.8,30.2-13.6c1.6,1.1,6.6,20.9-6.9,34.6
	c4.7-0.9,8.2-1.6,9.8-2.1c2.6-0.8,17.7,11.3,3.1,13.3c-14.3,2.3-22.6,5.1-47.1,10.8c-45.9,10.7-85.9,11.8-117.7,12.8l1,11.6
	c3.8,18.1-23.4,24.3-27.6,6.2c0.8,17.9-27.1,21.8-28.4-1l-0.5,5.3c-0.7,18.4-28.4,17.9-28.3-0.6c-7.5,13.5-28.1,6.8-26.4-8.5
	l1.2-12.4c-36.7,0.9-59.7,3.1-61.8,3.1c-20.9,0-20.9-31.6,0-31.6c2.4,0,27.7,1.3,63.2,2.8c-61.1-15.5-103.7-55-114.9-118.2
	c-25,12.8-57.5,26.8-68.2,0.8c-10.5-25.4,21.5-42.6,66.8-73.4c0.7-6.6,1.6-13.3,2.7-19.8c-14.4-19.6-11.6-36.3-16.1-60.4
	c-16.8,2.4-23.2-9.1-23.6-23.1c0.3-7.3,2.1-14.9,2.4-15.4c1.1-1.8,10.1-2,12.7-2.6c6-31.7,50.6-33.2,90.9-34.5
	c19.7-21.8,45.2-41.5,80.9-48.3C219.3,29,231.2,8.5,232.2,8c1.7-0.8,21.2,4.3,26.3,23.2c5.2-8.8,18.3-11.4,19.6-10.7
	c1.1,0.6,6.4,15-4.9,25.9c40.3,3.5,72.2,24.7,96,50.7c36.1,1.5,71.8,5.9,77.1,34c2.7,0.6,11.6,0.8,12.7,2.6
	c0.3,0.5,2.1,8.1,2.4,15.4c-0.5,13.9-6.8,25.4-23.6,23.1c-3.2,17.3-2.7,32.9-8.7,47.7c2.4,11.7,4,23.8,4.8,36.4
	C470.9,281.7,504.2,298.8,494.2,323.2L494.2,323.2z M223.4,159.9c0.9-44-37.9-42.2-78.6-40.3c-21.7,1-38.9,1.9-45.5,13.9
	c-11.4,20.9,5.9,92.9,23.2,101.2c9.8,4.7,73.4,7.9,86.3-7.1C217,218.2,223.8,178.2,223.4,159.9L223.4,159.9z M275.4,218.2
	c-4.3-12.4-6-30.1-15.3-32.7c-2-0.5-9-0.5-11,0c-10,2.8-10.8,22.1-17,37.2c15.4,0,19.3,9.7,23.7,9.7
	C260.1,232.4,262.1,221.1,275.4,218.2z M411.1,133.5c-6.6-12.1-24.8-12.9-46.5-13.9c-40.2-1.9-78.2-3.8-77.3,40.3
	c-0.5,18.3,5,58.3,13.2,67.8c13,14.9,76.6,11.8,86.3,7.1C402.6,227.2,423.3,155.9,411.1,133.5z"/>
</svg>
