<?xml version="1.0" encoding="utf-8"?>
<!-- Generator: Adobe Illustrator 24.0.0, SVG Export Plug-In . SVG Version: 6.00 Build 0)  -->
<svg version="1.1" id="Layer_1" xmlns="http://www.w3.org/2000/svg" xmlns:xlink="http://www.w3.org/1999/xlink" x="0px" y="0px"
	 viewBox="0 0 512 512" style="enable-background:new 0 0 512 512;" xml:space="preserve">
<path d="M484.8,202.8L441,290.7l-43.9-87.9h-30l8.7,16.5c-9.2-15.2-28.7-20.8-50.6-20.8c-25.4,0-54.3,7-57.2,34.5h27
	c1.1-11,12.6-17.4,28-17.4c20.8,0,32.8,7.7,32.8,26.4v2.7c-10.2,0-22.4,0.1-33.4,0.3c-33.9,0.7-55.7,8-61.4,27.5
	c0.8-4.2,1.2-8.5,1.2-13c0-41.7-31.8-61-60.3-61c-17,0-34.4,4.4-47,19.4v-64.5h-25.7v135.6c0,8.2-0.5,18.3-0.9,26.5h25.2
	c0.6-5,0.9-10.3,0.9-15.6c10.9,13.3,28.3,19.9,47,19.9c29.5,0,51.9-17.5,58.6-43.4c-0.4,2.2-0.6,4.6-0.6,7.2c0,19.3,16.9,36,48.5,36
	c21.3,0,36.6-4.6,49.5-20.4c0,5.3,0.2,10.6,0.9,16.2h23.8c-0.6-6.6-0.8-14-0.8-21.4v-52.5c0-7.4-1.4-13.8-3.8-19l49.2,92.9
	L404,358.7h28.7L512,202.8H484.8z M195,302.3c-23.7,0-40.2-17.2-40.2-43c0-25.9,16.5-43,40.2-43c23.8,0,40.2,17.1,40.2,43
	C235.1,285.1,218.8,302.3,195,302.3z M355.7,264.4c0,24-14.3,38.7-41.3,38.7c-20.1,0-28-10.7-28-20.6c0-15.3,14.5-19.5,37.8-20.2
	c10.5-0.4,22.1-0.5,31.5-0.5V264.4z M26.1,265.7h103.1v-6.8c0-41.4-26.5-60.3-62.7-60.3C21,198.6,0,223.2,0,260.7
	c0,34,20.2,59.2,66,59.2c25.1,0,54.4-9.4,59.5-36.9H99.1C89.5,311.6,28.9,312.3,26.1,265.7z M102.1,248.6H26.6
	C32.1,203.3,100.3,204.8,102.1,248.6L102.1,248.6z"/>
</svg>
