<?xml version="1.0" encoding="utf-8"?>
<!-- Generator: Adobe Illustrator 24.0.0, SVG Export Plug-In . SVG Version: 6.00 Build 0)  -->
<svg version="1.1" id="Layer_1" xmlns="http://www.w3.org/2000/svg" xmlns:xlink="http://www.w3.org/1999/xlink" x="0px" y="0px"
	 viewBox="0 0 512 512" style="enable-background:new 0 0 512 512;" xml:space="preserve">
<path d="M357.9,102.4l80.2,80.2c3.4,3.4,3.4,8.9,0,12.3L243.9,389l-82.5,9.2c-11,1.2-20.4-8.1-19.1-19.1l9.2-82.5l194.1-194.1
	C349,99,354.5,99,357.9,102.4L357.9,102.4z M501.9,82l-43.4-43.4c-13.5-13.5-35.5-13.5-49.1,0L378,70.1c-3.4,3.4-3.4,8.9,0,12.3
	l80.2,80.2c3.4,3.4,8.9,3.4,12.3,0l31.5-31.5C515.4,117.5,515.4,95.6,501.9,82z M341.3,336.2v90.5H56.9V142.2h204.3
	c2.8,0,5.5-1.2,7.6-3.1l35.6-35.6c6.8-6.8,2-18.2-7.6-18.2h-254C19.1,85.3,0,104.4,0,128v312.9c0,23.6,19.1,42.7,42.7,42.7h312.9
	c23.6,0,42.7-19.1,42.7-42.7V300.6c0-9.5-11.5-14.2-18.2-7.6l-35.6,35.6C342.5,330.7,341.3,333.3,341.3,336.2z"/>
</svg>
