<?xml version="1.0" encoding="utf-8"?>
<!-- Generator: Adobe Illustrator 24.0.0, SVG Export Plug-In . SVG Version: 6.00 Build 0)  -->
<svg version="1.1" id="Layer_1" xmlns="http://www.w3.org/2000/svg" xmlns:xlink="http://www.w3.org/1999/xlink" x="0px" y="0px"
	 viewBox="0 0 512 512" style="enable-background:new 0 0 512 512;" xml:space="preserve">
<path d="M256,8C119,8,8,119,8,256s111,248,248,248s248-111,248-248S393,8,256,8z M399.8,293.2c-16.5,65.3-76,111.6-143.8,111.6
	s-127.3-46.3-143.8-111.6c-1.7-7.4,2.5-15.7,9.9-17.4c7.4-1.6,15.7,2.5,17.4,9.9c14.1,52.9,62,90.1,116.6,90.1
	s102.5-37.2,116.6-90.1c1.6-7.4,9.9-12.4,17.4-9.9C397.4,277.5,402.3,285.8,399.8,293.2z"/>
</svg>
