<?xml version="1.0" encoding="utf-8"?>
<!-- Generator: Adobe Illustrator 24.0.0, SVG Export Plug-In . SVG Version: 6.00 Build 0)  -->
<svg version="1.1" id="Layer_1" xmlns="http://www.w3.org/2000/svg" xmlns:xlink="http://www.w3.org/1999/xlink" x="0px" y="0px"
	 viewBox="0 0 512 512" style="enable-background:new 0 0 512 512;" xml:space="preserve">
<path d="M511.9,243.5c-0.9-8.6-8.6-5.4-8.6-5.4s-12.5,9.7-23.4,8.6c-11-1-7.5-25.6-7.5-25.6s2.4-22.5-4.1-24.3
	c-6.5-1.9-14.4,5.8-14.4,5.8s-9.9,11-14.6,25l-1.3,0.4c0,0,1.5-24.5-0.2-30.1c-1.3-2.8-13.1-2.6-15,2.4c-1.9,5-11.4,39.4-12,53.8
	c0,0-18.5,15.7-34.6,18.2c-16.2,2.6-20-7.5-20-7.5s43.8-12.2,42.3-47.3c-1.5-35-35.4-22.1-39.2-19.2c-3.7,2.8-23.5,14.7-29.3,47.8
	c-0.2,1.1-0.6,6-0.6,6s-17,11.4-26.4,14.4c0,0,26.4-44.5-5.8-64.7c-9.1-5.4-17-0.4-21.8,4.2c10.9-13.8,37.1-51.4,29.5-84.2
	c-4.6-19.5-14.4-21.7-23.4-18.5c-13.6,5.4-18.8,13.4-18.8,13.4s-17.6,25.6-21.7,63.6S231,264.3,231,264.3s-8.4,8.2-16.2,8.6
	c-7.8,0.4-4.3-23-4.3-23s6-35.7,5.6-41.7s-0.9-9.3-7.9-11.4c-7.1-2.2-14.8,6.9-14.8,6.9s-20.4,31-22.2,35.7l-1,1.9l-1-1.3
	c0,0,14.4-42.2,0.6-42.8c-13.8-0.6-22.8,15-22.8,15s-15.7,26.2-16.3,29.2l-1-1.3c0,0,6.5-30.6,5.1-38.1c-1.3-7.5-8.4-6-8.4-6
	s-9-1-11.4,4.7c-2.3,5.8-11,44.2-12,56.6c0,0-22.6,16.2-37.4,16.3c-14.8,0.2-13.4-9.4-13.4-9.4s54.4-18.6,39.5-55.4
	c-6.6-9.4-14.4-12.4-25.4-12.2c-11,0.2-24.2,6.9-33,26.6c-4.2,9.4-5.4,18.4-6.2,25.2c0,0-9.8,1.9-15-2.3s-8,0-8,0s-9,11.2-0.1,14.6
	c8.9,3.4,22.5,4.9,22.5,4.9c1.3,6,5,15.6,15.7,23.8c16.2,12.2,47-1,47-1l12.7-7c0,0,0.4,11.7,9.7,13.4c9.3,1.7,13.1,0.8,29.2-38.3
	c9.4-20,10.1-18.9,10.1-18.9l1-0.2c0,0-7.3,37.4-4.5,47.8c2.8,10.2,15,9.1,15,9.1s6.6,1.9,12-17c5.4-18.9,15.7-39.9,15.7-39.9h1.3
	c0,0-4.5,38.5,2.4,51c6.9,12.5,24.7,4.2,24.7,4.2s12.5-6.2,14.4-8.2c0,0,14.8,12.6,35.7,10.3c46.6-9.2,63.3-20.7,63.3-20.7
	s8,19.5,32.9,21.4c28.4,2.2,43.8-14.9,43.8-14.9s-0.2,10.8,9.7,14.9c9.9,4.1,16.6-18.2,16.6-18.2l16.6-45.8h1.5
	c0,0,0.9,29.8,17.2,34.6c16.3,4.7,37.6-11,37.6-11S512.8,252.1,511.9,243.5L511.9,243.5z M49.5,247.7c0.6-25.6,17.4-36.7,23.2-31.2
	c5.8,5.6,3.7,17.6-7.3,25.1C54.5,249.2,49.5,247.7,49.5,247.7z M267.8,148.7c0,0,15.3-39.8,18.9-20.4s-32,77-32,77
	C255,192.3,267.8,148.7,267.8,148.7z M286,259.4c-10.1,26.4-34.6,15.7-34.6,15.7s-2.8-9.4,5.1-35.9c7.9-26.5,26.6-16.2,26.6-16.2
	S296.1,232.9,286,259.4z M353.7,247.7c0,0-2.4-8.4,6.5-24.5c8.8-16.2,15.7-7.3,15.7-7.3s7.5,8.2-1,20.4
	C366.2,248.6,353.7,247.7,353.7,247.7L353.7,247.7z"/>
</svg>
