<?xml version="1.0" encoding="utf-8"?>
<!-- Generator: Adobe Illustrator 24.0.0, SVG Export Plug-In . SVG Version: 6.00 Build 0)  -->
<svg version="1.1" id="Layer_1" xmlns="http://www.w3.org/2000/svg" xmlns:xlink="http://www.w3.org/1999/xlink" x="0px" y="0px"
	 viewBox="0 0 512 512" style="enable-background:new 0 0 512 512;" xml:space="preserve">
<path d="M32,32c477.6,0,366.6,317.3,367.1,366.3L480,480h-26l-70.4-71.2c-39,4.2-124.4,34.5-214.4-37C79,300.3,84,214.7,32,32z
	 M111.7,78c-49.7-23.5-5.2,9.2-5.2,9.2c45.2,31.2,66,73.7,90.2,119.9c31.5,60.2,79,139.7,144.2,167.7c65,28,34.2,12.5,6-8.5
	c-28.2-21.2-68.2-87-91-130.2C224.2,176.1,194.9,117.5,111.7,78L111.7,78z"/>
</svg>
