<?xml version="1.0" encoding="utf-8"?>
<!-- Generator: Adobe Illustrator 24.0.0, SVG Export Plug-In . SVG Version: 6.00 Build 0)  -->
<svg version="1.1" id="Layer_1" xmlns="http://www.w3.org/2000/svg" xmlns:xlink="http://www.w3.org/1999/xlink" x="0px" y="0px"
	 viewBox="0 0 512 512" style="enable-background:new 0 0 512 512;" xml:space="preserve">
<path d="M448,304H64c-17.7,0-32,14.3-32,32v32c0,17.7,14.3,32,32,32h384c17.7,0,32-14.3,32-32v-32C480,318.3,465.7,304,448,304z
	 M448,112H64c-17.7,0-32,14.3-32,32v32c0,17.7,14.3,32,32,32h384c17.7,0,32-14.3,32-32v-32C480,126.3,465.7,112,448,112z"/>
</svg>
