<?xml version="1.0" encoding="utf-8"?>
<!-- Generator: Adobe Illustrator 24.0.0, SVG Export Plug-In . SVG Version: 6.00 Build 0)  -->
<svg version="1.1" id="Layer_1" xmlns="http://www.w3.org/2000/svg" xmlns:xlink="http://www.w3.org/1999/xlink" x="0px" y="0px"
	 viewBox="0 0 512 512" style="enable-background:new 0 0 512 512;" xml:space="preserve">
<path d="M69.8,94H0v324h80.3c-39.8-42.1-63-100.2-63-169.7C17.3,187,36.6,134.2,69.8,94z M260.3,101.8
	c-36.7,0.1-68.1,26.8-71.4,66.6h135.9C324,128.6,297.3,101.8,260.3,101.8L260.3,101.8z M444.9,94.1h0.2L445,94L444.9,94.1z
	 M445.1,94.1c25.1,34.2,39,78,37,130.2c0.4,4.8,0.4,9.4,0,19.3H184.2C184,331.3,215.3,399.4,295,399.8
	c54.8-0.2,94.4-40.8,121.5-84.9l77.1,38.6c-13.9,24.7-29.2,46.2-46.3,64.6H512v-324L445.1,94.1z"/>
</svg>
