<?xml version="1.0" encoding="utf-8"?>
<!-- Generator: Adobe Illustrator 24.0.0, SVG Export Plug-In . SVG Version: 6.00 Build 0)  -->
<svg version="1.1" id="Layer_1" xmlns="http://www.w3.org/2000/svg" xmlns:xlink="http://www.w3.org/1999/xlink" x="0px" y="0px"
	 viewBox="0 0 512 512" style="enable-background:new 0 0 512 512;" xml:space="preserve">
<path d="M448,348c-1.8,10.8-13.8,110-15.5,132c-117.9-4.3-219.9-4.7-368.5,0v-25.5c45.5-8.9,60.6-8,61-35.3
	c1.8-72.3,3.5-244.1,0-322c-1-28.5-12.1-26.8-61-36V35.8c73.9,2.4,255.9,8.6,363-3.8c-3.5,38.3-7.8,126.5-7.8,126.5H396
	C384.9,115.7,377.2,68,341.3,68h-137c-10.3,0-10.8,3.5-10.8,9.8v163.8c58,0.5,88.5-2.5,88.5-2.5c29.8-1,27.6-8.5,40.8-65.3h25.8
	c-4.4,101.4-3.9,61.8-1.8,160.3H321c-9.2-40.1-9.1-61-39.5-61.5c0,0-21.5-2-88-2v139c0,26,14.3,38.3,44.3,38.3H327
	c63.6,0,66.6-25,98.8-99.8L448,348L448,348z"/>
</svg>
