<?xml version="1.0" encoding="utf-8"?>
<!-- Generator: Adobe Illustrator 24.0.0, SVG Export Plug-In . SVG Version: 6.00 Build 0)  -->
<svg version="1.1" id="Layer_1" xmlns="http://www.w3.org/2000/svg" xmlns:xlink="http://www.w3.org/1999/xlink" x="0px" y="0px"
	 viewBox="0 0 512 512" style="enable-background:new 0 0 512 512;" xml:space="preserve">
<path d="M184.8,132.2c1.6,22.3-17.6,21.6-21.6,21.6c-68.9,0-73.6-1-83.6,3.3c-0.6,0.2-0.7,0-0.4-0.4L187.8,46.5
	c0.4-0.4,0.6-0.2,0.4,0.4C183.8,56.8,184.8,61.9,184.8,132.2L184.8,132.2z M263.8,440.2c-14.7-37.1,13-76.9,52.5-76.6
	c17.5,0,22.6,23.2,7.9,31.4c-6.2,3.3-24.9,1.7-25.1,19.2c-0.1,17.1,19.7,25,31.2,24.9c25.2,0,45.6-20.4,45.6-45.6c0,0,0,0,0,0v-0.1
	c0-11.6-7.8-47.2-47.5-55.3c-7.7-1.5-65-6.4-68.4-50.5c-3.7,16.9-17.4,63.5-43.1,69.1c-8.7,1.9-69.7,7.6-112.9-36.8
	c0,0-18.6-15.2-28.2-58c-3.4-15.8-9.3-39.7-11.1-62c0-18,11.1-30.4,25.1-32.2c81,0,90,2.3,101-7.8c9.8-9.2,7.8-15.5,7.8-102.8
	c1-8.3,7.8-30.8,53.4-24.1c6,0.9,31.9,4.2,37.5,30.6l64.3,11.2c20.4,3.7,70.9,7,80.6,57.9c22.7,121.1,8.9,238.5,7.8,238.5
	C426.1,485.5,331.1,480,331.1,480C312.1,479.8,276.8,470.6,263.8,440.2L263.8,440.2z M344.8,235.4c-1,1.9-2.2,6,0.9,7
	c14.1,4.9,39.8,6.8,45.9,5.5c3.1-0.3,3-4.4,2.5-6.6C390.4,219.4,353.1,214.8,344.8,235.4L344.8,235.4z"/>
</svg>
