<?xml version="1.0" encoding="utf-8"?>
<!-- Generator: Adobe Illustrator 24.0.0, SVG Export Plug-In . SVG Version: 6.00 Build 0)  -->
<svg version="1.1" id="Layer_1" xmlns="http://www.w3.org/2000/svg" xmlns:xlink="http://www.w3.org/1999/xlink" x="0px" y="0px"
	 viewBox="0 0 512 512" style="enable-background:new 0 0 512 512;" xml:space="preserve">
<path d="M506.2,419.6c16.4,28.4-4.2,64-37,64H42.7c-32.8,0-53.3-35.6-37-64L219,49.8c16.4-28.5,57.5-28.4,73.9,0L506.2,419.6
	L506.2,419.6z M256,343.1c-22.6,0-40.9,18.3-40.9,40.9s18.3,40.9,40.9,40.9s40.9-18.3,40.9-40.9S278.6,343.1,256,343.1z
	 M217.2,196.1l6.6,120.9c0.3,5.7,5,10.1,10.7,10.1h43.2c5.7,0,10.3-4.4,10.7-10.1l6.6-120.9c0.3-6.1-4.5-11.2-10.7-11.2h-56.3
	C221.7,184.9,216.8,190,217.2,196.1L217.2,196.1z"/>
</svg>
