<?xml version="1.0" encoding="utf-8"?>
<!-- Generator: Adobe Illustrator 24.0.0, SVG Export Plug-In . SVG Version: 6.00 Build 0)  -->
<svg version="1.1" id="Layer_1" xmlns="http://www.w3.org/2000/svg" xmlns:xlink="http://www.w3.org/1999/xlink" x="0px" y="0px"
	 viewBox="0 0 512 512" style="enable-background:new 0 0 512 512;" xml:space="preserve">
<path d="M244.7,315.3L152,408l32.9,31c15.1,15.1,4.4,41-17,41H56c-13.3,0-24-10.7-24-24V344c0-21.4,25.8-32.1,40.9-17l31.1,33
	l92.7-92.7c6.2-6.2,16.4-6.2,22.6,0l25.4,25.4C250.9,298.9,250.9,309.1,244.7,315.3z M267.3,196.7L360,104l-32.9-31
	c-15.1-15.1-4.4-41,17-41h112c13.3,0,24,10.7,24,24v112c0,21.4-25.8,32.1-40.9,17L408,152l-92.7,92.7c-6.2,6.2-16.4,6.2-22.6,0
	l-25.4-25.4C261.1,213.1,261.1,202.9,267.3,196.7L267.3,196.7z"/>
</svg>
