<?xml version="1.0" encoding="utf-8"?>
<!-- Generator: Adobe Illustrator 24.0.0, SVG Export Plug-In . SVG Version: 6.00 Build 0)  -->
<svg version="1.1" id="Layer_1" xmlns="http://www.w3.org/2000/svg" xmlns:xlink="http://www.w3.org/1999/xlink" x="0px" y="0px"
	 viewBox="0 0 512 512" style="enable-background:new 0 0 512 512;" xml:space="preserve">
<path d="M480,344v112c0,13.2-10.7,24-23.9,24H456H344c-21.4,0-32.1-25.9-17-41l36.2-36.2L256,295.6L148.8,402.9L185,439
	c15.1,15.1,4.4,41-17,41H56c-13.2,0-24-10.7-24-23.9V456V344c0-21.4,25.9-32.1,41-17l36.2,36.2L216.5,256L109.2,148.7L73,185
	c-15.1,15.1-41,4.4-41-17V56c0-13.2,10.7-24,23.9-24H56h112c21.4,0,32.1,25.9,17,41l-36.2,36.2L256,216.4l107.2-107.3L327,73
	c-15.1-15.1-4.4-41,17-41h112c13.2,0,24,10.7,24,23.9V56v112c0,21.4-25.9,32.1-41,17l-36.2-36.2L295.5,256l107.3,107.3l36.2-36.2
	C454.1,311.9,480,322.6,480,344z"/>
</svg>
