<?xml version="1.0" encoding="utf-8"?>
<!-- Generator: Adobe Illustrator 24.0.0, SVG Export Plug-In . SVG Version: 6.00 Build 0)  -->
<svg version="1.1" id="Layer_1" xmlns="http://www.w3.org/2000/svg" xmlns:xlink="http://www.w3.org/1999/xlink" x="0px" y="0px"
	 viewBox="0 0 512 512" style="enable-background:new 0 0 512 512;" xml:space="preserve">
<path d="M32,180V56c0-13.3,10.7-24,24-24h124c6.6,0,12,5.4,12,12v40c0,6.6-5.4,12-12,12H96v84c0,6.6-5.4,12-12,12H44
	C37.4,192,32,186.6,32,180z M320,44v40c0,6.6,5.4,12,12,12h84v84c0,6.6,5.4,12,12,12h40c6.6,0,12-5.4,12-12V56c0-13.3-10.7-24-24-24
	H332C325.4,32,320,37.4,320,44z M468,320h-40c-6.6,0-12,5.4-12,12v84h-84c-6.6,0-12,5.4-12,12v40c0,6.6,5.4,12,12,12h124
	c13.3,0,24-10.7,24-24V332C480,325.4,474.6,320,468,320z M192,468v-40c0-6.6-5.4-12-12-12H96v-84c0-6.6-5.4-12-12-12H44
	c-6.6,0-12,5.4-12,12v124c0,13.3,10.7,24,24,24h124C186.6,480,192,474.6,192,468z"/>
</svg>
