<?xml version="1.0" encoding="utf-8"?>
<!-- Generator: Adobe Illustrator 24.0.0, SVG Export Plug-In . SVG Version: 6.00 Build 0)  -->
<svg version="1.1" id="Layer_1" xmlns="http://www.w3.org/2000/svg" xmlns:xlink="http://www.w3.org/1999/xlink" x="0px" y="0px"
	 viewBox="0 0 512 512" style="enable-background:new 0 0 512 512;" xml:space="preserve">
<path d="M256,43.4C138.6,43.4,43.4,138.6,43.4,256S138.6,468.6,256,468.6S468.6,373.4,468.6,256S373.4,43.4,256,43.4z M158.6,176.3
	c0-53.7,43.7-97.4,97.4-97.4s97.4,43.7,97.4,97.4v26.6c0,5-3.9,8.9-8.9,8.9h-17.7c-5,0-8.9-3.9-8.9-8.9v-26.6c0-82.1-124-82.1-124,0
	v26.6c0,5-3.9,8.9-8.9,8.9h-17.7c-5,0-8.9-3.9-8.9-8.9v-26.6H158.6z M397.7,380c0,9.7-8,17.7-17.7,17.7H132c-9.7,0-17.7-8-17.7-17.7
	V238.3c0-9.7,8-17.7,17.7-17.7h248c9.7,0,17.7,8,17.7,17.7V380z M149.7,242.7v132.9c0,2.5-1.9,4.4-4.4,4.4h-8.9
	c-2.5,0-4.4-1.9-4.4-4.4V242.7c0-2.5,1.9-4.4,4.4-4.4h8.9C147.8,238.3,149.7,240.2,149.7,242.7z M291.4,291.4
	c0,13-7.2,24.4-17.7,30.4v31.6c0,5-3.9,8.9-8.9,8.9h-17.7c-5,0-8.9-3.9-8.9-8.9v-31.6c-10.5-6.1-17.7-17.4-17.7-30.4
	c0-19.7,15.8-35.4,35.4-35.4S291.4,271.8,291.4,291.4z M256,8C119,8,8,119,8,256s111,248,248,248s248-111,248-248S393,8,256,8z
	 M256,486.3C129,486.3,25.7,383,25.7,256S129,25.7,256,25.7S486.3,129,486.3,256S383,486.3,256,486.3z"/>
</svg>
