<?xml version="1.0" encoding="utf-8"?>
<!-- Generator: Adobe Illustrator 24.0.0, SVG Export Plug-In . SVG Version: 6.00 Build 0)  -->
<svg version="1.1" id="Layer_1" xmlns="http://www.w3.org/2000/svg" xmlns:xlink="http://www.w3.org/1999/xlink" x="0px" y="0px"
	 viewBox="0 0 512 512" style="enable-background:new 0 0 512 512;" xml:space="preserve">
<path d="M480,80v352c0,26.5-21.5,48-48,48H80c-26.5,0-48-21.5-48-48V80c0-26.5,21.5-48,48-48h352C458.5,32,480,53.5,480,80z M392,96
	H280c-21.3,0-32.1,25.9-17,41l32,32L99.5,364.5c-4.7,4.7-4.7,12.3,0,17l31,31c4.7,4.7,12.3,4.7,17,0L343,217l32,32
	c15,15,41,4.5,41-17V120C416,106.7,405.3,96,392,96z"/>
</svg>
