<?xml version="1.0" encoding="utf-8"?>
<!-- Generator: Adobe Illustrator 24.0.0, SVG Export Plug-In . SVG Version: 6.00 Build 0)  -->
<svg version="1.1" id="Layer_1" xmlns="http://www.w3.org/2000/svg" xmlns:xlink="http://www.w3.org/1999/xlink" x="0px" y="0px"
	 viewBox="0 0 512 512" style="enable-background:new 0 0 512 512;" xml:space="preserve">
<path d="M508.9,243C460.7,149,365.3,85.3,256,85.3S51.3,149,3.1,243c-4.1,8.2-4.1,17.8,0,25.9C51.3,363,146.7,426.7,256,426.7
	S460.7,363,508.9,269C513,260.8,513,251.2,508.9,243z M256,384c-70.7,0-128-57.3-128-128s57.3-128,128-128s128,57.3,128,128
	c0,70.7-57.2,128-127.9,128C256.1,384,256,384,256,384z M256,170.7c-7.6,0.1-15.2,1.2-22.5,3.4c13.9,18.9,9.9,45.5-9,59.5
	c-15,11-35.4,11-50.4,0c-12.3,45.4,14.5,92.1,59.9,104.5c45.4,12.3,92.1-14.5,104.5-59.9c12.3-45.4-14.5-92.1-59.9-104.5
	C271.2,171.6,263.6,170.6,256,170.7z"/>
</svg>
