<?xml version="1.0" encoding="utf-8"?>
<!-- Generator: Adobe Illustrator 24.0.0, SVG Export Plug-In . SVG Version: 6.00 Build 0)  -->
<svg version="1.1" id="Layer_1" xmlns="http://www.w3.org/2000/svg" xmlns:xlink="http://www.w3.org/1999/xlink" x="0px" y="0px"
	 viewBox="0 0 512 512" style="enable-background:new 0 0 512 512;" xml:space="preserve">
<path d="M256,371.2c-60.7,0-109.8-47-114.3-106.5l-83.9-64.9c-11,13.8-21.2,28.5-29.4,44.5c-3.7,7.3-3.7,16,0,23.4
	C71.8,352.3,157.7,409.6,256,409.6c21.5,0,42.3-3.2,62.3-8.4l-41.5-32.1C269.9,370.4,263,371.1,256,371.2z M507.1,417.7l-88.4-68.4
	c26.9-22.6,49-50.4,65-81.7c3.7-7.3,3.7-16,0-23.4C440.2,159.7,354.3,102.4,256,102.4c-41.2,0-81.7,10.4-117.9,30.2L36.4,53.9
	c-5.6-4.3-13.6-3.3-18,2.2c0,0,0,0,0,0L2.7,76.4c-4.3,5.6-3.3,13.6,2.2,18l470.7,363.8c5.6,4.3,13.6,3.3,18-2.2c0,0,0,0,0,0
	l15.7-20.2C513.6,430.1,512.6,422,507.1,417.7z M360.1,304.1l-31.4-24.3c2.6-7.7,4.1-15.7,4.2-23.8c0.6-41.9-32.9-76.2-74.8-76.8
	c-7.5-0.1-15,0.9-22.2,3c4.8,6.5,7.4,14.4,7.4,22.6c-0.1,2.7-0.5,5.4-1.2,8l-58.9-45.5c20.5-17.1,46.3-26.5,72.9-26.5
	c63.6,0,115.2,51.5,115.2,115.1c0,0,0,0.1,0,0.1C371.2,273.3,367,289.4,360.1,304.1L360.1,304.1z"/>
</svg>
