<?xml version="1.0" encoding="utf-8"?>
<!-- Generator: Adobe Illustrator 24.0.0, SVG Export Plug-In . SVG Version: 6.00 Build 0)  -->
<svg version="1.1" id="Layer_1" xmlns="http://www.w3.org/2000/svg" xmlns:xlink="http://www.w3.org/1999/xlink" x="0px" y="0px"
	 viewBox="0 0 512 512" style="enable-background:new 0 0 512 512;" xml:space="preserve">
<path d="M256,156.4c-9.4,0.1-18.8,1.6-27.8,4.4c4.2,7.3,6.4,15.6,6.4,24c0,27.5-22.3,49.8-49.8,49.8c-8.4-0.1-16.7-2.3-24-6.4
	c-15.2,52.7,15.2,107.7,67.9,122.9c52.7,15.2,107.7-15.2,122.9-67.9c15.2-52.7-15.2-107.7-67.9-122.9
	C274.8,157.7,265.4,156.4,256,156.4z M508.9,243C460.7,149,365.3,85.3,256,85.3S51.3,149,3.1,243c-4.1,8.2-4.1,17.8,0,25.9
	C51.3,363,146.7,426.7,256,426.7S460.7,363,508.9,269C513,260.8,513,251.2,508.9,243z M256,384c-87.7,0-168.1-48.9-211.5-128
	C87.9,176.9,168.3,128,256,128s168.1,48.9,211.5,128C424.1,335.1,343.7,384,256,384z"/>
</svg>
