<?xml version="1.0" encoding="utf-8"?>
<!-- Generator: Adobe Illustrator 24.0.0, SVG Export Plug-In . SVG Version: 6.00 Build 0)  -->
<svg version="1.1" id="Layer_1" xmlns="http://www.w3.org/2000/svg" xmlns:xlink="http://www.w3.org/1999/xlink" x="0px" y="0px"
	 viewBox="0 0 512 512" style="enable-background:new 0 0 512 512;" xml:space="preserve">
<path d="M468.8,278.8l42.6-47.9h-49.9l-17.4,19.8l-18-19.8h-95v-12.8h44.9v-38.5h-121V240h-0.4c-7.7-8.8-17.2-11.8-28.3-11.8
	c-22.7,0-39.8,15.5-45.8,35.9c-14.4-47.5-77.9-46.1-97.5-11.2v-19.4H39.2v-21h48v-32.9H0v147.5h39.2v-62h39.1
	c-1.2,4.6-1.8,9.4-1.8,14.6c0,58.5,82.1,73.1,104.2,19H147c-11.8,16.7-36.6,7.1-36.6-11.7h68.4c3,24.4,21.9,45.5,48.1,45.5
	c11.3,0,21.6-5.5,27.9-14.9h0.4v9.5H425l17.7-20l17.8,20H512L468.8,278.8z M111.4,265.5c4.9-21,33.4-20.5,37.2,0H111.4z
	 M234.2,304.7c-27.7,0-27.2-50.2,0-50.2C260.2,254.4,261.8,304.7,234.2,304.7z M368.4,319.9h-75.5V186.7h76v24.2H324V238h44.4v22.5
	h-44.9v35.8h44.9V319.9L368.4,319.9z M331.7,288.1v-19.5h44.9v-35.2l40.6,45.6l-40.6,45.6v-36.5H331.7z M442.6,296.3l-20.9,23.6
	h-30.5l36.5-41l-36.5-41H423l21.3,23.4l20.5-23.4h30.8l-36.3,40.8l36.8,41.1h-32.4L442.6,296.3L442.6,296.3z"/>
</svg>
