<?xml version="1.0" encoding="utf-8"?>
<!-- Generator: Adobe Illustrator 24.0.0, SVG Export Plug-In . SVG Version: 6.00 Build 0)  -->
<svg version="1.1" id="Layer_1" xmlns="http://www.w3.org/2000/svg" xmlns:xlink="http://www.w3.org/1999/xlink" x="0px" y="0px"
	 viewBox="0 0 512 512" style="enable-background:new 0 0 512 512;" xml:space="preserve">
<path d="M257,32C133.3,31.7,32.8,131.7,32.4,255.4L32,425.7c-0.2,29.6,23.7,53.7,53.3,53.9c0.1,0,0.2,0,0.3,0l170.2,0.4
	c123.7,0.3,224.3-99.7,224.6-223.4S380.7,32.3,257,32z M426.8,189.2L365,126.6c2.3-4.7,3.8-9.2,3.8-14.3v-1.6l55.2,56.1
	C425.8,174.1,426.7,181.7,426.8,189.2L426.8,189.2z M363,94.3c27.7,12,49,35.2,58.5,63.8l-54.3-54.6C366.4,100.2,365,97.1,363,94.3z
	 M150.1,247.2c-3.1,3.4-5.7,7.3-7.7,11.4l-8.5-8.5C139.2,248.6,144.6,247.6,150.1,247.2L150.1,247.2z M129,251.4l11.8,11.9l-0.9,8
	c0,4.3,0.8,8.5,2.4,12.5l-27-27.2C119.7,254.5,124.3,252.7,129,251.4L129,251.4z M110.8,258.8l38.2,38.4c-4.9,0.9-9.6,2.5-14.1,4.7
	L99.6,266C103.2,263.4,106.9,261,110.8,258.8z M95.6,268.6l35.3,35.5c-3.8,2.5-7.3,5.3-10.5,8.5L85.5,278
	C88.5,274.5,91.9,271.4,95.6,268.6L95.6,268.6z M82.3,280.9l34.9,35c-3,3.5-5.6,7.3-7.7,11.4l-35.8-35.9
	C76.5,287.6,79.4,284.2,82.3,280.9z M71.3,295.2l36.4,36.6c-2,4.8-3.2,10-3.6,15.2l-39.5-39.8C66.6,303.1,68.8,299,71.3,295.2
	L71.3,295.2z M62.5,311.5l41.3,41.8c0.3,9.1,2.6,18,6.7,26.2L57.8,326C59.2,321.1,60.7,316.4,62.5,311.5L62.5,311.5z M54.6,354.5
	l61.9,62.2c-2.3,4.4-3.6,9.3-3.6,14.3v1.1l-55.4-55.7C55.6,369.3,54.6,361.9,54.6,354.5z M59.9,385.2l54.3,54.6
	c0.8,3.3,2.3,6.4,4.2,9.2C90.7,437,69.5,413.8,59.9,385.2L59.9,385.2z M54.6,348.2c0.1-5.7,0.8-11.4,2.1-17l72.2,72.5
	c-3.8,2.3-7.1,5.2-9.9,8.7L54.6,348.2z M307.9,296.4l-42.6-0.1l-0.1,56c-0.2,69.3-64.4,115.8-125.7,102.9c-5.7,0-19.9-8.7-19.9-24.2
	c0.2-13.5,11-24.4,24.5-24.6c6.3,0,6.3,1.6,15.7,1.6c30.9,0.1,56-24.8,56.1-55.7c0-0.1,0-0.1,0-0.2l0.1-47c0-4.5-4.5-9-8.9-9
	l-33.6-0.1c-32.6-0.1-32.5-49.4,0.1-49.3l42.6,0.1l0.1-56c0.1-58.1,47.3-105.1,105.4-105c0.1,0,0.2,0,0.2,0c6.8,0,13.6,0.7,20.2,2.3
	c11.2,1.8,19.9,11.9,19.9,24c0,15.5-14.9,27.8-30.3,23.9c-27.4-5.9-65.9,14.4-66,54.9l-0.1,47c0,4.9,3.9,9,8.9,9c0,0,0,0,0,0
	l33.6,0.1C340.6,247.2,340.5,296.5,307.9,296.4L307.9,296.4z M331.4,296.1c3.2-3.3,5.8-7.1,7.6-11.4l8.5,8.5
	C342.2,294.6,336.8,295.6,331.4,296.1z M352.4,291.9L340.6,280l0.9-8.1c0-4.3-0.8-8.5-2.4-12.5l27,27.2
	C361.7,288.8,357.1,290.6,352.4,291.9L352.4,291.9z M370.4,284.5l-38-38.4c4.9-1.1,9.6-2.4,13.7-4.7l36.2,35.9
	C378.5,279.8,374.4,282.3,370.4,284.5L370.4,284.5z M385.9,274.7l-35.3-35.5c3.8-2.4,7.3-5.3,10.5-8.5l34.9,35
	C392.8,268.9,389.4,271.9,385.9,274.7z M399.1,262.4l-34.9-35c3-3.5,5.6-7.3,7.7-11.4l35.8,35.9C405,255.5,402.1,259.1,399.1,262.4z
	 M410.1,248.1l-36.4-36.6c2-4.8,3.2-10,3.6-15.2l39.5,39.8C414.9,240.3,412.6,244.3,410.1,248.1L410.1,248.1z M423.6,217.2
	c-1.3,4.8-2.9,9.6-4.7,14.3L377.6,190c-0.3-9.2-2.7-18.1-7.1-26.2L423.6,217.2z M424.6,211.6l-71.9-72.1c3.9-2.3,7.3-5.5,9.9-9.2
	l64.3,64.7C426.6,200.6,425.9,206.1,424.6,211.6L424.6,211.6z"/>
</svg>
