<?xml version="1.0" encoding="utf-8"?>
<!-- Generator: Adobe Illustrator 24.0.0, SVG Export Plug-In . SVG Version: 6.00 Build 0)  -->
<svg version="1.1" id="Layer_1" xmlns="http://www.w3.org/2000/svg" xmlns:xlink="http://www.w3.org/1999/xlink" x="0px" y="0px"
	 viewBox="0 0 512 512" style="enable-background:new 0 0 512 512;" xml:space="preserve">
<path d="M256,0c35.3,0,64,28.7,64,64s-28.7,64-64,64s-64-28.7-64-64S220.7,0,256,0 M375.3,354.2l-48-192
	C324.6,151.5,315,144,304,144h-11.4c-22.7,10.4-49.6,10.9-73.3,0H208c-11,0-20.6,7.5-23.3,18.2l-48,192
	c-3.8,15.1,7.7,29.8,23.3,29.8h56v104c0,13.3,10.7,24,24,24h32c13.3,0,24-10.7,24-24V384h56C367.6,384,379.1,369.3,375.3,354.2
	L375.3,354.2z"/>
</svg>
