<?xml version="1.0" encoding="utf-8"?>
<!-- Generator: Adobe Illustrator 24.0.0, SVG Export Plug-In . SVG Version: 6.00 Build 0)  -->
<svg version="1.1" id="Layer_1" xmlns="http://www.w3.org/2000/svg" xmlns:xlink="http://www.w3.org/1999/xlink" x="0px" y="0px"
	 viewBox="0 0 512 512" style="enable-background:new 0 0 512 512;" xml:space="preserve">
<path d="M435.2,230.4l-102.4-12.8l-38.4-12.8h-19.2L181.7,86.4h31.6c9.3,0,17.1-2.1,17.1-4.8c0-2.7-7.7-4.8-17.1-4.8h-91.7v9.6h12.8
	v131.2H96l-53.3-64H14.9l-8.5,8.5v55.5h6.4v12.8h38.4v2.1L0,238.9v34.1l51.2,6.4v2.1H12.8v12.8H6.4v55.5l8.5,8.5h27.7l53.3-64h38.4
	v131.2h-12.8v9.6h91.7c9.3,0,17.1-2.1,17.1-4.8c0-2.7-7.7-4.8-17.1-4.8h-31.6l93.5-118.4h19.2l38.4-12.8l102.4-12.8
	C512,264.5,512,260.3,512,256S512,247.5,435.2,230.4z"/>
</svg>
