<?xml version="1.0" encoding="utf-8"?>
<!-- Generator: Adobe Illustrator 24.0.0, SVG Export Plug-In . SVG Version: 6.00 Build 0)  -->
<svg version="1.1" id="Layer_1" xmlns="http://www.w3.org/2000/svg" xmlns:xlink="http://www.w3.org/1999/xlink" x="0px" y="0px"
	 viewBox="0 0 512 512" style="enable-background:new 0 0 512 512;" xml:space="preserve">
<path d="M341,170.7c47.1,0,85.4-38.2,85.4-85.3S388.1,0,341,0H170.3C123.2,0,85,38.2,85,85.3s38.2,85.3,85.3,85.3
	c-47.1,0-85.3,38.2-85.3,85.4c0,47.1,38.2,85.3,85.3,85.3c-47.1,0-85.4,38.2-85.4,85.3s38.2,85.4,85.3,85.4s85.4-38.2,85.4-85.3
	v-256L341,170.7z M341,170.7c-47.1,0-85.3,38.2-85.3,85.3s38.2,85.3,85.3,85.3c47.1,0,85.3-38.2,85.3-85.3l0,0
	C426.3,208.9,388.1,170.7,341,170.7z"/>
</svg>
