<?xml version="1.0" encoding="utf-8"?>
<!-- Generator: Adobe Illustrator 24.0.0, SVG Export Plug-In . SVG Version: 6.00 Build 0)  -->
<svg version="1.1" id="Layer_1" xmlns="http://www.w3.org/2000/svg" xmlns:xlink="http://www.w3.org/1999/xlink" x="0px" y="0px"
	 viewBox="0 0 512 512" style="enable-background:new 0 0 512 512;" xml:space="preserve">
<path d="M433.9,97.9l-83.9-83.9c-9-9-21.2-14.1-33.9-14.1H112C85.5,0,64,21.5,64,48v416c0,26.5,21.5,48,48,48h288
	c26.5,0,48-21.5,48-48V131.9C448,119.2,442.9,106.9,433.9,97.9z M396.1,128H320V51.9L396.1,128z M112,464V48h160v104
	c0,13.3,10.7,24,24,24h104v288H112z M340.7,252.7L288,305.4V268c0-11-9-20-20-20H164c-11,0-20,9-20,20v104c0,11,9,20,20,20h104
	c11,0,20-9,20-20v-37.4l52.7,52.7c10,10,27.3,3,27.3-11.3V264C368,249.7,350.7,242.7,340.7,252.7L340.7,252.7z"/>
</svg>
