<?xml version="1.0" encoding="utf-8"?>
<!-- Generator: Adobe Illustrator 24.0.0, SVG Export Plug-In . SVG Version: 6.00 Build 0)  -->
<svg version="1.1" id="Layer_1" xmlns="http://www.w3.org/2000/svg" xmlns:xlink="http://www.w3.org/1999/xlink" x="0px" y="0px"
	 viewBox="0 0 512 512" style="enable-background:new 0 0 512 512;" xml:space="preserve">
<path d="M433.9,97.9L350,14c-9-9-21.2-14.1-33.9-14.1H112C85.5,0,64,21.5,64,48v416c0,26.5,21.5,48,48,48h288c26.5,0,48-21.5,48-48
	V131.9C448,119.2,442.9,106.9,433.9,97.9z M396.1,128H320V51.9L396.1,128z M112,464V48h160v104c0,13.3,10.7,24,24,24h104v288H112z
	 M362.2,320.3c-12.2-12-47-8.7-64.4-6.5c-17.2-10.5-28.7-25-36.8-46.3c3.9-16.1,10.1-40.6,5.4-56c-4.2-26.2-37.8-23.6-42.6-5.9
	c-4.4,16.1-0.4,38.5,7,67.1c-10,23.9-24.9,56-35.4,74.4c-20,10.3-47,26.2-51,46.2c-3.3,15.8,26,55.2,76.1-31.2
	c22.4-7.4,46.8-16.5,68.4-20.1c18.9,10.2,41,17,55.8,17C370.2,359,372.7,330.8,362.2,320.3z M164.1,398.1
	c5.1-13.7,24.5-29.5,30.4-35C175.5,393.4,164.1,398.8,164.1,398.1z M245.7,207.5c7.4,0,6.7,32.1,1.8,40.8
	C243.1,234.4,243.2,207.5,245.7,207.5z M221.3,344.1c9.7-16.9,18-37,24.7-54.7c8.3,15.1,18.9,27.2,30.1,35.5
	C255.3,329.2,237.2,338,221.3,344.1z M352.9,339.1c0,0-5,6-37.3-7.8C350.7,328.7,356.5,336.7,352.9,339.1z"/>
</svg>
