<?xml version="1.0" encoding="utf-8"?>
<!-- Generator: Adobe Illustrator 24.0.0, SVG Export Plug-In . SVG Version: 6.00 Build 0)  -->
<svg version="1.1" id="Layer_1" xmlns="http://www.w3.org/2000/svg" xmlns:xlink="http://www.w3.org/1999/xlink" x="0px" y="0px"
	 viewBox="0 0 512 512" style="enable-background:new 0 0 512 512;" xml:space="preserve">
<path d="M213.9,349.1l-0.2-0.2L180.9,320l32.8-28.9c3.6-3.2,4-8.8,0.8-12.4l-0.2-0.2l-17.4-18.6c-3.4-3.6-9-3.7-12.4-0.4l-57.7,54.1
	c-3.7,3.5-3.7,9.4,0,12.8l57.7,54.1c1.6,1.5,3.8,2.4,6,2.4c2.4,0,4.8-1,6.4-2.8l17.4-18.6C217.6,358,217.4,352.4,213.9,349.1
	L213.9,349.1z M433.9,97.9L350,14c-9-9-21.2-14.1-33.9-14.1H112C85.5,0,64,21.5,64,48v416c0,26.5,21.5,48,48,48h288
	c26.5,0,48-21.5,48-48V131.9C448,119.2,442.9,106.9,433.9,97.9L433.9,97.9z M320,51.9l76.1,76.1H320V51.9z M400,464H112V48h160v104
	c0,13.3,10.7,24,24,24h104V464z M273.6,214c-4.7-1.4-9.5,1.3-10.9,6L208,408.1c-1.4,4.7,1.3,9.6,6,10.9l24.4,7.1
	c4.7,1.4,9.6-1.4,10.9-6L304,231.9c1.4-4.7-1.3-9.6-6-10.9L273.6,214z M298.1,290.9l0.2,0.2l32.8,28.9l-32.8,28.9
	c-3.6,3.2-4,8.8-0.8,12.4l0.2,0.2l17.4,18.6c3.3,3.5,8.9,3.7,12.4,0.4l57.7-54.1c3.7-3.5,3.7-9.4,0-12.8l-57.7-54.1
	c-3.5-3.3-9.1-3.2-12.4,0.4l-17.4,18.6C294.4,282,294.6,287.6,298.1,290.9z"/>
</svg>
