<?xml version="1.0" encoding="utf-8"?>
<!-- Generator: Adobe Illustrator 24.0.0, SVG Export Plug-In . SVG Version: 6.00 Build 0)  -->
<svg version="1.1" id="Layer_1" xmlns="http://www.w3.org/2000/svg" xmlns:xlink="http://www.w3.org/1999/xlink" x="0px" y="0px"
	 viewBox="0 0 512 512" style="enable-background:new 0 0 512 512;" xml:space="preserve">
<path d="M288,136V0H88C74.7,0,64,10.7,64,24v464c0,13.3,10.7,24,24,24h336c13.3,0,24-10.7,24-24V160H312
	C298.8,160,288,149.2,288,136z M345.1,256H369c7.7,0,13.4,7.1,11.7,14.7l-38,168c-1.2,5.5-6.1,9.3-11.7,9.3h-38
	c-5.5,0-10.3-3.8-11.6-9.1c-25.8-103.5-20.8-81.2-25.6-110.5h-0.5c-1.1,14.3-2.4,17.4-25.6,110.5c-1.3,5.3-6.1,9.1-11.6,9.1H181
	c-5.6,0-10.5-3.9-11.7-9.4l-37.8-168c-1.7-7.5,4-14.6,11.7-14.6h24.5c5.7,0,10.7,4,11.8,9.7c15.6,78,20.1,109.5,21,122.2
	c1.6-10.2,7.3-32.7,29.4-122.7c1.3-5.4,6.1-9.1,11.7-9.1h29.1c5.6,0,10.4,3.8,11.7,9.2c24,100.4,28.8,124,29.6,129.4
	c-0.2-11.2-2.6-17.8,21.6-129.2C334.6,259.9,339.5,256,345.1,256z M448,121.9v6.1H320V0h6.1c6.4,0,12.5,2.5,17,7l97.9,98
	C445.5,109.5,448,115.6,448,121.9z"/>
</svg>
