<?xml version="1.0" encoding="utf-8"?>
<!-- Generator: Adobe Illustrator 24.0.0, SVG Export Plug-In . SVG Version: 6.00 Build 0)  -->
<svg version="1.1" id="Layer_1" xmlns="http://www.w3.org/2000/svg" xmlns:xlink="http://www.w3.org/1999/xlink" x="0px" y="0px"
	 viewBox="0 0 512 512" style="enable-background:new 0 0 512 512;" xml:space="preserve">
<path d="M448,121.9v6.1H320V0h6.1c6.4,0,12.5,2.5,17,7L441,105C445.5,109.5,448,115.6,448,121.9z M312,160c-13.2,0-24-10.8-24-24V0
	H88C74.7,0,64,10.7,64,24v464c0,13.3,10.7,24,24,24h336c13.3,0,24-10.7,24-24V160H312z M176.5,176c26.5,0,48,21.5,48,48
	s-21.5,48-48,48s-48-21.5-48-48S150,176,176.5,176z M384.5,416h-256l0.5-48.5l39.5-39.5c4.7-4.7,11.8-4.2,16.5,0.5l39.5,39.5
	l103.5-103.5c4.7-4.7,12.3-4.7,17,0l39.5,39.5L384.5,416L384.5,416z"/>
</svg>
