<?xml version="1.0" encoding="utf-8"?>
<!-- Generator: Adobe Illustrator 24.0.0, SVG Export Plug-In . SVG Version: 6.00 Build 0)  -->
<svg version="1.1" id="Layer_1" xmlns="http://www.w3.org/2000/svg" xmlns:xlink="http://www.w3.org/1999/xlink" x="0px" y="0px"
	 viewBox="0 0 512 512" style="enable-background:new 0 0 512 512;" xml:space="preserve">
<path d="M320,136V0H120c-13.3,0-24,10.7-24,24v232H40c-4.4,0-8,3.6-8,8v16c0,4.4,3.6,8,8,8h140.9c3,0,5.8,1.7,7.2,4.4l19.9,39.8
	l56.8-113.7c2.9-5.9,11.4-5.9,14.3,0l34.7,69.5H384c8.8,0,16,7.2,16,16s-7.2,16-16,16h-89.9L272,275.8l-56.8,113.7
	c-2.9,5.9-11.4,5.9-14.3,0L166.1,320H96v168c0,13.3,10.7,24,24,24h336c13.3,0,24-10.7,24-24V160H344C330.8,160,320,149.2,320,136z
	 M473,105L375.1,7c-4.5-4.5-10.6-7-17-7H352v128h128v-6.1C480,115.6,477.5,109.5,473,105z"/>
</svg>
