<?xml version="1.0" encoding="utf-8"?>
<!-- Generator: Adobe Illustrator 24.0.0, SVG Export Plug-In . SVG Version: 6.00 Build 0)  -->
<svg version="1.1" id="Layer_1" xmlns="http://www.w3.org/2000/svg" xmlns:xlink="http://www.w3.org/1999/xlink" x="0px" y="0px"
	 viewBox="0 0 512 512" style="enable-background:new 0 0 512 512;" xml:space="preserve">
<path d="M433.9,97.9l-83.9-83.9c-9-9-21.2-14.1-33.9-14.1H112C85.5,0,64,21.5,64,48v416c0,26.5,21.5,48,48,48h288
	c26.5,0,48-21.5,48-48V131.9C448,119.2,442.9,106.9,433.9,97.9z M396.1,128H320V51.9L396.1,128z M112,464V48h160v104
	c0,13.3,10.7,24,24,24h104v288H112z M256,388c0,10.7-12.9,16-20.5,8.5l-35.5-36h-28c-6.6,0-12-5.4-12-12v-56c0-6.6,5.4-12,12-12h28
	l35.5-36.9c7.6-7.6,20.5-2.2,20.5,8.5V388z M297.2,340.8c9.1-9.3,9.1-24.1,0-33.4c-22.1-22.8,12.2-56.2,34.4-33.5
	c27.2,27.9,27.2,72.4,0,100.4C309.8,396.7,274.7,364,297.2,340.8L297.2,340.8z"/>
</svg>
