<?xml version="1.0" encoding="utf-8"?>
<!-- Generator: Adobe Illustrator 24.0.0, SVG Export Plug-In . SVG Version: 6.00 Build 0)  -->
<svg version="1.1" id="Layer_1" xmlns="http://www.w3.org/2000/svg" xmlns:xlink="http://www.w3.org/1999/xlink" x="0px" y="0px"
	 viewBox="0 0 512 512" style="enable-background:new 0 0 512 512;" xml:space="preserve">
<path d="M433.9,97.9L350,14c-9-9-21.2-14.1-33.9-14.1H112C85.5,0,64,21.5,64,48v416c0,26.5,21.5,48,48,48h288c26.5,0,48-21.5,48-48
	V131.9C448,119.2,442.9,106.9,433.9,97.9z M396.1,128H320V51.9L396.1,128z M112,464V48h160v104c0,13.3,10.7,24,24,24h104v288H112z
	 M144,416h224V288l-23.5-23.5c-4.7-4.7-12.3-4.7-17,0L240,352l-39.5-39.5c-4.7-4.7-12.3-4.7-17,0L144,352V416z M192,176
	c-26.5,0-48,21.5-48,48s21.5,48,48,48s48-21.5,48-48S218.5,176,192,176z"/>
</svg>
