<?xml version="1.0" encoding="utf-8"?>
<!-- Generator: Adobe Illustrator 24.0.0, SVG Export Plug-In . SVG Version: 6.00 Build 0)  -->
<svg version="1.1" id="Layer_1" xmlns="http://www.w3.org/2000/svg" xmlns:xlink="http://www.w3.org/1999/xlink" x="0px" y="0px"
	 viewBox="0 0 512 512" style="enable-background:new 0 0 512 512;" xml:space="preserve">
<path d="M433.9,97.9L350,14c-9-9-21.2-14.1-33.9-14.1H112C85.5,0,64,21.5,64,48v416c0,26.5,21.5,48,48,48h288c26.5,0,48-21.5,48-48
	V131.9C448,119.2,442.9,106.9,433.9,97.9z M396.1,128H320V51.9L396.1,128z M112,464V48h160v104c0,13.3,10.7,24,24,24h104v288H112z
	 M332.1,256c-5.7,0-10.6,4-11.7,9.5c-20.6,97.7-20.4,95.4-21,103.5c-0.2-1.2-0.4-2.6-0.7-4.3c-0.8-5.1,0.3,0.2-23.6-99.5
	c-1.3-5.4-6.1-9.2-11.7-9.2h-13.3c-5.5,0-10.3,3.8-11.7,9.1c-24.4,99-24,96.2-24.8,103.7c-0.1-1.1-0.2-2.5-0.5-4.2
	c-0.7-5.2-14.1-73.3-19.1-99c-1.1-5.6-6-9.7-11.8-9.7h-16.8c-7.8,0-13.5,7.3-11.7,14.8c8,32.6,26.7,109.5,33.2,136
	c1.3,5.4,6.1,9.1,11.7,9.1h25.2c5.5,0,10.3-3.7,11.6-9.1l17.9-71.4c1.5-6.2,2.5-12,3-17.3l2.9,17.3c0.1,0.4,12.6,50.5,17.9,71.4
	c1.3,5.3,6.1,9.1,11.6,9.1h24.7c5.5,0,10.3-3.7,11.6-9.1c20.8-81.9,30.2-119,34.5-136c1.9-7.6-3.8-14.9-11.6-14.9h-15.8L332.1,256z"
	/>
</svg>
