<?xml version="1.0" encoding="utf-8"?>
<!-- Generator: Adobe Illustrator 24.0.0, SVG Export Plug-In . SVG Version: 6.00 Build 0)  -->
<svg version="1.1" id="Layer_1" xmlns="http://www.w3.org/2000/svg" xmlns:xlink="http://www.w3.org/1999/xlink" x="0px" y="0px"
	 viewBox="0 0 512 512" style="enable-background:new 0 0 512 512;" xml:space="preserve">
<path d="M441,105L343.1,7c-4.5-4.5-10.6-7-17-7H320v128h128v-6.1C448,115.6,445.5,109.5,441,105z M192.4,336
	c-17.9,0-32.4,12.1-32.4,27c0,15,14.6,27,32.5,27s32.4-12.1,32.4-27S210.3,336,192.4,336z M288,136V0h-63.6v32h-32V0H88
	C74.7,0,64,10.7,64,24v464c0,13.3,10.7,24,24,24h336c13.3,0,24-10.7,24-24V160H312C298.8,160,288,149.2,288,136z M159.9,32h32v32
	h-32V32z M192.2,416c-33.2,0-58-30.4-51.4-62.9l19.6-97.1v-32h32v-32h-32v-32h32v-32h-32V96h32V64h32v32h-32v32h32v32h-32v32h32v32
	h-32v32h22.1c5.7,0,10.7,4.1,11.8,9.7l17.3,87.7C250,385.8,225.2,416,192.2,416L192.2,416z"/>
</svg>
