<?xml version="1.0" encoding="utf-8"?>
<!-- Generator: Adobe Illustrator 24.0.0, SVG Export Plug-In . SVG Version: 6.00 Build 0)  -->
<svg version="1.1" id="Layer_1" xmlns="http://www.w3.org/2000/svg" xmlns:xlink="http://www.w3.org/1999/xlink" x="0px" y="0px"
	 viewBox="0 0 512 512" style="enable-background:new 0 0 512 512;" xml:space="preserve">
<path d="M288,136V0H88C74.7,0,64,10.7,64,24v464c0,13.3,10.7,24,24,24h336c13.3,0,24-10.7,24-24V160H312
	C298.8,160,288,149.2,288,136z M192,280c0,4.4-3.6,8-8,8h-8c-8.8,0-16,7.2-16,16v32c0,8.8,7.2,16,16,16h8c4.4,0,8,3.6,8,8v16
	c0,4.4-3.6,8-8,8h-8c-26.5,0-48-21.5-48-48v-32c0-26.5,21.5-48,48-48h8c4.4,0,8,3.6,8,8V280z M236.3,384H224c-4.4,0-8-3.6-8-8v-16
	c0-4.4,3.6-8,8-8h12.3c5.9,0,10.4-3.5,10.4-6.6c0-1.3-0.8-2.7-2.1-3.8l-21.9-18.8c-8.5-7.2-13.3-17.5-13.3-28.1
	c0-21.3,19-38.6,42.4-38.6H264c4.4,0,8,3.6,8,8v16c0,4.4-3.6,8-8,8h-12.3c-5.9,0-10.4,3.5-10.4,6.6c0,1.3,0.8,2.7,2.1,3.8l21.9,18.8
	c8.5,7.2,13.3,17.5,13.3,28.1C278.7,366.7,259.7,384,236.3,384L236.3,384z M320,264v20.8c0,20.3,5.7,40.2,16,56.9
	c10.3-16.7,16-36.6,16-56.9V264c0-4.4,3.6-8,8-8h16c4.4,0,8,3.6,8,8v20.8c0,35.5-12.9,68.9-36.3,94.1c-3,3.3-7.3,5.1-11.7,5.1
	s-8.7-1.9-11.7-5.1c-23.4-25.2-36.3-58.6-36.3-94.1V264c0-4.4,3.6-8,8-8h16C316.4,256,320,259.6,320,264z M441,105L343.1,7
	c-4.5-4.5-10.6-7-17-7H320v128h128v-6.1C448,115.6,445.5,109.5,441,105z"/>
</svg>
