<?xml version="1.0" encoding="utf-8"?>
<!-- Generator: Adobe Illustrator 24.0.0, SVG Export Plug-In . SVG Version: 6.00 Build 0)  -->
<svg version="1.1" id="Layer_1" xmlns="http://www.w3.org/2000/svg" xmlns:xlink="http://www.w3.org/1999/xlink" x="0px" y="0px"
	 viewBox="0 0 512 512" style="enable-background:new 0 0 512 512;" xml:space="preserve">
<path d="M193.9,405.5c-2.6-5.3-7.2-5.8-9-5.8s-6.4,0.5-8.9,5.5l-6.8,13.6c-5.7,11.4-22.2,10.1-26.2-1.9l-15-44.9l-9.4,28.3
	c-5.2,15.7-19.9,26.2-36.4,26.2h-11c-7.9,0-14.2-6.4-14.2-14.2c0-7.9,6.4-14.2,14.2-14.2h11c4.3,0,8.1-2.7,9.5-6.8l16.2-48.6
	c2.9-8.7,11.1-14.6,20.2-14.6s17.3,5.9,20.2,14.6l12.3,37c17.6-14.4,48.1-8.6,58.7,12.6c1.7,3.4,4.9,5.3,8.3,5.6v-73l113.8-113
	v-41.4H220.4c-11.7,0-21.3-9.6-21.3-21.3V28.4H21.3C9.5,28.4,0,38,0,49.8v412.4c0,11.8,9.5,21.3,21.3,21.3H320
	c11.8,0,21.3-9.5,21.3-21.3v-35.6l-113.8-0.1C213.2,426.3,200.4,418.3,193.9,405.5z M341.3,136.8c0-5.6-2.2-11-6.2-15l-87-87.1
	c-4-4-9.4-6.2-15.1-6.2h-5.4v113.8h113.8V136.8z M256,336.9v61.4h61.3L461,253.5l-60.3-60.3L256,336.9z M505.4,177.2L477,148.9
	c-8.8-8.8-23.2-8.8-32,0l-24.2,24.2l60.3,60.3l24.2-24.2C514.2,200.4,514.2,186,505.4,177.2L505.4,177.2z"/>
</svg>
