<?xml version="1.0" encoding="utf-8"?>
<!-- Generator: Adobe Illustrator 24.0.0, SVG Export Plug-In . SVG Version: 6.00 Build 0)  -->
<svg version="1.1" id="Layer_1" xmlns="http://www.w3.org/2000/svg" xmlns:xlink="http://www.w3.org/1999/xlink" x="0px" y="0px"
	 viewBox="0 0 512 512" style="enable-background:new 0 0 512 512;" xml:space="preserve">
<path d="M192.3,160v32h32v-32H192.3z M256.3,64h-32v32h32V64z M192.3,96v32h32V96H192.3z M256.3,128h-32v32h32V128z M433.9,97.9
	L350,14c-9-9-21.2-14.1-33.9-14.1H112C85.5,0,64,21.5,64,48v416c0,26.5,21.5,48,48,48h288c26.5,0,48-21.5,48-48V131.9
	C448,119.2,442.9,106.9,433.9,97.9L433.9,97.9z M320,51.9l76.1,76.1H320V51.9z M400,464H112V48h79.7v16h32V48H272v104
	c0,13.3,10.7,24,24,24h104V464z M258.2,265.7c-1.1-5.6-6-9.7-11.8-9.7h-22.1v-32h-32v32l-19.7,97.1C166,385.6,190.8,416,224,416
	c33.1,0,57.9-30.2,51.5-62.6L258.2,265.7z M224.3,390.1c-17.9,0-32.4-12.1-32.4-27s14.5-27,32.4-27s32.4,12.1,32.4,27
	S242.2,390.1,224.3,390.1z M256.3,192h-32v32h32V192z"/>
</svg>
