<?xml version="1.0" encoding="utf-8"?>
<!-- Generator: Adobe Illustrator 24.0.0, SVG Export Plug-In . SVG Version: 6.00 Build 0)  -->
<svg version="1.1" id="Layer_1" xmlns="http://www.w3.org/2000/svg" xmlns:xlink="http://www.w3.org/1999/xlink" x="0px" y="0px"
	 viewBox="0 0 512 512" style="enable-background:new 0 0 512 512;" xml:space="preserve">
<path d="M288,136V0H88C74.7,0,64,10.7,64,24v464c0,13.3,10.7,24,24,24h336c13.3,0,24-10.7,24-24V160H312
	C298.8,160,288,149.2,288,136z M356.5,315.5l11.3,11.3c6.3,6.3,6.3,16.4,0,22.6l-29.9,29.9l30.1,30.1c6.3,6.3,6.3,16.4,0,22.6
	l-11.3,11.3c-6.3,6.3-16.4,6.3-22.6,0L304,413.3l-30.1,30.1c-6.3,6.3-16.4,6.3-22.6,0L240,432c-6.3-6.3-6.3-16.4,0-22.6l30.1-30.1
	L210.7,320H192v48c0,8.8-7.2,16-16,16h-16c-8.8,0-16-7.2-16-16V208c0-8.8,7.2-16,16-16h80c35.4,0,64,28.6,64,64
	c0,24.2-13.6,45-33.5,55.9l33.5,33.5l29.9-29.9C340.1,309.2,350.3,309.2,356.5,315.5L356.5,315.5z M240,272h-48v-32h48
	c8.8,0,16,7.2,16,16S248.8,272,240,272z M448,121.9v6.1H320V0h6.1c6.4,0,12.5,2.5,17,7l97.9,98C445.5,109.5,448,115.6,448,121.9z"/>
</svg>
