<?xml version="1.0" encoding="utf-8"?>
<!-- Generator: Adobe Illustrator 24.0.0, SVG Export Plug-In . SVG Version: 6.00 Build 0)  -->
<svg version="1.1" id="Layer_1" xmlns="http://www.w3.org/2000/svg" xmlns:xlink="http://www.w3.org/1999/xlink" x="0px" y="0px"
	 viewBox="0 0 512 512" style="enable-background:new 0 0 512 512;" xml:space="preserve">
<path d="M341.3,136.8c0-5.6-2.2-11-6.2-15l-87-87.1c-4-4-9.4-6.2-15.1-6.2h-5.4v113.8h113.8V136.8z M507.6,302.2l-85.1-85.7
	c-9-9-24.4-2.7-24.4,10v57.9h-56.9v56.9h56.9v58c0,12.7,15.4,19,24.4,10l85.1-85.8C513.4,317.7,513.4,308.1,507.6,302.2z
	 M170.7,327.1v-28.4c0-7.8,6.4-14.2,14.2-14.2h156.5V170.7H220.4c-11.7,0-21.3-9.6-21.3-21.3V28.4H21.3C9.5,28.4,0,37.9,0,49.8
	v412.5c0,11.8,9.5,21.3,21.3,21.3H320c11.8,0,21.3-9.5,21.3-21.3V341.3H184.9C177.1,341.3,170.7,334.9,170.7,327.1z"/>
</svg>
