<?xml version="1.0" encoding="utf-8"?>
<!-- Generator: Adobe Illustrator 24.0.0, SVG Export Plug-In . SVG Version: 6.00 Build 0)  -->
<svg version="1.1" id="Layer_1" xmlns="http://www.w3.org/2000/svg" xmlns:xlink="http://www.w3.org/1999/xlink" x="0px" y="0px"
	 viewBox="0 0 512 512" style="enable-background:new 0 0 512 512;" xml:space="preserve">
<path d="M288,136V0H88C74.7,0,64,10.7,64,24v464c0,13.3,10.7,24,24,24h336c13.3,0,24-10.7,24-24V160H312
	C298.8,160,288,149.2,288,136z M224,404c0,10.7-12.9,16-20.5,8.5L168,376h-28c-6.6,0-12-5.4-12-12v-56c0-6.6,5.4-12,12-12h28
	l35.5-36.5c7.6-7.6,20.5-2.2,20.5,8.5V404z M257.2,356.4c9.1-9.3,9.1-24.1,0-33.4c-22.1-22.8,12.2-56.2,34.4-33.5
	c27.2,27.9,27.2,72.4,0,100.4C269.8,412.2,234.7,379.5,257.2,356.4L257.2,356.4z M343.2,239.3c54.4,55.9,54.4,144.8,0,200.8
	c-21.8,22.4-57-10.3-34.4-33.5c36.2-37.2,36.3-96.5,0-133.8C286.7,250,321.1,216.5,343.2,239.3z M448,121.9v6.1H320V0h6.1
	c6.4,0,12.5,2.5,17,7l97.9,98C445.5,109.5,448,115.6,448,121.9z"/>
</svg>
