<?xml version="1.0" encoding="utf-8"?>
<!-- Generator: Adobe Illustrator 24.0.0, SVG Export Plug-In . SVG Version: 6.00 Build 0)  -->
<svg version="1.1" id="Layer_1" xmlns="http://www.w3.org/2000/svg" xmlns:xlink="http://www.w3.org/1999/xlink" x="0px" y="0px"
	 viewBox="0 0 512 512" style="enable-background:new 0 0 512 512;" xml:space="preserve">
<path d="M441,105L343.1,7c-4.5-4.5-10.6-7-17-7H320v128h128v-6.1C448,115.6,445.5,109.5,441,105z M288,136V0H88
	C74.7,0,64,10.7,64,24v464c0,13.3,10.7,24,24,24h336c13.3,0,24-10.7,24-24V160H312C298.8,160,288,149.2,288,136z M352,296v48
	c0,4.4-3.6,8-8,8h-56v56c0,4.4-3.6,8-8,8h-48c-4.4,0-8-3.6-8-8v-56h-56c-4.4,0-8-3.6-8-8v-48c0-4.4,3.6-8,8-8h56v-56
	c0-4.4,3.6-8,8-8h48c4.4,0,8,3.6,8,8v56h56C348.4,288,352,291.6,352,296z"/>
</svg>
