<?xml version="1.0" encoding="utf-8"?>
<!-- Generator: Adobe Illustrator 24.0.0, SVG Export Plug-In . SVG Version: 6.00 Build 0)  -->
<svg version="1.1" id="Layer_1" xmlns="http://www.w3.org/2000/svg" xmlns:xlink="http://www.w3.org/1999/xlink" x="0px" y="0px"
	 viewBox="0 0 512 512" style="enable-background:new 0 0 512 512;" xml:space="preserve">
<path d="M433.9,97.9L350,14c-9-9-21.2-14.1-33.9-14.1H112C85.5,0,64,21.5,64,48v416c0,26.5,21.5,48,48,48h288c26.5,0,48-21.5,48-48
	V131.9C448,119.2,442.9,106.9,433.9,97.9z M396.1,128H320V51.9L396.1,128z M112,464V48h160v104c0,13.3,10.7,24,24,24h104v288H112z
	 M184,404V236c0-6.6,5.4-12,12-12h69.2c36.7,0,62.8,27,62.8,66.3c0,74.3-68.7,66.5-95.5,66.5V404c0,6.6-5.4,12-12,12H196
	C189.4,416,184,410.6,184,404z M232.5,316.6h23c7.9,0,13.9-2.4,18.1-7.2c8.5-9.8,8.4-28.5,0.1-37.8c-4.1-4.6-9.9-7-17.4-7h-23.9
	L232.5,316.6L232.5,316.6z"/>
</svg>
