<?xml version="1.0" encoding="utf-8"?>
<!-- Generator: Adobe Illustrator 24.0.0, SVG Export Plug-In . SVG Version: 6.00 Build 0)  -->
<svg version="1.1" id="Layer_1" xmlns="http://www.w3.org/2000/svg" xmlns:xlink="http://www.w3.org/1999/xlink" x="0px" y="0px"
	 viewBox="0 0 512 512" style="enable-background:new 0 0 512 512;" xml:space="preserve">
<path d="M288,136V0H88C74.7,0,64,10.7,64,24v464c0,13.3,10.7,24,24,24h336c13.3,0,24-10.7,24-24V160H312
	C298.8,160,288,149.2,288,136z M348.1,242.5L288,336l60.1,93.5c5.1,8-0.6,18.5-10.1,18.5h-34.9c-4.4,0-8.5-2.4-10.6-6.3
	C272.9,405.5,256,373,256,373c-6.4,14.8-10,20-36.6,68.8c-2.1,3.9-6.1,6.3-10.5,6.3H174c-9.5,0-15.2-10.5-10.1-18.5l60.3-93.5
	l-60.3-93.5c-5.2-8,0.6-18.5,10.1-18.5h34.8c4.4,0,8.5,2.4,10.6,6.3c26.1,48.8,20,33.6,36.6,68.5c0,0,6.1-11.7,36.6-68.5
	c2.1-3.9,6.2-6.3,10.6-6.3H338C347.5,224,353.2,234.5,348.1,242.5L348.1,242.5z M448,121.9v6.1H320V0h6.1c6.4,0,12.5,2.5,17,7
	l97.9,98C445.5,109.5,448,115.6,448,121.9z"/>
</svg>
