<?xml version="1.0" encoding="utf-8"?>
<!-- Generator: Adobe Illustrator 24.0.0, SVG Export Plug-In . SVG Version: 6.00 Build 0)  -->
<svg version="1.1" id="Layer_1" xmlns="http://www.w3.org/2000/svg" xmlns:xlink="http://www.w3.org/1999/xlink" x="0px" y="0px"
	 viewBox="0 0 512 512" style="enable-background:new 0 0 512 512;" xml:space="preserve">
<path d="M288,136V0H88C74.7,0,64,10.7,64,24v464c0,13.3,10.7,24,24,24h336c13.3,0,24-10.7,24-24V160H312
	C298.8,160,288,149.2,288,136z M353.2,352H288v80c0,8.8-7.2,16-16,16h-32c-8.8,0-16-7.2-16-16v-80h-65.2
	c-14.3,0-21.4-17.3-11.3-27.4L244,229c6.6-6.6,17.4-6.6,24,0l96.4,95.7C374.6,334.7,367.5,352,353.2,352z M441,105L343.1,7
	c-4.5-4.5-10.6-7-17-7H320v128h128v-6.1C448,115.6,445.5,109.5,441,105z"/>
</svg>
