<?xml version="1.0" encoding="utf-8"?>
<!-- Generator: Adobe Illustrator 24.0.0, SVG Export Plug-In . SVG Version: 6.00 Build 0)  -->
<svg version="1.1" id="Layer_1" xmlns="http://www.w3.org/2000/svg" xmlns:xlink="http://www.w3.org/1999/xlink" x="0px" y="0px"
	 viewBox="0 0 512 512" style="enable-background:new 0 0 512 512;" xml:space="preserve">
<path d="M352,256H160v64h192V256z M441,105L343.1,7c-4.5-4.5-10.6-7-17-7H320v128h128v-6.1C448,115.6,445.5,109.5,441,105z M288,136
	V0H88C74.7,0,64,10.7,64,24v464c0,13.3,10.7,24,24,24h336c13.3,0,24-10.7,24-24V160H312C298.8,160,288,149.2,288,136z M128,72
	c0-4.4,3.6-8,8-8h80c4.4,0,8,3.6,8,8v16c0,4.4-3.6,8-8,8h-80c-4.4,0-8-3.6-8-8V72z M128,136c0-4.4,3.6-8,8-8h80c4.4,0,8,3.6,8,8v16
	c0,4.4-3.6,8-8,8h-80c-4.4,0-8-3.6-8-8V136z M384,440c0,4.4-3.6,8-8,8h-80c-4.4,0-8-3.6-8-8v-16c0-4.4,3.6-8,8-8h80c4.4,0,8,3.6,8,8
	V440z M384,240v96c0,8.8-7.2,16-16,16H144c-8.8,0-16-7.2-16-16v-96c0-8.8,7.2-16,16-16h224C376.8,224,384,231.2,384,240z"/>
</svg>
