<?xml version="1.0" encoding="utf-8"?>
<!-- Generator: Adobe Illustrator 24.0.0, SVG Export Plug-In . SVG Version: 6.00 Build 0)  -->
<svg version="1.1" id="Layer_1" xmlns="http://www.w3.org/2000/svg" xmlns:xlink="http://www.w3.org/1999/xlink" x="0px" y="0px"
	 viewBox="0 0 512 512" style="enable-background:new 0 0 512 512;" xml:space="preserve">
<path d="M455.1,312.9c0,0-56.9,82.4-56.9,113.8s25.5,56.9,56.9,56.9c31.4,0,56.9-25.5,56.9-56.9S455.1,312.9,455.1,312.9z
	 M446.8,221.4L262.2,36.8c-5.6-5.6-12.8-8.3-20.1-8.3c-7.3,0-14.6,2.8-20.1,8.3l-72.5,72.5L72.8,32.7c-5.6-5.6-14.6-5.6-20.1,0
	L32.6,52.8c-5.5,5.6-5.5,14.6,0,20.1l76.6,76.6L25,233.7C-8.3,267-8.3,321.1,25,354.4l104.2,104.2c16.7,16.7,38.5,25,60.3,25
	c21.8,0,43.7-8.3,60.3-25l197-197C457.9,250.5,457.9,232.5,446.8,221.4z M343.5,284.5H58.6c1.2-3.4,3.2-7.1,6.6-10.5l11.7-11.7
	l72.5-72.5l52.1,52.1c11.1,11.1,29.1,11.1,40.2,0s11.1-29.1,0-40.2l-52.1-52.1l52.4-52.4l144.4,144.4L343.5,284.5L343.5,284.5z"/>
</svg>
