<?xml version="1.0" encoding="utf-8"?>
<!-- Generator: Adobe Illustrator 24.0.0, SVG Export Plug-In . SVG Version: 6.00 Build 0)  -->
<svg version="1.1" id="Layer_1" xmlns="http://www.w3.org/2000/svg" xmlns:xlink="http://www.w3.org/1999/xlink" x="0px" y="0px"
	 viewBox="0 0 512 512" style="enable-background:new 0 0 512 512;" xml:space="preserve">
<path d="M355.6,51.2c-20.8,19.3-39.6,39.6-56.2,60C272.1,73.6,238.3,35.5,200,0C101.7,91.2,32,210,32,281.6
	C32,408.9,132.3,512,256,512s224-103.1,224-230.4C480,228.3,428,118.5,355.6,51.2L355.6,51.2z M336.1,391.9
	C314.4,407,287.7,416,258.9,416C186.7,416,128,368.3,128,290.8c0-38.6,24.3-72.6,72.8-130.8c6.9,8,98.8,125.3,98.8,125.3l58.6-66.9
	c4.1,6.9,7.9,13.6,11.3,20C396.9,290.6,385.3,357.4,336.1,391.9L336.1,391.9z"/>
</svg>
