<?xml version="1.0" encoding="utf-8"?>
<!-- Generator: Adobe Illustrator 24.0.0, SVG Export Plug-In . SVG Version: 6.00 Build 0)  -->
<svg version="1.1" id="Layer_1" xmlns="http://www.w3.org/2000/svg" xmlns:xlink="http://www.w3.org/1999/xlink" x="0px" y="0px"
	 viewBox="0 0 512 512" style="enable-background:new 0 0 512 512;" xml:space="preserve">
<path d="M466,26.3l-168,28c-11.3,1.9-10,13.5-10,17.7h-58.3C240.4,36.1,213.4,0,176,0c-39.4,0-66.4,39.7-52.2,76.2
	c-52,13.1-75.4,54.2-90,90.9c-4.9,12.3,1.1,26.3,13.4,31.2c12.3,4.9,26.3-1.1,31.2-13.4C107.1,113,139,120,200,120v27.1
	c-41.5,10.9-72,49.2-72,94.1V488c0,13.3,10.7,24,24,24h144c13.3,0,24-10.7,24-24V240c0-44.7-30.6-82.3-72-93v-27h40
	c0,3-1.7,15.7,10,17.7l168,28c7.3,1.2,14-4.4,14-11.8V38.2C480,30.8,473.3,25.1,466,26.3z M176,72c-8.8,0-16-7.2-16-16s7.2-16,16-16
	s16,7.2,16,16S184.8,72,176,72z"/>
</svg>
