<?xml version="1.0" encoding="utf-8"?>
<!-- Generator: Adobe Illustrator 24.0.0, SVG Export Plug-In . SVG Version: 6.00 Build 0)  -->
<svg version="1.1" id="Layer_1" xmlns="http://www.w3.org/2000/svg" xmlns:xlink="http://www.w3.org/1999/xlink" x="0px" y="0px"
	 viewBox="0 0 512 512" style="enable-background:new 0 0 512 512;" xml:space="preserve">
<path d="M44.9,229.2c0.1-0.1,0.2-0.3,0.3-0.4c0,0.1,0,0.3-0.1,0.4H44.9z M256,96.6c-7.1,0-14.6,0.6-21.4,1.7l3.7,67.4l-22-64
	c-14.3,3.7-27.7,9.4-40,16.6l29.4,61.4l-45.1-50.9c-11.4,8.9-21.7,19.1-30.6,30.9l50.6,45.4l-61.1-29.7c-7.1,12.3-12.9,25.7-16.6,40
	l64.3,22.6l-68-4c-0.9,7.1-1.4,14.6-1.4,22c0,7.4,0.6,14.6,1.4,21.7l67.7-4l-64,22.6c3.7,14.3,9.4,27.7,16.6,40.3l61.1-29.7
	L129.7,352c8.9,11.7,19.1,22.3,30.9,30.9l44.9-50.9L176,393.4c12.3,7.4,25.7,13.1,40,16.9l22.3-64.6l-4,68
	c7.1,1.1,14.6,1.7,21.7,1.7c7.4,0,14.6-0.6,21.7-1.7l-4-68.6l22.6,65.1c14.3-4,27.7-9.4,40-16.9L306.9,332l44.9,50.9
	c11.7-8.9,22-19.1,30.6-30.9l-50.6-45.1l61.1,29.4c7.1-12.3,12.9-25.7,16.6-40.3l-64-22.3l67.4,4c1.1-7.1,1.4-14.3,1.4-21.7
	s-0.3-14.9-1.4-22l-67.7,4l64-22.3c-3.7-14.3-9.1-28-16.6-40.3l-60.9,29.7l50.6-45.4c-8.9-11.7-19.1-22-30.6-30.9l-45.1,50.9
	l29.4-61.1c-12.3-7.4-25.7-13.1-40-16.9L273.7,166l4-67.7C270.6,97.1,263.4,96.6,256,96.6z M475.4,128v256L256,512L36.6,384V128
	L256,0L475.4,128z M458.3,138.3L256,20.9L53.7,138.3v235.1L256,491.1l202.3-117.7V138.3z M256,37.1l187.7,109.4v218.9L256,474.9
	L68.3,365.4V146.6L256,37.1z M256,88c-92.3,0-166.9,75.1-166.9,168c0,92.6,74.6,167.7,166.9,167.7c92,0,166.9-75.1,166.9-167.7
	C422.9,163.1,348,88,256,88z"/>
</svg>
