<?xml version="1.0" encoding="utf-8"?>
<!-- Generator: Adobe Illustrator 24.0.0, SVG Export Plug-In . SVG Version: 6.00 Build 0)  -->
<svg version="1.1" id="Layer_1" xmlns="http://www.w3.org/2000/svg" xmlns:xlink="http://www.w3.org/1999/xlink" x="0px" y="0px"
	 viewBox="0 0 512 512" style="enable-background:new 0 0 512 512;" xml:space="preserve">
<path d="M0,99.6v312.9c0,23.6,19.1,42.7,42.7,42.7h42.7V56.9H42.7C19.1,56.9,0,76,0,99.6z M113.8,455.1h284.4V56.9H113.8V455.1z
	 M170.7,234.7c0-3.9,3.2-7.1,7.1-7.1h49.8v-49.8c0-3.9,3.2-7.1,7.1-7.1h42.7c3.9,0,7.1,3.2,7.1,7.1v49.8h49.8c3.9,0,7.1,3.2,7.1,7.1
	v42.7c0,3.9-3.2,7.1-7.1,7.1h-49.8v49.8c0,3.9-3.2,7.1-7.1,7.1h-42.7c-3.9,0-7.1-3.2-7.1-7.1v-49.8h-49.8c-3.9,0-7.1-3.2-7.1-7.1
	V234.7z M469.3,56.9h-42.7v398.2h42.7c23.6,0,42.7-19.1,42.7-42.7V99.6C512,76,492.9,56.9,469.3,56.9z"/>
</svg>
