<?xml version="1.0" encoding="utf-8"?>
<!-- Generator: Adobe Illustrator 24.0.0, SVG Export Plug-In . SVG Version: 6.00 Build 0)  -->
<svg version="1.1" id="Layer_1" xmlns="http://www.w3.org/2000/svg" xmlns:xlink="http://www.w3.org/1999/xlink" x="0px" y="0px"
	 viewBox="0 0 512 512" style="enable-background:new 0 0 512 512;" xml:space="preserve">
<path d="M256,8C119,8,8,119,8,256s111,248,248,248s248-111,248-248S393,8,256,8z M256,496.2C123.3,496.2,15.8,388.7,15.8,256
	S123.3,15.8,256,15.8S496.2,123.3,496.2,256S388.7,496.2,256,496.2z M256,36.3C134.7,36.3,36.3,134.7,36.3,256
	S134.7,475.7,256,475.7S475.7,377.3,475.7,256S377.3,36.3,256,36.3L256,36.3z M256,467.5c-116.8,0-211.5-94.7-211.5-211.5
	S139.2,44.5,256,44.5S467.5,139.2,467.5,256S372.8,467.5,256,467.5L256,467.5z M442.2,304.5c-4.4,17.1-11.2,33.5-20.1,48.7
	L348,317.3l61.5,54.8c-10.6,14.1-23.2,26.6-37.2,37.3l-54.8-61.6l35.9,74.3c-15.2,9-31.6,15.8-48.6,20.2l-27.3-78.5l4.8,82.9
	c-8.6,1.2-17.4,1.8-26.3,1.8s-17.7-0.6-26.3-1.8l4.8-82.5l-27.1,78c-17.1-4.5-33.4-11.3-48.7-20.2l35.9-74.3l-54.9,61.6
	c-14-10.7-26.6-23.2-37.2-37.3l61.6-54.9l-74.3,35.9C80.7,338,74,321.6,69.5,304.6l77.8-27.1l-82.2,4.8c-1.2-8.6-1.8-17.3-1.8-26.2
	c0-9,0.6-17.8,1.8-26.5l82.4,4.8l-77.9-27.2c4.5-17.1,11.3-33.5,20.2-48.7l74.2,35.9l-61.5-54.9c10.7-14,23.2-26.6,37.3-37.2
	l54.8,61.5l-35.8-74.2c15.2-8.9,31.6-15.7,48.6-20.1l26.9,77.2l-4.7-81.6c8.6-1.2,17.4-1.8,26.3-1.8s17.7,0.6,26.3,1.8l-4.7,82.2
	l27-77.8c17.3,4.5,33.6,11.3,48.6,20.2l-35.8,74.1l54.7-61.5c14.1,10.7,26.6,23.2,37.2,37.2l-61.5,54.8l74.1-35.9
	c8.9,15.2,15.7,31.6,20.2,48.6l-77.8,27.1l82.2-4.8c1.2,8.7,1.8,17.5,1.8,26.5c0,8.9-0.6,17.6-1.8,26.2l-82.1-4.8L442.2,304.5
	L442.2,304.5z"/>
</svg>
