<?xml version="1.0" encoding="utf-8"?>
<!-- Generator: Adobe Illustrator 24.0.0, SVG Export Plug-In . SVG Version: 6.00 Build 0)  -->
<svg version="1.1" id="Layer_1" xmlns="http://www.w3.org/2000/svg" xmlns:xlink="http://www.w3.org/1999/xlink" x="0px" y="0px"
	 viewBox="0 0 512 512" style="enable-background:new 0 0 512 512;" xml:space="preserve">
<path d="M290.7,113.8c-80,0-149.8,48.7-188.7,90.3l-77.6-58.8c-10.8-8.2-26.8,0.5-24.1,13.1L21.8,256L0.3,353.6
	c-2.8,12.5,13.3,21.2,24.1,13.1L102,308c39,41.5,108.8,90.2,188.8,90.2C413,398.2,512,284.4,512,256S413,113.8,290.7,113.8z
	 M368.4,277.3c-11.8,0-21.3-9.6-21.3-21.3c0-11.8,9.6-21.3,21.3-21.3c11.8,0,21.3,9.5,21.3,21.3S380.3,277.3,368.4,277.3z"/>
</svg>
