<?xml version="1.0" encoding="utf-8"?>
<!-- Generator: Adobe Illustrator 24.0.0, SVG Export Plug-In . SVG Version: 6.00 Build 0)  -->
<svg version="1.1" id="Layer_1" xmlns="http://www.w3.org/2000/svg" xmlns:xlink="http://www.w3.org/1999/xlink" x="0px" y="0px"
	 viewBox="0 0 512 512" style="enable-background:new 0 0 512 512;" xml:space="preserve">
<path d="M320,160V16c0-8.8-7.2-16-16-16h-32c-8.8,0-16,7.2-16,16v146.9c5-1.8,10.3-2.9,16-2.9H320z M448,256c0-35.3-28.7-64-64-64
	H271.9c-8.8,0-15.9,7.1-15.9,15.9v0.6c0,26.3,21.3,47.6,47.6,47.6h35.3c9.7,0,13.2,3.6,13.2,8v16.2c0,4.3-3.6,7.8-7.9,8
	c-44.5,2.3-64.2,24.7-96.1,72.5l-6.3,9.5c-2.4,3.7-7.4,4.7-11.1,2.2c0,0,0,0,0,0l-13.3-8.9c-3.7-2.4-4.7-7.4-2.2-11.1c0,0,0,0,0,0
	l6.3-9.5c15.7-23.6,30.2-43.3,47.3-58.1c-17.3-5.5-31.4-18.1-38.9-34.4c-6.6,3.4-14,5.5-21.9,5.5h-32c-12.3,0-23.5-4.8-32-12.5
	c-8.5,7.7-19.7,12.5-32,12.5H80c-5.6,0-11-1.1-16-2.9V331c0,34,13.5,66.5,37.5,90.5L128,448v64h256v-64l35.9-35.9
	c18-18,28.1-42.4,28.1-67.9L448,256L448,256z M416,165.9V48c0-8.8-7.2-16-16-16h-32c-8.8,0-16,7.2-16,16v112h32
	C395.2,160,405.9,162.3,416,165.9z M80,224h32c8.8,0,16-7.2,16-16V80c0-8.8-7.2-16-16-16H80c-8.8,0-16,7.2-16,16v128
	C64,216.8,71.2,224,80,224z M176,224h32c8.8,0,16-7.2,16-16V48c0-8.8-7.2-16-16-16h-32c-8.8,0-16,7.2-16,16v160
	C160,216.8,167.1,224,176,224z"/>
</svg>
