<?xml version="1.0" encoding="utf-8"?>
<!-- Generator: Adobe Illustrator 24.0.0, SVG Export Plug-In . SVG Version: 6.00 Build 0)  -->
<svg version="1.1" id="Layer_1" xmlns="http://www.w3.org/2000/svg" xmlns:xlink="http://www.w3.org/1999/xlink" x="0px" y="0px"
	 viewBox="0 0 512 512" style="enable-background:new 0 0 512 512;" xml:space="preserve">
<path d="M469.2,403.5L352,215V64h8c13.3,0,24-10.7,24-24V24c0-13.3-10.7-24-24-24H152c-13.3,0-24,10.7-24,24v16
	c0,13.3,10.7,24,24,24h8v151L42.8,403.5C13.5,450.6,47.3,512,102.9,512h306.2C464.8,512,498.5,450.5,469.2,403.5z M169.9,320
	l48.2-77.6c3.7-5.2,5.8-11.6,5.8-18.4V64h64v160c0,6.9,2.2,13.2,5.8,18.4l48.2,77.6H169.9z"/>
</svg>
