<?xml version="1.0" encoding="utf-8"?>
<!-- Generator: Adobe Illustrator 24.0.0, SVG Export Plug-In . SVG Version: 6.00 Build 0)  -->
<svg version="1.1" id="Layer_1" xmlns="http://www.w3.org/2000/svg" xmlns:xlink="http://www.w3.org/1999/xlink" x="0px" y="0px"
	 viewBox="0 0 512 512" style="enable-background:new 0 0 512 512;" xml:space="preserve">
<path d="M256,8C119,8,8,119,8,256s111,248,248,248s248-111,248-248S393,8,256,8z M256,456c-110.3,0-200-89.7-200-200
	S145.7,56,256,56s200,89.7,200,200S366.3,456,256,456z M352,144c-44.2,0-80,35.8-80,80s35.8,80,80,80s80-35.8,80-80
	S396.2,144,352,144z M352,272c-26.5,0-48-21.5-48-48s21.5-48,48-48s48,21.5,48,48S378.5,272,352,272z M352,200
	c-13.3,0-24,10.7-24,24s10.7,24,24,24s24-10.7,24-24S365.3,200,352,200z M240,224c0-44.2-35.8-80-80-80s-80,35.8-80,80
	s35.8,80,80,80S240,268.2,240,224z M160,272c-26.5,0-48-21.5-48-48s21.5-48,48-48s48,21.5,48,48S186.5,272,160,272z M160,200
	c-13.3,0-24,10.7-24,24s10.7,24,24,24s24-10.7,24-24S173.3,200,160,200z M320,344H192c-13.2,0-24,10.8-24,24s10.8,24,24,24h128
	c13.2,0,24-10.8,24-24S333.2,344,320,344z"/>
</svg>
