<?xml version="1.0" encoding="utf-8"?>
<!-- Generator: Adobe Illustrator 24.0.0, SVG Export Plug-In . SVG Version: 6.00 Build 0)  -->
<svg version="1.1" id="Layer_1" xmlns="http://www.w3.org/2000/svg" xmlns:xlink="http://www.w3.org/1999/xlink" x="0px" y="0px"
	 viewBox="0 0 512 512" style="enable-background:new 0 0 512 512;" xml:space="preserve">
<path d="M352,200c-13.3,0-24,10.7-24,24s10.7,24,24,24s24-10.7,24-24S365.3,200,352,200z M160,200c-13.3,0-24,10.7-24,24
	s10.7,24,24,24s24-10.7,24-24S173.3,200,160,200z M256,8C119,8,8,119,8,256s111,248,248,248s248-111,248-248S393,8,256,8z M88,224
	c0-39.8,32.2-72,72-72s72,32.2,72,72s-32.2,72-72,72S88,263.8,88,224z M320,400H192c-21.2,0-21.2-32,0-32h128
	C341.2,368,341.2,400,320,400z M352,296c-39.8,0-72-32.2-72-72s32.2-72,72-72s72,32.2,72,72S391.8,296,352,296z"/>
</svg>
