<?xml version="1.0" encoding="utf-8"?>
<!-- Generator: Adobe Illustrator 24.0.0, SVG Export Plug-In . SVG Version: 6.00 Build 0)  -->
<svg version="1.1" id="Layer_1" xmlns="http://www.w3.org/2000/svg" xmlns:xlink="http://www.w3.org/1999/xlink" x="0px" y="0px"
	 viewBox="0 0 512 512" style="enable-background:new 0 0 512 512;" xml:space="preserve">
<path d="M261.8,427.8c12.9,11.7,33.7,33.3,33.2,50.7c0,0.8-0.1,1.6-0.1,2.5c-1.8,19.8-18.8,31.1-39.1,31
	c-25-0.1-39.9-16.8-38.7-35.8c1-16.2,20.5-36.7,32.4-47.6c2.3-2.1,2.7-2.7,5.6-3.6C258.5,425,259,425.3,261.8,427.8z M395.9,67.3
	c-16.3-25.7-38.6-40.6-63.3-52.1C307.1,4.5,278-0.2,256,0c-44.1,0-71.2,13.2-81.1,17.3C121.3,45.2,90.5,87.2,92,158.6
	c7.1,82.2,97,176,155.8,233.8c1.7,1.6,4.5,4.5,6.2,5.1l3.3,0.1c2.1-0.7,1.8-0.5,3.5-2.1c52.3-49.2,140.7-145.8,155.9-215.7
	C423.7,140.6,419.8,107.3,395.9,67.3L395.9,67.3z M250.8,351.9c-28-51.1-65.2-130.7-69.3-189c-3.4-47.5,11.4-131.2,69.3-136.7V351.9
	L250.8,351.9z M392.7,180c-16.4,56.8-77.3,128-118.9,170.3C301.6,298.4,339,217,341,158.4c1.6-45.9-9.8-105.8-48-131.4
	C381.8,45.3,408.5,125.1,392.7,180z"/>
</svg>
