<?xml version="1.0" encoding="utf-8"?>
<!-- Generator: Adobe Illustrator 24.0.0, SVG Export Plug-In . SVG Version: 6.00 Build 0)  -->
<svg version="1.1" id="Layer_1" xmlns="http://www.w3.org/2000/svg" xmlns:xlink="http://www.w3.org/1999/xlink" x="0px" y="0px"
	 viewBox="0 0 512 512" style="enable-background:new 0 0 512 512;" xml:space="preserve">
<path d="M509.1,288.1l-64.4,110.4c-10.2,17.5-28.9,28.2-49.1,28.2H40c-16.5,0-26.7-17.9-18.4-32.1L86,284.2
	c10.2-17.5,28.9-28.2,49.1-28.2h355.5C507.1,256,517.4,273.9,509.1,288.1z M135.1,227.6h291.6v-42.7c0-23.6-19.1-42.7-42.7-42.7
	H241.8l-56.9-56.9H42.7C19.1,85.3,0,104.4,0,128v247.2l61.4-105.3C76.6,243.8,104.9,227.6,135.1,227.6z"/>
</svg>
