<?xml version="1.0" encoding="utf-8"?>
<!-- Generator: Adobe Illustrator 24.0.0, SVG Export Plug-In . SVG Version: 6.00 Build 0)  -->
<svg version="1.1" id="Layer_1" xmlns="http://www.w3.org/2000/svg" xmlns:xlink="http://www.w3.org/1999/xlink" x="0px" y="0px"
	 viewBox="0 0 512 512" style="enable-background:new 0 0 512 512;" xml:space="preserve">
<path d="M469.3,227.6h-42.6v-42.7c0-23.6-19.1-42.7-42.7-42.7H241.8l-56.9-56.9H42.7C19.1,85.3,0,104.4,0,128v256
	c0,23.6,19.1,42.7,42.7,42.7h355.6c14.7,0,28.4-7.6,36.2-20.1l71-113.8C523.2,264.4,502.8,227.6,469.3,227.6z M42.7,133.3
	c0-2.9,2.4-5.3,5.3-5.3h119.2l56.9,56.9h154.6c2.9,0,5.3,2.4,5.3,5.3v37.3H135.1c-14.9,0-28.8,7.8-36.5,20.6l-55.9,92.6V133.3z
	 M398.2,384H64l68.6-113.8h336.7L398.2,384z"/>
</svg>
