<?xml version="1.0" encoding="utf-8"?>
<!-- Generator: Adobe Illustrator 24.0.0, SVG Export Plug-In . SVG Version: 6.00 Build 0)  -->
<svg version="1.1" id="Layer_1" xmlns="http://www.w3.org/2000/svg" xmlns:xlink="http://www.w3.org/1999/xlink" x="0px" y="0px"
	 viewBox="0 0 512 512" style="enable-background:new 0 0 512 512;" xml:space="preserve">
<path d="M464,416h-23.4L309.9,53.7c-4.4-13-16.6-21.7-30.3-21.7h-47.2c-13.7,0-25.9,8.7-30.3,21.7L71.4,416H48c-8.8,0-16,7.2-16,16
	v32c0,8.8,7.2,16,16,16h128c8.8,0,16-7.2,16-16v-32c0-8.8-7.2-16-16-16h-19.6l23.3-64h152.6l23.3,64H336c-8.8,0-16,7.2-16,16v32
	c0,8.8,7.2,16,16,16h128c8.8,0,16-7.2,16-16v-32C480,423.2,472.8,416,464,416z M208.9,272L256,142.5L303.1,272H208.9z"/>
</svg>
