<?xml version="1.0" encoding="utf-8"?>
<!-- Generator: Adobe Illustrator 24.0.0, SVG Export Plug-In . SVG Version: 6.00 Build 0)  -->
<svg version="1.1" id="Layer_1" xmlns="http://www.w3.org/2000/svg" xmlns:xlink="http://www.w3.org/1999/xlink" x="0px" y="0px"
	 viewBox="0 0 512 512" style="enable-background:new 0 0 512 512;" xml:space="preserve">
<path d="M178.4,224h92.4l-15.2,51.2h-76.4V433c0,8-2.8,9.2,4.4,10l59.6,5.6V483H64v-35.2l29.2-2.8c7.2-0.8,9.2-3.2,9.2-10.8V278.4
	c0-3.2-4-3.2-8-3.2H64V224h38.4v-28.8c0-68,36.4-96,106-96c46.8,0,88.8,11.2,88.8,72.4l-69.6,8.4c0.4-25.6-6-31.6-22.4-31.6
	c-25.2,0-26,13.6-26,37.6v32C179.2,221.2,174.4,224,178.4,224z M448,483H307.2v-34.4l28-3.6c7.2-0.8,10.4-2.4,10.4-10V287
	c0-5.6-4-9.2-9.2-10.8l-33.2-8.8l9.2-40.4h110v208c0,8-3.6,8.8,4,10l21.6,3.6V483z M418,135.8l12.4,45.6l-10,10l-42.8-22.8
	l-42.8,22.8l-10-10l12.4-45.6l-30-36.4l4.8-10h38L371.2,51H384l21.2,38.4h38l4.8,13.2L418,135.8L418,135.8z"/>
</svg>
