<?xml version="1.0" encoding="utf-8"?>
<!-- Generator: Adobe Illustrator 24.0.0, SVG Export Plug-In . SVG Version: 6.00 Build 0)  -->
<svg version="1.1" id="Layer_1" xmlns="http://www.w3.org/2000/svg" xmlns:xlink="http://www.w3.org/1999/xlink" x="0px" y="0px"
	 viewBox="0 0 512 512" style="enable-background:new 0 0 512 512;" xml:space="preserve">
<path d="M429.8,32H82.2C54.7,32,32,54.7,32,82.2v347.6c0,27.5,22.7,50.2,50.2,50.2h347.6c27.5,0,50.2-22.7,50.2-50.2V82.2
	C480,54.7,457.3,32,429.8,32L429.8,32z M384.4,316.3c0,4.2-3.6,6-7.8,7.8c-16.7,7.2-34.6,13.7-53.8,13.7
	c-26.9,0-39.4-16.7-71.7-16.7c-23.3,0-47.8,8.4-67.5,17.3c-1.2,0.6-2.4,0.6-3.6,1.2V385c0,1.8,0,3.6-0.6,4.8v1.2
	c-2.4,8.4-10.2,14.3-19.1,14.3c-11.3,0-20.3-9-20.3-20.3V166.4c-7.8-6-13.1-15.5-13.1-26.3c0-18.5,14.9-33.5,33.5-33.5
	c18.5,0,33.5,14.9,33.5,33.5c0,10.8-4.8,20.3-13.1,26.3v18.5c1.8-0.6,3.6-1.2,5.4-2.4c18.5-7.8,40.6-14.3,61.5-14.3
	c22.7,0,40.6,6,60.9,13.7c4.2,1.8,8.4,2.4,13.1,2.4c22.7,0,47.8-16.1,53.8-16.1c4.8,0,9,3.6,9,7.8L384.4,316.3L384.4,316.3z"/>
</svg>
