<?xml version="1.0" encoding="utf-8"?>
<!-- Generator: Adobe Illustrator 24.0.0, SVG Export Plug-In . SVG Version: 6.00 Build 0)  -->
<svg version="1.1" id="Layer_1" xmlns="http://www.w3.org/2000/svg" xmlns:xlink="http://www.w3.org/1999/xlink" x="0px" y="0px"
	 viewBox="0 0 512 512" style="enable-background:new 0 0 512 512;" xml:space="preserve">
<path d="M32,32v448h448V32H32z M219,172.9c-18.4,0-19,9.9-19,27.4v23.3c0,2.4-3.5,4.4-0.6,4.4h67.4l-11.1,37.3H200v112.9
	c0,5.8-2,6.7,3.2,7.3l43.5,4.1v25.1H116V389l21.3-2c5.2-0.6,6.7-2.3,6.7-7.9V267.7c0-2.3-2.9-2.3-5.8-2.3H116V228h28v-21
	c0-49.6,26.5-70,77.3-70c34.1,0,64.7,8.2,64.7,52.8l-50.7,6.1C235.6,177.2,230.9,172.9,219,172.9L219,172.9z M293.3,414.7v-25.1
	l20.4-2.6c5.2-0.6,7.6-1.7,7.6-7.3V271.8c0-4.1-2.9-6.7-6.7-7.9l-24.2-6.4l6.7-29.5h80.2v151.7c0,5.8-2.6,6.4,2.9,7.3l15.7,2.6v25.1
	H293.3z M374.1,159.2l9,33.2l-7.3,7.3l-31.2-16.6l-31.2,16.6l-7.3-7.3l9-33.2L293.3,135l3.5-9.6h27.7l15.5-28h9.3l15.5,28h27.7
	l3.5,9.6L374.1,159.2z"/>
</svg>
