<?xml version="1.0" encoding="utf-8"?>
<!-- Generator: Adobe Illustrator 24.0.0, SVG Export Plug-In . SVG Version: 6.00 Build 0)  -->
<svg version="1.1" id="Layer_1" xmlns="http://www.w3.org/2000/svg" xmlns:xlink="http://www.w3.org/1999/xlink" x="0px" y="0px"
	 viewBox="0 0 512 512" style="enable-background:new 0 0 512 512;" xml:space="preserve">
<path d="M476.4,359.4c0,7.2-6.1,10.2-13.3,13.3c-28.7,12.3-59.4,23.6-92.2,23.6c-46.1,0-67.6-28.7-122.9-28.7
	c-39.9,0-81.9,14.3-115.7,29.7c-2,1-4.1,1-6.1,2v77.8c0,21.4-16.1,34.8-33.8,34.8c-19.5,0-34.8-15.4-34.8-34.8V102.4
	C44.2,92.2,35,75.8,35,57.3C35,25.6,60.6,0,92.4,0s57.3,25.6,57.3,57.3c0,18.4-8.2,34.8-22.5,45.1v31.7
	c4.1-1.4,58.8-28.7,114.7-28.7c65.3,0,97.7,27.6,127,27.6c38.9,0,81.9-27.6,92.2-27.6c8.2,0,15.4,6.1,15.4,13.3L476.4,359.4
	L476.4,359.4z"/>
</svg>
