<?xml version="1.0" encoding="utf-8"?>
<!-- Generator: Adobe Illustrator 24.0.0, SVG Export Plug-In . SVG Version: 6.00 Build 0)  -->
<svg version="1.1" id="Layer_1" xmlns="http://www.w3.org/2000/svg" xmlns:xlink="http://www.w3.org/1999/xlink" x="0px" y="0px"
	 viewBox="0 0 512 512" style="enable-background:new 0 0 512 512;" xml:space="preserve">
<path d="M37.8,309.7c-3.8-17-5.8-34.2-5.8-51.4C32,135,131.8,35,255.1,35c16.6,0,33.3,2,49.3,5.5C181,87.5,83.9,186,37.8,309.7z
	 M430.7,120.5C417,103,401,87.8,382.9,75.2c-149.6,44.3-266.3,162.1-309.7,312c12.5,18.1,28,35.6,45.2,49
	C161.5,284.9,279.6,164.5,430.7,120.5L430.7,120.5z M446.5,373.2c15.2-25.1,25.4-53.7,29.5-82.8C396.6,333.3,331,401,288.4,480.7
	c30-4.4,58.9-15.3,84.6-31.3c35,13.1,70.9,24.3,107,33.6C470.7,446.5,459.6,408.5,446.5,373.2z M476.2,227.7
	c-2.6-19.5-7.9-38.7-15.8-56.8C322.5,216.7,214,327.5,169.1,466c18.1,7.6,37,12.5,56.6,15.2C272,367.1,362.5,274.4,476.2,227.7
	L476.2,227.7z"/>
</svg>
