<?xml version="1.0" encoding="utf-8"?>
<!-- Generator: Adobe Illustrator 24.0.0, SVG Export Plug-In . SVG Version: 6.00 Build 0)  -->
<svg version="1.1" id="Layer_1" xmlns="http://www.w3.org/2000/svg" xmlns:xlink="http://www.w3.org/1999/xlink" x="0px" y="0px"
	 viewBox="0 0 512 512" style="enable-background:new 0 0 512 512;" xml:space="preserve">
<path d="M395.1,3H121.9C84.4,3,72,31.3,72,49.1v433.8c0,20.3,12.1,27.7,18.2,30.1c6.2,2.5,22.8,4.6,32.9-7.1
	C252,356.5,254.2,354,254.2,354c3.1-3.4,3.4-3.1,6.8-3.1h83.4c35.1,0,40.6-25.2,44.3-39.7l48.6-243C445.8,25.8,435.1,3,395.1,3z
	 M378.8,76.8l-11.4,59.7c-1.2,6.5-9.5,13.2-16.9,13.2H244.1c-12,0-20.6,8.3-20.6,20.3v13c0,12,8.6,20.6,20.6,20.6h90.4
	c8.3,0,16.6,9.2,14.8,18.2c-1.8,8.9-10.5,53.8-11.4,58.8c-0.9,4.9-6.8,13.5-16.9,13.5h-73.5c-13.5,0-17.2,1.8-26.5,12.6
	c0,0-8.9,11.4-89.5,108.3c-0.9,0.9-1.8,0.6-1.8-0.3V75.9c0-7.7,6.8-16.6,16.6-16.6h219C373.5,59.3,380.9,67,378.8,76.8L378.8,76.8z"
	/>
</svg>
