<?xml version="1.0" encoding="utf-8"?>
<!-- Generator: Adobe Illustrator 24.0.0, SVG Export Plug-In . SVG Version: 6.00 Build 0)  -->
<svg version="1.1" id="Layer_1" xmlns="http://www.w3.org/2000/svg" xmlns:xlink="http://www.w3.org/1999/xlink" x="0px" y="0px"
	 viewBox="0 0 512 512" style="enable-background:new 0 0 512 512;" xml:space="preserve">
<path d="M335.7,96.2c11.1-11.1,115.5-77,139.2-53.2c23.7,23.7-42.1,128.1-53.2,139.2c-11.1,11.1-39.4,0.9-63.1-22.9
	C334.8,135.6,324.5,107.3,335.7,96.2z M141.9,68.1C105.6,47.5,54,24.6,37.6,41.1C21,57.7,44.7,110.5,65.5,146.8
	C84,114.6,110.3,87.5,141.9,68.1z M438.7,174c3.3,11.3,2.7,20.7-2.7,26.1c-20.3,20.3-87.5-27-109.3-70.1
	c-18-32.3-11.1-53.4,14.9-48.7c5.7-3.6,12.3-7.6,19.6-11.6c-29.8-15.5-63.6-24.3-99.5-24.3C142.6,45.4,46.1,141.9,46.1,261
	c0,119,96.5,215.6,215.6,215.6S477.3,380.1,477.3,261c0-38.4-10.1-74.5-27.7-105.8C445.7,162.2,442,168.5,438.7,174L438.7,174z"/>
</svg>
