<?xml version="1.0" encoding="utf-8"?>
<!-- Generator: Adobe Illustrator 24.0.0, SVG Export Plug-In . SVG Version: 6.00 Build 0)  -->
<svg version="1.1" id="Layer_1" xmlns="http://www.w3.org/2000/svg" xmlns:xlink="http://www.w3.org/1999/xlink" x="0px" y="0px"
	 viewBox="0 0 512 512" style="enable-background:new 0 0 512 512;" xml:space="preserve">
<path d="M396.9,115c-6-33.1-34.9-58.1-69.8-58.1s-63.7,25.2-69.8,58.2C112.7,128.9-0.4,250.8,0,399.1c0.1,31,25.9,56,56.9,56h270.2
	c7.8,0,14.2-6.4,14.2-14.2c0-15.7-12.7-28.4-28.4-28.4h-70.7l31.8-42.9c21.4-32.2,9.2-78.5-30-94.8c-21.2-8.8-45.9-4.1-64.2,9.7
	l-29.2,21.9c-6.3,4.7-15.2,3.5-19.9-2.8c-4.7-6.3-3.5-15.2,2.8-19.9l30.9-23.2c32.7-24.6,78.5-24.5,111.2,0
	c9.7,7.2,40.8,34.8,36.3,82.8l105.3,111.9h80.4c7.8,0,14.2-6.4,14.2-14.2c0-15.7-12.7-28.4-28.4-28.4h-47.6l-87.6-93.1l137.2-77
	c16.3-9.2,26.4-26.4,26.4-45.1c0-19-10.4-36.4-27.1-45.5C448.9,132,396.9,115,396.9,115L396.9,115z M327.1,149.3
	c-11.8,0-21.3-9.6-21.3-21.3c0-11.8,9.5-21.3,21.3-21.3c11.8,0,21.3,9.5,21.3,21.3C348.4,139.8,338.9,149.3,327.1,149.3z"/>
</svg>
