<?xml version="1.0" encoding="utf-8"?>
<!-- Generator: Adobe Illustrator 24.0.0, SVG Export Plug-In . SVG Version: 6.00 Build 0)  -->
<svg version="1.1" id="Layer_1" xmlns="http://www.w3.org/2000/svg" xmlns:xlink="http://www.w3.org/1999/xlink" x="0px" y="0px"
	 viewBox="0 0 512 512" style="enable-background:new 0 0 512 512;" xml:space="preserve">
<path d="M256,8C119,8,8,119,8,256s111,248,248,248s248-111,248-248S393,8,256,8z M336,176c17.7,0,32,14.3,32,32s-14.3,32-32,32
	s-32-14.3-32-32S318.3,176,336,176z M176,176c17.7,0,32,14.3,32,32s-14.3,32-32,32s-32-14.3-32-32S158.3,176,176,176z M346.2,394.2
	C323.8,367.4,290.9,352,256,352s-67.8,15.4-90.2,42.2c-13.5,16.3-38.1-4.2-24.6-20.5C169.7,339.6,211.6,320,256,320
	s86.3,19.6,114.7,53.8C384.3,390,359.7,410.5,346.2,394.2L346.2,394.2z"/>
</svg>
