<?xml version="1.0" encoding="utf-8"?>
<!-- Generator: Adobe Illustrator 24.0.0, SVG Export Plug-In . SVG Version: 6.00 Build 0)  -->
<svg version="1.1" id="Layer_1" xmlns="http://www.w3.org/2000/svg" xmlns:xlink="http://www.w3.org/1999/xlink" x="0px" y="0px"
	 viewBox="0 0 512 512" style="enable-background:new 0 0 512 512;" xml:space="preserve">
<path d="M256,8C119,8,8,119,8,256s111,248,248,248s248-111,248-248S393,8,256,8z M256,456c-110.3,0-200-89.7-200-200
	S145.7,56,256,56s200,89.7,200,200S366.3,456,256,456z M176,240c17.7,0,32-14.3,32-32s-14.3-32-32-32s-32,14.3-32,32
	S158.3,240,176,240z M336,176c-17.7,0-32,14.3-32,32s14.3,32,32,32s32-14.3,32-32S353.7,176,336,176z M256,304
	c-40.2,0-78,17.7-103.8,48.6c-8.5,10.2-7.1,25.3,3.1,33.8c10.2,8.4,25.3,7.1,33.8-3.1c16.6-19.9,41-31.4,66.9-31.4
	s50.3,11.4,66.9,31.4c8.1,9.7,23.1,11.9,33.8,3.1c10.2-8.5,11.5-23.6,3.1-33.8C334,321.7,296.2,304,256,304z"/>
</svg>
