<?xml version="1.0" encoding="utf-8"?>
<!-- Generator: Adobe Illustrator 24.0.0, SVG Export Plug-In . SVG Version: 6.00 Build 0)  -->
<svg version="1.1" id="Layer_1" xmlns="http://www.w3.org/2000/svg" xmlns:xlink="http://www.w3.org/1999/xlink" x="0px" y="0px"
	 viewBox="0 0 512 512" style="enable-background:new 0 0 512 512;" xml:space="preserve">
<path d="M256,8C119,8,8,119,8,256s111,248,248,248s248-111,248-248S393,8,256,8z M144,208c0-17.7,14.3-32,32-32s32,14.3,32,32
	s-14.3,32-32,32S144,225.7,144,208z M331.3,391.3c-31.2-9.6-59.4-15.3-75.3-15.3s-44.1,5.7-75.3,15.3c-11.5,3.5-22.5-6.3-20.5-18.1
	c7-40,60.1-61.2,95.8-61.2s88.8,21.3,95.8,61.2C353.8,385.1,342.7,394.8,331.3,391.3z M336,240c-17.7,0-32-14.3-32-32s14.3-32,32-32
	s32,14.3,32,32S353.7,240,336,240z"/>
</svg>
