<?xml version="1.0" encoding="utf-8"?>
<!-- Generator: Adobe Illustrator 24.0.0, SVG Export Plug-In . SVG Version: 6.00 Build 0)  -->
<svg version="1.1" id="Layer_1" xmlns="http://www.w3.org/2000/svg" xmlns:xlink="http://www.w3.org/1999/xlink" x="0px" y="0px"
	 viewBox="0 0 512 512" style="enable-background:new 0 0 512 512;" xml:space="preserve">
<path d="M346.8,184l81-89.5c16-16,4.7-43.3-17.9-43.3H25.4C2.8,51.2-8.5,78.5,7.5,94.5L153.6,256v124.7c0,10.1,4.7,19.6,12.8,25.6
	l64,48c16.7,12.5,38.8,5.6,47.4-10.9c-29.1-28-47.4-67.2-47.4-110.7C230.4,261,280,200.7,346.8,184L346.8,184z M384,204.8
	c-70.7,0-128,57.3-128,128s57.3,128,128,128s128-57.3,128-128S454.7,204.8,384,204.8z M396.8,396.7v12.9c0,3.5-2.9,6.4-6.4,6.4
	h-12.8c-3.5,0-6.4-2.9-6.4-6.4v-13c-9-0.5-17.8-3.6-25.1-9.1c-3.1-2.3-3.3-7-0.5-9.7l9.4-9c2.2-2.1,5.5-2.2,8.1-0.6
	c3.1,1.9,6.6,3,10.3,3h22.5c5.2,0,9.4-4.7,9.4-10.6c0-4.8-2.9-9-7-10.2l-36-10.8c-14.9-4.5-25.3-18.7-25.3-34.7
	c0-19.6,15.2-35.6,34.1-36.1V256c0-3.5,2.9-6.4,6.4-6.4h12.8c3.5,0,6.4,2.9,6.4,6.4v13c9,0.5,17.8,3.6,25.1,9.1
	c3.1,2.3,3.3,7,0.5,9.7l-9.4,9c-2.2,2.1-5.5,2.2-8.1,0.6c-3.1-1.9-6.6-3-10.3-3h-22.5c-5.2,0-9.4,4.7-9.4,10.6c0,4.8,2.9,9,7,10.2
	l36,10.8c14.9,4.5,25.3,18.7,25.3,34.7C430.9,380.3,415.7,396.2,396.8,396.7L396.8,396.7z"/>
</svg>
