<?xml version="1.0" encoding="utf-8"?>
<!-- Generator: Adobe Illustrator 24.0.0, SVG Export Plug-In . SVG Version: 6.00 Build 0)  -->
<svg version="1.1" id="Layer_1" xmlns="http://www.w3.org/2000/svg" xmlns:xlink="http://www.w3.org/1999/xlink" x="0px" y="0px"
	 viewBox="0 0 512 512" style="enable-background:new 0 0 512 512;" xml:space="preserve">
<path d="M491.8,179.4C457.8,74.6,360.6,8,256.1,8c-25.4,0-51.2,3.9-76.7,12.2C49.2,62.5-22.1,202.4,20.2,332.6
	C54.2,437.4,151.4,504,255.9,504c25.4,0,51.2-3.9,76.7-12.2C462.8,449.5,534.1,309.6,491.8,179.4z M417.3,373.1l-52.2,6.4
	l-43.7-60.9l24.4-75.2l71.1-22.1l38.9,36.4c-0.2,30.7-7.4,61.1-21.7,89.2C429.4,356.2,423.4,364.7,417.3,373.1L417.3,373.1z
	 M417.3,137.7l-10.4,53.1l-70.7,22L272,166.3V92.5l47.4-26.2C358.6,79.3,392.8,104.3,417.3,137.7L417.3,137.7z M192.9,66.4L240,92.5
	v73.8l-64.2,46.5l-70.6-22l-10.1-52.5C119.4,104.9,153,79.7,192.9,66.4L192.9,66.4z M147,379.5L93.9,373
	c-14.4-20.1-37.3-59.6-37.8-115.3l39-36.4l71.1,22.2l24.3,74.3L147,379.5L147,379.5z M195.2,446.5l-22.4-48.1l43.6-61.7H295
	l44.3,61.7l-22.4,48.1C310.7,448.3,259.3,466.9,195.2,446.5z"/>
</svg>
