<?xml version="1.0" encoding="utf-8"?>
<!-- Generator: Adobe Illustrator 24.0.0, SVG Export Plug-In . SVG Version: 6.00 Build 0)  -->
<svg version="1.1" id="Layer_1" xmlns="http://www.w3.org/2000/svg" xmlns:xlink="http://www.w3.org/1999/xlink" x="0px" y="0px"
	 viewBox="0 0 512 512" style="enable-background:new 0 0 512 512;" xml:space="preserve">
<path d="M256,504C119.3,504,8,392.8,8,256S119.3,8,256,8s248,111.3,248,248S392.8,504,256,504z M256,24.5
	C128.4,24.5,24.5,128.4,24.5,256S128.4,487.5,256,487.5S487.5,383.6,487.5,256S383.6,24.5,256,24.5z M283.6,46.3V71
	c30.3,4.5,59,16.3,83.6,34.5l17.4-17.4C355.8,66.1,321.3,51.3,283.6,46.3L283.6,46.3z M228.3,46.4c-37.6,4.9-72.2,19.8-100.9,41.8
	l17.3,17.4h0.1c24.1-17.8,52.6-30.1,83.5-34.7C228.3,70.9,228.3,46.4,228.3,46.4z M240.5,96.6v82.9c-10,2-19.4,5.9-27.7,11.4
	l-58.6-58.6l-21.9,21.9l58.7,58.7c-5.5,8.2-9.4,17.6-11.5,27.6H96.6v31h82.9c2,10,6,19.3,11.5,27.5l-58.7,58.7l21.9,21.9l58.6-58.6
	c8.4,5.6,17.8,9.5,27.7,11.5v82.9h31v-82.9c10-2,19.4-6.1,27.6-11.5l58.7,58.7l21.9-21.9L321,299c5.5-8.2,9.5-17.5,11.5-27.5h82.9
	v-31h-82.9c-2-10-6-19.4-11.5-27.6l58.7-58.7l-21.9-21.9l-58.7,58.7c-8.3-5.5-17.6-9.5-27.6-11.5V96.6
	C271.5,96.6,240.5,96.6,240.5,96.6z M423.7,127.3l-17.4,17.4c18.3,24.6,30.2,53.4,34.7,83.7h24.6C460.7,190.6,445.8,156,423.7,127.3
	z M88.2,127.4c-22.1,28.7-36.9,63.3-41.8,100.9H71c4.6-31,16.8-59.4,34.6-83.5L88.2,127.4L88.2,127.4z M46.3,283.7
	c4.9,37.6,19.7,72.2,41.8,100.9l17.4-17.4c-17.8-24.1-29.9-52.6-34.5-83.5L46.3,283.7L46.3,283.7z M441,283.7
	c-4.6,31-16.8,59.5-34.7,83.6l17.4,17.4c22.1-28.7,37-63.3,41.9-101H441L441,283.7z M144.7,406.4l-17.4,17.4
	c28.7,22.1,63.3,37,101,41.9V441C197.3,436.4,168.7,424.2,144.7,406.4L144.7,406.4z M367.2,406.4c-24.1,17.8-52.6,30.1-83.6,34.7
	v24.6c37.7-4.9,72.2-19.8,101-41.9L367.2,406.4L367.2,406.4z"/>
</svg>
