<?xml version="1.0" encoding="utf-8"?>
<!-- Generator: Adobe Illustrator 24.0.0, SVG Export Plug-In . SVG Version: 6.00 Build 0)  -->
<svg version="1.1" id="Layer_1" xmlns="http://www.w3.org/2000/svg" xmlns:xlink="http://www.w3.org/1999/xlink" x="0px" y="0px"
	 viewBox="0 0 512 512" style="enable-background:new 0 0 512 512;" xml:space="preserve">
<path d="M384,128H128C57.3,128,0,185.3,0,256s57.3,128,128,128c34.4,0,67.3-13.8,91.4-38.4h73.2c49.5,50.5,130.5,51.3,181,1.8
	s51.3-130.5,1.8-181C451.3,141.9,418.4,128,384,128z M198.4,265.6c0,5.3-4.3,9.6-9.6,9.6h-41.6v41.6c0,5.3-4.3,9.6-9.6,9.6h-19.2
	c-5.3,0-9.6-4.3-9.6-9.6v-41.6H67.2c-5.3,0-9.6-4.3-9.6-9.6v-19.2c0-5.3,4.3-9.6,9.6-9.6l0,0h41.6v-41.6c0-5.3,4.3-9.6,9.6-9.6h19.2
	c5.3,0,9.6,4.3,9.6,9.6v41.6h41.6c5.3,0,9.6,4.3,9.6,9.6l0,0V265.6z M371.2,326.4c-17.7,0-32-14.3-32-32c0-17.7,14.3-32,32-32
	c17.7,0,32,14.3,32,32C403.2,312.1,388.9,326.4,371.2,326.4z M422.4,249.6c-17.7,0-32-14.3-32-32s14.3-32,32-32s32,14.3,32,32
	S440.1,249.6,422.4,249.6z"/>
</svg>
