<?xml version="1.0" encoding="utf-8"?>
<!-- Generator: Adobe Illustrator 24.0.0, SVG Export Plug-In . SVG Version: 6.00 Build 0)  -->
<svg version="1.1" id="Layer_1" xmlns="http://www.w3.org/2000/svg" xmlns:xlink="http://www.w3.org/1999/xlink" x="0px" y="0px"
	 viewBox="0 0 512 512" style="enable-background:new 0 0 512 512;" xml:space="preserve">
<path d="M431.6,28.4L512,170.7h-89.9L360.6,28.4H431.6z M317.8,28.4l61.5,142.2H132.7l61.5-142.2H317.8z M80.4,28.4h70.9L89.9,170.7
	H0L80.4,28.4z M0,199.1h89.5l109.3,223.7c1.3,2.8-2.4,5.2-4.4,2.9L0,199.1z M131.7,199.1h248.5L258.5,482c-0.9,2.1-4,2.1-4.9,0
	L131.7,199.1z M313.2,422.8l109.3-223.7H512L317.6,425.7C315.6,428.1,311.8,425.6,313.2,422.8L313.2,422.8z"/>
</svg>
