<?xml version="1.0" encoding="utf-8"?>
<!-- Generator: Adobe Illustrator 24.0.0, SVG Export Plug-In . SVG Version: 6.00 Build 0)  -->
<svg version="1.1" id="Layer_1" xmlns="http://www.w3.org/2000/svg" xmlns:xlink="http://www.w3.org/1999/xlink" x="0px" y="0px"
	 viewBox="0 0 512 512" style="enable-background:new 0 0 512 512;" xml:space="preserve">
<path d="M412.4,28.4H99.6c-3.6,0-6.9,1.8-8.9,4.8L1.8,164.1c-2.6,3.9-2.3,9.1,0.6,12.6l245.3,302.9c4.3,5.2,12.3,5.2,16.5,0
	l245.3-302.9c2.9-3.6,3.2-8.7,0.6-12.6L421.4,33.2C419.4,30.2,416.1,28.4,412.4,28.4z M395.3,71.1l56.3,85.3h-60.8l-46-85.3H395.3
	L395.3,71.1z M215.6,71.1h80.6l46,85.3H169.8L215.6,71.1z M116.7,71.1h50.5l-46,85.3H60.4L116.7,71.1z M78.5,199.1h45.7l60.7,142.2
	L78.5,199.1z M170,199.1H342l-86,216.3L170,199.1L170,199.1z M327.1,341.3l60.6-142.2h45.7L327.1,341.3z"/>
</svg>
