<?xml version="1.0" encoding="utf-8"?>
<!-- Generator: Adobe Illustrator 24.0.0, SVG Export Plug-In . SVG Version: 6.00 Build 0)  -->
<svg version="1.1" id="Layer_1" xmlns="http://www.w3.org/2000/svg" xmlns:xlink="http://www.w3.org/1999/xlink" x="0px" y="0px"
	 viewBox="0 0 512 512" style="enable-background:new 0 0 512 512;" xml:space="preserve">
<path d="M439.6,64h-367C50.5,64,32,82.5,32,104.6v135.2C32,364.5,131.7,464,256.2,464c124,0,223.8-99.5,223.8-224.2V104.6
	C480,82.2,462.3,64,439.6,64z M277.6,332.5c-12.4,11.8-31.4,11.1-42.4,0C121.5,223.6,120.3,227.4,120.3,209.3
	c0-16.9,13.8-30.7,30.7-30.7c17,0,16.1,3.8,105.2,89.3c90.6-86.9,88.6-89.3,105.5-89.3c16.9,0,30.7,13.8,30.7,30.7
	C392.4,227.1,389.5,225,277.6,332.5L277.6,332.5z"/>
</svg>
