<?xml version="1.0" encoding="utf-8"?>
<!-- Generator: Adobe Illustrator 24.0.0, SVG Export Plug-In . SVG Version: 6.00 Build 0)  -->
<svg version="1.1" id="Layer_1" xmlns="http://www.w3.org/2000/svg" xmlns:xlink="http://www.w3.org/1999/xlink" x="0px" y="0px"
	 viewBox="0 0 512 512" style="enable-background:new 0 0 512 512;" xml:space="preserve">
<path d="M250.1,0.1C145,3.2,64,94.9,64,200.1V464c0,14.3,17.2,21.4,27.3,11.3l24.9-18.5c6.7-5,16-4,21.5,2.2l43,48.4
	c6.3,6.3,16.4,6.3,22.6,0l40.7-45.9c6.4-7.2,17.6-7.2,23.9,0l40.7,45.9c6.3,6.3,16.4,6.3,22.6,0l43-48.4c5.5-6.2,14.9-7.2,21.5-2.2
	l24.9,18.5c10.1,10.1,27.3,2.9,27.3-11.3V192C448,84,358.8-3.2,250.1,0.1z M192,224c-17.7,0-32-14.3-32-32s14.3-32,32-32
	s32,14.3,32,32S209.7,224,192,224z M320,224c-17.7,0-32-14.3-32-32s14.3-32,32-32s32,14.3,32,32S337.7,224,320,224z"/>
</svg>
