<?xml version="1.0" encoding="utf-8"?>
<!-- Generator: Adobe Illustrator 24.0.0, SVG Export Plug-In . SVG Version: 6.00 Build 0)  -->
<svg version="1.1" id="Layer_1" xmlns="http://www.w3.org/2000/svg" xmlns:xlink="http://www.w3.org/1999/xlink" x="0px" y="0px"
	 viewBox="0 0 512 512" style="enable-background:new 0 0 512 512;" xml:space="preserve">
<path d="M192.5,206.5c1.5-24.6,13.8-49,35.2-63.8C223.5,134,215,128,204.8,128h-23.5l24.6-17.6c5.8-4.1,7.1-12.1,3-17.8l-7.4-10.4
	c-4.1-5.8-12.1-7.1-17.8-3l-25.6,18.3l9.2-24.5c2.5-6.6-0.9-14-7.5-16.5l-12-4.5c-6.6-2.5-14,0.9-16.5,7.5L115.2,102L99.3,59.5
	c-2.5-6.6-9.8-10-16.5-7.5l-12,4.5c-6.6,2.5-10,9.9-7.4,16.5l9.2,24.5L46.9,79.2c-5.8-4.1-13.8-2.8-17.8,3l-7.4,10.4
	c-4.1,5.8-2.8,13.8,3,17.8L49.1,128H25.6C11.4,128,0,139.4,0,153.6v281.6c0,14.2,11.4,25.6,25.6,25.6h135.1
	c-4.4-7.6-7.1-16.2-7.1-25.6V256C153.6,232.1,170.2,212,192.5,206.5z M179.2,435.2c0,14.2,11.4,25.6,25.6,25.6h128V358.4H179.2
	V435.2z M358.4,460.8h128c14.2,0,25.6-11.4,25.6-25.6v-76.8H358.4V460.8z M486.4,230.4h-16.3c2.1-6.1,3.5-12.4,3.5-19
	c0-28.4-21.6-57.8-57.7-57.8c-38.5,0-60.7,38.2-70.3,60.2c-9.7-22.1-31.9-60.2-70.3-60.2c-36.1,0-57.7,29.4-57.7,57.8
	c0,6.6,1.4,13,3.5,19h-16.3c-14.2,0-25.6,11.4-25.6,25.6v76.8h153.6V230.4H345l0.6-0.2l0.6,0.2h12.2v102.4H512V256
	C512,241.8,500.6,230.4,486.4,230.4z M268.8,230.4c-2.2-1.1-4.1-2.4-5.8-3.8c-5.8-5.1-7-11-7-15.2c0-7.8,5.1-19.4,19.3-19.4
	c15,0,28.5,21.9,35.6,38.4H268.8z M428.2,226.6c-1.7,1.4-3.6,2.7-5.8,3.8h-42.1c7-16.2,20.6-38.4,35.6-38.4
	c14.2,0,19.3,11.6,19.3,19.4C435.2,215.5,434,221.4,428.2,226.6z"/>
</svg>
