<?xml version="1.0" encoding="utf-8"?>
<!-- Generator: Adobe Illustrator 24.0.0, SVG Export Plug-In . SVG Version: 6.00 Build 0)  -->
<svg version="1.1" id="Layer_1" xmlns="http://www.w3.org/2000/svg" xmlns:xlink="http://www.w3.org/1999/xlink" x="0px" y="0px"
	 viewBox="0 0 512 512" style="enable-background:new 0 0 512 512;" xml:space="preserve">
<path d="M132.6,334.2c48.6,3.3,58.9,2.1,58.9,11.9c0,20-65.6,20.1-65.6,1.5C126,342.6,129.3,338.3,132.6,334.2z M160.5,217.6
	c-32.3,0-33.8,44.5-0.8,44.5C192.3,262.1,191.5,217.6,160.5,217.6L160.5,217.6z M480,80v352c0,26.5-21.5,48-48,48H80
	c-26.5,0-48-21.5-48-48V80c0-26.5,21.5-48,48-48h352C458.5,32,480,53.5,480,80z M253,149.3c0,14.5,8.4,22.9,22.9,22.9
	c14.7,0,23.1-8.4,23.1-22.9s-8.4-22.3-23.1-22.3C261.4,127,253,134.8,253,149.3z M231.2,195h-49.6c-25-6.6-81.6-4.9-81.6,46.8
	c0,18.8,9.4,32,21.8,38.1c-15.7,14.4-23.1,21.1-23.1,30.7c0,6.9,2.8,13.2,11.2,16.8c-8.9,8.4-14,14.5-14,25.9
	c0,20.1,17.5,31.7,63.5,31.7c44.2,0,69.9-16.5,69.9-45.7c0-36.7-28.2-35.3-94.8-39.4l8.4-13.4c17,4.7,74.2,6.2,74.2-42.4
	c0-11.7-4.8-19.8-9.4-25.7l23.4-1.8L231.2,195z M315.5,304.8l-13-1.8c-3.8-0.5-4.1-1-4.1-5.1V192.5h-52.6l-2.8,20.6
	c15.8,5.6,17,4.9,17,10.2V298c0,5.6-0.3,4.6-17,6.9v20.1h72.4L315.5,304.8z M416,315l-6.9-22.4c-40.9,15.4-37.9-12.4-37.9-16.7
	v-60.7h37.9v-25.4h-35.8c-2.9,0-2,2.5-2-38.6h-24.2c-2.8,27.7-11.7,38.9-34,41.4v22.6c20.5,0,19.8-0.9,19.8,2.5v66.6
	c0,28.7,11.4,40.9,41.7,40.9C389.1,325.2,405.1,320.4,416,315L416,315z"/>
</svg>
