<?xml version="1.0" encoding="utf-8"?>
<!-- Generator: Adobe Illustrator 24.0.0, SVG Export Plug-In . SVG Version: 6.00 Build 0)  -->
<svg version="1.1" id="Layer_1" xmlns="http://www.w3.org/2000/svg" xmlns:xlink="http://www.w3.org/1999/xlink" x="0px" y="0px"
	 viewBox="0 0 512 512" style="enable-background:new 0 0 512 512;" xml:space="preserve">
<path d="M471.5,236.1L276,40.5c-11.3-11.3-29.5-11.3-40.8,0l-40.7,40.6l51.5,51.5c27.1-9.1,52.7,16.8,43.4,43.7l49.7,49.7
	c34.2-11.8,61.2,31,35.5,56.7c-26.5,26.5-70.2-2.9-56-37.3L272.2,199v121.9c25.3,12.5,22.3,41.9,9.1,55c-13.4,13.4-35.1,13.4-48.5,0
	c-17.6-17.6-11.1-46.9,11.3-56v-123c-20.8-8.5-24.6-30.7-18.6-45L174.6,101L40.5,235.1c-11.3,11.3-11.3,29.5,0,40.8l195.6,195.6
	c11.3,11.3,29.5,11.3,40.8,0l194.7-194.7C482.8,265.6,482.8,247.3,471.5,236.1L471.5,236.1z"/>
</svg>
