<?xml version="1.0" encoding="utf-8"?>
<!-- Generator: Adobe Illustrator 24.0.0, SVG Export Plug-In . SVG Version: 6.00 Build 0)  -->
<svg version="1.1" id="Layer_1" xmlns="http://www.w3.org/2000/svg" xmlns:xlink="http://www.w3.org/1999/xlink" x="0px" y="0px"
	 viewBox="0 0 512 512" style="enable-background:new 0 0 512 512;" xml:space="preserve">
<path d="M432,32H80c-26.5,0-48,21.5-48,48v352c0,26.5,21.5,48,48,48h352c26.5,0,48-21.5,48-48V80C480,53.5,458.5,32,432,32z
	 M309.3,415.7c-8.4,1.5-11.5-3.7-11.5-8c0-5.4,0.2-33,0.2-55.3c0-15.6-5.2-25.5-11.3-30.7c37-4.1,76-9.2,76-73.1
	c0-18.2-6.5-27.3-17.1-39c1.7-4.3,7.4-22-1.7-45c-13.9-4.3-45.7,17.9-45.7,17.9c-13.2-3.7-27.5-5.6-41.6-5.6s-28.4,1.9-41.6,5.6
	c0,0-31.8-22.2-45.7-17.9c-9.1,22.9-3.5,40.6-1.7,45c-10.6,11.7-15.6,20.8-15.6,39c0,63.6,37.3,69,74.3,73.1
	c-4.8,4.3-9.1,11.7-10.6,22.3c-9.5,4.3-33.8,11.7-48.3-13.9c-9.1-15.8-25.5-17.1-25.5-17.1c-16.2-0.2-1.1,10.2-1.1,10.2
	c10.8,5,18.4,24.2,18.4,24.2c9.7,29.7,56.1,19.7,56.1,19.7c0,13.9,0.2,36.5,0.2,40.6c0,4.3-3,9.5-11.5,8
	c-66-22.1-112.2-84.9-112.2-158.3c0-91.8,70.2-161.5,162-161.5S420,165.6,420,257.4C420.1,330.8,375.3,393.7,309.3,415.7z
	 M211.2,354.6c-1.9,0.4-3.7-0.4-3.9-1.7c-0.2-1.5,1.1-2.8,3-3.2c1.9-0.2,3.7,0.6,3.9,1.9C214.5,352.9,213.2,354.2,211.2,354.6
	L211.2,354.6z M201.7,353.7c0,1.3-1.5,2.4-3.5,2.4c-2.2,0.2-3.7-0.9-3.7-2.4c0-1.3,1.5-2.4,3.5-2.4
	C199.9,351.1,201.7,352.2,201.7,353.7z M188,352.6c-0.4,1.3-2.4,1.9-4.1,1.3c-1.9-0.4-3.2-1.9-2.8-3.2c0.4-1.3,2.4-1.9,4.1-1.5
	C187.2,349.8,188.5,351.3,188,352.6L188,352.6z M175.7,347.2c-0.9,1.1-2.8,0.9-4.3-0.6c-1.5-1.3-1.9-3.2-0.9-4.1
	c0.9-1.1,2.8-0.9,4.3,0.6C176.1,344.4,176.6,346.4,175.7,347.2z M166.6,338.1c-0.9,0.6-2.6,0-3.7-1.5s-1.1-3.2,0-3.9
	c1.1-0.9,2.8-0.2,3.7,1.3C167.7,335.5,167.7,337.3,166.6,338.1z M160.1,328.4c-0.9,0.9-2.4,0.4-3.5-0.6c-1.1-1.3-1.3-2.8-0.4-3.5
	c0.9-0.9,2.4-0.4,3.5,0.6C160.8,326.2,161,327.7,160.1,328.4z M153.4,321c-0.4,0.9-1.7,1.1-2.8,0.4c-1.3-0.6-1.9-1.7-1.5-2.6
	c0.4-0.6,1.5-0.9,2.8-0.4C153.2,319.1,153.8,320.2,153.4,321z"/>
</svg>
