<?xml version="1.0" encoding="utf-8"?>
<!-- Generator: Adobe Illustrator 24.0.0, SVG Export Plug-In . SVG Version: 6.00 Build 0)  -->
<svg version="1.1" id="Layer_1" xmlns="http://www.w3.org/2000/svg" xmlns:xlink="http://www.w3.org/1999/xlink" x="0px" y="0px"
	 viewBox="0 0 512 512" style="enable-background:new 0 0 512 512;" xml:space="preserve">
<path d="M495.7,133.4c-2-5.4-8.3-8.2-13.6-5.9c-5.1,2.1-7.6,7.9-5.6,13c9.7,25.8,15,53.8,15,82.9c0,119.6-89.2,218.4-204.6,233.5
	V347c7-1.3,13.8-3.2,20.4-5.5V434c94.8-23,165.2-108.5,165.2-210.5c0-81.6-45.2-152.7-111.8-189.6c-5.1-2.8-11.6-0.8-14.1,4.4
	c-2.4,4.9-0.5,10.8,4.2,13.4c60.4,33.4,101.2,97.8,101.2,171.7c0,82.9-51.5,153.9-124.3,182.6v-82c12.6-4,22.1-15.7,22.1-29.8
	c0-11.6-6-21.7-15.4-27.1c7.4-70.7,39.6-52.1,39.6-74.6v-13.1c0-33.8-78.1-143.8-114.7-146.4c-2.2-0.2-4.4-0.2-6.8,0
	C216.1,35.8,138,145.8,138,179.6v13.2c0,22.5,32.3,3.8,39.6,74.6c-9.4,5.4-15.4,15.5-15.4,27.1c0,14,9.4,25.8,22,29.8v82
	c-72.8-28.6-124.3-99.6-124.3-182.6c0-73.9,40.9-138.2,101.2-171.7c4.8-2.7,6.6-8.5,4.2-13.4c-2.6-5.2-9-7.3-14.1-4.4
	C84.5,70.8,39.4,142,39.4,223.6c0,102,70.4,187.4,165.2,210.5v-92.4c6.8,2.2,13.4,4.1,20.4,5.5v110C109.7,442,20.4,343.2,20.4,223.6
	c0-29.2,5.3-57.2,15-82.9c2-5.2-0.5-10.8-5.6-13c-5.3-2.3-11.6,0.4-13.6,5.9C5.8,161.5,0,191.8,0,223.6
	c0,137.9,109,250.3,245.6,255.8V349.7c6,0.4,13.3,0.4,20.8,0v129.6C403,473.9,512,361.4,512,223.6
	C512,191.8,506.2,161.5,495.7,133.4z M318.1,273.3c11.6,0,21.1,9.3,21.1,21.1c0,11.6-9.4,21.1-21.1,21.1c-11.6,0-21.1-9.3-21.1-21.1
	C297.1,282.8,306.5,273.3,318.1,273.3z M193.9,315.4c-11.7,0-21.1-9.5-21.1-21.1s9.3-21.1,21.1-21.1c11.6,0,21.1,9.4,21.1,21.1
	C214.9,305.9,205.6,315.4,193.9,315.4z"/>
</svg>
