<?xml version="1.0" encoding="utf-8"?>
<!-- Generator: Adobe Illustrator 24.0.0, SVG Export Plug-In . SVG Version: 6.00 Build 0)  -->
<svg version="1.1" id="Layer_1" xmlns="http://www.w3.org/2000/svg" xmlns:xlink="http://www.w3.org/1999/xlink" x="0px" y="0px"
	 viewBox="0 0 512 512" style="enable-background:new 0 0 512 512;" xml:space="preserve">
<path d="M511.5,398.1c-6.7-16.3-25.4-24.1-41.8-17.3l-17.7,7.4l-31-81.5c38.3-28,51.8-80.2,27.6-122.2L379.4,64
	c-6.4-11.1-20.1-15.8-32-10.9L256,91l-91.4-37.9c-11.9-5-25.6-0.2-32,10.9L63.3,184.4c-24.2,42-10.7,94.2,27.6,122.2l-31,81.5
	l-17.7-7.4c-16.3-6.8-35,1-41.8,17.3c-1.4,3.3,0.2,7,3.4,8.4l129.8,53.9c3.3,1.4,7-0.2,8.3-3.4c6.7-16.3-1-35-17.3-41.8l-17.7-7.4
	l31.5-82.9c3.5,0.4,7,1,10.5,1c41.4,0,79.5-26.5,90.7-68.2l16.2-60.3l16.2,60.3c11.2,41.8,49.4,68.2,90.7,68.2c3.4,0,7-0.6,10.5-1
	l31.4,82.9l-17.7,7.4c-16.3,6.8-24.1,25.5-17.3,41.8c1.4,3.3,5.1,4.8,8.3,3.4l129.9-53.9C511.3,405,512.9,401.3,511.5,398.1
	L511.5,398.1z M220.7,180.9L131,143.7L160.2,93l75.6,31.4L220.7,180.9z M291.3,180.9l-15.1-56.6L351.8,93l29.2,50.7L291.3,180.9z"/>
</svg>
