<?xml version="1.0" encoding="utf-8"?>
<!-- Generator: Adobe Illustrator 24.0.0, SVG Export Plug-In . SVG Version: 6.00 Build 0)  -->
<svg version="1.1" id="Layer_1" xmlns="http://www.w3.org/2000/svg" xmlns:xlink="http://www.w3.org/1999/xlink" x="0px" y="0px"
	 viewBox="0 0 512 512" style="enable-background:new 0 0 512 512;" xml:space="preserve">
<path d="M510.3,277.7L470,116.1c-5.3-21.1-19.2-39.2-38.2-49.6C412.7,56.1,390,54,369.4,60.9l-13.6,4.5c-7.5,2.5-11.5,10.5-9,18
	l4.5,13.5c2.5,7.4,10.5,11.5,18,9L381,102c9.7-3.2,20.4-3.2,29.5,1.5c9.1,4.8,15.6,12.9,18.1,23l34.2,136.7
	c-19.7-6.1-44.3-11.1-72.2-11.1c-30.9,0-65.8,6.2-102.1,23.8h-65c-36.3-17.5-71.2-23.8-102.1-23.8c-27.9,0-52.5,5-72.2,11.1
	l34.2-136.7c2.5-10,9-18.2,18.1-22.9c9-4.7,19.8-4.8,29.5-1.5l11.7,3.9c7.4,2.5,15.5-1.5,18-9l4.5-13.5c2.5-7.4-1.5-15.5-9-18
	l-13.6-4.5C122,54,99.3,56.1,80.2,66.5c-19,10.5-33,28.5-38.2,49.6L1.7,277.7c-1.1,4.5-1.7,9.1-1.7,13.8v62.4
	c0,55.9,45.8,101.2,102.4,101.2h33c53.6,0,98.1-40.8,102.1-93.7l2.6-34.3h31.8l2.6,34.3c4,52.8,48.5,93.7,102.1,93.7h33
	c56.6,0,102.4-45.3,102.4-101.2v-62.4C512,286.8,511.4,282.2,510.3,277.7z M180.8,357.1c-1.8,23-21.7,41.1-45.4,41.1h-33
	c-25.1,0-45.5-19.9-45.5-44.3v-33.4C73,314.7,95.5,309,121.4,309c21.2,0,42,3.8,62.2,11.5L180.8,357.1L180.8,357.1z M455.1,353.9
	c0,24.5-20.4,44.3-45.5,44.3h-33c-23.7,0-43.6-18-45.4-41.1l-2.8-36.6c20.2-7.6,41-11.5,62.2-11.5c25.9,0,48.4,5.7,64.5,11.5
	L455.1,353.9L455.1,353.9z"/>
</svg>
