<?xml version="1.0" encoding="utf-8"?>
<!-- Generator: Adobe Illustrator 24.0.0, SVG Export Plug-In . SVG Version: 6.00 Build 0)  -->
<svg version="1.1" id="Layer_1" xmlns="http://www.w3.org/2000/svg" xmlns:xlink="http://www.w3.org/1999/xlink" x="0px" y="0px"
	 viewBox="0 0 512 512" style="enable-background:new 0 0 512 512;" xml:space="preserve">
<path d="M439.1,211.2c-3.5-1.4-11.6-3.8-15.4-3.8c-37.1,0-62.2,16.8-93.5,34.5l-0.9-0.9c7-47.3,23.5-91.9,23.5-140.4
	C352.8,29.1,314.6,0,244.4,0C129.3,0,71,113.7,71,198.4C71,286.3,122.3,335,209.6,335c12,0,11-1,11,3.8
	c-16.9,128.9-90.8,133.1-90.8,94.6c0-39.2,45-58.6,45.5-61c-0.3-12.2-47-27.6-58.9-27.6C82.5,344.9,64,396,64,424.1
	C64,476,96.8,512,149.5,512c77.4,0,134-77.8,151.4-145.4c15.1-60.5,11.2-63.3,19.7-67.6c32.2-16.2,57.5-27,93.8-27
	c17.8,0,30.5,3.7,58.9,8.4c2.9,0,6.7-2.9,6.7-5.8C480,266.6,446.6,214.1,439.1,211.2L439.1,211.2z M263.8,126.8
	c-9.3,44.7-18.6,89.6-27.8,134.3c-2.3,10.2-13.3,7.8-22,7.8c-38.3,0-49-41.8-49-73.1c0-47,18-109.3,61.8-133.4
	c7-4.1,14.8-6.7,22.6-6.7c18.6,0,20,13.3,20,28.7C269.3,98.7,266.7,112.9,263.8,126.8z"/>
</svg>
