<?xml version="1.0" encoding="utf-8"?>
<!-- Generator: Adobe Illustrator 24.0.0, SVG Export Plug-In . SVG Version: 6.00 Build 0)  -->
<svg version="1.1" id="Layer_1" xmlns="http://www.w3.org/2000/svg" xmlns:xlink="http://www.w3.org/1999/xlink" x="0px" y="0px"
	 viewBox="0 0 512 512" style="enable-background:new 0 0 512 512;" xml:space="preserve">
<path d="M284.8,148.6c0,8.8-1.6,17.7-3.4,26.4c-5.8,27.8-11.6,55.8-17.3,83.6c-1.4,6.3-8.3,4.9-13.7,4.9c-23.8,0-30.5-26-30.5-45.5
	c0-29.3,11.2-68.1,38.5-83.1c4.3-2.5,9.2-4.2,14.1-4.2C283.9,130.7,284.8,139,284.8,148.6L284.8,148.6z M480,80v352
	c0,26.5-21.5,48-48,48H80c-26.5,0-48-21.5-48-48V80c0-26.5,21.5-48,48-48h352C458.5,32,480,53.5,480,80z M416,267
	c0-5.1-20.8-37.7-25.5-39.5c-2.2-0.9-7.2-2.3-9.6-2.3c-23.1,0-38.7,10.5-58.2,21.5l-0.5-0.5c4.3-29.4,14.6-57.2,14.6-87.4
	c0-44.6-23.8-62.7-67.5-62.7c-71.7,0-108,70.8-108,123.5c0,54.7,32,85,86.3,85c7.5,0,6.9-0.6,6.9,2.3C244,387.2,198,389.8,198,365.8
	c0-24.4,28-36.5,28.3-38c-0.2-7.6-29.3-17.2-36.7-17.2c-21.1,0-32.7,33-32.7,50.6c0,32.3,20.4,54.7,53.3,54.7
	c48.2,0,83.4-49.7,94.3-91.7c9.4-37.7,7-39.4,12.3-42.1c20-10.1,35.8-16.8,58.4-16.8c11.1,0,19,2.3,36.7,5.2
	C413.7,270.6,416,268.8,416,267L416,267z"/>
</svg>
