<?xml version="1.0" encoding="utf-8"?>
<!-- Generator: Adobe Illustrator 24.0.0, SVG Export Plug-In . SVG Version: 6.00 Build 0)  -->
<svg version="1.1" id="Layer_1" xmlns="http://www.w3.org/2000/svg" xmlns:xlink="http://www.w3.org/1999/xlink" x="0px" y="0px"
	 viewBox="0 0 512 512" style="enable-background:new 0 0 512 512;" xml:space="preserve">
<path d="M344.5,160C330,70.7,295.8,8,256,8s-74,62.7-88.5,152H344.5z M160,256c0,22.2,1.2,43.5,3.3,64h185.3
	c2.1-20.5,3.3-41.8,3.3-64s-1.2-43.5-3.3-64H163.3C161.2,212.5,160,233.8,160,256z M484.7,160c-28.6-67.9-86.5-120.4-158-141.6
	c24.4,33.8,41.2,84.7,50,141.6H484.7z M185.2,18.4C113.8,39.6,55.8,92.1,27.3,160h108C144,103.1,160.8,52.2,185.2,18.4L185.2,18.4z
	 M495.4,192H380.7c2.1,21,3.3,42.5,3.3,64s-1.2,43-3.3,64h114.6c5.5-20.5,8.6-41.8,8.6-64S500.8,212.5,495.4,192L495.4,192z
	 M128,256c0-21.5,1.2-43,3.3-64H16.6C11.2,212.5,8,233.8,8,256s3.2,43.5,8.6,64h114.6C129.2,299,128,277.5,128,256z M167.5,352
	c14.5,89.3,48.7,152,88.5,152s74-62.7,88.5-152H167.5z M326.8,493.6c71.4-21.2,129.4-73.7,158-141.6h-108
	C368,408.9,351.2,459.8,326.8,493.6z M27.3,352c28.6,67.9,86.5,120.4,158,141.6c-24.4-33.8-41.2-84.7-50-141.6
	C135.3,352,27.3,352,27.3,352z"/>
</svg>
