<?xml version="1.0" encoding="utf-8"?>
<!-- Generator: Adobe Illustrator 24.0.0, SVG Export Plug-In . SVG Version: 6.00 Build 0)  -->
<svg version="1.1" id="Layer_1" xmlns="http://www.w3.org/2000/svg" xmlns:xlink="http://www.w3.org/1999/xlink" x="0px" y="0px"
	 viewBox="0 0 512 512" style="enable-background:new 0 0 512 512;" xml:space="preserve">
<path d="M380,319.8h-13.2v34.7c-24.5,23.1-56.3,35.8-89.9,35.8c-73.2,0-132.4-60.2-132.4-134.4c0-74.1,59.2-134.4,132.4-134.4
	c35.3,0,68.6,14,93.6,39.4l62.3-63.3C391,55.3,335.7,32,276.7,32C154,32,56,132.6,56,256c0,122.5,97,224,220.7,224
	c63.2,0,124.5-26.2,171-82.5C445.7,369.9,434.3,319.8,380,319.8z M367.9,207.3H261.6v89H380c33.5,0,60.5,15.1,76,41.8v-30.6
	C456,242.3,415.6,207.3,367.9,207.3L367.9,207.3z"/>
</svg>
