<?xml version="1.0" encoding="utf-8"?>
<!-- Generator: Adobe Illustrator 24.0.0, SVG Export Plug-In . SVG Version: 6.00 Build 0)  -->
<svg version="1.1" id="Layer_1" xmlns="http://www.w3.org/2000/svg" xmlns:xlink="http://www.w3.org/1999/xlink" x="0px" y="0px"
	 viewBox="0 0 512 512" style="enable-background:new 0 0 512 512;" xml:space="preserve">
<path d="M106.6,403.3h2.8c12.7,0,25.5,0,38.2,0.1c1.6,0,3.1-0.4,3.6,2.1c7.1,34.9,30,54.6,62.9,63.9c26.9,7.6,54.1,7.8,81.3,1.8
	c33.8-7.4,56-28.3,68-60.4c8-21.5,10.7-43.8,11-66.5c0.1-5.8,0.3-47-0.2-52.8l-0.9-0.3c-0.8,1.5-1.7,2.9-2.5,4.4
	c-22.1,43.1-61.3,67.4-105.4,69.1c-103,4-169.4-57-172-176.2c-0.5-23.7,1.8-46.9,8.3-69.7C122.3,47.7,176.3,0.6,255.6,0
	c61.3-0.4,101.5,38.7,116.2,70.3c0.5,1.1,1.3,2.3,2.4,1.9V10.6h44.3c0,280.3,0.1,332.2,0.1,332.2c-0.1,78.5-26.7,143.7-103,162.2
	c-69.5,16.9-159,4.8-196-57.2C111.6,434.3,107.8,419.5,106.6,403.3L106.6,403.3z M252.9,36.5c-52.5-0.5-108.5,40.7-115,133.8
	c-4.1,59,14.8,122.2,71.5,148.6c27.6,12.9,74.3,15,108.3-8.7c47.6-33.2,62.7-97,54.8-154C362.8,85.1,324.7,36.2,252.9,36.5
	L252.9,36.5z"/>
</svg>
