<?xml version="1.0" encoding="utf-8"?>
<!-- Generator: Adobe Illustrator 24.0.0, SVG Export Plug-In . SVG Version: 6.00 Build 0)  -->
<svg version="1.1" id="Layer_1" xmlns="http://www.w3.org/2000/svg" xmlns:xlink="http://www.w3.org/1999/xlink" x="0px" y="0px"
	 viewBox="0 0 512 512" style="enable-background:new 0 0 512 512;" xml:space="preserve">
<path d="M84.6,223.2v33h45.7c-1.9,10.6-8,20-16.9,26.1c-7.6,5.2-17.4,8.2-28.8,8.2c-22.1,0-40.7-15.1-47.4-35.4
	c-3.5-10.7-3.5-22.1,0-32.8l0,0c6.7-20.4,25.4-35.5,47.4-35.5c12.1-0.2,23.8,4.4,32.4,12.9l24.2-24.5
	c-15.3-14.5-35.6-22.5-56.6-22.3c-32.1,0.1-61.4,18.5-75.5,47.3C-3,224.4-3,252.9,9.1,277.2v0.1c14.1,28.8,43.4,47.1,75.5,47.2
	c22.8,0,42-7.6,56-20.7c16-14.9,25.1-36.9,25.1-63.1c0-5.8-0.5-11.7-1.4-17.4H84.6z M396.1,220c-8.1-7.5-19.1-11.3-33.1-11.3
	c-18,0-31.5,6.7-40.4,19.9l16.7,10.6c6.1-9.1,14.4-13.6,25-13.6c6.7,0,13.2,2.5,18.2,7c4.9,4.3,7.7,10.5,7.8,17v4.4
	c-7.3-4.1-16.4-6.2-27.7-6.2c-13.2,0-23.7,3.1-31.6,9.4c-7.9,6.3-11.9,14.6-11.9,25.2c-0.2,9.6,3.8,18.8,11.2,25
	c7.4,6.7,16.8,10,27.8,10c13,0,23.4-5.8,31.2-17.5h0.8v14.2h18.1v-63C408.2,238,404.2,227.5,396.1,220z M380.7,291.4
	c-5.6,5.7-13.3,8.9-21.3,8.9c-5.3,0.1-10.5-1.7-14.7-5c-3.9-2.9-6.2-7.6-6.2-12.5c0-5.6,2.6-10.2,7.6-13.9
	c5.1-3.7,11.6-5.6,19.3-5.6c10.5-0.1,18.8,2.3,24.6,7C390.1,278.5,386.9,285.5,380.7,291.4z M305.8,177.8
	c-8.6-8.6-20.3-13.3-32.4-13h-50.1v149.4h18.9v-60.5h31.2c12.8,0,23.6-4.3,32.4-12.7c0.7-0.7,1.4-1.4,2.1-2.1
	C323.9,221.3,323,194.2,305.8,177.8L305.8,177.8z M292.5,227.6c-4.8,5.1-11.6,8-18.7,7.7h-31.7v-52.2h31.7c6.8,0,13.3,2.6,18.1,7.4
	C302.1,200.7,302.4,217.1,292.5,227.6L292.5,227.6z M491.4,212l-29.2,73.4h-0.4L431.9,212h-20.6l41.4,95.6l-23.5,51.5h19.5L512,212
	H491.4z"/>
</svg>
