<?xml version="1.0" encoding="utf-8"?>
<!-- Generator: Adobe Illustrator 24.0.0, SVG Export Plug-In . SVG Version: 6.00 Build 0)  -->
<svg version="1.1" id="Layer_1" xmlns="http://www.w3.org/2000/svg" xmlns:xlink="http://www.w3.org/1999/xlink" x="0px" y="0px"
	 viewBox="0 0 512 512" style="enable-background:new 0 0 512 512;" xml:space="preserve">
<path d="M311.1,233.1c1.5,8.1,2.6,16.2,2.6,26.7c0,91.5-61.3,156.3-153.7,156.3C71.6,416,0,344.4,0,256S71.6,96,160,96
	c43.3,0,79.3,15.8,107.2,41.9l-43.4,41.7c-11.8-11.3-32.5-24.7-63.8-24.7c-54.6,0-99.1,45.2-99.1,101.1s44.5,101.1,99.1,101.1
	c63.3,0,87.1-45.6,90.8-69H160v-55H311.1L311.1,233.1z M465.6,238.4V192h-46.7v46.4h-46.4v46.7h46.4v46.4h46.7v-46.4H512v-46.7
	H465.6L465.6,238.4z"/>
</svg>
