<?xml version="1.0" encoding="utf-8"?>
<!-- Generator: Adobe Illustrator 24.0.0, SVG Export Plug-In . SVG Version: 6.00 Build 0)  -->
<svg version="1.1" id="Layer_1" xmlns="http://www.w3.org/2000/svg" xmlns:xlink="http://www.w3.org/1999/xlink" x="0px" y="0px"
	 viewBox="0 0 512 512" style="enable-background:new 0 0 512 512;" xml:space="preserve">
<path d="M432,32H80c-26.5,0-48,21.5-48,48v352c0,26.5,21.5,48,48,48h352c26.5,0,48-21.5,48-48V80C480,53.5,458.5,32,432,32z
	 M196,356c-55.3,0-100-44.7-100-100s44.7-100,100-100c27,0,49.5,9.8,67,26.2l-27.1,26.1c-7.4-7.1-20.3-15.4-39.8-15.4
	c-34.1,0-61.9,28.2-61.9,63.2c0,34.9,27.8,63.2,61.9,63.2c39.6,0,54.4-28.5,56.8-43.1H196v-34.4h94.4c1,5,1.6,10.1,1.6,16.6
	C292,315.5,253.7,356,196,356L196,356z M416,274.2h-29v29h-29.2v-29h-29V245h29v-29H387v29h29V274.2z"/>
</svg>
