<?xml version="1.0" encoding="utf-8"?>
<!-- Generator: Adobe Illustrator 24.0.0, SVG Export Plug-In . SVG Version: 6.00 Build 0)  -->
<svg version="1.1" id="Layer_1" xmlns="http://www.w3.org/2000/svg" xmlns:xlink="http://www.w3.org/1999/xlink" x="0px" y="0px"
	 viewBox="0 0 512 512" style="enable-background:new 0 0 512 512;" xml:space="preserve">
<path d="M497.9,173.7l-223.1-68.6c-12.2-3.8-25.3-3.8-37.4,0L14.1,173.7c-18.8,5.8-18.8,30.7,0,36.5L53,222.2
	c-8.6,10.6-13.8,23.4-14.3,37.5c-7.7,4.4-13.1,12.4-13.1,21.9c0,8.6,4.6,15.9,11.1,20.5L16.3,394c-1.8,8,4.3,15.6,12.5,15.6h44.9
	c8.2,0,14.2-7.6,12.5-15.6l-20.5-91.9c6.6-4.6,11.1-11.8,11.1-20.5c0-9.3-5.2-17-12.6-21.5c0.6-12,6.7-22.6,16.6-29.4l156.5,48.1
	c7.3,2.2,21.1,5,37.4,0L498,210.2C516.8,204.5,516.8,179.5,497.9,173.7L497.9,173.7z M282.3,303.3c-22.8,7-42.2,3.1-52.5,0
	l-116-35.6l-11.4,90.7c0,28.3,68.8,51.2,153.6,51.2s153.6-22.9,153.6-51.2l-11.4-90.8L282.3,303.3z"/>
</svg>
