<?xml version="1.0" encoding="utf-8"?>
<!-- Generator: Adobe Illustrator 24.0.0, SVG Export Plug-In . SVG Version: 6.00 Build 0)  -->
<svg version="1.1" id="Layer_1" xmlns="http://www.w3.org/2000/svg" xmlns:xlink="http://www.w3.org/1999/xlink" x="0px" y="0px"
	 viewBox="0 0 512 512" style="enable-background:new 0 0 512 512;" xml:space="preserve">
<path d="M256,8C119.1,8,8,119.1,8,256s111.1,248,248,248s248-111.1,248-248S392.9,8,256,8z M370.6,234.4l-113,152.7L144.9,234.4
	c-8.7-11.9-19.1-50.4,13.6-72c28.1-18.1,54.6-4.2,68.5,11.9c15.9,17.9,46.6,16.9,61.7,0c13.9-16.1,40.4-30,68.1-11.9
	C389.7,184,379.4,222.4,370.6,234.4L370.6,234.4z"/>
</svg>
