<?xml version="1.0" encoding="utf-8"?>
<!-- Generator: Adobe Illustrator 24.0.0, SVG Export Plug-In . SVG Version: 6.00 Build 0)  -->
<svg version="1.1" id="Layer_1" xmlns="http://www.w3.org/2000/svg" xmlns:xlink="http://www.w3.org/1999/xlink" x="0px" y="0px"
	 viewBox="0 0 512 512" style="enable-background:new 0 0 512 512;" xml:space="preserve">
<path d="M87.2,107.7l175.6,68.1L87.3,243.8c-18.4,6-27.9,24.4-21.2,41l12.1,30.1c6.7,16.6,27,25.2,45.4,19.1L425,214.2
	c13.8-4.5,23-16.6,23-30.2v-16c0-13.6-9.2-25.6-23-30.2l-301.7-120c-18.3-6-38.5,2.5-45.2,19.1l-12,29.9
	C59.5,83.4,68.9,101.7,87.2,107.7z M456,400H56c-13.3,0-24,10.7-24,24v48c0,13.3,10.8,24,24,24h400c13.3,0,24-10.8,24-24v-48
	C480,410.7,469.3,400,456,400z"/>
</svg>
