<?xml version="1.0" encoding="utf-8"?>
<!-- Generator: Adobe Illustrator 24.0.0, SVG Export Plug-In . SVG Version: 6.00 Build 0)  -->
<svg version="1.1" id="Layer_1" xmlns="http://www.w3.org/2000/svg" xmlns:xlink="http://www.w3.org/1999/xlink" x="0px" y="0px"
	 viewBox="0 0 512 512" style="enable-background:new 0 0 512 512;" xml:space="preserve">
<path d="M256,8C119,8,8,119,8,256s111,248,248,248s248-111,248-248S393,8,256,8z M256,456c-110.3,0-200-89.7-200-200
	S145.7,56,256,56s200,89.7,200,200S366.3,456,256,456z M176,240c17.7,0,32-14.3,32-32s-14.3-32-32-32s-32,14.3-32,32
	S158.3,240,176,240z M336,240c17.7,0,32-14.3,32-32s-14.3-32-32-32s-32,14.3-32,32S318.3,240,336,240z M352,256H160
	c-26.5,0-48,21.5-48,48v32c0,26.5,21.5,48,48,48h192c26.5,0,48-21.5,48-48v-32C400,277.5,378.5,256,352,256z M184,352h-24
	c-8.8,0-16-7.2-16-16v-8h40V352z M184,312h-40v-8c0-8.8,7.2-16,16-16h24V312z M248,352h-48v-24h48V352z M248,312h-48v-24h48V312z
	 M312,352h-48v-24h48V352z M312,312h-48v-24h48V312z M368,336c0,8.8-7.2,16-16,16h-24v-24h40V336z M368,312h-40v-24h24
	c8.8,0,16,7.2,16,16V312z"/>
</svg>
