<?xml version="1.0" encoding="utf-8"?>
<!-- Generator: Adobe Illustrator 24.0.0, SVG Export Plug-In . SVG Version: 6.00 Build 0)  -->
<svg version="1.1" id="Layer_1" xmlns="http://www.w3.org/2000/svg" xmlns:xlink="http://www.w3.org/1999/xlink" x="0px" y="0px"
	 viewBox="0 0 512 512" style="enable-background:new 0 0 512 512;" xml:space="preserve">
<path d="M256,8C119,8,8,119,8,256s111,248,248,248s248-111,248-248S393,8,256,8z M152,400h-8c-17.7,0-32-14.3-32-32v-8h40V400z
	 M152,344h-40v-8c0-17.7,14.3-32,32-32h8V344z M144,208c0-17.7,14.3-32,32-32s32,14.3,32,32s-14.3,32-32,32S144,225.7,144,208z
	 M216,400h-48v-40h48V400z M216,344h-48v-40h48V344z M280,400h-48v-40h48V400z M280,344h-48v-40h48V344z M344,400h-48v-40h48V400z
	 M344,344h-48v-40h48V344z M336,240c-17.7,0-32-14.3-32-32s14.3-32,32-32s32,14.3,32,32S353.7,240,336,240z M400,368
	c0,17.7-14.3,32-32,32h-8v-40h40V368z M400,344h-40v-40h8c17.7,0,32,14.3,32,32V344z"/>
</svg>
