<?xml version="1.0" encoding="utf-8"?>
<!-- Generator: Adobe Illustrator 24.0.0, SVG Export Plug-In . SVG Version: 6.00 Build 0)  -->
<svg version="1.1" id="Layer_1" xmlns="http://www.w3.org/2000/svg" xmlns:xlink="http://www.w3.org/1999/xlink" x="0px" y="0px"
	 viewBox="0 0 512 512" style="enable-background:new 0 0 512 512;" xml:space="preserve">
<path d="M336,180c-25.7,0-55.9,16.9-59.9,42.1c-1.8,11.2,11.5,18.2,19.8,10.8l9.5-8.5c14.8-13.2,46.2-13.2,61,0l9.5,8.5
	c8.5,7.4,21.6,0.3,19.8-10.8C391.9,196.9,361.7,180,336,180z M176,240c17.7,0,32-14.3,32-32s-14.3-32-32-32s-32,14.3-32,32
	S158.3,240,176,240z M361.5,304.6c-25.9,8.3-64.4,13.1-105.6,13.1s-79.6-4.8-105.6-13.1c-9.9-3.1-19.4,5.4-17.7,15.3
	c7.9,47.1,71.3,80,123.3,80s115.3-32.9,123.3-80C380.9,310.1,371.6,301.5,361.5,304.6L361.5,304.6z M256,8C119,8,8,119,8,256
	s111,248,248,248s248-111,248-248S393,8,256,8z M256,456c-110.3,0-200-89.7-200-200S145.7,56,256,56s200,89.7,200,200
	S366.3,456,256,456z"/>
</svg>
