<?xml version="1.0" encoding="utf-8"?>
<!-- Generator: Adobe Illustrator 24.0.0, SVG Export Plug-In . SVG Version: 6.00 Build 0)  -->
<svg version="1.1" id="Layer_1" xmlns="http://www.w3.org/2000/svg" xmlns:xlink="http://www.w3.org/1999/xlink" x="0px" y="0px"
	 viewBox="0 0 512 512" style="enable-background:new 0 0 512 512;" xml:space="preserve">
<path d="M256,8C119,8,8,119,8,256s111,248,248,248s248-111,248-248S393,8,256,8z M98.4,183.6c6.7-17.6,26.7-26.7,44.9-21.9l7.1,1.9
	l2-7.1c5-18.1,22.8-30.9,41.5-27.9c21.4,3.4,34.4,24.2,28.8,44.5L203.3,243c-1.2,4.5-5.9,7.2-10.5,6l-70.2-18.2
	C102.2,225.4,90.7,203.8,98.4,183.6z M256,432c-60.6,0-134.5-38.3-143.8-93.3c-2-11.8,9.2-21.5,20.7-17.9
	C163.1,330.5,208,336,256,336s92.9-5.5,123.1-15.2c11.4-3.6,22.6,6.1,20.7,17.9C390.5,393.7,316.6,432,256,432L256,432z
	 M389.4,230.7l-70.2,18.2c-4.5,1.2-9.2-1.5-10.5-6L289.3,173c-5.6-20.3,7.4-41.1,28.8-44.5c18.6-3,36.4,9.8,41.5,27.9l2,7.1l7.1-1.9
	c18.2-4.7,38.2,4.3,44.9,21.9C421.3,203.8,409.8,225.4,389.4,230.7L389.4,230.7z"/>
</svg>
