<?xml version="1.0" encoding="utf-8"?>
<!-- Generator: Adobe Illustrator 24.0.0, SVG Export Plug-In . SVG Version: 6.00 Build 0)  -->
<svg version="1.1" id="Layer_1" xmlns="http://www.w3.org/2000/svg" xmlns:xlink="http://www.w3.org/1999/xlink" x="0px" y="0px"
	 viewBox="0 0 512 512" style="enable-background:new 0 0 512 512;" xml:space="preserve">
<path d="M256,8C119,8,8,119,8,256s111,248,248,248s248-111,248-248S393,8,256,8z M256,456c-110.3,0-200-89.7-200-200
	S145.7,56,256,56s200,89.7,200,200S366.3,456,256,456z M361.6,304.6c-25.9,8.3-64.4,13.1-105.6,13.1s-79.6-4.8-105.6-13.1
	c-9.8-3.1-19.4,5.3-17.7,15.3c7.9,47.2,71.3,80,123.3,80s115.3-32.9,123.3-80C380.9,310.1,371.6,301.5,361.6,304.6L361.6,304.6z
	 M133.7,247.1c-1,6.2,5.4,11,11,7.9l31.3-16.3l31.3,16.3c5.6,3.1,12-1.7,11-7.9l-6-34.9l25.4-24.6c4.5-4.5,1.9-12.2-4.3-13.2
	l-34.9-5L183,137.8c-2.9-5.8-11-5.8-13.9,0l-15.5,31.6l-34.9,5c-6.2,0.9-8.9,8.6-4.3,13.2l25.4,24.6
	C139.8,212.2,133.7,247.1,133.7,247.1z M393.4,174.4l-34.9-5L343,137.8c-2.9-5.8-11-5.8-13.9,0l-15.5,31.6l-34.9,5
	c-6.2,0.9-8.9,8.6-4.3,13.2l25.4,24.6l-6,34.9c-1,6.2,5.4,11,11,7.9l31.3-16.3l31.3,16.3c5.6,3.1,12-1.7,11-7.9l-6-34.9l25.4-24.6
	C402.3,183,399.6,175.4,393.4,174.4z"/>
</svg>
