<?xml version="1.0" encoding="utf-8"?>
<!-- Generator: Adobe Illustrator 24.0.0, SVG Export Plug-In . SVG Version: 6.00 Build 0)  -->
<svg version="1.1" id="Layer_1" xmlns="http://www.w3.org/2000/svg" xmlns:xlink="http://www.w3.org/1999/xlink" x="0px" y="0px"
	 viewBox="0 0 512 512" style="enable-background:new 0 0 512 512;" xml:space="preserve">
<path d="M256,8C119,8,8,119,8,256s111,248,248,248s248-111,248-248S393,8,256,8z M102.6,168.9l34.9-5l15.5-31.6
	c2.9-5.8,11-5.8,13.9,0l15.5,31.6l34.9,5c6.2,1,8.9,8.6,4.3,13.2l-25.4,24.6l6,34.9c1,6.2-5.3,11-11,7.9L160,233.3l-31.3,16.3
	c-5.7,3.1-12-1.7-11-7.9l6-34.9l-25.4-24.6C93.7,177.5,96.4,169.9,102.6,168.9L102.6,168.9z M256,432c-60.6,0-134.5-38.3-143.8-93.3
	c-2-11.8,9.3-21.5,20.7-17.9C163.1,330.5,208,336,256,336s92.9-5.5,123.1-15.2c11.5-3.7,22.6,6.1,20.7,17.9
	C390.5,393.7,316.6,432,256,432L256,432z M413.7,182.1l-25.4,24.6l6,34.9c1,6.2-5.3,11-11,7.9L352,233.3l-31.3,16.3
	c-5.7,3.1-12-1.7-11-7.9l6-34.9l-25.4-24.6c-4.5-4.6-1.9-12.2,4.3-13.2l34.9-5l15.5-31.6c2.9-5.8,11-5.8,13.9,0l15.5,31.6l34.9,5
	C415.6,169.9,418.3,177.5,413.7,182.1L413.7,182.1z"/>
</svg>
