<?xml version="1.0" encoding="utf-8"?>
<!-- Generator: Adobe Illustrator 24.0.0, SVG Export Plug-In . SVG Version: 6.00 Build 0)  -->
<svg version="1.1" id="Layer_1" xmlns="http://www.w3.org/2000/svg" xmlns:xlink="http://www.w3.org/1999/xlink" x="0px" y="0px"
	 viewBox="0 0 512 512" style="enable-background:new 0 0 512 512;" xml:space="preserve">
<path d="M93.7,256.1c-20.6,3-67.2,11-80.7,24.5c-17.5,17.5-17.2,46.3,0.7,64.2c17.9,17.9,46.6,18.2,64.2,0.7
	c13.5-13.5,21.5-60.1,24.5-80.7C103,259.7,98.7,255.4,93.7,256.1z M499.1,280.6C485.5,267,439,259,418.3,256.1
	c-5-0.7-9.4,3.6-8.6,8.6c3,20.6,11,67.2,24.5,80.7c17.5,17.5,46.3,17.2,64.2-0.7C516.3,326.9,516.6,298.1,499.1,280.6L499.1,280.6z
	 M397.8,329.9C371.1,381.1,317.5,416,256,416s-115.1-35-141.8-86.1c-10,29.9-20.2,35.1-22.6,37.2c35.7,52.6,96,87.3,164.4,87.3
	s128.7-34.6,164.4-87.3C417.9,365,407.7,359.8,397.8,329.9L397.8,329.9z M98.1,230.8C110.3,154.6,176.4,96,256,96
	s145.7,58.6,157.9,134.8c1.7-0.2,4.2-1.9,39.6,5.6C443.5,136,359,57.6,256,57.6S68.5,136,58.5,236.3
	C94.1,228.8,96.2,230.6,98.1,230.8z M256,371.2c41.5,0,92.2-26.3,98.6-64c1.4-7.9-6.2-14.8-14.2-12.2c-20.7,6.6-51.5,10.5-84.5,10.5
	s-63.7-3.8-84.5-10.5c-7.8-2.5-15.5,4.2-14.2,12.2C163.8,344.9,214.5,371.2,256,371.2L256,371.2z M360.3,236.6
	c2.9-0.9,4.8-3.6,4.6-6.6c-2.6-33.7-25.8-57.1-44.8-57.1s-42.2,23.4-44.8,57.1c-0.2,3,1.7,5.8,4.6,6.6c2.8,0.9,5.9-0.4,7.4-3
	l7.6-13.6c6.2-11,15.4-17.3,25.2-17.3s19,6.3,25.2,17.3l7.6,13.6C354.5,236.5,357.8,237.3,360.3,236.6z M192,202.7
	c9.8,0,19,6.3,25.2,17.3l7.6,13.6c1.7,3,5,3.8,7.4,3c2.9-0.9,4.8-3.6,4.6-6.6c-2.6-33.7-25.8-57.1-44.8-57.1s-42.2,23.4-44.8,57.1
	c-0.2,3,1.7,5.8,4.6,6.6c2.8,0.9,5.9-0.4,7.4-3l7.6-13.6C173,209,182.2,202.7,192,202.7z"/>
</svg>
