<?xml version="1.0" encoding="utf-8"?>
<!-- Generator: Adobe Illustrator 24.0.0, SVG Export Plug-In . SVG Version: 6.00 Build 0)  -->
<svg version="1.1" id="Layer_1" xmlns="http://www.w3.org/2000/svg" xmlns:xlink="http://www.w3.org/1999/xlink" x="0px" y="0px"
	 viewBox="0 0 512 512" style="enable-background:new 0 0 512 512;" xml:space="preserve">
<path d="M8,256c0,137,111,248,248,248s248-111,248-248S393,8,256,8S8,119,8,256z M208,208c0,17.7-14.3,32-32,32s-32-14.3-32-32
	s14.3-32,32-32S208,190.3,208,208z M376,233l-9.5-8.5c-14.8-13.2-46.2-13.2-61,0L296,233c-8.3,7.4-21.6,0.4-19.8-10.8
	c4-25.2,34.2-42.1,59.9-42.1S392,197,396,222.2C397.6,233.2,384.5,240.4,376,233z M132.9,320.8C163.1,330.5,208,336,256,336
	s92.9-5.5,123.1-15.2c11.3-3.7,22.6,6,20.7,17.9c-9.2,55-83.2,93.3-143.8,93.3s-134.5-38.3-143.8-93.3
	C110.2,326.8,121.5,317.1,132.9,320.8L132.9,320.8z"/>
</svg>
