<?xml version="1.0" encoding="utf-8"?>
<!-- Generator: Adobe Illustrator 24.0.0, SVG Export Plug-In . SVG Version: 6.00 Build 0)  -->
<svg version="1.1" id="Layer_1" xmlns="http://www.w3.org/2000/svg" xmlns:xlink="http://www.w3.org/1999/xlink" x="0px" y="0px"
	 viewBox="0 0 512 512" style="enable-background:new 0 0 512 512;" xml:space="preserve">
<path d="M256,8C119,8,8,119,8,256s111,248,248,248s248-111,248-248S393,8,256,8z M256,456c-110.3,0-200-89.7-200-200
	S145.7,56,256,56s200,89.7,200,200S366.3,456,256,456z M361.6,304.6c-25.9,8.3-64.4,13.1-105.6,13.1s-79.6-4.8-105.6-13.1
	c-9.9-3.1-19.4,5.4-17.7,15.3c7.9,47.1,71.3,80,123.3,80s115.3-32.9,123.3-80C380.9,310.1,371.6,301.5,361.6,304.6L361.6,304.6z
	 M126.9,263.8c3.6,4.2,9.9,5.7,15.3,2.5l80-48c3.6-2.2,5.8-6.1,5.8-10.3s-2.2-8.1-5.8-10.3l-80-48c-5.1-3-11.4-1.9-15.3,2.5
	c-3.8,4.5-3.8,11-0.1,15.5l33.6,40.3l-33.6,40.3C123,252.8,123.1,259.4,126.9,263.8z M369.8,266.3c5.4,3.2,11.7,1.7,15.3-2.5
	c3.8-4.5,3.8-11,0.1-15.5L351.6,208l33.6-40.3c3.8-4.5,3.7-11-0.1-15.5c-3.8-4.4-10.2-5.4-15.3-2.5l-80,48
	c-3.6,2.2-5.8,6.1-5.8,10.3s2.2,8.1,5.8,10.3L369.8,266.3L369.8,266.3z"/>
</svg>
