<?xml version="1.0" encoding="utf-8"?>
<!-- Generator: Adobe Illustrator 24.0.0, SVG Export Plug-In . SVG Version: 6.00 Build 0)  -->
<svg version="1.1" id="Layer_1" xmlns="http://www.w3.org/2000/svg" xmlns:xlink="http://www.w3.org/1999/xlink" x="0px" y="0px"
	 viewBox="0 0 512 512" style="enable-background:new 0 0 512 512;" xml:space="preserve">
<path d="M256,8C119,8,8,119,8,256s111,248,248,248s248-111,248-248S393,8,256,8z M319.7,136.7c7.6-11.4,24.7-11.7,32.7,0
	c12.4,18.4,15.1,36.9,15.7,55.3c-0.5,18.4-3.3,36.9-15.7,55.3c-7.6,11.4-24.7,11.7-32.7,0c-12.4-18.4-15.1-36.9-15.7-55.3
	C304.5,173.6,307.3,155.1,319.7,136.7z M159.7,136.7c7.6-11.4,24.7-11.7,32.7,0c12.4,18.4,15.1,36.9,15.7,55.3
	c-0.5,18.4-3.3,36.9-15.7,55.3c-7.6,11.4-24.7,11.7-32.7,0c-12.4-18.4-15.1-36.9-15.7-55.3C144.5,173.6,147.3,155.1,159.7,136.7z
	 M256,432c-60.6,0-134.5-38.3-143.8-93.3c-2-11.8,9.3-21.6,20.7-17.9C163.1,330.5,208,336,256,336s92.9-5.5,123.1-15.2
	c11.4-3.7,22.6,6.1,20.7,17.9C390.5,393.7,316.6,432,256,432L256,432z"/>
</svg>
