<?xml version="1.0" encoding="utf-8"?>
<!-- Generator: Adobe Illustrator 24.0.0, SVG Export Plug-In . SVG Version: 6.00 Build 0)  -->
<svg version="1.1" id="Layer_1" xmlns="http://www.w3.org/2000/svg" xmlns:xlink="http://www.w3.org/1999/xlink" x="0px" y="0px"
	 viewBox="0 0 512 512" style="enable-background:new 0 0 512 512;" xml:space="preserve">
<path d="M301.1,374.6c-14.4-6.5-31.1,2.2-34.6,17.6l-1.8,7.8c-2.1,9.2-15.2,9.2-17.3,0l-1.8-7.8c-3.5-15.4-20.2-24.1-34.6-17.6
	c-0.9,0.4,0.3-0.2-18.9,9.4v63c0,35.2,28,64.5,63.1,64.9c35.7,0.5,64.9-28.4,64.9-64v-64C300.6,374.3,301.9,375,301.1,374.6z M256,8
	C119,8,8,119,8,256c0,106.3,67,196.7,161,232c-5.6-12.2-9-25.7-9-40v-45.5c-24.7-16.2-43.5-38.1-47.8-63.8
	c-2-11.8,9.2-21.5,20.7-17.9C163.1,330.5,208,336,256,336s92.9-5.5,123.1-15.2c11.4-3.7,22.6,6.1,20.7,17.9
	c-4.3,25.7-23.1,47.6-47.8,63.8V448c0,14.3-3.4,27.8-9,40c94-35.3,161-125.7,161-232C504,119,393,8,256,8z M222.2,218.3l-80,48
	c-11.5,6.8-24-7.6-15.4-18l33.6-40.3l-33.6-40.3c-8.6-10.3,3.8-24.9,15.4-18l80,48C229.9,202.4,229.9,213.6,222.2,218.3L222.2,218.3
	z M385.2,248.3c8.7,10.4-3.9,24.8-15.4,18l-80-48c-7.8-4.7-7.8-15.9,0-20.6l80-48c11.7-6.9,23.9,7.7,15.4,18L351.6,208L385.2,248.3z
	"/>
</svg>
