<?xml version="1.0" encoding="utf-8"?>
<!-- Generator: Adobe Illustrator 24.0.0, SVG Export Plug-In . SVG Version: 6.00 Build 0)  -->
<svg version="1.1" id="Layer_1" xmlns="http://www.w3.org/2000/svg" xmlns:xlink="http://www.w3.org/1999/xlink" x="0px" y="0px"
	 viewBox="0 0 512 512" style="enable-background:new 0 0 512 512;" xml:space="preserve">
<path d="M256,8C119,8,8,119,8,256s111,248,248,248s248-111,248-248S393,8,256,8z M289.8,197.7l80-48c11.6-6.9,24,7.7,15.4,18
	L351.6,208l33.6,40.3c8.7,10.4-3.9,24.8-15.4,18l-80-48C282.1,213.6,282.1,202.4,289.8,197.7L289.8,197.7z M126.8,167.7
	c-8.6-10.3,3.8-24.9,15.4-18l80,48c7.8,4.7,7.8,15.9,0,20.6l-80,48c-11.5,6.8-24-7.6-15.4-18l33.6-40.3L126.8,167.7L126.8,167.7z
	 M256,432c-60.6,0-134.5-38.3-143.8-93.3c-2-11.9,9.4-21.6,20.7-17.9C163.1,330.5,208,336,256,336s92.9-5.5,123.1-15.2
	c11.5-3.7,22.6,6.2,20.7,17.9C390.5,393.7,316.6,432,256,432L256,432z"/>
</svg>
