<?xml version="1.0" encoding="utf-8"?>
<!-- Generator: Adobe Illustrator 24.0.0, SVG Export Plug-In . SVG Version: 6.00 Build 0)  -->
<svg version="1.1" id="Layer_1" xmlns="http://www.w3.org/2000/svg" xmlns:xlink="http://www.w3.org/1999/xlink" x="0px" y="0px"
	 viewBox="0 0 512 512" style="enable-background:new 0 0 512 512;" xml:space="preserve">
<path d="M81.9,256.1c-18.1,2.6-58.8,9.6-70.6,21.4c-15.3,15.3-15,40.5,0.6,56.2c15.7,15.7,40.8,15.9,56.2,0.6
	c11.8-11.8,18.8-52.6,21.4-70.6C90.1,259.2,86.4,255.4,81.9,256.1z M500.6,277.5c-11.8-11.8-52.6-18.8-70.6-21.4
	c-4.4-0.6-8.2,3.1-7.6,7.6c2.6,18.1,9.6,58.8,21.4,70.6c15.4,15.4,40.5,15.1,56.2-0.6C515.7,318.1,516,292.8,500.6,277.5
	L500.6,277.5z M397.1,267.3c-3-21.3,15.3-39.6,36.6-36.6c7.1,1,13.4,2.2,19.4,3.3c-11-99.2-95-176.4-197.1-176.4
	S69.8,134.8,58.9,234c6-1.1,12.3-2.2,19.4-3.3c26.6-3.1,38.9,20.2,36.6,36.6c-9.4,65.8-23.9,80.3-28.6,85.1c-0.7,0.7-1.6,1.3-2.4,2
	c34.2,59.7,98.4,100,172.2,100s138-40.3,172.2-100.1c-0.8-0.7-1.7-1.2-2.4-2C421,347.6,406.6,333.1,397.1,267.3L397.1,267.3z
	 M320,172.8c19,0,42.2,23.4,44.8,57.1c0.6,6.9-8.6,9.6-11.9,3.6l-7.6-13.6c-6.2-11-15.4-17.3-25.2-17.3c-9.8,0-19,6.3-25.2,17.3
	l-7.6,13.6c-3.4,5.9-12.5,3.2-11.9-3.6C277.8,196.2,301,172.8,320,172.8z M192,172.8c19,0,42.2,23.4,44.8,57.1
	c0.6,6.9-8.6,9.6-11.9,3.6l-7.6-13.6c-6.2-11-15.4-17.3-25.2-17.3c-9.8,0-19,6.3-25.2,17.3l-7.6,13.6c-3.4,5.9-12.5,3.2-11.9-3.6
	C149.8,196.2,172.9,172.8,192,172.8L192,172.8z M256,396.8c-48.5,0-107.6-30.6-115-74.6c-1.6-9.4,7.4-17.3,16.6-14.3
	c24.2,7.8,60.1,12.2,98.5,12.2s74.3-4.4,98.5-12.2c9.1-3,18.1,4.9,16.6,14.3C363.6,366.2,304.5,396.8,256,396.8z"/>
</svg>
