<?xml version="1.0" encoding="utf-8"?>
<!-- Generator: Adobe Illustrator 24.0.0, SVG Export Plug-In . SVG Version: 6.00 Build 0)  -->
<svg version="1.1" id="Layer_1" xmlns="http://www.w3.org/2000/svg" xmlns:xlink="http://www.w3.org/1999/xlink" x="0px" y="0px"
	 viewBox="0 0 512 512" style="enable-background:new 0 0 512 512;" xml:space="preserve">
<path d="M256,8C119,8,8,119,8,256s111,248,248,248s248-111,248-248S393,8,256,8z M336,176c17.7,0,32,14.3,32,32s-14.3,32-32,32
	s-32-14.3-32-32S318.3,176,336,176z M176,176c17.7,0,32,14.3,32,32s-14.3,32-32,32s-32-14.3-32-32S158.3,176,176,176z M256,432
	c-60.6,0-134.5-38.3-143.8-93.3c-2-11.8,9.3-21.6,20.7-17.9C163.1,330.5,208,336,256,336s92.9-5.5,123.1-15.2
	c11.3-3.7,22.6,6.1,20.7,17.9C390.5,393.7,316.6,432,256,432L256,432z"/>
</svg>
