<?xml version="1.0" encoding="utf-8"?>
<!-- Generator: Adobe Illustrator 24.0.0, SVG Export Plug-In . SVG Version: 6.00 Build 0)  -->
<svg version="1.1" id="Layer_1" xmlns="http://www.w3.org/2000/svg" xmlns:xlink="http://www.w3.org/1999/xlink" x="0px" y="0px"
	 viewBox="0 0 512 512" style="enable-background:new 0 0 512 512;" xml:space="preserve">
<path d="M460,128c26.5,0,48-21,48-47c0-20-28.5-60.4-41.6-77.8c-3.2-4.3-9.6-4.3-12.8,0C440.5,20.6,412,61,412,81
	C412,107,433.5,128,460,128z M460,160c-44.1,0-80-35.4-80-79c0-4.4,0.3-14.2,8.1-32.2C349,23.1,302.3,8,252,8C115,8,4,119,4,256
	s111,248,248,248s248-111,248-248c0-35.1-7.4-68.4-20.5-98.6C473.2,158.9,466.8,160,460,160z M332,152c23.8,0,52.7,29.3,56,71.4
	c0.7,8.6-10.8,12-14.9,4.5l-9.5-17c-7.7-13.7-19.2-21.6-31.5-21.6s-23.8,7.9-31.5,21.6l-9.5,17c-4.1,7.4-15.6,4-14.9-4.5
	C279.3,181.3,308.2,152,332,152z M172,152c23.8,0,52.7,29.3,56,71.4c0.7,8.6-10.8,12-14.9,4.5l-9.5-17
	c-7.7-13.7-19.2-21.6-31.5-21.6s-23.8,7.9-31.5,21.6l-9.5,17c-4.2,7.4-15.6,4-14.9-4.5C119.3,181.3,148.2,152,172,152z M252,432
	c-60.6,0-134.5-38.3-143.8-93.3c-2-11.8,9.3-21.6,20.7-17.9C159.1,330.5,204,336,252,336s92.9-5.5,123.1-15.2
	c11.5-3.7,22.6,6.2,20.7,17.9C386.5,393.7,312.6,432,252,432L252,432z"/>
</svg>
