<?xml version="1.0" encoding="utf-8"?>
<!-- Generator: Adobe Illustrator 24.0.0, SVG Export Plug-In . SVG Version: 6.00 Build 0)  -->
<svg version="1.1" id="Layer_1" xmlns="http://www.w3.org/2000/svg" xmlns:xlink="http://www.w3.org/1999/xlink" x="0px" y="0px"
	 viewBox="0 0 512 512" style="enable-background:new 0 0 512 512;" xml:space="preserve">
<path d="M361.6,304.6c-25.9,8.3-64.4,13.1-105.6,13.1s-79.6-4.8-105.6-13.1c-9.8-3.1-19.4,5.3-17.7,15.3c7.9,47.2,71.3,80,123.3,80
	s115.3-32.9,123.3-80C380.9,310.1,371.6,301.5,361.6,304.6L361.6,304.6z M208.8,255.7c4.5,1.2,9.2-1.5,10.5-6l19.4-69.9
	c5.6-20.3-7.4-41.1-28.8-44.5c-18.6-3-36.4,9.8-41.5,27.9l-2,7.1l-7.1-1.9c-18.2-4.7-38.2,4.3-44.9,22c-7.7,20.2,3.8,41.9,24.2,47.2
	L208.8,255.7L208.8,255.7z M397.6,190.4c-6.7-17.6-26.7-26.7-44.9-22l-7.1,1.9l-2-7.1c-5-18.1-22.8-30.9-41.5-27.9
	c-21.4,3.4-34.4,24.2-28.8,44.5l19.4,69.9c1.2,4.5,5.9,7.2,10.5,6l70.2-18.2C393.8,232.2,405.3,210.6,397.6,190.4L397.6,190.4z
	 M256,8C119,8,8,119,8,256s111,248,248,248s248-111,248-248S393,8,256,8z M256,456c-110.3,0-200-89.7-200-200S145.7,56,256,56
	s200,89.7,200,200S366.3,456,256,456z"/>
</svg>
