<?xml version="1.0" encoding="utf-8"?>
<!-- Generator: Adobe Illustrator 24.0.0, SVG Export Plug-In . SVG Version: 6.00 Build 0)  -->
<svg version="1.1" id="Layer_1" xmlns="http://www.w3.org/2000/svg" xmlns:xlink="http://www.w3.org/1999/xlink" x="0px" y="0px"
	 viewBox="0 0 512 512" style="enable-background:new 0 0 512 512;" xml:space="preserve">
<path d="M256,8C119,8,8,119,8,256s111,248,248,248s248-111,248-248S393,8,256,8z M320,408c0,35.6-29.1,64.5-64.9,64
	c-35.1-0.5-63.1-29.8-63.1-65v-42.8l17.7-8.8c15-7.5,31.5,1.7,34.9,16.5l2.8,12.1c2.1,9.2,15.2,9.2,17.3,0l2.8-12.1
	c3.4-14.8,19.8-24.1,34.9-16.5l17.7,8.8V408H320z M348.2,433.3c2.2-8.1,3.8-16.5,3.8-25.3v-43.5c14.2-12.4,24.4-27.5,27.3-44.5
	c1.7-9.9-7.7-18.5-17.7-15.3c-25.9,8.3-64.4,13.1-105.6,13.1s-79.6-4.8-105.6-13.1c-9.9-3.1-19.4,5.3-17.7,15.3
	c2.9,17,13.1,32.1,27.3,44.5V408c0,8.8,1.6,17.2,3.8,25.3C99.8,399.9,56,333,56,256c0-110.3,89.7-200,200-200s200,89.7,200,200
	C456,333,412.2,399.9,348.2,433.3z M176,176c-17.7,0-32,14.3-32,32s14.3,32,32,32s32-14.3,32-32S193.7,176,176,176z M336,176
	c-17.7,0-32,14.3-32,32s14.3,32,32,32s32-14.3,32-32S353.7,176,336,176z"/>
</svg>
