<?xml version="1.0" encoding="utf-8"?>
<!-- Generator: Adobe Illustrator 24.0.0, SVG Export Plug-In . SVG Version: 6.00 Build 0)  -->
<svg version="1.1" id="Layer_1" xmlns="http://www.w3.org/2000/svg" xmlns:xlink="http://www.w3.org/1999/xlink" x="0px" y="0px"
	 viewBox="0 0 512 512" style="enable-background:new 0 0 512 512;" xml:space="preserve">
<path d="M448,160c29.5,0,53.3-26.3,53.3-58.7c0-25-31.7-75.5-46.2-97.3c-3.6-5.3-10.7-5.3-14.2,0c-14.5,21.8-46.2,72.3-46.2,97.3
	C394.7,133.7,418.5,160,448,160L448,160z M256,400c51.9,0,115.3-32.9,123.3-80c1.7-9.9-7.7-18.5-17.7-15.3
	c-25.9,8.3-64.4,13.1-105.6,13.1s-79.6-4.8-105.6-13.1c-9.8-3.1-19.4,5.3-17.7,15.3C140.7,367.1,204.1,400,256,400L256,400z
	 M386.3,231.7c3.6-1.1,6-4.5,5.7-8.3c-3.3-42.1-32.2-71.4-56-71.4s-52.7,29.3-56,71.4c-0.3,3.7,2.1,7.2,5.7,8.3
	c3.5,1.1,7.4-0.5,9.3-3.7l9.5-17c7.7-13.7,19.2-21.6,31.5-21.6s23.8,7.9,31.5,21.6l9.5,17C379.1,231.6,383.2,232.6,386.3,231.7z
	 M491.6,178.8c-24.6,15.7-46,12.9-46.4,12.9c6.9,20.2,10.8,41.8,10.8,64.3c0,110.3-89.7,200-200,200S56,366.3,56,256
	S145.7,56,256,56c39.8,0,76.8,11.8,108,31.9c1.7-9.5,6.3-24.1,17.2-45.7C344.4,20.6,301.7,8,256,8C119,8,8,119,8,256
	s111,248,248,248s248-111,248-248C504,229,499.6,203.1,491.6,178.8L491.6,178.8z M176,189.4c12.3,0,23.8,7.9,31.5,21.6l9.5,17
	c2.1,3.7,6.2,4.7,9.3,3.7c3.6-1.1,6-4.5,5.7-8.3c-3.3-42.1-32.2-71.4-56-71.4s-52.7,29.3-56,71.4c-0.3,3.7,2.1,7.2,5.7,8.3
	c3.5,1.1,7.4-0.5,9.3-3.7l9.5-17C152.2,197.2,163.7,189.4,176,189.4z"/>
</svg>
