<?xml version="1.0" encoding="utf-8"?>
<!-- Generator: Adobe Illustrator 24.0.0, SVG Export Plug-In . SVG Version: 6.00 Build 0)  -->
<svg version="1.1" id="Layer_1" xmlns="http://www.w3.org/2000/svg" xmlns:xlink="http://www.w3.org/1999/xlink" x="0px" y="0px"
	 viewBox="0 0 512 512" style="enable-background:new 0 0 512 512;" xml:space="preserve">
<path d="M256,8C119,8,8,119,8,256s111,248,248,248s248-111,248-248S393,8,256,8z M336,152c23.8,0,52.7,29.3,56,71.4
	c0.7,8.6-10.8,11.9-14.9,4.5l-9.5-17c-7.7-13.7-19.2-21.6-31.5-21.6s-23.8,7.9-31.5,21.6l-9.5,17c-4.1,7.3-15.6,4-14.9-4.5
	C283.3,181.3,312.2,152,336,152z M176,152c23.8,0,52.7,29.3,56,71.4c0.7,8.6-10.8,11.9-14.9,4.5l-9.5-17
	c-7.7-13.7-19.2-21.6-31.5-21.6s-23.8,7.9-31.5,21.6l-9.5,17c-4.2,7.4-15.6,4-14.9-4.5C123.3,181.3,152.2,152,176,152z M256,432
	c-60.6,0-134.5-38.3-143.8-93.3c-2-11.9,9.4-21.6,20.7-17.9C163.1,330.5,208,336,256,336s92.9-5.5,123.1-15.2
	c11.4-3.7,22.6,6.1,20.7,17.9C390.5,393.7,316.6,432,256,432L256,432z"/>
</svg>
