<?xml version="1.0" encoding="utf-8"?>
<!-- Generator: Adobe Illustrator 24.0.0, SVG Export Plug-In . SVG Version: 6.00 Build 0)  -->
<svg version="1.1" id="Layer_1" xmlns="http://www.w3.org/2000/svg" xmlns:xlink="http://www.w3.org/1999/xlink" x="0px" y="0px"
	 viewBox="0 0 512 512" style="enable-background:new 0 0 512 512;" xml:space="preserve">
<path d="M160,180c-25.7,0-55.9,16.9-59.8,42.1c-0.8,5,1.7,10,6.1,12.4s9.9,1.8,13.7-1.6l9.5-8.5c14.8-13.2,46.2-13.2,61,0l9.5,8.5
	c2.5,2.2,8,4.7,13.7,1.6c4.4-2.4,6.9-7.4,6.1-12.4C215.9,196.9,185.7,180,160,180z M336,128c-44.2,0-80,35.8-80,80s35.8,80,80,80
	s80-35.8,80-80S380.2,128,336,128z M336,256c-26.5,0-48-21.5-48-48s21.5-48,48-48s48,21.5,48,48S362.5,256,336,256z M336,184
	c-13.3,0-24,10.7-24,24s10.7,24,24,24s24-10.7,24-24S349.3,184,336,184z M256,8C119,8,8,119,8,256s111,248,248,248s248-111,248-248
	S393,8,256,8z M320,408c0,35.6-29.1,64.5-64.9,64c-35.1-0.5-63.1-29.8-63.1-65v-42.8l17.7-8.8c15-7.5,31.5,1.7,34.9,16.5l2.8,12.1
	c2.1,9.2,15.2,9.2,17.3,0l2.8-12.1c3.4-14.8,19.8-24.1,34.9-16.5l17.7,8.8V408H320z M348.2,433.3c2.2-8.1,3.8-16.5,3.8-25.3v-43.5
	c14.2-12.4,24.4-27.5,27.3-44.5c1.7-9.9-7.7-18.5-17.7-15.3c-25.9,8.3-64.4,13.1-105.6,13.1s-79.6-4.8-105.6-13.1
	c-9.9-3.1-19.4,5.3-17.7,15.3c2.9,17,13.1,32.1,27.3,44.5V408c0,8.8,1.6,17.2,3.8,25.3C99.8,399.9,56,333,56,256
	c0-110.3,89.7-200,200-200s200,89.7,200,200C456,333,412.2,399.9,348.2,433.3z"/>
</svg>
