<?xml version="1.0" encoding="utf-8"?>
<!-- Generator: Adobe Illustrator 24.0.0, SVG Export Plug-In . SVG Version: 6.00 Build 0)  -->
<svg version="1.1" id="Layer_1" xmlns="http://www.w3.org/2000/svg" xmlns:xlink="http://www.w3.org/1999/xlink" x="0px" y="0px"
	 viewBox="0 0 512 512" style="enable-background:new 0 0 512 512;" xml:space="preserve">
<path d="M208.3,248c12.4-18.7,15.1-37.3,15.7-56c-0.5-18.7-3.3-37.3-15.7-56c-8-12-25.1-11.4-32.7,0c-12.4,18.7-15.1,37.3-15.7,56
	c0.5,18.7,3.3,37.3,15.7,56C183.7,260,200.8,259.4,208.3,248z M336.3,248c12.4-18.7,15.1-37.3,15.7-56c-0.5-18.7-3.3-37.3-15.7-56
	c-8-12-25.1-11.4-32.7,0c-12.4,18.7-15.1,37.3-15.7,56c0.5,18.7,3.3,37.3,15.7,56C311.7,260,328.8,259.4,336.3,248z M256,8
	C119,8,8,119,8,256s111,248,248,248s248-111,248-248S393,8,256,8z M256,456c-110.3,0-200-89.7-200-200S145.7,56,256,56
	s200,89.7,200,200S366.3,456,256,456z M361.6,304.6c-25.9,8.3-64.4,13.1-105.6,13.1s-79.6-4.8-105.6-13.1
	c-9.9-3.1-19.4,5.3-17.7,15.3c7.9,47.2,71.3,80,123.3,80s115.3-32.9,123.3-80C380.9,310.1,371.6,301.5,361.6,304.6L361.6,304.6z"/>
</svg>
