<?xml version="1.0" encoding="utf-8"?>
<!-- Generator: Adobe Illustrator 24.0.0, SVG Export Plug-In . SVG Version: 6.00 Build 0)  -->
<svg version="1.1" id="Layer_1" xmlns="http://www.w3.org/2000/svg" xmlns:xlink="http://www.w3.org/1999/xlink" x="0px" y="0px"
	 viewBox="0 0 512 512" style="enable-background:new 0 0 512 512;" xml:space="preserve">
<path d="M256,8C119,8,8,119,8,256c0,106.3,67,196.7,161,232c-5.6-12.2-9-25.7-9-40v-45.5c-24.7-16.2-43.5-38.1-47.8-63.8
	c-2-11.8,9.3-21.5,20.7-17.9C163.1,330.5,208,336,256,336s92.9-5.5,123.1-15.2c11.4-3.6,22.6,6.1,20.7,17.9
	c-4.3,25.7-23.1,47.6-47.8,63.8V448c0,14.3-3.4,27.8-9,40c94-35.3,161-125.7,161-232C504,119,393,8,256,8z M176,240
	c-17.7,0-32-14.3-32-32s14.3-32,32-32s32,14.3,32,32S193.7,240,176,240z M336,240c-17.7,0-32-14.3-32-32s14.3-32,32-32
	s32,14.3,32,32S353.7,240,336,240z M301.1,374.6c-14.4-6.5-31.1,2.2-34.6,17.6l-1.8,7.8c-2.1,9.2-15.2,9.2-17.3,0l-1.8-7.8
	c-3.5-15.4-20.2-24.1-34.6-17.6c-0.9,0.4,0.3-0.2-18.9,9.4v63c0,35.2,28,64.5,63.1,64.9c35.7,0.5,64.9-28.4,64.9-64v-64
	C300.6,374.3,301.9,375,301.1,374.6z"/>
</svg>
