<?xml version="1.0" encoding="utf-8"?>
<!-- Generator: Adobe Illustrator 24.0.0, SVG Export Plug-In . SVG Version: 6.00 Build 0)  -->
<svg version="1.1" id="Layer_1" xmlns="http://www.w3.org/2000/svg" xmlns:xlink="http://www.w3.org/1999/xlink" x="0px" y="0px"
	 viewBox="0 0 512 512" style="enable-background:new 0 0 512 512;" xml:space="preserve">
<path d="M176.5,301.4c0-73.8,105.1-122.5,105.1-203c0-47.1-34-88-39.1-90.4c0.4,3.3,0.6,6.7,0.6,10C243.1,110.1,96,171.9,96,286.6
	c0,49.8,32.2,79.2,66.5,108.3c65.1,46.7,78.1,71.4,78.1,86.6c0,10.1-4.8,17-4.8,22.3c13.1-16.7,17.4-31.9,17.5-46.4
	c0-29.6-21.7-56.3-44.2-86.5C193.1,348.6,176.5,328.3,176.5,301.4L176.5,301.4z M381.8,262.4c-12.1-66.8-78-124.4-94.7-130.9l4,7.2
	c2.4,5.1,3.4,10.9,3.4,17.1c0,44.7-54.2,111.2-56.6,116.7c-2.2,5.1-3.2,10.5-3.2,15.8c0,20.1,15.2,42.1,17.9,42.1
	c2.4,0,56.6-55.4,58.1-87.7c6.4,11.7,9.1,22.6,9.1,33.4c0,41.2-41.8,96.9-41.8,96.9c0,11.6,31.9,53.2,35.5,53.2c1,0,2.2-1.4,3.2-2.4
	c37.9-39.3,67.3-85,67.3-136.8C384,279,383.3,270.8,381.8,262.4z"/>
</svg>
