<?xml version="1.0" encoding="utf-8"?>
<!-- Generator: Adobe Illustrator 24.0.0, SVG Export Plug-In . SVG Version: 6.00 Build 0)  -->
<svg version="1.1" id="Layer_1" xmlns="http://www.w3.org/2000/svg" xmlns:xlink="http://www.w3.org/1999/xlink" x="0px" y="0px"
	 viewBox="0 0 512 512" style="enable-background:new 0 0 512 512;" xml:space="preserve">
<path d="M192,32h-64c-17.7,0-32,14.3-32,32v64c0,17.7,14.3,32,32,32h64c17.7,0,32-14.3,32-32V64C224,46.3,209.7,32,192,32z M192,192
	h-64c-17.7,0-32,14.3-32,32v64c0,17.7,14.3,32,32,32h64c17.7,0,32-14.3,32-32v-64C224,206.3,209.7,192,192,192z M192,352h-64
	c-17.7,0-32,14.3-32,32v64c0,17.7,14.3,32,32,32h64c17.7,0,32-14.3,32-32v-64C224,366.3,209.7,352,192,352z M384,32h-64
	c-17.7,0-32,14.3-32,32v64c0,17.7,14.3,32,32,32h64c17.7,0,32-14.3,32-32V64C416,46.3,401.7,32,384,32z M384,192h-64
	c-17.7,0-32,14.3-32,32v64c0,17.7,14.3,32,32,32h64c17.7,0,32-14.3,32-32v-64C416,206.3,401.7,192,384,192z M384,352h-64
	c-17.7,0-32,14.3-32,32v64c0,17.7,14.3,32,32,32h64c17.7,0,32-14.3,32-32v-64C416,366.3,401.7,352,384,352z"/>
</svg>
