<?xml version="1.0" encoding="utf-8"?>
<!-- Generator: Adobe Illustrator 24.0.0, SVG Export Plug-In . SVG Version: 6.00 Build 0)  -->
<svg version="1.1" id="Layer_1" xmlns="http://www.w3.org/2000/svg" xmlns:xlink="http://www.w3.org/1999/xlink" x="0px" y="0px"
	 viewBox="0 0 512 512" style="enable-background:new 0 0 512 512;" xml:space="preserve">
<path d="M224,496V16c0-8.8-7.2-16-16-16h-32c-8.8,0-16,7.2-16,16v480c0,8.8,7.2,16,16,16h32C216.8,512,224,504.8,224,496z M352,496
	V16c0-8.8-7.2-16-16-16h-32c-8.8,0-16,7.2-16,16v480c0,8.8,7.2,16,16,16h32C344.8,512,352,504.8,352,496z"/>
</svg>
