<?xml version="1.0" encoding="utf-8"?>
<!-- Generator: Adobe Illustrator 24.0.0, SVG Export Plug-In . SVG Version: 6.00 Build 0)  -->
<svg version="1.1" id="Layer_1" xmlns="http://www.w3.org/2000/svg" xmlns:xlink="http://www.w3.org/1999/xlink" x="0px" y="0px"
	 viewBox="0 0 512 512" style="enable-background:new 0 0 512 512;" xml:space="preserve">
<path d="M125.3,189.3c-1.1,10,5.2,19.1,5.2,19.1c0.7-7.5,2.2-12.8,4-16.6c0.4,10.3,3.2,23.5,12.8,34.1c6.9,7.6,35.6,23.3,54.9,6.1
	c1,2.4,2.1,5.3,3,8.5c2.9,10.3-2.7,25.3-2.7,25.3s15.1-17.1,13.9-32.5c10.8-0.5,21.4-8.4,21.1-19.5c0,0-18.9,10.4-35.5-8.8
	c-9.7-11.2-40.9-42-83.1-31.8c4.3,1,8.9,2.4,13.5,4.1h-0.1C128.1,179.3,125.8,184.4,125.3,189.3L125.3,189.3z M153.6,187.5
	c19.5,11,37.4,25.7,44.9,37c-5.7,3.3-21.7,10.4-38-1.7C150.2,215.2,150.7,196.6,153.6,187.5z M295.7,233.3
	c-1.2,15.5,13.9,32.5,13.9,32.5s-5.6-15-2.7-25.3c0.9-3.2,2-6,3-8.5c19.3,17.3,48,1.5,54.8-6.1c9.6-10.6,12.3-23.8,12.8-34.1
	c1.8,3.8,3.4,9.1,4,16.6c0,0,6.4-9.1,5.2-19.1c-0.6-5-2.9-10-7-11.8h-0.1c4.6-1.8,9.2-3.2,13.5-4.1c-42.3-10.2-73.4,20.6-83.1,31.8
	c-16.7,19.2-35.5,8.8-35.5,8.8C274.3,224.9,284.9,232.9,295.7,233.3L295.7,233.3z M358.4,187.5c3,9.1,3.4,27.7-7,35.4
	c-16.3,12.1-32.2,5-37.9,1.6C321,213.1,338.9,198.5,358.4,187.5z M224,418.5h-29.4c-5.5,0-8.2,1.6-9.5,2.9c-1.9,2-2.2,4.7-0.9,8.1
	c3.5,9.1,11.4,16.5,13.7,18.6c3.1,2.7,7.5,4.3,11.8,4.3c4.4,0,8.3-1.7,11-4.6c7.5-8.2,11.9-17.1,13-19.8c0.6-1.5,1.3-4.5-0.9-6.8
	C231,419.4,228.1,418.5,224,418.5L224,418.5z M413.2,317.3c-2.4,17.9-13,33.8-24.6,43.7c-3.1-22.7-3.7-55.5-3.7-62.4
	c0-14.7,9.5-24.5,12.2-26.1c2.5-1.5,5.4-3,8.3-4.6c18-9.6,40.4-21.6,40.4-43.7c0-16.2-9.3-23.2-15.4-27.8c-0.8-0.6-1.5-1.1-2.2-1.7
	c-2.1-1.7-3.7-3-4.3-4.4c-4.4-9.8-3.6-34.2-1.7-37.6c0.6-0.6,16.7-20.9,11.8-39.2c-2-7.4-6.9-13.3-14.1-17
	c-5.3-2.7-11.9-4.2-19.5-4.5c-0.1-2-0.5-3.9-0.9-5.9c-0.6-2.6-1.1-5.3-0.9-8.1c0.4-4.7,0.8-9,2.2-11.3c8.4-13.3,28.8-17.6,29-17.6
	l12.3-2.4l-8.1-9.5c-0.1-0.2-17.3-17.5-46.3-17.5c-7.9,0-16,1.3-24.1,3.9c-24.2,7.8-42.9,30.5-49.4,39.3c-3.1-1-6.3-1.9-9.6-2.7
	c-4.2-15.8,9-38.5,9-38.5s-13.6-3-33.7,15.2c-2.6-6.5-8.1-20.5-1.8-37.2C248.6,10.1,241.2,26,239,40.4c-7.6-5.4-6.7-23.1-7.2-27.6
	c-7.5,0.9-29.2,21.9-28.2,48.3c-2,0.5-3.9,1.1-5.9,1.7c-6.5-8.8-25.1-31.5-49.4-39.3c-7.9-2.2-16-3.5-23.9-3.5
	c-29,0-46.1,17.3-46.3,17.5L70,46.9l12.3,2.4c0.2,0,20.6,4.3,29,17.6c1.4,2.2,1.8,6.6,2.2,11.3c0.2,2.8-0.4,5.5-0.9,8.1
	c-0.4,1.9-0.8,3.9-0.9,5.9c-7.7,0.3-14.2,1.8-19.5,4.5c-7.2,3.7-12.1,9.6-14.1,17c-5,18.2,11.2,38.5,11.8,39.2
	c1.9,3.4,2.7,27.8-1.7,37.6c-0.6,1.4-2.2,2.7-4.3,4.4c-0.7,0.5-1.4,1.1-2.2,1.7c-6.1,4.6-15.4,11.7-15.4,27.8
	c0,22.1,22.4,34.1,40.4,43.7c3,1.6,5.8,3.1,8.3,4.6c2.7,1.6,12.2,11.4,12.2,26.1c0,6.9-0.6,39.7-3.7,62.4
	c-11.6-9.9-22.2-25.9-24.6-43.8c0,0-29.2,22.6-20.6,70.8c5.2,29.5,23.2,46.1,47,54.7c8.8,19.1,29.4,45.7,67.3,49.6
	C207,504.3,227,512,256.2,512h0.2c29.1,0,49.1-7.7,63.6-19.5c37.9-3.9,58.5-30.5,67.3-49.6c23.8-8.7,41.7-25.2,47-54.7
	C442.5,339.8,413.2,317.3,413.2,317.3L413.2,317.3z M369.7,37.7c5.6-1.8,11.6-2.7,17.7-2.7c11,0,19.9,3,24.7,5
	c-3.1,1.4-6.4,3.2-9.7,5.3c-2.4-0.4-5.6-0.8-9.2-0.8c-10.5,0-20.5,3.1-28.7,8.9c-12.3,8.7-18,16.9-20.7,22.4
	c-2.2-1.3-4.5-2.5-7.1-3.7c-1.6-0.8-3.1-1.5-4.7-2.2C338.1,60.8,351.9,43.4,369.7,37.7L369.7,37.7z M390.7,55.9
	c-0.8,1-1.6,2.1-2.3,3.2c-3.3,5.2-3.9,11.6-4.4,17.8c-0.5,6.4-1.1,12.5-4.4,17c-4.2,0.8-8.1,1.7-11.5,2.7c-2.3-3.1-5.6-7-10.5-11.2
	c1.4-4.8,5.5-16.1,13.5-22.5C376.7,58.6,383.3,56.2,390.7,55.9L390.7,55.9z M109.6,45.3c-3.3-2.2-6.6-4-9.7-5.3c4.8-2,13.7-5,24.7-5
	c6.1,0,12,0.9,17.7,2.7c17.8,5.8,31.6,23.2,37.7,32.1c-1.6,0.7-3.2,1.4-4.8,2.2c-2.5,1.2-4.9,2.5-7.1,3.7
	c-2.6-5.4-8.3-13.7-20.7-22.4c-8.3-5.8-18.2-8.9-28.8-8.9C115.2,44.5,112,44.9,109.6,45.3z M154.3,85.4c-4.9,4.2-8.3,8-10.5,11.2
	c-3.4-0.9-7.3-1.9-11.5-2.7c-3.3-4.4-3.8-10.5-4.3-16.9c-0.5-6.2-1.1-12.6-4.4-17.8c-0.7-1.1-1.5-2.2-2.3-3.2c7.4,0.3,14,2.6,19.5,7
	C148.8,69.3,152.9,80.6,154.3,85.4z M122.1,259.9c-2.7-1.6-5.6-3.1-8.4-4.6c-14.9-8-30.2-16.3-30.2-30.5c0-11.1,4.3-14.6,8.9-18.2
	l0.5-0.4c0.7-0.6,1.4-1.2,2.2-1.8c-0.9,7.2-1.9,13.3-2.7,14.9c0,0,12.1-15,15.7-44.3c1.4-11.5-1.1-34.3-5.1-43
	c0.2,4.9,0,9.8-0.3,14.4c-0.4-0.8-0.8-1.6-1.3-2.2c-3.2-4-11.8-17.5-9.4-26.6c0.9-3.5,3.1-6,6.7-7.8c3.8-1.9,8.8-2.9,15.1-2.9
	c12.3,0,25.9,3.7,32.9,6c25.1,8,55.4,30.9,64.1,37.7c0.2,0.2,0.4,0.3,0.4,0.3l5.6,3.9l-3.5-5.8c-0.2-0.3-19.1-31.4-53.2-46.5
	c2-2.9,7.4-8.1,21.6-15.1c21.4-10.5,46.5-15.8,74.3-15.8c27.9,0,52.9,5.3,74.3,15.8c14.2,6.9,19.6,12.2,21.6,15.1
	c-34,15.1-52.9,46.2-53.1,46.5l-3.5,5.8l5.6-3.9c0,0,0.2-0.1,0.4-0.3c8.7-6.8,39-29.8,64.1-37.7c7-2.2,20.6-6,32.9-6
	c6.3,0,11.3,1,15.1,2.9c3.5,1.8,5.7,4.4,6.7,7.8c2.5,9.1-6.1,22.6-9.4,26.6c-0.5,0.6-0.9,1.3-1.3,2.2c-0.3-4.6-0.5-9.5-0.3-14.4
	c-4,8.8-6.5,31.5-5.1,43c3.6,29.3,15.7,44.3,15.7,44.3c-0.8-1.6-1.8-7.7-2.7-14.9c0.7,0.6,1.5,1.2,2.2,1.8l0.5,0.4
	c4.6,3.7,8.9,7.1,8.9,18.2c0,14.2-15.4,22.5-30.2,30.5c-2.9,1.5-5.7,3.1-8.4,4.6c-8.7,5-18,16.7-19.1,34.2
	c-0.9,14.6,0.9,49.9,3.4,75.9c-12.4,4.8-26.7,6.4-39.7,6.8c-2-4.1-3.9-8.5-5.5-13.1c-0.7-2-19.6-51.1-26.4-62.2
	c5.5,39,17.5,73.7,23.5,89.6c-3.5-0.5-7.3-0.7-11.7-0.7h-117c-4.4,0-8.3,0.3-11.7,0.7c6-15.9,18.1-50.6,23.5-89.6
	c-6.8,11.2-25.7,60.3-26.4,62.2c-1.6,4.6-3.5,9-5.5,13.1c-13-0.4-27.2-2-39.7-6.8c2.5-26,4.3-61.2,3.4-75.9
	C140.2,276.7,130.8,264.9,122.1,259.9L122.1,259.9z M98.8,404.6c-12.1-20-8.7-54.1-3.7-59.1c10.9,34.4,47.2,44.3,74.4,45.4
	c-2.7,4.2-5.2,7.6-7,10l-1.4,1.4c-7.2,7.8-8.6,18.5-4.1,31.8C134.3,434,110.7,424.3,98.8,404.6L98.8,404.6z M144.5,448.1
	c6,1.1,12.2,1.9,18.6,2.4c3.5,8,7.4,15.9,12.3,23.1C161,467.7,151,457.6,144.5,448.1z M256,498.2c-60.6-0.1-78.3-45.8-84.9-64.7
	c-3.7-10.5-3.4-18.2,0.9-23.1c2.9-3.3,9.5-7.2,24.6-7.2h118.8c15.1,0,21.8,3.9,24.6,7.2c4.2,4.8,4.5,12.6,0.9,23.1
	C334.3,452.3,316.6,498.1,256,498.2z M336.6,473.6c4.9-7.2,8.8-15.1,12.3-23.1c6.4-0.5,12.6-1.3,18.6-2.4
	C361,457.6,351,467.7,336.6,473.6z M413.2,404.6c-12,19.7-35.6,29.3-58.1,29.7c4.5-13.3,3.1-24.1-4.1-31.8c-0.4-0.5-0.9-1-1.4-1.5
	c-1.8-2.4-4.3-5.8-7-10c27.2-1.2,63.5-11,74.4-45.4C422,350.6,425.4,384.7,413.2,404.6L413.2,404.6z M255.9,187.7h0.2
	c12.7-0.1,27.2-17.8,27.2-17.8c-9.9,6-18.8,8.1-27.3,8.3c-8.5-0.2-17.4-2.3-27.3-8.3C228.7,169.9,243.2,187.5,255.9,187.7
	L255.9,187.7z M317.6,418.4h-29.4c-4.2,0-7.2,0.9-8.9,2.7c-2.2,2.3-1.5,5.2-0.9,6.7c1,2.6,5.5,11.3,13,19.3c2.7,2.9,6.6,4.5,11,4.5
	c4.4,0,8.7-1.6,11.8-4.2c2.3-2,10.2-9.2,13.7-18.1c1.3-3.3,1-6-0.9-7.9C325.7,420.1,323,418.5,317.6,418.4L317.6,418.4z"/>
</svg>
