<?xml version="1.0" encoding="utf-8"?>
<!-- Generator: Adobe Illustrator 24.0.0, SVG Export Plug-In . SVG Version: 6.00 Build 0)  -->
<svg version="1.1" id="Layer_1" xmlns="http://www.w3.org/2000/svg" xmlns:xlink="http://www.w3.org/1999/xlink" x="0px" y="0px"
	 viewBox="0 0 512 512" style="enable-background:new 0 0 512 512;" xml:space="preserve">
<path d="M475.4,64H36.6c0,103.3,22.2,180.1,43.4,222.4C144,414.1,256,448,257.3,448c55.7-20.5,104.5-56.3,140.6-103.5
	c25.9-33.9,53.1-87.2,65.9-145.8H203.8c4.1,36.4,22.2,67.9,45.1,86.9h88.6c-17,28.2-48.2,54.4-80.5,69.5
	c-31.2-13.3-69.1-46.5-96.5-98.4c-26.7-53.8-27.1-105.9-27.1-105.9h336.1C473.5,122.1,475.5,93.1,475.4,64z"/>
</svg>
