<?xml version="1.0" encoding="utf-8"?>
<!-- Generator: Adobe Illustrator 24.0.0, SVG Export Plug-In . SVG Version: 6.00 Build 0)  -->
<svg version="1.1" id="Layer_1" xmlns="http://www.w3.org/2000/svg" xmlns:xlink="http://www.w3.org/1999/xlink" x="0px" y="0px"
	 viewBox="0 0 512 512" style="enable-background:new 0 0 512 512;" xml:space="preserve">
<path d="M480,80v352c0,26.5-21.5,48-48,48H80c-26.5,0-48-21.5-48-48V80c0-26.5,21.5-48,48-48h352C458.5,32,480,53.5,480,80z
	 M368,128h-32c-8.8,0-16,7.2-16,16v80H192v-80c0-8.8-7.2-16-16-16h-32c-8.8,0-16,7.2-16,16v224c0,8.8,7.2,16,16,16h32
	c8.8,0,16-7.2,16-16v-80h128v80c0,8.8,7.2,16,16,16h32c8.8,0,16-7.2,16-16V144C384,135.2,376.8,128,368,128z"/>
</svg>
