<?xml version="1.0" encoding="utf-8"?>
<!-- Generator: Adobe Illustrator 24.0.0, SVG Export Plug-In . SVG Version: 6.00 Build 0)  -->
<svg version="1.1" id="Layer_1" xmlns="http://www.w3.org/2000/svg" xmlns:xlink="http://www.w3.org/1999/xlink" x="0px" y="0px"
	 viewBox="0 0 512 512" style="enable-background:new 0 0 512 512;" xml:space="preserve">
<path d="M432,32H80c-26.5,0-48,21.5-48,48v352c0,26.5,21.5,48,48,48h352c26.5,0,48-21.5,48-48V80C480,53.5,458.5,32,432,32z
	 M53.2,229.2H53c0.1-0.1,0.2-0.3,0.3-0.4C53.3,228.9,53.3,229.1,53.2,229.2z M271.2,283.1V384h-31.4V281.3L160,128h37.3
	c52.5,98.3,49.2,101.2,59.3,125.6c12.3-27,5.8-24.4,60.6-125.6H352L271.2,283.1z"/>
</svg>
