<?xml version="1.0" encoding="utf-8"?>
<!-- Generator: Adobe Illustrator 24.0.0, SVG Export Plug-In . SVG Version: 6.00 Build 0)  -->
<svg version="1.1" id="Layer_1" xmlns="http://www.w3.org/2000/svg" xmlns:xlink="http://www.w3.org/1999/xlink" x="0px" y="0px"
	 viewBox="0 0 512 512" style="enable-background:new 0 0 512 512;" xml:space="preserve">
<path d="M507.8,200.8l-20.1-20.1c-5.6-5.6-14.6-5.6-20.1,0l-10.1,10.1l-25.7-25.7c5-18.9,0.3-39.9-14.5-54.8l-40.2-40.2
	c-55.5-55.5-145.6-55.5-201.1,0l80.5,40.2V127c0,15.1,6,29.6,16.7,40.2l43.7,43.7c14.9,14.9,35.8,19.5,54.8,14.5l25.7,25.7
	l-10.1,10.1c-5.6,5.6-5.6,14.6,0,20.1l20.1,20.1c5.6,5.6,14.6,5.6,20.1,0l80.5-80.5C513.4,215.4,513.4,206.4,507.8,200.8
	L507.8,200.8z M253,187.3c-3.3-3.3-6.1-6.9-8.8-10.6L17.5,388.4c-22.7,21.2-23.3,57.1-1.4,79c22,22,57.8,21.4,79-1.4l211.7-226.7
	c-3.5-2.6-7-5.2-10.2-8.4L253,187.3L253,187.3z"/>
</svg>
