<?xml version="1.0" encoding="utf-8"?>
<!-- Generator: Adobe Illustrator 24.0.0, SVG Export Plug-In . SVG Version: 6.00 Build 0)  -->
<svg version="1.1" id="Layer_1" xmlns="http://www.w3.org/2000/svg" xmlns:xlink="http://www.w3.org/1999/xlink" x="0px" y="0px"
	 viewBox="0 0 512 512" style="enable-background:new 0 0 512 512;" xml:space="preserve">
<path d="M390.2,179.4c-19.5-24.8-52.7-31.9-79.9-19.1c-15.1-15.7-36.2-22.5-56.6-19.6V67c0-36.9-29.7-67-66.3-67s-66.3,30.1-66.3,67
	v161.1c-19.9-7.4-43.3-5.1-62.1,8.9c-29.4,21.8-35.8,63.3-14.5,93.2l109.7,154c12.4,17.4,32.5,27.8,53.8,27.8h178.3
	c30.8,0,57.6-21.5,64.6-51.8l27.4-119c1.1-5,1.7-10.1,1.7-15.2v-84C480,195.2,433.4,162.7,390.2,179.4z M113,279.7l27.1,38.1
	c9,12.6,29,6.3,29-9.3V67c0-25.1,36.6-25.2,36.6,0v175c0,8.8,7.2,16,16,16h6.9c8.8,0,16-7.2,16-16v-35c0-25.1,36.6-25.2,36.6,0v35
	c0,8.8,7.2,16,16,16h6.9c8.8,0,16-7.2,16-16v-21c0-25.1,36.6-25.2,36.6,0v21c0,8.8,7.2,16,16,16h6.9c8.8,0,16-7.2,16-16
	c0-25.1,36.6-25.2,36.6,0v84c0,1.5-0.2,3-0.5,4.4l-27.4,119c-2,8.6-9.3,14.6-17.8,14.6H208c-5.8,0-11.3-2.9-14.7-7.7l-109.7-154
	C69.2,282.1,98.6,259.5,113,279.7L113,279.7z M208.1,400v-96c0-8.8,6.3-16,14-16h6c7.7,0,14,7.2,14,16v96c0,8.8-6.3,16-14,16h-6
	C214.4,416,208.1,408.8,208.1,400z M283.6,400v-96c0-8.8,6.3-16,14-16h6c7.7,0,14,7.2,14,16v96c0,8.8-6.3,16-14,16h-6
	C289.8,416,283.6,408.8,283.6,400z M359,400v-96c0-8.8,6.3-16,14-16h6c7.7,0,14,7.2,14,16v96c0,8.8-6.3,16-14,16h-6
	C365.3,416,359,408.8,359,400z"/>
</svg>
