<?xml version="1.0" encoding="utf-8"?>
<!-- Generator: Adobe Illustrator 24.0.0, SVG Export Plug-In . SVG Version: 6.00 Build 0)  -->
<svg version="1.1" id="Layer_1" xmlns="http://www.w3.org/2000/svg" xmlns:xlink="http://www.w3.org/1999/xlink" x="0px" y="0px"
	 viewBox="0 0 512 512" style="enable-background:new 0 0 512 512;" xml:space="preserve">
<path d="M240.9,156.7l48.2,12.7c3.4,0.8,5.8,3.7,5.9,7.2c0,4.1-3.6,7.5-8.1,7.5h-31.6c-3.4,0-6.8-0.7-9.9-2c-4.7-2-10-1.5-13.6,1.8
	l-16.9,15.6c-0.8,0.7-1.5,1.5-2,2.4c-2.9,4.8-1.4,11,3.4,14c0,0,0,0,0.1,0c9.4,5.6,19.8,9.1,30.7,10.2v15.7c0,7.8,7,14.2,15.4,14.2
	h15.4c8.5,0,15.4-6.4,15.4-14.2v-15.6c29.3-3.2,51.4-27.6,47.6-56c-2.8-20.4-20-36.7-41.4-42.4L251.3,115c-3.4-0.8-5.8-3.7-5.9-7.2
	c0-4.1,3.6-7.5,8.1-7.5h31.6c3.4,0,6.8,0.7,10,2c4.6,2,10,1.5,13.6-1.8L325.6,85c0.8-0.7,1.4-1.4,1.9-2.3c2.9-4.8,1.4-11-3.3-14
	c0,0-0.1,0-0.1,0c-9.4-5.6-19.8-9.1-30.7-10.2V42.7c0-7.8-7-14.2-15.4-14.2h-15.4c-8.5,0-15.4,6.4-15.4,14.2v15.6
	c-29.2,3.2-51.4,27.6-47.6,56C202.3,134.8,219.6,151,240.9,156.7z M502.5,320.1c-10.5-9.5-26.8-8.9-37.9,0l-82.1,65.7
	c-10.1,8.1-22.6,12.5-35.6,12.4H241.8c-7.9,0-14.2-6.4-14.2-14.2s6.4-14.2,14.2-14.2h69.6c14.1,0,27.3-9.7,29.6-23.6
	c0.3-1.6,0.4-3.2,0.4-4.9c0-15.7-12.8-28.4-28.4-28.4H170.7c-24,0-47.2,8.3-65.9,23.4l-41.3,33.5H14.2C6.4,369.8,0,376.1,0,384v85.3
	c0,7.9,6.4,14.2,14.2,14.2h317.1c12.9,0,25.5-4.4,35.6-12.4l134.4-107.6c12.3-9.8,14.3-27.7,4.4-40
	C504.8,322.3,503.7,321.2,502.5,320.1L502.5,320.1z"/>
</svg>
