<?xml version="1.0" encoding="utf-8"?>
<!-- Generator: Adobe Illustrator 24.0.0, SVG Export Plug-In . SVG Version: 6.00 Build 0)  -->
<svg version="1.1" id="Layer_1" xmlns="http://www.w3.org/2000/svg" xmlns:xlink="http://www.w3.org/1999/xlink" x="0px" y="0px"
	 viewBox="0 0 512 512" style="enable-background:new 0 0 512 512;" xml:space="preserve">
<path d="M220.8,512c45.6,0,83.2-37.8,83.2-83.2v-35.6c7.7-1.7,15.1-4.4,22.1-7.9c22,2.5,45-3.5,62.8-16
	c52.5-1.1,91.1-37.4,91.1-99.9V248c0-60.1-40-98.5-40-127.2v-2.7c5-5.7,8-13.5,8-22.1V32c0-17.7-12.9-32-28.8-32H188.8
	C172.9,0,160,14.3,160,32v64c0,8.6,3,16.4,8,22.1v2.7c0,7-6.2,14.9-23.7,30.2l-0.1,0.1l-0.1,0.1c-9.9,8.9-20.8,18.1-33.3,25.9
	C80.5,195.8,32,207.5,32,252.8c0,56.9,35.3,92,83.2,92c8,0,15.5-0.8,22.4-2.2v86.2C137.6,473.9,175.7,512,220.8,512L220.8,512z
	 M220.8,464c-18.7,0-35.2-16.8-35.2-35.2V270.4c-17.3,0-35.2,26.4-70.4,26.4c-26.4,0-35.2-20.6-35.2-44c0-8.8,32.7-20.4,56.1-34.9
	c14.6-9.1,27.2-19.5,39.9-30.8c18.4-16.1,36.6-33.8,39.6-59.1h176.8c3.8,42.8,39.7,74.5,39.7,120v21.3c0,40.5-22.2,57.1-61.3,50.6
	c-8,14.6-34,24.2-53.6,12.9c-18.2,19.4-46.4,17.8-61.1,5v91C256,447.8,239.8,464,220.8,464L220.8,464z M360,64c0-13.3,10.7-24,24-24
	s24,10.7,24,24s-10.7,24-24,24S360,77.3,360,64z"/>
</svg>
