<?xml version="1.0" encoding="utf-8"?>
<!-- Generator: Adobe Illustrator 24.0.0, SVG Export Plug-In . SVG Version: 6.00 Build 0)  -->
<svg version="1.1" id="Layer_1" xmlns="http://www.w3.org/2000/svg" xmlns:xlink="http://www.w3.org/1999/xlink" x="0px" y="0px"
	 viewBox="0 0 512 512" style="enable-background:new 0 0 512 512;" xml:space="preserve">
<path d="M415.4,153.5l-38.1-38.1c-8.4-8.4-19.8-13-31.7-13H164.2c-11.8,0-23.3,4.7-31.7,13l-38.1,38.1H0v204.6h51.2
	c14.1,0,25.4-11.4,25.5-25.4H84l67.7,61.1c24.7,20.1,59,20.6,84.5,3c10,8.6,20.8,12.7,32.9,12.7c14.6,0,28.2-5.9,39-19.2
	c17.7,7,38.6,2.1,51.2-13.4l21-25.8c4.5-5.5,7.3-11.8,8.7-18.4h46.3c0.1,14,11.5,25.4,25.5,25.4H512V153.5H415.4z M38.4,332.5
	c-7,0-12.8-5.8-12.8-12.8s5.8-12.8,12.8-12.8s12.8,5.8,12.8,12.8C51.2,326.8,45.4,332.5,38.4,332.5z M350.4,327l-20.9,25.8
	c-2.2,2.7-6.2,3.2-9,1l-19.1-15.5l-24,29.2c-4.8,5.8-12,3.8-14.4,1.9l-29.4-25.2L221,359.4c-11.1,13.7-31.4,15.8-44.2,5.3L99,294.3
	H76.8V191.8h33.5l49.4-49.3c1.6-0.6,3-1.2,4.6-1.8h45.4l-31,28.4c-23.5,21.5-24.9,57.8-3.5,81c11.8,13,49,33,81.2,3.5l6.6-6
	l86.6,70.2C352.2,320.2,352.6,324.2,350.4,327L350.4,327z M435.2,294.3h-55.4c-1.8-2.2-3.9-4.3-6.2-6.2l-82.2-66.7l10-9.1
	c5.2-4.8,5.6-12.9,0.8-18.1l-8.7-9.4c-4.8-5.2-12.9-5.5-18.1-0.8l-44.2,40.5c-7.6,7-20.6,7.5-27.7,0c-7.4-7.9-6.8-20.1,1-27.1
	l52.5-48.1c5.9-5.4,13.6-8.4,21.6-8.4l67-0.2c1.7,0,3.3,0.6,4.4,1.8l49.4,49.3h35.8V294.3z M473.6,332.5c-7,0-12.8-5.8-12.8-12.8
	s5.8-12.8,12.8-12.8c7,0,12.8,5.8,12.8,12.8C486.4,326.8,480.6,332.5,473.6,332.5z"/>
</svg>
