<?xml version="1.0" encoding="utf-8"?>
<!-- Generator: Adobe Illustrator 24.0.0, SVG Export Plug-In . SVG Version: 6.00 Build 0)  -->
<svg version="1.1" id="Layer_1" xmlns="http://www.w3.org/2000/svg" xmlns:xlink="http://www.w3.org/1999/xlink" x="0px" y="0px"
	 viewBox="0 0 512 512" style="enable-background:new 0 0 512 512;" xml:space="preserve">
<path d="M341.3,455.1H512V351.8c0-16.1-4.6-31.9-13.2-45.6L353.9,76.8c-7.8-12.4-21.4-19.9-36.1-19.9H21.3C9.6,56.9,0,66.4,0,78.2
	v14.2c0,27.5,22.3,49.8,49.8,49.8h204.4c11.4,0,19.2,11.6,14.8,22.2l-19,45.7c-4.4,10.6-14.8,17.5-26.3,17.5H113.8
	c-31.4,0-56.9,25.5-56.9,56.9v7.1c0,11.8,9.6,21.3,21.3,21.3h131c8.1,0,16,2.3,22.8,6.6l99.3,62.9c6.2,3.9,9.9,10.7,9.9,18V455.1z"
	/>
</svg>
