<?xml version="1.0" encoding="utf-8"?>
<!-- Generator: Adobe Illustrator 24.0.0, SVG Export Plug-In . SVG Version: 6.00 Build 0)  -->
<svg version="1.1" id="Layer_1" xmlns="http://www.w3.org/2000/svg" xmlns:xlink="http://www.w3.org/1999/xlink" x="0px" y="0px"
	 viewBox="0 0 512 512" style="enable-background:new 0 0 512 512;" xml:space="preserve">
<path d="M85.3,187.7L85.3,187.7l39.7-16.5c1.7-1,2.8-2.8,2.9-4.8l0,0c-0.1-2-1.2-3.8-2.9-4.8l-39.7-16.5h-0.1l-16.5-39.7
	c-1.3-2.6-4.5-3.7-7.1-2.4c-1,0.5-1.9,1.4-2.4,2.4L42.7,145h0L3,161.6c-1.7,1-2.9,2.8-3,4.8l0,0c0.1,2,1.2,3.8,2.9,4.8l39.7,16.5
	h0.1l16.5,39.7c1.3,2.6,4.5,3.7,7.1,2.4c1-0.5,1.9-1.4,2.4-2.4L85.3,187.7L85.3,187.7z M377.1,425.1l-0.8-0.3l-0.8-0.4
	c-15.3-7.7-21.4-26.2-13.8-41.5c3-6,7.8-10.8,13.8-13.8l0.8-0.4l0.8-0.3l30-12.5l12.5-30l0.3-0.8l0.4-0.8
	c3.1-6.2,8.5-10.9,14.7-13.9c0-1.1,0.2-2.2,0.2-3.2V166.4c0-14.1-11.5-25.6-25.6-25.6S384,152.3,384,166.4V224
	c0,3.5-2.9,6.4-6.4,6.4h-12.8c-3.5,0-6.4-2.9-6.4-6.4V102.4c0-14.1-11.5-25.6-25.6-25.6c-14.1,0-25.6,11.5-25.6,25.6V224
	c0,3.5-2.9,6.4-6.4,6.4H288c-3.5,0-6.4-2.9-6.4-6.4V76.8c0-14.1-11.5-25.6-25.6-25.6c-14.1,0-25.6,11.5-25.6,25.6V224
	c0,3.5-2.9,6.4-6.4,6.4h-12.8c-3.5,0-6.4-2.9-6.4-6.4V102.4c0-14.1-11.5-25.6-25.6-25.6s-25.6,11.5-25.6,25.6v192.8l-18.9-26
	c-10.4-14.3-30.4-17.5-44.7-7s-17.5,30.4-7,44.7L183.4,445c7.2,9.9,18.8,15.8,31,15.8h158.1c15.4,0,28.5-9.4,34.6-23l-0.1-0.1
	L377.1,425.1z M279.8,322.8l-23.8,9.9l-9.9,23.8c-0.8,1.6-2.7,2.2-4.3,1.4c-0.6-0.3-1.1-0.8-1.4-1.4l-9.9-23.8l-23.8-9.9
	c-1.6-0.8-2.2-2.7-1.4-4.3c0.3-0.6,0.8-1.1,1.4-1.4l23.8-9.9l9.9-23.8c0.8-1.6,2.7-2.2,4.3-1.4c0.6,0.3,1.1,0.8,1.4,1.4l9.9,23.8
	l23.8,9.9c1.6,0.8,2.2,2.7,1.4,4.3C281,322,280.5,322.5,279.8,322.8L279.8,322.8z M512,396.7c-0.1-2-1.2-3.8-2.9-4.8l-39.7-16.5
	h-0.1l-16.5-39.7c-1.3-2.6-4.5-3.7-7.1-2.4c-1,0.5-1.9,1.4-2.4,2.4l-16.6,39.7h0L387,392c-1.7,1-2.9,2.8-2.9,4.8l0,0
	c0.1,2,1.2,3.8,2.9,4.8l39.7,16.5h0.1l16.5,39.7c1.3,2.6,4.5,3.7,7.1,2.4c1-0.5,1.9-1.4,2.4-2.4l16.6-39.7l0,0h0.1l39.6-16.5
	C510.7,400.6,511.8,398.8,512,396.7L512,396.7L512,396.7z"/>
</svg>
