<?xml version="1.0" encoding="utf-8"?>
<!-- Generator: Adobe Illustrator 24.0.0, SVG Export Plug-In . SVG Version: 6.00 Build 0)  -->
<svg version="1.1" id="Layer_1" xmlns="http://www.w3.org/2000/svg" xmlns:xlink="http://www.w3.org/1999/xlink" x="0px" y="0px"
	 viewBox="0 0 512 512" style="enable-background:new 0 0 512 512;" xml:space="preserve">
<path d="M142.1,184.7H199v56.9c0,7.9,6.4,14.2,14.2,14.2h56.9c7.9,0,14.2-6.4,14.2-14.2v-56.9h56.9c7.9,0,14.2-6.4,14.2-14.2v-56.9
	c0-7.9-6.4-14.2-14.2-14.2h-56.9V42.5c0-7.9-6.4-14.2-14.2-14.2h-56.9c-7.9,0-14.2,6.4-14.2,14.2v56.9h-56.9
	c-7.9,0-14.2,6.4-14.2,14.2v56.9C127.9,178.3,134.2,184.7,142.1,184.7z M504.9,327.2c-11.6-15.8-33.8-19.2-49.6-7.6l-0.1,0.1
	l-106.4,78.4H241.6c-7.9,0-14.2-6.4-14.2-14.2s6.4-14.2,14.2-14.2h69.5c14.2,0,27.3-9.7,29.7-23.7c2.6-15.5-7.9-30.2-23.4-32.8
	c-1.6-0.3-3.1-0.4-4.7-0.4H170.5c-24,0-47.2,8.2-65.9,23.3l-41.3,33.5H14.1c-7.8,0.1-14.2,6.4-14.2,14.2v85.3
	c0.1,7.8,6.4,14.2,14.2,14.2h308.5c19.7,0,38.9-6.4,54.8-18l120-88.5C513.2,365.2,516.6,343,504.9,327.2z"/>
</svg>
