<?xml version="1.0" encoding="utf-8"?>
<!-- Generator: Adobe Illustrator 24.0.0, SVG Export Plug-In . SVG Version: 6.00 Build 0)  -->
<svg version="1.1" id="Layer_1" xmlns="http://www.w3.org/2000/svg" xmlns:xlink="http://www.w3.org/1999/xlink" x="0px" y="0px"
	 viewBox="0 0 512 512" style="enable-background:new 0 0 512 512;" xml:space="preserve">
<path d="M494.8,286.7L364.7,86.1c-11.8-18.3-31.9-29.2-53.7-29.2H49.8C22.3,56.9,0,79.2,0,106.7v7.1c0,39.2,31.9,71.1,71.1,71.1
	h174.3l-16.3,42.7H128c-43.1,0-78.2,35.1-78.2,78.2c0,27.4,22.3,49.8,49.8,49.8h116.9c2.7,0,5.3,0.5,7.7,1.4l88.7,34.5v63.6H512
	V344.7C512,324.1,506.1,304,494.8,286.7z M469.3,412.4H355.6v-21c0-17.7-10.7-33.3-27.2-39.8l-88.7-34.5c-7.4-2.9-15.3-4.4-23.2-4.4
	H99.6c-3.9,0-7.1-3.2-7.1-7.1c0-19.6,16-35.6,35.6-35.6h101.1c17.6,0,33.6-11,39.9-27.4l21.8-57.1c8-20.9-7.5-43.4-29.9-43.4H71.1
	c-15.7,0-28.4-12.8-28.4-28.4v-7.1c0-3.9,3.2-7.1,7.1-7.1H311c7.3,0,13.9,3.6,17.9,9.7L459,309.9c6.7,10.4,10.3,22.5,10.3,34.8
	V412.4z"/>
</svg>
