<?xml version="1.0" encoding="utf-8"?>
<!-- Generator: Adobe Illustrator 24.0.0, SVG Export Plug-In . SVG Version: 6.00 Build 0)  -->
<svg version="1.1" id="Layer_1" xmlns="http://www.w3.org/2000/svg" xmlns:xlink="http://www.w3.org/1999/xlink" x="0px" y="0px"
	 viewBox="0 0 512 512" style="enable-background:new 0 0 512 512;" xml:space="preserve">
<path d="M464,224c26.5,0,48-21.5,48-48s-21.5-48-48-48c-26.5,0-48,21.5-48,48S437.5,224,464,224z M279.5,178.4
	c5.4-1.6,10.9-2.5,16.5-2.4c6.5,0.1,12.9,1.2,19,3.5l15.4-48.6c4-12.6-3-26.1-15.6-30.1c-1.5-0.5-3.1-0.8-4.8-1
	c-11.5-1.3-22.2,6.4-25.7,17.5l-20.9,66.2L279.5,178.4z M61.7,386.3c0.8-0.2,1.5-0.5,2.3-0.7v-25.7c0.1-67.3,43.2-126.9,107.1-148
	l73.7-22.8l34.2-108.1c4-12.6-3-26.1-15.6-30.1c-1.5-0.5-3.1-0.8-4.7-1c-11.5-1.3-22.2,6.5-25.7,17.5l-33.5,106.4
	c-1.3,4.2-5.8,6.5-10,5.2s-6.5-5.8-5.2-10l43.4-137.8c4-12.6-3-26.1-15.6-30.1c-1.5-0.5-3.1-0.8-4.7-1c-11.5-1.3-22.2,6.4-25.7,17.5
	l-47.9,151.7c-1.3,4.2-5.8,6.6-10,5.2c-4.2-1.3-6.6-5.8-5.2-10l38.6-122c4-12.6-3-26.1-15.6-30.1c-1.5-0.5-3.1-0.8-4.7-1
	c-11.5-1.4-22.2,6.4-25.7,17.5l-60,189.9l-2.1-50.1c0.1-13.3-10.6-24.1-23.8-24.1c0,0,0,0,0,0C11.7,144.5,0.2,155.1,0,168.4v112.7
	C0.6,324.6,24,364.5,61.7,386.3z M487.1,336H328c-4.4,0-8-3.6-8-8s3.6-8,8-8h128c13.3,0,24-10.7,24-24c0-1.6-0.2-3.2-0.5-4.8
	c-2.2-11.4-12.8-19.2-24.4-19.2H256l47.1-17.1c12.7-3.9,19.8-17.4,15.9-30s-17.4-19.8-30-15.9l0,0l-107.7,33.3
	C130.4,259,96,306.5,96,360v25.6c43.2,8.7,71.2,50.8,62.5,94c-1,5-2.5,9.9-4.5,14.7c18.6,11.5,40.1,17.6,62,17.7h208
	c13.3,0,24-10.7,24-24c0-1.6-0.2-3.2-0.5-4.8c-2.2-11.4-12.8-19.2-24.4-19.2H328c-4.4,0-8-3.6-8-8s3.6-8,8-8h128
	c13.3,0,24-10.7,24-24c0-1.6-0.2-3.2-0.5-4.8c-2.2-11.4-12.8-19.2-24.4-19.2H328c-4.4,0-8-3.6-8-8s3.6-8,8-8h160
	c13.3,0,24-10.7,24-24c0-1.6-0.2-3.2-0.5-4.8C509.3,343.8,498.7,336,487.1,336z M384,64c17.7,0,32-14.3,32-32S401.7,0,384,0
	s-32,14.3-32,32S366.3,64,384,64z M80,416c-26.5,0-48,21.5-48,48s21.5,48,48,48s48-21.5,48-48l0,0C128,437.5,106.5,416,80,416z"/>
</svg>
