<?xml version="1.0" encoding="utf-8"?>
<!-- Generator: Adobe Illustrator 24.0.0, SVG Export Plug-In . SVG Version: 6.00 Build 0)  -->
<svg version="1.1" id="Layer_1" xmlns="http://www.w3.org/2000/svg" xmlns:xlink="http://www.w3.org/1999/xlink" x="0px" y="0px"
	 viewBox="0 0 512 512" style="enable-background:new 0 0 512 512;" xml:space="preserve">
<path d="M199.7,0c23.6,0,43.8,20.6,43.8,44.8v99.9c17-16.3,49.8-18.3,70.9,6.3c22.8-14.3,53-2.1,62.3,16.4
	c49.1-9,71.3,21.9,71.3,72.6c0,2.7-0.2,13.3-0.2,16c0.2,62-31.1,76.9-38.3,123.7c-1.8,11.7-11.9,20.3-23.7,20.3H214.3l0,0
	c-18.4,0-35.9-10.6-43.8-28.5c-13-28.9-49-95.4-77.3-107.5C74.9,256.2,64,242.6,64,224c0-34.2,35.1-57.8,66.9-44.1
	c8.4,3.6,16.7,8.3,24.9,14.2V44.8C155.8,21.3,176.4,0,199.7,0z M200,416h192c13.3,0,24,10.7,24,24v48c0,13.3-10.7,24-24,24H200
	c-13.3,0-24-10.7-24-24v-48C176,426.7,186.7,416,200,416z M368,444c-11,0-20,9-20,20s9,20,20,20s20-9,20-20S379,444,368,444z"/>
</svg>
