<?xml version="1.0" encoding="utf-8"?>
<!-- Generator: Adobe Illustrator 24.0.0, SVG Export Plug-In . SVG Version: 6.00 Build 0)  -->
<svg version="1.1" id="Layer_1" xmlns="http://www.w3.org/2000/svg" xmlns:xlink="http://www.w3.org/1999/xlink" x="0px" y="0px"
	 viewBox="0 0 512 512" style="enable-background:new 0 0 512 512;" xml:space="preserve">
<path d="M0,153.8v204.6h51.2c14.1,0,25.6-11.5,25.6-25.6V198.4l-57.7-44.6H0z M38.4,307.3c7.1,0,12.8,5.7,12.8,12.8
	c0,7.1-5.7,12.8-12.8,12.8s-12.8-5.7-12.8-12.8C25.6,313,31.3,307.3,38.4,307.3z M102.4,332.7H117l72.4,65.5
	c21.9,17.8,54.2,14.5,72-7.4l0.2-0.2l14.3,12.4c12.7,10.4,31.5,8.4,41.8-4.3c0,0,0,0,0,0l7-8.7L102.4,218.2V332.7z M435.2,153.8
	v179.1c0,14.1,11.5,25.6,25.6,25.6H512V153.8H435.2z M473.6,332.9c-7.1,0-12.8-5.7-12.8-12.8c0-7.1,5.7-12.8,12.8-12.8
	c7.1,0,12.8,5.7,12.8,12.8C486.4,327.1,480.7,332.9,473.6,332.9z M242.7,213.3l47.7-43.7c5.3-4.7,13.4-4.1,18.1,1.2
	c4.5,5.2,4.2,13-0.8,17.7l-20.9,19.1l116.5,94.6c2.3,1.9,4.4,3.9,6.3,6.2V153.6l-43.7-43.7c-4.8-4.8-11.3-7.5-18.1-7.5H279
	c-6.4,0-12.6,2.4-17.3,6.7l-70.5,64.5l-20.5-15.8l60.5-55.4h-67c-6.8,0-13.3,2.7-18.1,7.5l-16.3,16.2L36.4,53.9
	c-5.6-4.3-13.6-3.3-18,2.2c0,0,0,0,0,0L2.7,76.4C-1.6,82-0.6,90,5,94.3l470.7,363.8c5.6,4.3,13.6,3.3,18-2.2c0,0,0,0,0,0l15.7-20.2
	c4.3-5.6,3.3-13.6-2.3-18L242.7,213.3z"/>
</svg>
