<?xml version="1.0" encoding="utf-8"?>
<!-- Generator: Adobe Illustrator 24.0.0, SVG Export Plug-In . SVG Version: 6.00 Build 0)  -->
<svg version="1.1" id="Layer_1" xmlns="http://www.w3.org/2000/svg" xmlns:xlink="http://www.w3.org/1999/xlink" x="0px" y="0px"
	 viewBox="0 0 512 512" style="enable-background:new 0 0 512 512;" xml:space="preserve">
<path d="M347.8,102.4H279c-6.4,0-12.6,2.4-17.3,6.7l-78.6,72c-0.1,0.1-0.2,0.2-0.2,0.3c-13.3,12.5-13,32.4-1.7,44.8
	c10.2,11.1,31.5,14.1,44.9,2.2c0.1-0.1,0.2-0.1,0.3-0.2l63.9-58.6c5.2-4.7,13.4-4.4,18.1,0.8c4.8,5.2,4.4,13.3-0.8,18.1l-20.9,19.1
	l116.5,94.6c2.3,1.9,4.4,4,6.3,6.2V153.6l-43.7-43.7C361.1,105.1,354.6,102.4,347.8,102.4L347.8,102.4z M435.2,153.8v179.1
	c0,14.2,11.4,25.6,25.6,25.6H512V153.8H435.2z M473.6,332.9c-7,0-12.8-5.8-12.8-12.8c0-7,5.8-12.8,12.8-12.8c7,0,12.8,5.8,12.8,12.8
	C486.4,327.1,480.6,332.9,473.6,332.9z M0,358.4h51.2c14.2,0,25.6-11.4,25.6-25.6v-179H0V358.4z M38.4,307.3c7,0,12.8,5.8,12.8,12.8
	s-5.8,12.8-12.8,12.8s-12.8-5.8-12.8-12.8C25.6,313,31.4,307.3,38.4,307.3z M387.1,322.2l-119.4-97l-24,22
	c-23.8,21.7-60.2,19.6-81.4-3.5c-21.5-23.5-19.8-59.9,3.5-81.4l65.4-59.9h-67c-6.8,0-13.3,2.7-18.1,7.5l-43.8,43.7v179.1H117
	l72.4,65.5c21.9,17.8,54.2,14.5,72-7.4l0.2-0.2l14.3,12.4c12.7,10.4,31.5,8.4,41.8-4.3l25.1-30.9l4.3,3.5c11,8.9,27.1,7.3,36-3.8
	l7.6-9.4C399.8,347.2,398.1,331.1,387.1,322.2L387.1,322.2z"/>
</svg>
