<?xml version="1.0" encoding="utf-8"?>
<!-- Generator: Adobe Illustrator 24.0.0, SVG Export Plug-In . SVG Version: 6.00 Build 0)  -->
<svg version="1.1" id="Layer_1" xmlns="http://www.w3.org/2000/svg" xmlns:xlink="http://www.w3.org/1999/xlink" x="0px" y="0px"
	 viewBox="0 0 512 512" style="enable-background:new 0 0 512 512;" xml:space="preserve">
<path d="M404.6,112.6v-10.8c0-43.6-40.5-76.7-83-65.5c-25.6-49.5-94.1-47.5-118,0.7c-41.3-10.6-82.4,20.9-82.4,65v126.1
	c-20-7.4-43.3-5.1-62.1,8.9c-29.4,21.8-35.8,63.3-14.5,93.2l120,168.4c6,8.4,15.7,13.4,26.1,13.4h222.9c14.9,0,27.8-10.3,31.2-24.8
	l30.2-131c3.4-15,5.2-30.3,5.2-45.7V179C480,138.4,444.5,107,404.6,112.6z M432,310.6c0,11.7-1.3,23.5-4,34.9L400.7,464H198.8
	L83.6,302.3c-14.4-20.3,15-42.8,29.4-22.6l27.1,38.1c9,12.6,29,6.3,29-9.3V102c0-25.6,36.6-24.8,36.6,0.7V256c0,8.8,7.2,16,16,16
	h6.9c8.8,0,16-7.2,16-16V67c0-25.7,36.6-24.8,36.6,0.7V256c0,8.8,7.2,16,16,16h6.9c8.8,0,16-7.2,16-16V101.1
	c0-25.7,36.6-24.8,36.6,0.7V256c0,8.8,7.2,16,16,16h6.9c8.8,0,16-7.2,16-16v-76.3c0-26.2,36.6-25.6,36.6-0.7L432,310.6L432,310.6z"
	/>
</svg>
