<?xml version="1.0" encoding="utf-8"?>
<!-- Generator: Adobe Illustrator 24.0.0, SVG Export Plug-In . SVG Version: 6.00 Build 0)  -->
<svg version="1.1" id="Layer_1" xmlns="http://www.w3.org/2000/svg" xmlns:xlink="http://www.w3.org/1999/xlink" x="0px" y="0px"
	 viewBox="0 0 512 512" style="enable-background:new 0 0 512 512;" xml:space="preserve">
<path d="M440,216c-22.1,0-40,17.9-40,40h-8v-32c0-22.1-17.9-40-40-40s-40,17.9-40,40v32h-8V48c0-26.5-21.5-48-48-48s-48,21.5-48,48
	v208h-13.6L124.7,78.4C115,53.8,87.1,41.6,62.5,51.3C37.8,61,25.6,88.9,35.3,113.6l74.8,190.3L79,328.8c-15.4,12.3-19.5,34-9.7,51.1
	l64,112c7.1,12.5,20.4,20.2,34.7,20.2h240c18.6,0,34.7-12.8,38.9-30.8l32-136c0.7-3,1.1-6.1,1.1-9.2v-80
	C480,233.9,462.1,216,440,216z"/>
</svg>
