<?xml version="1.0" encoding="utf-8"?>
<!-- Generator: Adobe Illustrator 24.0.0, SVG Export Plug-In . SVG Version: 6.00 Build 0)  -->
<svg version="1.1" id="Layer_1" xmlns="http://www.w3.org/2000/svg" xmlns:xlink="http://www.w3.org/1999/xlink" x="0px" y="0px"
	 viewBox="0 0 512 512" style="enable-background:new 0 0 512 512;" xml:space="preserve">
<path d="M440.8,128c-22.4-0.4-40.8,18.4-40.8,40.8V256h-8V79.8c0-22.4-18.4-41.2-40.8-40.8C329.5,39.4,312,57.2,312,79v177h-8V40.8
	c0-22.4-18.4-41.2-40.8-40.8C241.5,0.4,224,18.2,224,40v216h-8V80.8c0-22.4-18.4-41.2-40.8-40.8C153.5,40.4,136,58.2,136,80v236
	l-31.6-43.5c-13-17.9-38-21.8-55.9-8.8c-17.9,13-21.8,38-8.8,55.9l125.6,172.7c9,12.4,23.5,19.8,38.8,19.8h197.6
	c22.3,0,41.6-15.3,46.7-37l26.5-112.7c3.4-14.4,5.1-29.2,5.1-44V168C480,146.2,462.5,128.4,440.8,128z"/>
</svg>
