<?xml version="1.0" encoding="utf-8"?>
<!-- Generator: Adobe Illustrator 24.0.0, SVG Export Plug-In . SVG Version: 6.00 Build 0)  -->
<svg version="1.1" id="Layer_1" xmlns="http://www.w3.org/2000/svg" xmlns:xlink="http://www.w3.org/1999/xlink" x="0px" y="0px"
	 viewBox="0 0 512 512" style="enable-background:new 0 0 512 512;" xml:space="preserve">
<path d="M394.1,192c-13.7-21.6-38.8-34-65-30.3V74c0-40.8-32.8-74-73.1-74s-73.1,33.2-73.1,74l9.1,94l-18.7-78.8
	c-14.7-38.3-57.5-57-95.1-41.9C40.7,62.2,22.4,105,37,142.9l55.8,144.9c-30.6,25-44,57.8-24.7,92.2l54.9,98c11.7,21,33.8,34,57.7,34
	h205.7c30.7,0,57.6-21.4,64.6-51.8l27.4-119c1.1-5,1.7-10.1,1.7-15.2l0-70C480,211,436.7,178.7,394.1,192z M432,326
	c0,1.5-0.2,3-0.5,4.4l-27.4,119c-2,8.6-9.3,14.6-17.8,14.6H180.6c-6.5,0-12.5-3.6-15.8-9.4l-54.9-98c-4.6-8.1-2.6-18.7,4.5-24.5
	l26.6-21.8c5.4-4.4,7.3-11.7,4.8-18.1L81.8,125.6c-12.6-32.7,34.6-50.8,46.7-19.2l59.8,155.4c2.4,6.2,8.3,10.3,14.9,10.3h11.6
	c8.8,0,16-7.2,16-16V74c0-34.4,50.3-34.4,50.3,0v182c0,8.8,7.2,16,16,16h6.9c8.8,0,16-7.2,16-16v-28c0-25.1,36.6-25.2,36.6,0v28
	c0,8.8,7.2,16,16,16h6.9c8.8,0,16-7.2,16-16c0-25.1,36.6-25.2,36.6,0L432,326L432,326z"/>
</svg>
