<?xml version="1.0" encoding="utf-8"?>
<!-- Generator: Adobe Illustrator 24.0.0, SVG Export Plug-In . SVG Version: 6.00 Build 0)  -->
<svg version="1.1" id="Layer_1" xmlns="http://www.w3.org/2000/svg" xmlns:xlink="http://www.w3.org/1999/xlink" x="0px" y="0px"
	 viewBox="0 0 512 512" style="enable-background:new 0 0 512 512;" xml:space="preserve">
<path d="M163.8,241.9c-8.5-11.3-24.6-13.6-35.8-5.1c-11.3,8.5-13.6,24.6-5.1,35.8l30.5,40.6c3.8,5.1,3.3,12.2-1.2,16.7l-10.2,10.2
	c-5.4,5.4-14.1,5-18.9-0.9l-71.8-86.2V134.4c0-14.2-11.4-25.6-25.6-25.6S0,120.2,0,134.4v174.7c0,8.7,3,17.2,8.4,24l83.3,107.4
	c4,5.2,6.7,11.1,8.3,17.4c1.4,5.5,6.5,9.3,12.2,9.3h105.4c7,0,12.8-5.8,12.8-12.8v-89.6c0-22.2-7.2-43.7-20.5-61.4L163.8,241.9
	L163.8,241.9z M486.4,108.8c-14.2,0-25.6,11.4-25.6,25.6v118.7L389,339.4c-4.8,5.8-13.6,6.2-18.9,0.9L359.8,330
	c-4.5-4.5-5-11.6-1.2-16.7l30.5-40.6c8.5-11.3,6.2-27.4-5.1-35.8c-11.3-8.5-27.4-6.2-35.8,5.1l-46.1,61.4
	c-13.3,17.8-20.5,39.3-20.5,61.4v89.6c0,7,5.8,12.8,12.8,12.8h105.4c5.7,0,10.8-3.8,12.2-9.3c1.6-6.2,4.3-12.2,8.3-17.4l83.3-107.4
	c5.4-6.8,8.4-15.3,8.4-24V134.4C512,120.2,500.6,108.8,486.4,108.8z"/>
</svg>
