<?xml version="1.0" encoding="utf-8"?>
<!-- Generator: Adobe Illustrator 24.0.0, SVG Export Plug-In . SVG Version: 6.00 Build 0)  -->
<svg version="1.1" id="Layer_1" xmlns="http://www.w3.org/2000/svg" xmlns:xlink="http://www.w3.org/1999/xlink" x="0px" y="0px"
	 viewBox="0 0 512 512" style="enable-background:new 0 0 512 512;" xml:space="preserve">
<path d="M137.6,83.2v86.2c-7.4-1.5-14.9-2.2-22.4-2.2c-47.9,0-83.2,35.1-83.2,92c0,45.3,48.5,57,78.8,75.7
	c12.4,7.7,23.3,17,33.3,25.9l0.1,0.1l0.1,0.1c17.5,15.3,23.7,23.2,23.7,30.2v2.7c-5,5.7-8,13.5-8,22.1v64c0,17.7,12.9,32,28.8,32
	h230.4c15.9,0,28.8-14.3,28.8-32v-64c0-8.6-3-16.4-8-22.1v-2.7c0-28.7,40-67.1,40-127.2v-21.3c0-62.5-38.7-98.8-91.1-99.9
	c-17.8-12.5-40.8-18.5-62.8-16c-7-3.6-14.4-6.2-22.1-7.9V83.2C304,37.8,266.4,0,220.8,0C175.7,0,137.6,38.1,137.6,83.2z M256,83.2
	v91c14.7-12.8,42.8-14.4,61,4.9c19.6-11.2,45.6-1.7,53.6,12.9c39.1-6.5,61.3,10.1,61.3,50.6V264c0,45.5-35.9,77.2-39.7,120H215.6
	c-3-25.2-21.2-43-39.6-59.1c-12.6-11.3-25.3-21.7-39.9-30.8C112.7,279.6,80,268,80,259.2c0-23.4,8.8-44,35.2-44
	c35.2,0,53.1,26.4,70.4,26.4V83.2c0-18.4,16.5-35.2,35.2-35.2C239.8,48,256,64.2,256,83.2z M384,424c13.3,0,24,10.7,24,24
	s-10.7,24-24,24s-24-10.7-24-24S370.7,424,384,424z"/>
</svg>
