<?xml version="1.0" encoding="utf-8"?>
<!-- Generator: Adobe Illustrator 24.0.0, SVG Export Plug-In . SVG Version: 6.00 Build 0)  -->
<svg version="1.1" id="Layer_1" xmlns="http://www.w3.org/2000/svg" xmlns:xlink="http://www.w3.org/1999/xlink" x="0px" y="0px"
	 viewBox="0 0 512 512" style="enable-background:new 0 0 512 512;" xml:space="preserve">
<path d="M155.8,467.2V318c-8.2,5.8-16.6,10.6-24.9,14.2C99.1,345.8,64,322.2,64,288c0-18.6,10.9-32.2,29.1-40
	c28.3-12.1,64.3-78.6,77.3-107.5c8-17.9,25.5-28.5,43.8-28.5l0,0h171.5c11.8,0,21.9,8.6,23.7,20.3c7.3,46.8,38.5,61.8,38.3,123.7
	c0,2.7,0.2,13.3,0.2,16c0,50.7-22.1,81.6-71.3,72.6c-9.3,18.6-39.5,30.7-62.3,16.5c-21.2,24.6-53.9,22.6-70.9,6.3v99.9
	c0,24.1-20.2,44.8-43.8,44.8C176.4,512,155.8,490.6,155.8,467.2z M176,72V24c0-13.3,10.7-24,24-24h192c13.3,0,24,10.7,24,24v48
	c0,13.3-10.7,24-24,24H200C186.7,96,176,85.3,176,72z M388,48c0-11-9-20-20-20s-20,9-20,20s9,20,20,20S388,59,388,48z"/>
</svg>
