<?xml version="1.0" encoding="utf-8"?>
<!-- Generator: Adobe Illustrator 24.0.0, SVG Export Plug-In . SVG Version: 6.00 Build 0)  -->
<svg version="1.1" id="Layer_1" xmlns="http://www.w3.org/2000/svg" xmlns:xlink="http://www.w3.org/1999/xlink" x="0px" y="0px"
	 viewBox="0 0 512 512" style="enable-background:new 0 0 512 512;" xml:space="preserve">
<path d="M286.9,207.7l116.5,94.6c9.3,7.7,15.6,18.4,17.8,30.3h78.1c7.1,0,12.8-5.7,12.8-12.8V166.3c0-7-5.8-12.7-12.8-12.7h-89.6
	l-43.7-43.7c-4.8-4.8-11.3-7.5-18.1-7.5h-68.7c-6.4,0-12.6,2.4-17.3,6.7l-70.5,64.5l-20.6-15.9l60.5-55.4h-67
	c-6.8,0-13.3,2.7-18.1,7.5l-16.3,16.2L36.4,53.9c-5.6-4.3-13.6-3.3-18,2.2c0,0,0,0,0,0L2.7,76.4C-1.6,82-0.6,90,5,94.3l470.7,363.8
	c5.6,4.3,13.6,3.3,18-2.2c0,0,0,0,0,0l15.7-20.2c4.3-5.6,3.3-13.6-2.2-18L242.7,213.4l26.2-23.9l21.6-19.8
	c5.2-4.8,13.3-4.4,18.1,0.8c4.8,5.2,4.4,13.3-0.8,18.1L286.9,207.7z M12.8,153.6c-7.1,0-12.8,5.7-12.8,12.8v153.5
	c0,7.1,5.7,12.8,12.8,12.8H117l72.4,65.5c21.9,17.8,54.2,14.5,72-7.4l0.2-0.2l14.3,12.4c12.7,10.4,31.5,8.4,41.8-4.3c0,0,0,0,0,0
	l7-8.7L18.9,153.6H12.8z"/>
</svg>
