<?xml version="1.0" encoding="utf-8"?>
<!-- Generator: Adobe Illustrator 24.0.0, SVG Export Plug-In . SVG Version: 6.00 Build 0)  -->
<svg version="1.1" id="Layer_1" xmlns="http://www.w3.org/2000/svg" xmlns:xlink="http://www.w3.org/1999/xlink" x="0px" y="0px"
	 viewBox="0 0 512 512" style="enable-background:new 0 0 512 512;" xml:space="preserve">
<path d="M256,256c47.1,0,85.3-37.4,85.3-83.6c0-35.6-50.8-107.3-74-138.3c-5.7-7.6-17.1-7.6-22.8,0c-23.2,31-74,102.7-74,138.3
	C170.7,218.6,208.9,256,256,256z M502.5,320.1c-10.5-9.5-26.8-8.9-37.9,0l-82.1,65.7c-10,8.1-22.6,12.4-35.6,12.4H241.8
	c-7.8,0-14.2-6.4-14.2-14.2s6.4-14.2,14.2-14.2h69.6c14.1,0,27.3-9.7,29.6-23.6c2.9-17.8-10.8-33.2-28.1-33.2H170.7
	c-24,0-47.2,8.3-65.9,23.4l-41.3,33.5H14.2C6.4,369.8,0,376.2,0,384v85.3c0,7.8,6.4,14.2,14.2,14.2h317.1c12.9,0,25.4-4.4,35.6-12.4
	l134.4-107.5C514.8,352.8,515.9,332.2,502.5,320.1z"/>
</svg>
