<?xml version="1.0" encoding="utf-8"?>
<!-- Generator: Adobe Illustrator 24.0.0, SVG Export Plug-In . SVG Version: 6.00 Build 0)  -->
<svg version="1.1" id="Layer_1" xmlns="http://www.w3.org/2000/svg" xmlns:xlink="http://www.w3.org/1999/xlink" x="0px" y="0px"
	 viewBox="0 0 512 512" style="enable-background:new 0 0 512 512;" xml:space="preserve">
<path d="M185.6,179.2c-3.5,0-6.4,2.9-6.4,6.4v96h25.6v-96c0-3.5-2.9-6.4-6.4-6.4H185.6z M134.4,179.2c-3.5,0-6.4,2.9-6.4,6.4v96
	h25.6v-96c0-3.5-2.9-6.4-6.4-6.4H134.4z M313.6,179.2c-3.5,0-6.4,2.9-6.4,6.4v96h25.6v-96c0-3.5-2.9-6.4-6.4-6.4H313.6z
	 M364.8,179.2c-3.5,0-6.4,2.9-6.4,6.4v96H384v-96c0-3.5-2.9-6.4-6.4-6.4H364.8z M435.2,185.6c0-3.5-2.9-6.4-6.4-6.4H416
	c-3.5,0-6.4,2.9-6.4,6.4v96h25.6V185.6z M83.2,179.2c-3.5,0-6.4,2.9-6.4,6.4v96h25.6v-96c0-3.5-2.9-6.4-6.4-6.4H83.2z M499.2,179.2
	h-25.6c-7.1,0-12.8,5.7-12.8,12.8v89.6c0,14.1-11.5,25.6-25.6,25.6H281.6V153.6c0-7.1-5.7-12.8-12.8-12.8h-25.6
	c-7.1,0-12.8,5.7-12.8,12.8v153.6H76.8c-14.1,0-25.6-11.5-25.6-25.6V192c0-7.1-5.7-12.8-12.8-12.8H12.8C5.7,179.2,0,184.9,0,192
	v89.6c0,42.4,34.4,76.8,76.8,76.8h153.6v51.2H89.6c-7.1,0-12.8,5.7-12.8,12.8V448c0,7.1,5.7,12.8,12.8,12.8h332.8
	c7.1,0,12.8-5.7,12.8-12.8v-25.6c0-7.1-5.7-12.8-12.8-12.8H281.6v-51.2h153.6c42.4,0,76.8-34.4,76.8-76.8V192
	C512,184.9,506.3,179.2,499.2,179.2z M486.4,153.6c10.6,0,19.2-9.6,19.2-21.3s-19.2-42.7-19.2-42.7s-19.2,30.9-19.2,42.7
	S475.8,153.6,486.4,153.6z M25.6,153.6c10.6,0,19.2-9.6,19.2-21.3S25.6,89.6,25.6,89.6S6.4,120.5,6.4,132.3S15,153.6,25.6,153.6z
	 M256,115.2c10.6,0,19.2-9.6,19.2-21.3S256,51.2,256,51.2s-19.2,30.9-19.2,42.7S245.4,115.2,256,115.2z M89.6,153.6
	c10.6,0,19.2-9.6,19.2-21.3S89.6,89.6,89.6,89.6s-19.2,30.9-19.2,42.7S79,153.6,89.6,153.6z M140.8,153.6c10.6,0,19.2-9.6,19.2-21.3
	s-19.2-42.7-19.2-42.7s-19.2,30.9-19.2,42.7S130.2,153.6,140.8,153.6z M192,153.6c10.6,0,19.2-9.6,19.2-21.3S192,89.6,192,89.6
	s-19.2,30.9-19.2,42.7S181.4,153.6,192,153.6z M320,153.6c10.6,0,19.2-9.6,19.2-21.3S320,89.6,320,89.6s-19.2,30.9-19.2,42.7
	S309.4,153.6,320,153.6z M371.2,153.6c10.6,0,19.2-9.6,19.2-21.3s-19.2-42.7-19.2-42.7S352,120.5,352,132.3S360.6,153.6,371.2,153.6
	z M422.4,153.6c10.6,0,19.2-9.6,19.2-21.3s-19.2-42.7-19.2-42.7s-19.2,30.9-19.2,42.7S411.8,153.6,422.4,153.6z"/>
</svg>
