<?xml version="1.0" encoding="utf-8"?>
<!-- Generator: Adobe Illustrator 24.0.0, SVG Export Plug-In . SVG Version: 6.00 Build 0)  -->
<svg version="1.1" id="Layer_1" xmlns="http://www.w3.org/2000/svg" xmlns:xlink="http://www.w3.org/1999/xlink" x="0px" y="0px"
	 viewBox="0 0 512 512" style="enable-background:new 0 0 512 512;" xml:space="preserve">
<path d="M392,291.9c-7.6-45.9-31.6-186.3-78.2-186.3c-11.2,0-21.2,4.7-29.6,11.2c-16.7,12.7-39.8,12.7-56.5,0
	c-8.4-6.4-18.4-11.2-29.6-11.2c-46.6,0-70.6,140.4-78.2,186.3c31,10.1,75,18.5,136,18.5S361,302,392,291.9z M506.3,262.2
	c-4.9-3.3-11.4-2.8-15.8,1.2c-0.8,0.7-81,72.6-234.5,72.6c-152.7,0-233.8-72-234.6-72.7c-5.2-4.7-13.3-4.3-18.1,0.9
	c-3.2,3.5-4.2,8.5-2.5,13c0.6,1.6,61.9,161.2,255.2,161.2s254.6-159.6,255.2-161.2C513.3,271.7,511.2,265.5,506.3,262.2L506.3,262.2
	z"/>
</svg>
