<?xml version="1.0" encoding="utf-8"?>
<!-- Generator: Adobe Illustrator 24.0.0, SVG Export Plug-In . SVG Version: 6.00 Build 0)  -->
<svg version="1.1" id="Layer_1" xmlns="http://www.w3.org/2000/svg" xmlns:xlink="http://www.w3.org/1999/xlink" x="0px" y="0px"
	 viewBox="0 0 512 512" style="enable-background:new 0 0 512 512;" xml:space="preserve">
<path d="M208.6,287.1c-22.9-18.4-49.6-28-77.1-28c-61.9,0-114.3,50.2-130.4,124.8C-1.7,397.2,0.8,411,8,421.8
	c7,10.5,17.5,16.5,28.7,16.5h436.9c-82.6,0-124-29.7-186.6-83.6L208.6,287.1z M396.4,272.5l-21.6-125.3
	c-4.8-27.9-31.2-46.6-59.1-41.8c-0.7,0.1-1.3,0.2-2,0.4l-152.9,32.5c-21.7,4.6-37.9,22.6-40.3,44.6l-5.5,52.2
	c5.5-0.7,11-1.6,16.6-1.6c33.4,0,65.6,11.6,93.8,34.3l78.4,67.6c56.9,49,92.2,77.4,169.8,77.4c21.2,0,38.4-17.2,38.4-38.4
	C512,354,488.3,278.8,396.4,272.5L396.4,272.5z"/>
</svg>
