<?xml version="1.0" encoding="utf-8"?>
<!-- Generator: Adobe Illustrator 24.0.0, SVG Export Plug-In . SVG Version: 6.00 Build 0)  -->
<svg version="1.1" id="Layer_1" xmlns="http://www.w3.org/2000/svg" xmlns:xlink="http://www.w3.org/1999/xlink" x="0px" y="0px"
	 viewBox="0 0 512 512" style="enable-background:new 0 0 512 512;" xml:space="preserve">
<path d="M512,298.7V384c0,23.6-19.1,42.7-42.7,42.7H42.7C19.1,426.7,0,407.6,0,384v-85.3C0,275.1,19.1,256,42.7,256h426.7
	C492.9,256,512,275.1,512,298.7z M469.3,227.6c9.4,0,18.7,1.9,27.4,5.5l-85.8-128.7c-7.9-11.9-21.2-19-35.5-19H136.6
	c-14.3,0-27.6,7.1-35.5,19L15.3,233c8.7-3.6,18-5.5,27.4-5.5H469.3z M426.7,312.9c-15.7,0-28.4,12.7-28.4,28.4
	c0,15.7,12.7,28.4,28.4,28.4c15.7,0,28.4-12.7,28.4-28.4C455.1,325.6,442.4,312.9,426.7,312.9z M341.3,312.9
	c-15.7,0-28.4,12.7-28.4,28.4c0,15.7,12.7,28.4,28.4,28.4c15.7,0,28.4-12.7,28.4-28.4C369.8,325.6,357,312.9,341.3,312.9z"/>
</svg>
