<?xml version="1.0" encoding="utf-8"?>
<!-- Generator: Adobe Illustrator 24.0.0, SVG Export Plug-In . SVG Version: 6.00 Build 0)  -->
<svg version="1.1" id="Layer_1" xmlns="http://www.w3.org/2000/svg" xmlns:xlink="http://www.w3.org/1999/xlink" x="0px" y="0px"
	 viewBox="0 0 512 512" style="enable-background:new 0 0 512 512;" xml:space="preserve">
<path d="M504.4,237.9L411,103.6c-8-11.5-21.1-18.3-35-18.3H136.1c-14,0-27,6.8-35,18.3L7.6,237.9c-5,7.2-7.6,15.7-7.6,24.4V384
	c0,23.6,19.1,42.7,42.7,42.7h426.7c23.6,0,42.7-19.1,42.7-42.7V262.3C512,253.6,509.3,245.1,504.4,237.9L504.4,237.9z M136.1,128
	h239.9l69.3,99.6H66.8L136.1,128z M469.3,384H42.7V270.2h426.7V384z M440.9,327.1c0,15.7-12.7,28.4-28.4,28.4
	c-15.7,0-28.4-12.7-28.4-28.4c0-15.7,12.7-28.4,28.4-28.4C428.2,298.7,440.9,311.4,440.9,327.1z M355.6,327.1
	c0,15.7-12.7,28.4-28.4,28.4c-15.7,0-28.4-12.7-28.4-28.4c0-15.7,12.7-28.4,28.4-28.4C342.8,298.7,355.6,311.4,355.6,327.1z"/>
</svg>
