<?xml version="1.0" encoding="utf-8"?>
<!-- Generator: Adobe Illustrator 24.0.0, SVG Export Plug-In . SVG Version: 6.00 Build 0)  -->
<svg version="1.1" id="Layer_1" xmlns="http://www.w3.org/2000/svg" xmlns:xlink="http://www.w3.org/1999/xlink" x="0px" y="0px"
	 viewBox="0 0 512 512" style="enable-background:new 0 0 512 512;" xml:space="preserve">
<path d="M363.3,306.6c15.6-3,25.3-20,18.5-35.4C365,233.5,343,149.8,323.3,121.8c-31.2-44.2-81.9-70.6-136-70.6h-33.7
	c-30.8,0-60.9,9.3-86.3,26.6l-31-23.9c-5.6-4.3-13.6-3.3-18,2.2c0,0,0,0,0,0L2.7,76.4C-1.6,82-0.6,90,4.9,94.3l470.7,363.8
	c5.6,4.3,13.6,3.3,18-2.2c0,0,0,0,0,0l15.7-20.2c4.3-5.6,3.3-13.6-2.2-18L363.3,306.6z M250.7,219.6l-39.8-30.8
	c4.7-5.7,11.5-9.6,19.5-9.6c14.1,0,25.6,11.5,25.6,25.6C256,210.4,253.8,215.3,250.7,219.6z M492.8,294.4c10.6,0,19.2-8.6,19.2-19.2
	c0-10.6-8.6-19.2-19.2-19.2c-10.6,0-19.2,8.6-19.2,19.2C473.6,285.8,482.2,294.4,492.8,294.4z M441.6,345.6
	c10.6,0,19.2-8.6,19.2-19.2s-8.6-19.2-19.2-19.2c-10.6,0-19.2,8.6-19.2,19.2S431,345.6,441.6,345.6z M230.4,358.4
	c0-14.1,11.5-25.6,25.6-25.6h15.6l-255-197.1C5.7,157.1,0,180.8,0,204.8c0,45.4,19.8,86.1,51.2,114.3v141.7h179.2v-25.6h51.2
	c28.3,0,51.2-22.9,51.2-51.2H256C241.9,384,230.4,372.5,230.4,358.4z M492.8,339.2c-10.6,0-19.2,8.6-19.2,19.2s8.6,19.2,19.2,19.2
	c10.6,0,19.2-8.6,19.2-19.2S503.4,339.2,492.8,339.2z"/>
</svg>
