<?xml version="1.0" encoding="utf-8"?>
<!-- Generator: Adobe Illustrator 24.0.0, SVG Export Plug-In . SVG Version: 6.00 Build 0)  -->
<svg version="1.1" id="Layer_1" xmlns="http://www.w3.org/2000/svg" xmlns:xlink="http://www.w3.org/1999/xlink" x="0px" y="0px"
	 viewBox="0 0 512 512" style="enable-background:new 0 0 512 512;" xml:space="preserve">
<path d="M492.8,294.4c10.6,0,19.2-8.6,19.2-19.2c0-10.6-8.6-19.2-19.2-19.2c-10.6,0-19.2,8.6-19.2,19.2
	C473.6,285.8,482.2,294.4,492.8,294.4z M441.6,384c-10.6,0-19.2,8.6-19.2,19.2c0,10.6,8.6,19.2,19.2,19.2s19.2-8.6,19.2-19.2l0,0
	C460.8,392.6,452.2,384,441.6,384z M390.4,339.2c-10.6,0-19.2,8.6-19.2,19.2s8.6,19.2,19.2,19.2s19.2-8.6,19.2-19.2
	S401,339.2,390.4,339.2z M492.8,422.4c-10.6,0-19.2,8.6-19.2,19.2s8.6,19.2,19.2,19.2c10.6,0,19.2-8.6,19.2-19.2
	S503.4,422.4,492.8,422.4L492.8,422.4z M492.8,339.2c-10.6,0-19.2,8.6-19.2,19.2s8.6,19.2,19.2,19.2c10.6,0,19.2-8.6,19.2-19.2
	S503.4,339.2,492.8,339.2z M441.6,307.2c-10.6,0-19.2,8.6-19.2,19.2s8.6,19.2,19.2,19.2s19.2-8.6,19.2-19.2S452.2,307.2,441.6,307.2
	z M381.8,271.2C365,233.5,343,149.8,323.3,121.8c-31.2-44.2-81.9-70.6-136-70.6h-33.7C68.8,51.2,0,120,0,204.8
	c0,45.4,19.8,86.1,51.2,114.3v141.7h179.2v-25.6h51.2c28.3,0,51.2-22.9,51.2-51.2H256c-14.1,0-25.6-11.5-25.6-25.6
	c0-14.1,11.5-25.6,25.6-25.6h76.8v-25.6h25.6c14.1,0,25.6-11.5,25.6-25.6C384,278,383.2,274.5,381.8,271.2z M230.4,230.4
	c-14.1,0-25.6-11.5-25.6-25.6s11.5-25.6,25.6-25.6c14.1,0,25.6,11.5,25.6,25.6C256,218.9,244.5,230.4,230.4,230.4z"/>
</svg>
