<?xml version="1.0" encoding="utf-8"?>
<!-- Generator: Adobe Illustrator 24.0.0, SVG Export Plug-In . SVG Version: 6.00 Build 0)  -->
<svg version="1.1" id="Layer_1" xmlns="http://www.w3.org/2000/svg" xmlns:xlink="http://www.w3.org/1999/xlink" x="0px" y="0px"
	 viewBox="0 0 512 512" style="enable-background:new 0 0 512 512;" xml:space="preserve">
<path d="M243.2,358.4h217.6c14.1,0,25.6-11.5,25.6-25.6c0-99-80.2-179.2-179.2-179.2v-51.2H448c7.1,0,12.8-5.7,12.8-12.8V64
	c0-7.1-5.7-12.8-12.8-12.8H115.2c-7.1,0-12.8,5.7-12.8,12.8v25.6c0,7.1,5.7,12.8,12.8,12.8H256v51.2H89.6L55,107.5
	c-2.4-3.2-6.2-5.1-10.2-5.1h-32c-8.3,0-14.4,7.8-12.4,15.9l25.2,86.5l128,51.2l69.1,92.2C227.6,354.6,235.1,358.4,243.2,358.4z
	 M332.8,207.6c50,10.2,89.6,49.5,99.8,99.6h-99.8V207.6z M508.3,418.2l-17.7-17.8c-5-5-13-4.9-18.1,0c-5.7,5.4-11.1,9-19.7,9H192
	c-7.1,0-12.8,5.7-12.8,12.8V448c0,7.1,5.7,12.8,12.8,12.8h260.8c11.9,0,28.2-0.4,54.8-23.6C513.1,432.3,513.6,423.5,508.3,418.2z"/>
</svg>
