<?xml version="1.0" encoding="utf-8"?>
<!-- Generator: Adobe Illustrator 24.0.0, SVG Export Plug-In . SVG Version: 6.00 Build 0)  -->
<svg version="1.1" id="Layer_1" xmlns="http://www.w3.org/2000/svg" xmlns:xlink="http://www.w3.org/1999/xlink" x="0px" y="0px"
	 viewBox="0 0 512 512" style="enable-background:new 0 0 512 512;" xml:space="preserve">
<path d="M0,466.8l94,30.1l33.4-33.4l-63.1-63.1L0,466.8z M117.3,240.9c-10.1,8.9-14.1,22.9-10.2,35.9l12.3,40.3L71.5,365l90.6,90.6
	l47.9-47.9l40.2,12.3c12.9,4,27,0,35.9-10.1l33.5-39.2L156.4,207.6L117.3,240.9L117.3,240.9z M496.9,89.7l-59.5-59.5
	c-19.3-19.3-50.2-20.3-70.7-2.2l-187.3,160l159.8,159.8l160-187.3C517.1,139.9,516.2,109,496.9,89.7L496.9,89.7z"/>
</svg>
