<?xml version="1.0" encoding="utf-8"?>
<!-- Generator: Adobe Illustrator 24.0.0, SVG Export Plug-In . SVG Version: 6.00 Build 0)  -->
<svg version="1.1" id="Layer_1" xmlns="http://www.w3.org/2000/svg" xmlns:xlink="http://www.w3.org/1999/xlink" x="0px" y="0px"
	 viewBox="0 0 512 512" style="enable-background:new 0 0 512 512;" xml:space="preserve">
<path d="M464.9,128.2c-22.1-0.1-42,14.1-61.3,21.3c-11.6-27.6-39-47.1-70.8-47.1c-9,0-17.6,1.8-25.6,4.7V96
	c0-10.6-8.6-19.2-19.2-19.2h-12.8c-10.6,0-19.2,8.6-19.2,19.2v39.2c-27.2-20.3-63-32.8-102.4-32.8C68.8,102.4,0,159.7,0,230.4v192
	c0,7.1,5.7,12.8,12.8,12.8H64c7.1,0,12.8-5.7,12.8-12.8v-56.6c25.9,11.5,56.6,18.2,89.6,18.2s63.7-6.7,89.6-18.2v56.6
	c0,7.1,5.7,12.8,12.8,12.8H320c7.1,0,12.8-5.7,12.8-12.8V281.6h102.4v25.6c0,7.1,5.7,12.8,12.8,12.8h25.6c7.1,0,12.8-5.7,12.8-12.8
	v-25.6c14.1,0,25.6-11.5,25.6-25.6v-73.6C512,155.1,492.2,128.3,464.9,128.2L464.9,128.2z M358.4,192c-7.1,0-12.8-5.7-12.8-12.8
	c0-7.1,5.7-12.8,12.8-12.8s12.8,5.7,12.8,12.8C371.2,186.3,365.5,192,358.4,192z"/>
</svg>
