<?xml version="1.0" encoding="utf-8"?>
<!-- Generator: Adobe Illustrator 24.0.0, SVG Export Plug-In . SVG Version: 6.00 Build 0)  -->
<svg version="1.1" id="Layer_1" xmlns="http://www.w3.org/2000/svg" xmlns:xlink="http://www.w3.org/1999/xlink" x="0px" y="0px"
	 viewBox="0 0 512 512" style="enable-background:new 0 0 512 512;" xml:space="preserve">
<path d="M201.3,177.3c0-1.5-0.7-2.2-2.2-2.2h-32.7c-1.3,0-2.2,1.1-2.2,2.2v161.4c0,1.1,0.9,2.2,2.2,2.2H199c1.5,0,2.2-0.7,2.2-2.2
	L201.3,177.3z M125.2,185.6c-12.9-9.4-29-14.3-48.2-14.4c-14.5-0.1-27.7,3-39.8,9.1v-65c0-1.4-0.7-2.2-2.2-2.2H2.2
	c-1.4,0-2.2,0.7-2.2,2.2v223.4c0,1.5,0.7,2.2,2.2,2.2H35c1.5,0,2.2-0.7,2.2-2.2V229.8c0-0.6-2.2-21.6,36.6-21.6
	c38.8,0,36.6,20.9,36.6,21.6v98.1c0,7.2,5.8,13,13.1,13h21.8c1.4,0,2.2-0.7,2.2-2.2V229.8C147.6,211.1,140.2,196.4,125.2,185.6z
	 M507.9,273.7c-5.4-12.6-14.7-21.6-27.9-27.3l-46.1-20.2c-6.9-2.9-7.4-9-2.1-12.9c5.9-4.4,35.4-11.1,67.2,5.4
	c1.4,0.8,3.2-0.2,3.2-1.9V181c0-1-0.5-1.7-1.5-2.1c-14.2-5.3-28.9-7.9-44.1-7.9c-21.2,0-36.2,4.6-46.8,12.3
	c-0.4,0.3-22.7,16-18.2,43c2.7,15.7,12.6,27.4,29.8,34.9l42.9,18.8c9.3,4.1,12.2,10.6,9.8,17c-3,7.3-10.6,10.9-29.2,10.9
	c-19.4,0-35.8-7.1-46.7-15.3c-1.7-1.1-3.5,0.2-3.5,1.8v27.5c0,8.3,3.9,13.8,11.7,16.6c12.5,4.4,25.3,6.6,38.6,6.6
	c10.2,0,20.6-1,29-3.4c0.6-0.2,28.8-7.1,36.5-36.6C513.2,294.2,512.3,283.8,507.9,273.7L507.9,273.7z M301,171
	c-25.4,0-83.4,16.1-83.4,82.8v146.8c0,0.6,0.5,2.2,2.2,2.2h32.7c1.5,0,2.2-0.7,2.2-2.2v-71c13.2,10.2,28.6,15.3,46.2,15.3
	c48.4,0,87-38.8,87-87C387.9,209.7,349.3,171,301,171L301,171z M301,307.8c-13.8,0-25.5-4.9-35.2-14.6c-9.8-9.8-14.6-21.4-14.6-35.2
	c0-27.6,22.1-49.8,49.8-49.8c27.6,0,49.8,22.1,49.8,49.8C350.8,285.4,328.9,307.8,301,307.8z M182.6,109.2
	c-12.7,0-23,10.3-23.1,23.1c0,12.5,10.2,23.1,23.1,23.1s23.1-10.5,23.1-23.1C205.8,119.4,195.4,109.2,182.6,109.2L182.6,109.2z"/>
</svg>
