<?xml version="1.0" encoding="utf-8"?>
<!-- Generator: Adobe Illustrator 24.0.0, SVG Export Plug-In . SVG Version: 6.00 Build 0)  -->
<svg version="1.1" id="Layer_1" xmlns="http://www.w3.org/2000/svg" xmlns:xlink="http://www.w3.org/1999/xlink" x="0px" y="0px"
	 viewBox="0 0 512 512" style="enable-background:new 0 0 512 512;" xml:space="preserve">
<path d="M176,192c26.5,0,48-21.5,48-48s-21.5-48-48-48s-48,21.5-48,48S149.5,192,176,192z M288,144c0,26.5,21.5,48,48,48
	s48-21.5,48-48s-21.5-48-48-48S288,117.5,288,144z M256,96c26.5,0,48-21.5,48-48S282.5,0,256,0s-48,21.5-48,48S229.5,96,256,96z
	 M239.8,235.1c0.1-12.4-13.1-20.1-23.8-13.7c-34.3,20.3-71.4,32.7-108.7,36.2c-9.7,0.9-15.6,11.3-11.6,20.2
	c6.2,13.9,11.1,28.6,14.7,43.8c3.6,15.2-5.3,30.6-20.2,35.1s-30.1,7.6-45.3,9.1c-9.7,1-15.7,11.3-11.7,20.2
	c15,32.8,22.9,69.5,23,107.7c0.1,14.4,15.2,23.1,27.6,16c33.2-19,68.9-30.5,104.8-33.9c9.7-0.9,15.6-11.3,11.6-20.2
	c-6.2-13.9-11.1-28.6-14.7-43.8c-3.6-15.2,5.3-30.6,20.2-35.1s30.1-7.6,45.3-9.1c9.7-1,15.7-11.3,11.7-20.2
	C247.2,313.2,239.4,274.9,239.8,235.1L239.8,235.1z M467,365.6c-15.2-1.6-30.3-4.7-45.3-9.1c-14.9-4.5-23.8-19.9-20.2-35.1
	c3.6-15.2,8.5-29.8,14.7-43.8c4-8.9-1.9-19.3-11.6-20.2c-37.3-3.5-74.4-15.9-108.7-36.2c-10.7-6.3-23.9,1.4-23.8,13.7
	c0,1.6-0.2,3.2-0.2,4.9c0.2,33.3,7,65.7,19.9,94c5.7,12.4,5.2,26.6-0.6,38.9c4.9,1.2,9.9,2.2,14.8,3.7c14.9,4.5,23.8,19.9,20.2,35.1
	c-3.6,15.2-8.5,29.8-14.7,43.8c-4,8.9,1.9,19.3,11.6,20.2c35.9,3.4,71.6,14.9,104.8,33.9c12.5,7.1,27.6-1.6,27.6-16
	c0.2-38.2,8-75,23-107.7C482.8,377,476.7,366.6,467,365.6L467,365.6z"/>
</svg>
