<?xml version="1.0" encoding="utf-8"?>
<!-- Generator: Adobe Illustrator 24.0.0, SVG Export Plug-In . SVG Version: 6.00 Build 0)  -->
<svg version="1.1" id="Layer_1" xmlns="http://www.w3.org/2000/svg" xmlns:xlink="http://www.w3.org/1999/xlink" x="0px" y="0px"
	 viewBox="0 0 512 512" style="enable-background:new 0 0 512 512;" xml:space="preserve">
<path d="M115.6,333.2l30.6,0.6c-10.6-3.7-20.8-8.2-30.6-13.4V333.2z M161.8,329v4.2l-15.5,0.6c29.2,10,55.9,11.4,75.8,5.8
	C206.1,339.8,185.4,337.6,161.8,329z M488.9,236.8c12.7,0,23.1-10.3,23.1-23.1s-10.3-19.6-23.1-19.6c-12.7,0-23.1,6.9-23.1,19.6
	S476.1,236.8,488.9,236.8z M465.7,333.2H512v-88.4h-46.3V333.2z M406.7,333.2h46.3V177l-46.3,21.8V333.2z M381.9,237.7
	c-14.6-14.6-40.3-13.7-40.3-13.7s-25.8-0.9-40.3,13.7c-14.6,14.6-13.4,27.1-13.4,42.1s-1.1,27.4,13.4,42
	c14.6,14.6,40.3,13.7,40.3,13.7s25.8,0.9,40.3-13.7c14.6-14.6,13.4-27,13.4-42C395.3,264.8,396.4,252.2,381.9,237.7z M350.1,295.2
	c0,2.9-1.4,10-8.6,10s-8.6-7.1-8.6-10v-32.3c0-7,5.8-8.7,8.6-8.7c2.7,0,8.6,1.7,8.6,8.7V295.2z M265.1,237.7
	c-14.6-14.6-40.3-13.7-40.3-13.7s-25.8-0.9-40.3,13.7c-1.5,1.5-3,3.1-4.2,4.8c-30.6-23.7-58-37.2-81.7-48.9v-16.6l-18,8.5
	C37,167.9,9.3,171,2.7,185.6c0,0-19.9,26.2,49.4,88.7v59h46.3v-22.9c-5.2-3.4-10.4-7-15.5-10.9c-11.8-9-21.9-17.3-30.7-25.1v-24.8
	c10.5,11.8,24.4,25.1,42.7,40.2l3.6,2.9v-23.8c0-5.5,1.4-14.6,8.6-14.6c7.3,0,8.5,5.5,8.5,12v39c14.4,9.8,29.8,17.7,46.2,23.7v-75.1
	c0-15-10.7-29.9-32.5-29.9c-12.6-0.1-24.4,6.6-30.8,17.5v-43.4c33.5,16.7,67.1,37.2,79.9,46.6c-8.2,11.7-7.4,22.5-7.4,35
	c0,15-1.1,27.4,13.4,42c14.6,14.6,40.3,13.7,40.3,13.7s25.8,0.9,40.3-13.7c14.6-14.6,13.4-27,13.4-42
	C278.5,264.8,279.7,252.2,265.1,237.7L265.1,237.7z M52.1,198.8v50.6c-39-43.6-31.1-60.8-28.2-63.3c10.8-9.1,30-6.4,51.5,1.7
	L52.1,198.8z M233.4,295.2c0,2.9-1.4,10-8.6,10s-8.6-7.1-8.6-10v-32.3c0-7,5.8-8.7,8.6-8.7s8.6,1.7,8.6,8.7V295.2z"/>
</svg>
