<?xml version="1.0" encoding="utf-8"?>
<!-- Generator: Adobe Illustrator 24.0.0, SVG Export Plug-In . SVG Version: 6.00 Build 0)  -->
<svg version="1.1" id="Layer_1" xmlns="http://www.w3.org/2000/svg" xmlns:xlink="http://www.w3.org/1999/xlink" x="0px" y="0px"
	 viewBox="0 0 512 512" style="enable-background:new 0 0 512 512;" xml:space="preserve">
<path d="M511.9,96.5c0-7.2-2.7-14.1-7.6-19.4c-3.4-3.6-7.6-8.1-12.2-12.9c9.8-6.1,17.3-15.5,19.7-27.3c0.9-4.4-2.6-8.6-7-8.6H398.2
	c-62.8,0-113.8,50.9-113.8,113.8H142.2c-25.6,0-48.4,11.5-64,29.4v-1C35.1,170.7,0,205.8,0,248.9v49.8c0,7.9,6.4,14.2,14.2,14.2
	h14.2c7.9,0,14.2-6.4,14.2-14.2v-49.8c0-11.8,6.1-21.7,14.9-28.2c-0.2,2.3-0.7,4.5-0.7,6.8c0,24.6,10.5,46.5,27.1,62.1l-22.9,61
	c-4.1,10.8-4.7,22.6-1.9,33.8l22.1,88.4c1.6,6.3,7.3,10.8,13.8,10.8h58.6c9.3,0,16-8.7,13.8-17.7l-23.4-93.6l21.2-56.5l119.1,19.8
	v133.7c0,7.9,6.4,14.2,14.2,14.2h56.9c7.9,0,14.2-6.4,14.2-14.2v-158c17.5-17.9,28.4-42.4,28.4-69.5c0-0.2-0.1-0.4-0.1-0.6v-91.1
	l14.2,6.3l16.8,33.5c6.6,13.2,22.3,19.2,36,13.7l28.9-11.6c10.8-4.3,17.9-14.8,17.9-26.4L511.9,96.5L511.9,96.5z M455,113.8
	c-7.9,0-14.2-6.4-14.2-14.2s6.4-14.2,14.2-14.2c7.9,0,14.2,6.4,14.2,14.2S462.9,113.8,455,113.8z"/>
</svg>
