<?xml version="1.0" encoding="utf-8"?>
<!-- Generator: Adobe Illustrator 24.0.0, SVG Export Plug-In . SVG Version: 6.00 Build 0)  -->
<svg version="1.1" id="Layer_1" xmlns="http://www.w3.org/2000/svg" xmlns:xlink="http://www.w3.org/1999/xlink" x="0px" y="0px"
	 viewBox="0 0 512 512" style="enable-background:new 0 0 512 512;" xml:space="preserve">
<path d="M483.6,113.8H369.8V56.9c0-15.7-12.7-28.4-28.4-28.4H170.7c-15.7,0-28.4,12.7-28.4,28.4v56.9H28.4
	C12.7,113.8,0,126.5,0,142.2v327.1c0,7.8,6.4,14.2,14.2,14.2h483.6c7.8,0,14.2-6.4,14.2-14.2V142.2
	C512,126.5,499.3,113.8,483.6,113.8z M142.2,416c0,5.9-4.8,10.7-10.7,10.7H96c-5.9,0-10.7-4.8-10.7-10.7v-35.6
	c0-5.9,4.8-10.7,10.7-10.7h35.6c5.9,0,10.7,4.8,10.7,10.7V416z M142.2,302.2c0,5.9-4.8,10.7-10.7,10.7H96c-5.9,0-10.7-4.8-10.7-10.7
	v-35.6c0-5.9,4.8-10.7,10.7-10.7h35.6c5.9,0,10.7,4.8,10.7,10.7V302.2z M284.4,416c0,5.9-4.8,10.7-10.7,10.7h-35.6
	c-5.9,0-10.7-4.8-10.7-10.7v-35.6c0-5.9,4.8-10.7,10.7-10.7h35.6c5.9,0,10.7,4.8,10.7,10.7V416z M284.4,302.2
	c0,5.9-4.8,10.7-10.7,10.7h-35.6c-5.9,0-10.7-4.8-10.7-10.7v-35.6c0-5.9,4.8-10.7,10.7-10.7h35.6c5.9,0,10.7,4.8,10.7,10.7V302.2z
	 M298.7,151.1c0,2.9-2.4,5.3-5.3,5.3h-23.1v23.1c0,2.9-2.4,5.3-5.3,5.3h-17.8c-2.9,0-5.3-2.4-5.3-5.3v-23.1h-23.1
	c-2.9,0-5.3-2.4-5.3-5.3v-17.8c0-2.9,2.4-5.3,5.3-5.3h23.1v-23.1c0-2.9,2.4-5.3,5.3-5.3h17.8c2.9,0,5.3,2.4,5.3,5.3V128h23.1
	c2.9,0,5.3,2.4,5.3,5.3V151.1z M426.7,416c0,5.9-4.8,10.7-10.7,10.7h-35.6c-5.9,0-10.7-4.8-10.7-10.7v-35.6
	c0-5.9,4.8-10.7,10.7-10.7H416c5.9,0,10.7,4.8,10.7,10.7V416z M426.7,302.2c0,5.9-4.8,10.7-10.7,10.7h-35.6
	c-5.9,0-10.7-4.8-10.7-10.7v-35.6c0-5.9,4.8-10.7,10.7-10.7H416c5.9,0,10.7,4.8,10.7,10.7V302.2z"/>
</svg>
