<?xml version="1.0" encoding="utf-8"?>
<!-- Generator: Adobe Illustrator 24.0.0, SVG Export Plug-In . SVG Version: 6.00 Build 0)  -->
<svg version="1.1" id="Layer_1" xmlns="http://www.w3.org/2000/svg" xmlns:xlink="http://www.w3.org/1999/xlink" x="0px" y="0px"
	 viewBox="0 0 512 512" style="enable-background:new 0 0 512 512;" xml:space="preserve">
<path d="M480,492v20H32v-20c0-6.6,5.4-12,12-12h20V120c0-13.3,10.7-24,24-24h88V24c0-13.3,10.7-24,24-24h112c13.3,0,24,10.7,24,24
	v72h88c13.3,0,24,10.7,24,24v360h20C474.6,480,480,485.4,480,492z M340,192h-40c-6.6,0-12,5.4-12,12v40c0,6.6,5.4,12,12,12h40
	c6.6,0,12-5.4,12-12v-40C352,197.4,346.6,192,340,192z M172,256h40c6.6,0,12-5.4,12-12v-40c0-6.6-5.4-12-12-12h-40
	c-6.6,0-12,5.4-12,12v40C160,250.6,165.4,256,172,256z M276,384h-40c-6.6,0-12,5.4-12,12v84h64v-84C288,389.4,282.6,384,276,384z
	 M340,288h-40c-6.6,0-12,5.4-12,12v40c0,6.6,5.4,12,12,12h40c6.6,0,12-5.4,12-12v-40C352,293.4,346.6,288,340,288z M224,300
	c0-6.6-5.4-12-12-12h-40c-6.6,0-12,5.4-12,12v40c0,6.6,5.4,12,12,12h40c6.6,0,12-5.4,12-12V300z M214,96h26v26c0,3.3,2.7,6,6,6h20
	c3.3,0,6-2.7,6-6V96h26c3.3,0,6-2.7,6-6V70c0-3.3-2.7-6-6-6h-26V38c0-3.3-2.7-6-6-6h-20c-3.3,0-6,2.7-6,6v26h-26c-3.3,0-6,2.7-6,6
	v20C208,93.3,210.7,96,214,96z"/>
</svg>
