<?xml version="1.0" encoding="utf-8"?>
<!-- Generator: Adobe Illustrator 24.0.0, SVG Export Plug-In . SVG Version: 6.00 Build 0)  -->
<svg version="1.1" id="Layer_1" xmlns="http://www.w3.org/2000/svg" xmlns:xlink="http://www.w3.org/1999/xlink" x="0px" y="0px"
	 viewBox="0 0 512 512" style="enable-background:new 0 0 512 512;" xml:space="preserve">
<path d="M384,307.2c42.4,0,76.8-34.4,76.8-76.8s-34.4-76.8-76.8-76.8s-76.8,34.4-76.8,76.8S341.6,307.2,384,307.2z M422.4,332.8
	c-1.9,0-3.8,0.3-5.6,0.9c-21.2,7.4-44.3,7.4-65.5,0c-1.8-0.6-3.7-0.9-5.6-0.9c-49.5,0-89.6,40.1-89.6,89.6c0,0.2,0,0.3,0,0.5
	c0.1,21,17.4,37.9,38.4,37.9h179.2c21,0,38.3-16.9,38.4-37.9c0.3-49.5-39.6-89.8-89.1-90.1C422.7,332.8,422.6,332.8,422.4,332.8z
	 M263.9,341.2c5.4-5.3,11.3-10.1,17.7-14.3V153.6c0-14.1-11.5-25.6-25.6-25.6h-25.6V76.8c0-14.1-11.5-25.6-25.6-25.6h-128
	c-14.1,0-25.6,11.5-25.6,25.6V128H25.6C11.5,128,0,139.5,0,153.6V448c0,7.1,5.7,12.8,12.8,12.8h230.6c-8.3-10.8-12.9-24.1-13-37.8
	C230.1,392.4,242.2,362.9,263.9,341.2z M115.2,374.4c0,5.3-4.3,9.6-9.6,9.6h-32c-5.3,0-9.6-4.3-9.6-9.6v-32c0-5.3,4.3-9.6,9.6-9.6
	h32c5.3,0,9.6,4.3,9.6,9.6V374.4z M115.2,272c0,5.3-4.3,9.6-9.6,9.6h-32c-5.3,0-9.6-4.3-9.6-9.6v-32c0-5.3,4.3-9.6,9.6-9.6h32
	c5.3,0,9.6,4.3,9.6,9.6V272z M153.6,174.4c0,2.7-2.1,4.8-4.8,4.8h-16c-2.7,0-4.8-2.1-4.8-4.8v-20.8h-20.8c-2.7,0-4.8-2.1-4.8-4.8
	v-16c0-2.7,2.1-4.8,4.8-4.8H128v-20.8c0-2.7,2.1-4.8,4.8-4.8h16c2.7,0,4.8,2.1,4.8,4.8V128h20.8c2.7,0,4.8,2.1,4.8,4.8v16
	c0,2.7-2.1,4.8-4.8,4.8h-20.8V174.4z M217.6,374.4c0,5.3-4.3,9.6-9.6,9.6h-32c-5.3,0-9.6-4.3-9.6-9.6v-32c0-5.3,4.3-9.6,9.6-9.6h32
	c5.3,0,9.6,4.3,9.6,9.6V374.4z M217.6,272c0,5.3-4.3,9.6-9.6,9.6h-32c-5.3,0-9.6-4.3-9.6-9.6v-32c0-5.3,4.3-9.6,9.6-9.6h32
	c5.3,0,9.6,4.3,9.6,9.6V272z"/>
</svg>
