<?xml version="1.0" encoding="utf-8"?>
<!-- Generator: Adobe Illustrator 24.0.0, SVG Export Plug-In . SVG Version: 6.00 Build 0)  -->
<svg version="1.1" id="Layer_1" xmlns="http://www.w3.org/2000/svg" xmlns:xlink="http://www.w3.org/1999/xlink" x="0px" y="0px"
	 viewBox="0 0 512 512" style="enable-background:new 0 0 512 512;" xml:space="preserve">
<path d="M160,244v-40c0-6.6,5.4-12,12-12h40c6.6,0,12,5.4,12,12v40c0,6.6-5.4,12-12,12h-40C165.4,256,160,250.6,160,244z M300,256
	h40c6.6,0,12-5.4,12-12v-40c0-6.6-5.4-12-12-12h-40c-6.6,0-12,5.4-12,12v40C288,250.6,293.4,256,300,256z M224,340v-40
	c0-6.6-5.4-12-12-12h-40c-6.6,0-12,5.4-12,12v40c0,6.6,5.4,12,12,12h40C218.6,352,224,346.6,224,340z M300,352h40
	c6.6,0,12-5.4,12-12v-40c0-6.6-5.4-12-12-12h-40c-6.6,0-12,5.4-12,12v40C288,346.6,293.4,352,300,352z M480,476v36H32v-36
	c0-6.6,5.4-12,12-12h19.5V85c0-11.6,10.7-21,24-21H176V24c0-13.3,10.7-24,24-24h112c13.3,0,24,10.7,24,24v40h88.5
	c13.3,0,24,9.4,24,21v379H468C474.6,464,480,469.4,480,476z M111.5,463H224v-67c0-6.6,5.4-12,12-12h40c6.6,0,12,5.4,12,12v67h112.5
	V112H336v24c0,13.3-10.7,24-24,24H200c-13.3,0-24-10.7-24-24v-24h-64.5V463z M298,64h-26V38c0-3.3-2.7-6-6-6h-20c-3.3,0-6,2.7-6,6
	v26h-26c-3.3,0-6,2.7-6,6v20c0,3.3,2.7,6,6,6h26v26c0,3.3,2.7,6,6,6h20c3.3,0,6-2.7,6-6V96h26c3.3,0,6-2.7,6-6V70
	C304,66.7,301.3,64,298,64z"/>
</svg>
