<?xml version="1.0" encoding="utf-8"?>
<!-- Generator: Adobe Illustrator 24.0.0, SVG Export Plug-In . SVG Version: 6.00 Build 0)  -->
<svg version="1.1" id="Layer_1" xmlns="http://www.w3.org/2000/svg" xmlns:xlink="http://www.w3.org/1999/xlink" x="0px" y="0px"
	 viewBox="0 0 512 512" style="enable-background:new 0 0 512 512;" xml:space="preserve">
<path d="M497.8,85.3c7.9,0,14.2-6.4,14.2-14.2V42.7c0-7.9-6.4-14.2-14.2-14.2H14.2C6.4,28.4,0,34.8,0,42.7v28.4
	C0,79,6.4,85.3,14.2,85.3h14.2v341.3H14.2C6.4,426.7,0,433,0,440.9v28.4c0,7.9,6.4,14.2,14.2,14.2h213.3v-71.1
	c0-7.8,6.4-14.2,14.2-14.2h28.4c7.8,0,14.2,6.4,14.2,14.2v71.1h213.3c7.9,0,14.2-6.4,14.2-14.2v-28.4c0-7.9-6.4-14.2-14.2-14.2
	h-14.2V85.3H497.8z M227.6,125.2c0-5.7,5.7-11.4,11.4-11.4h34.1c5.7,0,11.4,5.7,11.4,11.4v34.1c0,5.7-5.7,11.4-11.4,11.4h-34.1
	c-5.7,0-11.4-5.7-11.4-11.4L227.6,125.2L227.6,125.2z M227.6,210.5c0-5.7,5.7-11.4,11.4-11.4h34.1c5.7,0,11.4,5.7,11.4,11.4v34.1
	c0,5.7-5.7,11.4-11.4,11.4h-34.1c-5.7,0-11.4-5.7-11.4-11.4L227.6,210.5L227.6,210.5z M113.8,125.2c0-5.7,5.7-11.4,11.4-11.4h34.1
	c5.7,0,11.4,5.7,11.4,11.4v34.1c0,5.7-5.7,11.4-11.4,11.4h-34.1c-5.7,0-11.4-5.7-11.4-11.4L113.8,125.2L113.8,125.2z M159.3,256
	h-34.1c-5.7,0-11.4-5.7-11.4-11.4v-34.1c0-5.7,5.7-11.4,11.4-11.4h34.1c5.7,0,11.4,5.7,11.4,11.4v34.1
	C170.7,250.3,165,256,159.3,256L159.3,256z M170.7,369.8c0-47.1,38.2-85.3,85.3-85.3s85.3,38.2,85.3,85.3H170.7z M398.2,244.6
	c0,5.7-5.7,11.4-11.4,11.4h-34.1c-5.7,0-11.4-5.7-11.4-11.4v-34.1c0-5.7,5.7-11.4,11.4-11.4h34.1c5.7,0,11.4,5.7,11.4,11.4V244.6
	L398.2,244.6z M398.2,159.3c0,5.7-5.7,11.4-11.4,11.4h-34.1c-5.7,0-11.4-5.7-11.4-11.4v-34.1c0-5.7,5.7-11.4,11.4-11.4h34.1
	c5.7,0,11.4,5.7,11.4,11.4V159.3z"/>
</svg>
