<?xml version="1.0" encoding="utf-8"?>
<!-- Generator: Adobe Illustrator 24.0.0, SVG Export Plug-In . SVG Version: 6.00 Build 0)  -->
<svg version="1.1" id="Layer_1" xmlns="http://www.w3.org/2000/svg" xmlns:xlink="http://www.w3.org/1999/xlink" x="0px" y="0px"
	 viewBox="0 0 512 512" style="enable-background:new 0 0 512 512;" xml:space="preserve">
<path d="M424,64c13.3,0,24-10.7,24-24V24c0-13.3-10.7-24-24-24H88C74.7,0,64,10.7,64,24v16c0,13.3,10.7,24,24,24
	c0,91,51,167.7,120.8,192C139,280.3,88,357,88,448c-13.3,0-24,10.7-24,24v16c0,13.3,10.7,24,24,24h336c13.3,0,24-10.7,24-24v-16
	c0-13.3-10.7-24-24-24c0-91-51-167.7-120.8-192C373,231.7,424,155,424,64z M256,208c-57.8,0-104-66.5-104-144h208
	C360,141.9,313.5,208,256,208z"/>
</svg>
