<?xml version="1.0" encoding="utf-8"?>
<!-- Generator: Adobe Illustrator 24.0.0, SVG Export Plug-In . SVG Version: 6.00 Build 0)  -->
<svg version="1.1" id="Layer_1" xmlns="http://www.w3.org/2000/svg" xmlns:xlink="http://www.w3.org/1999/xlink" x="0px" y="0px"
	 viewBox="0 0 512 512" style="enable-background:new 0 0 512 512;" xml:space="preserve">
<path d="M432,48h4c6.6,0,12-5.4,12-12V12c0-6.6-5.4-12-12-12H76c-6.6,0-12,5.4-12,12v24c0,6.6,5.4,12,12,12h4
	c0,80.6,32.2,165.8,97.2,208C111.9,298.4,80,383.9,80,464h-4c-6.6,0-12,5.4-12,12v24c0,6.6,5.4,12,12,12h360c6.6,0,12-5.4,12-12v-24
	c0-6.6-5.4-12-12-12h-4c0-80.6-32.2-165.8-97.2-208C400.1,213.6,432,128.1,432,48z M128,48h256c0,101.6-57.3,184-128,184
	S128,149.6,128,48z M384,464H128c0-101.6,57.3-184,128-184S384,362.4,384,464z"/>
</svg>
