<?xml version="1.0" encoding="utf-8"?>
<!-- Generator: Adobe Illustrator 24.0.0, SVG Export Plug-In . SVG Version: 6.00 Build 0)  -->
<svg version="1.1" id="Layer_1" xmlns="http://www.w3.org/2000/svg" xmlns:xlink="http://www.w3.org/1999/xlink" x="0px" y="0px"
	 viewBox="0 0 512 512" style="enable-background:new 0 0 512 512;" xml:space="preserve">
<path d="M256,130.6L61.8,302c-1.4,1.3-3.3,1.9-4.9,3v164.4c0,7.9,6.4,14.2,14.2,14.2h132.6l-33.1-64.7l92.5-56.9l-53.5-106
	l131.6,121.6l-92.5,56.9l35.5,49.1h156.6c7.9,0,14.2-6.4,14.2-14.2V305c-1.5-1-3.3-1.6-4.7-2.8L256,130.6z M507.3,238.5l-52.2-46.1
	V71.1c0-7.9-6.4-14.2-14.2-14.2H384c-7.9,0-14.2,6.4-14.2,14.2v45.9l-90-79.4c-6.8-6.1-15.3-9.2-23.8-9.2c-8.5,0-17,3-23.7,9.1
	L4.7,238.5c-5.8,5.3-6.3,14.2-1.1,20.1l19,21.2c5.2,5.8,14.2,6.3,20.1,1.1L246.6,101c5.4-4.7,13.4-4.7,18.8,0l203.8,179.8
	c5.8,5.2,14.8,4.8,20.1-1.1l19-21.2C513.6,252.7,513.1,243.7,507.3,238.5z"/>
</svg>
