<?xml version="1.0" encoding="utf-8"?>
<!-- Generator: Adobe Illustrator 24.0.0, SVG Export Plug-In . SVG Version: 6.00 Build 0)  -->
<svg version="1.1" id="Layer_1" xmlns="http://www.w3.org/2000/svg" xmlns:xlink="http://www.w3.org/1999/xlink" x="0px" y="0px"
	 viewBox="0 0 512 512" style="enable-background:new 0 0 512 512;" xml:space="preserve">
<path d="M507.3,238.5l-52.2-46.1V71.1c0-7.9-6.4-14.2-14.2-14.2H384c-7.9,0-14.2,6.4-14.2,14.2V117l-90-79.4
	c-5.6-5.1-16.2-9.2-23.8-9.2s-18.2,4.1-23.8,9.2L4.7,238.5c-2.8,2.8-4.5,6.6-4.7,10.6c0.2,3.5,1.5,6.8,3.6,9.5l19,21.1
	c3,2.7,6.7,4.3,10.7,4.7c3.4-0.3,6.7-1.6,9.5-3.7L57,268.3v186.8c0,15.7,12.7,28.4,28.4,28.4h341.3c15.7,0,28.4-12.7,28.4-28.4
	V268.3l14.1,12.4c2.8,2,6.1,3.3,9.5,3.7c3.9-0.4,7.6-2.1,10.6-4.7l19-21.2c2-2.8,3.3-6.1,3.6-9.5
	C511.6,245.1,509.9,241.4,507.3,238.5z M256,184.9c31.4,0,56.9,25.5,56.9,56.9s-25.5,56.9-56.9,56.9s-56.9-25.5-56.9-56.9
	S224.6,184.9,256,184.9z M355.6,426.7H156.4c-7.9,0-14.2-6.4-14.2-14.2c0-47.1,38.2-85.3,85.3-85.3h56.9c47.1,0,85.3,38.2,85.3,85.3
	C369.8,420.3,363.4,426.7,355.6,426.7z"/>
</svg>
