<?xml version="1.0" encoding="utf-8"?>
<!-- Generator: Adobe Illustrator 24.0.0, SVG Export Plug-In . SVG Version: 6.00 Build 0)  -->
<svg version="1.1" id="Layer_1" xmlns="http://www.w3.org/2000/svg" xmlns:xlink="http://www.w3.org/1999/xlink" x="0px" y="0px"
	 viewBox="0 0 512 512" style="enable-background:new 0 0 512 512;" xml:space="preserve">
<path d="M432,240c8.8,0,16-7.2,16-16v-32c0-8.8-7.2-16-16-16h-41.9c13.4-28.6,13.7-63.3-4.1-94.1C367.3,49.8,331.1,32,294,32h-78.8
	c-24.3,0-47.9,8.5-66.5,24.1l-11.8,9.8c-10.2,8.5-11.6,23.6-3.1,33.8l20.5,24.6c8.5,10.2,23.6,11.6,33.8,3.1l11.7-9.8
	c4.3-3.6,9.8-5.6,15.4-5.6h83.6c11.7,0,21.2,9.5,21.2,21.2c0,5.9-2.5,11.6-6.8,15.6L283.7,176H80c-8.8,0-16,7.2-16,16v32
	c0,8.8,7.2,16,16,16h134.4l-34.7,32H80c-8.8,0-16,7.2-16,16v32c0,8.8,7.2,16,16,16h41.9c-13.4,28.6-13.7,63.3,4.1,94
	c18.7,32.1,54.9,50,92,50h78.8c24.3,0,47.9-8.5,66.5-24.1l11.8-9.8c10.2-8.5,11.6-23.6,3.1-33.8l-20.5-24.6
	c-8.5-10.2-23.6-11.6-33.8-3.1l-11.8,9.8c-4.3,3.6-9.7,5.6-15.4,5.6h-83.6c-11.7,0-21.2-9.5-21.2-21.2c0-5.9,2.5-11.6,6.8-15.6
	l29.5-27.2H432c8.8,0,16-7.2,16-16v-32c0-8.8-7.2-16-16-16H297.6l34.7-32H432z"/>
</svg>
