<?xml version="1.0" encoding="utf-8"?>
<!-- Generator: Adobe Illustrator 24.0.0, SVG Export Plug-In . SVG Version: 6.00 Build 0)  -->
<svg version="1.1" id="Layer_1" xmlns="http://www.w3.org/2000/svg" xmlns:xlink="http://www.w3.org/1999/xlink" x="0px" y="0px"
	 viewBox="0 0 512 512" style="enable-background:new 0 0 512 512;" xml:space="preserve">
<path d="M400,160h-0.9C408.1,81,351.4,9.6,272.4,0.5S122,48.1,112.9,127.1c-1.3,10.9-1.3,21.9,0,32.9H112c-26.5,0-48,21.5-48,48
	s21.5,48,48,48h288c26.5,0,48-21.5,48-48S426.5,160,400,160z M227.4,493.7c7.3,15.8,26,22.7,41.8,15.4c6.8-3.1,12.3-8.6,15.4-15.4
	L384,288H128L227.4,493.7z"/>
</svg>
