<?xml version="1.0" encoding="utf-8"?>
<!-- Generator: Adobe Illustrator 24.0.0, SVG Export Plug-In . SVG Version: 6.00 Build 0)  -->
<svg version="1.1" id="Layer_1" xmlns="http://www.w3.org/2000/svg" xmlns:xlink="http://www.w3.org/1999/xlink" x="0px" y="0px"
	 viewBox="0 0 512 512" style="enable-background:new 0 0 512 512;" xml:space="preserve">
<path d="M469.3,56.9H42.7C19.1,56.9,0,76,0,99.6v312.9c0,23.6,19.1,42.7,42.7,42.7h426.7c23.6,0,42.7-19.1,42.7-42.7V99.6
	C512,76,492.9,56.9,469.3,56.9z M469.3,412.4H269.5c0.8-4,0.7,3.2,0.7-19.9c0-28.3-26.8-51.2-59.7-51.2c-9.6,0-16.6,7.1-39.8,7.1
	c-23.9,0-29.7-7.1-39.8-7.1c-33,0-59.7,22.9-59.7,51.2c0,23.1-0.2,15.9,0.7,19.9H42.7v-256h426.7V412.4z M320,341.3h99.6
	c3.9,0,7.1-3.2,7.1-7.1V320c0-3.9-3.2-7.1-7.1-7.1H320c-3.9,0-7.1,3.2-7.1,7.1v14.2C312.9,338.1,316.1,341.3,320,341.3z M320,284.4
	h99.6c3.9,0,7.1-3.2,7.1-7.1v-14.2c0-3.9-3.2-7.1-7.1-7.1H320c-3.9,0-7.1,3.2-7.1,7.1v14.2C312.9,281.2,316.1,284.4,320,284.4z
	 M320,227.6h99.6c3.9,0,7.1-3.2,7.1-7.1v-14.2c0-3.9-3.2-7.1-7.1-7.1H320c-3.9,0-7.1,3.2-7.1,7.1v14.2
	C312.9,224.4,316.1,227.6,320,227.6z M170.7,312.9c31.4,0,56.9-25.5,56.9-56.9s-25.5-56.9-56.9-56.9s-56.9,25.5-56.9,56.9
	S139.3,312.9,170.7,312.9z"/>
</svg>
