<?xml version="1.0" encoding="utf-8"?>
<!-- Generator: Adobe Illustrator 24.0.0, SVG Export Plug-In . SVG Version: 6.00 Build 0)  -->
<svg version="1.1" id="Layer_1" xmlns="http://www.w3.org/2000/svg" xmlns:xlink="http://www.w3.org/1999/xlink" x="0px" y="0px"
	 viewBox="0 0 512 512" style="enable-background:new 0 0 512 512;" xml:space="preserve">
<path d="M469.3,85.3h-128v85.3H170.7V85.3h-128C19.1,85.3,0,104.4,0,128v312.9c0,23.6,19.1,42.7,42.7,42.7h426.7
	c23.6,0,42.7-19.1,42.7-42.7V128C512,104.4,492.9,85.3,469.3,85.3z M256,227.6c31.4,0,56.9,25.5,56.9,56.9
	c0,31.4-25.5,56.9-56.9,56.9s-56.9-25.5-56.9-56.9S224.6,227.6,256,227.6z M338.9,426.7H173.1c-9.2,0-16.7-8.9-13.9-17.6
	c7.4-22.8,28.8-39.3,54.1-39.3h7.3c10.9,4.5,22.8,7.1,35.4,7.1c12.5,0,24.5-2.6,35.4-7.1h7.3c25.2,0,46.7,16.4,54.1,39.3
	C355.6,417.8,348.2,426.7,338.9,426.7z M312.9,56.9c0-15.7-12.7-28.4-28.4-28.4h-56.9c-15.7,0-28.4,12.7-28.4,28.4v85.3h113.8V56.9z
	"/>
</svg>
