<?xml version="1.0" encoding="utf-8"?>
<!-- Generator: Adobe Illustrator 24.0.0, SVG Export Plug-In . SVG Version: 6.00 Build 0)  -->
<svg version="1.1" id="Layer_1" xmlns="http://www.w3.org/2000/svg" xmlns:xlink="http://www.w3.org/1999/xlink" x="0px" y="0px"
	 viewBox="0 0 512 512" style="enable-background:new 0 0 512 512;" xml:space="preserve">
<path d="M469.3,56.9H42.7C19.1,56.9,0,76,0,99.6v14.2h512V99.6C512,76,492.9,56.9,469.3,56.9z M0,412.4c0,23.6,19.1,42.7,42.7,42.7
	h426.7c23.6,0,42.7-19.1,42.7-42.7V142.2H0V412.4z M312.9,206.2c0-3.9,3.2-7.1,7.1-7.1h128c3.9,0,7.1,3.2,7.1,7.1v14.2
	c0,3.9-3.2,7.1-7.1,7.1H320c-3.9,0-7.1-3.2-7.1-7.1V206.2z M312.9,263.1c0-3.9,3.2-7.1,7.1-7.1h128c3.9,0,7.1,3.2,7.1,7.1v14.2
	c0,3.9-3.2,7.1-7.1,7.1H320c-3.9,0-7.1-3.2-7.1-7.1V263.1z M312.9,320c0-3.9,3.2-7.1,7.1-7.1h128c3.9,0,7.1,3.2,7.1,7.1v14.2
	c0,3.9-3.2,7.1-7.1,7.1H320c-3.9,0-7.1-3.2-7.1-7.1V320z M156.4,199.1c31.4,0,56.9,25.5,56.9,56.9s-25.5,56.9-56.9,56.9
	S99.6,287.4,99.6,256S125.1,199.1,156.4,199.1z M59.6,380.6c7.5-22.8,28.9-39.3,54.1-39.3h7.3c10.9,4.5,22.8,7.1,35.4,7.1
	s24.5-2.6,35.4-7.1h7.3c25.2,0,46.7,16.4,54.1,39.3c2.8,8.8-4.6,17.6-13.9,17.6H73.5C64.3,398.2,56.8,389.3,59.6,380.6z"/>
</svg>
