<?xml version="1.0" encoding="utf-8"?>
<!-- Generator: Adobe Illustrator 24.0.0, SVG Export Plug-In . SVG Version: 6.00 Build 0)  -->
<svg version="1.1" id="Layer_1" xmlns="http://www.w3.org/2000/svg" xmlns:xlink="http://www.w3.org/1999/xlink" x="0px" y="0px"
	 viewBox="0 0 512 512" style="enable-background:new 0 0 512 512;" xml:space="preserve">
<path d="M92.4,166.6c-26.8,0-48.4,21.7-48.5,48.4c0,26.8,21.7,48.4,48.4,48.5c26.8,0,48.4-21.7,48.5-48.4l0,0
	C140.9,188.3,119.2,166.7,92.4,166.6z M53.5,423.7h77.9V284.9H53.5V423.7z M203,214.8c0-19.7-9.9-22.2-18.5-22.2h-13.9v45.2h13.9
	C194.1,237.7,203,235,203,214.8L203,214.8z M402.1,260.2V170h22.5v67.7h33.3C448.7,114.9,352.1,88.4,264.3,88.4h-93.6v81.7h13.8
	c25.3,0,41,17.1,41,44.7c0,28.4-15.3,45.4-41,45.4h-13.8v163.5h93.6c142.8,0,192.4-66.3,194.2-163.5H402.1z M293.8,260.2h-55.5
	v-90.1H292v22.4h-31.3V203h29.6v22.4h-29.6v12.3h33L293.8,260.2z M367.5,260.2l-5.1-17.4H333l-5.1,17.4h-23.4l27.2-90.2h32
	l27.2,90.2H367.5z M264.2,34.9H0v442.3h264.2C424,477.2,512,398.5,512,255.6C512,173.1,479.8,34.9,264.2,34.9z M264.2,456.3H20.8
	V55.7h243.4c140.3,0,227,63.8,227,199.8C491.2,387.9,411.2,456.3,264.2,456.3z M347,194.9l-7.4,25.5h16.2l-7.4-25.5H347z"/>
</svg>
