<?xml version="1.0" encoding="utf-8"?>
<!-- Generator: Adobe Illustrator 24.0.0, SVG Export Plug-In . SVG Version: 6.00 Build 0)  -->
<svg version="1.1" id="Layer_1" xmlns="http://www.w3.org/2000/svg" xmlns:xlink="http://www.w3.org/1999/xlink" x="0px" y="0px"
	 viewBox="0 0 512 512" style="enable-background:new 0 0 512 512;" xml:space="preserve">
<path d="M284.4,58.6c-9.3-1.1-18.8-1.7-28.4-1.7c-88.7,0-166.9,45.2-212.8,113.8h241.2V58.6z M85.3,199.1H26.9
	C9.9,233.4,0,272,0,312.9h85.3V199.1z M312.9,63.5v107.2h155.9C433.1,117.2,377.6,78.1,312.9,63.5z M426.7,312.9H512
	c0-40.9-9.9-79.5-26.9-113.8h-58.4V312.9z M369.8,369.8v85.3h113.8c15.7,0,28.4-12.7,28.4-28.4v-85.3H365.8
	C368.1,350.5,369.8,359.9,369.8,369.8z M398.2,199.1H113.8v113.8H158c19.7-33.9,56-56.9,98-56.9s78.2,23,98,56.9h44.3V199.1z
	 M0,426.7c0,15.7,12.7,28.4,28.4,28.4h113.8v-85.3c0-9.9,1.7-19.3,4-28.4H0V426.7z M256,284.4c-47.1,0-85.3,38.2-85.3,85.3v85.3
	h170.7v-85.3C341.3,322.7,303.1,284.4,256,284.4z"/>
</svg>
