<?xml version="1.0" encoding="utf-8"?>
<!-- Generator: Adobe Illustrator 24.0.0, SVG Export Plug-In . SVG Version: 6.00 Build 0)  -->
<svg version="1.1" id="Layer_1" xmlns="http://www.w3.org/2000/svg" xmlns:xlink="http://www.w3.org/1999/xlink" x="0px" y="0px"
	 viewBox="0 0 512 512" style="enable-background:new 0 0 512 512;" xml:space="preserve">
<path d="M426.7,398.2v14.2c0,23.6-19.1,42.7-42.7,42.7H42.7C19.1,455.1,0,436,0,412.4V184.9c0-23.6,19.1-42.7,42.7-42.7h14.2v184.9
	c0,39.2,31.9,71.1,71.1,71.1H426.7z M512,327.1V99.6c0-23.6-19.1-42.7-42.7-42.7H128c-23.6,0-42.7,19.1-42.7,42.7v227.6
	c0,23.6,19.1,42.7,42.7,42.7h341.3C492.9,369.8,512,350.7,512,327.1z M227.6,142.2c0,23.6-19.1,42.7-42.7,42.7s-42.7-19.1-42.7-42.7
	s19.1-42.7,42.7-42.7S227.6,118.7,227.6,142.2z M142.2,270.2l49.3-49.3c4.2-4.2,10.9-4.2,15.1,0l35.1,35.1l120.5-120.5
	c4.2-4.2,10.9-4.2,15.1,0l77.8,77.8v99.6H142.2V270.2z"/>
</svg>
