<?xml version="1.0" encoding="utf-8"?>
<!-- Generator: Adobe Illustrator 24.0.0, SVG Export Plug-In . SVG Version: 6.00 Build 0)  -->
<svg version="1.1" id="Layer_1" xmlns="http://www.w3.org/2000/svg" xmlns:xlink="http://www.w3.org/1999/xlink" x="0px" y="0px"
	 viewBox="0 0 512 512" style="enable-background:new 0 0 512 512;" xml:space="preserve">
<path d="M426.7,398.2v14.2c0,23.6-19.1,42.7-42.7,42.7H42.7C19.1,455.1,0,436,0,412.4V184.9c0-23.6,19.1-42.7,42.7-42.7h14.2v42.7
	H48c-2.9,0-5.3,2.4-5.3,5.3v216.9c0,2.9,2.4,5.3,5.3,5.3h330.7c2.9,0,5.3-2.4,5.3-5.3v-8.9H426.7z M464,99.6H133.3
	c-2.9,0-5.3,2.4-5.3,5.3v216.9c0,2.9,2.4,5.3,5.3,5.3H464c2.9,0,5.3-2.4,5.3-5.3V104.9C469.3,101.9,466.9,99.6,464,99.6z
	 M469.3,56.9c23.6,0,42.7,19.1,42.7,42.7v227.6c0,23.6-19.1,42.7-42.7,42.7H128c-23.6,0-42.7-19.1-42.7-42.7V99.6
	c0-23.6,19.1-42.7,42.7-42.7H469.3z M234.7,156.4c0,19.6-15.9,35.6-35.6,35.6s-35.6-15.9-35.6-35.6s15.9-35.6,35.6-35.6
	S234.7,136.8,234.7,156.4z M170.7,241.8l35.1-35.1c4.2-4.2,10.9-4.2,15.1,0l35.1,35.1l92-92c4.2-4.2,10.9-4.2,15.1,0l63.6,63.6v71.1
	h-256V241.8z"/>
</svg>
