<?xml version="1.0" encoding="utf-8"?>
<!-- Generator: Adobe Illustrator 24.0.0, SVG Export Plug-In . SVG Version: 6.00 Build 0)  -->
<svg version="1.1" id="Layer_1" xmlns="http://www.w3.org/2000/svg" xmlns:xlink="http://www.w3.org/1999/xlink" x="0px" y="0px"
	 viewBox="0 0 512 512" style="enable-background:new 0 0 512 512;" xml:space="preserve">
<path d="M376.9,128c-52.9,0-94.2,33-120.9,62.9C229.4,161,188,128,135.1,128C60.6,128,0,185.4,0,256s60.6,128,135.1,128
	c52.9,0,94.2-33,120.9-62.9C282.6,351,324,384,376.9,384c74.5,0,135.1-57.4,135.1-128S451.4,128,376.9,128z M135.1,307.2
	c-32.2,0-58.3-23-58.3-51.2s26.2-51.2,58.3-51.2c30.6,0,58.7,28.9,75.2,51.2C194,278.1,165.6,307.2,135.1,307.2z M376.9,307.2
	c-30.6,0-58.7-28.9-75.2-51.2c16.3-22.1,44.7-51.2,75.2-51.2c32.2,0,58.3,23,58.3,51.2S409,307.2,376.9,307.2z"/>
</svg>
