<?xml version="1.0" encoding="utf-8"?>
<!-- Generator: Adobe Illustrator 24.0.0, SVG Export Plug-In . SVG Version: 6.00 Build 0)  -->
<svg version="1.1" id="Layer_1" xmlns="http://www.w3.org/2000/svg" xmlns:xlink="http://www.w3.org/1999/xlink" x="0px" y="0px"
	 viewBox="0 0 512 512" style="enable-background:new 0 0 512 512;" xml:space="preserve">
<path d="M180,424.2h20V279.8h-20c-11,0-20-9-20-20V212c0-11,9-20,20-20h112c11,0,20,9,20,20v212.2h20c11,0,20,9,20,20V492
	c0,11-9,20-20,20H180c-11,0-20-9-20-20v-47.8C160,433.2,169,424.2,180,424.2z M256,0c-39.8,0-72,32.2-72,72s32.2,72,72,72
	s72-32.2,72-72S295.8,0,256,0z"/>
</svg>
