<?xml version="1.0" encoding="utf-8"?>
<!-- Generator: Adobe Illustrator 24.0.0, SVG Export Plug-In . SVG Version: 6.00 Build 0)  -->
<svg version="1.1" id="Layer_1" xmlns="http://www.w3.org/2000/svg" xmlns:xlink="http://www.w3.org/1999/xlink" x="0px" y="0px"
	 viewBox="0 0 512 512" style="enable-background:new 0 0 512 512;" xml:space="preserve">
<path d="M454.6,159.7c-0.2-9.7-5.4-18.6-13.9-23.3c-8.1-4.6-18.1-4.5-26.2,0.1L105.9,314.6V176.3c0-4.3,2.3-8.2,6-10.3l138.1-79.7
	c3.7-2.1,8.2-2.1,11.9,0l32.7,18.9l-150.1,86.6v56l247.1-142.6L273.1,36.7c-11-6.1-22.3-6.3-33.8-0.3l-164.6,95
	c-10.6,6.1-16.8,16.4-17.3,29.1v191.5c0.2,10.1,5.1,18.7,13.5,23.4c8.3,4.7,18.5,4.7,26.7,0l308.4-178.1v138.3
	c0,4.3-2.2,8.2-5.9,10.4L262,425.8c-3.7,2.1-8.2,2.1-11.9,0.1l-32.7-18.9l150.1-86.6v-56l-247,142.6l118.8,68.6
	c10.6,6.1,23.7,6,34.3-0.3l164.5-95c10.7-6.6,16.6-17.1,16.6-29.5L454.6,159.7z"/>
</svg>
