<?xml version="1.0" encoding="utf-8"?>
<!-- Generator: Adobe Illustrator 24.0.0, SVG Export Plug-In . SVG Version: 6.00 Build 0)  -->
<svg version="1.1" id="Layer_1" xmlns="http://www.w3.org/2000/svg" xmlns:xlink="http://www.w3.org/1999/xlink" x="0px" y="0px"
	 viewBox="0 0 512 512" style="enable-background:new 0 0 512 512;" xml:space="preserve">
<path d="M256,202.7c-29.5,0-53.3,23.9-53.3,53.4c0,29.5,23.9,53.3,53.4,53.3c29.5,0,53.3-23.9,53.3-53.3
	C309.3,226.5,285.5,202.7,256,202.7z M380.7,161.7c-5.5-13.9-16.5-24.9-30.4-30.4c-21-8.3-71-6.4-94.3-6.4s-73.3-1.9-94.3,6.4
	c-13.9,5.5-24.9,16.5-30.4,30.4c-8.3,21-6.4,71.1-6.4,94.3s-1.8,73.3,6.5,94.3c5.5,13.9,16.5,24.9,30.4,30.4c21,8.3,71,6.4,94.3,6.4
	s73.2,1.9,94.3-6.4c13.9-5.5,24.9-16.5,30.4-30.4c8.4-21,6.4-71.1,6.4-94.3S389.1,182.7,380.7,161.7L380.7,161.7z M256,338
	c-45.3,0-82-36.7-82-82s36.7-82,82-82s82,36.7,82,82c0.1,45.2-36.6,81.9-81.8,82C256.1,338,256.1,338,256,338z M341.4,189.7
	c-10.6,0-19.1-8.6-19.1-19.1s8.6-19.1,19.1-19.1c10.6,0,19.1,8.6,19.1,19.1c0,0,0,0,0,0c0,10.5-8.5,19.1-19,19.2
	C341.5,189.7,341.4,189.7,341.4,189.7L341.4,189.7z M432,32H80c-26.5,0-48,21.5-48,48v352c0,26.5,21.5,48,48,48h352
	c26.5,0,48-21.5,48-48V80C480,53.5,458.5,32,432,32z M414.9,322c-1.3,25.6-7.1,48.3-25.9,67s-41.4,24.6-67,25.9
	c-26.4,1.5-105.6,1.5-132,0c-25.6-1.3-48.3-7.1-67-25.9s-24.6-41.4-25.8-67c-1.5-26.4-1.5-105.6,0-132c1.3-25.6,7.1-48.3,25.8-67
	s41.5-24.6,67-25.8c26.4-1.5,105.6-1.5,132,0c25.6,1.3,48.3,7.2,67,25.8s24.6,41.4,25.9,67C416.4,216.4,416.4,295.6,414.9,322z"/>
</svg>
