<?xml version="1.0" encoding="utf-8"?>
<!-- Generator: Adobe Illustrator 24.0.0, SVG Export Plug-In . SVG Version: 6.00 Build 0)  -->
<svg version="1.1" id="Layer_1" xmlns="http://www.w3.org/2000/svg" xmlns:xlink="http://www.w3.org/1999/xlink" x="0px" y="0px"
	 viewBox="0 0 512 512" style="enable-background:new 0 0 512 512;" xml:space="preserve">
<path d="M424,32H88c-30.9,0-56,25.1-56,56v336c0,30.9,25.1,56,56,56h336c30.9,0,56-25.1,56-56V88C480,57.1,454.9,32,424,32z
	 M315.7,114.1c0-19.8,29.9-19.8,29.9,0v199.5c0,19.8-29.9,19.8-29.9,0V114.1z M241.1,106.6c0-19.8,29.9-19.8,29.9,0v216.5
	c0,19.8-29.9,19.8-29.9,0V106.6z M166.4,114.1c0-19.8,29.9-19.8,29.9,0v199.5c0,19.8-29.9,19.8-29.9,0V114.1z M91.7,144
	c0-19.8,29.9-19.8,29.9,0v134.3c0,19.8-29.9,19.8-29.9,0C91.7,278.3,91.7,144,91.7,144z M415.1,371.8c-72.8,63-241.7,65.4-318.1,0
	c-15-12.8,4.4-35.5,19.4-22.7c65.9,55.3,216.1,53.9,279.3,0C410.6,336.2,430,358.9,415.1,371.8L415.1,371.8z M420.3,278.3
	c0,19.8-29.9,19.8-29.9,0V144c0-19.8,29.9-19.8,29.9,0V278.3z"/>
</svg>
