<?xml version="1.0" encoding="utf-8"?>
<!-- Generator: Adobe Illustrator 24.0.0, SVG Export Plug-In . SVG Version: 6.00 Build 0)  -->
<svg version="1.1" id="Layer_1" xmlns="http://www.w3.org/2000/svg" xmlns:xlink="http://www.w3.org/1999/xlink" x="0px" y="0px"
	 viewBox="0 0 512 512" style="enable-background:new 0 0 512 512;" xml:space="preserve">
<path d="M439.4,32H72.6C50.2,32,32,50.2,32,72.6v366.8c0,22.4,18.2,40.6,40.6,40.6h366.8c22.4,0,40.6-18.2,40.6-40.6V72.6
	C480,50.2,461.8,32,439.4,32z M208.1,145.6c0.4,23.4-22.4,27.3-26.6,27.4c-14.9,0-27.1-12-27.1-27
	C154.5,110.8,207.5,110.5,208.1,145.6z M364.8,377c-65.6,0-34.1-74-25-106.6c14.1-46.4-45.2-59-59.9,0.7l-25.8,103.3H209l8.1-32.5
	c-31.5,51.8-94.6,44.4-94.6-4.3c0.1-14.3,0.9-14,23-104.1h-31.8l9.7-35.6h76.4c-33.6,133.7-32.6,126.9-32.9,138.2
	c0,20.9,40.9,13.5,57.4-23.2l19.8-79.4h-32.3l9.7-35.6h68.8l-8.9,40.5c40.5-75.5,127.9-47.8,101.8,38
	c-14.2,51.1-14.6,50.7-14.9,58.8c0,15.5,17.5,22.6,31.8-16.9L418,325C407.5,361.7,388.6,377,364.8,377z"/>
</svg>
