<?xml version="1.0" encoding="utf-8"?>
<!-- Generator: Adobe Illustrator 24.0.0, SVG Export Plug-In . SVG Version: 6.00 Build 0)  -->
<svg version="1.1" id="Layer_1" xmlns="http://www.w3.org/2000/svg" xmlns:xlink="http://www.w3.org/1999/xlink" x="0px" y="0px"
	 viewBox="0 0 512 512" style="enable-background:new 0 0 512 512;" xml:space="preserve">
<path d="M492.8,179.2H439C409,107.8,338.3,57.6,256,57.6C146.4,57.6,57.6,146.4,57.6,256c0,13.1,1.3,26,3.8,38.4H19.2
	C8.6,294.4,0,303,0,313.6c0,10.6,8.6,19.2,19.2,19.2H73c30,71.4,100.6,121.6,183,121.6c109.6,0,198.4-88.8,198.4-198.4
	c0-13.1-1.3-26-3.8-38.4h42.2c10.6,0,19.2-8.6,19.2-19.2C512,187.8,503.4,179.2,492.8,179.2z M416,256c0,88.4-71.6,160-160,160
	c-60.6,0-113.3-33.6-140.4-83.2h223.6c10.6,0,19.2-8.6,19.2-19.2c0-10.6-8.6-19.2-19.2-19.2H100.6c-3-12.3-4.6-25.1-4.6-38.4
	c0-88.4,71.6-160,160-160c60.6,0,113.3,33.6,140.4,83.2H172.8c-10.6,0-19.2,8.6-19.2,19.2c0,10.6,8.6,19.2,19.2,19.2h238.6
	C414.4,229.9,416,242.7,416,256z M172.8,236.8h166.4c10.6,0,19.2,8.6,19.2,19.2c0,10.6-8.6,19.2-19.2,19.2H172.8
	c-10.6,0-19.2-8.6-19.2-19.2C153.6,245.4,162.2,236.8,172.8,236.8z"/>
</svg>
