<?xml version="1.0" encoding="utf-8"?>
<!-- Generator: Adobe Illustrator 24.0.0, SVG Export Plug-In . SVG Version: 6.00 Build 0)  -->
<svg version="1.1" id="Layer_1" xmlns="http://www.w3.org/2000/svg" xmlns:xlink="http://www.w3.org/1999/xlink" x="0px" y="0px"
	 viewBox="0 0 512 512" style="enable-background:new 0 0 512 512;" xml:space="preserve">
<path d="M416,48v32c0,8.8-7.2,16-16,16h-62.8l-80,320H304c8.8,0,16,7.2,16,16v32c0,8.8-7.2,16-16,16H112c-8.8,0-16-7.2-16-16v-32
	c0-8.8,7.2-16,16-16h62.8l80-320H208c-8.8,0-16-7.2-16-16V48c0-8.8,7.2-16,16-16h192C408.8,32,416,39.2,416,48z"/>
</svg>
