<?xml version="1.0" encoding="utf-8"?>
<!-- Generator: Adobe Illustrator 24.0.0, SVG Export Plug-In . SVG Version: 6.00 Build 0)  -->
<svg version="1.1" id="Layer_1" xmlns="http://www.w3.org/2000/svg" xmlns:xlink="http://www.w3.org/1999/xlink" x="0px" y="0px"
	 viewBox="0 0 512 512" style="enable-background:new 0 0 512 512;" xml:space="preserve">
<path d="M255.6,80.3C161,80.3,84.5,157,84.5,251.5S161,422.8,255.6,422.8s171.2-76.7,171.2-171.2C426.8,157,350.1,80.3,255.6,80.3
	L255.6,80.3z M335,320.3c-3.2,13.6-13.5,21.2-27.3,23.8c-12.1,2.2-22.2,2.8-31.9-5c-11.8-10-12-26.4-1.4-36.8
	c8.4-8,20.3-9.6,38-12.8c3-0.5,5.6-1.2,7.7-3.7c3.2-3.6,2.2-2,2.2-80.8c0-5.6-2.7-7.1-8.4-6.1c-4,0.7-91.9,17.1-91.9,17.1
	c-5,1.1-6.7,2.6-6.7,8.3c0,116.1,0.5,110.8-1.2,118.5c-2.1,9-7.6,15.8-14.9,19.6c-8.3,4.6-23.4,6.6-31.4,5.2
	c-21.4-4-28.9-28.7-14.4-42.9c8.4-8,20.3-9.6,38-12.8c3-0.5,5.6-1.2,7.7-3.7c5-5.7,0.9-127,2.6-133.7c0.4-2.6,1.5-4.8,3.5-6.4
	c2.1-1.7,5.8-2.7,6.7-2.7c101-19,113.3-21.4,115.1-21.4c5.7-0.4,9,3,9,8.7C335.9,323.3,336.4,314.1,335,320.3L335,320.3z M377.2,32
	H134.8C77.9,32,32,77.9,32,134.8v242.4C32,434.1,77.9,480,134.8,480h242.4c57,0,102.8-45.9,102.8-102.8V134.8
	C480,77.9,434.1,32,377.2,32z M255.6,444c-106.3,0-192.5-86.2-192.5-192.5S149.3,59,255.6,59s192.5,86.2,192.5,192.5
	S361.9,444,255.6,444z"/>
</svg>
