<?xml version="1.0" encoding="utf-8"?>
<!-- Generator: Adobe Illustrator 24.0.0, SVG Export Plug-In . SVG Version: 6.00 Build 0)  -->
<svg version="1.1" id="Layer_1" xmlns="http://www.w3.org/2000/svg" xmlns:xlink="http://www.w3.org/1999/xlink" x="0px" y="0px"
	 viewBox="0 0 512 512" style="enable-background:new 0 0 512 512;" xml:space="preserve">
<path d="M430.5,373.6c95.9-122.1,17.2-233.1,17.2-233.1c45.4,85.8-41.4,170.5-41.4,170.5c105-171.5-60.5-271.5-60.5-271.5
	c96.9,72.7-10.1,190.7-10.1,190.7c85.8,158.4-68.6,230.1-68.6,230.1s-0.4-16.9-2.2-85.7c4.3,4.5,34.5,36.2,34.5,36.2l-24.2-47.4
	l62.6-9.1l-62.6-9.1l20.2-55.5L264,335.6c-2.2-87.7-7.8-305.1-7.9-306.9v-2.4v1v-1v2.4c0,1-5.6,219-7.9,306.9l-31.4-45.9l20.2,55.5
	l-62.6,9.1l62.6,9.1l-24.2,47.4l34.5-36.2c-1.8,68.8-2.2,85.7-2.2,85.7s-154.4-71.7-68.6-230.1c0,0-107-118.1-10.1-190.7
	c0,0-165.5,99.9-60.5,271.5c0,0-86.8-84.8-41.4-170.5c0,0-78.7,111,17.2,233.1c0,0-26.2-16.1-49.4-77.7c0,0,16.9,183.3,222,185.7
	h4.1c205-2.4,222-185.7,222-185.7C456.8,357.4,430.5,373.6,430.5,373.6L430.5,373.6z"/>
</svg>
