<?xml version="1.0" encoding="utf-8"?>
<!-- Generator: Adobe Illustrator 24.0.0, SVG Export Plug-In . SVG Version: 6.00 Build 0)  -->
<svg version="1.1" id="Layer_1" xmlns="http://www.w3.org/2000/svg" xmlns:xlink="http://www.w3.org/1999/xlink" x="0px" y="0px"
	 viewBox="0 0 512 512" style="enable-background:new 0 0 512 512;" xml:space="preserve">
<path d="M489.4,346.4C449.2,435,359.8,496.9,256,496.9c-4,0-8-0.1-12.1-0.3C146,492.2,61.4,431.3,22.6,346.4h37.6L5,291.2
	c-2.5-12.2-4.1-24.6-4.8-37.1c-0.4-9.4-0.2-18.8,0.5-28.2h44.4l-39-38.9C19.9,125.2,56.1,70.8,107.8,34.4c2.5-1.8,5.6-2.8,8.7-2.8
	c5.1,0,9.9,2.6,12.7,6.8c2.9,4.2,3.4,9.5,1.5,14.2c-6.1,15.4-9.3,31.7-9.3,48.3c0,42.5,19.8,81.5,54.3,107c6.9,5,8.4,14.6,3.4,21.4
	c-0.7,0.9-1.4,1.7-2.2,2.5c-25,22.6-38.8,53.2-38.8,86.2c0,56.5,40.4,103.8,94,114.8l2.4-61.4L209,388.7c-2.9,1.9-6.8,1.6-9.4-0.7
	c-2.6-2.4-3.1-6.3-1.3-9.4l18.9-31.8l-39.6-8.2c-4.1-0.8-6.7-4.8-5.9-8.9c0.6-3,2.9-5.3,5.9-5.9l39.6-8.2L198.3,284
	c-2.1-3.6-1-8.2,2.6-10.3c2.5-1.5,5.7-1.4,8.1,0.2l28.6,19.4l10.8-271c0.2-4,3.5-7.2,7.5-7.2h0c4,0,7.3,3.2,7.5,7.3l10.9,271
	l28.6-19.5c2.9-2,6.8-1.6,9.4,0.8c2.6,2.4,3.1,6.3,1.3,9.3l-19,31.8l39.6,8.2c4.1,0.8,6.7,4.8,5.8,8.9c-0.6,2.9-2.9,5.2-5.8,5.8
	l-39.6,8.2l18.9,31.8c1.8,3,1.3,6.9-1.3,9.3c-2.6,2.4-6.5,2.7-9.4,0.8l-25.6-17.4l2.4,61.5c45.6-8.9,82.4-45.3,91.6-90.8
	c8.4-40.6-5.4-82.6-36.3-110.2c-6.4-5.6-7-15.3-1.4-21.7c0.7-0.8,1.6-1.6,2.5-2.3c34.5-25.6,54.3-64.6,54.3-107
	c0-16.5-3.1-32.9-9.3-48.3c-1.9-4.7-1.4-10,1.5-14.2c2.8-4.2,7.6-6.8,12.7-6.8c3.1,0,6.2,1,8.7,2.8c51.6,36.6,87.8,91,101.6,152.7
	l-38.8,38.8H511c0.3,5.4,1,10.8,1,16.3c0,16.4-1.6,32.7-4.8,48.8l-55.4,55.4H489.4z"/>
</svg>
