<?xml version="1.0" encoding="utf-8"?>
<!-- Generator: Adobe Illustrator 24.0.0, SVG Export Plug-In . SVG Version: 6.00 Build 0)  -->
<svg version="1.1" id="Layer_1" xmlns="http://www.w3.org/2000/svg" xmlns:xlink="http://www.w3.org/1999/xlink" x="0px" y="0px"
	 viewBox="0 0 512 512" style="enable-background:new 0 0 512 512;" xml:space="preserve">
<path d="M386.1,45C345.6,19.9,300.6,8,256.2,8C173,8,91.8,49.9,44.9,125.9c-71.9,116.6-35.6,269.3,81,341.2s269.3,35.6,341.2-80.9
	C539,269.6,502.7,116.8,386.1,45z M437.9,368.2c-40.4,65.5-110.4,101.5-182,101.5c-6.8,0-13.6-0.4-20.4-1
	c-9-13.6-19.9-33.3-23.7-42.4c-5.7-13.7-27.2-45.6,31.2-67.1c51.7-19.1,176.7-16.5,208.8-17.6C447.8,350.6,443.2,359.5,437.9,368.2z
	 M237.1,281.9c-55.5-1.4-81.7-20.8-58.5-48.2s51.1-40.7,68.9-51.2c17.9-10.5,27.3-33.7-23.6-29.7C95.3,161.5,56.6,252.1,45.6,293
	c-8.8-49.7-0.1-102.7,28.5-149.1C136,43.4,267.6,12.2,368.1,74.1c74.8,46.1,111.2,130.9,99.3,212.7
	C442.5,286.3,288.1,283.2,237.1,281.9L237.1,281.9z M420.9,227.1c-22.7-6-57,11.3-86.7,27.2c-29.7,15.8-31.1,8.2-31.1,8.2
	s40.2-28.1,50.7-34.5s31.9-14,13.4-24.6c-3.2-1.8-6.7-2.7-10.4-2.7c-17.8,0-41.5,18.7-67.5,35.6c-31.5,20.5-65.3,31.3-65.3,31.3
	l169.5-1.6l46.5-23.4C440,242.6,443.6,233.1,420.9,227.1L420.9,227.1z"/>
</svg>
