<?xml version="1.0" encoding="utf-8"?>
<!-- Generator: Adobe Illustrator 24.0.0, SVG Export Plug-In . SVG Version: 6.00 Build 0)  -->
<svg version="1.1" id="Layer_1" xmlns="http://www.w3.org/2000/svg" xmlns:xlink="http://www.w3.org/1999/xlink" x="0px" y="0px"
	 viewBox="0 0 512 512" style="enable-background:new 0 0 512 512;" xml:space="preserve">
<path d="M355.5,196.1C373.4,208.6,384,229,384,251v24.2c0,3.5,2.9,6.4,6.4,6.4h38.4c3.5,0,6.4-2.9,6.4-6.4V251
	c0-34.6-16.8-66.7-45.1-86.4c-19-13.3-31.7-33.8-31.7-57.1V57.6c0-3.5-2.9-6.4-6.4-6.4h-38.4c-3.5,0-6.4,2.9-6.4,6.4v53.1
	C307.2,145.7,326.8,176,355.5,196.1z M156,338.4C100.8,347.3,47.8,367,0,396.8c66.9,41.8,144.2,64,223.2,64H294l-90.2-105.2
	C192,341.8,173.9,335.5,156,338.4L156,338.4z M442.6,120.9c-4.5-3-7.4-8-7.4-13.4V57.6c0-3.5-2.9-6.4-6.4-6.4h-38.4
	c-3.5,0-6.4,2.9-6.4,6.4v49.8c0,17.6,8.1,34.7,22.9,44.3c33.7,21.9,53.9,59.1,53.9,99.2v24.2c0,3.5,2.9,6.4,6.4,6.4h38.4
	c3.5,0,6.4-2.9,6.4-6.4V251C512,198.6,486.1,150,442.6,120.9z M288.7,332.8c-27.5,0-69.4,0.1-70.6,0.1l94.2,109.9
	c9.7,11.3,23.9,17.9,38.9,17.9H422l-94.4-110.1C317.9,339.3,303.7,332.8,288.7,332.8z M492.8,332.8H345.6L440,442.9
	c9.7,11.3,23.9,17.9,38.9,17.9h13.9c10.6,0,19.2-8.6,19.2-19.2V352C512,341.4,503.4,332.8,492.8,332.8z"/>
</svg>
