<?xml version="1.0" encoding="utf-8"?>
<!-- Generator: Adobe Illustrator 24.0.0, SVG Export Plug-In . SVG Version: 6.00 Build 0)  -->
<svg version="1.1" id="Layer_1" xmlns="http://www.w3.org/2000/svg" xmlns:xlink="http://www.w3.org/1999/xlink" x="0px" y="0px"
	 viewBox="0 0 512 512" style="enable-background:new 0 0 512 512;" xml:space="preserve">
<path d="M32.6,92.1C32.6,58.8,59.4,32,92.4,32c30,0,54.5,21.9,59.2,50.2c32.6-7.6,67.1,0.6,96.5,30l-44.3,44.3
	c-20.5-20.5-42.6-16.3-55.4-3.5c-14.3,14.3-14.3,37.9,0,52.2l99.5,99.5l-44,44.3c-87.7-87.2-49.7-49.7-99.8-99.7
	c-26.8-26.5-35-64.8-24.8-98.9C52.4,144.6,32.6,120.7,32.6,92.1z M162.1,208.5l44.3,44.3c10-10,89.7-89.7,99.7-99.8
	c14.3-14.3,37.6-14.3,51.9,0c12.8,12.8,17,35-3.5,55.4l44,44.3c31.2-31.2,38.5-67.6,28.9-101.2c29.2-4.1,51.9-29.2,51.9-59.5
	c0-33.2-26.8-60.1-59.8-60.1c-30.3,0-55.4,22.5-59.5,51.6c-33.8-9.9-71.7-1.5-98.3,25.1C243.4,127.7,190.6,180.1,162.1,208.5z
	 M428.4,360.7c8.2-32.7-0.9-68.5-26.3-93.9c-11.8-12.2,5,4.7-99.5-99.7l-44.3,44.3l99.7,99.7c14.3,14.3,14.3,37.6,0,51.9
	c-12.8,12.8-35,17-55.4-3.5l-44,44.3c27.6,30.2,68,38.8,102.7,28c5.5,27.4,29.7,48.1,58.9,48.1c33,0,59.8-26.8,59.8-60.1
	C480,389.6,457.5,364.8,428.4,360.7L428.4,360.7z M344.1,307.6l-44-44.3c-87,86.4-50.4,50.4-99.7,99.8c-14.3,14.3-37.6,14.3-51.9,0
	c-13.1-13.4-16.9-35.3,3.2-55.4l-44-44.3c-30.2,30.2-38,65.2-29.5,98.3c-26.7,6-46.2,29.9-46.2,58.2c0,33.3,26.8,60.1,59.8,60.1
	c28.6,0,52.5-19.8,58.6-46.7c32.7,8.2,68.5-0.6,94.2-26C276.7,375.3,256.8,394.9,344.1,307.6L344.1,307.6z"/>
</svg>
