<?xml version="1.0" encoding="utf-8"?>
<!-- Generator: Adobe Illustrator 24.0.0, SVG Export Plug-In . SVG Version: 6.00 Build 0)  -->
<svg version="1.1" id="Layer_1" xmlns="http://www.w3.org/2000/svg" xmlns:xlink="http://www.w3.org/1999/xlink" x="0px" y="0px"
	 viewBox="0 0 512 512" style="enable-background:new 0 0 512 512;" xml:space="preserve">
<path d="M470.4,377.6c-3.2,12.8-3.2,57.6,0,73.6c6.4,6.4,9.6,12.8,9.6,19.2v16c0,16-12.8,25.6-25.6,25.6H128c-54.4,0-96-41.6-96-96
	V96c0-54.4,41.6-96,96-96h326.4c16,0,25.6,9.6,25.6,25.6v332.8C480,368,476.8,374.4,470.4,377.6z M412.8,384H128
	c-16,0-32,12.8-32,32s12.8,32,32,32h284.8V384z M160,176c0,0.5,0.1,1,0.1,1.5l37.1,32.5c3.3,2.9,3.7,8,0.7,11.3
	c-1.5,1.7-3.7,2.7-6,2.7h0c-1.9-0.1-3.8-0.8-5.3-2l-23.6-20.6C174.7,251,218.9,288,272,288s97.3-37,108.9-86.6L357.3,222
	c-1.5,1.3-3.3,2-5.3,2h0c-2.3-0.1-4.4-1.1-6-2.7c-1.2-1.5-1.9-3.3-2-5.3c0.1-2.3,1.1-4.4,2.7-6l37.1-32.5c0-0.5,0.2-1,0.2-1.5
	c0-11-2.1-21.5-5.1-31.6l-21.3,21.3c-3.1,3.1-8.2,3.1-11.3,0s-3.1-8.2,0-11.3l0,0l26.4-26.4c-10-20.8-26.2-38-46.4-49.3
	c17,27.1,10.9,62.7-14.1,82.6c21.4,22.2,20.8,57.5-1.4,79c-7.6,7.3-17,12.3-27.3,14.5l-1.4-34.3l12.7,8.6c0.7,0.5,1.4,0.7,2.3,0.7
	c2.2,0,4-1.8,4-4c0-0.7-0.2-1.4-0.6-2.1l-8.5-14.3l17.9-3.7c2.2-0.5,3.6-2.6,3.1-4.7c-0.3-1.6-1.5-2.8-3.1-3.1l-17.9-3.7l8.5-14.3
	c1.1-1.9,0.5-4.3-1.4-5.5c-0.6-0.4-1.3-0.6-2.1-0.6c-0.8,0-1.6,0.3-2.3,0.7l-14.2,9.7L276,71.8c-0.1-2.2-2-3.9-4.2-3.8
	c-2.1,0.1-3.7,1.8-3.8,3.8l-4.6,110.8l-12-8.2c-1.8-1.2-4.3-0.8-5.6,1.1c-0.9,1.3-0.9,3-0.1,4.3l8.5,14.3l-17.9,3.7
	c-2.2,0.4-3.6,2.6-3.1,4.7c0.3,1.6,1.5,2.8,3.1,3.1l17.9,3.7l-8.5,14.3c-0.3,0.6-0.5,1.3-0.6,2c0.1,1.1,0.5,2.1,1.3,2.9
	c0.7,0.7,1.7,1.1,2.8,1.1c0.8,0,1.6-0.2,2.3-0.7l10.4-7l-1.4,32.7c-30.2-6.3-49.5-36-43.2-66.2c2.2-10.3,7.2-19.7,14.5-27.3
	c-25-20-31-55.5-14-82.7c-20.2,11.2-36.4,28.5-46.4,49.3l26.4,26.4c3.1,3.1,3.1,8.2,0,11.3c-3.1,3.1-8.2,3.1-11.3,0l-21.3-21.3
	C162.1,154.5,160,165,160,176z"/>
</svg>
