<?xml version="1.0" encoding="utf-8"?>
<!-- Generator: Adobe Illustrator 24.0.0, SVG Export Plug-In . SVG Version: 6.00 Build 0)  -->
<svg version="1.1" id="Layer_1" xmlns="http://www.w3.org/2000/svg" xmlns:xlink="http://www.w3.org/1999/xlink" x="0px" y="0px"
	 viewBox="0 0 512 512" style="enable-background:new 0 0 512 512;" xml:space="preserve">
<path d="M457.8,239.2c-4.3-2.4-5.1-5.2-5.8-9.8c-2.1-14.9-3.2-30.5-8.2-44.5C411.2,94.3,304.2,55,220,101.9
	c-24.8,13.8-44.4,33-59.4,57.9c-2.9-1.4-4.9-2.5-7.1-3.3c-27.3-11.3-53.5-9.2-77.3,8.3c-23.1,17-33,40.4-29.6,69.3
	c0.3,2.7-1.8,6.9-4.1,8.7c-36,27.2-50.8,70.8-38,112.9c12.5,41.3,52.1,72.3,95.7,73.8c27.5,0.9,55,0.5,82.4,0.5
	c76.2,0,152.4,0.5,228.5-0.4c47.7-0.6,87.1-33.4,98.1-79.1C519.8,306.8,499.2,262.2,457.8,239.2L457.8,239.2z M476.9,381.4
	c-16.5,20.3-38.4,32-64.6,32.3c-51.5,0.7-103.1,0.2-154.7,0.2c0,0.6-147.8,0.1-148.4,0.1c-39.8-0.3-69.6-17.9-86.3-54.4
	c-17.1-37.4-3.6-82.3,31-105.2c8.3-5.5,11.3-10.5,9.2-21c-5-23.9,4-43.5,23.9-57.1c20.8-14.3,43-14.6,65.3-2.8
	c9.3,4.9,13.2,10.5,20.1-2.3c12.9-23.9,31.3-42.4,55-55.6c88.3-49.3,207,6.9,208.7,120.3c0.1,7.4,2.2,11.3,8.9,14.4
	C497.2,274.7,512.6,337.5,476.9,381.4z M397.4,308.4c-5.3,28.2-31.4,49.9-60.4,49.9c-15.4,0-29.1-5.9-40-16
	c-25.1-23.3-64.5-68-87-84.6c-18.2-13.5-38.1-11.2-54.6,3.4c-45.3,39.9,14.4,110.4,60.8,70c4.1-3.6,7.1-8.6,11.6-11.6
	c7.4-5,18.8-0.8,11.9,9.6c-15.7,23.8-44.7,34.6-71.5,26.6c-26.2-7.9-44.3-32.6-44.1-63.6c1.1-20.4,11.2-39,32.1-50.7
	c20.5-11.5,42-11.9,60.7,2.2c46,34.9,68.5,74.1,97.3,91.8c22.3,13.7,49.2,6.7,62.4-15.9c26.1-44.6-31.4-95.2-71.5-57.5
	c-3.6,3.4-6.3,8.1-10.3,10.6c-9.9,6.2-15.7-3.7-11.6-9.4c18.8-25.9,45.7-36.7,75.5-25.6C387.1,248.2,403.1,277.8,397.4,308.4
	L397.4,308.4z"/>
</svg>
