<?xml version="1.0" encoding="utf-8"?>
<!-- Generator: Adobe Illustrator 24.0.0, SVG Export Plug-In . SVG Version: 6.00 Build 0)  -->
<svg version="1.1" id="Layer_1" xmlns="http://www.w3.org/2000/svg" xmlns:xlink="http://www.w3.org/1999/xlink" x="0px" y="0px"
	 viewBox="0 0 512 512" style="enable-background:new 0 0 512 512;" xml:space="preserve">
<path d="M492.5,102.7L283,32.8c-17.5-5.8-36.4-5.8-54,0L19.5,102.7C7.8,106.6,0,117.4,0,129.7v43.6l235.6-70.7c13.4-4,27.5-4,40.9,0
	L512,173.2v-43.6C512,117.4,504.2,106.6,492.5,102.7z M243.8,129.8L0,202.9v203c0,13.3,9.3,24.9,22.3,27.8l215.2,47.8
	c12.2,2.7,24.8,2.7,37,0l215.2-47.8c13-2.9,22.3-14.4,22.3-27.8v-203l-243.7-73.1C260.2,127.4,251.8,127.4,243.8,129.8L243.8,129.8z
	 M113.8,233c0,3.2-2.1,6-5.2,6.9l-71.1,19.4c-4.5,1.2-9-2.2-9-6.9v-14.7c0-3.2,2.1-6,5.2-6.9l71.1-19.4c4.5-1.2,9,2.2,9,6.9V233z
	 M241.8,198.1c0,3.2-2.1,6-5.2,6.9l-85.3,23.3c-4.5,1.2-9-2.2-9-6.9v-14.7c0-3.2,2.1-6,5.2-6.9l85.3-23.3c4.5-1.2,9,2.2,9,6.9
	L241.8,198.1L241.8,198.1z M398.2,218.3c0-4.7,4.5-8.1,9-6.9l71.1,19.4c3.1,0.8,5.2,3.7,5.2,6.9v14.7c0,4.7-4.5,8.1-9,6.9
	l-71.1-19.4c-3.1-0.8-5.2-3.7-5.2-6.9V218.3L398.2,218.3z M270.2,183.3c0-4.7,4.5-8.1,9-6.9l85.3,23.3c3.1,0.8,5.2,3.7,5.2,6.9v14.7
	c0,4.7-4.5,8.1-9,6.9l-85.3-23.3c-3.1-0.8-5.2-3.7-5.2-6.9V183.3z"/>
</svg>
