<?xml version="1.0" encoding="utf-8"?>
<!-- Generator: Adobe Illustrator 24.0.0, SVG Export Plug-In . SVG Version: 6.00 Build 0)  -->
<svg version="1.1" id="Layer_1" xmlns="http://www.w3.org/2000/svg" xmlns:xlink="http://www.w3.org/1999/xlink" x="0px" y="0px"
	 viewBox="0 0 512 512" style="enable-background:new 0 0 512 512;" xml:space="preserve">
<path d="M400.2,501.5L254.4,320.3L394.2,185c2.6-2.7,1.7-10.5-5.3-10.5h-69.2c-3.5,0-7,1.8-10.5,5.3L176.9,313.5V7.5
	c0-5-2.5-7.5-7.5-7.5h-51.9c-5,0-7.5,2.5-7.5,7.5v497c0,5,2.5,7.5,7.5,7.5h51.9c5,0,7.5-2.5,7.5-7.5v-109l30.8-29.3l110.5,140.6
	c3,3.5,6.5,5.3,10.5,5.3h66.9c3.5,0,5.5-1,6-3L400.2,501.5z"/>
</svg>
