<?xml version="1.0" encoding="utf-8"?>
<!-- Generator: Adobe Illustrator 24.0.0, SVG Export Plug-In . SVG Version: 6.00 Build 0)  -->
<svg version="1.1" id="Layer_1" xmlns="http://www.w3.org/2000/svg" xmlns:xlink="http://www.w3.org/1999/xlink" x="0px" y="0px"
	 viewBox="0 0 512 512" style="enable-background:new 0 0 512 512;" xml:space="preserve">
<path d="M469.3,426.7H42.7C19.1,426.7,0,407.6,0,384V128c0-23.6,19.1-42.7,42.7-42.7h426.7c23.6,0,42.7,19.1,42.7,42.7v256
	C512,407.6,492.9,426.7,469.3,426.7z M113.8,188.4v-35.6c0-5.9-4.8-10.7-10.7-10.7H67.6c-5.9,0-10.7,4.8-10.7,10.7v35.6
	c0,5.9,4.8,10.7,10.7,10.7h35.6C109,199.1,113.8,194.3,113.8,188.4z M199.1,188.4v-35.6c0-5.9-4.8-10.7-10.7-10.7h-35.6
	c-5.9,0-10.7,4.8-10.7,10.7v35.6c0,5.9,4.8,10.7,10.7,10.7h35.6C194.3,199.1,199.1,194.3,199.1,188.4z M284.4,188.4v-35.6
	c0-5.9-4.8-10.7-10.7-10.7h-35.6c-5.9,0-10.7,4.8-10.7,10.7v35.6c0,5.9,4.8,10.7,10.7,10.7h35.6
	C279.7,199.1,284.4,194.3,284.4,188.4z M369.8,188.4v-35.6c0-5.9-4.8-10.7-10.7-10.7h-35.6c-5.9,0-10.7,4.8-10.7,10.7v35.6
	c0,5.9,4.8,10.7,10.7,10.7h35.6C365,199.1,369.8,194.3,369.8,188.4z M455.1,188.4v-35.6c0-5.9-4.8-10.7-10.7-10.7h-35.6
	c-5.9,0-10.7,4.8-10.7,10.7v35.6c0,5.9,4.8,10.7,10.7,10.7h35.6C450.3,199.1,455.1,194.3,455.1,188.4z M156.4,273.8v-35.6
	c0-5.9-4.8-10.7-10.7-10.7h-35.6c-5.9,0-10.7,4.8-10.7,10.7v35.6c0,5.9,4.8,10.7,10.7,10.7h35.6
	C151.7,284.4,156.4,279.7,156.4,273.8z M241.8,273.8v-35.6c0-5.9-4.8-10.7-10.7-10.7h-35.6c-5.9,0-10.7,4.8-10.7,10.7v35.6
	c0,5.9,4.8,10.7,10.7,10.7h35.6C237,284.4,241.8,279.7,241.8,273.8z M327.1,273.8v-35.6c0-5.9-4.8-10.7-10.7-10.7h-35.6
	c-5.9,0-10.7,4.8-10.7,10.7v35.6c0,5.9,4.8,10.7,10.7,10.7h35.6C322.3,284.4,327.1,279.7,327.1,273.8z M412.4,273.8v-35.6
	c0-5.9-4.8-10.7-10.7-10.7h-35.6c-5.9,0-10.7,4.8-10.7,10.7v35.6c0,5.9,4.8,10.7,10.7,10.7h35.6
	C407.7,284.4,412.4,279.7,412.4,273.8z M113.8,359.1v-35.6c0-5.9-4.8-10.7-10.7-10.7H67.6c-5.9,0-10.7,4.8-10.7,10.7v35.6
	c0,5.9,4.8,10.7,10.7,10.7h35.6C109,369.8,113.8,365,113.8,359.1z M369.8,359.1v-35.6c0-5.9-4.8-10.7-10.7-10.7H152.9
	c-5.9,0-10.7,4.8-10.7,10.7v35.6c0,5.9,4.8,10.7,10.7,10.7h206.2C365,369.8,369.8,365,369.8,359.1z M455.1,359.1v-35.6
	c0-5.9-4.8-10.7-10.7-10.7h-35.6c-5.9,0-10.7,4.8-10.7,10.7v35.6c0,5.9,4.8,10.7,10.7,10.7h35.6C450.3,369.8,455.1,365,455.1,359.1z
	"/>
</svg>
