<?xml version="1.0" encoding="utf-8"?>
<!-- Generator: Adobe Illustrator 24.0.0, SVG Export Plug-In . SVG Version: 6.00 Build 0)  -->
<svg version="1.1" id="Layer_1" xmlns="http://www.w3.org/2000/svg" xmlns:xlink="http://www.w3.org/1999/xlink" x="0px" y="0px"
	 viewBox="0 0 512 512" style="enable-background:new 0 0 512 512;" xml:space="preserve">
<path d="M318.2,419c-9.9,0-18,8.1-18,18s8.1,18,18,18s18-8.1,18-18S328.1,419,318.2,419z M430.1,271.4
	c-9.5-14.6-39.4-52.4-87.3-73.7c-6.1-2.7-12.2-5.1-18.4-7.3c16.4-40.1-2.8-85.9-42.9-102.3c-1.6-0.7-3.3-1.3-5-1.8
	c-12.4-4.1-23.3-6-32.4-5.8c-0.6-2-1.9-11,9.4-35L230.7,32l-5.5,7.6c-8.7,12.1-16.9,23.5-24.3,34.9c-2.7-0.6-5.5-1.1-8.3-1.3
	c-41.5-2.4-39-2.3-41.1-2.3c-50.6,0-50.8,52.1-50.8,45.9l-2.4,36.7c-1.6,27,19.8,50.2,47.6,51.9l8.9,0.5
	c-17,9.7-32.6,21.6-46.3,35.5C46,304.7,46,374,46,429.8v33.6l23.3-29.8c3.1,13.1,8,25.8,14.6,37.6c5.8,10.1,14.9,9.5,19.6,7.3
	c4.2-1.9,10-6.9,3.8-20.1c-8-16.8-13.3-34.7-15.8-53.1l46.8-59.8l-24.7,74.1c58.2-42.4,157.4-61.8,236.2-38.6
	c34.2,10,67.5,0.7,84.7-23.8c0.7-1,1.2-2.2,1.9-3.2c1.8,9.4,2.7,18.9,2.8,28.4c0,23.3-3.7,52.9-14.9,81.6
	c-2.5,6.5,1.8,14.5,8.6,15.7c7.4,1.6,15.3-3.1,18.4-11.1C461,443,466,414,466,382.3C466,343.7,453,304.9,430.1,271.4L430.1,271.4z
	 M174.4,128.6l-15.7-0.9l-1.4,21.8l13.1,0.8c-0.6,6.5-0.5,13.1,0.3,19.6l-22.4-1.3c-6.8-0.3-12-6-11.8-12.8c0,0,0,0,0,0L139,119
	c1-12.2,13.9-11.3,13.3-11.3l29.1,1.7C178.6,115.6,176.2,122,174.4,128.6z M322.8,300.8c-4.4,3.4-10.7,2.8-14.4-1.4l-9.7-11.5
	l-34.4,27c-3.4,2.7-8.3,2.2-11.1-1.1l-15.8-18.6c-2.5-3.2-1.9-7.9,1.3-10.3l34.6-27.2l-14.1-16.7l-17.1,13.4
	c-3.2,2.5-7.9,2.1-10.6-1c0,0-3.7-4.4-3.8-4.5c-2.5-3.2-1.9-7.9,1.4-10.3l16.9-13.3c0,0-18.5-22-18.6-22.1
	c-3.2-4.2-2.5-10.2,1.7-13.4c0,0,0,0,0,0c4.4-3.4,10.7-2.8,14.3,1.4l81.1,96.3C327.8,291.5,327,297.5,322.8,300.8
	C322.8,300.8,322.8,300.8,322.8,300.8L322.8,300.8z M219.4,419c-9.9,0-18,8.1-18,18s8.1,18,18,18s18-8.1,18-18S229.4,419,219.4,419z
	"/>
</svg>
