<?xml version="1.0" encoding="utf-8"?>
<!-- Generator: Adobe Illustrator 24.0.0, SVG Export Plug-In . SVG Version: 6.00 Build 0)  -->
<svg version="1.1" id="Layer_1" xmlns="http://www.w3.org/2000/svg" xmlns:xlink="http://www.w3.org/1999/xlink" x="0px" y="0px"
	 viewBox="0 0 512 512" style="enable-background:new 0 0 512 512;" xml:space="preserve">
<path d="M469.3,85.3H42.7C19.1,85.3,0,104.4,0,128v256c0,23.6,19.1,42.7,42.7,42.7h426.7c23.6,0,42.7-19.1,42.7-42.7V128
	C512,104.4,492.9,85.3,469.3,85.3z M476.4,384c0,3.9-3.2,7.1-7.1,7.1H42.7c-3.9,0-7.1-3.2-7.1-7.1V128c0-3.9,3.2-7.1,7.1-7.1h426.7
	c3.9,0,7.1,3.2,7.1,7.1V384z M151.1,268.4v-24.9c0-5.9-4.8-10.7-10.7-10.7h-24.9c-5.9,0-10.7,4.8-10.7,10.7v24.9
	c0,5.9,4.8,10.7,10.7,10.7h24.9C146.3,279.1,151.1,274.3,151.1,268.4z M236.4,268.4v-24.9c0-5.9-4.8-10.7-10.7-10.7h-24.9
	c-5.9,0-10.7,4.8-10.7,10.7v24.9c0,5.9,4.8,10.7,10.7,10.7h24.9C231.7,279.1,236.4,274.3,236.4,268.4z M321.8,268.4v-24.9
	c0-5.9-4.8-10.7-10.7-10.7h-24.9c-5.9,0-10.7,4.8-10.7,10.7v24.9c0,5.9,4.8,10.7,10.7,10.7h24.9C317,279.1,321.8,274.3,321.8,268.4z
	 M407.1,268.4v-24.9c0-5.9-4.8-10.7-10.7-10.7h-24.9c-5.9,0-10.7,4.8-10.7,10.7v24.9c0,5.9,4.8,10.7,10.7,10.7h24.9
	C402.3,279.1,407.1,274.3,407.1,268.4z M108.4,341.3v-24.9c0-5.9-4.8-10.7-10.7-10.7H72.9c-5.9,0-10.7,4.8-10.7,10.7v24.9
	c0,5.9,4.8,10.7,10.7,10.7h24.9C103.7,352,108.4,347.2,108.4,341.3z M449.8,341.3v-24.9c0-5.9-4.8-10.7-10.7-10.7h-24.9
	c-5.9,0-10.7,4.8-10.7,10.7v24.9c0,5.9,4.8,10.7,10.7,10.7h24.9C445,352,449.8,347.2,449.8,341.3z M108.4,195.6v-24.9
	c0-5.9-4.8-10.7-10.7-10.7H72.9c-5.9,0-10.7,4.8-10.7,10.7v24.9c0,5.9,4.8,10.7,10.7,10.7h24.9C103.7,206.2,108.4,201.4,108.4,195.6
	z M193.8,195.6v-24.9c0-5.9-4.8-10.7-10.7-10.7h-24.9c-5.9,0-10.7,4.8-10.7,10.7v24.9c0,5.9,4.8,10.7,10.7,10.7h24.9
	C189,206.2,193.8,201.4,193.8,195.6z M279.1,195.6v-24.9c0-5.9-4.8-10.7-10.7-10.7h-24.9c-5.9,0-10.7,4.8-10.7,10.7v24.9
	c0,5.9,4.8,10.7,10.7,10.7h24.9C274.3,206.2,279.1,201.4,279.1,195.6z M364.4,195.6v-24.9c0-5.9-4.8-10.7-10.7-10.7h-24.9
	c-5.9,0-10.7,4.8-10.7,10.7v24.9c0,5.9,4.8,10.7,10.7,10.7h24.9C359.7,206.2,364.4,201.4,364.4,195.6z M449.8,195.6v-24.9
	c0-5.9-4.8-10.7-10.7-10.7h-24.9c-5.9,0-10.7,4.8-10.7,10.7v24.9c0,5.9,4.8,10.7,10.7,10.7h24.9C445,206.2,449.8,201.4,449.8,195.6z
	 M362.7,336v-14.2c0-5.9-4.8-10.7-10.7-10.7H160c-5.9,0-10.7,4.8-10.7,10.7V336c0,5.9,4.8,10.7,10.7,10.7h192
	C357.9,346.7,362.7,341.9,362.7,336z"/>
</svg>
