<?xml version="1.0" encoding="utf-8"?>
<!-- Generator: Adobe Illustrator 24.0.0, SVG Export Plug-In . SVG Version: 6.00 Build 0)  -->
<svg version="1.1" id="Layer_1" xmlns="http://www.w3.org/2000/svg" xmlns:xlink="http://www.w3.org/1999/xlink" x="0px" y="0px"
	 viewBox="0 0 512 512" style="enable-background:new 0 0 512 512;" xml:space="preserve">
<path d="M211.3,114.4c0-56.2-32.5-82.4-73.4-82.4C90.2,32,64,68.2,64,113.4v283c0,47.3,25.3,83.4,74.9,83.4
	c39.8,0,72.4-25.6,72.4-83.4v-76.5l112.1,138.3c22.7,27.2,72.1,30.7,103.2,0c27-27.6,27.3-67.4,7.4-92.2l-90.8-114.8l74.9-107.4
	c17.4-24.7,17.5-63.1-10.4-89.8c-30.3-29-82.4-31.6-113.6,12.8L211.3,185V114.4z"/>
</svg>
