<?xml version="1.0" encoding="utf-8"?>
<!-- Generator: Adobe Illustrator 24.0.0, SVG Export Plug-In . SVG Version: 6.00 Build 0)  -->
<svg version="1.1" id="Layer_1" xmlns="http://www.w3.org/2000/svg" xmlns:xlink="http://www.w3.org/1999/xlink" x="0px" y="0px"
	 viewBox="0 0 512 512" style="enable-background:new 0 0 512 512;" xml:space="preserve">
<path d="M432,480H80c-26.4,0-48-21.6-48-48V80c0-26.4,21.6-48,48-48h352c26.4,0,48,21.6,48,48v352C480,458.4,458.4,480,432,480z
	 M231.6,178.5c0-30.7-17.6-45.1-39.7-45.1c-25.8,0-40,19.8-40,44.5v154.8c0,25.8,13.7,45.6,40.5,45.6c21.5,0,39.2-14,39.2-45.6
	v-41.8l60.6,75.7c12.3,14.9,39,16.8,55.8,0c14.6-15.1,14.8-36.8,4-50.4l-49.1-62.8l40.5-58.7c9.4-13.5,9.5-34.5-5.6-49.1
	c-16.4-15.9-44.6-17.3-61.4,7l-44.8,64.7L231.6,178.5L231.6,178.5z"/>
</svg>
