<?xml version="1.0" encoding="utf-8"?>
<!-- Generator: Adobe Illustrator 24.0.0, SVG Export Plug-In . SVG Version: 6.00 Build 0)  -->
<svg version="1.1" id="Layer_1" xmlns="http://www.w3.org/2000/svg" xmlns:xlink="http://www.w3.org/1999/xlink" x="0px" y="0px"
	 viewBox="0 0 512 512" style="enable-background:new 0 0 512 512;" xml:space="preserve">
<path d="M308,308.5c0-19.2-28.8-41.5-71.5-44c-3.8-0.4-7.4,2.4-8.2,6.2c-0.9,3.8,1.1,7.7,4.7,9.2l16.9,7.2
	c13,5.5,20.8,13.5,20.8,21.5s-7.8,16-20.7,21.5l-17,7.2c-5.7,2.4-6,12.2,0,14.8l16.9,7.2c13,5.5,20.8,13.5,20.8,21.5
	s-7.8,16-20.7,21.5l-17,7.2c-3.6,1.5-5.6,5.4-4.7,9.2c0.8,3.6,4.1,6.2,7.8,6.2h0.5c42.8-2.5,71.5-24.8,71.5-44
	c0-13-13.4-27.3-35.2-36C294.6,335.8,308,321.5,308,308.5L308,308.5z M378.5,225l9.5,8.5c3.8,3.3,9.3,4,13.7,1.6
	c4.4-2.4,6.9-7.4,6.1-12.4c-4-25.2-34.2-42.1-59.8-42.1s-55.9,16.9-59.8,42.1c-0.8,5,1.7,10,6.1,12.4c5.8,3.1,11.2,0.7,13.7-1.6
	l9.5-8.5C332.3,211.8,363.7,211.8,378.5,225L378.5,225z M140,208.5c0,17.7,14.3,32,32,32s32-14.3,32-32s-14.3-32-32-32
	S140,190.8,140,208.5z M505.1,402.5c-8-20.8-31.5-31.5-53.1-25.9l-8.4,2.2l-2.3-8.4c-5.9-21.4-27-36.5-49-33
	c-25.2,4-40.6,28.6-34,52.6l22.9,82.6c1.5,5.3,7,8.5,12.4,7.1l83-21.5C500.7,451.9,514.3,426.4,505.1,402.5L505.1,402.5z M338,436.3
	c-26.1,12.5-55.2,19.7-86,19.7c-110.3,0-200-89.7-200-200S141.7,56,252,56s200,89.7,200,200c0,22.1-3.7,43.3-10.4,63.2
	c9,6.4,17,14.2,22.6,23.9c6.4,0.1,12.6,1.4,18.6,2.9c10.9-27.9,17.1-58.2,17.1-90C500,119,389,8,252,8S4,119,4,256s111,248,248,248
	c35.4,0,68.9-7.5,99.4-20.9C348.9,475.8,355.7,500.3,338,436.3L338,436.3z"/>
</svg>
