<?xml version="1.0" encoding="utf-8"?>
<!-- Generator: Adobe Illustrator 24.0.0, SVG Export Plug-In . SVG Version: 6.00 Build 0)  -->
<svg version="1.1" id="Layer_1" xmlns="http://www.w3.org/2000/svg" xmlns:xlink="http://www.w3.org/1999/xlink" x="0px" y="0px"
	 viewBox="0 0 512 512" style="enable-background:new 0 0 512 512;" xml:space="preserve">
<path d="M505.1,402.5c-8-20.8-31.5-31.5-53.1-25.9l-8.4,2.2l-2.3-8.4c-5.9-21.4-27-36.5-49-33c-25.2,4-40.6,28.6-34,52.6l22.9,82.6
	c1.5,5.3,7,8.5,12.4,7.1l83-21.5C500.7,451.9,514.3,426.4,505.1,402.5L505.1,402.5z M327.5,398.5c-5.6-20.3-2.3-42,9-59.7
	c29.7-46.3,98.7-45.5,127.8,4.3c6.4,0.1,12.6,1.4,18.6,2.9c10.9-27.9,17.1-58.2,17.1-90C500,119,389,8,252,8S4,119,4,256
	s111,248,248,248c35.4,0,68.9-7.5,99.4-20.9C351.1,482.4,327.5,398.5,327.5,398.5z M172,240c-17.7,0-32-14.3-32-32s14.3-32,32-32
	s32,14.3,32,32S189.7,240,172,240z M292,396c0,19.2-28.7,41.5-71.5,44c-8.5,0.8-12.1-11.8-3.6-15.4l17-7.2
	c13-5.5,20.8-13.5,20.8-21.5s-7.8-16-20.8-21.5l-17-7.2c-6-2.5-5.7-12.3,0-14.8l17-7.2c13-5.5,20.8-13.5,20.8-21.5
	s-7.8-16-20.8-21.5l-17-7.2c-8.8-3.7-4.6-16.6,3.6-15.4c42.8,2.5,71.5,24.8,71.5,44c0,13-13.4,27.3-35.2,36
	C278.6,368.7,292,383,292,396z M308,217c-8.3,7.4-21.6,0.4-19.8-10.8c4-25.2,34.2-42.1,59.9-42.1S404,181,408,206.2
	c1.7,11.1-11.3,18.3-19.8,10.8l-9.5-8.5c-14.8-13.2-46.2-13.2-61,0L308,217z"/>
</svg>
