<?xml version="1.0" encoding="utf-8"?>
<!-- Generator: Adobe Illustrator 24.0.0, SVG Export Plug-In . SVG Version: 6.00 Build 0)  -->
<svg version="1.1" id="Layer_1" xmlns="http://www.w3.org/2000/svg" xmlns:xlink="http://www.w3.org/1999/xlink" x="0px" y="0px"
	 viewBox="0 0 512 512" style="enable-background:new 0 0 512 512;" xml:space="preserve">
<path d="M256,8C119,8,8,119,8,256s111,248,248,248s248-111,248-248S393,8,256,8z M176,240c-17.7,0-32-14.3-32-32s14.3-32,32-32
	s32,14.3,32,32S193.7,240,176,240z M312,396c0,19.2-28.7,41.5-71.5,44c-8.5,0.8-12.1-11.8-3.6-15.4l17-7.2
	c13-5.5,20.8-13.5,20.8-21.5s-7.8-16-20.8-21.5l-17-7.2c-6-2.5-6.1-12.2,0-14.8l17-7.2c13-5.5,20.8-13.5,20.8-21.5
	s-7.8-16-20.8-21.5l-17-7.2c-8.6-3.6-4.8-16.5,3.6-15.4c42.8,2.5,71.5,24.8,71.5,44c0,13-13.4,27.3-35.2,36
	C298.6,368.7,312,383,312,396z M336,240c-17.7,0-32-14.3-32-32s14.3-32,32-32s32,14.3,32,32S353.7,240,336,240z"/>
</svg>
