<?xml version="1.0" encoding="utf-8"?>
<!-- Generator: Adobe Illustrator 24.0.0, SVG Export Plug-In . SVG Version: 6.00 Build 0)  -->
<svg version="1.1" id="Layer_1" xmlns="http://www.w3.org/2000/svg" xmlns:xlink="http://www.w3.org/1999/xlink" x="0px" y="0px"
	 viewBox="0 0 512 512" style="enable-background:new 0 0 512 512;" xml:space="preserve">
<path d="M176,176c-17.7,0-32,14.3-32,32s14.3,32,32,32s32-14.3,32-32S193.7,176,176,176z M312,308c0-19.2-28.8-41.5-71.5-44
	c-3.8-0.4-7.4,2.4-8.2,6.2c-0.9,3.8,1.1,7.7,4.7,9.2l16.9,7.2c13,5.5,20.8,13.5,20.8,21.5s-7.8,16-20.7,21.5l-17,7.2
	c-5.7,2.4-6,12.2,0,14.8l16.9,7.2c13,5.5,20.8,13.5,20.8,21.5s-7.8,16-20.7,21.5l-17,7.2c-3.6,1.5-5.6,5.4-4.7,9.2
	c0.8,3.6,4.1,6.2,7.8,6.2h0.5c42.8-2.5,71.5-24.8,71.5-44c0-13-13.4-27.3-35.2-36C298.6,335.3,312,321,312,308z M256,8
	C119,8,8,119,8,256s111,248,248,248s248-111,248-248S393,8,256,8z M256,456c-110.3,0-200-89.7-200-200S145.7,56,256,56
	s200,89.7,200,200S366.3,456,256,456z M336,176c-17.7,0-32,14.3-32,32s14.3,32,32,32s32-14.3,32-32S353.7,176,336,176z"/>
</svg>
