<?xml version="1.0" encoding="utf-8"?>
<!-- Generator: Adobe Illustrator 24.0.0, SVG Export Plug-In . SVG Version: 6.00 Build 0)  -->
<svg version="1.1" id="Layer_1" xmlns="http://www.w3.org/2000/svg" xmlns:xlink="http://www.w3.org/1999/xlink" x="0px" y="0px"
	 viewBox="0 0 512 512" style="enable-background:new 0 0 512 512;" xml:space="preserve">
<path d="M121.7,240.2c-2.8-9.7-6.2-26.6-6.2-26.6H115c0,0-3.4,16.9-6.2,26.6l-8.9,30h30.5L121.7,240.2z M492.8,128h-224v256h224
	c10.6,0,19.2-8.6,19.2-19.2V147.2C512,136.6,503.4,128,492.8,128z M473.6,224c0,5.3-4.3,9.6-9.6,9.6h-9.1
	c-5.5,18.9-17.4,37.9-34.2,55.9c6.7,5.1,13.7,10,20.9,14.4c4.4,2.7,5.8,8.4,3.3,13l-6.3,11.1c-2.7,4.7-8.7,6.2-13.4,3.4
	c-10.1-6.2-19.6-12.9-28.3-19.9c-8.7,7-18.2,13.7-28.3,19.9c-4.6,2.8-10.6,1.3-13.4-3.4l-6.3-11.1c-2.6-4.5-1.1-10.2,3.4-13
	c7.4-4.6,14.4-9.4,20.9-14.4c-6.3-6.7-11.9-13.6-16.8-20.6c-3.2-4.6-1.8-10.9,3-13.7l5.2-3.1l5.8-3.4c4.3-2.6,9.9-1.4,12.8,2.7
	c4,5.6,8.6,11.2,13.9,16.7c10.8-11.4,19-23.1,24-34.6h-91.4c-5.3,0-9.6-4.3-9.6-9.6v-12.8c0-5.3,4.3-9.6,9.6-9.6h51.2v-12.8
	c0-5.3,4.3-9.6,9.6-9.6h12.8c5.3,0,9.6,4.3,9.6,9.6v12.8H464c5.3,0,9.6,4.3,9.6,9.6V224z M0,147.2v217.6C0,375.4,8.6,384,19.2,384
	h224V128h-224C8.6,128,0,136.6,0,147.2z M47.1,320.1l46-135.3c1.4-3.9,5-6.5,9.1-6.5h26c4.1,0,7.8,2.6,9.1,6.5l46,135.3
	c2.1,6.2-2.5,12.7-9.1,12.7h-18.3c-4.3,0-8-2.8-9.2-6.9l-7.5-25.5H91l-7.3,25.4c-1.2,4.1-5,7-9.2,7H56.2
	C49.7,332.8,45,326.3,47.1,320.1z"/>
</svg>
