<?xml version="1.0" encoding="utf-8"?>
<!-- Generator: Adobe Illustrator 24.0.0, SVG Export Plug-In . SVG Version: 6.00 Build 0)  -->
<svg version="1.1" id="Layer_1" xmlns="http://www.w3.org/2000/svg" xmlns:xlink="http://www.w3.org/1999/xlink" x="0px" y="0px"
	 viewBox="0 0 512 512" style="enable-background:new 0 0 512 512;" xml:space="preserve">
<path d="M204,260.5c5,5,13.1,5,18.1,0l9-9c5-5,5-13.1,0-18.1l-28.6-28.6l28.6-28.6c5-5,5-13.1,0-18.1l-9-9c-5-5-13.1-5-18.1,0
	l-46.7,46.7c-5,5-5,13.1,0,18.1L204,260.5z M280.8,251.5l9,9c5,5,13.1,5,18.1,0l46.7-46.7c5-5,5-13.1,0-18.1L308,149.1
	c-5-5-13.1-5-18.1,0l-9,9c-5,5-5,13.1,0,18.1l28.6,28.6l-28.6,28.6C275.8,238.4,275.8,246.5,280.8,251.5L280.8,251.5z M499.2,384
	h-194c-0.6,15.8-11.8,25.6-26.2,25.6h-48.6c-15,0-26.4-14-26.2-25.6H12.8c-7,0-12.8,5.8-12.8,12.8v12.8c0,28.2,23,51.2,51.2,51.2
	h409.6c28.2,0,51.2-23,51.2-51.2v-12.8C512,389.8,506.2,384,499.2,384z M460.8,89.6c0-21.1-17.3-38.4-38.4-38.4H89.6
	c-21.1,0-38.4,17.3-38.4,38.4v268.8h409.6V89.6z M409.6,307.2H102.4V102.4h307.2V307.2z"/>
</svg>
