<?xml version="1.0" encoding="utf-8"?>
<!-- Generator: Adobe Illustrator 24.0.0, SVG Export Plug-In . SVG Version: 6.00 Build 0)  -->
<svg version="1.1" id="Layer_1" xmlns="http://www.w3.org/2000/svg" xmlns:xlink="http://www.w3.org/1999/xlink" x="0px" y="0px"
	 viewBox="0 0 512 512" style="enable-background:new 0 0 512 512;" xml:space="preserve">
<path d="M185.6,230.4h44.8v44.8c0,3.5,2.9,6.4,6.4,6.4h38.4c3.5,0,6.4-2.9,6.4-6.4v-44.8h44.8c3.5,0,6.4-2.9,6.4-6.4v-38.4
	c0-3.5-2.9-6.4-6.4-6.4h-44.8v-44.8c0-3.5-2.9-6.4-6.4-6.4h-38.4c-3.5,0-6.4,2.9-6.4,6.4v44.8h-44.8c-3.5,0-6.4,2.9-6.4,6.4V224
	C179.2,227.5,182.1,230.4,185.6,230.4z M460.8,89.6c-0.1-21.2-17.2-38.3-38.4-38.4H89.6c-21.2,0.1-38.3,17.2-38.4,38.4v268.8h409.6
	V89.6z M409.6,307.2H102.4V102.4h307.2V307.2z M499.2,384h-194c-0.6,15.8-11.8,25.6-26.2,25.6h-48.6c-15,0-26.4-14-26.2-25.6H12.8
	C5.7,384,0,389.7,0,396.8v12.8c0.1,28.2,23,51.1,51.2,51.2h409.6c28.2-0.1,51.1-23,51.2-51.2v-12.8C512,389.7,506.3,384,499.2,384z"
	/>
</svg>
