<?xml version="1.0" encoding="utf-8"?>
<!-- Generator: Adobe Illustrator 24.0.0, SVG Export Plug-In . SVG Version: 6.00 Build 0)  -->
<svg version="1.1" id="Layer_1" xmlns="http://www.w3.org/2000/svg" xmlns:xlink="http://www.w3.org/1999/xlink" x="0px" y="0px"
	 viewBox="0 0 512 512" style="enable-background:new 0 0 512 512;" xml:space="preserve">
<path d="M217.6,281.6h-51.2c-7.1,0-12.8-5.7-12.8-12.8v-51.2c0-7.1,5.7-12.8,12.8-12.8h51.2c7.1,0,12.8,5.7,12.8,12.8v29.7
	c8.9-10.3,21.6-16.9,35.8-16.9h109.6l5.3-6c1.7-2.2,2.7-4.8,2.9-7.6c-0.2-3.2-1.5-6.2-3.8-8.5l-47.4-41.9V89.6
	c0-7.1-5.7-12.8-12.8-12.8h-25.6c-7.1,0-12.8,5.7-12.8,12.8V121l-70.8-62.7c-4.4-3.9-12.8-7.1-18.8-7.1c-5.9,0-14.3,3.2-18.8,7.1
	L3.8,208.3c-2.3,2.2-3.6,5.3-3.8,8.5c0.1,2.7,1.1,5.4,2.8,7.5l15,17c2.3,2.3,5.3,3.7,8.5,3.8c2.7-0.1,5.3-1.1,7.5-2.8l17.3-15.3
	v131.3c0,14.1,11.5,25.6,25.6,25.6h140.8V281.6z M503.5,409.6h-29.9v-128c0-14.1-10.3-25.6-23-25.6H266.2c-12.7,0-23,11.5-23,25.6
	v128h-29.9c-4.7,0-8.5,3.8-8.5,8.5v0v8.5c0.1,18.8,15.3,34,34.1,34.1h239c18.8-0.1,34-15.3,34.1-34.1v-8.5
	C512,413.4,508.2,409.6,503.5,409.6z M435.2,409.6H281.6V294.4h153.6V409.6z"/>
</svg>
