<?xml version="1.0" encoding="utf-8"?>
<!-- Generator: Adobe Illustrator 24.0.0, SVG Export Plug-In . SVG Version: 6.00 Build 0)  -->
<svg version="1.1" id="Layer_1" xmlns="http://www.w3.org/2000/svg" xmlns:xlink="http://www.w3.org/1999/xlink" x="0px" y="0px"
	 viewBox="0 0 512 512" style="enable-background:new 0 0 512 512;" xml:space="preserve">
<path d="M432,32H80c-26.5,0-48,21.5-48,48v352c0,26.5,21.5,48,48,48h352c26.5,0,48-21.5,48-48V80C480,53.5,458.5,32,432,32z
	 M339.8,344.9c-63.4,0-85.4-28.6-97.1-64.1c-16.3-51-21.5-84.3-63-84.3c-22.4,0-45.1,16.1-45.1,61.2c0,35.2,18,57.2,43.3,57.2
	c28.6,0,47.6-21.3,47.6-21.3l11.7,31.9c0,0-19.8,19.4-61.2,19.4c-51.3,0-79.9-30.1-79.9-85.8c0-57.9,28.6-92,82.5-92
	c73.5,0,80.8,41.4,100.8,101.9c8.8,26.8,24.2,46.2,61.2,46.2c24.9,0,38.1-5.5,38.1-19.1c0-19.9-21.8-22-49.9-28.6
	c-30.4-7.3-42.5-23.1-42.5-48c0-40,32.3-52.4,65.2-52.4c37.4,0,60.1,13.6,63,46.6l-36.7,4.4c-1.5-15.8-11-22.4-28.6-22.4
	c-16.1,0-26,7.3-26,19.8c0,11,4.8,17.6,20.9,21.3c32.7,7.1,71.8,12,71.8,57.5C416,331,385.2,344.9,339.8,344.9L339.8,344.9z"/>
</svg>
