<?xml version="1.0" encoding="utf-8"?>
<!-- Generator: Adobe Illustrator 24.0.0, SVG Export Plug-In . SVG Version: 6.00 Build 0)  -->
<svg version="1.1" id="Layer_1" xmlns="http://www.w3.org/2000/svg" xmlns:xlink="http://www.w3.org/1999/xlink" x="0px" y="0px"
	 viewBox="0 0 512 512" style="enable-background:new 0 0 512 512;" xml:space="preserve">
<path d="M256,8C119,8,8,119,8,256s111,248,248,248s248-111,248-248S393,8,256,8z M336,160c17.7,0,32,14.3,32,32s-14.3,32-32,32
	s-32-14.3-32-32S318.3,160,336,160z M176,160c17.7,0,32,14.3,32,32s-14.3,32-32,32s-32-14.3-32-32S158.3,160,176,160z M264,432h-16
	c-73.4,0-134-55-142.9-126c-1.2-9.5,6.3-18,15.9-18h270c9.6,0,17.1,8.4,15.9,18C398,377,337.4,432,264,432z"/>
</svg>
