<?xml version="1.0" encoding="utf-8"?>
<!-- Generator: Adobe Illustrator 24.0.0, SVG Export Plug-In . SVG Version: 6.00 Build 0)  -->
<svg version="1.1" id="Layer_1" xmlns="http://www.w3.org/2000/svg" xmlns:xlink="http://www.w3.org/1999/xlink" x="0px" y="0px"
	 viewBox="0 0 512 512" style="enable-background:new 0 0 512 512;" xml:space="preserve">
<path d="M256,8C119,8,8,119,8,256s111,248,248,248s248-111,248-248S393,8,256,8z M280,207.4c3.3-42.1,32.2-71.4,56-71.4
	s52.7,29.3,56,71.4c0.7,8.6-10.8,11.9-14.9,4.5l-9.5-17c-7.7-13.7-19.2-21.6-31.5-21.6s-23.8,7.9-31.5,21.6l-9.5,17
	C290.9,219.3,279.3,216,280,207.4z M120,207.4c3.3-42.1,32.2-71.4,56-71.4s52.7,29.3,56,71.4c0.7,8.6-10.8,11.9-14.9,4.5l-9.5-17
	c-7.7-13.7-19.2-21.6-31.5-21.6s-23.8,7.9-31.5,21.6l-9.5,17C130.8,219.3,119.3,215.9,120,207.4z M406.9,306
	C398,377,337.4,432,264,432h-16c-73.4,0-134-55-142.9-126c-1.2-9.5,6.3-18,15.9-18h270C400.6,288,408.1,296.4,406.9,306z"/>
</svg>
