<?xml version="1.0" encoding="utf-8"?>
<!-- Generator: Adobe Illustrator 24.0.0, SVG Export Plug-In . SVG Version: 6.00 Build 0)  -->
<svg version="1.1" id="Layer_1" xmlns="http://www.w3.org/2000/svg" xmlns:xlink="http://www.w3.org/1999/xlink" x="0px" y="0px"
	 viewBox="0 0 512 512" style="enable-background:new 0 0 512 512;" xml:space="preserve">
<path d="M256,8C119,8,8,119,8,256s111,248,248,248s248-111,248-248S393,8,256,8z M397.4,397.4c-37.8,37.8-88,58.6-141.4,58.6
	s-103.6-20.8-141.4-58.6S56,309.4,56,256s20.8-103.6,58.6-141.4S202.6,56,256,56s103.6,20.8,141.4,58.6S456,202.6,456,256
	S435.2,359.6,397.4,397.4z M351.6,196l33.6-40.3c8.6-10.3-3.8-24.8-15.4-18l-80,48c-7.8,4.7-7.8,15.9,0,20.6l80,48
	c11.5,6.8,24-7.6,15.4-18L351.6,196z M142.2,254.3l80-48c7.8-4.7,7.8-15.9,0-20.6l-80-48c-11.6-6.9-24,7.7-15.4,18l33.6,40.3
	l-33.6,40.3C118.1,246.7,130.6,261.1,142.2,254.3z M370.4,288H141.6c-8.2,0-14.5,7-13.5,15c7.5,59.2,58.9,105,121.1,105h13.6
	c62.2,0,113.6-45.8,121.1-105C384.9,295,378.6,288,370.4,288L370.4,288z"/>
</svg>
