<?xml version="1.0" encoding="utf-8"?>
<!-- Generator: Adobe Illustrator 24.0.0, SVG Export Plug-In . SVG Version: 6.00 Build 0)  -->
<svg version="1.1" id="Layer_1" xmlns="http://www.w3.org/2000/svg" xmlns:xlink="http://www.w3.org/1999/xlink" x="0px" y="0px"
	 viewBox="0 0 512 512" style="enable-background:new 0 0 512 512;" xml:space="preserve">
<path d="M256,8C119,8,8,119,8,256s111,248,248,248s248-111,248-248S393,8,256,8z M397.4,397.4c-37.8,37.8-88,58.6-141.4,58.6
	s-103.6-20.8-141.4-58.6S56,309.4,56,256s20.8-103.6,58.6-141.4S202.6,56,256,56s103.6,20.8,141.4,58.6S456,202.6,456,256
	S435.2,359.6,397.4,397.4z M336,164c-25.7,0-55.9,16.9-59.9,42.1c-1.7,11.2,11.5,18.2,19.8,10.8l9.5-8.5c14.8-13.2,46.2-13.2,61,0
	l9.5,8.5c8.5,7.4,21.6,0.3,19.8-10.8C391.9,180.9,361.7,164,336,164L336,164z M176,224c17.7,0,32-14.3,32-32s-14.3-32-32-32
	s-32,14.3-32,32S158.3,224,176,224z M370.4,288H141.6c-8.2,0-14.5,7-13.5,15c7.5,59.2,58.9,105,121.1,105h13.6
	c62.2,0,113.6-45.8,121.1-105C384.9,295,378.6,288,370.4,288L370.4,288z"/>
</svg>
