<?xml version="1.0" encoding="utf-8"?>
<!-- Generator: Adobe Illustrator 24.0.0, SVG Export Plug-In . SVG Version: 6.00 Build 0)  -->
<svg version="1.1" id="Layer_1" xmlns="http://www.w3.org/2000/svg" xmlns:xlink="http://www.w3.org/1999/xlink" x="0px" y="0px"
	 viewBox="0 0 512 512" style="enable-background:new 0 0 512 512;" xml:space="preserve">
<path d="M256,8C119,8,8,119,8,256s111,248,248,248s248-111,248-248S393,8,256,8z M276.1,206.1c4-25.2,34.2-42.1,59.9-42.1
	s55.9,16.9,59.9,42.1c1.7,11.1-11.4,18.3-19.8,10.8l-9.5-8.5c-14.8-13.2-46.2-13.2-61,0L296,217
	C287.6,224.4,274.4,217.3,276.1,206.1z M176,160c17.7,0,32,14.3,32,32s-14.3,32-32,32s-32-14.3-32-32S158.3,160,176,160z M406.9,306
	C398,377,337.4,432,264,432h-16c-73.4,0-134-55-142.9-126c-1.2-9.5,6.3-18,15.9-18h270C400.6,288,408.1,296.4,406.9,306z"/>
</svg>
