<?xml version="1.0" encoding="utf-8"?>
<!-- Generator: Adobe Illustrator 24.0.0, SVG Export Plug-In . SVG Version: 6.00 Build 0)  -->
<svg version="1.1" id="Layer_1" xmlns="http://www.w3.org/2000/svg" xmlns:xlink="http://www.w3.org/1999/xlink" x="0px" y="0px"
	 viewBox="0 0 512 512" style="enable-background:new 0 0 512 512;" xml:space="preserve">
<path d="M256,8C119,8,8,119,8,256s111,248,248,248s248-111,248-248S393,8,256,8z M289.8,169.7l80-48c11.6-6.9,24,7.7,15.4,18
	L351.6,180l33.6,40.3c8.7,10.4-3.9,24.8-15.4,18l-80-48C282.1,185.6,282.1,174.4,289.8,169.7L289.8,169.7z M126.8,139.7
	c-8.6-10.3,3.8-24.9,15.4-18l80,48c7.8,4.7,7.8,15.9,0,20.6l-80,48c-11.5,6.8-24-7.6-15.4-18l33.6-40.3
	C160.4,180,126.8,139.7,126.8,139.7z M406.9,306C398,377,337.4,432,264,432h-16c-73.4,0-134-55-142.9-126c-1.2-9.5,6.3-18,15.9-18
	h270C400.6,288,408.1,296.4,406.9,306z"/>
</svg>
