<?xml version="1.0" encoding="utf-8"?>
<!-- Generator: Adobe Illustrator 24.0.0, SVG Export Plug-In . SVG Version: 6.00 Build 0)  -->
<svg version="1.1" id="Layer_1" xmlns="http://www.w3.org/2000/svg" xmlns:xlink="http://www.w3.org/1999/xlink" x="0px" y="0px"
	 viewBox="0 0 512 512" style="enable-background:new 0 0 512 512;" xml:space="preserve">
<path d="M256,8C119,8,8,119,8,256s111,248,248,248s248-111,248-248S393,8,256,8z M397.4,397.4c-37.8,37.8-88,58.6-141.4,58.6
	s-103.6-20.8-141.4-58.6S56,309.4,56,256s20.8-103.6,58.6-141.4S202.6,56,256,56s103.6,20.8,141.4,58.6S456,202.6,456,256
	S435.2,359.6,397.4,397.4z M336,152c-23.8,0-52.7,29.3-56,71.4c-0.7,8.6,10.8,11.9,14.9,4.5l9.5-17c7.7-13.7,19.2-21.6,31.5-21.6
	s23.8,7.9,31.5,21.6l9.5,17c4.1,7.4,15.6,4,14.9-4.5C388.7,181.3,359.8,152,336,152z M135,227.9l9.5-17
	c7.7-13.7,19.2-21.6,31.5-21.6s23.8,7.9,31.5,21.6l9.5,17c4.1,7.4,15.6,4,14.9-4.5c-3.3-42.1-32.2-71.4-56-71.4s-52.7,29.3-56,71.4
	C119.3,231.9,130.8,235.3,135,227.9z M370.4,288H141.6c-8.2,0-14.5,7-13.5,15c7.5,59.2,58.9,105,121.1,105h13.6
	c62.2,0,113.6-45.8,121.1-105C384.9,295,378.6,288,370.4,288L370.4,288z"/>
</svg>
