<?xml version="1.0" encoding="utf-8"?>
<!-- Generator: Adobe Illustrator 24.0.0, SVG Export Plug-In . SVG Version: 6.00 Build 0)  -->
<svg version="1.1" id="Layer_1" xmlns="http://www.w3.org/2000/svg" xmlns:xlink="http://www.w3.org/1999/xlink" x="0px" y="0px"
	 viewBox="0 0 512 512" style="enable-background:new 0 0 512 512;" xml:space="preserve">
<path d="M485.5,37c-5-11.1-19.2-11.6-25.2-1.1c-27.6,47.9-76.9,77.8-133.3,77.8H256c-94.2,0-170.7,76.5-170.7,170.7
	c0,6.2,0.7,12.2,1.3,18.2c56.7-40.6,138.6-75.1,254.7-75.1c7.8,0,14.2,6.4,14.2,14.2s-6.4,14.2-14.2,14.2
	C117.9,256,23.1,393,2.1,444.5c-5.9,14.5,1.1,31,15.6,37c14.6,6,31.1-1,37.2-15.4c1.3-3.2,18.6-42.6,63.9-80.5
	c28.8,39,83.6,76.3,155.5,68.6C413.8,444,512,318.9,512,165.6C512,121,502.4,74.7,485.5,37z"/>
</svg>
