<?xml version="1.0" encoding="utf-8"?>
<!-- Generator: Adobe Illustrator 24.0.0, SVG Export Plug-In . SVG Version: 6.00 Build 0)  -->
<svg version="1.1" id="Layer_1" xmlns="http://www.w3.org/2000/svg" xmlns:xlink="http://www.w3.org/1999/xlink" x="0px" y="0px"
	 viewBox="0 0 512 512" style="enable-background:new 0 0 512 512;" xml:space="preserve">
<path d="M345.7,124.4l13.7,226.7l-10-0.3c-33-0.8-65.3,8-93.5,25.5c-28.2-17.5-60.5-25.5-93.5-25.5c-41.5,0-74.7,9.8-112.5,25.3
	l28.5-235.3c26-10.8,56-16.5,84-16.5c37.5,0,67.3,12,93.5,38.7C281.3,137.4,309.7,125.1,345.7,124.4z M512,430.9
	c-23.2,0-43.2-4.7-64.3-14.2c-31.2-14.2-63.7-22.8-98.2-22.8c-35.5,0-68.3,11.8-93.5,37c-25.3-25.3-58-37-93.5-37
	c-34.5,0-67,8.5-98.2,22.8c-20.2,9-40.8,14.2-63,14.2H0l38.8-318C74.5,92.6,118,81.1,159.2,81.1c33.7,0,68.5,7,96.8,26.5
	c28.2-19.5,63-26.5,96.8-26.5c41.2,0,84.7,11.5,120.5,31.7L512,430.9z M472.5,390.1l-31-255.2c-28-12.8-61.2-19.5-92-19.5
	c-35,0-67.8,11-93.5,35.2c-25.8-24.3-58.5-35.2-93.5-35.2c-30.7,0-64,6.7-92,19.5l-31,255.2c43-17.7,75.5-30.5,123-30.5
	c34.2,0,64.5,8.7,93.5,27c29-18.3,59.2-27,93.5-27C397,359.6,429.5,372.4,472.5,390.1L472.5,390.1z"/>
</svg>
