<?xml version="1.0" encoding="utf-8"?>
<!-- Generator: Adobe Illustrator 24.0.0, SVG Export Plug-In . SVG Version: 6.00 Build 0)  -->
<svg version="1.1" id="Layer_1" xmlns="http://www.w3.org/2000/svg" xmlns:xlink="http://www.w3.org/1999/xlink" x="0px" y="0px"
	 viewBox="0 0 512 512" style="enable-background:new 0 0 512 512;" xml:space="preserve">
<path d="M490.2,226.4c0-16.4,2.6-26.1,2.6-43.7c0-27.4-10.1-36.2-32.4-36.2H444v19.4h5c11.4,0,13.8,3.8,13.8,17.7
	c0,13-1.3,26.1-1.3,41.2c0,19.4,6.3,26.9,18.9,29.8v1.3c-12.6,3-18.9,10.5-18.9,29.8c0,15.1,1.3,27.4,1.3,41.2
	c0,14.3-3,18.1-13.8,18.1v0.4h-5v20.2h16.4c22.2,0,32.4-8.8,32.4-36.2c0-18.1-2.6-27.4-2.6-43.7c0-8.8,5.4-18.1,21.8-18.9V245
	C495.6,244.5,490.2,235.2,490.2,226.4L490.2,226.4z M405.7,252c-12.6-5-24.4-8-24.4-16.4c0-6.3,5-10.1,14.3-10.1s17.7,3.8,26.9,10.5
	l16.8-22.2c-10.5-8-24.8-16.4-44.2-16.4c-28.6,0-47.9,16.4-47.9,39.5c0,20.6,18.1,31.1,33.2,37c13,5,25.7,9.3,25.7,17.7
	c0,6.3-5,10.5-16.4,10.5c-10.5,0-21-4.2-32.4-13l-16.8,24.4c12.6,10.5,31.9,17.7,47.9,17.7c33.6,0,51.7-17.7,51.7-40.8
	C440.1,267.1,422.1,257.5,405.7,252L405.7,252z M118.5,299.5c-3,0-6.7-2.6-6.7-10.5V146.5H52.1c-22.7,0-32.8,8.8-32.8,36.2
	c0,18.1,2.6,28.2,2.6,43.7c0,8.8-5.4,18.1-21.8,18.9v21.8c16.4,0.4,21.8,9.7,21.8,18.5c0,15.5-2.6,24.8-2.6,42.9
	c0,27.4,10.1,36.2,32.4,36.2h16.4v-19.4h-5c-10.5,0-13.8-4.2-13.8-18.1c0-13.8,1.3-25.7,1.3-41.2c0-19.4-6.3-26.9-18.9-29.8v-1.3
	c12.6-3,18.9-10.5,18.9-29.8c0-15.1-1.3-27.4-1.3-41.2s3-17.7,13.8-17.7h11.3v120.7c0,25.7,8.8,42.5,34.5,42.5c8,0,14.3-1.3,18.9-3
	l-4.2-27.4C121,299.5,119.8,299.5,118.5,299.5L118.5,299.5z M303.9,252c-13-5-24.8-8-24.8-16.4c0-6.3,5-10.1,14.3-10.1
	s17.7,3.8,26.9,10.5l16.8-22.2c-10.5-8-24.8-16.4-44.2-16.4c-28.6,0-47.9,16.4-47.9,39.5c0,20.6,18.1,31.1,33.2,37
	c13,5,25.7,9.3,25.7,17.7c0,6.3-5,10.5-16.4,10.5c-10.5,0-21-4.2-32.4-13l-16.4,24.4c12.6,10.5,31.9,17.7,47.9,17.7
	c33.6,0,51.7-17.7,51.7-40.8C338.4,267.1,320.3,257.5,303.9,252L303.9,252z M179.9,197c-30.7,0-60.1,25.7-59.3,66
	c0,41.6,27.4,66,63.4,66c15.1,0,31.9-5.4,45-14.3l-12.6-22.2c-9.3,5.4-18.1,8-27.4,8c-16.8,0-29.8-8-33.2-27.4H232
	c0.4-3,1.3-8.8,1.3-15.5C233.8,223.4,215.2,197,179.9,197L179.9,197z M155.9,249.9c2.6-16.8,12.6-24.8,24.4-24.8
	c15.1,0,21,10.5,21,24.8H155.9z"/>
</svg>
