<?xml version="1.0" encoding="utf-8"?>
<!-- Generator: Adobe Illustrator 24.0.0, SVG Export Plug-In . SVG Version: 6.00 Build 0)  -->
<svg version="1.1" id="Layer_1" xmlns="http://www.w3.org/2000/svg" xmlns:xlink="http://www.w3.org/1999/xlink" x="0px" y="0px"
	 viewBox="0 0 512 512" style="enable-background:new 0 0 512 512;" xml:space="preserve">
<path d="M176.1,454.4c0,6.3,1.9,12.5,5.4,17.7l17.1,25.7c5.9,8.9,15.9,14.3,26.6,14.3h61.7c10.7,0,20.7-5.4,26.6-14.3l17.1-25.7
	c3.5-5.2,5.4-11.4,5.4-17.7l0-38.4H176C176,416,176.1,454.4,176.1,454.4z M80,176c0,44.4,16.4,84.9,43.6,115.8
	c16.5,18.9,42.4,58.2,52.2,91.4c0,0.3,0.1,0.5,0.1,0.8h160.2c0-0.3,0.1-0.5,0.1-0.8c9.9-33.2,35.7-72.6,52.2-91.5
	C415.5,260.9,432,220.4,432,176C432,78.6,352.9-0.3,255.4,0C153.4,0.3,80,83,80,176z M256,96c-44.1,0-80,35.9-80,80
	c0,8.8-7.2,16-16,16s-16-7.2-16-16c0-61.8,50.2-112,112-112c8.8,0,16,7.2,16,16S264.8,96,256,96z"/>
</svg>
