<?xml version="1.0" encoding="utf-8"?>
<!-- Generator: Adobe Illustrator 24.0.0, SVG Export Plug-In . SVG Version: 6.00 Build 0)  -->
<svg version="1.1" id="Layer_1" xmlns="http://www.w3.org/2000/svg" xmlns:xlink="http://www.w3.org/1999/xlink" x="0px" y="0px"
	 viewBox="0 0 512 512" style="enable-background:new 0 0 512 512;" xml:space="preserve">
<path d="M469.4,226.3c-0.3-0.9-0.9-1.4-1.4-2l-70-38.6c-0.9-0.6-2-0.6-3.1,0l-58.9,36c-0.9,0.6-1.4,1.7-1.4,2.6l-0.9,31.4l-24-16
	c-0.9-0.6-2.3-0.6-3.1,0L272,260.9l-1.4-35.1c0-0.9-0.6-2-1.4-2.3l-36-24.3l33.7-17.4c1.1-0.6,1.7-1.7,1.7-2.9l-5.7-132.3
	c0-0.9-0.9-2-1.7-2.6L170.6,0.3C169.7,0,168.9,0,168.3,0L44.6,38.6c-1.4,0.6-2.3,2-2,3.7L70,175.4c0.9,3.4,34,27.4,38.6,30.9
	l-26.9,12.9c-1.4,0.9-2,2.3-1.7,3.4l20.6,100.3c0.6,2.9,23.7,23.1,27.1,26.3l-17.4,10.6c-0.9,0.6-1.7,2-1.4,3.1
	c1.4,7.1,15.4,77.7,16.9,79.1l65.1,69.1c0.6,0.6,1.4,0.6,2.3,0.9c0.6,0,1.1-0.3,1.7-0.6l83.7-66.9c0.9-0.6,1.1-1.4,1.1-2.3l-2-46
	l28,23.7c1.1,0.9,2.9,0.9,4,0l66.9-53.4c0.9-0.6,1.1-1.4,1.1-2.3l2.3-33.4l20.3,14c1.1,0.9,2.6,0.9,3.7,0l54.6-43.7
	c0.6-0.3,1.1-1.1,1.1-2C460.6,292.6,470,228.3,469.4,226.3L469.4,226.3z M264.6,231.1l4,92.6L178,384.9l-14-96.6L264.6,231.1
	L264.6,231.1z M256.9,51.1l5.4,126l-106.6,55.4L136,97.7C136,97.7,256.9,51.1,256.9,51.1z M76,173.1L50,48l79.7,49.4l19.4,132.9
	L76,173.1z M106.6,320.9L87.7,230l70,58.3l13.7,93.4L106.6,320.9L106.6,320.9z M130.9,438.6l-13.7-67.1l61.7,60.9l9.7,67.4
	L130.9,438.6L130.9,438.6z M195.4,503.1l-10.6-70.9l85.7-61.4l3.1,70L195.4,503.1z M277.4,388c0-3.4,0.9-22.9-2-25.1l-24.3-20
	l22.3-14.9c2.3-1.7,1.1-5.7,1.1-8l29.4,22.6l0.6,68.3L277.4,388z M371.7,362.6l-60.9,48.6l-0.6-68.6l65.7-46.9L371.7,362.6z
	 M399.4,336.9l-19.1-13.4l2-34c0.3-0.9-0.3-2-1.1-2.6L340,259.7l0.6-30l64.6,40.6L399.4,336.9z M454,297.1l-48.3,38.3l5.7-65.1
	l51.1-36.6L454,297.1L454,297.1z"/>
</svg>
