<?xml version="1.0" encoding="utf-8"?>
<!-- Generator: Adobe Illustrator 24.0.0, SVG Export Plug-In . SVG Version: 6.00 Build 0)  -->
<svg version="1.1" id="Layer_1" xmlns="http://www.w3.org/2000/svg" xmlns:xlink="http://www.w3.org/1999/xlink" x="0px" y="0px"
	 viewBox="0 0 512 512" style="enable-background:new 0 0 512 512;" xml:space="preserve">
<path d="M436,256h-48c-6.3,0-12,4.9-12,11.2C376,368,294.2,416,208,416V256.8l134.6-29.9c5.5-1.2,9.4-6.1,9.4-11.7v-41
	c0-7.7-7.1-13.4-14.6-11.7L208,191.2v-30.4l134.6-29.9c5.5-1.2,9.4-6.1,9.4-11.7v-41c0-7.7-7.1-13.4-14.6-11.7L208,95.2V44
	c0-6.6-5.4-12-12-12h-56c-6.6,0-12,5.4-12,12v69l-54.6,12.1c-5.5,1.2-9.4,6.1-9.4,11.7v41c0,7.7,7.1,13.4,14.6,11.7l49.4-11V209
	l-54.6,12.1c-5.5,1.2-9.4,6.1-9.4,11.7v41c0,7.7,7.1,13.4,14.6,11.7l49.4-11V468c0,6.6,5.4,12,12,12h79.6
	c134.1,0,223.3-77.8,228.4-211.6C448.3,261.6,442.8,256,436,256L436,256z"/>
</svg>
