<?xml version="1.0" encoding="utf-8"?>
<!-- Generator: Adobe Illustrator 24.0.0, SVG Export Plug-In . SVG Version: 6.00 Build 0)  -->
<svg version="1.1" id="Layer_1" xmlns="http://www.w3.org/2000/svg" xmlns:xlink="http://www.w3.org/1999/xlink" x="0px" y="0px"
	 viewBox="0 0 512 512" style="enable-background:new 0 0 512 512;" xml:space="preserve">
<path d="M432,224h-24v-72C408,68.2,339.8,0,256,0S104,68.2,104,152v72H80c-26.5,0-48,21.5-48,48v192c0,26.5,21.5,48,48,48h352
	c26.5,0,48-21.5,48-48V272C480,245.5,458.5,224,432,224z M328,224H184v-72c0-39.7,32.3-72,72-72s72,32.3,72,72V224z"/>
</svg>
