<?xml version="1.0" encoding="utf-8"?>
<!-- Generator: Adobe Illustrator 24.0.0, SVG Export Plug-In . SVG Version: 6.00 Build 0)  -->
<svg version="1.1" id="Layer_1" xmlns="http://www.w3.org/2000/svg" xmlns:xlink="http://www.w3.org/1999/xlink" x="0px" y="0px"
	 viewBox="0 0 512 512" style="enable-background:new 0 0 512 512;" xml:space="preserve">
<path d="M376.4,28.4c-74.7,0.3-134.7,61.8-134.7,136.4v62.7H42.7C19.1,227.6,0,246.7,0,270.2v170.7c0,23.6,19.1,42.7,42.7,42.7
	h312.9c23.6,0,42.7-19.1,42.7-42.7V270.2c0-23.6-19.1-42.7-42.7-42.7h-42.7v-63.2c0-35.2,28.2-64.4,63.4-64.8
	c35.6-0.4,64.6,28.5,64.6,64v71.1c0,11.8,9.5,21.3,21.3,21.3h28.4c11.8,0,21.3-9.5,21.3-21.3v-71.1C512,88.9,451.1,28.2,376.4,28.4z
	"/>
</svg>
