<?xml version="1.0" encoding="utf-8"?>
<!-- Generator: Adobe Illustrator 24.0.0, SVG Export Plug-In . SVG Version: 6.00 Build 0)  -->
<svg version="1.1" id="Layer_1" xmlns="http://www.w3.org/2000/svg" xmlns:xlink="http://www.w3.org/1999/xlink" x="0px" y="0px"
	 viewBox="0 0 512 512" style="enable-background:new 0 0 512 512;" xml:space="preserve">
<path d="M506.1,234.3C456,149.3,362.5,92.4,256,92.4c-25.3,0-49.9,3.2-73.3,9.3l-46.9-64.2c-6.8-9.7-20.1-12-29.7-5.2l-11.7,8.2
	c-9.7,6.8-12,20.1-5.2,29.7l38.3,51.9c-48,23.5-91.8,61.6-121.6,112.2c0,0,0,0,0,0c-7.8,13.2-8,29.8,0,43.3
	c34.2,58.1,88.7,103,153.7,125.6L49.2,245.6c7.5-11.3,15.9-22,25.2-31.9l106.1,151.6h0l36.1,51.6c23.3,3.2,46.8,3.5,70.2,1
	L117.9,176.7c11-7.3,22.5-13.7,34.5-19.2l223.9,316.9c6.8,9.7,20.1,12,29.7,5.2l11.7-8.2c9.7-6.8,12-20.1,5.2-29.7l-38.3-51.9l0,0
	c50.8-24.9,93.2-64,121.6-112.3C514,264.3,514,247.7,506.1,234.3L506.1,234.3z M346.7,335.9l-16.9-24.2
	c21.9-28.9,24.6-67.9,7.8-99.3v0c0,21-17,38.1-38.1,38.1c-21.2,0-38.1-17.2-38.1-38.1c0-21,17-38.1,38.1-38.1h0
	c-22-11.8-47.6-13.9-70.7-6.8l-16.9-24.2c13.7-5.3,28.5-8.3,44.1-8.3c66.8,0,120.9,54.1,120.9,120.9
	C376.9,286.7,365.5,314.6,346.7,335.9z"/>
</svg>
