<?xml version="1.0" encoding="utf-8"?>
<!-- Generator: Adobe Illustrator 24.0.0, SVG Export Plug-In . SVG Version: 6.00 Build 0)  -->
<svg version="1.1" id="Layer_1" xmlns="http://www.w3.org/2000/svg" xmlns:xlink="http://www.w3.org/1999/xlink" x="0px" y="0px"
	 viewBox="0 0 512 512" style="enable-background:new 0 0 512 512;" xml:space="preserve">
<path d="M179.2,307.2h25.6V128h-25.6c-14.1,0-25.6,11.5-25.6,25.6v128C153.6,295.7,165.1,307.2,179.2,307.2z M460.8,281.6v-128
	c0-14.1-11.5-25.6-25.6-25.6h-25.6v179.2h25.6C449.3,307.2,460.8,295.7,460.8,281.6z M499.2,358.4H102.4V64
	c0-7.1-5.7-12.8-12.8-12.8H12.8C5.7,51.2,0,56.9,0,64v25.6c0,7.1,5.7,12.8,12.8,12.8h38.4v294.4c0,7.1,5.7,12.8,12.8,12.8h66.4
	c-1.4,4-2.4,8.3-2.4,12.8c0,21.2,17.2,38.4,38.4,38.4s38.4-17.2,38.4-38.4c0-4.5-0.9-8.8-2.4-12.8h158.3c-1.4,4-2.4,8.3-2.4,12.8
	c0,21.2,17.2,38.4,38.4,38.4s38.4-17.2,38.4-38.4c0-4.5-0.9-8.8-2.4-12.8h66.4c7.1,0,12.8-5.7,12.8-12.8v-25.6
	C512,364.1,506.3,358.4,499.2,358.4z M384,128V89.6c0-21.2-17.2-38.4-38.4-38.4h-76.8c-21.2,0-38.4,17.2-38.4,38.4v217.6H384V128z
	 M345.6,128h-76.8V89.6h76.8V128z"/>
</svg>
