<?xml version="1.0" encoding="utf-8"?>
<!-- Generator: Adobe Illustrator 24.0.0, SVG Export Plug-In . SVG Version: 6.00 Build 0)  -->
<svg version="1.1" id="Layer_1" xmlns="http://www.w3.org/2000/svg" xmlns:xlink="http://www.w3.org/1999/xlink" x="0px" y="0px"
	 viewBox="0 0 512 512" style="enable-background:new 0 0 512 512;" xml:space="preserve">
<path d="M275.2,171.7V64c0-7.1-5.7-12.8-12.8-12.8h-12.8c-7.1,0-12.8,5.7-12.8,12.8v107.7C248.6,164.6,263.4,164.6,275.2,171.7z
	 M156.4,406.8c-15-15-15-39.3,0-54.3l6.9-6.9h-9.7c-21.2,0-38.4-17.2-38.4-38.4c0-21.2,17.2-38.4,38.4-38.4h9.7l-6.9-6.9
	c-15.1-14.9-15.2-39.2-0.2-54.3c12.9-13.1,33.3-15.1,48.6-4.9v-22.1c0-29.1-25.1-52.6-56-52.6c-35.2,0-46.4,22.8-64.1,50.5
	c-36.6,57-64.1,119.4-81.6,184.8C1,371,0,379,0,387c0,49,50,84.4,100.2,70.9l47.6-12.7c16.7-4.4,31.4-14.2,42-27.8
	C177.6,419.6,165.1,415.7,156.4,406.8L156.4,406.8z M337.5,388.7c5-5,5-13.1,0-18.1l-6.9-6.9c-16.1-16.1-4.7-43.7,18.1-43.7h9.7
	c7.1,0,12.8-5.7,12.8-12.8c0-7.1-5.7-12.8-12.8-12.8h-9.7c-22.8,0-34.2-27.6-18.1-43.7l6.9-6.9c5-5,5-13.1,0-18.1
	c-5-5-13.1-5-18.1,0l-6.9,6.9c-16.1,16.1-43.7,4.7-43.7-18.1v-9.7c0-7.1-5.7-12.8-12.8-12.8c-7.1,0-12.8,5.7-12.8,12.8v9.7
	c0,22.8-27.6,34.2-43.7,18.1l-6.9-6.9c-5-5-13.1-5-18.1,0c-5,5-5,13.1,0,18.1l6.9,6.9c16.1,16.1,4.7,43.7-18.1,43.7h-9.7
	c-7.1,0-12.8,5.7-12.8,12.8c0,7.1,5.7,12.8,12.8,12.8h9.7c22.8,0,34.2,27.6,18.1,43.7l-6.9,6.9c-5.1,4.9-5.2,13-0.3,18.1
	c4.9,5.1,13,5.2,18.1,0.3c0.1-0.1,0.2-0.2,0.3-0.3l6.9-6.9c16.1-16.1,43.7-4.7,43.7,18.1v9.7c0,7.1,5.7,12.8,12.8,12.8
	c7.1,0,12.8-5.7,12.8-12.8v-9.7c0-22.8,27.6-34.2,43.7-18.1l6.9,6.9C324.4,393.7,332.5,393.7,337.5,388.7
	C337.5,388.7,337.5,388.7,337.5,388.7L337.5,388.7z M230.4,294.4c-7.1,0-12.8-5.7-12.8-12.8c0-7.1,5.7-12.8,12.8-12.8
	s12.8,5.7,12.8,12.8C243.2,288.7,237.5,294.4,230.4,294.4z M281.6,345.6c-7.1,0-12.8-5.7-12.8-12.8s5.7-12.8,12.8-12.8
	c7.1,0,12.8,5.7,12.8,12.8S288.7,345.6,281.6,345.6z M508.9,363.3c-17.5-65.4-45-127.8-81.6-184.8c-17.7-27.7-28.9-50.5-64.1-50.5
	c-30.9,0-56,23.5-56,52.6v22.2c17.6-11.8,41.5-7,53.3,10.6c10.2,15.3,8.2,35.7-4.9,48.6l-6.9,6.8h9.7c21.2,0,38.4,17.2,38.4,38.4
	c0,21.2-17.2,38.4-38.4,38.4h-9.7l6.9,6.9c15.1,14.7,15.5,38.8,0.8,54c-8.9,9.1-21.7,13.3-34.2,11c10.6,13.6,25.3,23.4,42,27.8
	l47.6,12.7C462,471.4,512,436,512,387C512,379,511,371,508.9,363.3z"/>
</svg>
