<?xml version="1.0" encoding="utf-8"?>
<!-- Generator: Adobe Illustrator 24.0.0, SVG Export Plug-In . SVG Version: 6.00 Build 0)  -->
<svg version="1.1" id="Layer_1" xmlns="http://www.w3.org/2000/svg" xmlns:xlink="http://www.w3.org/1999/xlink" x="0px" y="0px"
	 viewBox="0 0 512 512" style="enable-background:new 0 0 512 512;" xml:space="preserve">
<path d="M142.2,426.7c-22.8,0-45.5-19.9-56.9-28.4c-56.9-39.8-74-54-85.3-62.6v119.5c0,15.7,12.7,28.4,28.4,28.4H256
	c15.7,0,28.4-12.7,28.4-28.4V335.6c-11.4,8.5-28.4,22.8-85.3,62.6C187.7,406.8,165,426.7,142.2,426.7z M256,256H28.4
	C12.7,256,0,268.7,0,284.4v14.2c22.8,17.1,19.9,17.1,102.4,76.8c8.5,5.7,25.6,22.8,39.8,22.8c14.2,0,31.3-17.1,39.8-19.9
	c82.5-59.7,79.6-59.7,102.4-76.8v-17.1C284.4,268.7,271.7,256,256,256z M483.6,170.7H199.1c-15.7,0-28.4,12.7-28.4,28.4v28.4H256
	c29.5,0,53.9,22.6,56.6,51.4l0.3-0.2v119.5h170.7c15.7,0,28.4-12.7,28.4-28.4V199.1C512,183.4,499.3,170.7,483.6,170.7z
	 M455.1,284.4h-56.9v-56.9h56.9V284.4z M142.2,199.1c0-31.4,25.5-56.9,56.9-56.9h199.1V56.9c0-15.7-12.7-28.4-28.4-28.4H85.3
	c-15.7,0-28.4,12.7-28.4,28.4v170.7h85.3V199.1z"/>
</svg>
