<?xml version="1.0" encoding="utf-8"?>
<!-- Generator: Adobe Illustrator 24.0.0, SVG Export Plug-In . SVG Version: 6.00 Build 0)  -->
<svg version="1.1" id="Layer_1" xmlns="http://www.w3.org/2000/svg" xmlns:xlink="http://www.w3.org/1999/xlink" x="0px" y="0px"
	 viewBox="0 0 512 512" style="enable-background:new 0 0 512 512;" xml:space="preserve">
<path d="M256,0c35.3,0,64,28.7,64,64s-28.7,64-64,64s-64-28.7-64-64S220.7,0,256,0 M304,144h-11.4c-22.7,10.4-49.6,10.9-73.3,0H208
	c-26.5,0-48,21.5-48,48v136c0,13.3,10.7,24,24,24h16v136c0,13.3,10.7,24,24,24h64c13.3,0,24-10.7,24-24V352h16c13.3,0,24-10.7,24-24
	V192C352,165.5,330.5,144,304,144z"/>
</svg>
