<?xml version="1.0" encoding="utf-8"?>
<!-- Generator: Adobe Illustrator 24.0.0, SVG Export Plug-In . SVG Version: 6.00 Build 0)  -->
<svg version="1.1" id="Layer_1" xmlns="http://www.w3.org/2000/svg" xmlns:xlink="http://www.w3.org/1999/xlink" x="0px" y="0px"
	 viewBox="0 0 512 512" style="enable-background:new 0 0 512 512;" xml:space="preserve">
<path d="M264.3,511.9c-1-3.3-1.7-15.8-1.4-24.6c0.5-15.9,1-24.7,1.4-28.8c0.6-6.2,2.9-20.7,3.3-21.4c0.6-1,0.4-27.9-0.2-33.1
	c-0.3-2.6-0.6-11.9-0.7-20.7c-0.1-16.5-0.5-20.1-2.7-24.8c-1.1-2.3-1.2-3.8-1-11.4c0.2-4.2,0.1-8.5-0.3-12.7
	c-2-13-3.5-27.7-3.3-33.9s0.4-7.1,2.1-9.7c3-4.7,6.5-14,8.6-23.3c2.3-9.9,3.9-17.2,4.6-20.7c1.1-5.1,2.6-10.1,4.4-15.1
	c2.3-6.3,2.5-15.4,0.4-15.4c-0.3,0-1.4,1.2-2.4,2.7c-1,1.5-4.8,4.8-8.3,7.4c-8.4,6.1-11.7,9.4-12.7,12.6c-1,3.2-1,7.2-0.2,7.8
	c0.3,0.2,1.3,2.4,2.1,4.9c1.6,5,1.9,10.3,0.7,15.4c-0.4,1.8-1,5.5-1.5,8.2s-1,6.5-1.3,8.2c-0.2,1.5-0.7,3-1.6,4.3
	c-1,1-1.1,0.9-2.1-0.5c-0.7-1.5-1.2-3.1-1.4-4.8c-0.3-1.7-1.6-7.1-3.1-11.9c-3.3-10.9-3.5-16.1-1-21c0.8-1.4,1.4-3,1.7-4.6
	c0-2.4-2.2-5.3-7.4-9.9c-7-6.2-8.6-7.9-10.2-11.3c-1.7-3.6-3.1-4.1-4.5-1.5c-1.8,3-2.6,9.1-3,22l-0.3,12.2l2,2.3
	c3.2,3.7,12.1,16.5,13.8,19.8c3.4,6.7,4.3,11.7,4.4,23.6s0.9,22.8,2,24.7c0.4,0.7,0.5,1.4,0.3,1.5s0.4,2.1,1.3,4.3
	c1,2.9,1.7,5.9,2.1,9c0.4,3.5,0.9,6.9,1.7,10.4c2.2,9.6,2.8,14.1,2.4,20.1c-0.2,3.3-0.5,11.1-0.7,17.3c-1.3,41.8-1.9,58-2,61.2
	c-0.1,2-0.4,11.5-0.6,21.1c-0.4,16.3-1.3,27.4-2.4,28.6c-0.6,0.7-8.1-4.9-12.5-9.5c-3.8-3.9-4-4.8-2.8-10c0.7-3,2.3-18.3,3.3-32.6
	c0.4-4.8,0.8-10.5,1-12.7c0.8-9.4,1.7-20.4,2.6-34.8c0.6-8.5,1.3-16.4,1.7-17.7s0.9-9.9,1.1-19.1l0.4-16.8l-2.3-4.3
	c-1.7-3.3-4.9-6.9-13.2-15.3c-6-6.1-11.8-12.3-12.9-13.9l-1.9-2.8l0.8-10.9c1.1-15.7,1.1-48.6,0-59.1l-0.9-8.7l-3.3-4.5
	c-5.9-8.1-5.8-7.8-6.2-33.3c-0.1-6.1-0.4-11.5-0.6-12.1c-0.8-1.9-3.1-2.7-8.5-3.1c-8.9-0.6-11-1.9-23.9-14.6
	c-6.1-6-12.3-12-13.8-13.2c-2.8-2.4-2.8-2-0.6-9.6l1.3-4.6l-1.7-3c-0.8-1.4-1.6-2.8-2.6-4.1c-1.3-1.5-5.5-10.9-6-13.5
	c-0.4-1.4-0.1-2.8,0.9-3.9c2.2-2.9,3.4-5.7,4.4-10.7c2.3-11.2,7.7-26.1,10.6-29.2c3.2-3.5,7.7-1,9.4,5c1.3,4.8,1.4,9.8,0.1,18.6
	c-0.5,3.7-0.9,7.4-1,11.1c0,4,0.2,4.7,2.3,7.4c3.3,4.4,7.7,7.4,15.2,10.5c1.7,0.7,3.3,1.7,4.7,2.9c11.2,10.7,18.6,16.2,22.9,16.9
	c5.2,0.8,8,4.5,10,13.4c1.3,5.6,4,11.1,5.5,11.1c1.2-0.2,2.3-0.7,3.3-1.4c2-1.2,2.3-1.7,2.3-4.2c-0.3-6-0.9-11.9-2-17.8
	c-0.4-1.7-0.8-4.1-0.9-5.4s-0.6-3.9-1-5.7c-2.6-11.2-3.6-15.5-4.1-16c-1.6-2-4.1-10.2-4.9-15.9c-1.6-11.1-4-14.2-12.9-17.4
	c-4.9-1.8-9.4-4.5-13.3-7.9c-1.1-1-4-3.2-6.4-5.1s-4.4-3.5-4.6-3.8c-0.8-0.7-1.7-1.4-2.7-2c-6.2-4.2-8.8-7-11.3-12l-2.4-5l-0.2-13
	l-0.2-13l6.9-6.5c3.9-3.8,8.5-7.4,10.6-8.4c3.3-1.7,4.4-1.9,11.4-2c8.5-0.2,10.1,0,11.7,1.6s1.4,6.4-0.3,8.5
	c-0.6,0.7-1.1,1.5-1.3,2.3c0,0.6-2.6,4.9-5.4,9c-1.1,2.2-1.9,4.5-2.4,6.8c20.4,13.4,21.6,3.8,14.1,29l11.4,2.5
	c3.1-8.7,6.5-17.3,8.6-26.2c0.3-7.6-12-4.2-15.4-8.7c-2.3-5.9,3.1-14.2,6.1-19.2c1.6-2.3,6.6-4.7,8.8-4.1c0.9,0.2,4.2-0.4,7.4-1.3
	c2.5-0.8,5-1.3,7.6-1.7c2-0.2,4.1-0.7,6-1.3c3.6-1.1,4.5-1.2,6.3-0.4c1.9,0.6,3.8,1.1,5.8,1.4c2.1,0.3,4.1,0.9,6,1.9
	c1.6,0.9,3.3,1.7,5,2.2c2.5,0.7,3,0.6,7.1-1.7l4.4-2.4L300.3,5c10.4-0.4,10.8-0.5,15.3-2.7l4.6-2.3l2.5,1.4c1.8,1,3.1,2.7,4.9,6
	c2.4,4.5,2.4,4.6,1.4,7.4c-0.9,2.4-0.9,3.3-0.1,6.4c0.5,2,1.2,4,2.1,5.9c0.6,1.3,1.1,2.6,1.3,4c0.3,4.3,0,5.3-2.4,6.9
	c-2.2,1.5-7,7.9-7,9.3c-0.2,1-0.6,2-1.1,3c-5,11.5-6.8,13.6-14.3,17c-9.2,4.2-12.3,5.2-16.2,5.2c-3.1,0-4,0.3-4.5,1.3
	c-1.2,1.4-2.5,2.7-4.1,3.7c-1.8,1.2-3.3,2.9-4.4,4.8c-0.5,1.2-1.4,2.2-2.5,2.9c-0.9,0.4-1.8,1-2.4,1.7c-2.2,1.9-4.6,3.7-7,5.4
	c-3.3,2.3-6.9,5-7.9,6c-0.7,0.7-1.5,1.3-2.4,1.7c-0.8,0.4-1.6,0.9-2.1,1.7c-1.3,1.4-1.5,2.1-1.1,4.6c0.3,2,0.8,4,1.4,5.9
	c1.3,3.8,1.3,7.9,0,10.6s-0.9,6.6,1.4,9.6c2,2.6,2.2,4.6,0.7,8.8c-0.8,2.9-1.1,5.9-1.1,8.9c0,4.9,0.2,6.3,1.5,8.4
	c1.2,2.1,1.8,2.5,3.2,2.3c2-0.2,2.3-1.1,4.7-12.1c2.2-10,3.7-11.9,13.8-17.1c2.9-1.5,7.5-4,10-5.4s6.8-3.7,9.4-4.9
	c5.9-2.6,11.2-6.6,15.2-11.7c7.1-8.8,10-16.2,12.9-33.3c0.4-2.8,1.3-5.4,2.9-7.7c1.4-2.2,2.4-4.7,2.9-7.3c1-5.3,2.9-9.1,5.6-11.5
	c4.7-4.2,6-1.1,4.6,10.9c-0.5,3.9-1.1,10.3-1.4,14.4l-0.6,7.4l4.5,4.1l4.5,4.1l0.1,8.4c0.1,4.6,0.5,9.5,0.9,10.9l0.8,2.5l-6.4,6.3
	c-8.5,8.3-12.9,13.9-16.8,21.6c-1.8,3.5-3.7,7.1-4.4,8c-2.2,3.1-6.5,13-8.8,20.3l-2.3,7.2l-7,6.5c-3.8,3.6-8,7.3-9.2,8.2
	c-3,2.3-4.3,5.1-4.3,10c-0.1,2.5,0.4,5,1.6,7.3c0.8,1.6,1.5,3.2,2.1,4.8c0.3,1,0.9,2,1.6,2.9c1.4,1.6,1.9,16.1,0.8,23.2
	c-0.7,4.5-3.6,12-4.7,12c-1.8,0-4.1,9.3-5.1,20.7c-0.2,2-0.6,5.9-1,8.7s-1,10-1.4,16c-0.8,12.2-0.2,18.8,2,23.1
	c3.4,6.7,0.5,12.7-11,22.8l-4,3.5l0.1,5.2c0.1,3,0.4,6,1.1,8.9c4.6,16,4.7,16.9,4.4,37.1c-0.5,26.4-0.3,40.3,0.6,44.1
	c0.5,2.3,0.9,4.6,1.1,7c0.2,2,0.7,5.3,1.1,7.4c0.5,2.3,0.8,11,0.8,22.7v19.1l-1.8,2.6c-2.7,3.9-15.1,13.5-15.5,12.3L264.3,511.9z
	 M293.8,466.8c-0.2-0.3-0.3-6.9-0.3-14.6c0-14.1-0.9-27.5-2.3-34.5c-0.4-2-0.8-9.7-0.9-17.1c-0.1-11.9-1.4-24.4-2.6-26.4
	c-0.7-1.1-3-17.7-3-21.3c0-4.2,1-6,5.3-9.1s4.9-3.1,5.5-0.7c0.3,1.1,1.5,5.6,2.6,10c3.9,15.1,4.1,16.3,4,21.7
	c-0.1,5.8-0.1,6.1-1.7,17.7c-1,7.1-1.2,12.4-1,28.4c0.2,19.4-0.6,35.7-2,41.3c-0.7,2.8-2.8,5.5-3.4,4.4L293.8,466.8z M222.8,429.2
	c-0.8-3.6-1.3-7.2-1.7-10.8c-0.4-3.6-1-7.2-1.7-10.8c-0.5-2.1-0.9-4.3-1-6.5c-0.3-3.2-0.9-7.5-1.3-9.5c-1-4.8-3.4-19.4-3.4-21.1
	c0-0.7-0.3-4-0.7-7.4c-0.7-6.2-0.8-27.7-0.2-28.3c1-1,6.6,2.8,11.3,7.4l5.3,5.3l-0.4,6.5c-0.3,3.6-0.6,10.2-0.8,14.8
	s-0.5,9.9-0.7,11.7s-0.6,9.4-0.9,16.7c-0.8,17.4-1.9,31.3-2.6,32c-0.2,0.2-0.6,0.3-0.9,0C222.9,429.3,222.8,429.3,222.8,429.2
	L222.8,429.2z M135.6,162.6c21.1,12.8,17.8,14.1,28.5,17.7c13,4.3,18.9,7.1,23.1,16.9c-43.7,36.1-69,57.9-76.7,70.9
	c-31,52-6,101.6,62.8,87.2c-14.2,29.2-78,28.6-98.7-4.9C49.9,310.4,52.5,232,135.6,162.6L135.6,162.6z M346.4,341.6
	c56.7,6.9,82.3-37.7,46.5-89.2c0,0-26.9-29.3-64.3-68c3-15.4,9.5-32.1,30.6-53.8c89.2,63.5,92,141.6,92.5,149.4
	C456,350.6,373,371.1,346.4,341.6L346.4,341.6z"/>
</svg>
