<?xml version="1.0" encoding="utf-8"?>
<!-- Generator: Adobe Illustrator 24.0.0, SVG Export Plug-In . SVG Version: 6.00 Build 0)  -->
<svg version="1.1" id="Layer_1" xmlns="http://www.w3.org/2000/svg" xmlns:xlink="http://www.w3.org/1999/xlink" x="0px" y="0px"
	 viewBox="0 0 512 512" style="enable-background:new 0 0 512 512;" xml:space="preserve">
<path d="M256,28.4c-61.9,0-112,50.1-112,112c0,50,73.2,141.2,101.2,174.2c5.7,6.7,15.8,6.7,21.5,0c28-33.1,101.2-124.2,101.2-174.2
	C368,78.6,317.9,28.4,256,28.4z M17.9,220.4C7.1,224.7,0,235.2,0,246.8v222.5c0,10.1,10.2,16.9,19.5,13.2l122.7-55.9V219.5
	c-7.9-14.2-14.3-28-18.9-41.3L17.9,220.4z M256,348.2c-12.5,0-24.3-5.5-32.5-15.1c-17.5-20.6-36.1-44.1-52.9-68.2v161.8l170.7,56.9
	V264.9c-16.8,24.1-35.4,47.6-52.9,68.2C280.3,342.7,268.5,348.2,256,348.2z M492.5,171.7l-122.7,55.9v256l124.3-49.7
	c10.8-4.3,17.9-14.8,17.9-26.4V184.9C512,174.8,501.8,168,492.5,171.7L492.5,171.7z"/>
</svg>
