<?xml version="1.0" encoding="utf-8"?>
<!-- Generator: Adobe Illustrator 24.0.0, SVG Export Plug-In . SVG Version: 6.00 Build 0)  -->
<svg version="1.1" id="Layer_1" xmlns="http://www.w3.org/2000/svg" xmlns:xlink="http://www.w3.org/1999/xlink" x="0px" y="0px"
	 viewBox="0 0 512 512" style="enable-background:new 0 0 512 512;" xml:space="preserve">
<path d="M224,316.9v156.7l22,33c4.8,7.1,15.2,7.1,20,0l22-33V316.9c-10.4,1.9-21.1,3.1-32,3.1S234.4,318.9,224,316.9z M256,0
	c-79.5,0-144,64.5-144,144s64.5,144,144,144s144-64.5,144-144S335.5,0,256,0z M256,76c-37.5,0-68,30.5-68,68c0,6.6-5.4,12-12,12
	s-12-5.4-12-12c0-50.7,41.3-92,92-92c6.6,0,12,5.4,12,12S262.6,76,256,76z"/>
</svg>
