<?xml version="1.0" encoding="utf-8"?>
<!-- Generator: Adobe Illustrator 24.0.0, SVG Export Plug-In . SVG Version: 6.00 Build 0)  -->
<svg version="1.1" id="Layer_1" xmlns="http://www.w3.org/2000/svg" xmlns:xlink="http://www.w3.org/1999/xlink" x="0px" y="0px"
	 viewBox="0 0 512 512" style="enable-background:new 0 0 512 512;" xml:space="preserve">
<path d="M497.8,56.9c-1.7,0-3.5,0.3-5.3,1l-151.2,55.9h0l-152.9-54c-5.8-1.9-11.9-2.9-18-2.9c-5.9,0-11.9,0.9-17.6,2.8l-135,46.9
	C7.1,110.9,0,121.4,0,133v307.8c0,8.2,6.7,14.2,14.2,14.2c1.7,0,3.5-0.3,5.3-1l151.2-55.9l152.9,54c11.5,3.9,24,3.9,35.6,0.1
	l135-46.9c10.8-4.3,17.9-14.8,17.9-26.4V71.1C512,63,505.3,56.9,497.8,56.9z M199.1,108.8L312.9,149v254.2L199.1,363V108.8z
	 M42.7,400V143.2l113.8-39.6V358l-0.6,0.2L42.7,400z M469.3,368.8l-113.8,39.6V154l0.6-0.2L469.3,112V368.8z"/>
</svg>
