<?xml version="1.0" encoding="utf-8"?>
<!-- Generator: Adobe Illustrator 24.0.0, SVG Export Plug-In . SVG Version: 6.00 Build 0)  -->
<svg version="1.1" id="Layer_1" xmlns="http://www.w3.org/2000/svg" xmlns:xlink="http://www.w3.org/1999/xlink" x="0px" y="0px"
	 viewBox="0 0 512 512" style="enable-background:new 0 0 512 512;" xml:space="preserve">
<path d="M475,98.5H37c-20.4,0-37,16.6-37,36.9v241.2c0,20.4,16.6,37,37,37h438.2c20.4,0,37-16.6,36.9-36.9V135.4
	C512,115,495.4,98.5,475,98.5z M270.8,339.7h-49.2v-96l-49.2,61.5l-49.2-61.5v96H73.8V172.3H123l49.2,61.5l49.2-61.5h49.2v167.4
	L270.8,339.7z M379,342.2L305.2,256h49.2v-83.7h49.2V256h49.2L379,342.2z"/>
</svg>
