<?xml version="1.0" encoding="utf-8"?>
<!-- Generator: Adobe Illustrator 24.0.0, SVG Export Plug-In . SVG Version: 6.00 Build 0)  -->
<svg version="1.1" id="Layer_1" xmlns="http://www.w3.org/2000/svg" xmlns:xlink="http://www.w3.org/1999/xlink" x="0px" y="0px"
	 viewBox="0 0 512 512" style="enable-background:new 0 0 512 512;" xml:space="preserve">
<path d="M436,64h-79c-10.7,0-16,12.9-8.5,20.5l16.9,16.9l-17.5,17.5l-14.1-14.1c-4.7-4.7-12.3-4.7-17,0L288.5,133
	c-4.7,4.7-4.7,12.3,0,17l14.1,14.1l-18,18c-22.2-14-48.5-22.1-76.7-22.1C128.5,160,64,224.5,64,304s64.5,144,144,144
	s144-64.5,144-144c0-28.2-8.1-54.5-22.1-76.7l18-18l14.1,14.1c4.7,4.7,12.3,4.7,17,0l28.3-28.3c4.7-4.7,4.7-12.3,0-17L393.2,164
	l17.5-17.5l16.9,16.9c7.6,7.6,20.5,2.2,20.5-8.5V76C448,69.4,442.6,64,436,64z M208,384c-44.1,0-80-35.9-80-80s35.9-80,80-80
	s80,35.9,80,80S252.1,384,208,384z"/>
</svg>
