<?xml version="1.0" encoding="utf-8"?>
<!-- Generator: Adobe Illustrator 24.0.0, SVG Export Plug-In . SVG Version: 6.00 Build 0)  -->
<svg version="1.1" id="Layer_1" xmlns="http://www.w3.org/2000/svg" xmlns:xlink="http://www.w3.org/1999/xlink" x="0px" y="0px"
	 viewBox="0 0 512 512" style="enable-background:new 0 0 512 512;" xml:space="preserve">
<path d="M492.2,247.5l-55.9-55.9c-7.6-7.6-20.5-2.2-20.5,8.5V224H392v-20c0-6.6-5.4-12-12-12h-40c-6.6,0-12,5.4-12,12v20h-27.6
	c-5.8-25.6-18.7-49.9-38.6-69.8C205.6,98,114.4,98,58.2,154.2S2,301.6,58.2,357.8s147.4,56.2,203.6,0c19.9-19.9,32.8-44.2,38.6-69.8
	H328v20c0,6.6,5.4,12,12,12h40c6.6,0,12-5.4,12-12v-20h23.9v23.9c0,10.7,12.9,16,20.5,8.5l55.9-55.9
	C496.9,259.8,496.9,252.2,492.2,247.5L492.2,247.5z M216.6,312.6c-31.2,31.2-81.9,31.2-113.1,0s-31.2-81.9,0-113.1
	s81.9-31.2,113.1,0C247.8,230.6,247.8,281.4,216.6,312.6z"/>
</svg>
