<?xml version="1.0" encoding="utf-8"?>
<!-- Generator: Adobe Illustrator 24.0.0, SVG Export Plug-In . SVG Version: 6.00 Build 0)  -->
<svg version="1.1" id="Layer_1" xmlns="http://www.w3.org/2000/svg" xmlns:xlink="http://www.w3.org/1999/xlink" x="0px" y="0px"
	 viewBox="0 0 512 512" style="enable-background:new 0 0 512 512;" xml:space="preserve">
<path d="M357.8,234.2c-19.9-19.9-44.2-32.8-69.8-38.6v-25.4h20c6.6,0,12-5.4,12-12v-40c0-6.6-5.4-12-12-12h-20V81.4h23.9
	c10.7,0,16-12.9,8.5-20.5L264.5,5.1c-4.7-4.7-12.3-4.7-17,0L191.6,61c-7.6,7.6-2.2,20.5,8.5,20.5H224v24.7h-20c-6.6,0-12,5.4-12,12
	v40c0,6.6,5.4,12,12,12h20v25.4c-25.6,5.8-49.9,18.7-69.8,38.6c-56.2,56.2-56.2,147.4,0,203.6s147.4,56.2,203.6,0
	C414.1,381.6,414.1,290.4,357.8,234.2L357.8,234.2z M312.6,392.6c-31.2,31.2-81.9,31.2-113.1,0s-31.2-81.9,0-113.1
	s81.9-31.2,113.1,0C343.8,310.6,343.8,361.4,312.6,392.6z"/>
</svg>
