<?xml version="1.0" encoding="utf-8"?>
<!-- Generator: Adobe Illustrator 24.0.0, SVG Export Plug-In . SVG Version: 6.00 Build 0)  -->
<svg version="1.1" id="Layer_1" xmlns="http://www.w3.org/2000/svg" xmlns:xlink="http://www.w3.org/1999/xlink" x="0px" y="0px"
	 viewBox="0 0 512 512" style="enable-background:new 0 0 512 512;" xml:space="preserve">
<path d="M436,64h-79c-10.7,0-16,12.9-8.5,20.5l16.9,16.9l-80.7,80.7c-22.2-14-48.5-22.1-76.7-22.1c-79.5,0-144,64.5-144,144
	s64.5,144,144,144s144-64.5,144-144c0-28.2-8.1-54.5-22.1-76.7l80.7-80.7l16.9,16.9c7.6,7.6,20.5,2.2,20.5-8.5V76
	C448,69.4,442.6,64,436,64L436,64z M208,384c-44.1,0-80-35.9-80-80s35.9-80,80-80s80,35.9,80,80S252.1,384,208,384z"/>
</svg>
