<?xml version="1.0" encoding="utf-8"?>
<!-- Generator: Adobe Illustrator 24.0.0, SVG Export Plug-In . SVG Version: 6.00 Build 0)  -->
<svg version="1.1" id="Layer_1" xmlns="http://www.w3.org/2000/svg" xmlns:xlink="http://www.w3.org/1999/xlink" x="0px" y="0px"
	 viewBox="0 0 512 512" style="enable-background:new 0 0 512 512;" xml:space="preserve">
<path d="M256.5,102.4c-354.1,0-286.1,307.2-126.8,307.2c31.9,0,62-16.6,81.1-44.7l20.6-30.2c12.5-18.4,37.6-18.4,50.1,0l20.6,30.2
	c19.2,28.1,49.2,44.7,81.1,44.7C535.2,409.6,615.8,102.4,256.5,102.4L256.5,102.4z M147.2,297.9c-32.8,0-54.2-20.5-64.1-32.8
	c-4.2-5.2-4.2-12.9,0-18.1c9.9-12.3,31.2-32.8,64.1-32.8s54.2,20.5,64.1,32.8c4.2,5.2,4.2,12.9,0,18.1
	C201.4,277.4,180,297.9,147.2,297.9L147.2,297.9z M364.8,297.9c-32.8,0-54.2-20.5-64.1-32.8c-4.2-5.2-4.2-12.9,0-18.1
	c9.9-12.3,31.2-32.8,64.1-32.8s54.2,20.5,64.1,32.8c4.2,5.2,4.2,12.9,0,18.1C419,277.4,397.6,297.9,364.8,297.9z"/>
</svg>
