<?xml version="1.0" encoding="utf-8"?>
<!-- Generator: Adobe Illustrator 24.0.0, SVG Export Plug-In . SVG Version: 6.00 Build 0)  -->
<svg version="1.1" id="Layer_1" xmlns="http://www.w3.org/2000/svg" xmlns:xlink="http://www.w3.org/1999/xlink" x="0px" y="0px"
	 viewBox="0 0 512 512" style="enable-background:new 0 0 512 512;" xml:space="preserve">
<path d="M9.4,168.9L0,343.5h40l5.1-72.7l25.4,72.7h40.7l23.3-70.5l4.4,70.5h41.5l-11.7-174.5h-41.5L90.2,275.8L51.6,168.9H9.4z
	 M265.4,168.9h-43.6v174.5h43.6c0,0,86.5,0.7,85.8-87.3C350.6,170.4,265.5,168.9,265.4,168.9L265.4,168.9z M264.4,302.3v-93
	c0,0,41.9,3.9,42.6,46.1C307.7,297.6,264.4,302.4,264.4,302.3L264.4,302.3z M481.4,234.7c6.5-10.4,9.1-22.8,7.3-34.9
	c-4.9-32.6-50.2-31.3-50.2-31.3h-47.3v174.5h41.5c0,0,79.3,4.4,79.3-58.2C512,245.6,481.5,234.7,481.4,234.7L481.4,234.7z
	 M434.2,205.6c0,0,12.4-1.4,14.6,8.7c1.3,6.1-3.6,10.9-3.6,10.9h-10.9V205.6L434.2,205.6z M434.1,305.3l0.1-22.7V266h0.1
	c0,0,37.9-4.3,37.5,20.4C471.5,309.8,434.1,305.4,434.1,305.3L434.1,305.3z"/>
</svg>
