<?xml version="1.0" encoding="utf-8"?>
<!-- Generator: Adobe Illustrator 24.0.0, SVG Export Plug-In . SVG Version: 6.00 Build 0)  -->
<svg version="1.1" id="Layer_1" xmlns="http://www.w3.org/2000/svg" xmlns:xlink="http://www.w3.org/1999/xlink" x="0px" y="0px"
	 viewBox="0 0 512 512" style="enable-background:new 0 0 512 512;" xml:space="preserve">
<path d="M214.3,238.4c3.5-12.5,6.9-33.6,13.2-33.6c8.3,1.8,9.6,23.4,18.6,36.6c4.6-23.5,5.3-85.1,14.1-86.7c9-0.7,19.7,66.5,22,77.5
	c9.9,4.1,48.9,6.6,48.9,6.6c1.9,7.3-24,7.6-40,7.8c-4.6,14.8-5.4,27.7-11.4,28c-4.7,0.2-8.2-28.8-17.5-49.6l-9.4,65.5
	c-4.4,13-15.5-22.5-21.9-39.3c-3.3-0.1-62.4-1.6-47.6-7.8L214.3,238.4L214.3,238.4z M324,448c21.2,0,21.2-32,0-32H188
	c-21.2,0-21.2,32,0,32H324z M300,512c21.2,0,21.2-32,0-32h-88c-21.2,0-21.2,32,0,32H300z M334.2,370.5c3.2-18.9,5.2-36.4,11.9-48.8
	c7.9-14.7,16.1-28.1,24-41c24.6-40.4,45.9-75.2,45.9-125.5C416,69.6,344.2,0,256,0S96,69.6,96,155.2c0,50.2,21.3,85.1,45.9,125.5
	c7.9,12.9,16,26.3,24,41c6.7,12.5,8.7,29.8,11.9,48.9c3.5,21,36.1,15.7,32.6-5.1c-3.6-21.7-5.6-40.7-15.3-58.6
	c-32.6-60.4-66.1-95.6-66.1-151.7C129,87.3,186,32,256,32s127,55.3,127,123.2c0,56.1-33.5,91.3-66.1,151.6
	c-9.7,18-11.7,37.4-15.3,58.6C298.2,386,330.6,391.8,334.2,370.5L334.2,370.5z"/>
</svg>
