<?xml version="1.0" encoding="utf-8"?>
<!-- Generator: Adobe Illustrator 24.0.0, SVG Export Plug-In . SVG Version: 6.00 Build 0)  -->
<svg version="1.1" id="Layer_1" xmlns="http://www.w3.org/2000/svg" xmlns:xlink="http://www.w3.org/1999/xlink" x="0px" y="0px"
	 viewBox="0 0 512 512" style="enable-background:new 0 0 512 512;" xml:space="preserve">
<path d="M32,32v448h448V32H32z M404.2,138.1l-24,23c-2.1,1.6-3.1,4.2-2.7,6.7v169.3c-0.4,2.6,0.6,5.2,2.7,6.7l23.5,23v5.1h-118V367
	l24.3-23.6c2.4-2.4,2.4-3.1,2.4-6.7V199.8l-67.6,171.6h-9.1L157,199.8v115c-0.7,4.8,1,9.7,4.4,13.2l31.6,38.3v5.1h-89.8v-5.1
	l31.6-38.3c3.4-3.5,4.9-8.4,4.1-13.2v-133c0.4-3.7-1-7.3-3.8-9.8L107,138.1V133h87.3l67.4,148L321,133.1h83.2V138.1z"/>
</svg>
