<?xml version="1.0" encoding="utf-8"?>
<!-- Generator: Adobe Illustrator 24.0.0, SVG Export Plug-In . SVG Version: 6.00 Build 0)  -->
<svg version="1.1" id="Layer_1" xmlns="http://www.w3.org/2000/svg" xmlns:xlink="http://www.w3.org/1999/xlink" x="0px" y="0px"
	 viewBox="0 0 512 512" style="enable-background:new 0 0 512 512;" xml:space="preserve">
<path d="M107,256c0,114.6,79,209.7,182.1,226.9c-17.6,4.2-36,6.5-54.8,6.5C104.9,489.4,0,384.9,0,256S104.9,22.6,234.3,22.6
	c18.9,0,37.3,2.3,54.8,6.5C185.9,46.3,107,141.4,107,256 M386.9,350.4c-73.1,52.1-169,44.7-226.3-13.7c5.2,13.3,12,26.1,20.4,38.1
	c58,83,171.7,102.9,253.8,44.2c82.2-58.6,101.7-173.5,43.8-256.6c-8.5-12.1-18.2-22.9-28.7-32.2C485.2,204.4,460,298.3,386.9,350.4
	 M181,120.8c-1.3,0.9-2.5,2-3.8,2.9c60.5-16.8,127.9,3.8,168.4,56.9c33.6,44.2,40.4,100.3,23,148.7c53.4-52.9,63.6-133.7,21-189.9
	C342.5,77.7,249.2,69.4,181,120.8 M278.6,225.9c-4.1,0-7.5-3.4-7.5-7.5v-37.6c0-4.1-3.4-7.5-7.5-7.5h-45.2c-4.1,0-7.5,3.4-7.5,7.5
	v37.6c0,4.1-3.4,7.5-7.5,7.5h-37.6c-4.1,0-7.5,3.4-7.5,7.5v45.2c0,4.1,3.4,7.5,7.5,7.5h37.6c4.1,0,7.5,3.4,7.5,7.5v37.6
	c0,4.1,3.4,7.5,7.5,7.5h45.2c4.1,0,7.5-3.4,7.5-7.5v-37.6c0-4.1,3.4-7.5,7.5-7.5h37.6c4.1,0,7.5-3.4,7.5-7.5v-45.2
	c0-4.1-3.4-7.5-7.5-7.5H278.6z"/>
</svg>
