<?xml version="1.0" encoding="utf-8"?>
<!-- Generator: Adobe Illustrator 24.0.0, SVG Export Plug-In . SVG Version: 6.00 Build 0)  -->
<svg version="1.1" id="Layer_1" xmlns="http://www.w3.org/2000/svg" xmlns:xlink="http://www.w3.org/1999/xlink" x="0px" y="0px"
	 viewBox="0 0 512 512" style="enable-background:new 0 0 512 512;" xml:space="preserve">
<path d="M222.5,209.6v66.2l33.5,33.5l33.3-33.3v-66.4l-33.4-33.4L222.5,209.6z M256,8C119,8,8,119,8,256s111,248,248,248
	s248-111,248-248S393,8,256,8z M401.1,422.4L375,441.6l-26-19.2v-65.5l-33.4-33.4l-33.4,33.4v65.5L256,441.6l-26.1-19.2v-65.5
	l-33.4-33.4L163,356.9v65.5l-26.1,19.2l-26.1-19.2v-87l59.5-59.5V188l59.5-59.5V52.9l26.1-19.2L282,52.9v75.6l59.5,59.5v87.6
	l59.7,59.7v87.1L401.1,422.4z"/>
</svg>
