<?xml version="1.0" encoding="utf-8"?>
<!-- Generator: Adobe Illustrator 24.0.0, SVG Export Plug-In . SVG Version: 6.00 Build 0)  -->
<svg version="1.1" id="Layer_1" xmlns="http://www.w3.org/2000/svg" xmlns:xlink="http://www.w3.org/1999/xlink" x="0px" y="0px"
	 viewBox="0 0 512 512" style="enable-background:new 0 0 512 512;" xml:space="preserve">
<path d="M256,8C119,8,8,119,8,256s111,248,248,248s248-111,248-248S393,8,256,8z M96,224c0-24.3,13.7-45.2,33.6-56
	c-0.7,2.6-1.6,5.2-1.6,8c0,17.7,14.3,32,32,32s32-14.3,32-32c0-2.8-0.9-5.4-1.6-8c19.9,10.8,33.6,31.7,33.6,56c0,35.3-28.7,64-64,64
	S96,259.3,96,224z M320,400H192c-21.2,0-21.2-32,0-32h128C341.2,368,341.2,400,320,400z M352,288c-35.3,0-64-28.7-64-64
	c0-24.3,13.7-45.2,33.6-56c-0.7,2.6-1.6,5.2-1.6,8c0,17.7,14.3,32,32,32s32-14.3,32-32c0-2.8-0.9-5.4-1.6-8
	c19.9,10.8,33.6,31.7,33.6,56C416,259.3,387.3,288,352,288z"/>
</svg>
