<?xml version="1.0" encoding="utf-8"?>
<!-- Generator: Adobe Illustrator 24.0.0, SVG Export Plug-In . SVG Version: 6.00 Build 0)  -->
<svg version="1.1" id="Layer_1" xmlns="http://www.w3.org/2000/svg" xmlns:xlink="http://www.w3.org/1999/xlink" x="0px" y="0px"
	 viewBox="0 0 512 512" style="enable-background:new 0 0 512 512;" xml:space="preserve">
<path d="M256,8C119,8,8,119,8,256s111,248,248,248s248-111,248-248S393,8,256,8z M256,456c-110.3,0-200-89.7-200-200
	S145.7,56,256,56s200,89.7,200,200S366.3,456,256,456z M344,152c-39.8,0-72,32.2-72,72s32.2,72,72,72s72-32.2,72-72
	S383.8,152,344,152z M344,264c-22.1,0-40-17.9-40-40c0-13.6,7.3-25.1,17.7-32.3c-1,2.6-1.7,5.3-1.7,8.3c0,13.3,10.7,24,24,24
	s24-10.7,24-24c0-2.9-0.7-5.7-1.7-8.3c10.4,7.2,17.7,18.7,17.7,32.3C384,246.1,366.1,264,344,264z M240,224c0-39.8-32.2-72-72-72
	s-72,32.2-72,72s32.2,72,72,72S240,263.8,240,224z M128,224c0-13.6,7.3-25.1,17.7-32.3c-1,2.6-1.7,5.3-1.7,8.3c0,13.3,10.7,24,24,24
	s24-10.7,24-24c0-2.9-0.7-5.7-1.7-8.3c10.4,7.2,17.7,18.7,17.7,32.3c0,22.1-17.9,40-40,40S128,246.1,128,224z M320,352H192
	c-13.2,0-24,10.8-24,24s10.8,24,24,24h128c13.2,0,24-10.8,24-24S333.2,352,320,352z"/>
</svg>
