<?xml version="1.0" encoding="utf-8"?>
<!-- Generator: Adobe Illustrator 24.0.0, SVG Export Plug-In . SVG Version: 6.00 Build 0)  -->
<svg version="1.1" id="Layer_1" xmlns="http://www.w3.org/2000/svg" xmlns:xlink="http://www.w3.org/1999/xlink" x="0px" y="0px"
	 viewBox="0 0 512 512" style="enable-background:new 0 0 512 512;" xml:space="preserve">
<path d="M256,8C119,8,8,119,8,256s111,248,248,248s248-111,248-248S393,8,256,8z M256,456c-110.3,0-200-89.7-200-200
	S145.7,56,256,56s200,89.7,200,200S366.3,456,256,456z M176,240c17.7,0,32-14.3,32-32s-14.3-32-32-32s-32,14.3-32,32
	S158.3,240,176,240z M336,176c-17.7,0-32,14.3-32,32s14.3,32,32,32s32-14.3,32-32S353.7,176,336,176z M344,320H168
	c-13.2,0-24,10.8-24,24s10.8,24,24,24h176c13.2,0,24-10.8,24-24S357.2,320,344,320z"/>
</svg>
