<?xml version="1.0" encoding="utf-8"?>
<!-- Generator: Adobe Illustrator 24.0.0, SVG Export Plug-In . SVG Version: 6.00 Build 0)  -->
<svg version="1.1" id="Layer_1" xmlns="http://www.w3.org/2000/svg" xmlns:xlink="http://www.w3.org/1999/xlink" x="0px" y="0px"
	 viewBox="0 0 512 512" style="enable-background:new 0 0 512 512;" xml:space="preserve">
<path d="M499.7,311.4c-9.8-9.9-23.8-15.4-38.7-13.8c-34.6-0.8-39.8-27.9-30-79c18.2-46-11.9-105.2-69.9-104.6
	c-61.9,0.6-65.4,65.6-104.7,65.6c-38.5,0-43.2-65-104.7-65.6c-58.3-0.6-88.1,58.6-69.9,104.6c9.8,51.1,4.6,78.2-30,79
	c-17-1.8-29.6,5.2-42.4,18c-15.9,15.8-15.4,75.8,34.1,82.1c37.7,4.7,65.3-34.3,49-70.2c-37.8-83,148.7-84.9,117.2-6.6
	c-0.1,0.1-0.2,0.2-0.2,0.3c-21.4,34.2,5.4,77.9,47,76.2c41.7,1.7,68.3-42.1,47-76.2c-0.1-0.2-0.2-0.2-0.2-0.3
	c-31.5-78.3,155-76.4,117.2,6.6c-3.7,8-5.4,17-4.6,26.4c3.9,42.7,55,59.3,83.9,28.2C513.9,370.2,518.2,329.5,499.7,311.4
	L499.7,311.4z M256.6,296.1h-0.5c-34.7,0-50.2-30-50.2-50.2c0-27.8,22.6-50.2,50.2-50.2h0.5c27.8,0,50.2,22.5,50.2,50.2
	C306.8,265.8,291.4,296.1,256.6,296.1z"/>
</svg>
