<?xml version="1.0" encoding="utf-8"?>
<!-- Generator: Adobe Illustrator 24.0.0, SVG Export Plug-In . SVG Version: 6.00 Build 0)  -->
<svg version="1.1" id="Layer_1" xmlns="http://www.w3.org/2000/svg" xmlns:xlink="http://www.w3.org/1999/xlink" x="0px" y="0px"
	 viewBox="0 0 512 512" style="enable-background:new 0 0 512 512;" xml:space="preserve">
<path d="M115.2,153.6H89.6c-7.1,0-12.8,5.7-12.8,12.8v115.2H128V166.4C128,159.3,122.3,153.6,115.2,153.6z M192,153.6h-25.6
	c-7.1,0-12.8,5.7-12.8,12.8v115.2h51.2V166.4C204.8,159.3,199.1,153.6,192,153.6z M345.6,153.6H320c-7.1,0-12.8,5.7-12.8,12.8v115.2
	h51.2V166.4C358.4,159.3,352.7,153.6,345.6,153.6z M422.4,153.6h-25.6c-7.1,0-12.8,5.7-12.8,12.8v115.2h51.2V166.4
	C435.2,159.3,429.5,153.6,422.4,153.6z M486.4,128c14.1,0,25.6-11.5,25.6-25.6s-25.6-51.2-25.6-51.2s-25.6,37.1-25.6,51.2
	S472.3,128,486.4,128z M409.6,128c14.1,0,25.6-11.5,25.6-25.6s-25.6-51.2-25.6-51.2S384,88.3,384,102.4S395.5,128,409.6,128z
	 M332.8,128c14.1,0,25.6-11.5,25.6-25.6s-25.6-51.2-25.6-51.2s-25.6,37.1-25.6,51.2S318.7,128,332.8,128z M256,128
	c14.1,0,25.6-11.5,25.6-25.6S256,51.2,256,51.2s-25.6,37.1-25.6,51.2S241.9,128,256,128z M179.2,128c14.1,0,25.6-11.5,25.6-25.6
	s-25.6-51.2-25.6-51.2s-25.6,37.1-25.6,51.2S165.1,128,179.2,128z M102.4,128c14.1,0,25.6-11.5,25.6-25.6s-25.6-51.2-25.6-51.2
	s-25.6,37.1-25.6,51.2S88.3,128,102.4,128z M25.6,128c14.1,0,25.6-11.5,25.6-25.6S25.6,51.2,25.6,51.2S0,88.3,0,102.4
	S11.5,128,25.6,128z M460.8,281.6c0,14.1-11.5,25.6-25.6,25.6H281.6V166.4c0-7.1-5.7-12.8-12.8-12.8h-25.6
	c-7.1,0-12.8,5.7-12.8,12.8v140.8H76.8c-14.1,0-25.6-11.5-25.6-25.6V166.4c0-7.1-5.7-12.8-12.8-12.8H12.8c-7.1,0-12.8,5.7-12.8,12.8
	v115.2c0,42.4,34.4,76.8,76.8,76.8h153.6v51.2H89.6c-7.1,0-12.8,5.7-12.8,12.8V448c0,7.1,5.7,12.8,12.8,12.8h332.8
	c7.1,0,12.8-5.7,12.8-12.8v-25.6c0-7.1-5.7-12.8-12.8-12.8H281.6v-51.2h153.6c42.4,0,76.8-34.4,76.8-76.8V166.4
	c0-7.1-5.7-12.8-12.8-12.8h-25.6c-7.1,0-12.8,5.7-12.8,12.8V281.6z"/>
</svg>
