<?xml version="1.0" encoding="utf-8"?>
<!-- Generator: Adobe Illustrator 24.0.0, SVG Export Plug-In . SVG Version: 6.00 Build 0)  -->
<svg version="1.1" id="Layer_1" xmlns="http://www.w3.org/2000/svg" xmlns:xlink="http://www.w3.org/1999/xlink" x="0px" y="0px"
	 viewBox="0 0 512 512" style="enable-background:new 0 0 512 512;" xml:space="preserve">
<path d="M400,208c0-44.2-19.9-83.7-51.2-110.1c2.5-1.8,4.9-3.8,7.2-5.8c24.7-21.2,39.8-48.8,43.2-78.8C400.1,6.2,394.5,0,387.3,0
	h-40.5C341,0,336.1,4.1,335,9.8c-2.4,12.5-9.6,24.3-20.7,33.8C299,56.8,278.3,64,256,64s-43-7.2-58.4-20.4
	c-11.1-9.5-18.2-21.3-20.7-33.8c-1.1-5.7-6-9.8-11.7-9.8h-40.5c-7.2,0-12.8,6.2-11.9,13.3c3.4,30.1,18.4,57.7,43.2,78.9
	c2.3,2,4.7,3.9,7.2,5.8c-31.3,26.3-51.2,65.8-51.2,110c0,68.5,47.9,125.9,112,140.4V400h-36c-6.6,0-12,5.4-12,12v40
	c0,6.6,5.4,12,12,12h36v36c0,6.6,5.4,12,12,12h40c6.6,0,12-5.4,12-12v-36h36c6.6,0,12-5.4,12-12v-40c0-6.6-5.4-12-12-12h-36v-51.6
	C352.1,333.9,400,276.5,400,208z M176,208c0-44.1,35.9-80,80-80s80,35.9,80,80s-35.9,80-80,80S176,252.1,176,208z"/>
</svg>
