<?xml version="1.0" encoding="utf-8"?>
<!-- Generator: Adobe Illustrator 24.0.0, SVG Export Plug-In . SVG Version: 6.00 Build 0)  -->
<svg version="1.1" id="Layer_1" xmlns="http://www.w3.org/2000/svg" xmlns:xlink="http://www.w3.org/1999/xlink" x="0px" y="0px"
	 viewBox="0 0 512 512" style="enable-background:new 0 0 512 512;" xml:space="preserve">
<path d="M507.1,417.7l-126-97.4c10-19.3,15.8-41.1,15.8-64.3v-38.4c0-7.1-5.7-12.8-12.8-12.8h-12.8c-7.1,0-12.8,5.7-12.8,12.8V256
	c0,14.3-3.2,27.8-8.6,40.2l-21.2-16.4c2.5-7.5,4.2-15.4,4.2-23.7h-34.9l-33.1-25.6h68v-25.6h-68.3c-4.7,0-8.5-2.9-8.5-6.4v-12.8
	c0-3.5,3.8-6.4,8.5-6.4h68.3v-25.6h-68.3c-4.7,0-8.5-2.9-8.5-6.4v-12.8c0-3.5,3.8-6.4,8.5-6.4h68.3c0-42.4-34.4-76.8-76.8-76.8
	s-76.8,34.4-76.8,76.8v36.3L36.4,53.9c-5.6-4.3-13.6-3.3-18,2.2L2.7,76.4c-4.3,5.6-3.3,13.6,2.2,18l470.7,363.8
	c5.6,4.3,13.6,3.3,18-2.2l15.7-20.2C513.6,430.1,512.6,422,507.1,417.7z M320,422.4h-44.8v-27c9.4-1.3,18.5-3.4,27.2-6.5L262,357.7
	c-5.4,0.3-10.7,0.7-16.3,0.2c-44.7-4.4-79-38.9-88.9-81.5l-41.6-32.2v5.5c0,71.7,51.2,135.6,121.6,145.4v27.3H192
	c-7.1,0-12.8,5.7-12.8,12.8V448c0,7.1,5.7,12.8,12.8,12.8h128c7.1,0,12.8-5.7,12.8-12.8v-12.8C332.8,428.1,327.1,422.4,320,422.4z"
	/>
</svg>
