<?xml version="1.0" encoding="utf-8"?>
<!-- Generator: Adobe Illustrator 24.0.0, SVG Export Plug-In . SVG Version: 6.00 Build 0)  -->
<svg version="1.1" id="Layer_1" xmlns="http://www.w3.org/2000/svg" xmlns:xlink="http://www.w3.org/1999/xlink" x="0px" y="0px"
	 viewBox="0 0 512 512" style="enable-background:new 0 0 512 512;" xml:space="preserve">
<path d="M431.4,362.2c29.5-34.7,47.1-78.3,47.1-125.8C478.5,123.5,378.9,32,256,32S33.5,123.5,33.5,236.4S133.1,440.9,256,440.9
	c27,0,53.9-4.5,79.4-13.4c3-1,6.3,0,8.1,2.6c18.6,25.1,47.6,42.7,79.9,49.9c2.4,0.5,4.7-1,5.2-3.4c0.3-1.3,0-2.6-0.9-3.6
	c-25.4-33-23.9-79.4,3.7-110.7L431.4,362.2z M361.5,212.4l-57.3,43.5l20.8,68.9c1,3.4-0.9,7.1-4.3,8.1c-1.9,0.6-4,0.3-5.6-0.9
	l-59.1-41L196.9,332c-3,2.1-7,1.3-9.1-1.6c-1.1-1.6-1.5-3.7-0.9-5.6l20.8-68.9l-57.3-43.5c-2.9-2.2-3.4-6.2-1.3-9.1
	c1.2-1.6,3.1-2.5,5.1-2.6l71.9-1.5l23.7-67.9c1.2-3.4,4.9-5.2,8.3-4c1.9,0.7,3.4,2.1,4,4l23.7,67.9l71.9,1.5c3.6,0,6.5,3,6.5,6.5
	C364.1,209.3,363.1,211.2,361.5,212.4L361.5,212.4z"/>
</svg>
