<?xml version="1.0" encoding="utf-8"?>
<!-- Generator: Adobe Illustrator 24.0.0, SVG Export Plug-In . SVG Version: 6.00 Build 0)  -->
<svg version="1.1" id="Layer_1" xmlns="http://www.w3.org/2000/svg" xmlns:xlink="http://www.w3.org/1999/xlink" x="0px" y="0px"
	 viewBox="0 0 512 512" style="enable-background:new 0 0 512 512;" xml:space="preserve">
<g>
	<path d="M228.5,317.8l-0.8-11c-2.5-22.9,5.1-47.9,26.3-73.3c19.1-22.5,29.6-39,29.6-58c0-21.6-13.6-36-40.2-36.4
		c-15.2,0-32.2,5.1-42.8,13.1l-10.2-26.7c14-10.2,38.1-16.9,60.6-16.9c48.7,0,70.7,30.1,70.7,62.2c0,28.8-16.1,49.6-36.4,73.7
		c-18.6,22-25.4,40.7-24.1,62.3l0.4,11H228.5z M219.2,377.1c0-15.7,10.6-26.7,25.4-26.7c14.8,0,25,11,25,26.7
		c0,14.8-9.7,26.3-25.4,26.3C229.3,403.4,219.2,392,219.2,377.1z"/>
</g>
</svg>
