<?xml version="1.0" encoding="utf-8"?>
<!-- Generator: Adobe Illustrator 24.0.0, SVG Export Plug-In . SVG Version: 6.00 Build 0)  -->
<svg version="1.1" id="Layer_1" xmlns="http://www.w3.org/2000/svg" xmlns:xlink="http://www.w3.org/1999/xlink" x="0px" y="0px"
	 viewBox="0 0 512 512" style="enable-background:new 0 0 512 512;" xml:space="preserve">
<path d="M400,416H80c-8.8,0-16,7.2-16,16v64c0,8.8,7.2,16,16,16h320c8.8,0,16-7.2,16-16v-64C416,423.2,408.8,416,400,416z
	 M457,206.9c-27.2-22.6-67.5-19-90.1,8.2l-20.9,25l-29.6-128.4c-18-77.5-95.4-125.9-172.8-108S17.8,98.9,35.7,176.4L83.6,384h309
	l72.5-87C487.8,269.8,484.1,229.5,457,206.9z"/>
</svg>
