<?xml version="1.0" encoding="utf-8"?>
<!-- Generator: Adobe Illustrator 24.0.0, SVG Export Plug-In . SVG Version: 6.00 Build 0)  -->
<svg version="1.1" id="Layer_1" xmlns="http://www.w3.org/2000/svg" xmlns:xlink="http://www.w3.org/1999/xlink" x="0px" y="0px"
	 viewBox="0 0 512 512" style="enable-background:new 0 0 512 512;" xml:space="preserve">
<path d="M339.8,226.9c-6.7-68.2-64.4-121.8-134.4-121.8c-58,0-109.3,37.3-127.8,91.6C33.8,203.1,0,240.7,0,286.2
	c0,50,40.7,90.7,90.9,90.7h232.4c42,0,76.2-34,76.2-76C399.6,264.7,373.8,234.2,339.8,226.9L339.8,226.9z M323.4,342.9H90.9
	c-31.3,0-56.9-25.3-56.9-56.7s25.6-56.7,56.9-56.7c15.1,0,29.3,6,40,16.7c16,16,40.2-8.2,24.2-24.2c-11.8-11.6-26.2-19.6-41.8-23.6
	c16-35.6,52-59.3,92-59.3c55.8,0,101.1,45.3,101.1,100.9c0,10.9-1.8,21.6-5.1,31.8c-7.2,22.1,25.8,31.3,32.2,10.7
	c2.2-6.7,4-13.6,5.1-20.4c15.6,6,26.9,21.1,26.9,38.9C365.6,324,346.7,342.9,323.4,342.9L323.4,342.9z M512,300.9
	c0,35.3-10.2,69.3-29.8,98.4c-3.3,4.9-8.7,7.6-14.2,7.6c-13.1,0-21.8-15.1-14-26.4c15.6-23.6,24-51.1,24-79.6c0-28.4-8.4-56-24-79.3
	c-12.6-18.3,15.5-37.9,28.2-18.9C501.8,231.6,512,265.6,512,300.9L512,300.9z M455.2,300.9c0,25.3-7.3,49.8-21.6,70.9
	c-3.3,4.9-8.7,7.3-14.2,7.3c-13.8,0-21.7-15.2-14-26.4c10.4-15.3,15.8-33.1,15.8-51.8c0-18.4-5.3-36.4-15.8-51.8
	c-12.6-18.4,15.3-37.8,28.2-18.9C447.8,251.1,455.2,275.6,455.2,300.9L455.2,300.9z"/>
</svg>
