<?xml version="1.0" encoding="utf-8"?>
<!-- Generator: Adobe Illustrator 24.0.0, SVG Export Plug-In . SVG Version: 6.00 Build 0)  -->
<svg version="1.1" id="Layer_1" xmlns="http://www.w3.org/2000/svg" xmlns:xlink="http://www.w3.org/1999/xlink" x="0px" y="0px"
	 viewBox="0 0 512 512" style="enable-background:new 0 0 512 512;" xml:space="preserve">
<path d="M256,8C119,8,8,119.1,8,256c0,137,111,248,248,248s248-111,248-248C504,119.1,393,8,256,8z M176,359.9
	c-31.4,10.6-58.8,27.3-80,48.2V136c0-22.1,17.9-40,40-40s40,17.9,40,40V359.9z M296,350c-12.9-2-26.2-3.1-39.8-3.1
	c-13.8,0-27.2,1.1-40.2,3.1V136c0-22.1,17.9-40,40-40s40,17.9,40,40V350z M416,407.7c-21.2-20.8-48.6-37.4-80-48V136
	c0-22.1,17.9-40,40-40s40,17.9,40,40V407.7z"/>
</svg>
