<?xml version="1.0" encoding="utf-8"?>
<!-- Generator: Adobe Illustrator 24.0.0, SVG Export Plug-In . SVG Version: 6.00 Build 0)  -->
<svg version="1.1" id="Layer_1" xmlns="http://www.w3.org/2000/svg" xmlns:xlink="http://www.w3.org/1999/xlink" x="0px" y="0px"
	 viewBox="0 0 512 512" style="enable-background:new 0 0 512 512;" xml:space="preserve">
<path d="M368,0H144c-26.5,0-48,21.5-48,48v416c0,26.5,21.5,48,48,48h224c26.5,0,48-21.5,48-48V48C416,21.5,394.5,0,368,0z M256,480
	c-17.7,0-32-14.3-32-32s14.3-32,32-32s32,14.3,32,32S273.7,480,256,480z M368,372c0,6.6-5.4,12-12,12H156c-6.6,0-12-5.4-12-12V60
	c0-6.6,5.4-12,12-12h200c6.6,0,12,5.4,12,12V372z"/>
</svg>
