<?xml version="1.0" encoding="utf-8"?>
<!-- Generator: Adobe Illustrator 24.0.0, SVG Export Plug-In . SVG Version: 6.00 Build 0)  -->
<svg version="1.1" id="Layer_1" xmlns="http://www.w3.org/2000/svg" xmlns:xlink="http://www.w3.org/1999/xlink" x="0px" y="0px"
	 viewBox="0 0 512 512" style="enable-background:new 0 0 512 512;" xml:space="preserve">
<path d="M486.4,76.8H25.6C11.4,76.8,0,88.2,0,102.4v307.2c0,14.2,11.4,25.6,25.6,25.6h460.8c14.2,0,25.6-11.4,25.6-25.6V102.4
	C512,88.2,500.6,76.8,486.4,76.8z M140.8,313.5v12.9c0,3.5-2.9,6.4-6.4,6.4h-12.8c-3.5,0-6.4-2.9-6.4-6.4v-13
	c-9-0.5-17.8-3.6-25.1-9.1c-3.1-2.3-3.3-7-0.5-9.7l9.4-9c2.2-2.1,5.5-2.2,8.1-0.6c3.1,1.9,6.6,3,10.2,3h22.5c5.2,0,9.4-4.7,9.4-10.6
	c0-4.8-2.9-9-7-10.2l-36-10.8C91.4,252,81,237.8,81,221.8c0-19.6,15.3-35.5,34.2-36.1v-12.9c0-3.5,2.9-6.4,6.4-6.4h12.8
	c3.5,0,6.4,2.9,6.4,6.4v13c9,0.5,17.8,3.6,25.1,9.1c3.1,2.3,3.3,7,0.5,9.7l-9.4,9c-2.2,2.1-5.5,2.2-8.1,0.6c-3.1-1.9-6.6-3-10.2-3
	h-22.6c-5.2,0-9.4,4.7-9.4,10.6c0,4.7,2.9,9,7,10.2l36,10.8c14.9,4.5,25.3,18.7,25.3,34.7C175,297,159.7,313,140.8,313.5
	L140.8,313.5z M332.8,300.8c0,3.5-2.9,6.4-6.4,6.4h-89.6c-3.5,0-6.4-2.9-6.4-6.4V288c0-3.5,2.9-6.4,6.4-6.4h89.6
	c3.5,0,6.4,2.9,6.4,6.4V300.8z M460.8,300.8c0,3.5-2.9,6.4-6.4,6.4h-64c-3.5,0-6.4-2.9-6.4-6.4V288c0-3.5,2.9-6.4,6.4-6.4h64
	c3.5,0,6.4,2.9,6.4,6.4V300.8z M460.8,224c0,3.5-2.9,6.4-6.4,6.4H236.8c-3.5,0-6.4-2.9-6.4-6.4v-12.8c0-3.5,2.9-6.4,6.4-6.4h217.6
	c3.5,0,6.4,2.9,6.4,6.4V224z"/>
</svg>
