<?xml version="1.0" encoding="utf-8"?>
<!-- Generator: Adobe Illustrator 24.0.0, SVG Export Plug-In . SVG Version: 6.00 Build 0)  -->
<svg version="1.1" id="Layer_1" xmlns="http://www.w3.org/2000/svg" xmlns:xlink="http://www.w3.org/1999/xlink" x="0px" y="0px"
	 viewBox="0 0 512 512" style="enable-background:new 0 0 512 512;" xml:space="preserve">
<path d="M281.6,281.6h-12.8v-70.4c0-3.5-2.9-6.4-6.4-6.4h-10.9c-3.8,0-7.5,1.1-10.6,3.2l-12.3,8.2c-2.9,2-3.7,5.9-1.8,8.9
	c0,0,0,0,0,0l7.1,10.6c2,2.9,5.9,3.7,8.9,1.8c0,0,0,0,0,0l0.4-0.2v44.4h-12.8c-3.5,0-6.4,2.9-6.4,6.4v12.8c0,3.5,2.9,6.4,6.4,6.4
	h51.2c3.5,0,6.4-2.9,6.4-6.4V288C288,284.5,285.1,281.6,281.6,281.6L281.6,281.6z M486.4,102.4H25.6C11.5,102.4,0,113.9,0,128v256
	c0,14.1,11.5,25.6,25.6,25.6h460.8c14.1,0,25.6-11.5,25.6-25.6V128C512,113.9,500.5,102.4,486.4,102.4z M38.4,371.2V320
	c28.3,0,51.2,22.9,51.2,51.2H38.4z M38.4,192v-51.2h51.2C89.6,169.1,66.7,192,38.4,192z M256,345.6c-42.4,0-76.8-40.1-76.8-89.6
	c0-49.5,34.4-89.6,76.8-89.6s76.8,40.1,76.8,89.6C332.8,305.5,298.4,345.6,256,345.6z M473.6,371.2h-51.2
	c0-28.3,22.9-51.2,51.2-51.2V371.2z M473.6,192c-28.3,0-51.2-22.9-51.2-51.2h51.2V192z"/>
</svg>
