<?xml version="1.0" encoding="utf-8"?>
<!-- Generator: Adobe Illustrator 24.0.0, SVG Export Plug-In . SVG Version: 6.00 Build 0)  -->
<svg version="1.1" id="Layer_1" xmlns="http://www.w3.org/2000/svg" xmlns:xlink="http://www.w3.org/1999/xlink" x="0px" y="0px"
	 viewBox="0 0 512 512" style="enable-background:new 0 0 512 512;" xml:space="preserve">
<path d="M256,166.4c-42.4,0-76.8,40.1-76.8,89.6c0,49.5,34.4,89.6,76.8,89.6c42.4,0,76.8-40.1,76.8-89.6
	C332.8,206.5,298.4,166.4,256,166.4z M288,300.8c0,3.5-2.9,6.4-6.4,6.4h-51.2c-3.5,0-6.4-2.9-6.4-6.4V288c0-3.5,2.9-6.4,6.4-6.4
	h12.8v-44.4l-0.4,0.2c-2.9,2-6.9,1.2-8.9-1.8c0,0,0,0,0,0l-7.1-10.6c-2-2.9-1.2-6.9,1.8-8.9c0,0,0,0,0,0l12.3-8.2
	c3.2-2.1,6.9-3.2,10.6-3.2h10.9c3.5,0,6.4,2.9,6.4,6.4v70.4h12.8c3.5,0,6.4,2.9,6.4,6.4V300.8z M486.4,102.4H25.6
	C11.5,102.4,0,113.9,0,128v256c0,14.1,11.5,25.6,25.6,25.6h460.8c14.1,0,25.6-11.5,25.6-25.6V128C512,113.9,500.5,102.4,486.4,102.4
	z M473.6,320c-28.3,0-51.2,22.9-51.2,51.2H89.6c0-28.3-22.9-51.2-51.2-51.2V192c28.3,0,51.2-22.9,51.2-51.2h332.8
	c0,28.3,22.9,51.2,51.2,51.2V320z"/>
</svg>
