<?xml version="1.0" encoding="utf-8"?>
<!-- Generator: Adobe Illustrator 24.0.0, SVG Export Plug-In . SVG Version: 6.00 Build 0)  -->
<svg version="1.1" id="Layer_1" xmlns="http://www.w3.org/2000/svg" xmlns:xlink="http://www.w3.org/1999/xlink" x="0px" y="0px"
	 viewBox="0 0 512 512" style="enable-background:new 0 0 512 512;" xml:space="preserve">
<path d="M0,409.6c0,14.1,11.5,25.6,25.6,25.6h460.8c14.1,0,25.6-11.5,25.6-25.6v-256H0V409.6z M358.4,243.2
	c0-7.1,5.7-12.8,12.8-12.8H448c7.1,0,12.8,5.7,12.8,12.8v25.6c0,7.1-5.7,12.8-12.8,12.8h-76.8c-7.1,0-12.8-5.7-12.8-12.8V243.2z
	 M358.4,339.2c0-3.5,2.9-6.4,6.4-6.4h89.6c3.5,0,6.4,2.9,6.4,6.4V352c0,3.5-2.9,6.4-6.4,6.4h-89.6c-3.5,0-6.4-2.9-6.4-6.4V339.2z
	 M51.2,262.4c0-3.5,2.9-6.4,6.4-6.4h243.2c3.5,0,6.4,2.9,6.4,6.4v12.8c0,3.5-2.9,6.4-6.4,6.4H57.6c-3.5,0-6.4-2.9-6.4-6.4V262.4z
	 M51.2,339.2c0-3.5,2.9-6.4,6.4-6.4h140.8c3.5,0,6.4,2.9,6.4,6.4V352c0,3.5-2.9,6.4-6.4,6.4H57.6c-3.5,0-6.4-2.9-6.4-6.4V339.2z
	 M499.2,76.8H12.8C5.7,76.8,0,82.5,0,89.6V128h512V89.6C512,82.5,506.3,76.8,499.2,76.8z"/>
</svg>
