<?xml version="1.0" encoding="utf-8"?>
<!-- Generator: Adobe Illustrator 24.0.0, SVG Export Plug-In . SVG Version: 6.00 Build 0)  -->
<svg version="1.1" id="Layer_1" xmlns="http://www.w3.org/2000/svg" xmlns:xlink="http://www.w3.org/1999/xlink" x="0px" y="0px"
	 viewBox="0 0 512 512" style="enable-background:new 0 0 512 512;" xml:space="preserve">
<path d="M496.9,94.8c-31-13-62.1-18-93.1-18c-98.5,0-197.1,49.9-295.6,49.9c-24.7,0-49.4-3.1-74.1-11c-2.8-0.9-5.6-1.3-8.3-1.3
	C12,114.4,0,125.1,0,139.8v253.8c0,10.1,5.8,19.7,15.1,23.6c31,13,62.1,18,93.1,18c98.5,0,197.1-49.9,295.6-49.9
	c24.7,0,49.4,3.1,74.1,11c2.8,0.9,5.6,1.3,8.3,1.3c13.8,0,25.8-10.7,25.8-25.4V118.3C512,108.2,506.2,98.7,496.9,94.8L496.9,94.8z
	 M38.4,157c16.1,4,32.9,6.1,50.2,7.1c-4.7,23.5-25.4,41.2-50.2,41.2V157z M38.4,385v-38.2c27.5,0,49.7,21.8,51,49.1
	C71.3,394.4,54.5,390.8,38.4,385z M256,332.8c-35.4,0-64-34.4-64-76.8c0-42.4,28.7-76.8,64-76.8s64,34.4,64,76.8
	C320,298.4,291.3,332.8,256,332.8z M473.6,355c-14-3.5-28.6-5.5-43.5-6.8c4.7-20.9,22-36.7,43.5-39.4V355z M473.6,166.1
	c-24.7-3.1-43.9-23.8-44.6-49.2c15.6,1.7,30.5,5,44.6,10.1V166.1z"/>
</svg>
