<?xml version="1.0" encoding="utf-8"?>
<!-- Generator: Adobe Illustrator 24.0.0, SVG Export Plug-In . SVG Version: 6.00 Build 0)  -->
<svg version="1.1" id="Layer_1" xmlns="http://www.w3.org/2000/svg" xmlns:xlink="http://www.w3.org/1999/xlink" x="0px" y="0px"
	 viewBox="0 0 512 512" style="enable-background:new 0 0 512 512;" xml:space="preserve">
<path d="M486.4,102.4H25.6C11.5,102.4,0,113.9,0,128v256c0,14.1,11.5,25.6,25.6,25.6h460.8c14.1,0,25.6-11.5,25.6-25.6V128
	C512,113.9,500.5,102.4,486.4,102.4z M38.4,371.2V320c28.3,0,51.2,22.9,51.2,51.2H38.4z M38.4,192v-51.2h51.2
	C89.6,169.1,66.7,192,38.4,192z M256,332.8c-35.4,0-64-34.4-64-76.8c0-42.4,28.7-76.8,64-76.8s64,34.4,64,76.8
	C320,298.4,291.3,332.8,256,332.8z M473.6,371.2h-51.2c0-28.3,22.9-51.2,51.2-51.2V371.2z M473.6,192c-28.3,0-51.2-22.9-51.2-51.2
	h51.2V192z"/>
</svg>
