<?xml version="1.0" encoding="utf-8"?>
<!-- Generator: Adobe Illustrator 24.0.0, SVG Export Plug-In . SVG Version: 6.00 Build 0)  -->
<svg version="1.1" id="Layer_1" xmlns="http://www.w3.org/2000/svg" xmlns:xlink="http://www.w3.org/1999/xlink" x="0px" y="0px"
	 viewBox="0 0 512 512" style="enable-background:new 0 0 512 512;" xml:space="preserve">
<path d="M432,448H80c-8.8,0-16,7.2-16,16v32c0,8.8,7.2,16,16,16h352c8.8,0,16-7.2,16-16v-32C448,455.2,440.8,448,432,448z
	 M353.1,100.7c-0.7-7.3-4-14.2-9.2-19.4L267.3,4.7c-6.3-6.3-16.4-6.3-22.6,0l-76.6,76.6c-5.2,5.2-8.5,12.1-9.2,19.4L128,416h256
	L353.1,100.7z M304,307.2c0,6.4-6.4,12.8-12.8,12.8h-70.4c-6.4,0-12.8-6.4-12.8-12.8v-38.4c0-6.4,6.4-12.8,12.8-12.8h70.4
	c6.4,0,12.8,6.4,12.8,12.8V307.2L304,307.2z"/>
</svg>
