<?xml version="1.0" encoding="utf-8"?>
<!-- Generator: Adobe Illustrator 24.0.0, SVG Export Plug-In . SVG Version: 6.00 Build 0)  -->
<svg version="1.1" id="Layer_1" xmlns="http://www.w3.org/2000/svg" xmlns:xlink="http://www.w3.org/1999/xlink" x="0px" y="0px"
	 viewBox="0 0 512 512" style="enable-background:new 0 0 512 512;" xml:space="preserve">
<path d="M0,435.2c0,14.1,11.5,25.6,25.6,25.6h51.2c14.1,0,25.6-11.5,25.6-25.6v-256H0V435.2z M463.3,281.6
	c14.3-13.9,23.1-29.9,23.1-47.1c0-42.3-33.4-75-70.3-98.3c-33.6-21.2-64.5-46.2-89.6-77l-6.5-8l-6.5,8c-25.1,30.8-56,55.8-89.6,77
	c-36.9,23.3-70.3,56-70.3,98.3c0,17.3,8.8,33.2,23.1,47.1H463.3L463.3,281.6z M486.4,307.2H153.6c-14.1,0-25.6,11.5-25.6,25.6v102.4
	c0,14.1,11.5,25.6,25.6,25.6h25.6v-51.2c0-14.1,11.5-25.6,25.6-25.6c14.1,0,25.6,11.5,25.6,25.6v51.2h51.2v-57.6
	c0-38.4,38.4-57.6,38.4-57.6s38.4,19.2,38.4,57.6v57.6h51.2v-51.2c0-14.1,11.5-25.6,25.6-25.6s25.6,11.5,25.6,25.6v51.2h25.6
	c14.1,0,25.6-11.5,25.6-25.6V332.8C512,318.7,500.5,307.2,486.4,307.2z M51.2,51.2C51.2,51.2,0,76.8,0,128v25.6h102.4V128
	C102.4,76.8,51.2,51.2,51.2,51.2z"/>
</svg>
