<?xml version="1.0" encoding="utf-8"?>
<!-- Generator: Adobe Illustrator 24.0.0, SVG Export Plug-In . SVG Version: 6.00 Build 0)  -->
<svg version="1.1" id="Layer_1" xmlns="http://www.w3.org/2000/svg" xmlns:xlink="http://www.w3.org/1999/xlink" x="0px" y="0px"
	 viewBox="0 0 512 512" style="enable-background:new 0 0 512 512;" xml:space="preserve">
<path d="M410.3,204.8c-11.9-0.1-23.3,1.8-33.9,5.5l-26.3-43.9H416c10.6,0,19.2-8.6,19.2-19.2v-25.6c0-10.6-8.6-19.2-19.2-19.2h-36.2
	c-5.4,0-10.6,2.3-14.2,6.3l-30,33.4l-18.2-30.4c-3.5-5.8-9.8-9.3-16.5-9.3h-64c-7,0-12.8,5.8-12.8,12.8V128c0,7,5.8,12.8,12.8,12.8
	h53.1l15.4,25.6H182.3c-14.2-18.5-35.9-32-79.9-32H58c-10.8,0-19.8,8.8-19.6,19.6c0.2,10.4,8.7,18.8,19.2,18.8h44.8
	c19.6,0,31,8.7,38.2,19.8l-9,16.4c-10.4-3.1-21.5-4.6-33-4.2c-53.8,1.9-97.3,46-98.5,99.9c-1.3,57.7,45,104.8,102.4,104.8
	c47.7,0,87.7-32.6,99.2-76.8H269c11,0,19.7-9.1,19.2-20.1c-1.7-37.7,14-74.9,45-100l10,16.6c-22.1,19-36.1,47.1-35.8,78.5
	c0.4,55.7,45.8,101.2,101.4,101.7c57.3,0.6,103.8-46,103.3-103.3C511.5,250.6,466,205.2,410.3,204.8z M102.4,371.2
	c-35.3,0-64-28.7-64-64s28.7-64,64-64c3.4,0,6.7,0.2,10,0.8l-33.2,60.3c-7,12.8,2.2,28.5,16.8,28.5h65
	C151.1,355.3,128.6,371.2,102.4,371.2z M473.5,310.7c-1.8,32.5-28,58.7-60.4,60.4c-36.9,2-67.5-27.4-67.5-63.9
	c0-17.1,6.7-32.6,17.7-44.1l39.5,65.9c3.6,6.1,11.5,8,17.6,4.4l11-6.6c6.1-3.6,8-11.5,4.4-17.6l-38.9-64.7c4.2-0.9,8.4-1.3,12.7-1.3
	C446,243.2,475.4,273.8,473.5,310.7L473.5,310.7z"/>
</svg>
