<?xml version="1.0" encoding="utf-8"?>
<!-- Generator: Adobe Illustrator 24.0.0, SVG Export Plug-In . SVG Version: 6.00 Build 0)  -->
<svg version="1.1" id="Layer_1" xmlns="http://www.w3.org/2000/svg" xmlns:xlink="http://www.w3.org/1999/xlink" x="0px" y="0px"
	 viewBox="0 0 512 512" style="enable-background:new 0 0 512 512;" xml:space="preserve">
<path d="M306.3,373.6c-14.2,13.6-31.3,24.1-50.4,30.5c-19-6.4-36.2-16.9-50.3-30.5H306.3z M350.3,174c20-16.9,43.6-29.2,69.6-36.2
	V299c0,219.4-328,217.6-328,0.3V137.7c25.9,6.9,49.6,19.6,69.5,36.4C218.2,134.1,293.9,134.2,350.3,174z M141.5,115.5
	c64.4-60,164.3-60.1,228.9-0.2c-7.1,3.5-13.9,7.3-20.6,11.5c-58.7-30.5-129.2-30.4-187.9,0.1C155.6,122.9,148,118.7,141.5,115.5
	L141.5,115.5z M51.8,93.2v69.3C-6.6,199-6.6,283.6,51.9,320.8c26.4,245.1,381.7,240.3,407.6,1.5l0.3-1.7
	c58.7-36.3,58.9-121.7,0.2-158.2V93.2c-17.3,0.5-34,3-50.1,7.4c-82-91.5-225.5-91.5-307.5,0.1C86.1,96.3,69.3,93.7,51.8,93.2z
	 M267.2,352c0,0,36-0.3,61.3-1.5c10.2-0.5,21.1-4,25.5-6.5c26.3-15.1,25.4-39.2,26.2-47.4C300.7,296,280.3,292.7,267.2,352z
	 M131.7,296.7c0.8,8.2-0.1,32.3,26.2,47.4c4.4,2.5,15.2,6,25.5,6.5c25.3,1.1,61.3,1.5,61.3,1.5C231.5,292.7,211,296,131.7,296.7z
	 M300.8,420.1c-3.2-5.3-6.9-7.3-6.9-7.3c-24.8,7.3-52.2,6.9-75.9,0c0,0-2.9,1.5-6.4,6.6c-2.8,4.1-3.7,9.6-3.7,9.6
	c29.1,17.6,67.1,17.6,96.2,0C304,428.9,303.8,425,300.8,420.1L300.8,420.1z"/>
</svg>
