<?xml version="1.0" encoding="utf-8"?>
<!-- Generator: Adobe Illustrator 24.0.0, SVG Export Plug-In . SVG Version: 6.00 Build 0)  -->
<svg version="1.1" id="Layer_1" xmlns="http://www.w3.org/2000/svg" xmlns:xlink="http://www.w3.org/1999/xlink" x="0px" y="0px"
	 viewBox="0 0 512 512" style="enable-background:new 0 0 512 512;" xml:space="preserve">
<path d="M512,262.4v-12.8c0-7.1-5.7-12.8-12.8-12.8h-224v-32h57.6c14.1,0,25.6-11.5,25.6-25.6V76.8c0-14.1-11.5-25.6-25.6-25.6
	H179.2c-14.1,0-25.6,11.5-25.6,25.6v102.4c0,14.1,11.5,25.6,25.6,25.6h57.6v32h-224c-7.1,0-12.8,5.7-12.8,12.8v12.8
	c0,7.1,5.7,12.8,12.8,12.8H96v32H51.2c-14.1,0-25.6,11.5-25.6,25.6v102.4c0,14.1,11.5,25.6,25.6,25.6h128
	c14.1,0,25.6-11.5,25.6-25.6V332.8c0-14.1-11.5-25.6-25.6-25.6h-44.8v-32h243.2v32h-44.8c-14.1,0-25.6,11.5-25.6,25.6v102.4
	c0,14.1,11.5,25.6,25.6,25.6h128c14.1,0,25.6-11.5,25.6-25.6V332.8c0-14.1-11.5-25.6-25.6-25.6H416v-32h83.2
	C506.3,275.2,512,269.5,512,262.4z M204.8,153.6v-51.2h102.4v51.2H204.8z M153.6,409.6H76.8v-51.2h76.8V409.6z M435.2,409.6h-76.8
	v-51.2h76.8V409.6z"/>
</svg>
