<?xml version="1.0" encoding="utf-8"?>
<!-- Generator: Adobe Illustrator 24.0.0, SVG Export Plug-In . SVG Version: 6.00 Build 0)  -->
<svg version="1.1" id="Layer_1" xmlns="http://www.w3.org/2000/svg" xmlns:xlink="http://www.w3.org/1999/xlink" x="0px" y="0px"
	 viewBox="0 0 512 512" style="enable-background:new 0 0 512 512;" xml:space="preserve">
<path d="M400,176c0-79.5-64.5-144-144-144S112,96.5,112,176c0,68.5,47.9,125.9,112,140.4V468c0,6.6,5.4,12,12,12h40
	c6.6,0,12-5.4,12-12V316.4C352.1,301.9,400,244.5,400,176z M256,256c-44.1,0-80-35.9-80-80s35.9-80,80-80s80,35.9,80,80
	S300.1,256,256,256z"/>
</svg>
