<?xml version="1.0" encoding="utf-8"?>
<!-- Generator: Adobe Illustrator 24.0.0, SVG Export Plug-In . SVG Version: 6.00 Build 0)  -->
<svg version="1.1" id="Layer_1" xmlns="http://www.w3.org/2000/svg" xmlns:xlink="http://www.w3.org/1999/xlink" x="0px" y="0px"
	 viewBox="0 0 512 512" style="enable-background:new 0 0 512 512;" xml:space="preserve">
<path d="M490.7,85.3H99.6c-18.5,0-34.3,11.9-40.2,28.4h-38C9.6,113.8,0,123.3,0,135.1v241.8c0,27.5,22.3,49.8,49.8,49.8h440.9
	c11.8,0,21.3-9.6,21.3-21.3V106.7C512,94.9,502.4,85.3,490.7,85.3z M42.7,376.9V156.4h14.2v220.4c0,3.9-3.2,7.1-7.1,7.1
	S42.7,380.8,42.7,376.9z M469.3,384H99c0.3-2.3,0.5-4.7,0.5-7.1V128h369.8V384z M152.9,277.3h120.9c5.9,0,10.7-4.8,10.7-10.7v-85.3
	c0-5.9-4.8-10.7-10.7-10.7H152.9c-5.9,0-10.7,4.8-10.7,10.7v85.3C142.2,272.6,147,277.3,152.9,277.3z M177.8,206.2h71.1v35.6h-71.1
	V206.2z M142.2,330.7v-21.3c0-5.9,4.8-10.7,10.7-10.7h120.9c5.9,0,10.7,4.8,10.7,10.7v21.3c0,5.9-4.8,10.7-10.7,10.7H152.9
	C147,341.3,142.2,336.6,142.2,330.7z M312.9,330.7v-21.3c0-5.9,4.8-10.7,10.7-10.7H416c5.9,0,10.7,4.8,10.7,10.7v21.3
	c0,5.9-4.8,10.7-10.7,10.7h-92.4C317.7,341.3,312.9,336.6,312.9,330.7z M312.9,202.7v-21.3c0-5.9,4.8-10.7,10.7-10.7H416
	c5.9,0,10.7,4.8,10.7,10.7v21.3c0,5.9-4.8,10.7-10.7,10.7h-92.4C317.7,213.3,312.9,208.6,312.9,202.7z M312.9,266.7v-21.3
	c0-5.9,4.8-10.7,10.7-10.7H416c5.9,0,10.7,4.8,10.7,10.7v21.3c0,5.9-4.8,10.7-10.7,10.7h-92.4C317.7,277.3,312.9,272.6,312.9,266.7z
	"/>
</svg>
