<?xml version="1.0" encoding="utf-8"?>
<!-- Generator: Adobe Illustrator 24.0.0, SVG Export Plug-In . SVG Version: 6.00 Build 0)  -->
<svg version="1.1" id="Layer_1" xmlns="http://www.w3.org/2000/svg" xmlns:xlink="http://www.w3.org/1999/xlink" x="0px" y="0px"
	 viewBox="0 0 512 512" style="enable-background:new 0 0 512 512;" xml:space="preserve">
<path d="M490.7,85.3H78.2c-11.8,0-21.3,9.6-21.3,21.3v7.1H21.3C9.6,113.8,0,123.3,0,135.1v241.8c0,27.5,22.3,49.8,49.8,49.8h419.6
	c23.6,0,42.7-19.1,42.7-42.7V106.7C512,94.9,502.4,85.3,490.7,85.3z M49.8,384c-3.9,0-7.1-3.2-7.1-7.1V156.4h14.2v220.4
	C56.9,380.8,53.7,384,49.8,384z M259.6,369.8H124.4c-5.9,0-10.7-4.8-10.7-10.7V352c0-5.9,4.8-10.7,10.7-10.7h135.1
	c5.9,0,10.7,4.8,10.7,10.7v7.1C270.2,365,265.4,369.8,259.6,369.8z M444.4,369.8H309.3c-5.9,0-10.7-4.8-10.7-10.7V352
	c0-5.9,4.8-10.7,10.7-10.7h135.1c5.9,0,10.7,4.8,10.7,10.7v7.1C455.1,365,450.3,369.8,444.4,369.8z M259.6,284.4H124.4
	c-5.9,0-10.7-4.8-10.7-10.7v-7.1c0-5.9,4.8-10.7,10.7-10.7h135.1c5.9,0,10.7,4.8,10.7,10.7v7.1C270.2,279.7,265.4,284.4,259.6,284.4
	z M444.4,284.4H309.3c-5.9,0-10.7-4.8-10.7-10.7v-7.1c0-5.9,4.8-10.7,10.7-10.7h135.1c5.9,0,10.7,4.8,10.7,10.7v7.1
	C455.1,279.7,450.3,284.4,444.4,284.4z M444.4,199.1h-320c-5.9,0-10.7-4.8-10.7-10.7v-35.6c0-5.9,4.8-10.7,10.7-10.7h320
	c5.9,0,10.7,4.8,10.7,10.7v35.6C455.1,194.3,450.3,199.1,444.4,199.1z"/>
</svg>
