<?xml version="1.0" encoding="utf-8"?>
<!-- Generator: Adobe Illustrator 24.0.0, SVG Export Plug-In . SVG Version: 6.00 Build 0)  -->
<svg version="1.1" id="Layer_1" xmlns="http://www.w3.org/2000/svg" xmlns:xlink="http://www.w3.org/1999/xlink" x="0px" y="0px"
	 viewBox="0 0 512 512" style="enable-background:new 0 0 512 512;" xml:space="preserve">
<path d="M310.6,299.3c15.6,0,27.1,11.5,27.1,27s-11.6,27-27.1,27c-15.7,0-27.1-11.6-27.1-27S295,299.3,310.6,299.3z M177,326.3
	c0-15.6,11.7-27,27.1-27s27.1,11.5,27.1,27s-11.5,27-27.1,27C188.7,353.3,177,341.9,177,326.3 M255.8,159
	c-34.8,0-102.3,19.8-132.5,68L78,0v335.5C78,433.1,157.6,512,255.8,512s177.8-79,177.8-176.5S354.1,159,255.8,159z M255.8,467.1
	c-73.3,0-132.5-58.9-132.5-131.6s59.2-131.6,132.5-131.6s132.5,58.9,132.5,131.5S329,467.1,255.8,467.1L255.8,467.1z"/>
</svg>
