<?xml version="1.0" encoding="utf-8"?>
<!-- Generator: Adobe Illustrator 24.0.0, SVG Export Plug-In . SVG Version: 6.00 Build 0)  -->
<svg version="1.1" id="Layer_1" xmlns="http://www.w3.org/2000/svg" xmlns:xlink="http://www.w3.org/1999/xlink" x="0px" y="0px"
	 viewBox="0 0 512 512" style="enable-background:new 0 0 512 512;" xml:space="preserve">
<path d="M253,412.8c-1.7,0-3.4-0.5-4.9-1.3l-15.4-9.1c-2.3-1.3-1.2-1.8-0.4-2c3-1,3.7-1.3,7-3.2c0.3-0.2,0.8-0.1,1.1,0.1l11.8,7
	c0.4,0.2,1,0.2,1.4,0l46.2-26.7c0.4-0.2,0.7-0.7,0.7-1.3V323c0-0.6-0.2-1-0.7-1.3L253.8,295c-0.4-0.2-1-0.2-1.4,0l-46.2,26.6
	c-0.5,0.2-0.7,0.8-0.7,1.3v53.4c0,0.5,0.3,1,0.7,1.2l12.6,7.3c6.9,3.4,11.1-0.6,11.1-4.6v-52.7c0-0.7,0.6-1.4,1.4-1.4h5.8
	c0.7,0,1.4,0.6,1.4,1.4v52.7c0,9.2-5,14.4-13.7,14.4c-2.6,0-4.8,0-10.6-2.9l-12.2-7c-3-1.8-4.9-5-4.9-8.4V323c0-3.4,1.8-6.7,4.9-8.4
	l46.2-26.7c3-1.7,6.8-1.7,9.7,0l46.2,26.7c3,1.8,4.9,5,4.9,8.4v53.4c0,3.4-1.8,6.7-4.9,8.4l-46.2,26.7
	C256.5,412.3,254.8,412.8,253,412.8L253,412.8z M290.4,360.2c0-10-6.7-12.6-21-14.6c-14.4-1.9-15.8-2.9-15.8-6.2
	c0-2.8,1.2-6.5,11.8-6.5c9.5,0,13,2.1,14.5,8.5c0.2,0.6,0.6,1,1.3,1h6c0.4,0,0.7-0.2,1-0.4c0.2-0.3,0.4-0.6,0.3-1
	c-1-11-8.2-16.2-23-16.2c-13.2,0-21,5.6-21,14.9c0,10.2,7.8,12.9,20.5,14.2c15.1,1.5,16.3,3.7,16.3,6.6c0,5.2-4.2,7.4-13.9,7.4
	c-12.2,0-15-3-15.8-9.1c-0.1-0.6-0.6-1.1-1.4-1.1h-6c-0.7,0-1.4,0.6-1.4,1.4c0,7.8,4.2,17,24.5,17C282,376,290.4,370.2,290.4,360.2
	L290.4,360.2z M334,320.1c0,4.9-4,8.9-8.9,8.9s-8.9-4-8.9-8.9c0-5,4.2-8.9,8.9-8.9C329.9,311.1,334,315,334,320.1z M332.6,320.1
	c0-4.2-3.4-7.4-7.5-7.4c-4.1,0-7.4,3.3-7.4,7.4c0,4.2,3.4,7.5,7.4,7.5C329.2,327.5,332.6,324.2,332.6,320.1z M329,325h-2.1
	c-0.1-0.5-0.4-3-0.4-3.1c-0.2-0.6-0.3-0.9-1-0.9h-1.8v4h-1.9v-10h3.4c1.2,0,3.5,0,3.5,2.6c0,1.8-1.2,2.2-1.9,2.5
	c1.4,0.1,1.4,1,1.7,2.2C328.6,323.2,328.7,324.6,329,325L329,325z M326.7,318c0-1.4-1-1.4-1.4-1.4h-1.6v2.8h1.5
	C326.5,319.4,326.7,318.6,326.7,318z M109.8,204c0-2.2-1.1-4.1-3-5.1l-49-28.2c-0.8-0.5-1.8-0.7-2.7-0.8h-0.5c-1,0-1.8,0.3-2.7,0.8
	L3,198.9c-1.8,1-3,3-3,5.1l0.1,76c0,1,0.6,2,1.4,2.6c0.9,0.6,2,0.6,3,0l29.1-16.7c1.8-1.1,3-3,3-5.1v-35.5c0-2.1,1.1-4.1,3-5.1
	l12.4-7.1c1-0.6,1.9-0.8,3-0.8c1,0,2.1,0.2,3,0.8l12.4,7.1c1.8,1,3,3,3,5.1v35.5c0,2.1,1.1,4.1,3,5.1l29.1,16.7c0.9,0.6,2.1,0.6,3,0
	c0.9-0.5,1.4-1.5,1.4-2.6L109.8,204L109.8,204z M378,121v141.1c0,2.1-1.1,4.1-3,5.1l-49,28.3c-1.8,1-4.1,1-5.9,0l-49-28.3
	c-1.8-1-3-3-3-5.1v-56.6c0-2.1,1.1-4.1,3-5.1l49-28.3c1.8-1,4.1-1,5.9,0l12.2,7c1.4,0.8,3.1-0.2,3.1-1.8v-75.2
	c0-2.2,2.4-3.7,4.4-2.6l29.2,16.3C376.8,116.9,378,118.9,378,121L378,121z M341.2,224.2c0-0.6-0.3-1-0.7-1.3l-16.8-9.8
	c-0.5-0.2-1-0.2-1.5,0l-16.8,9.8c-0.5,0.2-0.7,0.7-0.7,1.3v19.4c0,0.6,0.3,1,0.7,1.3l16.8,9.7c0.5,0.2,1,0.2,1.4,0l16.8-9.7
	c0.5-0.2,0.7-0.7,0.7-1.3L341.2,224.2L341.2,224.2z M509,223.6c1.8-1,3-3,3-5.1v-13.7c0-2.1-1.1-4.1-3-5.1l-48.7-28.3
	c-1.8-1-4.1-1-5.9,0l-49,28.3c-1.8,1-3,3-3,5.1v56.6c0,2.2,1.1,4.1,3,5.1l48.7,27.8c1.8,1,4,1,5.8,0l29.4-16.4c2-1.1,2-4,0-5.1
	L440,244.5c-1-0.6-1.5-1.5-1.5-2.6v-17.8c0-1,0.6-2,1.5-2.6l15.4-8.9c0.9-0.6,2.1-0.6,3,0l15.4,8.9c0.9,0.6,1.5,1.5,1.5,2.6v13.9
	c0,2.2,2.5,3.7,4.5,2.6L509,223.6L509,223.6z M447.2,226.4c-0.3,0.2-0.6,0.6-0.6,1v10.9c0,0.4,0.2,0.8,0.6,1l9.4,5.4
	c0.3,0.2,0.8,0.2,1.1,0l9.4-5.4c0.3-0.2,0.6-0.6,0.6-1v-10.9c0-0.4-0.2-0.8-0.6-1l-9.4-5.4c-0.3-0.2-0.8-0.2-1.1,0L447.2,226.4z
	 M243.8,261.2v-56.3c0-2.1-1.3-4.1-3.1-5.1l-48.9-28.2c-1.7-1-4-1.1-5.9,0L137,199.8c-1.8,1-3.1,3-3.1,5.1v56.3
	c0,2.2,1.5,4.2,3.2,5.1l49,28.2c1.9,1.1,4.2,1,5.9,0l48.8-28.2c1.4-0.8,2.5-2.2,2.9-3.8C243.8,262.2,243.8,261.7,243.8,261.2
	L243.8,261.2z M184.4,161.3l-0.6,0.4h0.9L184.4,161.3z M245.4,265.4l-0.3-0.6v0.7L245.4,265.4L245.4,265.4z"/>
</svg>
