<?xml version="1.0" encoding="utf-8"?>
<!-- Generator: Adobe Illustrator 24.0.0, SVG Export Plug-In . SVG Version: 6.00 Build 0)  -->
<svg version="1.1" id="Layer_1" xmlns="http://www.w3.org/2000/svg" xmlns:xlink="http://www.w3.org/1999/xlink" x="0px" y="0px"
	 viewBox="0 0 512 512" style="enable-background:new 0 0 512 512;" xml:space="preserve">
<path d="M448,208c17.7,0,32-14.3,32-32v-32c0-17.7-14.3-32-32-32h-23.9L476,45.2c5.4-7,4-17.1-3-22.4L447.6,3.3
	c-7-5.4-17.1-4-22.4,3L343.1,112H64c-17.7,0-32,14.3-32,32v32c0,17.7,14.3,32,32,32h204.6L194,304H64c-17.7,0-32,14.3-32,32v32
	c0,17.7,14.3,32,32,32h55.5l-51.9,66.8c-5.4,7-4,17,3,22.4L96,508.7c7,5.4,17.1,4,22.4-3L200.5,400H448c17.7,0,32-14.3,32-32v-32
	c0-17.7-14.3-32-32-32H275l74.5-96H448z"/>
</svg>
