<?xml version="1.0" encoding="utf-8"?>
<!-- Generator: Adobe Illustrator 24.0.0, SVG Export Plug-In . SVG Version: 6.00 Build 0)  -->
<svg version="1.1" id="Layer_1" xmlns="http://www.w3.org/2000/svg" xmlns:xlink="http://www.w3.org/1999/xlink" x="0px" y="0px"
	 viewBox="0 0 512 512" style="enable-background:new 0 0 512 512;" xml:space="preserve">
<path d="M83.5,266.5h20.9v-20.9H83.5V266.5z M125.4,245.6l0-20.9v-0.8c-0.3-17.4-14.6-31.2-31.9-31c-17.3,0.3-31.1,14.4-31,31.7v0.1
	h21.1v-0.1c0.1-5.7,4.8-10.3,10.6-10.2c5.6,0.1,10.1,4.6,10.2,10.2v20.9H125.4z M167.3,266.3c0,40.3-32.6,72.9-72.9,72.9
	c0,0,0,0,0,0h-0.5c-40.3,0-72.9-32.6-72.9-72.9c0,0,0,0,0,0H0v0.1c0,51.8,42.1,93.8,93.9,93.8c0,0,0,0,0,0h0.6
	c51.8,0,93.8-42.1,93.8-93.9c0,0,0,0,0,0v-20.8h-21.1V266.3z M41.5,266.3c0.1,28.9,23.6,52.2,52.5,52.1c28.7-0.1,52-23.4,52.1-52.1
	H125c-0.3,17.2-14.5,31-31.7,30.7c-16.8-0.3-30.4-13.9-30.7-30.7v-20.8h-21v-21.3c0.4-28.9,24.2-52,53.1-51.5
	c28.7,0.4,51.6,23.8,51.5,52.5v20.2h21.1v-20.2c0-40.5-32.9-73.4-73.4-73.4s-73.4,32.9-73.4,73.4v20.3h21L41.5,266.3z M376.3,209.3
	c10.9,0,19.7,5.3,24,14.6l0.6,1.2l18.6-9.2l-0.5-1.2c-6.4-15.4-22.8-25-42.7-25c-18.5,0-34.9,9.1-40.8,22.8
	c-0.1,21.5-0.1,19.1,0,19.9c3.8,8.8,11.6,15.5,22.9,19.4c5.2,1.6,10.5,2.7,15.9,3.2c4.4,0.6,8.5,1.1,12.7,2.5
	c5.1,1.7,8.4,4.2,10.3,7.9v7.9c-3,6-11,9.9-20.6,9.9c-11.5,0-20.8-5.5-25.5-15.2l-0.6-1.2l-18.4,9.2l0.4,1.2
	c6.3,15.5,23.7,25.6,44.2,25.6c18.9,0,35.7-9.1,41.8-22.8l0.1-20.7l-0.1-0.5c-3.9-8.8-12.2-15.7-23.2-19.4
	c-6.2-2.2-11.5-2.9-16.6-3.5c-4-0.4-8-1.2-11.9-2.3c-5-1.5-8.3-4.1-10.1-7.7V219C359.6,213.1,367.2,209.3,376.3,209.3L376.3,209.3z
	 M230.1,300.3h20.9v-54.7h-20.9V300.3z M511.9,257.6c-2.3-5-6.6-9.6-12.4-13.4c4.5-3.1,8.1-7.3,10.4-12.3l0.1-20.3l-0.1-0.5
	c-5.9-12.8-21.4-21.4-38.5-21.4c-17.1,0-32.6,8.6-38.5,21.4l-0.1,20.3l0.1,0.5c2.4,4.9,5.9,9.1,10.4,12.3c-5.8,3.8-10,8.4-12.4,13.4
	l-0.1,23.1l0.1,0.6c6.1,12.8,22.3,21.4,40.5,21.4c18.2,0,34.4-8.6,40.5-21.4l0.1-23.1L511.9,257.6z M453.3,217
	c2.9-5,10.1-8.4,18.1-8.4s15.2,3.4,18.1,8.4v11c-2.8,5-10.1,8.3-18.1,8.3s-15.3-3.3-18.1-8.3V217z M491.1,274.7
	c-3,5.3-10.7,8.7-19.7,8.7c-8.9,0-16.8-3.5-19.7-8.7v-12.9c3-5,10.8-8.4,19.7-8.4c9.1,0,16.7,3.3,19.7,8.4V274.7z M301.1,264
	l-47.9-71.8h-23.2v32.5h21.2v0.3l50,75.3h20.5V192.2h-20.7V264z"/>
</svg>
