<?xml version="1.0" encoding="utf-8"?>
<!-- Generator: Adobe Illustrator 24.0.0, SVG Export Plug-In . SVG Version: 6.00 Build 0)  -->
<svg version="1.1" id="Layer_1" xmlns="http://www.w3.org/2000/svg" xmlns:xlink="http://www.w3.org/1999/xlink" x="0px" y="0px"
	 viewBox="0 0 512 512" style="enable-background:new 0 0 512 512;" xml:space="preserve">
<path d="M144,8.1c0,0,133.4-8.2,121,104.4c0,0,19.1-74.9,103-40.6c0,0-17.7,74-88,56c0,0,14.6-54.6,66.1-56.6
	c0,0-39.9-10.3-82.1,48.8c0,0-19.8-94.5-93.6-99.7c0,0,75.2,19.4,77.6,107.5C248,128,141.6,134.9,144,8.1z M456,323.7
	c0,48.5-9.7,95.3-32,132.3c-42.2,30.9-105,48-168,48c-62.9,0-125.8-17.1-168-48c-22.3-37-32-83.8-32-132.3C56,275.3,73.7,229,96,192
	c42.2-30.9,97.1-48.6,160-48.6c63,0,117.8,17.6,160,48.6C438.3,229,456,275.3,456,323.7z M176,428c0-15.5-12.5-28-28-28
	s-28,12.5-28,28s12.5,28,28,28S176,443.5,176,428z M176,361.8c0-15.5-12.5-28-28-28s-28,12.5-28,28s12.5,28,28,28
	S176,377.3,176,361.8z M176,295.6c0-15.5-12.5-28-28-28s-28,12.5-28,28s12.5,28,28,28S176,311.1,176,295.6z M248,428
	c0-15.5-12.5-28-28-28s-28,12.5-28,28s12.5,28,28,28S248,443.5,248,428z M248,361.8c0-15.5-12.5-28-28-28s-28,12.5-28,28
	s12.5,28,28,28S248,377.3,248,361.8z M248,295.6c0-15.5-12.5-28-28-28s-28,12.5-28,28s12.5,28,28,28S248,311.1,248,295.6z M320,428
	c0-15.5-12.5-28-28-28s-28,12.5-28,28s12.5,28,28,28S320,443.5,320,428z M320,361.8c0-15.5-12.5-28-28-28s-28,12.5-28,28
	s12.5,28,28,28S320,377.3,320,361.8z M320,295.6c0-15.5-12.5-28-28-28s-28,12.5-28,28s12.5,28,28,28S320,311.1,320,295.6z M392,428
	c0-15.5-12.5-28-28-28s-28,12.5-28,28s12.5,28,28,28S392,443.5,392,428z M392,361.8c0-15.5-12.5-28-28-28s-28,12.5-28,28
	s12.5,28,28,28S392,377.3,392,361.8z M392,295.6c0-15.5-12.5-28-28-28s-28,12.5-28,28s12.5,28,28,28S392,311.1,392,295.6z M416,256
	c-4.8-22.3-7.4-36.9-16-56c-38.8-19.9-90.5-32-144-32s-105.2,12.1-144,32c-8.8,19.5-11.2,33.9-16,56c42.2-7.9,98.7-14.8,160-14.8
	S373.8,248.1,416,256L416,256z"/>
</svg>
