<?xml version="1.0" encoding="utf-8"?>
<!-- Generator: Adobe Illustrator 24.0.0, SVG Export Plug-In . SVG Version: 6.00 Build 0)  -->
<svg version="1.1" id="Layer_1" xmlns="http://www.w3.org/2000/svg" xmlns:xlink="http://www.w3.org/1999/xlink" x="0px" y="0px"
	 viewBox="0 0 512 512" style="enable-background:new 0 0 512 512;" xml:space="preserve">
<path d="M56.9,312.9V336c0,2.9-2.4,5.3-5.3,5.3H5.3c-2.9,0-5.3-2.4-5.3-5.3v-46.2c0-2.9,2.4-5.3,5.3-5.3h23.1V113.8H5.3
	c-2.9,0-5.3-2.4-5.3-5.3V62.2c0-2.9,2.4-5.3,5.3-5.3h46.2c2.9,0,5.3,2.4,5.3,5.3v23.1h256V62.2c0-2.9,2.4-5.3,5.3-5.3h46.2
	c2.9,0,5.3,2.4,5.3,5.3v46.2c0,2.9-2.4,5.3-5.3,5.3h-23.1v170.7h23.1c2.9,0,5.3,2.4,5.3,5.3V336c0,2.9-2.4,5.3-5.3,5.3h-46.2
	c-2.9,0-5.3-2.4-5.3-5.3v-23.1H56.9z M483.6,256v-28.4h23.1c2.9,0,5.3-2.4,5.3-5.3V176c0-2.9-2.4-5.3-5.3-5.3h-46.2
	c-2.9,0-5.3,2.4-5.3,5.3v23.1h-92.4v64h7.1c11.8,0,21.3,9.6,21.3,21.3v56.9c0,11.8-9.6,21.3-21.3,21.3h-56.9
	c-11.8,0-21.3-9.6-21.3-21.3v-7.1H170.7v64h-23.1c-2.9,0-5.3,2.4-5.3,5.3v46.2c0,2.9,2.4,5.3,5.3,5.3l0,0h46.2
	c2.9,0,5.3-2.4,5.3-5.3l0,0v-23.1h256v23.1c0,2.9,2.4,5.3,5.3,5.3l0,0h46.2c2.9,0,5.3-2.4,5.3-5.3l0,0v-46.2c0-2.9-2.4-5.3-5.3-5.3
	h-23.1V256z"/>
</svg>
