<?xml version="1.0" encoding="utf-8"?>
<!-- Generator: Adobe Illustrator 24.0.0, SVG Export Plug-In . SVG Version: 6.00 Build 0)  -->
<svg version="1.1" id="Layer_1" xmlns="http://www.w3.org/2000/svg" xmlns:xlink="http://www.w3.org/1999/xlink" x="0px" y="0px"
	 viewBox="0 0 512 512" style="enable-background:new 0 0 512 512;" xml:space="preserve">
<path d="M501.3,227.6c5.9,0,10.7-4.8,10.7-10.7v-64c0-5.9-4.8-10.7-10.7-10.7h-64c-5.9,0-10.7,4.8-10.7,10.7v10.7h-78.2v-21.3h10.7
	c5.9,0,10.7-4.8,10.7-10.7v-64c0-5.9-4.8-10.7-10.7-10.7h-64c-5.9,0-10.7,4.8-10.7,10.7v10.7H85.3V67.6c0-5.9-4.8-10.7-10.7-10.7
	h-64C4.8,56.9,0,61.7,0,67.6v64c0,5.9,4.8,10.7,10.7,10.7h10.7v142.2H10.7c-5.9,0-10.7,4.8-10.7,10.7v64c0,5.9,4.8,10.7,10.7,10.7
	h64c5.9,0,10.7-4.8,10.7-10.7v-10.7h78.2v21.3h-10.7c-5.9,0-10.7,4.8-10.7,10.7v64c0,5.9,4.8,10.7,10.7,10.7h64
	c5.9,0,10.7-4.8,10.7-10.7v-10.7h199.1v10.7c0,5.9,4.8,10.7,10.7,10.7h64c5.9,0,10.7-4.8,10.7-10.7v-64c0-5.9-4.8-10.7-10.7-10.7
	h-10.7V227.6H501.3z M312.9,85.3h28.4v28.4h-28.4V85.3z M312.9,312.9h28.4v28.4h-28.4V312.9z M56.9,341.3H28.4v-28.4h28.4V341.3z
	 M56.9,113.8H28.4V85.3h28.4V113.8z M85.3,305.8v-10.7c0-5.9-4.8-10.7-10.7-10.7H64V142.2h10.7c5.9,0,10.7-4.8,10.7-10.7v-10.7
	h199.1v10.7c0,5.9,4.8,10.7,10.7,10.7h10.7v142.2h-10.7c-5.9,0-10.7,4.8-10.7,10.7v10.7H85.3z M199.1,426.7h-28.4v-28.4h28.4V426.7z
	 M448,369.8h-10.7c-5.9,0-10.7,4.8-10.7,10.7v10.7H227.6v-10.7c0-5.9-4.8-10.7-10.7-10.7h-10.7v-21.3h78.2v10.7
	c0,5.9,4.8,10.7,10.7,10.7h64c5.9,0,10.7-4.8,10.7-10.7v-64c0-5.9-4.8-10.7-10.7-10.7h-10.7v-78.2h78.2v10.7
	c0,5.9,4.8,10.7,10.7,10.7H448V369.8z M483.6,426.7h-28.4v-28.4h28.4V426.7z M483.6,199.1h-28.4v-28.4h28.4V199.1z"/>
</svg>
