<?xml version="1.0" encoding="utf-8"?>
<!-- Generator: Adobe Illustrator 24.0.0, SVG Export Plug-In . SVG Version: 6.00 Build 0)  -->
<svg version="1.1" id="Layer_1" xmlns="http://www.w3.org/2000/svg" xmlns:xlink="http://www.w3.org/1999/xlink" x="0px" y="0px"
	 viewBox="0 0 512 512" style="enable-background:new 0 0 512 512;" xml:space="preserve">
<path d="M216.2,177.1c0-22.1,17.9-40,39.8-40s39.8,17.9,39.8,40c0,22-17.9,39.8-39.8,39.8S216.2,199,216.2,177.1L216.2,177.1z
	 M480,80v352c0,26.5-21.5,48-48,48H80c-26.5,0-48-21.5-48-48V80c0-26.5,21.5-48,48-48h352C458.5,32,480,53.5,480,80z M174.9,177.1
	c0,44.6,36.4,80.9,81.1,80.9s81.1-36.2,81.1-80.9c0-44.8-36.4-81.1-81.1-81.1S174.9,132.2,174.9,177.1z M349.4,267.8
	c-4.6-9.1-17.3-16.8-34.1-3.6c0,0-22.7,18-59.3,18s-59.3-18-59.3-18c-16.8-13.2-29.5-5.5-34.1,3.6c-7.9,16.1,1.1,23.7,21.4,37
	c17.3,11.1,41.2,15.2,56.6,16.8l-12.9,12.9c-18.2,18-35.5,35.5-47.7,47.7c-17.6,17.6,10.7,45.8,28.4,28.6l47.7-47.9
	c18.2,18.2,35.7,35.7,47.7,47.9c17.6,17.2,46-10.7,28.6-28.6l-47.7-47.7l-13-12.9c15.5-1.6,39.1-5.9,56.2-16.8
	C348.3,291.5,357.2,283.8,349.4,267.8z"/>
</svg>
