<?xml version="1.0" encoding="utf-8"?>
<!-- Generator: Adobe Illustrator 24.0.0, SVG Export Plug-In . SVG Version: 6.00 Build 0)  -->
<svg version="1.1" id="Layer_1" xmlns="http://www.w3.org/2000/svg" xmlns:xlink="http://www.w3.org/1999/xlink" x="0px" y="0px"
	 viewBox="0 0 512 512" style="enable-background:new 0 0 512 512;" xml:space="preserve">
<path d="M371.1,334c-27.4,17.4-65.1,24.3-90,26.9l20.9,20.6l76.3,76.3c27.9,28.6-17.5,73.3-45.7,45.7
	c-19.1-19.4-47.1-47.4-76.3-76.6L180,503.4c-28.2,27.5-73.6-17.6-45.4-45.7c19.4-19.4,47.1-47.4,76.3-76.3l20.6-20.6
	c-24.6-2.6-62.9-9.1-90.6-26.9c-32.6-21-46.9-33.3-34.3-59c7.4-14.6,27.7-26.9,54.6-5.7c0,0,36.3,28.9,94.9,28.9
	s94.9-28.9,94.9-28.9c26.9-21.1,47.1-8.9,54.6,5.7C418,300.6,403.7,312.9,371.1,334L371.1,334z M126.3,129.7C126.3,58,184.6,0,256,0
	s129.7,58,129.7,129.7c0,71.4-58.3,129.4-129.7,129.4S126.3,201.1,126.3,129.7L126.3,129.7z M192.3,129.7
	c0,35.1,28.6,63.7,63.7,63.7s63.7-28.6,63.7-63.7c0-35.4-28.6-64-63.7-64S192.3,94.3,192.3,129.7z"/>
</svg>
