<?xml version="1.0" encoding="utf-8"?>
<!-- Generator: Adobe Illustrator 24.0.0, SVG Export Plug-In . SVG Version: 6.00 Build 0)  -->
<svg version="1.1" id="Layer_1" xmlns="http://www.w3.org/2000/svg" xmlns:xlink="http://www.w3.org/1999/xlink" x="0px" y="0px"
	 viewBox="0 0 512 512" style="enable-background:new 0 0 512 512;" xml:space="preserve">
<path d="M503.8,179.4l-171,51l-40.4-20.2c-7.1-3.6-14.9-5.4-22.9-5.4H224v-38.4h44.8c7.1,0,12.8-5.7,12.8-12.8v-12.8
	c0-7.1-5.7-12.8-12.8-12.8h-128c-7.1,0-12.8,5.7-12.8,12.8v12.8c0,7.1,5.7,12.8,12.8,12.8h44.8v38.4h-44.8L30.2,184.7
	c-1.5-0.3-3.1-0.4-4.6-0.4C11.7,184.3,0,195.5,0,209.9v76c0,12.4,8.8,23,21,25.2l55.8,10.2v37.2c0,14.1,11.5,25.6,25.6,25.6h219.7
	c6.8,0,13.4-2.7,18.2-7.6l169.8-171.8c1.2-1.2,1.9-2.8,1.9-4.5v-14.5C512,181.4,507.9,178.3,503.8,179.4L503.8,179.4z M76.8,282.1
	l-38.4-7v-49.9l38.4,7V282.1z M439.5,349.9c0,18.8,15.3,34.1,34.1,34.1c18.9,0,34.1-15.3,34.1-34.1c0-18.9-34.1-68.3-34.1-68.3
	S439.5,331,439.5,349.9L439.5,349.9z"/>
</svg>
