<?xml version="1.0" encoding="utf-8"?>
<!-- Generator: Adobe Illustrator 24.0.0, SVG Export Plug-In . SVG Version: 6.00 Build 0)  -->
<svg version="1.1" id="Layer_1" xmlns="http://www.w3.org/2000/svg" xmlns:xlink="http://www.w3.org/1999/xlink" x="0px" y="0px"
	 viewBox="0 0 512 512" style="enable-background:new 0 0 512 512;" xml:space="preserve">
<path d="M243.8,10.2c7.5-0.3,15-0.3,22.5-0.1c3.6,0.1,7.2,0.4,10.8,0.7c4.9,0.3,9.8,1,14.7,1.6c2.9,0.4,5.8,1,8.8,1.5
	c7.9,1.3,15.7,3.3,23.4,5.4c12.2,3.5,24.2,7.9,35.8,13.2c26.6,12.2,50.9,29.2,71.6,49.9c20,20.1,36.7,43.6,48.9,69.2
	c1.1,2.6,2.4,5.1,3.5,7.7c2.8,6.4,5.4,13,7.6,19.6c4.1,12.3,7.3,25,9.4,37.8c0.6,3.1,1,6.3,1.4,9.5c0.5,3.8,0.9,7.7,1.2,11.6
	c0.8,8.3,0.8,16.7,0.8,25.1c-0.1,5-0.3,9.9-0.8,14.9c-0.2,3.4-0.5,6.8-1,10.1c-0.4,2.7-0.6,5.5-1.1,8.2c-0.9,5.1-1.7,10.3-2.9,15.4
	c-4.1,18.5-10.3,36.5-18.5,53.6c-15.8,32.8-38.8,62.2-67.1,85.1c-17.3,14.1-36.4,25.9-56.9,34.9c-6.2,2.7-12.5,5.3-18.9,7.4
	c-3.5,1.2-7,2.4-10.6,3.4c-6.6,1.9-13.3,3.6-20,5c-4.7,0.9-9.3,1.7-14,2.5c-5.3,0.7-10.5,1.4-15.8,1.7c-6.7,0.7-13.4,0.8-20.1,0.8
	c-6.8,0-13.6-0.1-20.4-0.8c-3.3-0.2-6.6-0.5-9.8-1c-2.7-0.4-5.5-0.6-8.2-1.1c-4.1-0.7-8.3-1.4-12.4-2.2c-4.3-0.9-8.5-1.9-12.7-3
	c-8.6-2.2-17.1-5-25.4-8.1c-10.5-4.1-20.8-8.8-30.6-14.3c-2.1-1.1-4.3-2.3-6.4-3.6c-11.2-6.6-21.9-14.1-31.9-22.3
	c-34.7-28.4-61.4-66.4-76.3-108.7c-3.1-8.7-5.7-17.6-7.8-26.7c-1.5-6.2-2.5-12.4-3.6-18.7c-0.4-2.4-0.6-4.7-0.9-7.1
	c-0.6-4-0.8-8-1.2-11.9c-0.8-9.5-0.7-19-0.5-28.5c0.1-3.5,0.3-7,0.7-10.5c0.3-3.2,0.5-6.4,0.9-9.5c0.4-2.8,0.7-5.6,1.2-8.4
	c0.7-3.9,1.3-7.9,2.1-11.8c3.4-16.5,8.5-32.7,15.3-48.2c1.1-2.9,2.6-5.7,3.9-8.6c8-16.7,17.9-32.6,29.5-47.1
	c20-25.4,45.1-46.7,73.3-62.5c7.5-4.2,15.2-8,23.1-11.4c15.8-6.9,32.4-12,49.3-15.4c3.5-0.7,7-1.2,10.6-1.9c2.6-0.5,5.3-0.7,7.9-1.1
	c3.5-0.5,7.1-0.7,10.6-1C238.9,10.5,241.3,10.4,243.8,10.2 M252.4,34.6c-9.2,0.1-18.4,1-27.6,2.2c-7.3,1.1-14.5,2.6-21.7,4.3
	c-13.9,3.5-27.5,8.3-40.5,14.4c-10.5,5-20.6,10.7-30.2,17.2c-4.2,2.9-8.4,5.8-12.3,9c-5.1,4-10,8.2-14.7,12.6
	c-2.5,2.2-4.8,4.7-7.2,7.1C70,130.3,49.8,166.9,40.7,206.2c-2,8.4-3.5,17-4.4,25.6c-1.1,8.9-1.4,17.9-1.4,26.8
	c0.1,7.1,0.4,14.3,1.2,21.4c0.6,7.1,1.9,14.2,3.2,21.2c1.1,4.6,2,9.3,3.3,13.9c6.3,23.4,16.5,45.7,30.1,65.8
	c8.6,13,18.8,24.9,30,35.8c16.3,15.8,35.1,29,55.3,39.2c7.3,3.5,14.7,6.9,22.3,9.6c5,1.8,10.1,3.6,15.2,5
	c11.3,3.2,22.8,5.6,34.4,7.1c2.9,0.3,5.8,0.6,8.7,0.9c13.8,1.1,27.7,1,41.5-0.4c4.5-0.6,8.9-1,13.4-1.8c3.6-0.7,7.3-1.3,10.9-2.1
	c4.1-1,8.3-1.9,12.4-3.1c26.5-7.3,51.6-19.7,73.6-36.2c15.8-11.8,30-25.8,42.1-41.3c3.3-4,6.2-8.3,9.1-12.5
	c3.4-5.1,6.6-10.3,9.6-15.5c2.4-4.4,4.7-8.9,7-13.5c5.7-12,10.3-24.6,13.8-37.5c2.6-10,4.8-20.2,5.9-30.5
	c1.8-13.5,1.9-27.1,1.3-40.6c-0.3-3.9-0.7-7.8-1-11.7c-2.2-19.1-6.8-37.9-13.8-55.8c-6-15.1-13.5-29.6-22.6-43.1
	C429,114,413.4,97.1,395.7,83c-25-20-54.5-34.5-85.6-42.1c-7.8-1.9-15.7-3.3-23.6-4.5c-3.9-0.6-7.9-0.8-11.8-1.2
	C267.2,34.6,259.8,34.5,252.4,34.6L252.4,34.6z M147.3,83.5c13.3-8.9,28.1-15.4,43.3-20.2c-3.2,1.8-6.4,3.4-9.5,5.3
	c-11.2,6.7-21.5,14.9-30.4,24.5c-6.8,7.4-12.8,15.7-17,24.9c-3.3,6.9-5.6,14.2-6.9,21.7c-0.9,4.9-1.3,9.8-1.2,14.8
	c0.1,13.7,4.4,27.1,11.3,38.8c5.9,10.2,13.6,19.3,22.4,27.3c4.9,4.4,10.2,8.1,14.9,12.6c2.3,2.2,4.5,4.4,6.4,6.9
	c2.6,3.3,4.9,7,6,11.1c0.9,3,0.7,6.2,0.7,9.3c0,4.1,0,8.2,0,12.3c0.1,3.5,0,7.1,0.1,10.6c0.1,2.4,0,4.8,0.1,7.1
	c0.2,5.8,0.1,11.5,0.1,17.3c0.1,2.9,0,5.8,0.1,8.7c0,1.6,0.1,3.3,0,4.9c-0.9,0.1-1.8,0.2-2.7,0.2c-11,0-21.9-2.6-31.9-6.9
	c-6-2.7-11.8-5.9-17.1-9.8c-5.8-4.2-11.1-9-15.8-14.3c-6.5-7.2-12-15.4-16.6-24c-1.1-2-2.2-4-3.2-6.1c-1.2-2.6-2.6-5.1-3.7-7.8
	c-4.1-9.7-6.6-19.9-8.1-30.3c-0.5-4.4-1.1-8.9-1.2-13.4c-0.7-15.7,0.8-31.6,4.7-46.8c2.1-8.1,4.8-16.2,8.3-23.8
	c6.3-14.2,15.3-27.2,26.3-38.2C133,94,139.9,88.4,147.3,83.5z M322.6,63.4c2.7,0.7,5.4,1.7,8.1,2.7c6.4,2.3,12.7,4.8,18.7,8
	c13.1,6.4,25.3,14.8,35.8,25c10.2,9.9,18.7,21.6,25.1,34.3c1.3,2.8,2.6,5.5,3.8,8.3c6.3,15.1,10,31.3,11.2,47.6
	c0.4,4.5,0.4,9.1,0.5,13.6c0.1,11.6-1.5,23.3-4.3,34.5c-2,7.3-4.4,14.5-7.9,21.2c-3.2,6.6-6.7,13.2-10.8,19.2
	c-6.9,10.5-15.6,19.9-25.8,27.2c-10.5,7.6-22.6,13-35.4,15.4c-3.5,0.7-7.1,1.1-10.7,1.2c-1.9,0.1-3.7,0.2-5.6-0.1
	c-0.3-2.1,0-4.3,0-6.5c0-3.7,0.1-7.5,0.1-11.2c0.2-7,0-14,0.2-21.1c0-2.4,0-4.8,0-7.1c0.2-5.1,0-10.1,0.1-15.2c0.1-3-0.2-6,0.5-9
	c0.7-2.5,1.8-4.9,3.1-7.1c4.5-7.3,11.1-13,17.7-18.3c5.4-4.2,10.5-8.8,15-13.8c7.7-8.4,14.2-17.9,18.8-28.3
	c2.5-5.9,4.5-12.1,5.5-18.5c0.9-4.4,1.1-8.8,1-13.3c0-7.9-1.4-15.6-3.6-23.2c-1.8-5.7-4.3-11.2-7.1-16.4c-3.9-6.9-8.6-13.3-14-19.2
	c-9.9-10.8-21.8-19.9-34.6-27.1C326.4,65.4,324.4,64.6,322.6,63.4L322.6,63.4z M221.8,121.9c1-1.2,2-2.3,3.1-3.4
	c-0.6,0.9-1.3,1.8-1.9,2.7c-3.1,3.9-5.5,8.3-7,13.1c-0.9,3.3-1.7,6.6-1.7,10c-0.1,2.5-0.1,5.1,0.3,7.6c1.1,7.6,4.3,14.9,8.8,21.1
	c2,2.7,4.3,5.3,6.9,7.3c1.6,1.3,3.5,2.1,5.3,3.1c3.1,1.7,6.3,3.2,9.1,5.5c2.7,2.1,4.6,5.3,4.4,8.8c0,73.7,0,147.3,0,221
	c0,1.4-0.1,2.7,0,4c0.1,1.5,0.8,2.8,1.5,4.1c0.9,1.7,1.8,3.3,3.2,4.6c0.9,0.8,2,1.4,3.1,1.2c1.5-0.2,2.7-1.4,3.4-2.6
	c1-1.5,1.7-3.2,2.3-4.9c0.8-2.1,0.4-4.4,0.5-6.6c0.1-4,0-8.1,0.1-12.1c0-5.9,0-11.8,0.1-17.7c0.1-3.6,0-7.2,0.1-10.9
	c0.1-4,0-8.1,0.1-12.1c0-6,0-12,0.1-18c0.1-3.6,0-7.2,0.1-10.9c0.1-3.9,0-7.9,0.1-11.8c0-6,0-12,0.1-18c0.2-3.9,0-7.9,0.2-11.8
	c0.3,1.4,0.1,2.9,0.2,4.4c0.2,3.6,0.4,7.2,0.8,10.8c0.3,3.4,0.4,6.9,0.9,10.3c0.4,3.1,0.5,6.2,1,9.3c0.6,4.1,0.9,8.2,1.5,12.3
	c1.5,9,2.8,18.1,5.1,27c1.1,4.8,2.4,9.6,4,14.3c2.5,7.9,5.7,15.7,10.3,22.6c1.7,2.6,3.9,5,6.1,7.2c0.3,0.3,0.5,0.5,0.9,0.7
	c0.6,0.3,1.3-0.1,1.7-0.6c0.7-0.9,1.2-1.9,1.7-2.9c4-7.8,8.2-15.6,12.3-23.3c0.7-1.3,1.4-2.6,2.6-3.6c1.8-1.6,3.8-2.7,6-3.6
	c2.9-1.2,5.9-2.2,9-2.4c6.6-0.6,13.1,0.8,19.6,1.9c3.7,0.6,7.4,1.2,11.1,1.4c3.7,0.1,7.5,0,11.2-0.3c8.5-0.9,17-3,24.9-6.3
	c5.3-2.2,10.5-4.8,15.3-7.9c11.5-7.2,21.5-16.6,30-27c1.2-1.4,2.3-2.9,3.5-4.3c-1.2,3.2-2.7,6.4-4.2,9.5c-1.3,2.9-2.8,5.6-4.3,8.4
	c-5.2,9.6-11,18.9-17.8,27.5c-4,5.2-8.5,10-13.3,14.6c-6.6,6-14.1,11.4-22.4,14.8c-8.2,3.4-17.3,4.6-26.1,3.3
	c-3.6-0.6-7-1.7-10.4-2.9c-2.8-1-5.4-2.4-8-3.7c-3.4-1.7-6.6-3.8-9.7-6.1c2.7,3.1,5.7,5.9,8.7,8.6c4.3,3.8,8.7,7.3,13.6,10.2
	c4,2.5,8.3,4.4,12.8,5.5c1.5,0.4,3,0.5,4.5,0.6c-1.3,1.1-2.6,2-4,3c-9.6,6.5-20,11.9-30.7,16.4c-20.9,8.7-43.2,14-65.7,15.3
	c-4.7,0.2-9.3,0.4-14,0.4c-5-0.1-10-0.1-14.9-0.6c-11.2-0.8-22.3-2.7-33.2-5.4c-10.4-2.7-20.6-6.1-30.3-10.5
	c-8.7-3.9-17.1-8.4-25-13.8c-1.8-1.3-3.7-2.5-5.4-4.1c6.6-1.2,13-3.4,19-6.5c5.7-2.9,11-6.7,15.6-11.1c2.2-2.2,4.3-4.6,6.2-7.1
	c-3.4,2.1-6.9,4.1-10.6,5.8c-4.4,2.2-9.1,3.8-13.8,5c-5.7,1.5-11.7,1.7-17.6,1.1c-8.1-1-15.9-4.3-22.5-9c-4.3-2.9-8.2-6.4-12-10.1
	c-9.9-10.2-18.2-21.8-25.7-33.9c-3.9-6.3-7.5-12.8-11.1-19.2c-1.1-2-2.2-4-3.2-6.1c2.9,2.9,5.6,6,8.4,8.9c9,9,18.6,17.4,29.2,24.5
	c7.6,4.9,15.7,9.2,24.6,11c3.1,0.7,6.3,0.5,9.5,0.8c2.8,0.3,5.6,0.2,8.3,0.3c5.1,0.1,10.1,0,15.2-0.2c3.6-0.2,7.3-0.7,10.9-1.1
	c2.1-0.3,4.1-0.7,6.1-1.2c3.9-1,8.1-1,11.8,0.6c4.8,1.9,8.4,5.6,11.4,9.7c2.2,3,4.1,6.2,5.7,9.6c1.2,2.4,2.5,4.8,3.6,7.3
	c1,2.2,2.1,4.4,3.4,6.5c0.7,1,1.4,2.1,2.6,2.5c1.1-0.8,1.7-1.9,2.3-3c2.1-4.2,3.4-8.6,4.9-13c2-6.6,3.8-13.3,5.2-20
	c2.2-9.3,3.3-18.7,4.5-28.1c0.6-4,0.8-8,1.3-12c0.9-10.6,1.9-21.3,2.2-31.9c0.1-1.9,0.2-3.7,0.3-5.6c0-4.4,0.3-8.7,0.2-13
	c0-2.4,0-4.8,0-7.1c0.1-5.1-0.2-10.1-0.2-15.2c-0.2-6.6-0.7-13.2-1.3-19.8c-0.7-5.9-1.6-11.8-3.1-17.5c-2.1-7.8-5.6-15-9.8-21.8
	c-3.2-5.1-6.8-9.9-11.1-14c-3.9-3.9-8.6-7.1-13.9-8.4c-1.5-0.4-3.1-0.4-4.6-0.6c0.1-3,0.7-5.9,1.3-8.9c1.6-7.7,3.8-15.3,6.8-22.6
	c1.5-4,3.4-7.9,5.4-11.7C212.8,133.8,217,127.5,221.8,121.9L221.8,121.9z M253.1,123.6c0.4-0.1,0.7-0.1,1.1-0.2
	c0.2,1.8,0.1,3.6,0.1,5.4v38.1c0,1.7,0.1,3.5-0.1,5.2c-0.4,0-0.7-0.1-1.1-0.1c-0.9-3.8-1.7-7.6-2.6-11.3c-0.4-1.5-0.6-3.1-1.1-4.6
	c-1.7-0.2-3.4-0.2-5.1-0.2c-5.1,0-10.1,0-15.2,0c-1.7,0-3.3,0.1-5,0c0-0.4-0.3-0.9,0.2-1.2c1.3-0.6,2.7-0.9,4.1-1.4
	c3.4-1.1,6.9-2.2,10.3-3.3c1.4-0.5,2.9-0.7,4.2-1.5c0-0.6,0-1.1-0.1-1.7c-1.2-0.6-2.5-0.9-3.8-1.3c-3.1-1-6.3-2-9.4-3
	c-1.8-0.6-3.7-1-5.4-1.8c0-0.4-0.1-0.7-0.1-1.1c5.1-0.2,10.2,0.1,15.3-0.1c3.4-0.1,6.7,0.1,10.1-0.1c0.1-0.4,0.3-0.8,0.4-1.2
	C250.8,133.4,252,128.5,253.1,123.6L253.1,123.6z M259.1,123.4c0.4,0.1,0.7,0.1,1.1,0.2c1,3.8,1.7,7.8,2.7,11.6
	c0.4,1.4,0.6,2.9,1,4.3c2.5,0.2,5.1,0,7.6,0.1c5.2,0.1,10.3,0.1,15.5,0.1c0.8,0,1.5,0,2.3,0.1c0,0.4-0.1,0.7-0.1,1.1
	c-1.8,0.8-3.8,1.3-5.7,1.9c-3.7,1.2-7.5,2.4-11.2,3.6c-0.6,0.2-1.1,0.4-1.7,0.6c-0.1,0.6-0.2,1.1-0.1,1.7c0.9,0.5,1.8,0.8,2.8,1.1
	c4.9,1.5,9.7,3.1,14.6,4.6c0.4,0.1,0.8,0.3,1.1,0.5c0.4,0.3,0.2,0.8,0.1,1.2c-1.7,0.1-3.3,0-5,0c-5.2,0-10.3,0-15.5,0
	c-1.6,0-3.2,0-4.8,0.2c-0.5,1.7-0.7,3.4-1.2,5.1c-0.9,3.6-1.5,7.2-2.5,10.8c-0.4,0-0.7,0-1.1,0.1c-0.3-1.7-0.1-3.5-0.1-5.2v-38.1
	C259,127,258.9,125.2,259.1,123.4L259.1,123.4z M73.1,168.3c1.1-2.1,2.1-4.4,3.4-6.5c-1.8,7.6-2.9,15.3-3.6,23
	c-0.8,7.7-0.8,15.5-0.5,23.2c1.1,19.9,5.5,39.8,14.2,57.9c3,6,6.3,11.8,10.5,17.1c6.1,7.5,12.5,14.8,19.8,21.1
	c4.8,4.1,10,7.8,15.5,10.8c3.3,1.6,6.5,3.4,9.9,4.7c5,2,10.2,3.6,15.4,4.9c3.8,1,7.8,1.4,11.5,2.7c5,1.6,9.5,4.6,13,8.4
	c4.9,5.2,8.1,11.9,10.2,18.7c1,2.9,1.6,5.9,2.2,8.9c0.1,0.8,0.2,1.5,0.2,2.3c-6.5,2.8-13.3,5.1-20.3,6.2c-4.1,0.8-8.3,1-12.5,1.1
	c-10.3,0.2-20.5-1.8-30.1-5.1c-3.7-1.4-7.5-2.9-11-4.7c-8.1-3.8-15.6-8.7-22.5-14.5c-2.9-2.5-5.8-5.1-8.4-8
	c-9.2-9.8-16.3-21.4-21.8-33.6c-2.4-5.5-4.6-11.2-6.4-17c-1.2-3.9-2.4-7.9-3.3-11.9c-0.8-2.9-1.2-6-1.9-8.9c-0.5-2.1-0.7-4.3-1-6.5
	c-0.8-5.4-1.3-10.9-1.3-16.4c0.1-6.2,0.3-12.4,1.1-18.5c0.4-2.9,0.7-5.7,1.2-8.6c1-5.7,2.1-11.4,3.7-16.9
	C63.4,190.5,67.8,179.2,73.1,168.3L73.1,168.3z M436.8,161.9c1.1,1.7,1.9,3.5,2.8,5.3c2.1,4.4,4.2,8.9,6,13.5
	c7.6,18.8,12.3,38.8,13,59.1c0,1.8,0.1,3.5,0.1,5.3c0.1,9.6-1.3,19.1-3.2,28.4c-0.7,3.6-1.5,7.2-2.6,10.7c-4,14.7-10,29-18.4,41.8
	c-8.2,12.6-19,23.5-31.8,31.4c-5.7,3.6-11.8,6.6-18,9.2c-5.8,2.2-11.7,4-17.8,5.1c-6.4,1-12.9,1.5-19.4,1.2
	c-7.9-0.5-15.8-2.1-23.2-4.9c-1.9-0.8-3.9-1.5-5.8-2.3c-0.2-1.5,0.3-3,0.5-4.5c1.2-5.7,3-11.4,5.7-16.6c2.4-4.5,5.5-8.6,9.5-11.9
	c2.4-2,5.2-3.6,8.2-4.8c3.6-1.5,7.5-2,11.2-2.8c7.2-1.7,14.4-3.9,21.1-7c10.4-4.6,19.7-11.4,27.6-19.5c1.6-1.6,3.2-3.2,4.7-4.9
	c3.4-3.8,6.7-7.6,9.9-11.5c7.5-10.1,12.8-21.6,16.7-33.5c1.6-5.3,3.2-10.6,4.2-16.1c0.6-2.9,1-5.8,1.5-8.7
	c0.9-6.1,1.6-12.2,1.7-18.4c0.1-6.6,0.1-13.3-0.5-19.9C439.8,177.7,438.6,169.7,436.8,161.9L436.8,161.9z"/>
</svg>
