<?xml version="1.0" encoding="utf-8"?>
<!-- Generator: Adobe Illustrator 24.0.0, SVG Export Plug-In . SVG Version: 6.00 Build 0)  -->
<svg version="1.1" id="Layer_1" xmlns="http://www.w3.org/2000/svg" xmlns:xlink="http://www.w3.org/1999/xlink" x="0px" y="0px"
	 viewBox="0 0 512 512" style="enable-background:new 0 0 512 512;" xml:space="preserve">
<path d="M338.6,403.8c0,20.2-16.2,36.5-36.5,36.5s-36.6-16.2-36.6-36.5s16.5-36.6,36.6-36.6C322.5,367.1,338.6,383.5,338.6,403.8z
	 M135.5,367.1c-20.2,0-36.5,16.5-36.5,36.6c0,20.2,16.2,36.5,36.5,36.5s36.6-16.2,36.6-36.5C172.2,383.5,155.8,367.1,135.5,367.1z
	 M368.9,151.1C127.1,151.1,65.5,140.9,0,71.8c27.5,41.4,42.6,119.1,298.5,115.4c266.6-4,104,68.9,56.6,151.1
	C504.5,204.9,610.6,151.1,368.9,151.1L368.9,151.1z"/>
</svg>
