<?xml version="1.0" encoding="utf-8"?>
<!-- Generator: Adobe Illustrator 24.0.0, SVG Export Plug-In . SVG Version: 6.00 Build 0)  -->
<svg version="1.1" id="Layer_1" xmlns="http://www.w3.org/2000/svg" xmlns:xlink="http://www.w3.org/1999/xlink" x="0px" y="0px"
	 viewBox="0 0 512 512" style="enable-background:new 0 0 512 512;" xml:space="preserve">
<path d="M321.9,32.7c-170.2,0-252.6,223.8-147.5,355.1c36.5,45.4,88.6,75.6,147.5,75.6c36.3,0,70.3-11.1,99.4-30.4
	c-43.8,39.2-101.9,63-165.3,63c-3.9,0-8,0-11.9-0.3C112.6,489.6,8,381.1,8,248C8,111,119,0,256,0h0.8
	c63.1,0.3,120.7,24.1,164.4,63.1C392.2,43.7,358.1,32.7,321.9,32.7L321.9,32.7z M423.7,430.4c-40.9,24.7-90.7,23.6-132-5.8
	c56.2-20.5,97.7-91.6,97.7-176.6c0-84.7-41.2-155.8-97.4-176.6c41.8-29.2,91.2-30.3,132.9-5C530.8,165.1,530.4,332.1,423.7,430.4z"
	/>
</svg>
