<?xml version="1.0" encoding="utf-8"?>
<!-- Generator: Adobe Illustrator 24.0.0, SVG Export Plug-In . SVG Version: 6.00 Build 0)  -->
<svg version="1.1" id="Layer_1" xmlns="http://www.w3.org/2000/svg" xmlns:xlink="http://www.w3.org/1999/xlink" x="0px" y="0px"
	 viewBox="0 0 512 512" style="enable-background:new 0 0 512 512;" xml:space="preserve">
<path d="M508.9,403c5-8.4,4.2-13.5-4.8-10.3c-2.7-4.4-6.2-8.4-9.9-12.3c2.6-8.6-0.6-12.6-9.6-8.2c-4.1-2.8-9.2-5.8-14.1-8.2
	c0-13.4-10.3-10.3-15.6-5.1c-9.2-1.3-16.6-0.3-23.8,5.1c0.3-5.8,0.3-11.6,0.3-17.5c11.2,0,35.7-9.8,40.8-32.2
	c1.2-6,1.4-12.3-0.3-19.5c-2.7-12-12.7-18.9-22.3-22.8c-0.7-5.2-6.8-12.7-13.2-14.1s-11,4.4-12.5,9.2c-7.6,0-17.1,2.5-18.7,7.5
	c-4.8-0.4-9.9-1.2-14.9-1.7c2.4-1.7,4.8-3.1,7.5-4.1c4.8-8.2,13-10.1,22.8-10.3V256c17.3-0.4,38.2-5.2,47.8-16.1
	c11.3-12.3,13-33.1,11-49c-2.1-15.4-8.6-33.4-21.9-42.7c-7.5-5.2-19.2-0.7-20.2,8.4c-2,17.4,1.1,26.7-34.3,22.3
	c-9.2-21.1-21.9-39.6-37.9-53.3c-61.8-53-149-47.8-217-33.4c17.5,4.1,36.5,7.6,53,14.7c-23.3,2.1-46.8,10-67.7,20.6
	c-29.1,15.1-39.1,26.6-50.4,37.7c13.2-2,25.7-4.5,38.9-3.4c-8.6,4.8-16.4,10.8-23.5,17.8c-22.9,0.8-21.1-4.7-23.3-23
	c-1-9.3-12.7-13.7-20.2-8.6c-25,17.7-29.8,71-10.8,92c9.6,10.8,31.2,15.4,48.8,15.8c-0.3,1-0.3,1.7-0.3,2.4
	c9.6,0.4,17.3,2.4,21.9,10.3c2.7,1,5.1,2.4,7.2,4.1c-4.8,0.4-9.9,1.2-14.7,1.7c-2.9-5.9-12.2-7.2-18.7-7.2
	c-1.4-5.1-5.8-10.8-12.5-9.2c-6,1.7-12.5,8.9-13.2,14.1c-20,8.4-26.7,23.8-22.3,42.3c4.7,22,29.3,32.2,40.8,32.2V364
	c-5.9-4.4-12.7-6.7-23.8-5.1c-4.9-4.9-15.4-9-15.4,5.1c-5.2,2.4-10.1,5.2-14.1,8.2c-8.7-4.4-12.1-1.5-9.9,8.2
	c-3.6,3.8-6.9,7.6-9.9,12.3c-9.1-3.3-9.8,2-4.8,10.3c-1,3.1-1.4,6.2-1.7,9.6c-0.4,28.1,39.6,56.9,65.3,57.8
	c15.4,0.4,30.7-7.5,38.2-20.9c100.6,4.4,201.4,3.6,302.3,0c7.2,13.4,22.6,21.6,37.9,20.9c25.9-1,66-29.8,65.3-57.8
	C510.6,409.2,509.8,406.1,508.9,403L508.9,403z M443.3,177.3c1-2.7,2.1-7.5,2.1-13c0-5.2,6-7.2,12.5-0.7c9.9,10.3,13.2,36,12.3,45.4
	C466.6,196.9,458.7,183.2,443.3,177.3L443.3,177.3z M439.2,183.2c17.3,5.5,25.4,24.5,26.4,43.5c-1,2.4-2.7,4.8-4.4,6.8
	c-5.1,5.2-13.7,8.9-23.3,10.8c3.8-18.9,0.3-42-11.3-56C431,187.6,436.4,186.1,439.2,183.2L439.2,183.2z M417.8,189.3
	c12.3,10.6,17.8,34.8,12.5,56.4c-3.6,0.4-7.2,0.7-10.3,0.7c-1.7-19.5-6-39.1-12.7-57.4C410.6,189.3,414.5,189.3,417.8,189.3
	L417.8,189.3z M42.3,208.9c-1-9.3,2.1-35.1,12.3-45.4c6.2-6.5,12.5-4.5,12.5,0.7c0,5.5,1.2,10.3,2.1,13
	C53.8,183.2,45.9,196.9,42.3,208.9z M50.9,233.4c-1.7-2-3.1-4.4-4.4-6.8c1.2-18.9,9.2-37.9,26.4-43.5c2.8,2.8,8.2,4.4,12.5,5.1
	c-11.6,14-15.1,37-11.3,56C64.6,242.3,56,238.9,50.9,233.4z M93.5,246.4c-3.6,0-7.2-0.3-11.3-0.7c-4.1-16.5-1.7-34.6,4.8-47.1v0.3
	l10.8-4.5c4.4-1.7,8.6-3.4,13.2-4.4C101.6,207.5,95.6,226.7,93.5,246.4z M257,101.8c37.2,0,67.7,30.2,67.7,67.4
	c0,37.5-30.5,67.7-67.7,67.7s-67.7-30.2-67.7-67.7C189.3,132.1,219.7,101.8,257,101.8L257,101.8z M359.7,256.7
	c-0.3,15.8-6.2,43.5-20.4,50.7c-11.7,5.9-5.8-6.7-14.7-51.6C336.4,256,348.2,256,359.7,256.7z M311.7,255.3
	c0.7,4.4,3.4,35.8-1.4,37.2c-10.3,3.1-35.5,3.8-45.4-1c-3.6-2.7-4.1-31.9-3.8-36.5v0.3C277.9,255,294.9,255,311.7,255.3L311.7,255.3
	z M247.4,303.1c-11.6,3.1-37,3.6-48.5-1.4c-5.8-2.4-3.4-37.7-1.7-45.9c17.1-0.4,34.1-0.4,51.4-0.7v0.3
	C249.5,262.7,251.5,300.9,247.4,303.1z M152.7,257.7c10.8-0.7,21.9-1.2,32.7-1.4c-2.1,13.7-2.7,38.7-4.4,46.4c-1,6-3.8,6-8.6,3.8
	C153,297.8,147.9,275.2,152.7,257.7L152.7,257.7z M121.3,285.5c6.9-1,14-1.7,20.9-2.4c1.4,5.5,3.4,10.6,6.2,15.6
	c8.9,15.1,39.1,31.7,40.1,6.2c5.5,13.2,36.3,10.8,48.8,9.6c14-1.2,21.1-1.2,23.8-12.7c11,3.8,27.4,3.6,39.1,2.7
	c10-0.7,18.5-0.4,21.9-7.9c1,4.5,1.7,10.3,4.1,14.9c9.6,18.9,33.1,1.2,41.6-28.1c7.6,0.7,15.6,1.7,23.5,2.4
	c-0.4,1.2-3.4,6.5,6.5,10.3c-42.3,41.8-85,78-145,95.1c-56.2-18.5-99.6-52.9-138.5-94.6C122.7,293.6,123.4,288.8,121.3,285.5z
	 M102.1,438.8c-3.4,15.8-19.5,26.4-35.3,25.7c-17.1-0.7-41.3-15.1-52.6-32.4c-2.4-27.6,38.9-54.5,58.8-48.5
	c13.2,3.8,24.7,27.4,29.8,48C102.8,434.2,102.5,436.6,102.1,438.8z M94.4,380.1c-0.4-12-0.4-24-0.3-36h0.3c2.4-1.4,5.1-3.4,6.9-5.8
	c5.8-1.4,11.6-4.5,13.4-8.2c2.9-6.3-6.2-6.7-4.8-11c2.4-1,5.1-2,6.9-3.1c25.9,25.9,52.1,50.2,86.5,68.4
	c-32.7,10-64.3,24.5-94.1,41.8C108.1,409.7,102.4,394.3,94.4,380.1z M394.3,437.5c-91.5,3.1-183.2,3.6-274.9,0c0,0.3,0,0.3-0.3,0.3
	v-0.3h0.3c31.2-19.2,64.2-34.8,99.9-45.1c10.3,4.5,20.4,8.4,31,11.7c2,0.7,2,0.7,3.8,0c12.7-3.6,25.2-8.2,37.5-13.7
	C328.5,400.8,361.6,418.6,394.3,437.5L394.3,437.5z M403.7,426.5c-31.9-17.3-64.9-31.9-99.4-42.3c33.9-17.8,63.9-42,92-68.2
	c2,1.2,4.1,2.1,6.8,2.8c0,0.7,0.3,1.7,0.4,2.1c-4.1,2.4-6.9,5.5-5.2,9.2c2,3.4,7.6,6.8,13.4,7.9c2.1,2.4,4.5,4.5,7.2,6
	c0,12.3-0.3,24.5-0.7,36.7l0.3-0.3C410.1,394.7,404.6,413.5,403.7,426.5L403.7,426.5z M497.8,432c-11.3,17.3-35.5,31.7-52.6,32.4
	c-17.2,0.8-36-11.7-36-32.9c5.1-20.6,16.8-44.2,29.8-48C459.1,377.5,500.4,404.4,497.8,432z M331.4,95.3
	c-3.4-64.1-89.6-70.8-112-20.9C259.1,52.9,299.7,60.5,331.4,95.3z M66.5,390.3c-14,1.4-44,22.6-44,38.4c0,10.3,14,17.3,28.6,13.2
	c10.8-2.8,27.6-15.6,31.9-24.3C88.4,407.3,79.8,388.6,66.5,390.3L66.5,390.3z M258.4,233.7c25.4,0,46.1-19.2,46.1-43
	c0-32.1-36-51.6-64.2-39.4c8.4,2.7,14.7,10.3,14.7,19.2c0,20.7-29.6,28.4-41.3,10C207.2,210.9,230.9,233.7,258.4,233.7z M60.5,449.8
	c0.4,5.8,10.8,11.3,19.2,8.4c6-2.4,13-9.3,15.4-14.4c2.7-6.2-1-17.8-8.6-16.4C78.5,428.9,60.1,442.3,60.5,449.8z M445.4,390.3
	c-13.2-1.7-21.9,17.1-16.8,27.4c4.4,8.6,21.4,21.4,32.2,24.3c14.7,4.1,28.6-2.8,28.6-13.2C489.4,412.8,459.4,391.7,445.4,390.3
	L445.4,390.3z M425.5,427.5c-7.5-1.4-11,10-8.4,16.4c2.1,5.1,9.2,12,15.4,14.4c8.2,2.8,18.7-2.7,18.9-8.4
	C452.2,442.3,433.4,428.9,425.5,427.5L425.5,427.5z"/>
</svg>
