<?xml version="1.0" encoding="utf-8"?>
<!-- Generator: Adobe Illustrator 24.0.0, SVG Export Plug-In . SVG Version: 6.00 Build 0)  -->
<svg version="1.1" id="Layer_1" xmlns="http://www.w3.org/2000/svg" xmlns:xlink="http://www.w3.org/1999/xlink" x="0px" y="0px"
	 viewBox="0 0 512 512" style="enable-background:new 0 0 512 512;" xml:space="preserve">
<path d="M486.4,76.8h-25.6l-10.6-10.6c-9.6-9.6-22.6-15-36.2-15h-16.4c-8.9,0-17.7,2.3-25.4,6.7L249.6,128h-44.8
	C120,128,51.2,196.8,51.2,281.6v1.3c0,26.2-12.8,49.7-31.6,67.9C5,364.9-2.9,385.7,1,408.2c5.4,31,34.3,52.6,65.8,52.6h86.8
	c14.1,0,25.6-11.5,25.6-25.6c0-14.1-11.5-25.6-25.6-25.6H64c-7.1,0-12.8-5.7-12.8-12.8c0-7.1,5.7-12.8,12.8-12.8h179.2
	c7.1,0,12.8-5.7,12.8-12.8v-12.8c0-14.1-11.5-25.6-25.6-25.6h-51.2l119.6-64.4L358.4,384h64c7.1,0,12.8-5.7,12.8-12.8v-12.8
	c0-14.1-11.5-25.6-25.6-25.6H387l-44.1-88.2l74-39.8h18.3c42.4,0,76.8-34.4,76.8-76.8v-25.6C512,88.3,500.5,76.8,486.4,76.8z
	 M409.6,89.6c7.1,0,12.8,5.7,12.8,12.8s-5.7,12.8-12.8,12.8c-7.1,0-12.8-5.7-12.8-12.8C396.8,95.3,402.5,89.6,409.6,89.6z
	 M435.2,166.4h-28l-81.5,43.9l-11-22l94.9-47.4h61.6C465.9,155.7,451.9,166.4,435.2,166.4z"/>
</svg>
