<?xml version="1.0" encoding="utf-8"?>
<!-- Generator: Adobe Illustrator 24.0.0, SVG Export Plug-In . SVG Version: 6.00 Build 0)  -->
<svg version="1.1" id="Layer_1" xmlns="http://www.w3.org/2000/svg" xmlns:xlink="http://www.w3.org/1999/xlink" x="0px" y="0px"
	 viewBox="0 0 512 512" style="enable-background:new 0 0 512 512;" xml:space="preserve">
<path d="M132.7,363.3c10,10,27.3,2.9,27.3-11.3V160c0-14.3-17.3-21.3-27.3-11.3l-96,96c-6.2,6.2-6.2,16.4,0,22.6L132.7,363.3z
	 M464,416H48c-8.8,0-16,7.2-16,16v32c0,8.8,7.2,16,16,16h416c8.8,0,16-7.2,16-16v-32C480,423.2,472.8,416,464,416z M467.2,288H236.8
	c-7.1,0-12.8,5.7-12.8,12.8c0,0,0,0,0,0v38.3c0,7.1,5.7,12.8,12.8,12.8c0,0,0,0,0,0h230.3c7.1,0,12.8-5.7,12.8-12.8c0,0,0,0,0,0
	v-38.3C480,293.7,474.3,288,467.2,288C467.2,288,467.2,288,467.2,288z M467.2,160H236.8c-7.1,0-12.8,5.7-12.8,12.8c0,0,0,0,0,0v38.3
	c0,7.1,5.7,12.8,12.8,12.8c0,0,0,0,0,0h230.3c7.1,0,12.8-5.7,12.8-12.8c0,0,0,0,0,0v-38.3C480,165.7,474.3,160,467.2,160
	C467.2,160,467.2,160,467.2,160z M464,32H48c-8.8,0-16,7.2-16,16v32c0,8.8,7.2,16,16,16h416c8.8,0,16-7.2,16-16V48
	C480,39.2,472.8,32,464,32z"/>
</svg>
