<?xml version="1.0" encoding="utf-8"?>
<!-- Generator: Adobe Illustrator 24.0.0, SVG Export Plug-In . SVG Version: 6.00 Build 0)  -->
<svg version="1.1" id="Layer_1" xmlns="http://www.w3.org/2000/svg" xmlns:xlink="http://www.w3.org/1999/xlink" x="0px" y="0px"
	 viewBox="0 0 512 512" style="enable-background:new 0 0 512 512;" xml:space="preserve">
<path d="M256,504C119,504,8,393,8,256S119,8,256,8c20.9,0,41.3,2.6,60.7,7.5L50.3,392H256V504z M256,360.4V146.8L106.6,360.4H256z
	 M352,392v92.7c45.7-19.2,84.5-51.7,111.4-92.7H352z M409.4,253.8l-21.2,8.4l21.2,8.3V253.8z M389.1,308.3c-6.7,0-8,6.3-8,12.9v7.7
	h16.2v-10C397.3,313,395,308.3,389.1,308.3z M504,256c0,37.3-8.2,72.7-23,104.4H352V27.3C441.3,64.8,504,153.1,504,256z
	 M368.4,143.6h68.2V96h-13.9v32.6h-13.9V99h-13.9v29.6h-12.7V96h-13.9v47.6H368.4z M436.5,328.9H410v-11c0-15.4-5.6-25.2-20.9-25.2
	c-15.4,0-20.7,10.6-20.7,25.9v25.3h68.2L436.5,328.9L436.5,328.9z M436.5,225.9l-68.2,29.7V268l68.2,29.5v-16.6l-14.4-5.7v-26.5
	l14.4-5.9V225.9L436.5,225.9z M431.7,157.4h-35.6V184H410v-12.2h11c8.6,15.8,1.3,35.3-18.6,35.3c-22.5,0-28.3-25.3-15.5-37.7
	l-11.6-10.6c-16.2,17.5-12.2,63.9,27.1,63.9C436.4,222.7,447.1,186.8,431.7,157.4L431.7,157.4z"/>
</svg>
