<?xml version="1.0" encoding="utf-8"?>
<!-- Generator: Adobe Illustrator 24.0.0, SVG Export Plug-In . SVG Version: 6.00 Build 0)  -->
<svg version="1.1" id="Layer_1" xmlns="http://www.w3.org/2000/svg" xmlns:xlink="http://www.w3.org/1999/xlink" x="0px" y="0px"
	 viewBox="0 0 512 512" style="enable-background:new 0 0 512 512;" xml:space="preserve">
<path d="M344.6,199.2c0-43.3-50.5-40.4-87.2-27.3c-1.2,36-2.3,73.8-2.7,109.6c0.6,2.6,2.4,5.7,13.8,5.7
	C302.1,287.2,344.7,248,344.6,199.2L344.6,199.2z M166.7,265.2c0.2,0,5.9-2.5,10.2-2.5c24.3,0,18.9,40.3-13.2,40.3
	c-19.7,0-33.9-16.6-33.9-39.3c0-38.4,39.2-87.4,92.1-115.7c0.9-11.3,2.7-20.1,9.6-25.8c10.2-8.2,24.3-3.2,27,10.2
	c66-20.3,123.6,0.9,123.6,65.8c0,71.2-72.5,139.5-128.1,126.4c-0.1,36,0.8,68,2.5,91.4v0.2c0.2,3.1,0.5,11.4-4.8,17.5
	c-8.8,9.7-30.5,9.1-33.3-20.4c-3.7-40.6,0.2-188.5,1.3-221.8c-19.7,13.7-53.5,46-53.5,69.4C166.4,263.3,166.6,264.7,166.7,265.2
	L166.7,265.2z M0,187.5c0,0-0.1,34.2,35.1,34.2h27.4L83,420.3c0,0,0,40.5,40.9,40.5H388c0,0,40.9-0.4,40.9-40.5l20.5-198.6h27.4
	c0,0,35.1,1.1,35.1-34.2c0,0,0.1-34.2-35.1-34.2h-27.5c-6.7-23.4-27.6-67.9-109.2-67.9h-25.6V67.9c0,0-2.5-16.8-19.3-16.8h-78.5
	c0,0-19.3,0-19.3,16.8v17.5h-25.7c0,0-96,3.8-110.2,67.9H35.1C35.1,153.3,0,152.2,0,187.5z"/>
</svg>
