<?xml version="1.0" encoding="utf-8"?>
<!-- Generator: Adobe Illustrator 24.0.0, SVG Export Plug-In . SVG Version: 6.00 Build 0)  -->
<svg version="1.1" id="Layer_1" xmlns="http://www.w3.org/2000/svg" xmlns:xlink="http://www.w3.org/1999/xlink" x="0px" y="0px"
	 viewBox="0 0 512 512" style="enable-background:new 0 0 512 512;" xml:space="preserve">
<path d="M115.2,256h281.6c7,0,12.8-5.8,12.8-12.8V64c0-7-5.8-12.8-12.8-12.8h-89.6v102.4L256,128l-51.2,25.6V51.2h-89.6
	c-7,0-12.8,5.8-12.8,12.8v179.2C102.4,250.2,108.2,256,115.2,256z M499.2,358.4c7,0,12.8-5.8,12.8-12.8V320c0-7-5.8-12.8-12.8-12.8
	H12.8C5.8,307.2,0,313,0,320v25.6c0,7,5.8,12.8,12.8,12.8h38.4v51.2H12.8c-7,0-12.8,5.8-12.8,12.8V448c0,7,5.8,12.8,12.8,12.8h486.4
	c7,0,12.8-5.8,12.8-12.8v-25.6c0-7-5.8-12.8-12.8-12.8h-38.4v-51.2H499.2z M230.4,409.6h-128v-51.2h128V409.6z M409.6,409.6h-128
	v-51.2h128V409.6z"/>
</svg>
