<?xml version="1.0" encoding="utf-8"?>
<!-- Generator: Adobe Illustrator 24.0.0, SVG Export Plug-In . SVG Version: 6.00 Build 0)  -->
<svg version="1.1" id="Layer_1" xmlns="http://www.w3.org/2000/svg" xmlns:xlink="http://www.w3.org/1999/xlink" x="0px" y="0px"
	 viewBox="0 0 512 512" style="enable-background:new 0 0 512 512;" xml:space="preserve">
<path d="M75.2,466.1c-58.4-60.3-57.3-157.5,1.4-217.6L286.4,34c44.3-45.3,116.4-45.3,160.7,0c43.9,44.9,43.9,117.3,0,162.3
	L264.2,383.1c-29.9,30.5-78.6,30.1-108-1c-28.3-30-27.4-77.5,1.5-107l143.7-146.8c6.2-6.3,16.3-6.4,22.6-0.2l22.9,22.4
	c6.3,6.2,6.4,16.3,0.2,22.6L203.4,319.9c-4.9,5-5.2,13.4-0.6,18.3c4.4,4.6,11.2,4.7,15.7,0.2l182.8-186.9
	c19.6-20.1,19.6-52.7,0-72.8c-19.2-19.6-50-19.6-69.2,0L122.4,293.3c-34.8,35.6-35.3,93.1-1.2,128.3c34,35.1,89,35.1,123.1,0.3
	l172.1-176c6.2-6.3,16.3-6.4,22.6-0.3l22.9,22.4c6.3,6.2,6.4,16.3,0.3,22.6L290,466.6C230.4,527.6,134.1,526.8,75.2,466.1
	L75.2,466.1z"/>
</svg>
