<?xml version="1.0" encoding="utf-8"?>
<!-- Generator: Adobe Illustrator 24.0.0, SVG Export Plug-In . SVG Version: 6.00 Build 0)  -->
<svg version="1.1" id="Layer_1" xmlns="http://www.w3.org/2000/svg" xmlns:xlink="http://www.w3.org/1999/xlink" x="0px" y="0px"
	 viewBox="0 0 512 512" style="enable-background:new 0 0 512 512;" xml:space="preserve">
<path d="M480,48v32c0,8.8-7.2,16-16,16h-48v368c0,8.8-7.2,16-16,16h-32c-8.8,0-16-7.2-16-16V96h-32v368c0,8.8-7.2,16-16,16h-32
	c-8.8,0-16-7.2-16-16V352h-32c-88.4,0-160-71.6-160-160S135.6,32,224,32h240C472.8,32,480,39.2,480,48z"/>
</svg>
