<?xml version="1.0" encoding="utf-8"?>
<!-- Generator: Adobe Illustrator 24.0.0, SVG Export Plug-In . SVG Version: 6.00 Build 0)  -->
<svg version="1.1" id="Layer_1" xmlns="http://www.w3.org/2000/svg" xmlns:xlink="http://www.w3.org/1999/xlink" x="0px" y="0px"
	 viewBox="0 0 512 512" style="enable-background:new 0 0 512 512;" xml:space="preserve">
<path d="M161.6,176h39.1c1.5-27,6.5-51.3,14.2-70.4C187.2,118.8,166.9,144.8,161.6,176z M161.6,208c5.3,31.2,25.6,57.2,53.3,70.4
	c-7.7-19.1-12.7-43.4-14.2-70.4H161.6z M256,286.7c7.7-7.5,20.8-34.4,23.4-78.7h-46.9C235.2,252.3,248.3,279.2,256,286.7z
	 M232.6,176h46.9c-2.7-44.3-15.7-71.2-23.4-78.7C248.3,104.8,235.2,131.7,232.6,176z M297.1,278.4c27.7-13.2,48-39.2,53.3-70.4
	h-39.1C309.8,235,304.8,259.4,297.1,278.4z M448,0H96C60.7,0,32,28.6,32,64v384c0,35.4,28.7,64,64,64h352c17.7,0,32-14.3,32-32V32
	C480,14.3,465.7,0,448,0z M368,416H144c-8.8,0-16-7.2-16-16s7.2-16,16-16h224c8.8,0,16,7.2,16,16S376.8,416,368,416z M256,320
	c-70.7,0-128-57.3-128-128S185.3,64,256,64s128,57.3,128,128S326.7,320,256,320z M297.1,105.6c7.7,19.1,12.7,43.4,14.2,70.4h39.1
	C345.1,144.8,324.8,118.8,297.1,105.6z"/>
</svg>
