<?xml version="1.0" encoding="utf-8"?>
<!-- Generator: Adobe Illustrator 24.0.0, SVG Export Plug-In . SVG Version: 6.00 Build 0)  -->
<svg version="1.1" id="Layer_1" xmlns="http://www.w3.org/2000/svg" xmlns:xlink="http://www.w3.org/1999/xlink" x="0px" y="0px"
	 viewBox="0 0 512 512" style="enable-background:new 0 0 512 512;" xml:space="preserve">
<path d="M160,184c0-30.9,25.1-56,56-56h136V56c0-13.3-10.7-24-24-24h-80.6C236.3,12.9,215.6,0,192,0s-44.3,12.9-55.4,32H56
	c-13.3,0-24,10.7-24,24v336c0,13.3,10.7,24,24,24h104V184z M192,40c13.3,0,24,10.7,24,24s-10.7,24-24,24s-24-10.7-24-24
	S178.7,40,192,40z M376,288h104v200c0,13.3-10.7,24-24,24H216c-13.3,0-24-10.7-24-24V184c0-13.3,10.7-24,24-24h136v104
	C352,277.2,362.8,288,376,288z M480,249.9v6.1h-96v-96h6.1c6.4,0,12.5,2.5,17,7L473,233C477.5,237.5,480,243.6,480,249.9z"/>
</svg>
