<?xml version="1.0" encoding="utf-8"?>
<!-- Generator: Adobe Illustrator 24.0.0, SVG Export Plug-In . SVG Version: 6.00 Build 0)  -->
<svg version="1.1" id="Layer_1" xmlns="http://www.w3.org/2000/svg" xmlns:xlink="http://www.w3.org/1999/xlink" x="0px" y="0px"
	 viewBox="0 0 512 512" style="enable-background:new 0 0 512 512;" xml:space="preserve">
<path d="M499.6,329.3c-26.2-10-45.9,3.4-60.3,13.2c-13.6,9.2-18.6,11.5-25.1,9.1c-6.5-2.5-8.7-7.5-12.7-23.5
	c-2.7-10.5-6-23.5-14.4-34.1c1.8-2.3,3.5-4.6,5.1-6.9c8.1,7.7,18.7,13.7,33.4,13.7c27.2,0,40.7-20.6,49.6-34.3
	c8.5-12.9,12-16.9,17.6-16.9c10.6,0,19.2-8.6,19.2-19.2s-8.6-19.2-19.2-19.2c-27.2,0-40.7,20.6-49.6,34.3
	c-8.5,12.9-12,16.9-17.6,16.9c-13.8,0-30-49.1-77.8-81.5l13.8-27.6c26.8-1.7,48-23.7,48-50.9c0-28.3-22.9-51.2-51.2-51.2
	c-28.3,0-51.2,22.9-51.2,51.2c0,10.4,3.2,20.1,8.5,28.2l-14.5,29c-13.6-3.7-28.5-6-45.2-6s-31.6,2.3-45.2,6l-14.5-29
	c5.3-8.1,8.5-17.8,8.5-28.2c0-28.3-22.9-51.2-51.2-51.2s-51.2,22.9-51.2,51.2c0,27.2,21.2,49.2,48,50.9l13.8,27.6
	c-47.7,32.3-64.1,81.5-77.8,81.5c-5.6,0-9.1-4-17.6-16.9c-8.9-13.6-22.5-34.3-49.6-34.3C8.6,211.2,0,219.8,0,230.4
	s8.6,19.2,19.2,19.2c5.6,0,9.1,4,17.6,16.9c9,13.6,22.5,34.3,49.6,34.3c14.6,0,25.2-6,33.4-13.7c1.6,2.2,3.3,4.5,5.1,6.9
	c-8.4,10.7-11.7,23.6-14.4,34.1c-4,16-6.2,21-12.7,23.5c-6.5,2.4-11.5,0.1-25.1-9.1c-14.4-9.8-34.2-23.1-60.3-13.2
	c-9.9,3.8-14.9,14.9-11.1,24.8c3.8,9.9,14.9,14.9,24.8,11.1c6.5-2.5,11.5-0.2,25.1,9.1C62,381.6,75.8,391,93.1,391
	c5.7,0,11.9-1,18.4-3.5c26.1-10,32-33.1,36.3-50c1.8-7,3.2-11.6,4.8-15.1c13.3,10.9,29.6,20.7,49.3,27.3
	c-8,29.6-25.7,72.6-48.2,72.6c-10.6,0-19.2,8.6-19.2,19.2c0,10.6,8.6,19.2,19.2,19.2c53.4,0,77.6-70.9,85.9-103.3
	c5.4,0.5,10.7,0.9,16.5,0.9s11.1-0.4,16.5-0.9c8.3,32.4,32.5,103.3,85.9,103.3c10.6,0,19.2-8.6,19.2-19.2c0-10.6-8.6-19.2-19.2-19.2
	c-22.4,0-40.2-43-48.2-72.6c19.8-6.6,36-16.4,49.3-27.3c1.6,3.5,3,8.1,4.8,15.1c4.3,16.9,10.1,40,36.3,50c6.5,2.5,12.6,3.5,18.4,3.5
	c17.3,0,31.1-9.4,41.9-16.7c13.6-9.2,18.6-11.6,25.1-9.1c9.9,3.8,21-1.2,24.8-11.1C514.5,344.2,509.6,333.1,499.6,329.3L499.6,329.3
	z M358.4,89.6c7.1,0,12.8,5.7,12.8,12.8c0,7.1-5.7,12.8-12.8,12.8s-12.8-5.7-12.8-12.8C345.6,95.3,351.3,89.6,358.4,89.6z
	 M153.6,89.6c7.1,0,12.8,5.7,12.8,12.8c0,7.1-5.7,12.8-12.8,12.8s-12.8-5.7-12.8-12.8C140.8,95.3,146.5,89.6,153.6,89.6z"/>
</svg>
