<?xml version="1.0" encoding="utf-8"?>
<!-- Generator: Adobe Illustrator 24.0.0, SVG Export Plug-In . SVG Version: 6.00 Build 0)  -->
<svg version="1.1" id="Layer_1" xmlns="http://www.w3.org/2000/svg" xmlns:xlink="http://www.w3.org/1999/xlink" x="0px" y="0px"
	 viewBox="0 0 512 512" style="enable-background:new 0 0 512 512;" xml:space="preserve">
<path d="M176,479H80c-26.5,0-48-21.5-48-48V79c0-26.5,21.5-48,48-48h96c26.5,0,48,21.5,48,48v352C224,457.5,202.5,479,176,479z
	 M480,431V79c0-26.5-21.5-48-48-48h-96c-26.5,0-48,21.5-48,48v352c0,26.5,21.5,48,48,48h96C458.5,479,480,457.5,480,431z"/>
</svg>
