<?xml version="1.0" encoding="utf-8"?>
<!-- Generator: Adobe Illustrator 24.0.0, SVG Export Plug-In . SVG Version: 6.00 Build 0)  -->
<svg version="1.1" id="Layer_1" xmlns="http://www.w3.org/2000/svg" xmlns:xlink="http://www.w3.org/1999/xlink" x="0px" y="0px"
	 viewBox="0 0 512 512" style="enable-background:new 0 0 512 512;" xml:space="preserve">
<path d="M175.4,295.9c-3.5,19.2-17.4,108.7-21.5,134c-0.3,1.8-1,2.5-3,2.5H76.3c-7.6,0-13.1-6.6-12.1-13.9l58.6-371.9
	c1.5-9.6,10.1-16.9,20-16.9c152.3,0,165.1-3.7,204,11.4c60.1,23.3,65.6,79.5,44,140.3c-21.5,62.6-72.5,89.5-140.1,90.3
	C207.3,272.4,181.2,264.7,175.4,295.9L175.4,295.9z M421.1,152c-1.8-1.3-2.5-1.8-3,1.3c-2,11.4-5.1,22.5-8.8,33.6
	c-39.9,113.8-150.5,103.9-204.5,103.9c-6.1,0-10.1,3.3-10.9,9.4c-22.6,140.4-27.1,169.7-27.1,169.7c-1,7.1,3.5,12.9,10.6,12.9h63.5
	c8.6,0,15.7-6.3,17.4-14.9c0.7-5.4-1.1,6.1,14.4-91.3c4.6-22,14.3-19.7,29.3-19.7c71,0,126.4-28.8,142.9-112.3
	C451.4,209.8,449.5,173.2,421.1,152L421.1,152z"/>
</svg>
