<?xml version="1.0" encoding="utf-8"?>
<!-- Generator: Adobe Illustrator 24.0.0, SVG Export Plug-In . SVG Version: 6.00 Build 0)  -->
<svg version="1.1" id="Layer_1" xmlns="http://www.w3.org/2000/svg" xmlns:xlink="http://www.w3.org/1999/xlink" x="0px" y="0px"
	 viewBox="0 0 512 512" style="enable-background:new 0 0 512 512;" xml:space="preserve">
<path d="M256,8C119,8,8,119,8,256s111,248,248,248s248-111,248-248S393,8,256,8z M440,256c0,31.9-8.2,62-22.6,88.2L288,240.6V75
	C374.2,90.2,440,165.5,440,256z M224,437c-33.9-6-64.5-21.2-89.3-43l89.3-71.4V437z M288,322.6l89.3,71.4
	c-24.8,21.8-55.4,37-89.3,43V322.6z M224,75v165.7L94.6,344.2C80.2,318,72,287.9,72,256C72,165.5,137.8,90.2,224,75z"/>
</svg>
