<?xml version="1.0" encoding="utf-8"?>
<!-- Generator: Adobe Illustrator 24.0.0, SVG Export Plug-In . SVG Version: 6.00 Build 0)  -->
<svg version="1.1" id="Layer_1" xmlns="http://www.w3.org/2000/svg" xmlns:xlink="http://www.w3.org/1999/xlink" x="0px" y="0px"
	 viewBox="0 0 512 512" style="enable-background:new 0 0 512 512;" xml:space="preserve">
<path d="M432,480H80c-26.5,0-48-21.5-48-48V80c0-26.5,21.5-48,48-48h352c26.5,0,48,21.5,48,48v352C480,458.5,458.5,480,432,480z
	 M270.1,177.9L134.4,313.6l-6.3,57.1c-0.8,7.6,5.6,14.1,13.3,13.3l57.1-6.3L334.2,242c2.3-2.3,2.3-6.1,0-8.5L278.7,178
	C276.2,175.6,272.4,175.6,270.1,177.9L270.1,177.9z M377,165.1L346.9,135c-9.4-9.4-24.6-9.4-33.9,0l-23.1,23.1
	c-2.3,2.3-2.3,6.1,0,8.5l55.5,55.5c2.3,2.3,6.1,2.3,8.5,0L377,199C386.3,189.7,386.3,174.5,377,165.1z"/>
</svg>
