<?xml version="1.0" encoding="utf-8"?>
<!-- Generator: Adobe Illustrator 24.0.0, SVG Export Plug-In . SVG Version: 6.00 Build 0)  -->
<svg version="1.1" id="Layer_1" xmlns="http://www.w3.org/2000/svg" xmlns:xlink="http://www.w3.org/1999/xlink" x="0px" y="0px"
	 viewBox="0 0 512 512" style="enable-background:new 0 0 512 512;" xml:space="preserve">
<path d="M337.5,182.6c-3.6,15.6-1.1,4.8-12.1,52.2l31.8-8.5C339.4,186.7,343.4,195.6,337.5,182.6L337.5,182.6z M172.7,223.5
	c-16.2,4.3-9,2.4-31.7,8.5l3.6,37c22.5-6.1,16.5-4.5,27.9-7.5C206.2,253.6,198.7,216.3,172.7,223.5z M433.6,202.6l-36.4-79.4
	c-4.6-9.9-15.6-15.1-26.1-12.3c-56.2,15-31,8.3-108.5,29c-7,1.9-12.7,7.1-15.1,13.9C115.4,141.8,0,174.2,0,232.5
	c0,26.8,24.5,53.7,64.7,76.3l1.4,14.3c-9.3,3.6-15.2,13-14.2,22.9l3.4,35.6c1.1,11.4,10.7,20.2,22.2,20.2c4.1,0-2.4,1.4,98-25.4
	c10.1-2.7,16.9-12,16.5-22.4c173.3,36.4,321.6-4.8,319.9-67.9C512,263.6,494.2,232.9,433.6,202.6L433.6,202.6z M204.1,289.8
	l-17.5,4.7l-38.8,10.3l2,18.8l16.4-4.4l3.6,35.6l-92.2,24.6l-3.4-35.6l16-4.3l-8.9-91.7l-16.1,4.3l-3.5-35.6
	c142.5-38,136.1-37.1,149-37.3c45.3-0.9,51.3,57.5,34,83.5C234.9,276.5,220.5,286.1,204.1,289.8L204.1,289.8z M363.5,303.1
	l-3.1-31.6l11.9-3.2l-5.3-11.7L320.8,269l-3.3,14l15.4-4.1l3.2,31.6l-90.3,24.1l-3.6-35.5l16.8-4.5l26.5-101.2l-13.7,3.6l-3.4-35.6
	c74.7-20,52-13.9,108.5-29l53.3,116.4l16.6-4.4l3.4,35.6L363.5,303.1L363.5,303.1z"/>
</svg>
