<?xml version="1.0" encoding="utf-8"?>
<!-- Generator: Adobe Illustrator 24.0.0, SVG Export Plug-In . SVG Version: 6.00 Build 0)  -->
<svg version="1.1" id="Layer_1" xmlns="http://www.w3.org/2000/svg" xmlns:xlink="http://www.w3.org/1999/xlink" x="0px" y="0px"
	 viewBox="0 0 512 512" style="enable-background:new 0 0 512 512;" xml:space="preserve">
<path d="M85.3,142.2c31.4,0,56.9-25.5,56.9-56.9s-25.5-56.9-56.9-56.9S28.4,54,28.4,85.3S54,142.2,85.3,142.2z M85.3,298.8
	c0-10.8,4.4-21.1,12.1-28.4l64.1-60.5c1.4-1.4,3.4-2,5-3.2c-8.4-21.6-29.4-35.9-52.7-35.9H56.9C25.5,170.7,0,196.2,0,227.6v85.3
	c0,15.7,12.7,28.4,28.4,28.4v113.8c0,15.7,12.7,28.4,28.4,28.4h56.9c15.7,0,28.4-12.7,28.4-28.4v-85.7l-44.8-42.2
	C89.7,319.7,85.3,309.5,85.3,298.8L85.3,298.8z M426.7,142.2c31.4,0,56.9-25.5,56.9-56.9S458,28.4,426.7,28.4S369.8,54,369.8,85.3
	S395.3,142.2,426.7,142.2z M455.1,170.7h-56.9c-23.3,0-44.2,14.2-52.8,35.9c1.6,1.2,3.6,1.8,5,3.2l64.1,60.5
	c15.7,15.1,16.2,40.1,1.2,55.7c-0.4,0.4-0.7,0.8-1.2,1.2l-44.7,42.2v85.7c0,15.7,12.7,28.4,28.4,28.4h56.9
	c15.7,0,28.4-12.7,28.4-28.4V341.3c15.7,0,28.4-12.7,28.4-28.4v-85.3C512,196.2,486.5,170.7,455.1,170.7z M395,290.9l-64.1-60.5
	c-4.3-4.1-11-3.9-15.1,0.4c-1.9,2-2.9,4.6-2.9,7.4v32H199.1v-32c0-5.9-4.7-10.7-10.7-10.7c-2.8,0-5.4,1.1-7.4,2.9L117,290.9
	c-4.3,4.3-4.3,11.2,0,15.6l64.1,60.5c4.3,4.1,11,3.9,15.1-0.4c1.9-2,2.9-4.6,2.9-7.4v-32.2h113.8v32.1c0,5.9,4.7,10.7,10.6,10.8
	c2.8,0,5.4-1.1,7.4-2.9l64.1-60.5C399.3,302.2,399.3,295.3,395,290.9z"/>
</svg>
