<?xml version="1.0" encoding="utf-8"?>
<!-- Generator: Adobe Illustrator 24.0.0, SVG Export Plug-In . SVG Version: 6.00 Build 0)  -->
<svg version="1.1" id="Layer_1" xmlns="http://www.w3.org/2000/svg" xmlns:xlink="http://www.w3.org/1999/xlink" x="0px" y="0px"
	 viewBox="0 0 512 512" style="enable-background:new 0 0 512 512;" xml:space="preserve">
<path d="M102.4,128c21.2,0,38.4-17.2,38.4-38.4s-17.2-38.4-38.4-38.4S64,68.4,64,89.6S81.2,128,102.4,128z M409.6,128
	c21.2,0,38.4-17.2,38.4-38.4s-17.2-38.4-38.4-38.4s-38.4,17.2-38.4,38.4S388.4,128,409.6,128z M510.1,425.7l-35.2-88l-32.9,37.1
	l-1.6,14.6l22.2,55.4c4,10,13.6,16.1,23.8,16.1c3.2,0,6.4-0.6,9.5-1.8C509,453.7,515.4,438.8,510.1,425.7L510.1,425.7z M482.8,257.8
	L468,193.7c-3.7-16-14.9-29.4-30-35.9c-14.8-6.4-31.2-5.4-44.9,2.6c-18.2,10.7-31.8,27.6-38.5,47.5l-9,27.1l-12.8,8.2v-76.8
	c0-7-5.8-12.8-12.8-12.8H192c-7,0-12.8,5.8-12.8,12.8v76.8l-12.9-8.2l-9-27.1c-6.6-20-20.3-36.8-38.5-47.5c-13.8-8-30.1-9-44.9-2.6
	c-15.1,6.5-26.3,19.9-30,35.9l-14.7,64.2c-3.7,16,0.6,33,11.5,45.4l53.8,60.7l8.1,74.1c1.4,13,12.5,22.8,25.4,22.8
	c1,0,1.8-0.1,2.8-0.2c14.1-1.5,24.2-14.2,22.6-28.2l-8.1-74.2c-1.2-10.4-5.5-20.1-12.5-28L98.2,291l14.1-56.2l5.4,16.3
	c3.3,10,9.5,18.7,19.6,26.1l40.9,26c3.7,2.3,9.7,3.7,13.8,4h128c4.1-0.3,10.1-1.7,13.8-4l40.9-26c10.1-7.4,16.3-16,19.6-26.1
	l5.4-16.3l14.1,56.2l-34.6,39.2c-7,7.9-11.3,17.6-12.5,28l-8.1,74.2c-1.5,14.1,8.6,26.7,22.6,28.2c1,0.1,1.8,0.2,2.8,0.2
	c12.9,0,24-9.7,25.4-22.8l8.1-74.1l53.8-60.7C482.1,290.8,486.5,273.8,482.8,257.8z M37.1,337.7l-35.2,88
	c-5.3,13.1,1.1,28,14.2,33.3c13.4,5.3,28.1-1.4,33.3-14.2l22.2-55.4l-1.6-14.6C69.9,374.8,37.1,337.7,37.1,337.7z"/>
</svg>
