<?xml version="1.0" encoding="utf-8"?>
<!-- Generator: Adobe Illustrator 24.0.0, SVG Export Plug-In . SVG Version: 6.00 Build 0)  -->
<svg version="1.1" id="Layer_1" xmlns="http://www.w3.org/2000/svg" xmlns:xlink="http://www.w3.org/1999/xlink" x="0px" y="0px"
	 viewBox="0 0 512 512" style="enable-background:new 0 0 512 512;" xml:space="preserve">
<path d="M337.3,284.6h-58.7v98.7h58.7c16.3,0,29-4.6,38.2-13.8s13.8-21.2,13.8-36.1c0-14.6-4.7-26.3-14-35.3
	C365.9,289.1,353.2,284.6,337.3,284.6z M181.4,128.7h-58.7v98.7h58.7c16.3,0,29-4.6,38.2-13.8c9.2-9.2,13.8-21.2,13.8-36.1
	c0-14.6-4.7-26.3-14-35.3S197.4,128.7,181.4,128.7z M398.6,32H113.4C68.4,32.1,32.1,68.4,32,113.4v285.3
	c0.1,44.9,36.4,81.3,81.4,81.4h285.3c44.9-0.1,81.3-36.4,81.4-81.4V113.4C479.9,68.4,443.6,32.1,398.6,32z M462.3,398.6
	c0,35.1-28.5,63.6-63.6,63.6H113.4c-35.1,0-63.6-28.5-63.6-63.6V113.4c0-35.1,28.5-63.6,63.6-63.6h285.3c35.1,0,63.6,28.5,63.6,63.6
	V398.6z M337.3,128.7h-58.7v98.7h58.7c16.3,0,29-4.6,38.2-13.8c9.2-9.2,13.8-21.2,13.8-36.1c0-14.6-4.7-26.3-14-35.3
	S353.2,128.7,337.3,128.7z"/>
</svg>
