<?xml version="1.0" encoding="utf-8"?>
<!-- Generator: Adobe Illustrator 24.0.0, SVG Export Plug-In . SVG Version: 6.00 Build 0)  -->
<svg version="1.1" id="Layer_1" xmlns="http://www.w3.org/2000/svg" xmlns:xlink="http://www.w3.org/1999/xlink" x="0px" y="0px"
	 viewBox="0 0 512 512" style="enable-background:new 0 0 512 512;" xml:space="preserve">
<path d="M144,224c61.9,0,112-50.1,112-112S205.9,0,144,0S32,50.1,32,112S82.1,224,144,224z M144,64c26.5,0,48,21.5,48,48
	s-21.5,48-48,48s-48-21.5-48-48S117.5,64,144,64z M368,288c-61.9,0-112,50.1-112,112s50.1,112,112,112s112-50.1,112-112
	S429.9,288,368,288z M368,448c-26.5,0-48-21.5-48-48s21.5-48,48-48s48,21.5,48,48S394.5,448,368,448z M424.3,0.2l31.6-0.1
	c19.4-0.1,30.9,21.8,19.7,37.8L109.4,501.6c-4.5,6.4-11.8,10.2-19.6,10.2l-33.4,0.1c-19.5,0-30.9-21.9-19.7-37.8l368-463.7
	C409.2,4,416.5,0.2,424.3,0.2z"/>
</svg>
