<?xml version="1.0" encoding="utf-8"?>
<!-- Generator: Adobe Illustrator 24.0.0, SVG Export Plug-In . SVG Version: 6.00 Build 0)  -->
<svg version="1.1" id="Layer_1" xmlns="http://www.w3.org/2000/svg" xmlns:xlink="http://www.w3.org/1999/xlink" x="0px" y="0px"
	 viewBox="0 0 512 512" style="enable-background:new 0 0 512 512;" xml:space="preserve">
<path d="M173.3,173.3c25-25,25-65.5,0-90.5s-65.5-25-90.5,0s-25,65.5,0,90.5C107.7,198.3,148.3,198.3,173.3,173.3z M429.3,338.7
	c-25-25-65.5-25-90.5,0c-25,25-25,65.5,0,90.5c25,25,65.5,25,90.5,0C454.3,404.3,454.3,363.7,429.3,338.7z M427.3,107.3l-22.6-22.6
	c-12.5-12.5-32.8-12.5-45.3,0L84.7,359.4c-12.5,12.5-12.5,32.8,0,45.3l22.6,22.6c12.5,12.5,32.8,12.5,45.3,0l274.8-274.8
	C439.8,140.1,439.8,119.8,427.3,107.3z"/>
</svg>
