<?xml version="1.0" encoding="utf-8"?>
<!-- Generator: Adobe Illustrator 24.0.0, SVG Export Plug-In . SVG Version: 6.00 Build 0)  -->
<svg version="1.1" id="Layer_1" xmlns="http://www.w3.org/2000/svg" xmlns:xlink="http://www.w3.org/1999/xlink" x="0px" y="0px"
	 viewBox="0 0 512 512" style="enable-background:new 0 0 512 512;" xml:space="preserve">
<path d="M402,63.6C363.4,22.6,312.5,0,258.6,0C143.9,0,50.5,96.2,50.5,214.4c0,75.1,57.8,159.8,82.7,192.7
	C169.8,455.5,224.6,512,258.6,512c41.6,0,112.9-94.2,120.9-105c24.6-33.1,82-118.3,82-192.6C461.5,157.9,440.4,104.3,402,63.6z
	 M258.6,493.9c-42.5,0-190-167.3-190-279.4c0-107.4,83.9-196.3,190-196.3c100.8,0,184.7,89,184.7,196.3
	C443.4,326.6,295.9,493.9,258.6,493.9L258.6,493.9z M370,206.8c0,59.1-51.1,109.7-110.8,109.7c-100.6,0-150.7-108.2-92.9-181.8v0.4
	c0,24.5,20.1,44.4,44.8,44.4s44.8-19.9,44.8-44.4c0-18.2-11.1-33.8-26.9-40.7C305.6,75.2,370,133.7,370,206.8L370,206.8z"/>
</svg>
