<?xml version="1.0" encoding="utf-8"?>
<!-- Generator: Adobe Illustrator 24.0.0, SVG Export Plug-In . SVG Version: 6.00 Build 0)  -->
<svg version="1.1" id="Layer_1" xmlns="http://www.w3.org/2000/svg" xmlns:xlink="http://www.w3.org/1999/xlink" x="0px" y="0px"
	 viewBox="0 0 512 512" style="enable-background:new 0 0 512 512;" xml:space="preserve">
<path d="M331,262.1l-0.1-13c0,0,21.7-19.8,21.1-21.2l-9.5-20c-0.6-1.4-29.5-0.5-29.5-0.5l-9.4-9.3c0,0,0.2-28.5-1.2-29.1l-20.1-9.2
	c-1.4-0.6-20.7,21-20.7,21l-13.1-0.2c0,0-20.5-21.4-21.9-20.8l-20,8.3c-1.4,0.5,0.2,28.9,0.2,28.9l-9.1,9.1c0,0-29.2-0.9-29.7,0.4
	l-8.1,19.8c-0.6,1.4,21,21,21,21l0.1,12.9c0,0-21.7,19.8-21.1,21.2l9.5,20c0.6,1.4,29.5,0.5,29.5,0.5l9.4,9.3c0,0-0.2,31.8,1.2,32.3
	l20.1,8.3c1.4,0.6,20.7-23.5,20.7-23.5l13.1,0.2c0,0,20.5,23.8,21.8,23.3l20-7.5c1.4-0.6-0.2-32.1-0.2-32.1l9.1-9.1
	c0,0,29.2,0.9,29.7-0.5l8.1-19.8C352.6,281.7,331,262.1,331,262.1L331,262.1z M286.1,253.4c0.7,17.1-12.8,31.6-30.1,32.4
	c-17.3,0.8-32.1-12.5-32.8-29.6s12.8-31.6,30.1-32.3C270.6,223.1,285.4,236.4,286.1,253.4z M487.3,215.5l-97-97l-0.1,0.1
	c-75.1-73.3-195.4-72.8-269.8,1.6c-50.9,51-27.8,27.9-95.7,95.3c-22.3,22.3-22.3,58.7,0,81c69.9,69.4,46.4,46,97.4,97l0.1-0.1
	c75.1,73.3,195.4,72.9,269.8-1.6c51-50.9,27.9-27.9,95.3-95.3C509.6,274.2,509.6,237.8,487.3,215.5z M148.4,363.8
	c-59.6-59.5-59.6-156,0-215.5c59.5-59.6,156-59.5,215.6,0c59.5,59.5,59.6,156,0,215.6C304.4,423.4,208,423.3,148.4,363.8z"/>
</svg>
