<?xml version="1.0" encoding="utf-8"?>
<!-- Generator: Adobe Illustrator 24.0.0, SVG Export Plug-In . SVG Version: 6.00 Build 0)  -->
<svg version="1.1" id="Layer_1" xmlns="http://www.w3.org/2000/svg" xmlns:xlink="http://www.w3.org/1999/xlink" x="0px" y="0px"
	 viewBox="0 0 512 512" style="enable-background:new 0 0 512 512;" xml:space="preserve">
<path d="M170.3,326.6c3-0.1,18.2-1.1,20.5-1.8c-1.9-2.1-34.9-0.8-54.4-39.7c-3.4-6.9-6-14.1-5.1-22.1c2.3-20.4,26.3-24,41.6-14.8
	c28.8,17.3,50.6,73,91,78c29.6,3.6,67.7-13.6,86.6-36.3c-0.5-0.1-0.6-0.2-0.8-0.1c-0.3,0.1-0.6,0.2-0.9,0.2
	c-26.6,9.7-75.4,7.8-107.8-11.8c-30.1-18.2-42.5-47-41.4-59.7c1.4-17,18.3-18.6,28.7-15.7c11.5,3.1,19.5,14.1,31.1,21.9
	c12.5,8.3,26.3,11,41,8.2c11.9-2.2,27.5-9.8,29.2-11.6c-0.9-0.1-1.4-0.1-2-0.2c-5-0.5-9.9-0.6-14.8-1.4
	c-89-13.2-103.1-130.9-202-138.5c-35.4-2.7-79.5,6.5-109,28c-0.6,0.5-1.2,1-1.8,1.4c0.1,0.2,0.1,0.2,0.2,0.4c0.6,0,1.3-0.1,1.9-0.2
	c5-0.8,10-0.6,15,0.2c19,3.4,38.2,18.5,44.7,61.2c4.2,27.4-0.6,40.6,6.4,68.9C83.4,303.2,141,327.6,170.3,326.6L170.3,326.6z
	 M60.2,103.1c-0.7-0.8-0.7-1-1-1.6c9.7-2.1,19.4-3.3,29.3-3.8C87.6,109.4,70.7,114.7,60.2,103.1z M217.8,383.5
	c-34.2,1-73.6-21.4-98.8-49.1c-3.7-4-13.4-16.2-14.9-18.7l0.3-0.3c5.3,3.3,20.6,14.9,43.8,21.6c19.4,5.6,38.5,5,57.3-2.6
	c18.2-7.4,32.8-0.4,34.5,2.3c-14.8,3-16.1,3.5-19.2,6.3c-4.1,3.5-3.7,9.4,5.6,13.8c21,9.9,50.4-2.2,77.8,20.3
	c1.9,1.6,6.5,6.2,8.1,8.6c-0.1,0.2-0.2,0.2-0.3,0.4c-3.8-1.2-13.1-6-32.2-7.4C260,377,242.7,382.8,217.8,383.5L217.8,383.5z
	 M357.6,181.9c13.1-4.2,33-10.7,53.2-2.6c12.9,5.2,21,15,25.7,27.7c2.8,7.5,4.1,15.8,4.1,23c-0.2,0-0.3,0-0.5,0.1
	c-0.2-0.3-0.3-0.7-0.4-1c-4-17.6-23.9-35-54.1-23.9c-40.2,14.9-104.3,7.8-141.5-38.4c-0.6-0.7-1.9-1.4-1-2.6c0.1-0.2,1.7,0.5,2.4,1
	c14.5,10.7,30.6,17.5,48.2,21C318.1,191,337.4,188.4,357.6,181.9L357.6,181.9z M439.8,275.9c-25.9,0.2-27,40.1-82.9,51.5
	c-14.6,3-31,3.7-35.9,3.4v-0.3c2.2-1.2,11.8-2.1,23.8-13.3c6.3-5.8,12.2-12.1,18.2-18.3c15.6-16.2,33.1-33.8,65.5-31.2
	c18.5,1.4,23.4,6.6,28.9,10.2c0.2,0.2,0.3,0.4,0.6,0.7c-0.4,0-0.6,0.1-0.7,0C451.6,276.4,445.8,275.9,439.8,275.9L439.8,275.9z
	 M429.9,256.6c-0.1,0.2-0.1,0.3-0.2,0.5c-23.1-3.5-38.4-6.3-54.8,3.2c-13.6,7.9-25.1,16.4-49.6,19.5c-21.7,2.7-36.1,1.9-52.9-6.4
	c-0.2-0.2-0.5-0.3-0.8-0.5c0-0.2,0.1-0.2,0.1-0.4c19.9,3,29.1,4.1,44.4-4.6c17.8-10.3,32.1-21.3,57-24.8
	C396.9,239.8,414.2,245.1,429.9,256.6z M214.9,129c-0.5-0.5-0.9-1-1.7-1.8c6.1,0,23.8-1,42.7,6.7c15.8,6.4,25.8,16.8,40.2,26.3
	c8.9,5.8,18.7,7.4,29.1,6.5c3.4-0.3,6.8-1,10.2-1.4c0.3-0.1,0.7,0,1.2,0.2c-0.5,0.3-1,0.7-1.4,1c-6.5,3.2-13.4,5-20.5,5.7
	c-20.9,2.1-40.2-3-58.7-12.3C240.6,152,226.9,141.6,214.9,129L214.9,129z M512,319.8c-2.8,2.5-18.2,9.3-34.2,4.2
	c-9.8-3.1-15.6-11.9-25.3-19.3c-8-6.1-16.7-6.3-22.5-6.7c0.5-0.6,0.7-1,1-1.1c11.8-7.4,24.4-9.8,37.8-5.2
	c10,3.4,15.4,10.8,24.3,19.4c8.6,8.3,16.8,7.9,18.5,8.4C511.8,319.4,511.8,319.4,512,319.8L512,319.8z M342,429.4
	c1.8,1,1.3,1.2,1.2,1.6c-14.8-1.1-27.1-6.1-37.4-17.8c-17.4-19.8-33.4-22.3-38.9-23.8c0.4-0.2,0.6-0.3,0.9-0.3
	c10.5,0.1,20.9,0.6,31.1,3.1c20.2,5.1,28,20.3,33.3,28.2C334.7,424.3,338,427.1,342,429.4L342,429.4z"/>
</svg>
