<?xml version="1.0" encoding="utf-8"?>
<!-- Generator: Adobe Illustrator 24.0.0, SVG Export Plug-In . SVG Version: 6.00 Build 0)  -->
<svg version="1.1" id="Layer_1" xmlns="http://www.w3.org/2000/svg" xmlns:xlink="http://www.w3.org/1999/xlink" x="0px" y="0px"
	 viewBox="0 0 512 512" style="enable-background:new 0 0 512 512;" xml:space="preserve">
<path d="M432,32H80c-26.5,0-48,21.5-48,48v352c0,26.5,21.5,48,48,48h352c26.5,0,48-21.5,48-48V80C480,53.5,458.5,32,432,32z
	 M415.6,339.4l-15,65C399,411.2,393,416,386,416C226,416,96,286.3,96,126c0.2-6.9,5-12.8,11.6-14.6l65-15c1.1-0.2,2.2-0.4,3.4-0.4
	c5.9,0.3,11.2,3.8,13.8,9.1l30,70c0.7,1.9,1.1,3.9,1.2,5.9c-0.2,4.4-2.2,8.6-5.5,11.6l-37.9,31c23,48.7,62.1,87.8,110.8,110.8
	l31-37.9c3-3.3,7.2-5.3,11.6-5.5c2,0.1,4,0.5,5.9,1.2l70,30c5.3,2.6,8.8,7.9,9.1,13.8C416,337.1,415.8,338.3,415.6,339.4z"/>
</svg>
