<?xml version="1.0" encoding="utf-8"?>
<!-- Generator: Adobe Illustrator 24.0.0, SVG Export Plug-In . SVG Version: 6.00 Build 0)  -->
<svg version="1.1" id="Layer_1" xmlns="http://www.w3.org/2000/svg" xmlns:xlink="http://www.w3.org/1999/xlink" x="0px" y="0px"
	 viewBox="0 0 512 512" style="enable-background:new 0 0 512 512;" xml:space="preserve">
<path d="M214.6,356.3l-39.7-48.5c-5.4-6.6-14.6-8.9-22.4-5.5l-89.6,38.4c-8.6,3.7-13.2,12.9-11.1,22L71,445.9
	c2,8.6,9.7,14.9,18.7,14.9c80.6,0,155-25.9,215.8-69.5l-64-49.4C232.7,347,223.8,352,214.6,356.3L214.6,356.3z M507,417.7l-127-98.1
	c50.2-63.3,80.7-142.9,80.7-230c0-9-6.2-16.7-14.9-18.7l-83.2-19.2c-9-2.1-18.3,2.6-22,11.1l-38.4,89.6c-3.4,7.8-1.1,17,5.5,22.4
	l48.5,39.7c-9.8,20.9-22.3,40.2-36.8,58.2L36.4,53.9c-5.6-4.3-13.6-3.4-18,2.2L2.7,76.3C-1.6,81.9-0.6,89.9,5,94.2L475.7,458
	c5.6,4.3,13.6,3.4,18-2.2l15.7-20.2C513.7,430.1,512.6,422,507,417.7L507,417.7z"/>
</svg>
