<?xml version="1.0" encoding="utf-8"?>
<!-- Generator: Adobe Illustrator 24.0.0, SVG Export Plug-In . SVG Version: 6.00 Build 0)  -->
<svg version="1.1" id="Layer_1" xmlns="http://www.w3.org/2000/svg" xmlns:xlink="http://www.w3.org/1999/xlink" x="0px" y="0px"
	 viewBox="0 0 512 512" style="enable-background:new 0 0 512 512;" xml:space="preserve">
<path d="M432,32H80c-26.5,0-48,21.5-48,48v352c0,26.5,21.5,48,48,48h352c26.5,0,48-21.5,48-48V80C480,53.5,458.5,32,432,32z
	 M126,416c-7,0-13.1-4.9-14.6-11.6l-15-65c-1.6-7.1,2-14.3,8.7-17.2l70-30c6.1-2.6,13.3-0.9,17.5,4.3l31,37.9
	c48.9-23,88.3-62.9,110.8-110.8l-37.9-31c-5.2-4.2-6.9-11.4-4.3-17.5l30-70c2.9-6.7,10.1-10.3,17.2-8.7l65,15
	C411.2,113,416,119,416,126C416,286.3,286.1,416,126,416z"/>
</svg>
