<?xml version="1.0" encoding="utf-8"?>
<!-- Generator: Adobe Illustrator 24.0.0, SVG Export Plug-In . SVG Version: 6.00 Build 0)  -->
<svg version="1.1" id="Layer_1" xmlns="http://www.w3.org/2000/svg" xmlns:xlink="http://www.w3.org/1999/xlink" x="0px" y="0px"
	 viewBox="0 0 512 512" style="enable-background:new 0 0 512 512;" xml:space="preserve">
<path d="M486.4,51.2H128c-14.1,0-25.6,11.5-25.6,25.6v76.8h128v-51.2H384v256h102.4c14.1,0,25.6-11.5,25.6-25.6v-256
	C512,62.7,500.5,51.2,486.4,51.2z M185.6,133.6c0,4-3.2,7.2-7.2,7.2l0,0h-24c-4,0-7.2-3.2-7.2-7.2l0,0v-24c0-4,3.2-7.2,7.2-7.2h24
	c4,0,7.2,3.2,7.2,7.2V133.6z M467.2,300c0,4-3.2,7.2-7.2,7.2h-24c-4,0-7.2-3.2-7.2-7.2v-24c0-4,3.2-7.2,7.2-7.2h24
	c4,0,7.2,3.2,7.2,7.2V300z M467.2,216.8c0,4-3.2,7.2-7.2,7.2h-24c-4,0-7.2-3.2-7.2-7.2v-24c0-4,3.2-7.2,7.2-7.2h24
	c4,0,7.2,3.2,7.2,7.2V216.8z M467.2,133.6c0,4-3.2,7.2-7.2,7.2l0,0h-24c-4,0-7.2-3.2-7.2-7.2l0,0v-24c0-4,3.2-7.2,7.2-7.2h24
	c4,0,7.2,3.2,7.2,7.2V133.6z M332.8,179.2H25.6C11.5,179.2,0,190.7,0,204.8v230.4c0,14.1,11.5,25.6,25.6,25.6h307.2
	c14.1,0,25.6-11.5,25.6-25.6V204.8C358.4,190.7,346.9,179.2,332.8,179.2z M76.8,230.4c14.1,0,25.6,11.5,25.6,25.6
	s-11.5,25.6-25.6,25.6S51.2,270.1,51.2,256S62.7,230.4,76.8,230.4z M307.2,409.6h-256V384l51.2-51.2l25.6,25.6L230.4,256l76.8,76.8
	V409.6z"/>
</svg>
