<?xml version="1.0" encoding="utf-8"?>
<!-- Generator: Adobe Illustrator 24.0.0, SVG Export Plug-In . SVG Version: 6.00 Build 0)  -->
<svg version="1.1" id="Layer_1" xmlns="http://www.w3.org/2000/svg" xmlns:xlink="http://www.w3.org/1999/xlink" x="0px" y="0px"
	 viewBox="0 0 512 512" style="enable-background:new 0 0 512 512;" xml:space="preserve">
<path d="M215.9,246.9c-2.9-1.8-5.7-2.6-9.2-2.6c-6,0-11.5,2.9-17.6,3.4l1.5,4.5L215.9,246.9z M339.7,427.2c-17.3,0-58.4,8.7-72.8,18
	l6.3,41.1c32.5,5.6,63.9,3.3,96.6-8.9C365.4,468.3,348.4,427.2,339.7,427.2z M304.1,184c6,2.6,10.5,8.4,20.7,20.1
	c1.8-1.3,6.8-4.7,6.8-7.8c0-4.5-10.8-12-12-21c10.2-5.2,23-5.5,34.3-8.1c62-14.9,106-48.2,133.7-106.3c5.6-11.5,10.8-23.5,11.3-36.4
	l-1.8,2.4C471.2,72.5,467,84.5,423,118.1c-29.1,22.2-63,36.6-97.1,49.7l-5.7-0.3v-19.9c-17.9,1.5-17.9-13.3-28.8-21
	c-17,18.8-28.8,37.2-53.7,46.6c-11.6,4.4-17.9,9.1-23.6,19.9C245.9,178.2,297.2,180.8,304.1,184L304.1,184z M499.7,22.8l-0.5,1
	l-0.3,0.8l0.5-0.5L499.7,22.8z M445.8,370.9C414.9,319,377.2,263,309.1,265.7l-0.3-5.5c-1-12.3,29.9,2.9,32-28.2l-13.1,6.6
	c-18-41.6-7.8-49.5-59.7-49.5c-13.4,0-24.3,1.5-37.7,4.2c2.6,16.9,2,33.4-9.9,45.8l17.8,5c-1.5,2.9-2.6,5.7-2.6,8.9
	c0,19.1,39,2.6,39,30.6c0,16.8-33.5,54.8-50,54.8c-7.3,0-48.9-45.6-48.6-54.8l0.3-4.2l47.6-10.5c11.8-2.4,11.2-20.7-2.6-20.7
	c-3.4,0-39.3,8.4-45,9.7c-1.8-4.7-6.8-12.8-12.6-12.8c-2.9,0-5.7,2.9-8.7,3.6c-8.4,2.4-28.2,2.6-19.6,18.3L8.1,294.7
	c-5,1-8.1,5.7-8.1,10.8c0,5.5,5,9.9,10.5,9.9c7.3,0,119.6-25.9,134.3-29.3c2.4,2.9,4.2,5.7,7.1,7.8c18.3,13.1,54.5,78.3,69.6,78.3
	c22,0,52.8-20.4,65-38.2c2.9-3.9,6.3-6.8,11.3-6.3c0.5,12.6-28.8,31.2-30.1,39.8c-1.3,9.3-0.9,32.1-0.3,37.4
	c24.3,7.4,47.4-3.3,71-2.6c3.9-19.1,9.7-38.2,8.9-57.9l-0.3-8.7c-1.3-31.2-9.9-35.1-31.7-53.4c-1-1-2.4-2.4-3.4-3.6
	c2-1.3,1-0.9,4.2-1.5c80.6,0,51.3,167.3,101.6,209.4c30.2-13.7,66-25.4,94.3-43C485.6,420.3,464.1,402,445.8,370.9L445.8,370.9z
	 M267,412.9v24.8l10.8-3.1l-2.6-21.7L267,412.9z M204.4,275.9l22,55.8l19.1-12.6L217,272.7L204.4,275.9z M281.3,417l1.8,11.3
	c8.2-1.4,53.2-6,53.2-12.8c0-1.3-0.5-2.9-0.8-4.2C311.1,411.2,301.9,414.7,281.3,417L281.3,417z"/>
</svg>
