<?xml version="1.0" encoding="utf-8"?>
<!-- Generator: Adobe Illustrator 24.0.0, SVG Export Plug-In . SVG Version: 6.00 Build 0)  -->
<svg version="1.1" id="Layer_1" xmlns="http://www.w3.org/2000/svg" xmlns:xlink="http://www.w3.org/1999/xlink" x="0px" y="0px"
	 viewBox="0 0 512 512" style="enable-background:new 0 0 512 512;" xml:space="preserve">
<path d="M512,71.1c-64.6,42.9-71.5,74-77.1,83.5c-5.4,9.8-9.4,48.2-18.6,66.9c-9.4,18.9-43.4,33.8-52.9,40
	c-9.4,6.2-22.6,30.5-33.5,51.4c-86.5-3.5-133.9,31-207.4,74.9c23.5-7.8,34.6-13.4,34.6-13.4c75.4-28.8,111.4-54.6,224.9-39.4
	c0.9,0,1.5,0.5,2.2,0.6c3.1,1.8,4.2,5.5,2.5,8.6l-43.1,76.6c-2,3.8-6.2,5.8-10.5,4.9c-101.4-19-181.5,13.8-255.1,14.9
	c-58.7,0.9-78-26.8-78-28.1c0-0.9,0.5-1.4,1.4-1.4c0,0,30.6,0,82.5-12.2c58.9-112.2,111.4-151.5,168.5-151.5c0,0,57.4,0,72.5,49.5
	c18.2-31.8,22.6-39.4,22.6-39.4c4.2-7.5,28-61.8,69.1-113.1C457.8,93.3,488.9,80.6,512,71.1L512,71.1z"/>
</svg>
