<?xml version="1.0" encoding="utf-8"?>
<!-- Generator: Adobe Illustrator 24.0.0, SVG Export Plug-In . SVG Version: 6.00 Build 0)  -->
<svg version="1.1" id="Layer_1" xmlns="http://www.w3.org/2000/svg" xmlns:xlink="http://www.w3.org/1999/xlink" x="0px" y="0px"
	 viewBox="0 0 512 512" style="enable-background:new 0 0 512 512;" xml:space="preserve">
<path d="M64,419l-32,60.2l0.8-328C32.8,85.3,86,32,152,32h327.2c-93,28.9-189.9,94.2-253.9,168.6C154.7,282,114.6,338,64,419
	 M480,32c0,0-142.8,66.8-186.4,167.1c-23.2,53.6-28.9,118.1-71,158.6c-28.9,27.8-69.8,38.2-105.3,56.3c-23.2,12-66.4,40.5-84.9,66
	h328.4c66,0,119.3-53.3,119.3-119.2C480,360.8,480,32,480,32L480,32z"/>
</svg>
