<?xml version="1.0" encoding="utf-8"?>
<!-- Generator: Adobe Illustrator 24.0.0, SVG Export Plug-In . SVG Version: 6.00 Build 0)  -->
<svg version="1.1" id="Layer_1" xmlns="http://www.w3.org/2000/svg" xmlns:xlink="http://www.w3.org/1999/xlink" x="0px" y="0px"
	 viewBox="0 0 512 512" style="enable-background:new 0 0 512 512;" xml:space="preserve">
<path d="M237.3,174.6c0,21.1-14.2,38.1-31.7,38.1c-7.1,0-12.8-1.2-17.2-3.7v-68c4.4-2.7,10.1-4.2,17.2-4.2
	C223.1,136.8,237.3,153.7,237.3,174.6L237.3,174.6z M289.9,241.6c-7.1,0-12.8,1.5-17.2,4.2v68c4.4,2.5,10.1,3.7,17.2,3.7
	c17.4,0,31.7-16.9,31.7-37.8C321.6,258.6,307.3,241.6,289.9,241.6z M480,80v352c0,26.5-21.5,48-48,48H80c-26.5,0-48-21.5-48-48V80
	c0-26.5,21.5-48,48-48h352C458.5,32,480,53.5,480,80z M217,255.1c41,0,74.2-35.6,74.2-79.6S258,95.9,217,95.9
	c-12,0-24.1,3.2-34.6,8.8h-45.7V311l51.8-10.1v-50.6C197.1,253.4,206.6,255.1,217,255.1L217,255.1z M375.4,280.4
	c0-44-33.2-79.6-73.9-79.6c-3.2,0-6.4,0.2-9.6,0.7c-3.7,12.5-10.1,23.8-19.2,33.4c-13.8,15-32.2,23.8-51.8,24.8V416l51.8-10.1v-50.6
	c8.6,3.2,18.2,4.7,28.7,4.7C342.2,360,375.4,324.4,375.4,280.4z"/>
</svg>
