<?xml version="1.0" encoding="utf-8"?>
<!-- Generator: Adobe Illustrator 24.0.0, SVG Export Plug-In . SVG Version: 6.00 Build 0)  -->
<svg version="1.1" id="Layer_1" xmlns="http://www.w3.org/2000/svg" xmlns:xlink="http://www.w3.org/1999/xlink" x="0px" y="0px"
	 viewBox="0 0 512 512" style="enable-background:new 0 0 512 512;" xml:space="preserve">
<path d="M471.9,23.2c-26.7,6.8-68.1,28.5-114.6,67.5C326.4,73.2,291.5,64,256,64C141.1,64,48,157.1,48,272s93.1,208,208,208
	s208-93.1,208-208c0.1-54.1-21-106.1-58.8-144.8c-6.6,8.5-12.3,17.7-17,27.4c28.9,32.3,44.8,74.1,44.9,117.4
	c0,97.7-79.4,177.1-177.1,177.1c-30.8,0-61-8.1-87.6-23.4c82.9-107.3,150.8-37.8,184.3-226.6c5.8-32.6,28-94.3,126.2-160.2
	C487,33.5,481.4,20.8,471.9,23.2z M141,406.4c-39.4-33.5-62.1-82.7-62.1-134.4c0-97.7,79.5-177.1,177.1-177.1
	c26.6,0,52.8,6.1,76.6,17.8C266.6,174.8,205.8,265.5,141,406.4z"/>
</svg>
