<?xml version="1.0" encoding="utf-8"?>
<!-- Generator: Adobe Illustrator 24.0.0, SVG Export Plug-In . SVG Version: 6.00 Build 0)  -->
<svg version="1.1" id="Layer_1" xmlns="http://www.w3.org/2000/svg" xmlns:xlink="http://www.w3.org/1999/xlink" x="0px" y="0px"
	 viewBox="0 0 512 512" style="enable-background:new 0 0 512 512;" xml:space="preserve">
<path d="M497.8,227.6h-26.2c-7.8-17.8-19.2-33.5-33.2-46.7l16.8-67.1h-28.4c-26.1,0-49.2,12-64.9,30.5c-6.8-1-13.4-2-20.4-2H227.6
	c-68.8,0-126.1,48.9-139.4,113.8H49.8c-13.2,0-23.6-12-20.9-25.6c2-10.1,11.5-17.1,21.8-17.1h0.9c2.9,0,5.3-2.4,5.3-5.3v-17.8
	c0-2.9-2.4-5.3-5.3-5.3c-25.3,0-47.9,18.1-51.1,43.2c-3.9,30.4,19.7,56.4,49.3,56.4h35.6c0,46.4,22.6,87.2,56.9,113.2v71.7
	c0,7.8,6.4,14.2,14.2,14.2h56.9c7.8,0,14.2-6.4,14.2-14.2v-42.7h113.8v42.7c0,7.8,6.4,14.2,14.2,14.2h56.9c7.8,0,14.2-6.4,14.2-14.2
	v-71.7c10.5-7.9,19.8-17.2,27.8-27.8h43.3c7.8,0,14.2-6.4,14.2-14.2V241.8C512,234,505.6,227.6,497.8,227.6z M384,284.4
	c-7.8,0-14.2-6.4-14.2-14.2S376.2,256,384,256s14.2,6.4,14.2,14.2S391.8,284.4,384,284.4z M227.6,113.8h113.8
	c4.8,0,9.5,0.4,14.1,0.7c0-0.3,0.1-0.4,0.1-0.7c0-47.1-38.2-85.3-85.3-85.3s-85.3,38.2-85.3,85.3c0,1.9,0.4,3.6,0.5,5.5
	C198.9,115.8,213,113.8,227.6,113.8z"/>
</svg>
