<?xml version="1.0" encoding="utf-8"?>
<!-- Generator: Adobe Illustrator 24.0.0, SVG Export Plug-In . SVG Version: 6.00 Build 0)  -->
<svg version="1.1" id="Layer_1" xmlns="http://www.w3.org/2000/svg" xmlns:xlink="http://www.w3.org/1999/xlink" x="0px" y="0px"
	 viewBox="0 0 512 512" style="enable-background:new 0 0 512 512;" xml:space="preserve">
<path d="M99.5,56.9c-55,0-99.6,44.5-99.6,99.6v199.1c0,55,44.5,99.6,99.6,99.6s99.6-44.5,99.6-99.6V156.4
	C199.1,101.4,154.6,56.9,99.5,56.9z M142.2,256H56.9v-99.6c0-23.6,19.1-42.7,42.7-42.7s42.7,19.1,42.7,42.7V256z M266.4,229.6
	c-3.1-3.1-8.4-2.8-10.9,0.7c-40.3,55.6-35.9,133.4,14.1,183.5s127.9,54.4,183.5,14.1c3.6-2.6,3.8-7.8,0.7-10.9L266.4,229.6z
	 M470.7,212.7c-50-50-127.9-54.4-183.5-14.1c-3.6,2.6-3.8,7.8-0.7,10.9l187.4,187.4c3.1,3.1,8.4,2.8,10.9-0.7
	C525.1,340.5,520.8,262.8,470.7,212.7L470.7,212.7z"/>
</svg>
