<?xml version="1.0" encoding="utf-8"?>
<!-- Generator: Adobe Illustrator 24.0.0, SVG Export Plug-In . SVG Version: 6.00 Build 0)  -->
<svg version="1.1" id="Layer_1" xmlns="http://www.w3.org/2000/svg" xmlns:xlink="http://www.w3.org/1999/xlink" x="0px" y="0px"
	 viewBox="0 0 512 512" style="enable-background:new 0 0 512 512;" xml:space="preserve">
<path d="M268,6.5C165.4,6.5,64,74.9,64,185.6C64,256,103.6,296,127.6,296c9.9,0,15.6-27.6,15.6-35.4c0-9.3-23.7-29.1-23.7-67.8
	c0-80.4,61.2-137.4,140.4-137.4c68.1,0,118.5,38.7,118.5,109.8c0,53.1-21.3,152.7-90.3,152.7c-24.9,0-46.2-18-46.2-43.8
	c0-37.8,26.4-74.4,26.4-113.4c0-66.2-93.9-54.2-93.9,25.8c0,16.8,2.1,35.4,9.6,50.7c-13.8,59.4-42,147.9-42,209.1
	c0,18.9,2.7,37.5,4.5,56.4c3.4,3.8,1.7,3.4,6.9,1.5c50.4-69,48.6-82.5,71.4-172.8c12.3,23.4,44.1,36,69.3,36
	c106.2,0,153.9-103.5,153.9-196.8C448,71.3,362.2,6.5,268,6.5z"/>
</svg>
