<?xml version="1.0" encoding="utf-8"?>
<!-- Generator: Adobe Illustrator 24.0.0, SVG Export Plug-In . SVG Version: 6.00 Build 0)  -->
<svg version="1.1" id="Layer_1" xmlns="http://www.w3.org/2000/svg" xmlns:xlink="http://www.w3.org/1999/xlink" x="0px" y="0px"
	 viewBox="0 0 512 512" style="enable-background:new 0 0 512 512;" xml:space="preserve">
<path d="M496.5,344.4l-86.9-37.2v153.6h89.6c7.1,0,12.8-5.7,12.8-12.8v-80C512,357.7,505.9,348.5,496.5,344.4z M0,368v80
	c0,7.1,5.7,12.8,12.8,12.8h89.6V307.2l-86.9,37.2C6.1,348.5,0,357.7,0,368z M371.6,248.5l-38.8-23.3v-92c0-6.8-2.7-13.3-7.5-18.1
	L265,55c-5-5-13.1-5-18.1,0l-60.2,60.2c-4.8,4.8-7.5,11.3-7.5,18.1v92l-38.8,23.3c-7.7,4.6-12.4,13-12.4,22v190.3h76.8V384
	c0-28.3,22.9-51.2,51.2-51.2s51.2,22.9,51.2,51.2v76.8H384V270.5C384,261.5,379.3,253.2,371.6,248.5z"/>
</svg>
