<?xml version="1.0" encoding="utf-8"?>
<!-- Generator: Adobe Illustrator 24.0.0, SVG Export Plug-In . SVG Version: 6.00 Build 0)  -->
<svg version="1.1" id="Layer_1" xmlns="http://www.w3.org/2000/svg" xmlns:xlink="http://www.w3.org/1999/xlink" x="0px" y="0px"
	 viewBox="0 0 512 512" style="enable-background:new 0 0 512 512;" xml:space="preserve">
<path d="M499.2,409.6H12.8c-7.1,0-12.8,5.7-12.8,12.8V448c0,7.1,5.7,12.8,12.8,12.8h486.4c7.1,0,12.8-5.7,12.8-12.8v-25.6
	C512,415.3,506.3,409.6,499.2,409.6z M35.8,215.7l71,64c5.8,5.3,12.8,9.1,20.4,11.1l230.1,62.7c21.2,5.8,43.6,7,64.8,1.1
	c23.7-6.6,34.8-17,37.8-28.6c3.1-11.6-1.4-26.2-18.7-44c-15.4-15.9-35.5-26.2-56.7-32l-78-21.2L226.2,75.4c-1.2-4.6-4.8-8.3-9.3-9.5
	l-52.1-14.2c-8.4-2.3-16.7,4.3-16.6,13.2l38.3,131.4l-81.8-22.3l-22.1-54.3c-1.5-3.9-4.8-6.9-8.8-7.9L42.2,103
	c-8.3-2.3-16.4,4-16.6,12.7l0.2,81.4C25.9,204.3,30.6,211,35.8,215.7z"/>
</svg>
