<?xml version="1.0" encoding="utf-8"?>
<!-- Generator: Adobe Illustrator 24.0.0, SVG Export Plug-In . SVG Version: 6.00 Build 0)  -->
<svg version="1.1" id="Layer_1" xmlns="http://www.w3.org/2000/svg" xmlns:xlink="http://www.w3.org/1999/xlink" x="0px" y="0px"
	 viewBox="0 0 512 512" style="enable-background:new 0 0 512 512;" xml:space="preserve">
<path d="M499.2,412.8H12.8c-7.1,0-12.8,5.7-12.8,12.8v25.6c0,7.1,5.7,12.8,12.8,12.8h486.4c7.1,0,12.8-5.7,12.8-12.8v-25.6
	C512,418.5,506.3,412.8,499.2,412.8z M64.4,327.4c5,5.5,12.1,8.6,19.5,8.6l104.4-0.1c8.2,0,16.4-2,23.7-5.7L444.8,212
	c21.4-10.9,40.6-26.4,53.6-46.6c14.6-22.8,16.2-39.3,10.5-50.9c-5.8-11.7-19.8-20.2-46.6-22c-23.9-1.6-47.6,4.7-69,15.6l-78.8,40
	l-175-65.6c-4.3-2.9-9.8-3.2-14.4-0.9l-52.6,26.7c-8.5,4.3-10.6,15.7-4.1,22.8l125,78.5l-82.6,41.9l-57.9-29.2c-4-2-8.8-2-12.9,0
	L7.9,238.6c-8.4,4.2-10.6,15.3-4.5,22.5C3.5,261,64.4,327.4,64.4,327.4z"/>
</svg>
