<?xml version="1.0" encoding="utf-8"?>
<!-- Generator: Adobe Illustrator 24.0.0, SVG Export Plug-In . SVG Version: 6.00 Build 0)  -->
<svg version="1.1" id="Layer_1" xmlns="http://www.w3.org/2000/svg" xmlns:xlink="http://www.w3.org/1999/xlink" x="0px" y="0px"
	 viewBox="0 0 512 512" style="enable-background:new 0 0 512 512;" xml:space="preserve">
<path d="M26,169.5L51.2,256L26,342.5c-1.7,6.9,2.5,13.8,9.3,15.5c1,0.3,2,0.4,3.1,0.4h32c4,0,7.8-1.9,10.2-5.1l34.6-46.1h82.3
	l-39.2,137.3c-1.9,6.8,2,13.9,8.8,15.8c1.1,0.3,2.3,0.5,3.5,0.5H223c4.6,0,8.8-2.5,11.1-6.4l53.3-93.2L27.5,160.3
	C25.8,163,25.3,166.4,26,169.5z M507.1,417.7L364.1,307.2h45.5c28.3,0,76.8-22.9,76.8-51.2s-48.5-51.2-76.8-51.2h-91.4L234.1,57.7
	c-2-3.6-7-6.4-11.1-6.4h-52.4c-7.1,0-12.8,5.7-12.8,12.8c0,1.2,0.2,2.4,0.5,3.5l29.6,103.4L36.4,53.9c-5.6-4.3-13.6-3.3-18,2.2
	c0,0,0,0,0,0L2.7,76.4c-4.3,5.6-3.3,13.6,2.2,18c0,0,0,0,0,0l470.7,363.8c5.6,4.3,13.6,3.3,18-2.2c0,0,0,0,0,0l15.7-20.2
	C513.6,430.1,512.6,422,507.1,417.7C507.1,417.7,507.1,417.7,507.1,417.7z"/>
</svg>
