<?xml version="1.0" encoding="utf-8"?>
<!-- Generator: Adobe Illustrator 24.0.0, SVG Export Plug-In . SVG Version: 6.00 Build 0)  -->
<svg version="1.1" id="Layer_1" xmlns="http://www.w3.org/2000/svg" xmlns:xlink="http://www.w3.org/1999/xlink" x="0px" y="0px"
	 viewBox="0 0 512 512" style="enable-background:new 0 0 512 512;" xml:space="preserve">
<path d="M507.5,359.2c-10,12.6-34.5,21.6-34.5,21.6l-182.3,65.4v-48.3l134.1-47.8c15.2-5.4,17.6-13.2,5.2-17.2
	c-12.4-4.1-34.8-2.9-50,2.6L290.7,367v-50.1c20.6-6.9,41.9-12.1,67.3-14.9c36.4-4,80.8,0.5,115.7,13.8
	C513,328.2,517.4,346.6,507.5,359.2L507.5,359.2z M308,277V153.4c0-14.5-2.7-27.8-16.3-31.6c-10.4-3.4-16.9,6.3-16.9,20.8v309.2
	l-83.4-26.5V56.7c35.5,6.6,87.1,22.1,114.8,31.5c70.7,24.3,94.6,54.5,94.6,122.5C400.9,276.9,360,302,308,277L308,277z M38.4,392.9
	c-40.4-11.4-47.1-35.1-28.7-48.7c17-12.6,46-22.1,46-22.1l119.6-42.5V328l-86,30.8C74,364.2,71.7,371.9,84,376s34.8,2.9,50-2.6
	l41.2-15v43.4C129.3,410,85.1,408.2,38.4,392.9L38.4,392.9z"/>
</svg>
