<?xml version="1.0" encoding="utf-8"?>
<!-- Generator: Adobe Illustrator 24.0.0, SVG Export Plug-In . SVG Version: 6.00 Build 0)  -->
<svg version="1.1" id="Layer_1" xmlns="http://www.w3.org/2000/svg" xmlns:xlink="http://www.w3.org/1999/xlink" x="0px" y="0px"
	 viewBox="0 0 512 512" style="enable-background:new 0 0 512 512;" xml:space="preserve">
<path d="M384,32c0-17.7-14.3-32-32-32s-32,14.3-32,32v96h64V32z M432,160H80c-8.8,0-16,7.2-16,16v32c0,8.8,7.2,16,16,16h16v32
	c0,76,53.5,141.6,128,156.8V512h64v-99.2C362.5,397.6,416,332,416,256v-32h16c8.8,0,16-7.2,16-16v-32C448,167.2,440.8,160,432,160z
	 M192,32c0-17.7-14.3-32-32-32s-32,14.3-32,32v96h64V32z"/>
</svg>
