<?xml version="1.0" encoding="utf-8"?>
<!-- Generator: Adobe Illustrator 24.0.0, SVG Export Plug-In . SVG Version: 6.00 Build 0)  -->
<svg version="1.1" id="Layer_1" xmlns="http://www.w3.org/2000/svg" xmlns:xlink="http://www.w3.org/1999/xlink" x="0px" y="0px"
	 viewBox="0 0 512 512" style="enable-background:new 0 0 512 512;" xml:space="preserve">
<path d="M448,208H304V64c0-17.7-14.3-32-32-32h-32c-17.7,0-32,14.3-32,32v144H64c-17.7,0-32,14.3-32,32v32c0,17.7,14.3,32,32,32h144
	v144c0,17.7,14.3,32,32,32h32c17.7,0,32-14.3,32-32V304h144c17.7,0,32-14.3,32-32v-32C480,222.3,465.7,208,448,208z"/>
</svg>
