<?xml version="1.0" encoding="utf-8"?>
<!-- Generator: Adobe Illustrator 24.0.0, SVG Export Plug-In . SVG Version: 6.00 Build 0)  -->
<svg version="1.1" id="Layer_1" xmlns="http://www.w3.org/2000/svg" xmlns:xlink="http://www.w3.org/1999/xlink" x="0px" y="0px"
	 viewBox="0 0 512 512" style="enable-background:new 0 0 512 512;" xml:space="preserve">
<path d="M299.4,488.6c-5.1,19-24.6,23.4-43.4,23.4c-18.9,0-38.3-4.4-43.4-23.4c-7.6-28.4-20.6-99.7-20.6-132.8
	c0-35.2,31.1-43.8,64-43.8s64,8.6,64,43.8C320,388.7,307.1,459.9,299.4,488.6L299.4,488.6z M188.9,288.6
	c-18.7-18.3-30-44.2-28.8-72.6c2.1-49.7,42.4-90,92.1-91.9C306.9,122,352,165.8,352,220c0,26.8-11.1,51.1-28.9,68.6
	c-2.7,2.6-2.4,7,0.6,9.2c9.3,6.8,16.5,15.3,21.2,25.4c1.7,3.7,6.5,4.7,9.4,1.9c28.8-27,46.6-65.8,45.5-108.6
	c-1.9-76.2-63.6-138.2-139.8-140.4C178.9,73.8,112,139.2,112,220c0,41.4,17.5,78.7,45.6,105c3,2.8,7.7,1.8,9.5-1.9
	c4.8-10,11.9-18.6,21.2-25.4C191.3,295.5,191.5,291.2,188.9,288.6L188.9,288.6z M256,0C132.2,0,32,100.2,32,224
	c0,90,52.6,165.6,125.7,201.4c4.3,2.1,9.3-1.5,8.5-6.3c-2.4-15.5-4.3-30.9-5.4-44.3c-0.1-1.8-1.1-3.5-2.7-4.5
	c-47.4-31.8-78.6-86-78.2-147.3C80.6,126.7,159.3,48.3,255.5,48C352.8,47.7,432,126.8,432,224c0,61.9-32.2,116.5-80.6,147.9
	c-1,14-3.1,30.6-5.6,47.2c-0.7,4.8,4.2,8.4,8.5,6.3C427.2,389.7,480,314.2,480,224C480,100.2,379.8,0,256,0z M256,160
	c-35.3,0-64,28.7-64,64s28.7,64,64,64s64-28.7,64-64S291.3,160,256,160z"/>
</svg>
