<?xml version="1.0" encoding="utf-8"?>
<!-- Generator: Adobe Illustrator 24.0.0, SVG Export Plug-In . SVG Version: 6.00 Build 0)  -->
<svg version="1.1" id="Layer_1" xmlns="http://www.w3.org/2000/svg" xmlns:xlink="http://www.w3.org/1999/xlink" x="0px" y="0px"
	 viewBox="0 0 512 512" style="enable-background:new 0 0 512 512;" xml:space="preserve">
<path d="M480,432V80c0-26.5-21.5-48-48-48H80c-26.5,0-48,21.5-48,48v352c0,26.5,21.5,48,48,48h352C458.5,480,480,458.5,480,432z
	 M144,192c-8.8,0-16-7.2-16-16v-32c0-8.8,7.2-16,16-16h128c8.8,0,16,7.2,16,16v32c0,8.8-7.2,16-16,16H144z M144,288
	c-8.8,0-16-7.2-16-16v-32c0-8.8,7.2-16,16-16h224c8.8,0,16,7.2,16,16v32c0,8.8-7.2,16-16,16H144z M144,384c-8.8,0-16-7.2-16-16v-32
	c0-8.8,7.2-16,16-16h64c8.8,0,16,7.2,16,16v32c0,8.8-7.2,16-16,16H144z"/>
</svg>
