<?xml version="1.0" encoding="utf-8"?>
<!-- Generator: Adobe Illustrator 24.0.0, SVG Export Plug-In . SVG Version: 6.00 Build 0)  -->
<svg version="1.1" id="Layer_1" xmlns="http://www.w3.org/2000/svg" xmlns:xlink="http://www.w3.org/1999/xlink" x="0px" y="0px"
	 viewBox="0 0 512 512" style="enable-background:new 0 0 512 512;" xml:space="preserve">
<path d="M400,0H112C85.5,0,64,21.5,64,48v416c0,26.5,21.5,48,48,48h288c26.5,0,48-21.5,48-48V48C448,21.5,426.5,0,400,0z M256,128
	c35.3,0,64,28.7,64,64s-28.7,64-64,64s-64-28.7-64-64S220.7,128,256,128z M368,364.8c0,10.6-10,19.2-22.4,19.2H166.4
	c-12.4,0-22.4-8.6-22.4-19.2v-19.2c0-31.8,30.1-57.6,67.2-57.6h5c12.3,5.1,25.7,8,39.8,8s27.6-2.9,39.8-8h5
	c37.1,0,67.2,25.8,67.2,57.6V364.8z"/>
</svg>
