<?xml version="1.0" encoding="utf-8"?>
<!-- Generator: Adobe Illustrator 24.0.0, SVG Export Plug-In . SVG Version: 6.00 Build 0)  -->
<svg version="1.1" id="Layer_1" xmlns="http://www.w3.org/2000/svg" xmlns:xlink="http://www.w3.org/1999/xlink" x="0px" y="0px"
	 viewBox="0 0 512 512" style="enable-background:new 0 0 512 512;" xml:space="preserve">
<path d="M404,352h-45.5c-6.6,0-12,5.4-12,12v50.8H224V288h84c6.6,0,12-5.4,12-12v-40c0-6.6-5.4-12-12-12h-84v-63.6
	c0-32.3,24.6-57.1,61.8-57.1c23.7,0,45.9,11.5,57.7,18.8c5.2,3.2,11.9,2.1,15.7-2.7L387.6,84c4.2-5.3,3.3-13-2.1-17.1
	C369.1,54.6,332.6,32,283.9,32C202,32,144,84.7,144,158v66h-28c-6.6,0-12,5.4-12,12v40c0,6.6,5.4,12,12,12h28v128h-36
	c-6.6,0-12,5.4-12,12v40c0,6.6,5.4,12,12,12h296c6.6,0,12-5.4,12-12V364C416,357.4,410.6,352,404,352z"/>
</svg>
