<?xml version="1.0" encoding="utf-8"?>
<!-- Generator: Adobe Illustrator 24.0.0, SVG Export Plug-In . SVG Version: 6.00 Build 0)  -->
<svg version="1.1" id="Layer_1" xmlns="http://www.w3.org/2000/svg" xmlns:xlink="http://www.w3.org/1999/xlink" x="0px" y="0px"
	 viewBox="0 0 512 512" style="enable-background:new 0 0 512 512;" xml:space="preserve">
<path d="M320,128c35.4,0,64-28.7,64-64S355.4,0,320,0s-64,28.6-64,64S284.6,128,320,128z M289.4,297.8c14.1,16.7,39,19.1,56,5.2
	l88-72c17.1-14,19.6-39.2,5.6-56.3c-14-17.1-39.2-19.6-56.3-5.6l-57.4,47l-38.9-46.3c-15.4-18.4-39.2-27.9-64-25.3
	c-24.2,2.5-45.3,16.3-56.4,36.9l-49.4,92c-23.4,43.6-8.7,96.4,34.2,123.8l44.8,34.9H104c-22.1,0-40,17.9-40,40s17.9,40,40,40h208
	c34.1,0,53.8-42.8,28.3-68.3L230.4,333.9l34.8-64.9L289.4,297.8z"/>
</svg>
