<?xml version="1.0" encoding="utf-8"?>
<!-- Generator: Adobe Illustrator 24.0.0, SVG Export Plug-In . SVG Version: 6.00 Build 0)  -->
<svg version="1.1" id="Layer_1" xmlns="http://www.w3.org/2000/svg" xmlns:xlink="http://www.w3.org/1999/xlink" x="0px" y="0px"
	 viewBox="0 0 512 512" style="enable-background:new 0 0 512 512;" xml:space="preserve">
<path d="M217.6,204.7c-14.1,0-25.6,11.5-25.6,25.6v64c0,7.1-5.7,12.8-12.8,12.8c-7.1,0-12.8-5.7-12.8-12.8v-61.2
	c0-13.9,3.8-27.6,11-39.5l62.2-103.7c7.3-12.1,3.4-27.8-8.8-35.1c-11.6-6.9-26.2-3.4-33.8,7.4c-0.2,0.2-0.5,0.2-0.6,0.4l-93.8,140.7
	c-8.4,12.7-12.9,27.4-12.9,42.6V310l-72.1,24C7,337.5,0,347.3,0,358.3v76.8c0,8.7,6.8,25.6,25.6,25.6c2.2,0,4.3-0.3,6.4-0.8
	l143.4-37.3c39.9-11.4,67.8-48.4,67.8-89.9V230.3C243.2,216.2,231.7,204.7,217.6,204.7z M494.5,334.1l-72.1-24v-64.2
	c0-15.2-4.4-29.9-12.9-42.6L315.7,62.6c-0.1-0.2-0.5-0.2-0.6-0.4c-7.7-10.8-22.3-14.3-33.8-7.4c-12.1,7.3-16,23-8.8,35.1l62.2,103.7
	c7.2,11.9,11,25.6,11,39.5v61.2c0,7.1-5.7,12.8-12.8,12.8c-7.1,0-12.8-5.7-12.8-12.8v-64c0-14.1-11.5-25.6-25.6-25.6
	c-14.1,0-25.6,11.5-25.6,25.6v102.4c0,41.5,27.9,78.5,67.8,89.9L480,460c2.1,0.6,4.3,0.8,6.4,0.8c18.8,0,25.6-16.9,25.6-25.6v-76.8
	C512,347.4,505,337.6,494.5,334.1L494.5,334.1z"/>
</svg>
