<?xml version="1.0" encoding="utf-8"?>
<!-- Generator: Adobe Illustrator 24.0.0, SVG Export Plug-In . SVG Version: 6.00 Build 0)  -->
<svg version="1.1" id="Layer_1" xmlns="http://www.w3.org/2000/svg" xmlns:xlink="http://www.w3.org/1999/xlink" x="0px" y="0px"
	 viewBox="0 0 512 512" style="enable-background:new 0 0 512 512;" xml:space="preserve">
<path d="M96,192h120c4.4,0,8,3.6,8,8v16c0,4.4-3.6,8-8,8H96v64h120c4.4,0,8,3.6,8,8v16c0,4.4-3.6,8-8,8H96v64h120c4.4,0,8,3.6,8,8
	v16c0,4.4-3.6,8-8,8H96v64c0,17.6,14.4,32,32,32h256c17.6,0,32-14.4,32-32V128H96V192z M424,0H88C74.8,0,64,10.8,64,24v48
	c0,13.2,10.8,24,24,24h336c13.2,0,24-10.8,24-24V24C448,10.8,437.2,0,424,0z"/>
</svg>
