<?xml version="1.0" encoding="utf-8"?>
<!-- Generator: Adobe Illustrator 24.0.0, SVG Export Plug-In . SVG Version: 6.00 Build 0)  -->
<svg version="1.1" id="Layer_1" xmlns="http://www.w3.org/2000/svg" xmlns:xlink="http://www.w3.org/1999/xlink" x="0px" y="0px"
	 viewBox="0 0 512 512" style="enable-background:new 0 0 512 512;" xml:space="preserve">
<path d="M424,0H88C74.8,0,64,10.8,64,24v48c0,13.2,10.8,24,24,24h336c13.2,0,24-10.8,24-24V24C448,10.8,437.2,0,424,0z M96,480
	c0,17.6,14.4,32,32,32h256c17.6,0,32-14.4,32-32V128H96V480z M160,296c0-4.4,3.6-8,8-8h56v-56c0-4.4,3.6-8,8-8h48c4.4,0,8,3.6,8,8
	v56h56c4.4,0,8,3.6,8,8v48c0,4.4-3.6,8-8,8h-56v56c0,4.4-3.6,8-8,8h-48c-4.4,0-8-3.6-8-8v-56h-56c-4.4,0-8-3.6-8-8V296z"/>
</svg>
