<?xml version="1.0" encoding="utf-8"?>
<!-- Generator: Adobe Illustrator 24.0.0, SVG Export Plug-In . SVG Version: 6.00 Build 0)  -->
<svg version="1.1" id="Layer_1" xmlns="http://www.w3.org/2000/svg" xmlns:xlink="http://www.w3.org/1999/xlink" x="0px" y="0px"
	 viewBox="0 0 512 512" style="enable-background:new 0 0 512 512;" xml:space="preserve">
<path d="M365.3,352l78.1-78.1c6.3-6.3,6.3-16.4,0-22.6l-22.6-22.6c-6.3-6.3-16.4-6.3-22.6,0L320,306.7l-84-84
	c47.3-6,84-45.9,84-94.8c0-53-43-96-96-96H80c-8.8,0-16,7.2-16,16v256c0,8.8,7.2,16,16,16h32c8.8,0,16-7.2,16-16v-80h18.8l128,128
	l-78.1,78.1c-6.3,6.3-6.3,16.4,0,22.6l22.6,22.6c6.3,6.3,16.4,6.3,22.6,0l78-78.1l78.1,78.1c6.3,6.3,16.4,6.3,22.6,0l22.6-22.6
	c6.3-6.3,6.3-16.4,0-22.6L365.3,352z M128,96h96c17.6,0,32,14.4,32,32s-14.4,32-32,32h-96V96z"/>
</svg>
