<?xml version="1.0" encoding="utf-8"?>
<!-- Generator: Adobe Illustrator 24.0.0, SVG Export Plug-In . SVG Version: 6.00 Build 0)  -->
<svg version="1.1" id="Layer_1" xmlns="http://www.w3.org/2000/svg" xmlns:xlink="http://www.w3.org/1999/xlink" x="0px" y="0px"
	 viewBox="0 0 512 512" style="enable-background:new 0 0 512 512;" xml:space="preserve">
<path d="M422.4,230.4H217.6c-7,0-12.8,5.8-12.8,12.8v115.2H51.2v-192c0-7-5.8-12.8-12.8-12.8H12.8c-7,0-12.8,5.8-12.8,12.8V448
	c0,7,5.8,12.8,12.8,12.8h25.6c7,0,12.8-5.8,12.8-12.8v-38.4h409.6V448c0,7,5.8,12.8,12.8,12.8h25.6c7,0,12.8-5.8,12.8-12.8V320
	C512,270.5,471.9,230.4,422.4,230.4z M108.8,128h100.9l22.1,44.2c4.7,9.4,18.2,9.4,22.9,0l39.8-79.5l17.7,35.4h97.5
	c7,0,12.8-5.8,12.8-12.8s-5.8-12.8-12.8-12.8h-81.7l-22.1-44.2c-4.7-9.4-18.2-9.4-22.9,0l-39.8,79.5l-15.9-31.8
	c-1.1-2.2-3.3-3.5-5.8-3.5H108.8c-3.5,0-6.4,2.9-6.4,6.4v12.8C102.4,125.1,105.3,128,108.8,128z M128,332.8
	c28.2,0,51.2-23,51.2-51.2s-23-51.2-51.2-51.2s-51.2,23-51.2,51.2S99.8,332.8,128,332.8z"/>
</svg>
