<?xml version="1.0" encoding="utf-8"?>
<!-- Generator: Adobe Illustrator 24.0.0, SVG Export Plug-In . SVG Version: 6.00 Build 0)  -->
<svg version="1.1" id="Layer_1" xmlns="http://www.w3.org/2000/svg" xmlns:xlink="http://www.w3.org/1999/xlink" x="0px" y="0px"
	 viewBox="0 0 512 512" style="enable-background:new 0 0 512 512;" xml:space="preserve">
<path d="M307.2,307.2H204.8c-14.1,0-25.6,11.5-25.6,25.6v102.4c0,14.1,11.5,25.6,25.6,25.6h102.4c14.1,0,25.6-11.5,25.6-25.6V332.8
	C332.8,318.7,321.3,307.2,307.2,307.2z M153.6,76.8c0-14.1-11.5-25.6-25.6-25.6H25.6C11.5,51.2,0,62.7,0,76.8v102.4
	c0,14.1,11.5,25.6,25.6,25.6h76.6l58.5,102.4c8.9-15.2,25.2-25.6,44.1-25.6h0.2l-51.4-90v-38h179.2v-51.2H153.6V76.8z M486.4,51.2
	H384c-14.1,0-25.6,11.5-25.6,25.6v102.4c0,14.1,11.5,25.6,25.6,25.6h102.4c14.1,0,25.6-11.5,25.6-25.6V76.8
	C512,62.7,500.5,51.2,486.4,51.2z"/>
</svg>
