<?xml version="1.0" encoding="utf-8"?>
<!-- Generator: Adobe Illustrator 24.0.0, SVG Export Plug-In . SVG Version: 6.00 Build 0)  -->
<svg version="1.1" id="Layer_1" xmlns="http://www.w3.org/2000/svg" xmlns:xlink="http://www.w3.org/1999/xlink" x="0px" y="0px"
	 viewBox="0 0 512 512" style="enable-background:new 0 0 512 512;" xml:space="preserve">
<path d="M299.6,160H148.4c-33.1,0-60.7,25.2-63.7,58.2l-20.4,224c-3.2,35.2,22.7,66.3,57.9,69.5c1.9,0.2,3.9,0.3,5.8,0.3h192
	c35.3,0,64-28.7,64-64c0-1.9-0.1-3.9-0.3-5.8l-20.4-224C360.4,185.2,332.7,160,299.6,160z M224,416c-33.1,0-60-26.3-60-58.8
	c0-25,35.7-75.5,52-97.3c3.3-4.4,9.6-5.3,14-2c0.8,0.6,1.4,1.2,2,2c16.3,21.8,52,72.3,52,97.3C284,389.7,257.1,416,224,416z
	 M443.3,94.1L400,50.7c-12-12-28.3-18.7-45.3-18.7H288c0-17.7-14.3-32-32-32h-64c-17.7,0-32,14.3-32,32v96h128V96h66.8l43.3,43.3
	c6.2,6.2,16.4,6.3,22.6,0c0,0,0,0,0,0l22.6-22.6C449.6,110.4,449.6,100.3,443.3,94.1C443.3,94.1,443.3,94.1,443.3,94.1z"/>
</svg>
