<?xml version="1.0" encoding="utf-8"?>
<!-- Generator: Adobe Illustrator 24.0.0, SVG Export Plug-In . SVG Version: 6.00 Build 0)  -->
<svg version="1.1" id="Layer_1" xmlns="http://www.w3.org/2000/svg" xmlns:xlink="http://www.w3.org/1999/xlink" x="0px" y="0px"
	 viewBox="0 0 512 512" style="enable-background:new 0 0 512 512;" xml:space="preserve">
<path d="M299.5,159.8H148.2c-33.1,0-60.7,25.2-63.7,58.2L64.1,442c-3.2,35.2,22.7,66.3,57.9,69.5c1.9,0.2,3.9,0.3,5.8,0.3h192
	c35.3,0,64-28.7,64-64c0-1.9-0.1-3.9-0.3-5.8l-20.4-224C360.2,185,332.6,159.8,299.5,159.8z M303.9,333.2c0,7.4-6,13.3-13.3,13.3
	h-40v40c0,7.4-6,13.3-13.3,13.3h-26.7c-7.4,0-13.3-6-13.3-13.3v-40h-40c-7.4,0-13.3-6-13.3-13.3v-26.7c0-7.4,6-13.3,13.3-13.3
	c0,0,0,0,0,0h40v-40c0-7.4,6-13.3,13.3-13.3l0,0h26.7c7.4,0,13.3,6,13.3,13.3l0,0v40h40c7.4,0,13.3,6,13.3,13.3V333.2z M443.2,93.9
	l-43.3-43.3c-12-12-28.3-18.7-45.2-18.7h-66.8c0-17.7-14.3-32-32-32h-64c-17.7,0-32,14.3-32,32v96h128v-32h66.8l43.3,43.3
	c6.2,6.2,16.4,6.3,22.6,0c0,0,0,0,0,0l22.6-22.6C449.4,110.3,449.4,100.1,443.2,93.9C443.2,93.9,443.2,93.9,443.2,93.9z"/>
</svg>
