<?xml version="1.0" encoding="utf-8"?>
<!-- Generator: Adobe Illustrator 24.0.0, SVG Export Plug-In . SVG Version: 6.00 Build 0)  -->
<svg version="1.1" id="Layer_1" xmlns="http://www.w3.org/2000/svg" xmlns:xlink="http://www.w3.org/1999/xlink" x="0px" y="0px"
	 viewBox="0 0 512 512" style="enable-background:new 0 0 512 512;" xml:space="preserve">
<path d="M461.7,285c-36.9,0-52.9,28.1-72.9,28.1c-53.3,0-4.8-156.7-4.8-156.7s-174.5,71.1-174.5-2.9c0-31.8,32.3-41.1,32.3-76.4
	c0-31.6-25-48.6-54.6-48.6c-30.8,0-59,16.8-59,50.1c0,36.8,28.2,52.7,28.2,72.7C156.3,213.1,0,176.7,0,176.7v296.2
	c0,0,158.8,36.5,158.8-25.5c0-20-35.6-35.7-35.6-72.4c0-33.3,26-50.1,56.5-50.1c29.9,0,54.9,17.1,54.9,48.6
	c0,35.3-32.3,44.6-32.3,76.4c0,54,115.3,22.9,161.1,22.9c0,0-30.9-106.8,23-106.8c32,0,41.3,32.1,76.7,32.1
	c31.7,0,48.8-24.9,48.8-54.7C512,313.1,495.1,285,461.7,285z"/>
</svg>
