<?xml version="1.0" encoding="utf-8"?>
<!-- Generator: Adobe Illustrator 24.0.0, SVG Export Plug-In . SVG Version: 6.00 Build 0)  -->
<svg version="1.1" id="Layer_1" xmlns="http://www.w3.org/2000/svg" xmlns:xlink="http://www.w3.org/1999/xlink" x="0px" y="0px"
	 viewBox="0 0 512 512" style="enable-background:new 0 0 512 512;" xml:space="preserve">
<path d="M471.8,200.5c-7.7-30.9-22.3-54.2-53.4-54.2h-40.1v47.4c0,36.8-31.2,67.8-66.8,67.8H204.7c-29.2,0-53.4,25-53.4,54.3v101.8
	c0,29,25.2,46,53.4,54.3c33.8,9.9,66.3,11.7,106.8,0c26.9-7.8,53.4-23.5,53.4-54.3v-40.7H258.2v-13.6h160.2
	c31.1,0,42.6-21.7,53.4-54.2C483,275.6,482.5,243.4,471.8,200.5L471.8,200.5z M318.2,404c11.1,0,20.1,9.1,20.1,20.3
	c0,11.3-9,20.4-20.1,20.4c-11,0-20.1-9.2-20.1-20.4C298.2,413,307.2,404,318.2,404z M199.8,248.1h106.8c29.7,0,53.4-24.5,53.4-54.3
	V91.9c0-29-24.4-50.7-53.4-55.6c-35.8-5.9-74.7-5.6-106.8,0.1c-45.2,8-53.4,24.7-53.4,55.6v40.7h106.9v13.6h-147
	c-31.1,0-58.3,18.7-66.8,54.2c-9.8,40.7-10.2,66.1,0,108.6c7.6,31.6,25.7,54.2,56.8,54.2H133v-48.8
	C133,279.2,163.5,248.1,199.8,248.1L199.8,248.1z M193.1,105.5c-11.1,0-20.1-9.1-20.1-20.3c0.1-11.3,9-20.4,20.1-20.4
	c11,0,20.1,9.2,20.1,20.4S204.2,105.5,193.1,105.5z"/>
</svg>
