<?xml version="1.0" encoding="utf-8"?>
<!-- Generator: Adobe Illustrator 24.0.0, SVG Export Plug-In . SVG Version: 6.00 Build 0)  -->
<svg version="1.1" id="Layer_1" xmlns="http://www.w3.org/2000/svg" xmlns:xlink="http://www.w3.org/1999/xlink" x="0px" y="0px"
	 viewBox="0 0 512 512" style="enable-background:new 0 0 512 512;" xml:space="preserve">
<path d="M465.8,420.4c-11.5,1.4-44.9-52.7-44.9-52.7c0,31.3-16.1,72.2-51.1,101.8c16.8,5.2,54.8,19.2,45.8,34.4
	c-7.3,12.3-125.5,7.9-159.6,4c-34.1,3.8-152.3,8.3-159.6-4c-9-15.3,28.9-29.2,45.8-34.4c-34.9-29.5-51.1-70.4-51.1-101.8
	c0,0-33.3,54.1-44.9,52.7c-5.4-0.6-12.4-29.6,9.3-99.7c10.3-33,22-60.5,40.1-105.8C92.7,98.1,141,0,256,0
	c113.7,0,163.2,96.1,160.3,215c18.1,45.2,29.9,72.8,40.1,105.8C478.2,390.8,471.1,419.8,465.8,420.4L465.8,420.4z"/>
</svg>
