<?xml version="1.0" encoding="utf-8"?>
<!-- Generator: Adobe Illustrator 24.0.0, SVG Export Plug-In . SVG Version: 6.00 Build 0)  -->
<svg version="1.1" id="Layer_1" xmlns="http://www.w3.org/2000/svg" xmlns:xlink="http://www.w3.org/1999/xlink" x="0px" y="0px"
	 viewBox="0 0 512 512" style="enable-background:new 0 0 512 512;" xml:space="preserve">
<path d="M32,224h192V32H32V224z M96,96h64v64H96V96z M288,32v192h192V32H288z M416,160h-64V96h64V160z M32,480h192V288H32V480z
	 M96,352h64v64H96V352z M448,288h32v128h-96v-32h-32v96h-64V288h96v32h64V288z M448,448h32v32h-32V448z M384,448h32v32h-32V448z"/>
</svg>
