<?xml version="1.0" encoding="utf-8"?>
<!-- Generator: Adobe Illustrator 24.0.0, SVG Export Plug-In . SVG Version: 6.00 Build 0)  -->
<svg version="1.1" id="Layer_1" xmlns="http://www.w3.org/2000/svg" xmlns:xlink="http://www.w3.org/1999/xlink" x="0px" y="0px"
	 viewBox="0 0 512 512" style="enable-background:new 0 0 512 512;" xml:space="preserve">
<path d="M472.5,386.7h-29.3c-1.5,13.5-10.5,30.8-33,30.8c-20.5,0-35.3-14.2-49.5-35.8c44.2-34.2,74.7-87.5,74.7-153
	C435.5,111.2,338.8,32,237,32c-99.7,0-197.7,79.7-197.7,196.7c0,134.1,131.3,221.6,249,189C308,451.3,334,480,383.5,480
	C465.3,480,474.3,404.7,472.5,386.7z M329,329.2C309.5,300,285.3,277,237.5,277c-30.5,0-54.3,10-69,22.8l12.2,24.3
	c6.2-3,13-4,19.8-4c35.5,0,53.7,30.8,69.2,61.3c-10,3-20.7,4.2-32.7,4.2c-75,0-107.5-53-107.5-156.7C129.5,124.5,162,71,237,71
	c76.2,0,108.7,53.5,108.7,157.7C345.8,270.5,340.3,304.3,329,329.2z"/>
</svg>
