<?xml version="1.0" encoding="utf-8"?>
<!-- Generator: Adobe Illustrator 24.0.0, SVG Export Plug-In . SVG Version: 6.00 Build 0)  -->
<svg version="1.1" id="Layer_1" xmlns="http://www.w3.org/2000/svg" xmlns:xlink="http://www.w3.org/1999/xlink" x="0px" y="0px"
	 viewBox="0 0 512 512" style="enable-background:new 0 0 512 512;" xml:space="preserve">
<path d="M480,358.4V25.6c0-16-9.6-25.6-25.6-25.6H128C73.6,0,32,41.6,32,96v320c0,54.4,41.6,96,96,96h326.4
	c12.8,0,25.6-9.6,25.6-25.6v-16c0-6.4-3.2-12.8-9.6-19.2c-3.2-16-3.2-60.8,0-73.6C476.8,374.4,480,368,480,358.4L480,358.4z
	 M333.1,145.8c0.6-1.2,1.8-1.8,2.9-1.8s2.3,0.6,2.9,1.8l11.2,22.6l25,3.6c2.7,0.4,3.7,3.7,1.8,5.6l-18.1,17.6l4.3,24.9
	c0.4,2.1-1.3,3.8-3.2,3.8c-0.5,0-1-0.1-1.5-0.4L336,211.9l-22.4,11.8c-0.5,0.3-1,0.4-1.5,0.4c-1.9,0-3.6-1.7-3.2-3.8l4.3-24.9
	l-18.1-17.6c-1.9-1.9-0.9-5.2,1.8-5.6l25-3.6L333.1,145.8L333.1,145.8z M275.2,76.8c13.7,0,27.3,2.5,40.4,7.4c3.7,0,6.8,3,6.8,6.8
	c0,3.7-3,6.8-6.8,6.8c-0.8,0-1.6-0.1-2.4-0.4c-0.7,0-3.1-0.2-4.1-0.2c-52.3,0-94.9,42.6-94.9,94.9c0,52.3,42.6,94.9,94.9,94.9
	c1,0,3.5-0.2,4.1-0.2c3.9,0,6.8,3.1,6.8,6.8c0,3-1.9,5.5-4.6,6.4c-13.1,4.9-26.6,7.3-40.2,7.3C211.7,307.2,160,255.5,160,192
	C160,128.5,211.7,76.8,275.2,76.8L275.2,76.8z M412.8,448H128c-19.2,0-32-12.8-32-32s16-32,32-32h284.8V448z"/>
</svg>
