<?xml version="1.0" encoding="utf-8"?>
<!-- Generator: Adobe Illustrator 24.0.0, SVG Export Plug-In . SVG Version: 6.00 Build 0)  -->
<svg version="1.1" id="Layer_1" xmlns="http://www.w3.org/2000/svg" xmlns:xlink="http://www.w3.org/1999/xlink" x="0px" y="0px"
	 viewBox="0 0 512 512" style="enable-background:new 0 0 512 512;" xml:space="preserve">
<path d="M512,230.1c0-94.7-114.6-171.5-256-171.5S0,135.4,0,230.1c0,84.4,91,154.6,211,168.8v54.5h87.3v-54.2
	c21.4-2.4,41.9-6.5,61.2-12.2l35.3,66.4h98.7l-59.4-100.2C482.1,322,512,278.4,512,230.1L512,230.1z M100.6,242.9
	c0-64.8,87.2-117.2,194.6-117.2s186.7,35.9,186.7,117.2c0,44.2-23.4,74.9-62,93.8c-2.1-1.4-4.1-2.6-5.6-3.3
	c-9-4.6-24.5-9.3-24.5-9.3s76.3-5.6,76.3-81.7S386.3,165,386.3,165H211v183.6C145.7,329.6,100.6,289.4,100.6,242.9L100.6,242.9z
	 M299,276.6v-49c50.9,0,77.4-6,77.4,24.1C376.4,283.8,342.7,276.6,299,276.6L299,276.6z M298.2,340.5h23.4
	c9.5,0,16.7,10.3,21.1,16.9c-14.2,1.7-29.1,2.5-44.6,2.6L298.2,340.5L298.2,340.5z"/>
</svg>
