<?xml version="1.0" encoding="utf-8"?>
<!-- Generator: Adobe Illustrator 24.0.0, SVG Export Plug-In . SVG Version: 6.00 Build 0)  -->
<svg version="1.1" id="Layer_1" xmlns="http://www.w3.org/2000/svg" xmlns:xlink="http://www.w3.org/1999/xlink" x="0px" y="0px"
	 viewBox="0 0 512 512" style="enable-background:new 0 0 512 512;" xml:space="preserve">
<path d="M336.2,255.8h151.6c9.1,0,16.8-7.7,16.2-16.8c-5.1-75.8-44.4-142.2-102.5-184.2c-7.4-5.3-17.9-2.9-22.7,4.8L298.4,188
	C321,202.3,336.2,227.2,336.2,255.8L336.2,255.8z M298.4,323.5c-12.3,7.7-26.8,12.4-42.4,12.4s-30-4.7-42.4-12.4L133.2,452
	c-4.8,7.7-2.4,18.1,5.6,22.4C173.7,493.2,213.6,504,256,504s82.3-10.8,117.2-29.6c8-4.3,10.4-14.8,5.6-22.4L298.4,323.5z M256,303.8
	c26.5,0,48-21.5,48-48s-21.5-48-48-48s-48,21.5-48,48S229.5,303.8,256,303.8z M24.2,255.8h151.6c0-28.6,15.2-53.5,37.8-67.7
	L133.2,59.7c-4.8-7.7-15.3-10.2-22.7-4.8C52.4,96.9,13.1,163.3,8,239.1C7.4,248.1,15.1,255.8,24.2,255.8L24.2,255.8z"/>
</svg>
