<?xml version="1.0" encoding="utf-8"?>
<!-- Generator: Adobe Illustrator 24.0.0, SVG Export Plug-In . SVG Version: 6.00 Build 0)  -->
<svg version="1.1" id="Layer_1" xmlns="http://www.w3.org/2000/svg" xmlns:xlink="http://www.w3.org/1999/xlink" x="0px" y="0px"
	 viewBox="0 0 512 512" style="enable-background:new 0 0 512 512;" xml:space="preserve">
<path d="M320,256h79.1c9.2,0,16.9-7.7,16-16.8c-4.6-43.6-27-81.8-59.5-107.8c-7.6-6.1-18.8-4.5-24,3.8L289.9,202
	C307.9,213.2,320,233.2,320,256z M222.2,310.1L180.4,377c-4.9,7.8-2.4,18.4,5.8,22.5c21.1,10.4,44.7,16.5,69.8,16.5
	s48.7-6.1,69.9-16.5c8.2-4.1,10.6-14.7,5.8-22.5l-41.8-66.9c-9.8,6.2-21.4,9.9-33.8,9.9C243.7,320,232,316.3,222.2,310.1
	L222.2,310.1z M112.9,256H192c0-22.8,12.1-42.8,30.2-54.1l-41.7-66.8c-5.2-8.3-16.4-9.9-24-3.8c-32.6,26-54.9,64.2-59.5,107.8
	C95.9,248.3,103.7,256,112.9,256L112.9,256z M256,504c137,0,248-111,248-248S393,8,256,8S8,119,8,256S119,504,256,504z M256,72
	c101.5,0,184,82.5,184,184s-82.5,184-184,184S72,357.5,72,256S154.5,72,256,72z M256,288c17.7,0,32-14.3,32-32s-14.3-32-32-32
	s-32,14.3-32,32S238.3,288,256,288z"/>
</svg>
