<?xml version="1.0" encoding="utf-8"?>
<!-- Generator: Adobe Illustrator 24.0.0, SVG Export Plug-In . SVG Version: 6.00 Build 0)  -->
<svg version="1.1" id="Layer_1" xmlns="http://www.w3.org/2000/svg" xmlns:xlink="http://www.w3.org/1999/xlink" x="0px" y="0px"
	 viewBox="0 0 512 512" style="enable-background:new 0 0 512 512;" xml:space="preserve">
<path d="M238.5,57.5C102.6,66.6,0,185.7,0,322v118.9c0,7.8,6.4,14.2,14.2,14.2h28.4c7.8,0,14.2-6.4,14.2-14.2v-128
	c0-118.4,103.9-213.1,225.3-197.4c100.4,12.9,172.9,103.2,172.9,204.4v121.1c0,7.8,6.4,14.2,14.2,14.2h28.4
	c7.8,0,14.2-6.4,14.2-14.2v-128C512,166,387.6,47.5,238.5,57.5L238.5,57.5z M233.5,143.6c-86,11-148.2,88.4-148.2,175.2v122
	c0,7.8,6.4,14.2,14.2,14.2H128c7.8,0,14.2-6.4,14.2-14.2v-128c0-66.5,57.3-119.8,125.2-113.2c59.1,5.8,102.4,58.8,102.4,118.3v122.9
	c0,7.8,6.4,14.2,14.2,14.2h28.4c7.8,0,14.2-6.4,14.2-14.2v-128C426.7,211.4,337.6,130.3,233.5,143.6L233.5,143.6z M239,229.2
	c-40.5,7.9-68.4,45.8-68.4,87v124.6c0,7.8,6.4,14.2,14.2,14.2h28.4c7.8,0,14.2-6.4,14.2-14.2v-128c0-15.6,12.7-28.4,28.4-28.4
	s28.4,12.8,28.4,28.4v128c0,7.8,6.4,14.2,14.2,14.2h28.4c7.8,0,14.2-6.4,14.2-14.2v-128C341.3,260.3,293.5,218.7,239,229.2
	L239,229.2z"/>
</svg>
