<?xml version="1.0" encoding="utf-8"?>
<!-- Generator: Adobe Illustrator 24.0.0, SVG Export Plug-In . SVG Version: 6.00 Build 0)  -->
<svg version="1.1" id="Layer_1" xmlns="http://www.w3.org/2000/svg" xmlns:xlink="http://www.w3.org/1999/xlink" x="0px" y="0px"
	 viewBox="0 0 512 512" style="enable-background:new 0 0 512 512;" xml:space="preserve">
<path d="M424.5,232.5l-3.7-6.5c0.1-46.4-21.4-65.3-46.5-79.7c7.6-2,15.4-3.6,17.6-13.2c13.1-3.3,15.8-9.4,17.1-15.8
	c3.4-2.3,14.8-8.7,13.6-19.7c6.4-4.4,10-10.1,8.1-18.1c6.9-7.5,8.7-13.7,5.8-19.4c8.3-10.3,4.6-15.6,1.1-20.9
	C443.8,28,438.3,16,421,18c-6.9-10.1-21.9-7.8-24.2-7.8c-2.6-3.2-6-6-16.5-4.7c-6.8-6.1-14.4-5-22.3-2.1c-9.3-7.3-15.5-1.4-22.6,0.8
	c-11.3-3.6-13.9,1.3-19.4,3.4c-12.3-2.6-16.1,3-22,8.9l-6.9-0.1c-18.6,10.8-27.8,32.8-31.1,44.1c-3.3-11.3-12.5-33.3-31.1-44.1
	l-6.9,0.1c-5.9-5.9-9.7-11.5-22-8.9c-5.6-2-8.1-7-19.4-3.4c-4.6-1.4-8.9-4.4-13.9-4.3c-2.6,0.1-5.5,1-8.7,3.5
	c-7.9-3-15.5-4-22.3,2.1c-10.5-1.3-14,1.4-16.5,4.7c-2.3,0-17.3-2.3-24.2,7.8c-17.3-2-22.7,10-16.5,21.2c-3.5,5.4-7.2,10.7,1.1,20.9
	c-2.9,5.7-1.1,11.9,5.8,19.4c-1.8,8,1.8,13.7,8.1,18.1c-1.2,11,10.2,17.4,13.6,19.7c1.3,6.4,4,12.4,17.1,15.8
	c2.2,9.5,10,11.2,17.6,13.2c-25.1,14.4-46.6,33.3-46.5,79.7l-3.7,6.5c-28.8,17.2-54.7,72.7-14.2,117.7c2.6,14.1,7.1,24.2,11,35.4
	c5.9,45.2,44.5,66.3,54.6,68.8c14.9,11.2,30.8,21.8,52.2,29.2c20.3,20.6,42.3,28.4,64.3,28.4h1c22.1,0,44-7.8,64.2-28.4
	c21.5-7.4,37.3-18,52.2-29.2c10.2-2.5,48.7-23.6,54.6-68.8c3.9-11.2,8.4-21.3,11-35.4C479.1,305.1,453.2,249.7,424.5,232.5
	L424.5,232.5z M402.3,224.5c-1.5,18.7-98.9-65.1-82.1-67.9C365.9,149.1,403.8,175.8,402.3,224.5z M359.3,317.6
	c-24.5,15.8-59.8,5.6-78.8-22.8s-14.6-64.2,9.9-80s59.8-5.6,78.8,22.8S383.8,301.8,359.3,317.6L359.3,317.6z M291.4,29.3
	c0.8,4.2,1.8,6.8,2.9,7.6c5.4-5.8,9.8-11.7,16.8-17.3c0,3.3-1.7,6.8,2.5,9.4c3.7-5,8.8-9.5,15.5-13.3c-3.2,5.6-0.6,7.3,1.2,9.6
	c5.1-4.4,10-8.8,19.4-12.3c-2.6,3.1-6.2,6.2-2.4,9.8c5.3-3.3,10.6-6.6,23.1-8.9c-2.8,3.1-8.7,6.3-5.1,9.4c6.6-2.5,14-4.4,22.1-5.4
	c-3.9,3.2-7.1,6.3-3.9,8.8c7.1-2.2,16.9-5.1,26.4-2.6l-6,6.1c-0.7,0.8,14.1,0.6,23.9,0.8c-3.6,5-7.2,9.7-9.3,18.2
	c1,1,5.8,0.4,10.4,0c-4.7,9.9-12.8,12.3-14.7,16.6c2.9,2.2,6.8,1.6,11.2,0.1c-3.4,6.9-10.4,11.7-16,17.3c1.4,1,3.9,1.6,9.7,0.9
	c-5.2,5.5-11.4,10.5-18.8,15c1.3,1.5,5.8,1.5,10,1.6c-6.7,6.5-15.3,9.9-23.4,14.2c4,2.7,6.9,2.1,10,2.1c-5.7,4.7-15.4,7.1-24.4,10
	c1.7,2.7,3.4,3.4,7.1,4.1c-9.5,5.3-23.2,2.9-27,5.6c0.9,2.7,3.6,4.4,6.7,5.8c-15.4,0.9-57.3-0.6-65.4-32.3
	c15.7-17.3,44.4-37.5,93.7-62.6c-38.4,12.8-73,30-102,53.5C251.3,85.2,274.8,45.2,291.4,29.3L291.4,29.3z M257,143.9
	c24.2-0.3,54.1,17.8,54,34.7c-0.1,15-21,27.1-53.8,26.9c-32.1-0.4-53.7-15.2-53.6-29.8C203.6,163.8,229.8,143.2,257,143.9L257,143.9
	z M134,131.1c3.7-0.7,5.4-1.5,7.1-4.1c-9-2.8-18.7-5.3-24.4-10c3.1,0,6,0.7,10-2.1c-8.1-4.3-16.7-7.7-23.4-14.2
	c4.2-0.1,8.7,0,10-1.6c-7.4-4.5-13.6-9.5-18.8-15c5.8,0.7,8.3,0.1,9.7-0.9c-5.6-5.6-12.7-10.4-16-17.3c4.3,1.5,8.3,2,11.2-0.1
	c-1.9-4.2-10-6.7-14.7-16.6c4.6,0.4,9.4,1,10.4,0C93,40.7,89.3,35.9,85.8,31c9.8-0.1,24.6,0,23.9-0.8l-6-6.1
	c9.5-2.5,19.3,0.4,26.4,2.6c3.2-2.5-0.1-5.6-3.9-8.8c8.1,1.1,15.4,2.9,22.1,5.4c3.5-3.1-2.3-6.3-5.1-9.4c12.5,2.3,17.8,5.6,23.1,8.9
	c3.8-3.6,0.2-6.7-2.4-9.8c9.4,3.4,14.3,7.9,19.4,12.3c1.7-2.3,4.4-4,1.2-9.6c6.7,3.8,11.8,8.3,15.5,13.3c4.1-2.6,2.5-6.2,2.5-9.4
	c7,5.6,11.4,11.5,16.8,17.3c1.1-0.8,2-3.4,2.9-7.6c16.6,15.9,40.1,55.9,6,71.8c-29-23.5-63.6-40.7-102-53.5
	c49.3,25,78,45.3,93.7,62.6c-8,31.8-50,33.2-65.4,32.3c3.1-1.4,5.8-3.2,6.7-5.8C157.2,133.9,143.6,136.3,134,131.1L134,131.1z
	 M194.1,155.2c16.8,2.8-80.6,86.5-82.1,67.9C110.5,174.4,148.5,147.6,194.1,155.2L194.1,155.2z M90.7,342
	c-23.7-18.8-31.3-73.7,12.6-98.3C129.8,236.7,112.3,351.5,90.7,342z M181.7,440.2c-13.3,7.9-45.8,4.7-68.8-27.9
	c-15.5-27.4-13.5-55.2-2.6-63.4c16.3-9.8,41.5,3.4,60.9,25.6C188.1,394.5,195.8,429.8,181.7,440.2z M155.3,320.5
	c-24.5-15.8-28.9-51.6-9.9-80s54.3-38.6,78.8-22.8s28.9,51.6,9.9,80C215,326.1,179.7,336.3,155.3,320.5z M257.5,496
	c-29.4,1.2-58.2-23.7-57.8-32.3c-0.4-12.7,35.8-22.6,59.3-22c23.7-1,55.6,7.5,55.7,18.9C315.2,471.6,285.9,496.5,257.5,496
	L257.5,496z M316.4,371.1c0.2,29.7-26.2,53.8-58.8,54c-32.6,0.2-59.2-23.8-59.4-53.4v-0.6c-0.2-29.7,26.2-53.8,58.8-54
	c32.6-0.2,59.2,23.8,59.4,53.4V371.1z M398.6,413.8c-25.3,34.6-59.6,35.9-72.3,26.3c-13.3-12.4-3.2-50.9,15.1-72
	c20.9-23.3,43.3-38.5,58.9-26.6C410.8,351.8,417,390.6,398.6,413.8L398.6,413.8z M421.5,340.6c-21.5,9.4-39-105.3-12.6-98.3
	C452.8,267,445.2,321.9,421.5,340.6z"/>
</svg>
