<?xml version="1.0" encoding="utf-8"?>
<!-- Generator: Adobe Illustrator 24.0.0, SVG Export Plug-In . SVG Version: 6.00 Build 0)  -->
<svg version="1.1" id="Layer_1" xmlns="http://www.w3.org/2000/svg" xmlns:xlink="http://www.w3.org/1999/xlink" x="0px" y="0px"
	 viewBox="0 0 512 512" style="enable-background:new 0 0 512 512;" xml:space="preserve">
<path d="M222.5,216.2l5.2-3.7l5.2,3.7l-1.9-6.1l5.1-3.9l-6.4-0.1l-2.1-6.1l-2.1,6.1l-6.5,0.1l5.1,3.9L222.5,216.2z M279.6,216.2
	l5.2-3.7l5.2,3.7l-1.9-6.1l5.1-3.9l-6.5-0.1l-2.1-6.1l-2.1,6.1l-6.5,0.1l5.1,3.9L279.6,216.2z M197.7,261.6h-3.1
	c-4.3,0-3.4,3.6-3.4,10.9c0,4.2-2.1,5.5-5.2,5.5c-3.1,0-5.2-1.3-5.2-5.5v-32.8c0-4.2,2.1-5.5,5.2-5.5c3.1,0,5.2,1.3,5.2,5.5
	c0,6.5-0.6,9.4,3.4,9.4h3.1c4.2-0.1,3.4-3.5,3.4-11c0-8.9-6-12.7-15.1-12.7h-0.2c-9.1,0-15.1,3.8-15.1,12.7v36
	c0,9.3,6,12.7,15.1,12.7h0.2c9.1,0,15.1-3.4,15.1-12.7C201.1,265.1,202.1,261.6,197.7,261.6z M125.3,277.2h-13.2v-17.3h10.2
	c2.2,0,3.4-1.2,3.4-3.4v-1.9c0-2.2-1.2-3.4-3.4-3.4h-10.2v-16.4H125c2.2,0,3.4-1.2,3.4-3.4v-1.9c0-2.2-1.2-3.4-3.4-3.4h-19.5
	c-2.2-0.1-3.3,1.2-3.3,3.4v53c0,2.2,1.2,3.4,3.4,3.4h19.7c2.2,0,3.4-1.2,3.4-3.4v-1.9C128.7,278.3,127.5,277.2,125.3,277.2
	L125.3,277.2z M87.6,260.6c4.1-1.8,6.6-5.4,6.6-11.1v-10.7c0-9.1-6-12.7-15.1-12.7h-12c-2.2,0-3.4,1.2-3.4,3.4v53
	c0,2.2,1.2,3.4,3.4,3.4h3.1c2.2,0,3.4-1.2,3.4-3.4V262h5l6.6,21.1c0.4,1.8,2.1,3,3.9,2.9h3c2.5,0,3.6-1.6,2.9-3.9L87.6,260.6z
	 M84.2,248c0,4.3-2.2,5.5-5.5,5.5h-5.2v-18.8h5.2c3.2,0,5.5,1.2,5.5,5.5V248z M155.5,229.1c-0.2-1.9-1.9-3.2-3.8-3.1l0,0h-6.2
	c-1.8-0.2-3.4,1.2-3.6,3c0,0,0,0,0,0.1l-9.9,53.1c-0.4,2.4,0.8,3.7,3.1,3.7h2.7c1.9,0.2,3.5-1.2,3.7-3.1v-0.1l1.6-10.1h10.9
	l1.6,10.1c0.1,1.9,1.7,3.2,3.6,3.1h0.1h3.1c2.3,0,3.5-1.3,3.1-3.7L155.5,229.1z M144.5,264.3l4.2-26.6l4.2,26.6H144.5z M224.6,282.5
	v-47.7h6.7c2.2,0,3.4-1.2,3.4-3.4v-1.9c0-2.2-1.2-3.4-3.4-3.4h-23.1c-2.2,0-3.4,1.2-3.4,3.4v1.9c0,2.2,1.2,3.4,3.4,3.4h6.6v47.7
	c0,2.2,1.2,3.4,3.4,3.4h3.1C223.5,285.9,224.6,284.7,224.6,282.5L224.6,282.5z M447.2,281.7h-17.4v-24h14.4c0.9,0.1,1.7-0.6,1.8-1.6
	c0-0.1,0-0.2,0-0.2v-0.7c0.1-0.9-0.6-1.7-1.6-1.8c-0.1,0-0.2,0-0.2,0h-14.4v-23.1h17.1c0.9,0.1,1.7-0.6,1.8-1.6c0-0.1,0-0.2,0-0.2
	v-0.7c0.1-0.9-0.5-1.6-1.4-1.7c-0.1,0-0.3,0-0.4,0H427c-0.8-0.2-1.5,0.3-1.8,1.1c-0.1,0.2-0.1,0.4,0,0.5v56.5
	c-0.1,0.9,0.6,1.7,1.5,1.7c0.1,0,0.2,0,0.3,0h20.2c0.9,0.1,1.7-0.5,1.8-1.4c0-0.1,0-0.2,0-0.3v-0.7c0.1-0.9-0.6-1.7-1.5-1.8
	C447.3,281.7,447.2,281.7,447.2,281.7L447.2,281.7z M363.6,225.3h-0.7c-9.1,0-13.7,4.2-13.7,12.7v36c0,8.3,4.7,12.7,13.7,12.7h0.7
	c9.1,0,13.7-4.3,13.7-12.7v-36C377.3,229.5,372.7,225.3,363.6,225.3L363.6,225.3z M372.8,272.3c-0.1,7.2-2.7,10-9.4,10
	c-6.7,0-9.4-2.8-9.4-10v-32.8c0-7.1,2.7-10,9.4-10c6.7,0,9.4,2.9,9.4,10V272.3z M331,259.3c5.5-1.4,8.3-5.5,8.3-11.9v-8.7
	c0-8.4-4.7-12.7-13.7-12.7h-12.3c-0.9-0.1-1.7,0.5-1.8,1.4c0,0.1,0,0.2,0,0.3v56.5c-0.1,0.9,0.6,1.7,1.5,1.7c0.1,0,0.2,0,0.3,0h1.1
	c0.9,0.1,1.6-0.5,1.7-1.4c0-0.1,0-0.2,0-0.3v-24.1h10.4l9.3,24.4c0.4,0.8,1.2,1.4,2.1,1.3h1.3c1.3,0,1.8-0.9,1.3-2.1L331,259.3z
	 M325.3,255.8h-9.2v-25.6h9.2c6.7,0,9.4,2.8,9.4,10v5.7C334.7,252.9,332,255.8,325.3,255.8L325.3,255.8z M402.4,226.1h-12.3
	c-0.8-0.2-1.5,0.3-1.8,1.1c-0.1,0.2-0.1,0.4,0,0.5v56.5c-0.1,0.9,0.6,1.7,1.5,1.7c0.1,0,0.2,0,0.3,0h1.1c0.9,0.1,1.6-0.5,1.7-1.4
	c0-0.1,0-0.2,0-0.3v-23.4h9.5c9.1,0,13.7-4.3,13.7-12.7v-9.4C416.1,230.3,411.4,226.1,402.4,226.1L402.4,226.1z M411.5,246.6
	c0,7.1-2.7,10-9.4,10H393v-26.2h9.2c6.7-0.1,9.4,2.8,9.4,9.9V246.6z M230.5,302.7l-2.1-6.1l-2.1,6.1l-6.4,0.1l5.1,3.9l-1.9,6.1
	l5.2-3.7l5.2,3.7l-1.9-6.1l5.1-3.9L230.5,302.7z M434.7,180.5c-10.5-3.9-21.1-7.3-31.9-10.1c17.6-70,10.4-120.9-20-138.1
	c-31-17.4-77.1,3.9-124,49.5c3.1,3,6.1,6,9.2,9.2c74-71.8,107.3-48,108.5-47.4c20.1,11.4,32.3,50.1,13.9,123.6
	c-24.9-5.7-50.3-9.6-75.9-11.7C249.8,65.4,188.2,28.1,150.9,28.1c-27.6,0-39.3,18.8-42.7,24.9c-16.2,28.7-11.9,75.6,0.1,120.1
	C45,191.2-0.1,221.5,0.3,258.2c0.4,53.5,92.6,78.8,109.6,83.3c-18.4,73.5-9.1,121.7,20,138.1c25.1,14.2,67.4,5.4,124-49.5
	c-3.1-3-6.1-6-9.2-9.2c-74,71.8-107.4,48-108.5,47.4c-20-11.3-32.3-49.9-13.9-123.7c11.1,2.6,37.5,8.5,75.9,11.7
	c64.5,90.1,126.2,127.4,163.4,127.4c27.6,0,39.3-18.8,42.7-24.9c16.2-28.6,11.9-75.5-0.1-120.1C540.9,299.4,544.4,221.9,434.7,180.5
	L434.7,180.5z M119.6,59.3c2.6-4.6,10.7-18.2,31.3-18.2c33,0,88.7,35.5,146.5,113.2c-28.1-1.6-56.3-1.3-84.3,0.8
	c11.7-16.4,24.3-32.1,37.9-47c-3.1-3.1-6.1-6.2-9.2-9.2c-16.4,18.1-31.7,37.4-45.5,57.6c-25.6,2.4-50.9,6.8-75.7,13.1
	C120.5,168.4,98.8,95.9,119.6,59.3L119.6,59.3z M393,452.6c-2.6,4.6-10.6,18.2-31.3,18.2c-32.9,0-88.6-35.4-146.5-113.2
	c28.1,1.6,56.3,1.3,84.3-0.8c-11.7,16.4-24.3,32.1-37.9,47c3.1,3.1,6.1,6.2,9.2,9.2c16.5-18.1,31.7-37.3,45.5-57.6
	c42.4-4.2,72.1-12.1,75.7-13.1C412.3,418,396,447.2,393,452.6L393,452.6z M401.2,328.2c-3.2-10.7-6.9-21.6-11.1-32.7
	c-3.9,0-7.4-1.9-9.6-5.1l-0.1,0.1c-1.4,1.3-3.1,2.4-4.8,3.2c5.1,12.8,9.5,25.5,13.2,37.9c-21.3,5.4-42.8,9.2-64.6,11.7
	c3.1-4.8,15.4-23.5,28.9-48.6c-1.9-0.7-3.8-1.7-5.4-2.9c-1,1.1-3.2,3.8-9.8,3.8c-5.6,10-15.6,27.7-30.4,49.5
	c-33.6,3-67.3,3.2-100.9,0.9c-7.1-10-19.3-27.9-33-51.9c-0.9-0.4-1.8-0.8-2.7-1.3c-1.7,1.4-3.5,2.9-11.3,2.9
	c5.7,10,15.7,27.5,30.3,49c-21.8-2.1-43.4-5.6-64.8-10.5c3.5-12.6,7.7-25.4,12.7-38.5c-2.9,0-4.8,0.2-7.5-0.9c-2,0.7-4.1,1-6.2,0.9
	c-4.4,12-8.2,23.8-11.4,35.4c-143.5-38.2-125.9-110.9-1.3-147.2c3.2,10.7,6.9,21.6,11.1,32.7c9.3,0,11.6,3.1,12.9,4.8
	c0.6-0.7,1.3-1.4,2.1-2c-5.2-13.2-9.8-26.2-13.6-38.9c6.3-1.6,29.1-7.5,64.6-11.7c-14.3,21.8-24,39.4-29.4,49.6
	c2.8,1.6,4.8,4.1,5.7,7.2c2.2-3.3,5.5-5.9,9.2-7.5c5.8-10.5,16.1-28.6,31.2-51.1c33.6-3,67.3-3.2,100.9-0.9
	c28.3,40,25.9,43.2,38.1,57.9c2.3-3.1,5.7-5.4,9.3-6.6c-5.7-10.2-15.8-27.8-30.8-49.8c36.2,3.7,58.3,9,64.8,10.5
	c-3.6,12.9-8,26.2-13.1,39.7c2.2,0.9,4.3,2.2,6.1,3.9l0.1,0.1c1.8-2.8,4.8-4.6,8-5c4.4-12,8.3-23.9,11.5-35.4
	c10.5,2.8,20.8,6.1,31,9.9c95.2,35.8,66.4,78.9,65.1,81.1C478.3,303.6,424.2,321.7,401.2,328.2L401.2,328.2z M298.6,225.9h-1.1
	c-0.9-0.1-1.6,0.5-1.7,1.4c0,0.1,0,0.2,0,0.3v44.7c0,7.1-2.3,10-9.1,10c-6.7,0-9.1-2.8-9.1-10v-44.7c0.1-0.8-0.4-1.6-1.3-1.7
	c-0.1,0-0.3,0-0.4,0h-1.1c-0.9-0.1-1.7,0.5-1.8,1.4c0,0.1,0,0.2,0,0.3v46.2c0,8.6,4.5,12.7,13.5,12.7h0.4c9.1,0,13.5-4.1,13.5-12.7
	v-46.2C300.5,226.7,299.6,225.8,298.6,225.9C298.7,225.9,298.6,225.9,298.6,225.9L298.6,225.9z M286.3,302.7l-2.1-6.1l-2.1,6.1
	l-6.4,0.1l5.1,3.9l-1.9,6.1l5.2-3.7l5.2,3.7l-1.9-6.1l5.1-3.9L286.3,302.7z M258.4,309.3l-2.1-6.1l-2.1,6.1l-6.4,0.1l5.1,3.9
	l-1.9,6.1l5.2-3.7l5.2,3.7l-1.9-6.1l5.1-3.9L258.4,309.3z M262.9,281.7h-17.4v-24H260c0.9,0.1,1.7-0.6,1.8-1.6c0-0.1,0-0.2,0-0.2
	v-0.7c0.1-0.9-0.6-1.7-1.6-1.8c-0.1,0-0.2,0-0.2,0h-14.4v-23.1h17.1c0.9,0.1,1.7-0.6,1.8-1.6c0-0.1,0-0.2,0-0.2v-0.7
	c0.1-0.9-0.5-1.6-1.4-1.7c-0.1,0-0.3,0-0.4,0h-19.9c-0.9-0.1-1.7,0.5-1.8,1.4c0,0.1,0,0.2,0,0.3v56.5c-0.1,0.9,0.6,1.7,1.5,1.7
	c0.1,0,0.2,0,0.3,0h20.2c0.9,0.1,1.7-0.4,1.8-1.3c0-0.1,0-0.3,0-0.4v-0.7c0.1-0.9-0.5-1.7-1.4-1.9
	C263.2,281.7,263,281.7,262.9,281.7L262.9,281.7z M256.3,192.5l-2.1,6.1l-6.4,0.1l5.1,3.9l-1.9,6.1l5.2-3.7l5.2,3.7l-1.9-6.1
	l5.1-3.9l-6.4-0.1L256.3,192.5z"/>
</svg>
