<?xml version="1.0" encoding="utf-8"?>
<!-- Generator: Adobe Illustrator 24.0.0, SVG Export Plug-In . SVG Version: 6.00 Build 0)  -->
<svg version="1.1" id="Layer_1" xmlns="http://www.w3.org/2000/svg" xmlns:xlink="http://www.w3.org/1999/xlink" x="0px" y="0px"
	 viewBox="0 0 512 512" style="enable-background:new 0 0 512 512;" xml:space="preserve">
<path d="M469.6,69.8H345.3c-42.8,0-79.9,29.6-89.2,71.4c-9.4-41.8-46.5-71.4-89.2-71.4H42.7C19.1,69.8,0,88.9,0,112.4v218.5
	c0,23.6,19.1,42.7,42.7,42.7h79.7c90.8,0,118,21.7,130.9,66.7c0.6,2.5,4.6,2.5,5.3,0c13.1-45,40.2-66.7,130.9-66.7h79.7
	c23.6,0,42.7-19.1,42.7-42.7V112.5C512,89.1,493.1,69.9,469.6,69.8z M215.1,305.7c0,1.7-1.3,3.1-3.1,3.1H69.5
	c-1.7,0-3.1-1.3-3.1-3.1v-20.4c0-1.7,1.3-3.1,3.1-3.1h142.6c1.7,0,3.1,1.3,3.1,3.1L215.1,305.7L215.1,305.7z M215.1,251.6
	c0,1.7-1.3,3.1-3.1,3.1H69.5c-1.7,0-3.1-1.3-3.1-3.1v-20.4c0-1.7,1.3-3.1,3.1-3.1h142.6c1.7,0,3.1,1.3,3.1,3.1L215.1,251.6
	L215.1,251.6z M215.1,197.4c0,1.7-1.3,3.1-3.1,3.1H69.5c-1.7,0-3.1-1.3-3.1-3.1v-20.4c0-1.7,1.3-3.1,3.1-3.1h142.6
	c1.7,0,3.1,1.3,3.1,3.1L215.1,197.4L215.1,197.4z M445.6,305.6c0,1.7-1.3,3.1-3.1,3.1H300c-1.7,0-3.1-1.3-3.1-3.1v-20.4
	c0-1.7,1.3-3.1,3.1-3.1h142.6c1.7,0,3.1,1.3,3.1,3.1L445.6,305.6L445.6,305.6z M445.6,251.5c0,1.7-1.3,3.1-3.1,3.1H300
	c-1.7,0-3.1-1.3-3.1-3.1v-20.4c0-1.7,1.3-3.1,3.1-3.1h142.6c1.7,0,3.1,1.3,3.1,3.1L445.6,251.5L445.6,251.5z M445.6,197.3
	c0,1.7-1.3,3.1-3.1,3.1H300c-1.7,0-3.1-1.3-3.1-3.1v-20.3c0-1.7,1.3-3.1,3.1-3.1h142.6c1.7,0,3.1,1.3,3.1,3.1L445.6,197.3
	L445.6,197.3z"/>
</svg>
