<?xml version="1.0" encoding="utf-8"?>
<!-- Generator: Adobe Illustrator 24.0.0, SVG Export Plug-In . SVG Version: 6.00 Build 0)  -->
<svg version="1.1" id="Layer_1" xmlns="http://www.w3.org/2000/svg" xmlns:xlink="http://www.w3.org/1999/xlink" x="0px" y="0px"
	 viewBox="0 0 512 512" style="enable-background:new 0 0 512 512;" xml:space="preserve">
<path d="M422.4,3.2L384,48L329.6,3.2c-5.7-4.3-13.5-4.3-19.2,0L256,48L201.6,3.2c-5.7-4.3-13.5-4.3-19.2,0L128,48L89.6,3.2
	C79-4.7,64,2.8,64,16v480c0,13.2,15,20.7,25.6,12.8L128,464l54.4,44.8c5.7,4.3,13.5,4.3,19.2,0L256,464l54.4,44.8
	c5.7,4.3,13.5,4.3,19.2,0L384,464l38.4,44.8c10.5,7.9,25.6,0.4,25.6-12.8V16C448,2.8,433-4.7,422.4,3.2z M384,360c0,4.4-3.6,8-8,8
	H136c-4.4,0-8-3.6-8-8v-16c0-4.4,3.6-8,8-8h240c4.4,0,8,3.6,8,8V360z M384,264c0,4.4-3.6,8-8,8H136c-4.4,0-8-3.6-8-8v-16
	c0-4.4,3.6-8,8-8h240c4.4,0,8,3.6,8,8V264z M384,168c0,4.4-3.6,8-8,8H136c-4.4,0-8-3.6-8-8v-16c0-4.4,3.6-8,8-8h240c4.4,0,8,3.6,8,8
	V168z"/>
</svg>
