<?xml version="1.0" encoding="utf-8"?>
<!-- Generator: Adobe Illustrator 24.0.0, SVG Export Plug-In . SVG Version: 6.00 Build 0)  -->
<svg version="1.1" id="Layer_1" xmlns="http://www.w3.org/2000/svg" xmlns:xlink="http://www.w3.org/1999/xlink" x="0px" y="0px"
	 viewBox="0 0 512 512" style="enable-background:new 0 0 512 512;" xml:space="preserve">
<path d="M385.2,32H126.8C74.4,32,32,74.4,32,126.8v258.4c0,52.4,42.4,94.8,94.8,94.8h258.4c52.4,0,94.8-42.4,94.8-94.8V126.8
	C480,74.4,437.6,32,385.2,32z M176.9,200.9v56.3c0,27-21.9,48.9-48.9,48.9V151.9c0-13.2,10.7-23.9,23.9-23.9h154.2
	c0,27-21.9,48.9-48.9,48.9h-56.3C188.6,176.3,176.3,188.5,176.9,200.9L176.9,200.9z M353.2,272.9h-56.3c-12.3-0.6-24.6,11.6-24,24
	v56.3c0,27-21.9,48.9-48.9,48.9V247.9c0-13.2,10.7-23.9,23.9-23.9h154.2C402.1,251,380.2,272.9,353.2,272.9L353.2,272.9z"/>
</svg>
