<?xml version="1.0" encoding="utf-8"?>
<!-- Generator: Adobe Illustrator 24.0.0, SVG Export Plug-In . SVG Version: 6.00 Build 0)  -->
<svg version="1.1" id="Layer_1" xmlns="http://www.w3.org/2000/svg" xmlns:xlink="http://www.w3.org/1999/xlink" x="0px" y="0px"
	 viewBox="0 0 512 512" style="enable-background:new 0 0 512 512;" xml:space="preserve">
<path d="M268.8,384h-8.9l7.4-22.2l-53.7-41.5L192.4,384h-26c-7.1,0-12.8,5.7-12.8,12.8v25.6c0,7.1,5.7,12.8,12.8,12.8h102.4
	c7.1,0,12.8-5.7,12.8-12.8v-25.6C281.6,389.7,275.9,384,268.8,384z M507.1,417.7L301.6,258.9l39.3-118.1h94.3v25.6
	c0,7.1,5.7,12.8,12.8,12.8h25.6c7.1,0,12.8-5.7,12.8-12.8V89.6c0-7.1-5.7-12.8-12.8-12.8H140.8c-7.1,0-12.8,5.7-12.8,12.8v35.1
	L36.4,53.9c-5.6-4.3-13.6-3.3-18,2.2c0,0,0,0,0,0L2.7,76.4C-1.6,82-0.6,90,4.9,94.3l470.7,363.8c5.6,4.3,13.6,3.3,18-2.2
	c0,0,0,0,0,0l15.7-20.2C513.6,430.1,512.6,422,507.1,417.7z M247.9,217.4l-68.7-53.1v-23.5h94.3L247.9,217.4z"/>
</svg>
