<?xml version="1.0" encoding="utf-8"?>
<!-- Generator: Adobe Illustrator 24.0.0, SVG Export Plug-In . SVG Version: 6.00 Build 0)  -->
<svg version="1.1" id="Layer_1" xmlns="http://www.w3.org/2000/svg" xmlns:xlink="http://www.w3.org/1999/xlink" x="0px" y="0px"
	 viewBox="0 0 512 512" style="enable-background:new 0 0 512 512;" xml:space="preserve">
<path d="M352,480H160c-70.4,0-128-57.6-128-128V160C32,89.6,89.6,32,160,32h192c70.4,0,128,57.6,128,128v192
	C480,422.4,422.4,480,352,480z M225.4,273.2c-6.1-2-11.6-3.1-16.4-3.1c-7.2,0-13.5,1.9-18.9,5.6s-9.6,9-12.8,15.8h-1.1l-4.2-18.3
	h-28v138.9h36.1v-89.7c1.5-5.4,4.4-9.8,8.7-13.2c4.3-3.4,9.8-5.1,16.2-5.1c4.6,0,9.8,1,15.6,3.1L225.4,273.2L225.4,273.2z
	 M340.6,376.6c-3.2,2.4-7.7,4.8-13.7,7.1c-6,2.3-12.8,3.5-20.4,3.5c-12.2,0-21.1-3-26.5-8.9c-5.5-5.9-8.5-14.7-9-26.4h83.3
	c0.9-4.8,1.6-9.4,2.1-13.9c0.5-4.4,0.7-8.6,0.7-12.5c0-10.7-1.6-19.7-4.7-26.9c-3.2-7.2-7.3-13-12.5-17.2
	c-5.2-4.3-11.1-7.3-17.8-9.2c-6.7-1.8-13.5-2.8-20.6-2.8c-21.1,0-37.5,6.1-49.2,18.3s-17.5,30.5-17.5,55c0,22.8,5.2,40.7,15.6,53.7
	c10.4,13.1,26.8,19.6,49.2,19.6c10.7,0,20.9-1.5,30.4-4.6s17.1-6.8,22.6-11.2L340.6,376.6L340.6,376.6z M318.8,306.3
	c3.8,5.4,5.3,13.1,4.6,23.1h-51.7c0.9-9.4,3.7-17,8.2-22.6s11.5-8.5,21-8.5C309.1,298.2,315,300.9,318.8,306.3z M398.7,308.8
	c4.1,3.9,9.4,5.8,16.1,5.8c7,0,12.6-1.9,16.7-5.8s6.1-9.1,6.1-15.6s-2-11.6-6.1-15.4s-9.6-5.7-16.7-5.7c-6.7,0-12,1.9-16.1,5.7
	c-4.1,3.8-6.1,8.9-6.1,15.4S394.6,304.9,398.7,308.8z M398.7,409.3c4.1,3.9,9.4,5.8,16.1,5.8c7,0,12.6-1.9,16.7-5.8
	s6.1-9.1,6.1-15.6s-2-11.6-6.1-15.4s-9.6-5.7-16.7-5.7c-6.7,0-12,1.9-16.1,5.7c-4.1,3.8-6.1,8.9-6.1,15.4
	C392.6,400.3,394.6,405.4,398.7,409.3z"/>
</svg>
