<?xml version="1.0" encoding="utf-8"?>
<!-- Generator: Adobe Illustrator 24.0.0, SVG Export Plug-In . SVG Version: 6.00 Build 0)  -->
<svg version="1.1" id="Layer_1" xmlns="http://www.w3.org/2000/svg" xmlns:xlink="http://www.w3.org/1999/xlink" x="0px" y="0px"
	 viewBox="0 0 512 512" style="enable-background:new 0 0 512 512;" xml:space="preserve">
<path d="M121.2,197.2L277.6,62.1c13.7-11.8,35.3-2.2,35.3,16.1v73.6C427.7,160.9,512,198.2,512,315c0,54.6-35.2,108.7-74.1,137
	c-12.1,8.8-29.4-2.3-25-16.6c34.2-109.5-3.5-150.7-100.1-161.8v74.8c0,18.4-21.6,28-35.3,16.1L121.2,229.5
	C111.3,221,111.3,205.7,121.2,197.2z M7.4,229.5l156.4,135.1c13.7,11.8,35.3,2.3,35.3-16.1v-14.1L102.6,251
	c-11-9.5-17.2-23.2-17.2-37.7c0-14.5,6.3-28.2,17.2-37.7l96.5-83.4V78.2c0-18.4-21.6-28-35.3-16.1L7.4,197.2
	C-2.5,205.7-2.5,221,7.4,229.5z"/>
</svg>
