<?xml version="1.0" encoding="utf-8"?>
<!-- Generator: Adobe Illustrator 24.0.0, SVG Export Plug-In . SVG Version: 6.00 Build 0)  -->
<svg version="1.1" id="Layer_1" xmlns="http://www.w3.org/2000/svg" xmlns:xlink="http://www.w3.org/1999/xlink" x="0px" y="0px"
	 viewBox="0 0 512 512" style="enable-background:new 0 0 512 512;" xml:space="preserve">
<path d="M435.2,204.8c0-70.7-57.3-128-128-128H128c-70.7,0-128,57.3-128,128V256h435.2V204.8z M141,187.5L125.2,203l3.8,21.8
	c0.6,3.9-3.4,6.9-7,5l-19.6-10.3l-19.6,10.3c-3.4,1.8-7.6-1.1-7-5l3.8-21.8l-15.8-15.4c-2.9-2.8-1.3-7.6,2.6-8.2l21.9-3.2l9.8-19.8
	c1.8-3.6,6.9-3.5,8.6,0l9.8,19.8l21.9,3.2C142.3,179.9,143.8,184.7,141,187.5L141,187.5z M256.2,187.5L240.4,203l3.8,21.8
	c0.6,3.9-3.4,6.9-7,5l-19.6-10.3L198,229.8c-3.4,1.8-7.6-1.1-7-5l3.8-21.8L179,187.5c-2.9-2.8-1.3-7.6,2.6-8.2l21.9-3.2l9.8-19.8
	c1.8-3.6,6.9-3.5,8.6,0l9.8,19.8l21.9,3.2C257.5,179.9,259,184.7,256.2,187.5L256.2,187.5z M371.4,187.5L355.6,203l3.8,21.8
	c0.6,3.9-3.4,6.9-7,5l-19.6-10.3l-19.6,10.3c-3.4,1.8-7.6-1.1-7-5L310,203l-15.8-15.4c-2.9-2.8-1.3-7.6,2.6-8.2l21.9-3.2l9.8-19.8
	c1.8-3.6,6.9-3.5,8.6,0l9.8,19.8l21.9,3.2C372.7,179.9,374.2,184.7,371.4,187.5L371.4,187.5z M499.2,307.2h-25.6
	c-7,0-12.8,5.8-12.8,12.8v51.2c0,7-5.8,12.8-12.8,12.8s-12.8-5.8-12.8-12.8v-89.6H0v140.8c0,7,5.8,12.8,12.8,12.8h76.8
	c7,0,12.8-5.8,12.8-12.8v-64H256v64c0,7,5.8,12.8,12.8,12.8h76.8c7,0,12.8-5.8,12.8-12.8v-89.6H384v34.6c0,33.4,24,64.1,57.3,67.4
	c38.2,3.9,70.7-26.2,70.7-63.7V320C512,313,506.2,307.2,499.2,307.2L499.2,307.2z"/>
</svg>
