<?xml version="1.0" encoding="utf-8"?>
<!-- Generator: Adobe Illustrator 24.0.0, SVG Export Plug-In . SVG Version: 6.00 Build 0)  -->
<svg version="1.1" id="Layer_1" xmlns="http://www.w3.org/2000/svg" xmlns:xlink="http://www.w3.org/1999/xlink" x="0px" y="0px"
	 viewBox="0 0 512 512" style="enable-background:new 0 0 512 512;" xml:space="preserve">
<path d="M289.2,278.2c46-13.3,49.6-23.5,44-43.4L322,195.5c-6.1-20.9-18.4-28.1-71.1-12.8L62.7,236.8l28.6,98.6L289.2,278.2
	L289.2,278.2z M256.5,8C139.4,8,41.2,88.7,15.2,197.5l221.9-63.9c34.8-10.2,54.2-11.7,79.3-8.2c36.3,6.1,52.7,25,61.4,55.2
	l10.7,37.8c8.2,28.1,1,50.6-23.5,73.6c-19.4,17.4-31.2,24.5-61.4,33.2L211,351.8l220.4,27.1l9.7,34.2L393,426.4l-286.8-37.3l23,80.2
	c36.8,22,80.3,34.7,126.3,34.7c137,0,248.5-111.4,248.5-248.3C505,119.4,393.5,8,256.5,8z M46.3,388.6L8,256.8
	C8,305.3,22.3,350.2,46.3,388.6L46.3,388.6z"/>
</svg>
