<?xml version="1.0" encoding="utf-8"?>
<!-- Generator: Adobe Illustrator 24.0.0, SVG Export Plug-In . SVG Version: 6.00 Build 0)  -->
<svg version="1.1" id="Layer_1" xmlns="http://www.w3.org/2000/svg" xmlns:xlink="http://www.w3.org/1999/xlink" x="0px" y="0px"
	 viewBox="0 0 512 512" style="enable-background:new 0 0 512 512;" xml:space="preserve">
<path d="M96.8,148.2c29.7,0,53.9-24.2,53.9-53.9s-24.2-53.9-53.9-53.9S42.9,64.6,42.9,94.3S67.1,148.2,96.8,148.2z M420.2,148.2
	c29.7,0,53.9-24.2,53.9-53.9s-24.2-53.9-53.9-53.9s-53.9,24.2-53.9,53.9S390.5,148.2,420.2,148.2z M527.4,339L489,182.5
	c-2.8-11.4-13.1-19.4-25.1-20.4c-12.6,8.2-27.6,13.1-43.8,13.1c-16.2,0-31.2-4.9-43.8-13.1c-12,1-22.3,9-25.1,20.4L312.8,339
	c-2.9,12.7,7.2,24.8,20.8,24.8h46.1v87.6c0,11.2,9,20.2,20.2,20.2h40.4c11.2,0,20.2-9,20.2-20.2v-87.6h46.1
	C520.4,363.8,530.5,351.7,527.4,339z M272,40.4H245c-7.4,0-13.5,6.1-13.5,13.5v404.2c0,7.4,6.1,13.5,13.5,13.5H272
	c7.4,0,13.5-6.1,13.5-13.5V53.9C285.5,46.5,279.4,40.4,272,40.4z M140.7,162c-12.6,8.3-27.7,13.1-43.9,13.1S65.6,170.3,53,162
	c-20.7,1.8-37,18.9-37,40.1v114.5c0,11.2,9,20.2,20.2,20.2h6.7v114.5c0,11.2,9,20.2,20.2,20.2h67.4c11.2,0,20.2-9,20.2-20.2V336.8
	h6.7c11.2,0,20.2-9,20.2-20.2V202.1C177.7,181,161.4,163.8,140.7,162z"/>
</svg>
