<?xml version="1.0" encoding="utf-8"?>
<!-- Generator: Adobe Illustrator 24.0.0, SVG Export Plug-In . SVG Version: 6.00 Build 0)  -->
<svg version="1.1" id="Layer_1" xmlns="http://www.w3.org/2000/svg" xmlns:xlink="http://www.w3.org/1999/xlink" x="0px" y="0px"
	 viewBox="0 0 512 512" style="enable-background:new 0 0 512 512;" xml:space="preserve">
<path d="M506.3,326.8l-81.4,81.4c-7.6,7.6-19.9,7.6-27.4,0L316,326.8c-7.6-7.6-7.6-19.9,0-27.4l8.7-8.7c7.8-7.8,20.3-7.5,27.8,0.4
	l32.7,34.6V178.4H233.8c-5.2,0-10.1-2-13.7-5.7l-12.9-12.9c-12.2-12.2-3.6-33.1,13.7-33.1h196.8c10.8,0,19.4,8.6,19.4,19.4v179.5
	l32.7-34.6c7.5-7.9,20.1-8.2,27.8-0.4l8.7,8.7C513.8,306.9,513.8,319.2,506.3,326.8L506.3,326.8z M292,339.3
	c-3.6-3.6-8.6-5.7-13.7-5.7H126.7V186.4l32.7,34.6c7.5,7.9,20.1,8.2,27.8,0.4l8.7-8.7c7.6-7.6,7.6-19.9,0-27.4l-81.3-81.5
	c-7.6-7.6-19.9-7.6-27.4,0L5.7,185.2c-7.6,7.6-7.6,19.9,0,27.4l8.7,8.7c7.8,7.8,20.3,7.5,27.8-0.4l32.7-34.5v179.5
	c0,10.8,8.6,19.4,19.4,19.4h196.8c17.3,0,25.9-20.9,13.7-33.1L292,339.3L292,339.3z"/>
</svg>
