<?xml version="1.0" encoding="utf-8"?>
<!-- Generator: Adobe Illustrator 24.0.0, SVG Export Plug-In . SVG Version: 6.00 Build 0)  -->
<svg version="1.1" id="Layer_1" xmlns="http://www.w3.org/2000/svg" xmlns:xlink="http://www.w3.org/1999/xlink" x="0px" y="0px"
	 viewBox="0 0 512 512" style="enable-background:new 0 0 512 512;" xml:space="preserve">
<path d="M321.7,274.9c0,36.2-29.3,65.6-65.6,65.6s-65.6-29.3-65.6-65.6s29.3-65.6,65.6-65.6c0,0,0,0,0,0
	C292.3,209.4,321.6,238.7,321.7,274.9z M461.2,269.8h-0.1c-1.4-59.4-28.5-115.2-74.3-153L341.4,143c44.7,28.9,71.8,78.6,71.8,131.8
	c0,86.6-70.5,157.1-157.1,157.1S99,361.5,99,274.9c0-81.9,63-149.3,143-156.4v39.1l108.8-62.8L242,32v38.3
	c-106.7,7.3-191,96-191,204.6c0,111.6,89.1,202.3,200.1,205v0.1h210.2L461.2,269.8L461.2,269.8z"/>
</svg>
