<?xml version="1.0" encoding="utf-8"?>
<!-- Generator: Adobe Illustrator 24.0.0, SVG Export Plug-In . SVG Version: 6.00 Build 0)  -->
<svg version="1.1" id="Layer_1" xmlns="http://www.w3.org/2000/svg" xmlns:xlink="http://www.w3.org/1999/xlink" x="0px" y="0px"
	 viewBox="0 0 512 512" style="enable-background:new 0 0 512 512;" xml:space="preserve">
<path d="M38.1,444.3c-9.6,10.8-7.5,27.6,4.5,35.7l68.8,27.9c9.9,6.7,23.3,5,31.3-3.8l91.8-101.9l-79.2-87.9L38.1,444.3L38.1,444.3z
	 M473.9,444.3c0,0-292-324.6-295.4-330.1c15.4-8.4,40.2-17.9,77.5-17.9s62.1,9.5,77.5,17.9c-3.3,5.6-56,64.6-56,64.6l79.1,87.7
	l34.2-38c28.7-31.9,33.3-78.6,11.4-115.5l-43.7-73.5c-4.3-7.2-9.9-13.3-16.8-18C301-6.1,214.3-8.2,170.3,21.5
	c-6.9,4.7-12.5,10.8-16.8,18l-43.6,73.2c-1.5,2.5-37.1,62.2,11.5,116L369.5,504c8,8.9,21.4,10.5,31.3,3.8l68.8-27.9
	C481.5,471.9,483.6,455.1,473.9,444.3L473.9,444.3z"/>
</svg>
