<?xml version="1.0" encoding="utf-8"?>
<!-- Generator: Adobe Illustrator 24.0.0, SVG Export Plug-In . SVG Version: 6.00 Build 0)  -->
<svg version="1.1" id="Layer_1" xmlns="http://www.w3.org/2000/svg" xmlns:xlink="http://www.w3.org/1999/xlink" x="0px" y="0px"
	 viewBox="0 0 512 512" style="enable-background:new 0 0 512 512;" xml:space="preserve">
<path d="M509.5,386.4L385.2,101.9c-4.4-10.1-14-16.6-24.6-16.6h-86.7l2.2,20.6c0.4,4.2-2.9,7.9-7.1,7.9H243c-4.2,0-7.5-3.7-7.1-7.9
	l2.2-20.6h-86.7c-10.6,0-20.2,6.5-24.6,16.6L2.5,386.4c-8.2,18.8,4.9,40.3,24.7,40.3h175l9.2-86.8c0.8-7.2,6.9-12.7,14.1-12.7h61.2
	c7.3,0,13.4,5.5,14.1,12.7l9.2,86.8h175C504.6,426.7,517.7,405.2,509.5,386.4L509.5,386.4z M231.5,148.6c0.4-3.6,3.4-6.4,7.1-6.4
	h34.9c3.6,0,6.7,2.7,7.1,6.4l4.1,38.7c0.7,6.3-4.3,11.8-10.6,11.8h-36c-6.3,0-11.3-5.5-10.6-11.8L231.5,148.6z M280.6,298.7h-49.1
	c-8.4,0-15-7.3-14.1-15.7l4.5-42.7c0.8-7.2,6.9-12.7,14.1-12.7h40.1c7.3,0,13.4,5.5,14.1,12.7l4.5,42.7
	C295.6,291.4,289,298.7,280.6,298.7z"/>
</svg>
