<?xml version="1.0" encoding="utf-8"?>
<!-- Generator: Adobe Illustrator 24.0.0, SVG Export Plug-In . SVG Version: 6.00 Build 0)  -->
<svg version="1.1" id="Layer_1" xmlns="http://www.w3.org/2000/svg" xmlns:xlink="http://www.w3.org/1999/xlink" x="0px" y="0px"
	 viewBox="0 0 512 512" style="enable-background:new 0 0 512 512;" xml:space="preserve">
<path d="M25.6,230.4h25.6V384H25.6C11.5,384,0,372.6,0,358.5c0,0,0,0,0-0.1V256C0,241.9,11.4,230.4,25.6,230.4
	C25.6,230.4,25.6,230.4,25.6,230.4z M435.2,192v217.6c0,28.3-22.9,51.2-51.2,51.2H128c-28.3,0-51.2-22.9-51.2-51.2V192
	c0-35.3,28.6-64,64-64c0,0,0,0,0,0h89.6V76.8c0-14.1,11.5-25.6,25.6-25.6c14.1,0,25.6,11.5,25.6,25.6V128h89.6
	C406.5,128,435.2,156.6,435.2,192C435.2,192,435.2,192,435.2,192z M211.2,256c0-17.7-14.3-32-32-32s-32,14.3-32,32s14.3,32,32,32
	C196.9,288,211.2,273.7,211.2,256C211.2,256,211.2,256,211.2,256z M204.8,358.4h-51.2V384h51.2V358.4z M281.6,358.4h-51.2V384h51.2
	V358.4z M364.8,256c0-17.7-14.3-32-32-32s-32,14.3-32,32s14.3,32,32,32C350.5,288,364.8,273.7,364.8,256
	C364.8,256,364.8,256,364.8,256z M358.4,358.4h-51.2V384h51.2V358.4z M512,256v102.4c0,14.1-11.4,25.6-25.5,25.6c0,0,0,0-0.1,0
	h-25.6V230.4h25.6C500.5,230.4,512,241.8,512,256C512,256,512,256,512,256z"/>
</svg>
