<?xml version="1.0" encoding="utf-8"?>
<!-- Generator: Adobe Illustrator 24.0.0, SVG Export Plug-In . SVG Version: 6.00 Build 0)  -->
<svg version="1.1" id="Layer_1" xmlns="http://www.w3.org/2000/svg" xmlns:xlink="http://www.w3.org/1999/xlink" x="0px" y="0px"
	 viewBox="0 0 512 512" style="enable-background:new 0 0 512 512;" xml:space="preserve">
<path d="M252.5,228.1c-16.8,0.1-30.4,13.8-30.3,30.7s13.8,30.4,30.7,30.3c16.8-0.1,30.3-13.7,30.3-30.5
	C283.1,241.7,269.4,228.1,252.5,228.1z M153.7,228.1c-16.8,0.1-30.4,13.8-30.3,30.7c0.1,16.8,13.8,30.4,30.7,30.3
	c16.8-0.1,30.3-13.7,30.3-30.5C184.4,241.7,170.6,228.1,153.7,228.1L153.7,228.1z M351.2,228.1c-16.8,0.1-30.4,13.8-30.3,30.7
	s13.8,30.4,30.7,30.3c16.8-0.1,30.3-13.7,30.3-30.5C381.8,241.7,368.1,228.1,351.2,228.1C351.2,228.1,351.2,228.1,351.2,228.1
	L351.2,228.1z M488.7,178.7c-13.9-21.6-33.3-40.7-57.8-56.9C383.6,90.7,321.5,73.5,256,73.5c-21.6,0-43.1,1.9-64.4,5.7
	c-13.3-12.8-28.2-23.8-44.3-32.7C87.7,16.7,35.1,27.8,8.5,37.4C1.9,39.7-1.6,47,0.8,53.7c0.6,1.7,1.6,3.3,2.8,4.6
	c18.7,19.4,49.7,57.7,42.1,92.5C16.1,181.1,0,217.6,0,255.6c0,38.8,16.1,75.3,45.7,105.6c7.6,34.8-23.4,73.1-42.1,92.5
	c-4.9,5.1-4.7,13.2,0.4,18.1c1.3,1.2,2.9,2.2,4.6,2.8c26.6,9.6,79.1,20.7,138.8-9.1c16.1-8.9,31-19.9,44.3-32.7
	c21.2,3.8,42.8,5.7,64.4,5.7c65.5,0,127.6-17.1,174.9-48.2c24.5-16.1,43.9-35.2,57.8-56.9c15.5-24.1,23.3-50,23.3-77
	C512,228.6,504.2,202.8,488.7,178.7L488.7,178.7z M253.3,393.6c-27,0.1-53.9-3.4-79.9-10.3l-18,17.3c-10,9.6-21.1,17.9-33.2,24.7
	c-14.7,7.3-30.6,11.9-46.9,13.3c0.9-1.6,1.7-3.2,2.5-4.8c18-33.2,22.9-63,14.6-89.5c-29.5-23.2-47.2-52.9-47.2-85.3
	c0-74.3,93.2-134.5,208.1-134.5s208.1,60.2,208.1,134.5C461.4,333.3,368.3,393.6,253.3,393.6z"/>
</svg>
