<?xml version="1.0" encoding="utf-8"?>
<!-- Generator: Adobe Illustrator 24.0.0, SVG Export Plug-In . SVG Version: 6.00 Build 0)  -->
<svg version="1.1" id="Layer_1" xmlns="http://www.w3.org/2000/svg" xmlns:xlink="http://www.w3.org/1999/xlink" x="0px" y="0px"
	 viewBox="0 0 512 512" style="enable-background:new 0 0 512 512;" xml:space="preserve">
<path d="M256,8C119,8,8,119,8,256s111,248,248,248s248-111,248-248S393,8,256,8z M413.4,427.5h-90l-112-131.3
	c-17.9-20.4-3.9-56.1,26.6-56.1h75.3l-84.6-99.3l-84.3,98.9h-90L201.5,67.2c14.4-18.4,41.3-17.3,54.5,0l157.7,185.1
	c19,22.8,2,57.2-27.6,56.1c-0.6,0-74.2,0.2-74.2,0.2L413.4,427.5L413.4,427.5z"/>
</svg>
