<?xml version="1.0" encoding="utf-8"?>
<!-- Generator: Adobe Illustrator 24.0.0, SVG Export Plug-In . SVG Version: 6.00 Build 0)  -->
<svg version="1.1" id="Layer_1" xmlns="http://www.w3.org/2000/svg" xmlns:xlink="http://www.w3.org/1999/xlink" x="0px" y="0px"
	 viewBox="0 0 512 512" style="enable-background:new 0 0 512 512;" xml:space="preserve">
<path d="M432,32H80c-26.5,0-48,21.5-48,48v352c0,26.5,21.5,48,48,48h352c26.5,0,48-21.5,48-48V80C480,53.5,458.5,32,432,32z
	 M144,416c-26.5,0-48-21.5-48-48s21.5-48,48-48s48,21.5,48,48S170.5,416,144,416z M301.5,416h-34.3c-6,0-11.1-4.6-11.4-10.6
	c-5.2-80.1-69.2-143.9-149.1-149.1c-6-0.4-10.6-5.4-10.6-11.4v-34.3c0-6.5,5.5-11.8,12-11.4c110.5,6,199,94.5,205,205
	C313.3,410.5,308.1,416,301.5,416L301.5,416z M404.6,416h-34.3c-6.2,0-11.2-4.9-11.4-11C353.2,268.4,243.6,158.8,107,153.2
	c-6.2-0.3-11-5.3-11-11.4v-34.3c0-6.5,5.3-11.7,11.8-11.4C275.6,102,410,237.2,416,404.2C416.2,410.7,411,416,404.6,416L404.6,416z"
	/>
</svg>
