<?xml version="1.0" encoding="utf-8"?>
<!-- Generator: Adobe Illustrator 24.0.0, SVG Export Plug-In . SVG Version: 6.00 Build 0)  -->
<svg version="1.1" id="Layer_1" xmlns="http://www.w3.org/2000/svg" xmlns:xlink="http://www.w3.org/1999/xlink" x="0px" y="0px"
	 viewBox="0 0 512 512" style="enable-background:new 0 0 512 512;" xml:space="preserve">
<path d="M160.1,416c0,35.4-28.7,64-64,64s-64-28.7-64-64s28.7-64,64-64S160.1,380.6,160.1,416L160.1,416z M335.7,463.2
	c-8.4-154.6-132.2-278.6-287-287c-9.1-0.5-16.8,6.8-16.8,16v48.1c0,8.4,6.5,15.5,14.9,16c111.8,7.3,201.5,96.7,208.8,208.8
	c0.5,8.4,7.6,14.9,16,14.9h48.1C328.9,480,336.2,472.3,335.7,463.2L335.7,463.2z M480,463.5C471.6,229.7,283.5,40.4,48.5,32
	c-9-0.3-16.5,7-16.5,16v48.1c0,8.6,6.8,15.6,15.5,16c191.2,7.8,344.6,161.3,352.5,352.5c0.4,8.6,7.4,15.5,16,15.5H464
	C473,480,480.3,472.5,480,463.5z"/>
</svg>
