<?xml version="1.0" encoding="utf-8"?>
<!-- Generator: Adobe Illustrator 24.0.0, SVG Export Plug-In . SVG Version: 6.00 Build 0)  -->
<svg version="1.1" id="Layer_1" xmlns="http://www.w3.org/2000/svg" xmlns:xlink="http://www.w3.org/1999/xlink" x="0px" y="0px"
	 viewBox="0 0 512 512" style="enable-background:new 0 0 512 512;" xml:space="preserve">
<path d="M483.6,142.2h-42.7v78.2c0,3.9-3.2,7.1-7.1,7.1h-14.2c-3.9,0-7.1-3.2-7.1-7.1v-78.2h-56.9v78.2c0,3.9-3.2,7.1-7.1,7.1h-14.2
	c-3.9,0-7.1-3.2-7.1-7.1v-78.2h-56.9v78.2c0,3.9-3.2,7.1-7.1,7.1h-14.2c-3.9,0-7.1-3.2-7.1-7.1v-78.2h-56.9v78.2
	c0,3.9-3.2,7.1-7.1,7.1h-14.2c-3.9,0-7.1-3.2-7.1-7.1v-78.2H99.6v78.2c0,3.9-3.2,7.1-7.1,7.1H78.2c-3.9,0-7.1-3.2-7.1-7.1v-78.2
	H28.4C12.7,142.2,0,155,0,170.7v170.7c0,15.7,12.7,28.4,28.4,28.4h455.1c15.7,0,28.4-12.7,28.4-28.4V170.7
	C512,155,499.3,142.2,483.6,142.2z"/>
</svg>
