<?xml version="1.0" encoding="utf-8"?>
<!-- Generator: Adobe Illustrator 24.0.0, SVG Export Plug-In . SVG Version: 6.00 Build 0)  -->
<svg version="1.1" id="Layer_1" xmlns="http://www.w3.org/2000/svg" xmlns:xlink="http://www.w3.org/1999/xlink" x="0px" y="0px"
	 viewBox="0 0 512 512" style="enable-background:new 0 0 512 512;" xml:space="preserve">
<path d="M508.5,185L444.9,76.6c-7-12-22.6-16.1-34.8-9.2l-55.2,31.3l47.8,81.4c1.8,3,0.7,6.8-2.3,8.6l-11,6.2c-3,1.8-7,0.7-8.7-2.3
	l-47.8-81.3l-44.2,25l22.3,37.9c1.8,3,0.7,6.8-2.3,8.6l-11,6.2c-3,1.8-7,0.7-8.7-2.3l-22.3-37.8l-44.2,25l47.8,81.4
	c1.8,3,0.7,6.8-2.3,8.6l-11,6.2c-3,1.8-7,0.7-8.7-2.3l-47.8-81.4l-44.2,25l22.3,37.9c1.8,3,0.7,6.8-2.3,8.6l-11,6.2
	c-3,1.8-7,0.7-8.7-2.3l-22.3-38l-44.2,25l47.8,81.4c1.8,3,0.7,6.8-2.3,8.6l-11,6.2c-3,1.8-7,0.7-8.7-2.3l-47.8-81.1l-55.2,31.3
	C0.6,299.8-3.7,315,3.4,327L67,435.5c7,12,22.6,16.1,34.8,9.2l397.4-225.5C511.4,212.3,515.6,197,508.5,185L508.5,185z"/>
</svg>
