<?xml version="1.0" encoding="utf-8"?>
<!-- Generator: Adobe Illustrator 24.0.0, SVG Export Plug-In . SVG Version: 6.00 Build 0)  -->
<svg version="1.1" id="Layer_1" xmlns="http://www.w3.org/2000/svg" xmlns:xlink="http://www.w3.org/1999/xlink" x="0px" y="0px"
	 viewBox="0 0 512 512" style="enable-background:new 0 0 512 512;" xml:space="preserve">
<path d="M296,416c-4.4,0-8-3.6-8-8v-16c0-4.4,3.6-8,8-8h88v-64h-88c-4.4,0-8-3.6-8-8v-16c0-4.4,3.6-8,8-8h88v-64h-88
	c-4.4,0-8-3.6-8-8v-16c0-4.4,3.6-8,8-8h88v-64h-88c-4.4,0-8-3.6-8-8v-16c0-4.4,3.6-8,8-8h88V32c0-17.7-14.3-32-32-32H160
	c-17.7,0-32,14.3-32,32v448c0,17.7,14.3,32,32,32h192c17.7,0,32-14.3,32-32v-64H296z"/>
</svg>
