<?xml version="1.0" encoding="utf-8"?>
<!-- Generator: Adobe Illustrator 24.0.0, SVG Export Plug-In . SVG Version: 6.00 Build 0)  -->
<svg version="1.1" id="Layer_1" xmlns="http://www.w3.org/2000/svg" xmlns:xlink="http://www.w3.org/1999/xlink" x="0px" y="0px"
	 viewBox="0 0 512 512" style="enable-background:new 0 0 512 512;" xml:space="preserve">
<path d="M320,96c26.5,0,48-21.5,48-48S346.5,0,320,0s-48,21.5-48,48S293.5,96,320,96z M161.7,317.5L146.9,352H80
	c-17.7,0-32,14.3-32,32s14.3,32,32,32h77.4c19.3,0,36.6-11.4,44.1-29.1l8.8-20.5l-10.7-6.3C182.4,349.9,169.6,334.7,161.7,317.5
	L161.7,317.5z M432,224h-44l-26.1-53.3c-12.5-25.6-35.5-44.2-61.8-50.9l-71.1-21.1c-28.3-6.8-57.8-0.6-80.8,17.1l-39.7,30.4
	c-14,10.8-16.7,30.8-5.9,44.9s30.8,16.7,44.9,5.9l39.7-30.4c7.7-5.9,17.4-8,25.3-6.1l14.7,4.4l-37.5,87.4
	c-12.6,29.5-1.3,64,26.3,80.3l85,50.2l-27.5,87.7c-5.3,16.9,4.1,34.8,21,40.1c3.2,1,6.4,1.5,9.6,1.5c13.6,0,26.2-8.8,30.5-22.5
	l31.6-101.1c5.9-20.8-2.9-43.1-21.6-54.4l-61.2-36.1l31.3-78.3l20.3,41.4c8,16.3,24.9,26.9,43.1,26.9h54c17.7,0,32-14.3,32-32
	S449.7,224,432,224L432,224z"/>
</svg>
