<?xml version="1.0" encoding="utf-8"?>
<!-- Generator: Adobe Illustrator 24.0.0, SVG Export Plug-In . SVG Version: 6.00 Build 0)  -->
<svg version="1.1" id="Layer_1" xmlns="http://www.w3.org/2000/svg" xmlns:xlink="http://www.w3.org/1999/xlink" x="0px" y="0px"
	 viewBox="0 0 512 512" style="enable-background:new 0 0 512 512;" xml:space="preserve">
<path d="M404,96c6.6,0,12-5.4,12-12V44c0-6.6-5.4-12-12-12H108c-6.6,0-12,5.4-12,12v44.7c0,6.6,5.4,12,12,12h85.3
	c27.3,0,48.3,10,61,27.3H108c-6.6,0-12,5.4-12,12v40c0,6.6,5.4,12,12,12h158.8c-6.2,36.1-33,58.6-74.8,58.6h-84c-6.6,0-12,5.4-12,12
	v53c0,3.3,1.4,6.5,3.9,8.8l165.1,152.4c2.2,2,5.1,3.2,8.1,3.2h82.6c10.9,0,16.2-13.4,8.1-20.8L212.9,319.9
	c76.5-2.3,131.1-53.4,138.3-127.9H404c6.6,0,12-5.4,12-12v-40c0-6.6-5.4-12-12-12h-58.7c-3.5-11.5-8.3-22.2-14.3-32H404z"/>
</svg>
