<?xml version="1.0" encoding="utf-8"?>
<!-- Generator: Adobe Illustrator 24.0.0, SVG Export Plug-In . SVG Version: 6.00 Build 0)  -->
<svg version="1.1" id="Layer_1" xmlns="http://www.w3.org/2000/svg" xmlns:xlink="http://www.w3.org/1999/xlink" x="0px" y="0px"
	 viewBox="0 0 512 512" style="enable-background:new 0 0 512 512;" xml:space="preserve">
<path d="M256,8C119,8,8,119,8,256c0,90.1,48.2,168.7,120,212.1V288c0-8.8,7.2-16,16-16s16,7.2,16,16v196.7
	c29.5,12.4,62,19.3,96,19.3s66.5-6.9,96-19.3V288c0-8.8,7.2-16,16-16s16,7.2,16,16v180.1C455.8,424.7,504,346,504,256
	C504,119,393,8,256,8z M190.5,224.5c-14.8-13.2-46.2-13.2-61,0L120,233c-3.8,3.3-9.3,4-13.7,1.6c-4.4-2.4-6.9-7.4-6.1-12.4
	c4-25.2,34.2-42.1,59.9-42.1S216,197,220,222.2c0.8,5-1.7,10-6.1,12.4c-5.8,3.1-11.2,0.7-13.7-1.6L190.5,224.5L190.5,224.5z
	 M256,416c-26.5,0-48-28.7-48-64s21.5-64,48-64s48,28.7,48,64S282.5,416,256,416z M405.8,234.5c-5.8,3.1-11.2,0.7-13.7-1.6l-9.5-8.5
	c-14.8-13.2-46.2-13.2-61,0L312,233c-3.8,3.3-9.3,4-13.7,1.6c-4.4-2.4-6.9-7.4-6.1-12.4c4-25.2,34.2-42.1,59.9-42.1
	S408,197,412,222.2C412.6,227.1,410.2,232.1,405.8,234.5z"/>
</svg>
