<?xml version="1.0" encoding="utf-8"?>
<!-- Generator: Adobe Illustrator 24.0.0, SVG Export Plug-In . SVG Version: 6.00 Build 0)  -->
<svg version="1.1" id="Layer_1" xmlns="http://www.w3.org/2000/svg" xmlns:xlink="http://www.w3.org/1999/xlink" x="0px" y="0px"
	 viewBox="0 0 512 512" style="enable-background:new 0 0 512 512;" xml:space="preserve">
<path d="M256,8C119,8,8,119,8,256s111,248,248,248s248-111,248-248S393,8,256,8z M400,394.4V280c0-13.2-10.8-24-24-24
	s-24,10.8-24,24v151.4C323.5,447,290.8,456,256,456s-67.5-9-96-24.6V280c0-13.2-10.8-24-24-24s-24,10.8-24,24v114.4
	c-34.6-36-56-84.7-56-138.4c0-110.3,89.7-200,200-200s200,89.7,200,200C456,309.7,434.6,358.5,400,394.4z M213.8,234.5
	c4.4-2.4,6.9-7.4,6.1-12.4c-4-25.2-34.2-42.1-59.8-42.1s-55.9,16.9-59.8,42.1c-0.8,5,1.7,10,6.1,12.4s9.9,1.8,13.7-1.6l9.5-8.5
	c14.8-13.2,46.2-13.2,61,0l9.5,8.5C202.6,235.2,208,237.7,213.8,234.5z M352,180c-25.7,0-55.9,16.9-59.8,42.1
	c-0.8,5,1.7,10,6.1,12.4c4.5,2.4,9.9,1.8,13.7-1.6l9.5-8.5c14.8-13.2,46.2-13.2,61,0l9.5,8.5c2.5,2.2,8,4.7,13.7,1.6
	c4.4-2.4,6.9-7.4,6.1-12.4C407.9,196.9,377.7,180,352,180L352,180z M256,272c-30.9,0-56,28.7-56,64s25.1,64,56,64s56-28.7,56-64
	S286.9,272,256,272z"/>
</svg>
