<?xml version="1.0" encoding="utf-8"?>
<!-- Generator: Adobe Illustrator 24.0.0, SVG Export Plug-In . SVG Version: 6.00 Build 0)  -->
<svg version="1.1" id="Layer_1" xmlns="http://www.w3.org/2000/svg" xmlns:xlink="http://www.w3.org/1999/xlink" x="0px" y="0px"
	 viewBox="0 0 512 512" style="enable-background:new 0 0 512 512;" xml:space="preserve">
<path d="M256,8C119,8,8,119,8,256s111,248,248,248s248-111,248-248S393,8,256,8z M336,176c17.7,0,32,14.3,32,32s-14.3,32-32,32
	s-32-14.3-32-32S318.3,176,336,176z M160,416c-26.5,0-48-21-48-47c0-20,28.5-60.4,41.6-77.8c3.2-4.3,9.6-4.3,12.8,0
	C179.5,308.6,208,349,208,369C208,395,186.5,416,160,416z M176,240c-17.7,0-32-14.3-32-32s14.3-32,32-32s32,14.3,32,32
	S193.7,240,176,240z M346.2,394.2C323.8,367.4,290.9,352,256,352c-21.2,0-21.2-32,0-32c44.4,0,86.3,19.6,114.7,53.8
	C384.5,390.2,359.5,410.3,346.2,394.2L346.2,394.2z"/>
</svg>
