<?xml version="1.0" encoding="utf-8"?>
<!-- Generator: Adobe Illustrator 24.0.0, SVG Export Plug-In . SVG Version: 6.00 Build 0)  -->
<svg version="1.1" id="Layer_1" xmlns="http://www.w3.org/2000/svg" xmlns:xlink="http://www.w3.org/1999/xlink" x="0px" y="0px"
	 viewBox="0 0 512 512" style="enable-background:new 0 0 512 512;" xml:space="preserve">
<path d="M199.1,247.7H178c0.6-4.2,2.6-11.3,10.9-11.3C194.3,236.4,198.5,239.4,199.1,247.7z M308.4,236.6c-0.4,0-11.3-1.4-11.3,16
	s10.9,16,11.3,16c10.4,0,11.3-10.8,11.3-16C319.8,235.2,308.8,236.6,308.4,236.6L308.4,236.6z M113.8,255.6
	c-1.8,1.4-2.8,3.6-2.6,5.8c0,3.8,1.7,4.8,2.6,5.6c3.8,3,12.1,1.7,16.7,0.8v-13.5C126.3,253.4,117.2,252.7,113.8,255.6z M512,236.8
	c0,70.1-64,123.5-132.3,109.1c-14.7,26.4-56.6,56.6-105.8,33.3c-33,76.8-142.3,73.8-171-4.2c-95.8,19.1-143-110.7-60.2-159.4
	C14.9,152.2,60.8,76.8,134.2,76.8c30.9,0,60.1,14.4,78.9,39c16.6-17.1,39.5-27.8,64.9-27.8c33.8,0,63.2,18.8,79,46.9
	C431.2,102.2,512,157.4,512,236.8z M96.4,262.2c0-9.4-9.4-12.2-14.3-13.8c-4.2-1.7-10.7-2.8-10.7-7.1c0-7.6,13.6-5.4,20.2-1.7
	c0,0,1,0.6,1.3-0.4c0.2-0.6,1.9-5.3,2.1-5.8c0.2-0.5-0.1-1-0.6-1.1c-9.8-6.1-32.6-6.8-32.6,10.2c0,10,9.2,12.3,14.3,13.8
	c3.8,1.3,10.6,2.4,10.6,7c0,3.2-2.8,5.7-7.4,5.7c-5.5,0-10.8-1.8-15.2-5.1c-0.4-0.2-1.1-0.6-1.4,0.6l-1.9,6c-0.4,0.7,0.2,1,0.2,1.1
	c1.4,1.1,8.2,5.3,18.2,5.3C89.8,276.7,96.4,271,96.4,262.2L96.4,262.2z M122,228.2c-8.1,0-15,2.6-17.1,4.2c-0.4,0.2-0.5,0.7-0.2,1.1
	l0,0l2.1,5.7c0.1,0.4,0.6,0.6,1,0.6c0.5,0,5.4-3.2,13.5-3.2c3.2,0,5.7,0.6,7.4,1.9c2.9,2.2,2.5,6.6,2.5,8.5
	c-3.8-0.2-15.3-2.7-23.5,3c-3.8,2.6-6,7-5.8,11.6c0,4.7,1.2,8.3,5.3,11.5c9.8,6.6,29,1.6,30.5,1.1c1.3-0.2,2.8-0.6,2.8-1.5v-27.1
	C140.2,241.8,140.4,228.2,122,228.2L122,228.2z M159.2,211.4c0-0.5-0.3-0.9-0.8-1h-0.1h-7.9c-0.5,0-0.9,0.3-1,0.8v0.1v63.2
	c0,0.5,0.3,0.9,0.8,1h0.1h7.9c0.5,0,0.9-0.3,1-0.8v-0.1V211.4z M203.8,234.6c-1.7-1.8-5.4-6-14.1-6c-2.8,0-11.4,0.2-16.6,7.1
	c-5.1,6.1-5.3,14.5-5.3,17.1c0,2.5,0.1,11.4,5.7,17c2.1,2.3,7.3,6.6,18.2,6.6c8.6,0,13.2-1.9,14.9-3c0.4-0.2,0.6-0.6,0.2-1.5
	l-1.9-5.4c-0.2-0.4-0.6-0.6-1.1-0.6c-2.1,0.7-5.1,2.2-12.2,2.2c-13.9,0-13.5-11.8-13.5-13.4h29.8c0.5,0,0.8-0.3,1-0.7
	C208.5,253.9,210.3,242.2,203.8,234.6L203.8,234.6z M233.1,276.7c10.6,0,17.1-5.7,17.1-14.5c0-9.4-9.4-12.2-14.3-13.8
	c-3.3-1.4-10.7-2.7-10.7-7.1c0-3,2.6-5.1,6.8-5.1c4.6,0.1,9.2,1.3,13.4,3.4c0,0,1,0.6,1.3-0.4c0.2-0.6,1.9-5.3,2.1-5.8
	c0.2-0.5-0.1-1-0.6-1.1c-6.3-3.9-13.4-3.9-16.2-3.9c-9.6,0-16.4,5.8-16.4,14.1c0,10,9.2,12.3,14.3,13.8c4.9,1.6,10.6,2.6,10.6,7
	c0,3.2-2.8,5.7-7.4,5.7c-5.5,0-10.8-1.8-15.2-5.1c-0.3-0.3-0.9-0.2-1.1,0.1c-0.1,0.2-0.2,0.3-0.2,0.5l-1.9,6c-0.4,0.7,0.2,1,0.2,1.1
	C216.3,272.6,223.2,276.7,233.1,276.7L233.1,276.7z M285.7,230.4c0-0.6-0.2-1-1-1h-9.4c0-0.1,0.7-7.1,3.6-10
	c3.4-3.3,9.4-1.3,9.6-1.3c1,0.4,1.1,0,1.3-0.4l2.2-6.2c0.6-0.7,0-1-0.2-1.1c-4.1-1.6-13.9-2.3-19.6,3.4c-4.4,4.4-5.6,11.1-6.4,15.6
	H259c-0.5,0.1-0.9,0.5-1,1l-1.1,6.2c0,0.6,0.2,1,1,1h6.6c-6.8,38.3-7,40.2-8.3,44.4c-0.9,2.9-2.6,5.5-4.7,6.2
	c-0.1,0-3.1,1.4-7.7-0.2c0,0-0.7-0.4-1.1,0.6c-0.2,0.6-2.1,5.4-2.2,6c-0.2,0.6,0,1.1,0.4,1.1c4.1,1.6,10.4,1.4,14.3,0
	c5-1.8,7.8-6.3,9.2-10.3c2.2-6.2,2.2-7.8,9.4-47.8h9.8c0.5-0.1,0.9-0.5,1-1L285.7,230.4z M328.4,243.2c-0.5-1.4-4.1-14.5-20.2-14.5
	c-12.2,0-18.4,8-20.2,14.5c-0.8,2.4-2.6,11.2,0,18.8c0.1,0.2,3.5,14.5,20.2,14.5c12,0,18.3-7.7,20.2-14.5
	C331,254.3,329.2,245.6,328.4,243.2L328.4,243.2z M364.7,229.8c-4-1.3-13.3-1.5-17.7,4.3v-3.6c0-0.5-0.3-0.9-0.8-1h-0.1h-7.5
	c-0.5,0-0.9,0.3-1,0.8v0.1v44.2c0,0.5,0.3,0.9,0.9,1h0.1h7.7c0.5,0,0.9-0.3,1-0.9v-0.1v-22.2c0-2.3,0-9.1,3.6-12.1
	c3.9-3.9,9.6-2.7,10.7-2.5c0.5,0,1-0.3,1.1-0.7c1-2.1,1.8-4.2,2.5-6.4C365.3,230.6,365.1,230.1,364.7,229.8L364.7,229.8z
	 M402.2,273.1l-1.7-5.8c-0.4-1-1.1-0.6-1.1-0.6c-3.4,1.4-8.1,1.5-9,1.5c-3.7,0-13.8-0.9-13.8-15.8c0-5,1.5-15.8,13.2-15.8
	c3.1-0.1,6.2,0.4,9.2,1.3c0,0,0.7,0.4,1-0.6c0.7-2.1,1.3-3.6,2.1-6c0.2-0.7-0.4-1-0.6-1c-9.3-3.1-17.8-2-22.2,0
	c-1.3,0.6-13,5.2-13,22c0,2.3-0.5,24.1,23.1,24.1c4.2,0,8.5-0.8,12.4-2.2C402.2,274,402.2,273.5,402.2,273.1L402.2,273.1z
	 M445.3,241.5c-0.6-2.4-4.3-13-17.8-13c-12.8,0-18.8,8.1-20.5,14.9c-1,3-1.4,6.2-1.3,9.4c0,20.7,15,23.5,23.9,23.5
	c8.6,0,13.2-1.9,14.9-3c0.4-0.2,0.6-0.6,0.2-1.5l-1.9-5.4c-0.2-0.4-0.6-0.6-1.1-0.6c-2.1,0.7-5,2.2-12.2,2.2
	c-13.9,0-13.4-11.8-13.5-13.4h29.8c0.5,0,0.8-0.3,1-0.7C446.2,253.9,447.1,248.2,445.3,241.5L445.3,241.5z M426.6,236.4
	c-8.2,0-10.4,7.2-10.9,11.3h21C436.1,238.2,430.7,236.4,426.6,236.4L426.6,236.4z"/>
</svg>
