<?xml version="1.0" encoding="utf-8"?>
<!-- Generator: Adobe Illustrator 24.0.0, SVG Export Plug-In . SVG Version: 6.00 Build 0)  -->
<svg version="1.1" id="Layer_1" xmlns="http://www.w3.org/2000/svg" xmlns:xlink="http://www.w3.org/1999/xlink" x="0px" y="0px"
	 viewBox="0 0 512 512" style="enable-background:new 0 0 512 512;" xml:space="preserve">
<path d="M465.9,129.9l-83.9-83.9c-9-9-21.2-14.1-33.9-14.1H80c-26.5,0-48,21.5-48,48v352c0,26.5,21.5,48,48,48h352
	c26.5,0,48-21.5,48-48V163.9C480,151.2,474.9,138.9,465.9,129.9L465.9,129.9z M256,416c-35.3,0-64-28.7-64-64s28.7-64,64-64
	s64,28.7,64,64S291.3,416,256,416z M352,111.5V212c0,6.6-5.4,12-12,12H108c-6.6,0-12-5.4-12-12V108c0-6.6,5.4-12,12-12h228.5
	c3.2,0,6.2,1.3,8.5,3.5l3.5,3.5C350.7,105.2,352,108.3,352,111.5z"/>
</svg>
