<?xml version="1.0" encoding="utf-8"?>
<!-- Generator: Adobe Illustrator 24.0.0, SVG Export Plug-In . SVG Version: 6.00 Build 0)  -->
<svg version="1.1" id="Layer_1" xmlns="http://www.w3.org/2000/svg" xmlns:xlink="http://www.w3.org/1999/xlink" x="0px" y="0px"
	 viewBox="0 0 512 512" style="enable-background:new 0 0 512 512;" xml:space="preserve">
<path d="M465.9,129.9l-83.9-83.9c-9-9-21.2-14.1-33.9-14.1H80c-26.5,0-48,21.5-48,48v352c0,26.5,21.5,48,48,48h352
	c26.5,0,48-21.5,48-48V163.9C480,151.2,474.9,138.9,465.9,129.9L465.9,129.9z M304,80v80H176V80H304z M426,432H86c-3.3,0-6-2.7-6-6
	V86c0-3.3,2.7-6,6-6h42v104c0,13.3,10.7,24,24,24h176c13.3,0,24-10.7,24-24V83.9l78.2,78.2c1.1,1.1,1.8,2.7,1.8,4.2V426
	C432,429.3,429.3,432,426,432L426,432z M256,232c-48.5,0-88,39.5-88,88s39.5,88,88,88s88-39.5,88-88S304.5,232,256,232z M256,360
	c-22.1,0-40-17.9-40-40s17.9-40,40-40s40,17.9,40,40S278.1,360,256,360z"/>
</svg>
