<?xml version="1.0" encoding="utf-8"?>
<!-- Generator: Adobe Illustrator 24.0.0, SVG Export Plug-In . SVG Version: 6.00 Build 0)  -->
<svg version="1.1" id="Layer_1" xmlns="http://www.w3.org/2000/svg" xmlns:xlink="http://www.w3.org/1999/xlink" x="0px" y="0px"
	 viewBox="0 0 512 512" style="enable-background:new 0 0 512 512;" xml:space="preserve">
<path d="M382.5,157.7l-54.2-46.1l73.4-39l78.3,44.2L382.5,157.7L382.5,157.7z M224,122.1l45.7-28.2l34.7,34.6l-55.4,29L224,122.1z
	 M158.9,128.7l31.9-22.1L208,135l-36.7,22.5L158.9,128.7z M135.6,216.9l-8.8-34.8l29.6-18.3l13.1,35.3
	C169.5,199.1,135.6,216.9,135.6,216.9z M114.4,133.2l23.9-18.1l8.9,24l-26.7,18.3L114.4,133.2L114.4,133.2z M91,206.5l-3.6-28.4
	l22.3-15.5l6.1,28.7L91,206.5z M60.4,223.1l20.8-12.8l3.3,33.4l-22.9,12C61.6,255.7,60.4,223.1,60.4,223.1z M33.4,268l19.2-10.2
	L53,296l-21,8.8L33.4,268z M92.5,327.3l-28.3,8.3l-1.6-46.8l25.1-10.7L92.5,327.3z M131,263.2l-31.1,13l-5.2-40.8l27.4-14.4
	L131,263.2z M155.2,377l-41.6,5.9l-8.1-63.5l35.2-10.8L155.2,377z M183.7,237.1l21.2,57.1l-46.2,13.6L145,253.7L183.7,237.1z
	 M269.4,467.6l-70.9-3.3l-24.3-95.8l55.2-8.6L269.4,467.6L269.4,467.6z M184.5,187.9l42.2-22.4l28,45.9l-50.8,21.3L184.5,187.9z
	 M225.5,282.8l61.3-18.7l52.8,86.6L259.8,362L225.5,282.8z M276.9,197.2l67.3-28.8l65.5,65.4L321.1,260L276.9,197.2L276.9,197.2z"/>
</svg>
