<?xml version="1.0" encoding="utf-8"?>
<!-- Generator: Adobe Illustrator 24.0.0, SVG Export Plug-In . SVG Version: 6.00 Build 0)  -->
<svg version="1.1" id="Layer_1" xmlns="http://www.w3.org/2000/svg" xmlns:xlink="http://www.w3.org/1999/xlink" x="0px" y="0px"
	 viewBox="0 0 512 512" style="enable-background:new 0 0 512 512;" xml:space="preserve">
<path d="M0,230.4V448c0,7,5.8,12.8,12.8,12.8h64v-256H25.6C11.4,204.8,0,216.2,0,230.4z M288,192h-19.2v-32c0-3.5-2.9-6.4-6.4-6.4
	h-12.8c-3.5,0-6.4,2.9-6.4,6.4v51.2c0,3.5,2.9,6.4,6.4,6.4H288c3.5,0,6.4-2.9,6.4-6.4v-12.8C294.4,194.9,291.5,192,288,192z
	 M398.2,140.8l-128-85.3c-8.6-5.8-19.8-5.8-28.4,0l-128,85.3c-7.2,4.8-11.4,12.8-11.4,21.4v298.6h102.4V345.6
	c0-7,5.8-12.8,12.8-12.8h76.8c7,0,12.8,5.8,12.8,12.8v115.2h102.4V162.2C409.6,153.6,405.3,145.6,398.2,140.8z M256,256
	c-35.4,0-64-28.6-64-64s28.6-64,64-64s64,28.6,64,64S291.4,256,256,256z M486.4,204.8h-51.2v256h64c7,0,12.8-5.8,12.8-12.8V230.4
	C512,216.2,500.6,204.8,486.4,204.8z"/>
</svg>
