<?xml version="1.0" encoding="utf-8"?>
<!-- Generator: Adobe Illustrator 24.0.0, SVG Export Plug-In . SVG Version: 6.00 Build 0)  -->
<svg version="1.1" id="Layer_1" xmlns="http://www.w3.org/2000/svg" xmlns:xlink="http://www.w3.org/1999/xlink" x="0px" y="0px"
	 viewBox="0 0 512 512" style="enable-background:new 0 0 512 512;" xml:space="preserve">
<path d="M38.4,51.2C17.2,51.2,0,68.4,0,89.6v51.2c0,7.1,5.7,12.8,12.8,12.8h64v-64C76.8,68.4,59.6,51.2,38.4,51.2z M204.8,381.3
	v-48.5h230.4V128c0-42.4-34.4-76.8-76.8-76.8H89.3c8.1,10.7,13.1,23.9,13.1,38.4V384c0,31.1,27.7,55.7,59.8,50.5
	C187.4,430.4,204.8,406.8,204.8,381.3z M230.4,358.4V384c0,42.3-34.4,76.8-76.8,76.8h268.8c49.5,0,89.6-40.1,89.6-89.6
	c0-7.1-5.7-12.8-12.8-12.8H230.4z"/>
</svg>
