<?xml version="1.0" encoding="utf-8"?>
<!-- Generator: Adobe Illustrator 24.0.0, SVG Export Plug-In . SVG Version: 6.00 Build 0)  -->
<svg version="1.1" id="Layer_1" xmlns="http://www.w3.org/2000/svg" xmlns:xlink="http://www.w3.org/1999/xlink" x="0px" y="0px"
	 viewBox="0 0 512 512" style="enable-background:new 0 0 512 512;" xml:space="preserve">
<path d="M246.6,130.3l-67.2,28.2V43.2l-54.7,190.3l54.7-24.2v130.3L246.6,130.3L246.6,130.3z M163.4,33.6l-1.3,4.7l-15.2,52.9
	C106.6,106.7,78,145.8,78,191.5c0,52.3,34.3,95.9,83.4,105.5v53.6C83.5,340.1,26,272.4,26,191.6C26,111.1,85.8,44.4,163.4,33.6
	L163.4,33.6z M474.8,480.8c-11.2,11.2-23.1,12.3-28.6,10.5c-5.4-1.8-27.1-19.9-60.4-44.4c-33.3-24.6-33.6-35.7-43-56.7
	c-9.4-20.9-30.4-42.6-57.5-52.4l-9.7-14.7c-24.7,16.9-53,26.9-81.3,28.7l2.1-6.6l15.9-49.5c46.5-11.9,80.9-54,80.9-104.2
	c0-54.5-38.4-102.1-96-107.1V32.3C280.4,37.4,346,106.8,346,191.6c0,33.6-11.2,64.7-29,90.4l14.6,9.6c9.8,27.1,31.5,48,52.4,57.4
	s32.2,9.7,56.8,43c24.6,33.2,42.7,54.9,44.5,60.3S486,469.6,474.8,480.8L474.8,480.8z M464.9,462.9c0-4.4-3.6-8-8-8s-8,3.6-8,8
	s3.6,8,8,8S464.9,467.3,464.9,462.9z"/>
</svg>
