<?xml version="1.0" encoding="utf-8"?>
<!-- Generator: Adobe Illustrator 24.0.0, SVG Export Plug-In . SVG Version: 6.00 Build 0)  -->
<svg version="1.1" id="Layer_1" xmlns="http://www.w3.org/2000/svg" xmlns:xlink="http://www.w3.org/1999/xlink" x="0px" y="0px"
	 viewBox="0 0 512 512" style="enable-background:new 0 0 512 512;" xml:space="preserve">
<path d="M435.3,240.8c2.5-10,3.5-20.3,3.5-30.5c0-75.5-61.5-137-137-137c-63,0-118,43.2-133,104.3c-12.5-10.7-28.5-16.7-45-16.7
	c-37.8,0-68.5,30.7-68.5,68.5c0,6,0.8,12.2,2.5,18.2C22.7,264,0,299.5,0,338.2c0,55.5,45.2,100.5,100.5,100.5h311
	c55.2,0,100.5-45,100.5-100.5C512,292.2,480.3,251.8,435.3,240.8L435.3,240.8z M158,374.8c0,6.8-5.8,12.5-12.5,12.5h-25.2
	c-6.8,0-12.5-5.8-12.5-12.5v-90.5c0-6.7,5.8-12.5,12.5-12.5h25.2c6.8,0,12.5,5.8,12.5,12.5V374.8L158,374.8z M231,374.8
	c0,6.8-5.8,12.5-12.5,12.5h-25.2c-6.8,0-12.5-5.8-12.5-12.5V267.5c0-6.8,5.8-12.5,12.5-12.5h25.2c6.8,0,12.5,5.8,12.5,12.5V374.8
	L231,374.8z M304,374.8c0,6.8-5.7,12.5-12.5,12.5h-25.2c-6.8,0-12.5-5.8-12.5-12.5V242c0-6.8,5.8-12.5,12.5-12.5h25.2
	c6.8,0,12.5,5.8,12.5,12.5V374.8L304,374.8z M375,374.8c0,6.8-5.8,12.5-12.5,12.5h-23.2c-6.8,0-12.5-5.8-12.5-12.5V191.5
	c0-7,5.7-12.8,12.5-12.8h23.2c6.8,0,12.5,5.8,12.5,12.8V374.8L375,374.8z"/>
</svg>
