<?xml version="1.0" encoding="utf-8"?>
<!-- Generator: Adobe Illustrator 24.0.0, SVG Export Plug-In . SVG Version: 6.00 Build 0)  -->
<svg version="1.1" id="Layer_1" xmlns="http://www.w3.org/2000/svg" xmlns:xlink="http://www.w3.org/1999/xlink" x="0px" y="0px"
	 viewBox="0 0 512 512" style="enable-background:new 0 0 512 512;" xml:space="preserve">
<path d="M385.4,32H126.7C74.6,32,32,74.6,32,126.6v258.7c0,52.1,42.6,94.7,94.7,94.7h258.7c52.1,0,94.7-42.6,94.7-94.6V126.6
	C480.1,74.6,437.5,32,385.4,32L385.4,32z M335.4,348.4c-27.9,48.2-89.9,64.9-138.2,37.2c-22.9,39.8-54.9,8.6-42.3-13.2l15.7-27.2
	c5.9-10.3,19.2-13.9,29.5-7.9c18.6,10.8-0.1-0.1,18.5,10.7c27.6,15.9,63.4,6.3,79.4-21.3c15.9-27.6,6.3-63.4-21.3-79.4
	c-17.8-10.2-0.6-0.4-18.6-10.6c-24.6-14.2-3.4-51.9,21.6-37.5c18.6,10.8-0.1-0.1,18.5,10.7C346.6,237.9,363.3,300.2,335.4,348.4
	L335.4,348.4z M357.2,139.6c-17,29.5-16.3,28.8-19,31.5c-6.5,6.5-16.3,8.7-26.5,3.6c-18.6-10.8,0.1,0.1-18.5-10.7
	c-27.6-15.9-63.4-6.3-79.4,21.3s-6.3,63.4,21.3,79.4c0,0,18.5,10.6,18.6,10.6c24.6,14.2,3.4,51.9-21.6,37.5
	c-18.6-10.8,0.1,0.1-18.5-10.7c-48.2-27.8-64.9-90.1-37.1-138.4c27.9-48.2,89.9-64.9,138.2-37.2l4.8-8.4
	C333.8,93.2,371.5,114.8,357.2,139.6L357.2,139.6z"/>
</svg>
