<?xml version="1.0" encoding="utf-8"?>
<!-- Generator: Adobe Illustrator 24.0.0, SVG Export Plug-In . SVG Version: 6.00 Build 0)  -->
<svg version="1.1" id="Layer_1" xmlns="http://www.w3.org/2000/svg" xmlns:xlink="http://www.w3.org/1999/xlink" x="0px" y="0px"
	 viewBox="0 0 512 512" style="enable-background:new 0 0 512 512;" xml:space="preserve">
<path d="M505.3,186.1L377.3,307c-13.5,12.7-36,3.3-36-15.5v-64c-128.5,0.9-182.8,31.2-146.5,152.4c4,13.3-11.4,23.6-22.2,15.4
	c-34.7-26.3-66-76.6-66-127.5c0-127.9,104.5-153.3,234.7-154v-64c0-18.8,22.5-28.3,36-15.5l128,120.9
	C514.2,163.6,514.2,177.8,505.3,186.1z M341.3,365.4v61.2H56.9V142.2h45.2c2.9,0,5.7-1.2,7.6-3.3c13.3-13.9,28.6-24.8,45.3-33.5
	c9.9-5.2,6.2-20.1-4.9-20.1H42.7C19.1,85.3,0,104.4,0,128v312.9c0,23.6,19.1,42.7,42.7,42.7h312.9c23.6,0,42.7-19.1,42.7-42.7V362
	c0-7.4-7.3-12.5-14.2-10c-9.8,3.5-20.2,4.4-30.4,3C347.1,354,341.3,358.9,341.3,365.4L341.3,365.4z"/>
</svg>
