<?xml version="1.0" encoding="utf-8"?>
<!-- Generator: Adobe Illustrator 24.0.0, SVG Export Plug-In . SVG Version: 6.00 Build 0)  -->
<svg version="1.1" id="Layer_1" xmlns="http://www.w3.org/2000/svg" xmlns:xlink="http://www.w3.org/1999/xlink" x="0px" y="0px"
	 viewBox="0 0 512 512" style="enable-background:new 0 0 512 512;" xml:space="preserve">
<path d="M499.5,168.9l-128-128c-26.7-26.7-72.8-8-72.8,30.2V122c-37.7,1.7-74.7,5.8-107.3,16c-31.3,9.7-56.1,24.5-73.7,43.9
	c-21.4,23.6-32.3,53.3-32.3,88.3c0,54.8,29.5,100,75.4,128.7c33.4,20.9,75.8-11.2,63.1-49.5c-13.8-41.9-15.2-63,74.8-70v47.8
	c0,38.2,46.2,56.8,72.8,30.2l128-128C516.2,212.6,516.2,185.6,499.5,168.9z M341.3,327.1v-92.3c-114.4,1.7-193.3,20.6-157.9,127.9
	c-26.2-16.4-55.4-46.2-55.4-92.5c0-97.2,114.8-105.7,213.3-106.5V71.1l128,128L341.3,327.1z M363.3,402.2c6.6-1.9,12.8-4.7,18.6-8.3
	c7.1-4.4,16.3,0.7,16.3,9.1v37.9c0,23.6-19.1,42.7-42.7,42.7H42.7C19.1,483.6,0,464.5,0,440.9V128c0-23.6,19.1-42.7,42.7-42.7H160
	c5.9,0,10.7,4.8,10.7,10.7v4c0,4.4-2.7,8.3-6.7,9.9c-12.2,4.7-23.5,10.3-33.8,16.5c-1.7,1-3.6,1.6-5.6,1.6H48
	c-2.9,0-5.3,2.4-5.3,5.3v302.2c0,2.9,2.4,5.3,5.3,5.3h302.2c2.9,0,5.3-2.4,5.3-5.3v-23.1C355.6,407.7,358.7,403.5,363.3,402.2z"/>
</svg>
