<?xml version="1.0" encoding="utf-8"?>
<!-- Generator: Adobe Illustrator 24.0.0, SVG Export Plug-In . SVG Version: 6.00 Build 0)  -->
<svg version="1.1" id="Layer_1" xmlns="http://www.w3.org/2000/svg" xmlns:xlink="http://www.w3.org/1999/xlink" x="0px" y="0px"
	 viewBox="0 0 512 512" style="enable-background:new 0 0 512 512;" xml:space="preserve">
<path d="M280,168v168c0,8.8,7.2,16,16,16h48c8.8,0,16-7.2,16-16V168c0-75.1-60.9-136-136-136H56c-13.3,0-24,10.7-24,24v408
	c0,8.8,7.2,16,16,16h48c8.8,0,16-7.2,16-16V112h112C254.9,112,280,137.1,280,168z M464,32h-48c-8.8,0-16,7.2-16,16v296
	c0,30.9-25.1,56-56,56H232V176c0-8.8-7.2-16-16-16h-48c-8.8,0-16,7.2-16,16v280c0,13.3,10.8,24,24,24h168c75.1,0,136-60.9,136-136
	V48C480,39.2,472.8,32,464,32z"/>
</svg>
