<?xml version="1.0" encoding="utf-8"?>
<!-- Generator: Adobe Illustrator 24.0.0, SVG Export Plug-In . SVG Version: 6.00 Build 0)  -->
<svg version="1.1" id="Layer_1" xmlns="http://www.w3.org/2000/svg" xmlns:xlink="http://www.w3.org/1999/xlink" x="0px" y="0px"
	 viewBox="0 0 512 512" style="enable-background:new 0 0 512 512;" xml:space="preserve">
<path d="M397.3,349.3l56-56c13.5-13.5,8-36.6-10.3-42.5l-33.4-10.7V128c0-14.1-11.5-25.6-25.6-25.6h-51.2v-32
	c0-10.6-8.6-19.2-19.2-19.2H198.4c-10.6,0-19.2,8.6-19.2,19.2v32H128c-14.1,0-25.6,11.5-25.6,25.6v112.1L69,250.8
	c-18.2,5.9-23.8,28.9-10.3,42.5l56,56c-14,34.9-46.2,60.3-95.5,60.3C8.6,409.6,0,418.2,0,428.8v12.8c0,10.6,8.6,19.2,19.2,19.2
	c48.8,0,86-16.5,114.6-47.5c11.5,27.9,39,47.5,71,47.5h102.4c32,0,59.5-19.7,71-47.5c28.6,31,65.8,47.5,114.6,47.5
	c10.6,0,19.2-8.6,19.2-19.2v-12.8c0-10.6-8.6-19.2-19.2-19.2C444.1,409.6,411.6,384.8,397.3,349.3z M153.6,153.6h204.8v70
	l-94.6-30.4c-5.1-1.6-10.6-1.6-15.7,0l-94.6,30.4V153.6z"/>
</svg>
