<?xml version="1.0" encoding="utf-8"?>
<!-- Generator: Adobe Illustrator 24.0.0, SVG Export Plug-In . SVG Version: 6.00 Build 0)  -->
<svg version="1.1" id="Layer_1" xmlns="http://www.w3.org/2000/svg" xmlns:xlink="http://www.w3.org/1999/xlink" x="0px" y="0px"
	 viewBox="0 0 512 512" style="enable-background:new 0 0 512 512;" xml:space="preserve">
<path d="M132,410.3l30.6,13.4l4.4-9.9l-30.6-13.4L132,410.3z M171.4,427.8l30.6,13.4l4.4-9.9l-30.6-13.4L171.4,427.8z M343.5,413.8
	l4.4,9.9l30.6-13.4l-4.4-9.9L343.5,413.8z M211.1,445l30.3,13.7l4.4-9.9l-30.3-13.4L211.1,445z M92.4,392.8l30.6,13.4l4.4-9.6
	l-30.6-13.7L92.4,392.8z M303.8,431.3l4.4,9.9l30.6-13.4l-4.4-9.9L303.8,431.3z M264.5,448.8l4.4,9.9l30.6-13.7l-4.4-9.6
	L264.5,448.8z M382.9,396.6l4.4,9.6l30.6-13.4l-4.4-9.9L382.9,396.6z M202,46.6h-33.5v10.5H202V46.6z M154.8,46.6h-33.6v10.5h33.5
	L154.8,46.6z M107.5,46.6H74.3v10.5h33.3L107.5,46.6z M249,46.6h-33.2v10.5H249V46.6z M343.5,46.6H310v10.5h33.5V46.6z M390.8,46.6
	h-33.5v10.5h33.5V46.6z M296.2,46.6H263v10.5h33.2L296.2,46.6z M437.7,46.6h-33.3v10.5h33.3V46.6z M84.8,351.1H74v33.5h10.8V351.1z
	 M154.8,135.2h-33.6v10.5h33.5L154.8,135.2z M84.8,145.8h22.8v-10.5H74v33.5h10.8V145.8z M253.7,374.4c50.5,0,91.3-40.8,91.3-91.3
	c0-50.2-40.8-91.3-91.3-91.3c-50.2,0-91.3,41.1-91.3,91.3C162.4,333.6,203.5,374.4,253.7,374.4z M205.5,263.3
	c0-25.4,29.5-31.8,49.6-31.8c16.9,0,29.2,5.8,44.3,12l-8.8,16.9h-0.9c-6.4-9.9-24.8-13.1-35.6-13.1c-9,0-29.8,1.8-29.8,14.9
	c0,21.6,78.5-10.2,78.5,37.9c0,25.4-31.5,31.2-51,31.2c-18.1,0-32.4-2.9-47.2-12.2l9-18.4h0.9c6.1,12.2,23.6,14.9,35.9,14.9
	c8.7,0,32.7-1.2,32.7-14.3C283.1,275.2,205.5,307.6,205.5,263.3z M84.8,178.4H74V212h10.8V178.4z M427.2,384.6H438v-33.5h-10.8
	L427.2,384.6z M84.8,307.9H74v33.5h10.8V307.9z M32,3.7v406l221.7,98.6L480,409.7V3.7H32z M450.8,390.8L254,476.5L61.2,390.8V120.7
	h389.7v270.1L450.8,390.8z M450.8,91.5H61.2V32.9h389.7v58.6L450.8,91.5z M84.8,221.6H74v33.5h10.8L84.8,221.6z M84.8,264.8H74v33.5
	h10.8L84.8,264.8z M202,135.2h-33.5v10.5H202V135.2z M427.2,298.3H438v-33.5h-10.8V298.3z M427.2,255.1H438v-33.5h-10.8V255.1z
	 M249,135.2h-33.2v10.5H249V135.2z M427.2,212H438v-33.5h-10.8V212z M427.2,341.5H438V308h-10.8V341.5z M296.2,135.2H263v10.5h33.2
	V135.2z M343.5,135.2H310v10.5h33.5V135.2z M427.2,168.8H438v-33.5h-33.5v10.5h22.8L427.2,168.8z M390.8,135.2h-33.5v10.5h33.5
	V135.2z"/>
</svg>
