<?xml version="1.0" encoding="utf-8"?>
<!-- Generator: Adobe Illustrator 24.0.0, SVG Export Plug-In . SVG Version: 6.00 Build 0)  -->
<svg version="1.1" id="Layer_1" xmlns="http://www.w3.org/2000/svg" xmlns:xlink="http://www.w3.org/1999/xlink" x="0px" y="0px"
	 viewBox="0 0 512 512" style="enable-background:new 0 0 512 512;" xml:space="preserve">
<path d="M153.6,179.2h25.6V76.8h-25.6c-28.3,0-51.2,22.9-51.2,51.2S125.3,179.2,153.6,179.2z M0,384c0,28.3,22.9,51.2,51.2,51.2
	h25.6V332.8H51.2C22.9,332.8,0,355.7,0,384z M270,281.6c-27.9,0-60.9,10.5-83.8,25.6c-19.8,13.1-35.6,25.6-83.8,25.6v102.4l46,12.8
	c21,5.8,42.4,10.5,64.2,12c26.2,1.8,52.5,0.5,78.1-5c87.6-18.8,118.9-60.5,118.9-96.7C409.6,307.2,342.3,281.6,270,281.6L270,281.6z
	 M393.1,57c-25.6-5.5-51.9-6.8-78.1-5c-21.8,1.5-43.3,6.2-64.2,12l-46,12.8v102.4c48.2,0,64,12.5,83.8,25.6
	c22.9,15.1,55.9,25.6,83.8,25.6c72.3,0,139.6-25.6,139.6-76.8C512,117.4,480.7,75.8,393.1,57L393.1,57z"/>
</svg>
