<?xml version="1.0" encoding="utf-8"?>
<!-- Generator: Adobe Illustrator 24.0.0, SVG Export Plug-In . SVG Version: 6.00 Build 0)  -->
<svg version="1.1" id="Layer_1" xmlns="http://www.w3.org/2000/svg" xmlns:xlink="http://www.w3.org/1999/xlink" x="0px" y="0px"
	 viewBox="0 0 512 512" style="enable-background:new 0 0 512 512;" xml:space="preserve">
<path d="M420.3,104.1c-0.3-2.2-2.2-3.9-4.4-4c-2,0-37.2-0.8-37.2-0.8s-21.6-20.8-29.6-28.8v432.7L474.8,472
	C474.8,472,420.7,106.5,420.3,104.1z M320.6,70.5c-1.9-6.1-4.3-11.9-7.2-17.6C303,32.8,287.4,22,269,22c-1.3,0-2.7,0.1-4,0.4
	c-0.4-0.8-1.2-1.2-1.6-2c-8-8.8-18.4-12.8-30.8-12.4c-24,0.8-48,18-67.3,48.8c-13.6,21.6-24,48.8-26.8,70.1
	c-27.6,8.4-46.8,14.4-47.2,14.8c-14,4.4-14.4,4.8-16,18c-1.2,10-38,291.8-38,291.8L339.9,504V65.7c-1.5,0.1-2.9,0.2-4.4,0.4
	C335.5,66.1,329.9,67.7,320.6,70.5z M265.4,87.7c-16,4.8-33.6,10.4-50.8,15.6c4.8-18.8,14.4-37.6,25.6-50
	c4.4-4.4,10.4-9.6,17.2-12.8C264.2,54.9,265.8,74.5,265.4,87.7z M232.6,24.4c5-0.2,10,1.1,14.4,3.6c-6.4,3.2-12.8,8.4-18.8,14.4
	c-15.2,16.4-26.8,42-31.6,66.4c-14.4,4.4-28.8,8.8-42,12.8C163.3,83.3,195.8,25.2,232.6,24.4z M186.1,244.6
	c1.6,25.6,69.3,31.2,73.3,91.7c2.8,47.6-25.2,80.1-65.6,82.5c-48.8,3.2-75.7-25.6-75.7-25.6l10.4-44c0,0,26.8,20.4,48.4,18.8
	c14-0.8,19.2-12.4,18.8-20.4c-2-33.6-57.2-31.6-60.8-86.9c-3.2-46.4,27.2-93.3,94.5-97.7c26-1.6,39.2,4.8,39.2,4.8l-15.2,57.6
	c0,0-17.2-8-37.6-6.4C186.1,221,185.8,239.8,186.1,244.6z M281.4,82.9c0-12-1.6-29.2-7.2-43.6c18.4,3.6,27.2,24,31.2,36.4
	C298.2,77.7,290.2,80.1,281.4,82.9z"/>
</svg>
