<?xml version="1.0" encoding="utf-8"?>
<!-- Generator: Adobe Illustrator 24.0.0, SVG Export Plug-In . SVG Version: 6.00 Build 0)  -->
<svg version="1.1" id="Layer_1" xmlns="http://www.w3.org/2000/svg" xmlns:xlink="http://www.w3.org/1999/xlink" x="0px" y="0px"
	 viewBox="0 0 512 512" style="enable-background:new 0 0 512 512;" xml:space="preserve">
<path d="M469.4,296.3l42-184.9c3-13.3-7.1-26.1-20.8-26.1H141.5l-8.1-39.8c-2-9.9-10.8-17.1-20.9-17.1H21.3C9.6,28.4,0,38,0,49.8V64
	c0,11.8,9.6,21.3,21.3,21.3h62.1l62.4,305.3c-14.9,8.6-25,24.7-25,43.2c0,27.5,22.3,49.8,49.8,49.8s49.8-22.3,49.8-49.8
	c0-13.9-5.7-26.5-15-35.6h186.4c-9.2,9-15,21.6-15,35.6c0,27.5,22.3,49.8,49.8,49.8c27.5,0,49.8-22.3,49.8-49.8
	c0-19.7-11.5-36.7-28.1-44.8l4.9-21.6c3-13.3-7.1-26.1-20.8-26.1H193.9l-5.8-28.4h260.6C458.6,312.9,467.2,306,469.4,296.3z"/>
</svg>
