<?xml version="1.0" encoding="utf-8"?>
<!-- Generator: Adobe Illustrator 24.0.0, SVG Export Plug-In . SVG Version: 6.00 Build 0)  -->
<svg version="1.1" id="Layer_1" xmlns="http://www.w3.org/2000/svg" xmlns:xlink="http://www.w3.org/1999/xlink" x="0px" y="0px"
	 viewBox="0 0 512 512" style="enable-background:new 0 0 512 512;" xml:space="preserve">
<path d="M384,160v-32C384,57.4,326.6,0,256,0c-70.6,0-128,57.4-128,128v32H32v272c0,44.2,35.8,80,80,80h288c44.2,0,80-35.8,80-80
	V160H384z M192,128c0-35.3,28.7-64,64-64s64,28.7,64,64v32H192V128z M352,248c-13.3,0-24-10.7-24-24s10.7-24,24-24s24,10.7,24,24
	S365.3,248,352,248z M160,248c-13.3,0-24-10.7-24-24s10.7-24,24-24s24,10.7,24,24S173.3,248,160,248z"/>
</svg>
