<?xml version="1.0" encoding="utf-8"?>
<!-- Generator: Adobe Illustrator 24.0.0, SVG Export Plug-In . SVG Version: 6.00 Build 0)  -->
<svg version="1.1" id="Layer_1" xmlns="http://www.w3.org/2000/svg" xmlns:xlink="http://www.w3.org/1999/xlink" x="0px" y="0px"
	 viewBox="0 0 512 512" style="enable-background:new 0 0 512 512;" xml:space="preserve">
<path d="M512,220.4v14.2c0,11.8-9.6,21.3-21.3,21.3h-7.1l-23.2,162.5c-3,21-21,36.6-42.2,36.6H93.9c-21.2,0-39.2-15.6-42.2-36.6
	L28.4,256h-7.1C9.6,256,0,246.4,0,234.7v-14.2c0-11.8,9.6-21.3,21.3-21.3h59.9l94.9-130.5c9.2-12.7,27-15.5,39.7-6.3
	c12.7,9.2,15.5,27,6.3,39.7l-70.6,97h208.9l-70.6-97c-9.2-12.7-6.4-30.5,6.3-39.7c12.7-9.2,30.5-6.4,39.7,6.3l94.9,130.5h59.9
	C502.4,199.1,512,208.7,512,220.4z M277.3,376.9v-99.6c0-11.8-9.6-21.3-21.3-21.3s-21.3,9.6-21.3,21.3v99.6
	c0,11.8,9.6,21.3,21.3,21.3S277.3,388.7,277.3,376.9z M376.9,376.9v-99.6c0-11.8-9.6-21.3-21.3-21.3s-21.3,9.6-21.3,21.3v99.6
	c0,11.8,9.6,21.3,21.3,21.3S376.9,388.7,376.9,376.9z M177.8,376.9v-99.6c0-11.8-9.6-21.3-21.3-21.3s-21.3,9.6-21.3,21.3v99.6
	c0,11.8,9.6,21.3,21.3,21.3S177.8,388.7,177.8,376.9z"/>
</svg>
