<?xml version="1.0" encoding="utf-8"?>
<!-- Generator: Adobe Illustrator 24.0.0, SVG Export Plug-In . SVG Version: 6.00 Build 0)  -->
<svg version="1.1" id="Layer_1" xmlns="http://www.w3.org/2000/svg" xmlns:xlink="http://www.w3.org/1999/xlink" x="0px" y="0px"
	 viewBox="0 0 512 512" style="enable-background:new 0 0 512 512;" xml:space="preserve">
<path d="M503.1,219.7L395.5,90.6c-7.3-8.8-18.1-13.8-29.5-13.8H25.6C11.5,76.8,0,88.3,0,102.4v230.4c0,14.1,11.5,25.6,25.6,25.6
	h25.6c0,42.4,34.4,76.8,76.8,76.8s76.8-34.4,76.8-76.8h102.4c0,42.4,34.4,76.8,76.8,76.8s76.8-34.4,76.8-76.8h25.6
	c14.1,0,25.6-11.5,25.6-25.6v-88.5C512,235.3,508.8,226.6,503.1,219.7L503.1,219.7z M51.2,204.8V128H128v76.8H51.2z M128,396.8
	c-21.2,0-38.4-17.2-38.4-38.4S106.8,320,128,320s38.4,17.2,38.4,38.4S149.2,396.8,128,396.8z M256,204.8h-76.8V128H256V204.8z
	 M384,396.8c-21.2,0-38.4-17.2-38.4-38.4S362.8,320,384,320s38.4,17.2,38.4,38.4S405.2,396.8,384,396.8z M307.2,204.8V128H360
	l64,76.8H307.2z"/>
</svg>
