<?xml version="1.0" encoding="utf-8"?>
<!-- Generator: Adobe Illustrator 24.0.0, SVG Export Plug-In . SVG Version: 6.00 Build 0)  -->
<svg version="1.1" id="Layer_1" xmlns="http://www.w3.org/2000/svg" xmlns:xlink="http://www.w3.org/1999/xlink" x="0px" y="0px"
	 viewBox="0 0 512 512" style="enable-background:new 0 0 512 512;" xml:space="preserve">
<path d="M498.6,204.8c-41.5,2.8-100.6,43.8-130.5,57.2c-23.3,10.5-43.4,19.5-60.9,19.5c-18.1,0-20.8-13-17-41.5
	c0.9-6.4,9.4-63.4-34.2-60.9c-20.1,1.2-51.5,19.8-135.6,100.8l33.2-83c24.3-60.7-42.6-121.2-103.8-82.3L5.8,144.2
	c-5.9,3.8-7.7,11.7-3.9,17.7l13.8,21.6c3.8,6,11.7,7.8,17.7,3.9l46.4-31.1c14.7-9.4,32.6,5.8,26.2,21.7L27.3,374.5
	c-5.4,13.5,2.2,35.1,23.8,35.1c6.6,0,13.2-2.6,18.1-7.5c33.8-33.8,123.8-120.6,169-156.7c-1.8,22.8-1.7,47.1,16.5,67.1
	c12.2,13.4,29.9,20.2,52.4,20.2c28.5,0,54.4-11.7,81.9-24c26.4-11.8,79.2-50.1,110.8-52.7c6.8-0.6,12.2-5.8,12.2-12.6v-25.7
	C512.1,210.5,505.9,204.3,498.6,204.8L498.6,204.8z"/>
</svg>
