<?xml version="1.0" encoding="utf-8"?>
<!-- Generator: Adobe Illustrator 24.0.0, SVG Export Plug-In . SVG Version: 6.00 Build 0)  -->
<svg version="1.1" id="Layer_1" xmlns="http://www.w3.org/2000/svg" xmlns:xlink="http://www.w3.org/1999/xlink" x="0px" y="0px"
	 viewBox="0 0 512 512" style="enable-background:new 0 0 512 512;" xml:space="preserve">
<path d="M166.1,283.7h-41.5c-7.6,0-13.8,6.2-13.8,13.8v166.1c0,7.6,6.2,13.8,13.8,13.8h41.5c7.6,0,13.8-6.2,13.8-13.8V297.5
	C179.9,289.9,173.7,283.7,166.1,283.7z M55.4,366.7H13.8c-7.6,0-13.8,6.2-13.8,13.8v83c0,7.6,6.2,13.8,13.8,13.8h41.5
	c7.6,0,13.8-6.2,13.8-13.8v-83C69.2,372.9,63,366.7,55.4,366.7z M276.8,200.6h-41.5c-7.6,0-13.8,6.2-13.8,13.8v249.1
	c0,7.6,6.2,13.8,13.8,13.8h41.5c7.6,0,13.8-6.2,13.8-13.8V214.5C290.6,206.8,284.4,200.6,276.8,200.6z M387.5,117.6h-41.5
	c-7.6,0-13.8,6.2-13.8,13.8v332.1c0,7.6,6.2,13.8,13.8,13.8h41.5c7.6,0,13.8-6.2,13.8-13.8V131.5
	C401.3,123.8,395.1,117.6,387.5,117.6z M498.2,34.6h-41.5c-7.6,0-13.8,6.2-13.8,13.8v415.1c0,7.6,6.2,13.8,13.8,13.8h41.5
	c7.6,0,13.8-6.2,13.8-13.8V48.4C512,40.8,505.8,34.6,498.2,34.6z"/>
</svg>
