<?xml version="1.0" encoding="utf-8"?>
<!-- Generator: Adobe Illustrator 24.0.0, SVG Export Plug-In . SVG Version: 6.00 Build 0)  -->
<svg version="1.1" id="Layer_1" xmlns="http://www.w3.org/2000/svg" xmlns:xlink="http://www.w3.org/1999/xlink" x="0px" y="0px"
	 viewBox="0 0 512 512" style="enable-background:new 0 0 512 512;" xml:space="preserve">
<path d="M123.4,484c-0.3-16,13.1-29.1,29.1-29.1h62.3v-5.7H89c-16,0-29.4-13.1-29.1-29.1c0.3-15.5,13-28,28.6-28h126.4v-5.7H61.1
	c-16,0-29.4-13.1-29.1-29.1c0.3-15.5,13-28,28.6-28h154.3v-5.7H89.7c-16,0-29.4-13.1-29.1-29.1c0.3-15.5,13-28,28.6-28h168.6
	l-31.1-22.6c-12.8-9.3-15.6-27.1-6.3-39.9c9.3-12.8,27.1-15.6,39.9-6.3l123.4,89.7c8.9,6.5,14.1,16.8,14.1,27.7V456
	c0,15.9-10.9,29.7-26.4,33.4l-80.5,18.9c-10.3,2.4-20.8,3.6-31.4,3.6H152C136.4,512,123.7,499.5,123.4,484L123.4,484z M196.7,258.3
	h36.4l-11.2-8.1c-18.6-13.5-20.3-40.9-3.2-56.5l-13-16.7c-9.8-12.6-28.4-15.2-40.9-5.1c-12.1,9.8-14.1,27.4-4.6,39.8L196.7,258.3
	L196.7,258.3z M480,256.2l-5-152.5c-0.5-15.8-13.7-28.1-29.5-27.6c-15.8,0.5-28.1,13.7-27.6,29.5l1.3,38.4L315.6,11
	C306-1.3,288.3-3.6,275.9,5.7c-12.8,9.6-14.9,28.2-5.1,40.9l76.9,98.7l-4.5,3.5L248.4,27.1c-9.6-12.3-27.2-14.6-39.7-5.3
	c-12.8,9.6-14.9,28.2-5.1,40.9l94.4,121.3l-4.5,3.5l-77.7-99.8c-9.6-12.3-27.2-14.6-39.7-5.3c-12.8,9.6-14.9,28.2-5.1,40.9
	l52.1,66.8c12.5-8.3,29.1-8.3,41.7,0.9l123.4,89.7c10.9,7.9,17.4,20.7,17.4,34.2v17l61.1-47.5C475.4,277.6,480.3,267.1,480,256.2
	L480,256.2z"/>
</svg>
