<?xml version="1.0" encoding="utf-8"?>
<!-- Generator: Adobe Illustrator 24.0.0, SVG Export Plug-In . SVG Version: 6.00 Build 0)  -->
<svg version="1.1" id="Layer_1" xmlns="http://www.w3.org/2000/svg" xmlns:xlink="http://www.w3.org/1999/xlink" x="0px" y="0px"
	 viewBox="0 0 512 512" style="enable-background:new 0 0 512 512;" xml:space="preserve">
<path d="M64,64v384c0,35.3,28.7,64,64,64h256c35.3,0,64-28.7,64-64V128L320,0H128C92.7,0,64,28.7,64,64z M288,256h-64v-64h64V256z
	 M384,256h-64v-64h32c17.7,0,32,14.3,32,32V256z M320,384h64v32c0,17.7-14.3,32-32,32h-32V384z M224,384h64v64h-64V384z M128,384h64
	v64h-32c-17.7,0-32-14.3-32-32V384z M128,288h256v64H128V288z M128,224c0-17.7,14.3-32,32-32h32v64h-64V224z"/>
</svg>
