<?xml version="1.0" encoding="utf-8"?>
<!-- Generator: Adobe Illustrator 24.0.0, SVG Export Plug-In . SVG Version: 6.00 Build 0)  -->
<svg version="1.1" id="Layer_1" xmlns="http://www.w3.org/2000/svg" xmlns:xlink="http://www.w3.org/1999/xlink" x="0px" y="0px"
	 viewBox="0 0 512 512" style="enable-background:new 0 0 512 512;" xml:space="preserve">
<path d="M32,32l69.7,118.8l-58.9-11.5l69.8,91c-3,17-3,34.4,0,51.4l-69.8,91l58.9-11.5L32,480l118.8-69.7l-11.5,58.9l91-69.8
	c17,3,34.5,3,51.5,0l91,69.8l-11.5-58.9L480,480l-69.7-118.8l58.9,11.5l-69.8-91c3-17,3-34.4,0-51.4l69.8-91l-58.9,11.5L480,32
	l-118.8,69.7l11.5-58.9l-91.1,69.9c-8.5-1.5-17.1-2.3-25.7-2.3s-17.2,0.8-25.7,2.3l-91.1-69.9l11.5,58.9L32,32z M256,131.8
	c31.8,0,63.6,12.1,87.9,36.4c48.5,48.5,48.5,127.2,0,175.7s-127.2,48.5-175.7,0c-48.5-48.5-48.5-127.2,0-175.7
	C192.4,143.9,224.2,131.8,256,131.8L256,131.8z M256,168.4c-22.4,0-44.8,8.5-61.9,25.6c-34.2,34.2-34.2,89.7,0,123.9
	s89.7,34.2,123.8,0c34.2-34.2,34.2-89.7,0-123.9C300.8,177,278.4,168.4,256,168.4L256,168.4z"/>
</svg>
