<?xml version="1.0" encoding="utf-8"?>
<!-- Generator: Adobe Illustrator 24.0.0, SVG Export Plug-In . SVG Version: 6.00 Build 0)  -->
<svg version="1.1" id="Layer_1" xmlns="http://www.w3.org/2000/svg" xmlns:xlink="http://www.w3.org/1999/xlink" x="0px" y="0px"
	 viewBox="0 0 512 512" style="enable-background:new 0 0 512 512;" xml:space="preserve">
<path d="M432,0c-26.5,0-48,21.5-48,48s21.5,48,48,48s48-21.5,48-48S458.5,0,432,0z M432,448c-8.8,0-16,7.2-16,16s-7.2,16-16,16h-96
	c-8.8,0-16,7.2-16,16s7.2,16,16,16h96c26.5,0,48-21.5,48-48C448,455.2,440.8,448,432,448z M149.8,456.6c-6.2,6.2-16.4,6.3-22.6,0
	l-67.9-67.9c-6.2-6.2-16.4-6.2-22.6,0s-6.2,16.4,0,22.6l67.9,67.9c9.4,9.4,21.7,14,34,14s24.6-4.7,33.9-14c6.2-6.2,6.2-16.4,0-22.6
	S156.1,450.3,149.8,456.6L149.8,456.6z M205.9,276.8l-93.7,93.7c-12.5,12.5-12.5,32.8,0,45.2c6.2,6.2,14.4,9.4,22.6,9.4
	c8.2,0,16.4-3.1,22.6-9.4l91.9-91.9l-30.2-30.2C214.1,288.6,209.7,282.9,205.9,276.8L205.9,276.8z M160,160h105.5l-20.1,17.2
	c-13.5,11.5-21.6,28.4-22.3,46.1c-0.7,17.8,6.1,35.2,18.7,47.7l78.2,78.2V432c0,17.7,14.3,32,32,32s32-14.3,32-32v-89.4
	c0-12.6-5.1-25-14.1-33.9l-61-61c0.5-0.4,1.2-0.6,1.7-1.1l82.3-82.3c11.5-11.5,14.9-28.6,8.7-43.6c-6.2-15-20.7-24.7-37-24.7H160
	c-17.7,0-32,14.3-32,32S142.3,160,160,160z"/>
</svg>
