<?xml version="1.0" encoding="utf-8"?>
<!-- Generator: Adobe Illustrator 24.0.0, SVG Export Plug-In . SVG Version: 6.00 Build 0)  -->
<svg version="1.1" id="Layer_1" xmlns="http://www.w3.org/2000/svg" xmlns:xlink="http://www.w3.org/1999/xlink" x="0px" y="0px"
	 viewBox="0 0 512 512" style="enable-background:new 0 0 512 512;" xml:space="preserve">
<path d="M298.7,113.8c23.6,0,42.7-19.1,42.7-42.7s-19.1-42.7-42.7-42.7c-23.6,0-42.7,19.1-42.7,42.7S275.1,113.8,298.7,113.8z
	 M490.7,398.2c-11.7,0-21.3,9.5-21.3,21.3c0,11.7-9.6,21.3-21.3,21.3h-61.8l22.7-158.6c10.4-4.2,17.9-14.4,17.9-26.3
	c0-15.7-12.7-28.4-28.4-28.4h-39.1L336,180.3c-11.1-22.7-31.6-39.3-54.9-45.2l-63.3-18.8c-25.2-6-51.4-0.4-71.8,15.2l-35.3,27
	c-12.4,9.5-14.8,27.4-5.2,39.9c0.6,0.8,1.5,1.2,2.1,1.9L59.5,440.9H21.3C9.6,440.9,0,450.4,0,462.2s9.6,21.3,21.3,21.3H448
	c35.3,0,64-28.7,64-64C512,407.8,502.4,398.2,490.7,398.2z M259.1,440.9H173l38.3-80.9l-19.6-11.6c-10.8-6.4-19.5-15-26.2-24.7
	L110,440.9H88.4l46.5-232.4c3.6-0.9,7.2-2.6,10.4-5l35.3-27c6.8-5.2,15.5-7.1,22.5-5.4l13.1,3.9l-33.3,77.7
	c-11.2,26.2-1.2,56.9,23.4,71.4l75.6,44.6L259.1,440.9z M357.4,440.9h-38.8l21-67.1c5.2-18.5-2.6-38.3-19.2-48.4L266,293.3
	l27.8-69.6l18,36.8c7.1,14.5,22.1,23.9,38.3,23.9h29.6L357.4,440.9L357.4,440.9z"/>
</svg>
