<?xml version="1.0" encoding="utf-8"?>
<!-- Generator: Adobe Illustrator 24.0.0, SVG Export Plug-In . SVG Version: 6.00 Build 0)  -->
<svg version="1.1" id="Layer_1" xmlns="http://www.w3.org/2000/svg" xmlns:xlink="http://www.w3.org/1999/xlink" x="0px" y="0px"
	 viewBox="0 0 512 512" style="enable-background:new 0 0 512 512;" xml:space="preserve">
<path d="M471.1,453.1l-142-69.1l142-69.1c7.9-4,11.1-13.6,7.1-21.5L464,264.9c-4-7.9-13.6-11.1-21.5-7.2L256,348.4L69.5,257.7
	c-7.9-3.9-17.5-0.8-21.5,7.2l-14.3,28.6c-3.9,7.9-0.8,17.5,7.2,21.5l142,69.1l-142,69.1c-7.9,4-11.1,13.6-7.1,21.5L48,503.2
	c3.9,7.9,13.6,11.1,21.5,7.1L256,419.6l186.5,90.7c7.9,4,17.5,0.8,21.5-7.1l14.3-28.6C482.3,466.6,479,457,471.1,453.1z M182,237.3
	l-5.5,25.9c-2.7,12.6,5.4,24.9,16.4,24.9H319c11,0,19.1-12.2,16.5-24.9l-5.5-25.9c41.8-22.4,70-62.8,70-109.3
	C400,57.3,335.5,0,256,0S112,57.3,112,128C112,174.5,140.2,214.9,182,237.3z M312,112c17.6,0,32,14.3,32,32s-14.4,32-32,32
	s-32-14.4-32-32S294.4,112,312,112z M200,112c17.6,0,32,14.3,32,32s-14.4,32-32,32s-32-14.4-32-32S182.4,112,200,112z"/>
</svg>
