<?xml version="1.0" encoding="utf-8"?>
<!-- Generator: Adobe Illustrator 24.0.0, SVG Export Plug-In . SVG Version: 6.00 Build 0)  -->
<svg version="1.1" id="Layer_1" xmlns="http://www.w3.org/2000/svg" xmlns:xlink="http://www.w3.org/1999/xlink" x="0px" y="0px"
	 viewBox="0 0 512 512" style="enable-background:new 0 0 512 512;" xml:space="preserve">
<path d="M512,314.6c0,52.7-42,91.5-94,91.5c-132.7,0-157.3-199.8-287.8-199.8c-117.5,0-117.7,169.8,4.5,169.8
	c34,0,72.7-14.2,100.2-34c4.5-3.3,13.5-13,18.2-13s8.7,4,8.7,8.7c0,6.2-10.5,15.3-15,19.3c-32.7,28.5-80.2,49-123.8,49
	C56.5,406.2,0,358.9,0,290.2s54-119.3,122.2-119.3c148.2,0,178,196.7,289.5,196.7c79.9,0,75.8-111.8,2.7-111.8
	c-14,0-28,9.3-37.5,9.3c-6.7,0-12.7-5.8-12.7-12.5c0-9.3,4.2-19,4.2-29c0-53.3-40.7-91.8-93.5-91.8c-42.5,0-64,29.5-71,29.5
	c-5,0-9-4-9-9c0-4.5,3.3-8.2,6.2-11.5c20.2-23,51.8-35,82.2-35c63.5,0,111.3,46.7,111.3,110.2c0,5.5-0.2,11-1,16.5
	c9.5-2.5,19.3-3.8,28.7-3.8C471,228.9,512,265.1,512,314.6z"/>
</svg>
