<?xml version="1.0" encoding="utf-8"?>
<!-- Generator: Adobe Illustrator 24.0.0, SVG Export Plug-In . SVG Version: 6.00 Build 0)  -->
<svg version="1.1" id="Layer_1" xmlns="http://www.w3.org/2000/svg" xmlns:xlink="http://www.w3.org/1999/xlink" x="0px" y="0px"
	 viewBox="0 0 512 512" style="enable-background:new 0 0 512 512;" xml:space="preserve">
<path d="M478.2,270.4c-6.2-19-26.9-29.1-46-22.9l-45.4,15.1l-30.3-90l45.4-15.1c19.1-6.2,29.1-26.8,23-45.9
	c-6.2-19-26.9-29.1-46-22.9l-45.4,15.1l-15.7-47c-6.2-19-26.9-29.1-46-22.9s-29.1,26.8-23,45.9l15.7,47L171.1,158l-15.7-47
	c-6.2-19-26.9-29.1-46-22.9s-29.1,26.8-23,45.9l15.7,47l-45.3,15c-19.1,6.2-29.1,26.8-23,45.9c5,14.5,19.1,24,33.6,24.6
	c6.8,1,12-1.6,57.7-16.8l30.3,90L110,354.8c-19,6.2-29.1,26.9-23,45.9c5,14.5,19.1,24,33.6,24.6c6.8,1,12-1.6,57.7-16.8l15.7,47
	c5.9,16.9,24.7,29,46,22.9c19.1-6.2,29.1-26.8,23-45.9l-15.7-47l93.6-31.3l15.7,47c5.9,16.9,24.7,29,46,22.9
	c19.1-6.2,29.1-26.8,23-45.9l-15.7-47l45.4-15.1C474.3,310.1,484.4,289.4,478.2,270.4L478.2,270.4z M224.1,317.6l-30.3-90.2
	l93.5-31.3l30.3,90.2L224.1,317.6L224.1,317.6z"/>
</svg>
