<?xml version="1.0" encoding="utf-8"?>
<!-- Generator: Adobe Illustrator 24.0.0, SVG Export Plug-In . SVG Version: 6.00 Build 0)  -->
<svg version="1.1" id="Layer_1" xmlns="http://www.w3.org/2000/svg" xmlns:xlink="http://www.w3.org/1999/xlink" x="0px" y="0px"
	 viewBox="0 0 512 512" style="enable-background:new 0 0 512 512;" xml:space="preserve">
<path d="M490.2,331.8l-7.4-5.9c-5.5-4.4-13.6-3.5-18,2l-8,10c-4.4,5.5-3.5,13.6,2,18l7.4,5.9c4.7,3.8,7.4,9.4,7.4,15.4
	c0,10.9-8.8,19.7-19.7,19.7H38.4c-7,0-12.8,5.8-12.8,12.8v12.8c0,7,5.8,12.8,12.8,12.8h412.8c31.2,0,59-23.4,60.7-54.6
	C513,361.5,505,343.5,490.2,331.8z M25.6,230.4c0,47.7,32.7,87.4,76.8,98.8v42h51.2v-38.4h153.6v38.4h51.2v-38.4
	c42.4,0,76.8-34.4,76.8-76.8v-76.8c14.2,0,25.6-11.4,25.6-25.6S449.4,128,435.2,128h-76.8v51.2c0,28.2-23,51.2-51.2,51.2h-16.6
	c-52.6,0-100.7-29.8-124.2-76.8S94.7,76.8,42.2,76.8H25.6C11.5,76.8,0,88.2,0,102.4S11.5,128,25.6,128V230.4z"/>
</svg>
