<?xml version="1.0" encoding="utf-8"?>
<!-- Generator: Adobe Illustrator 24.0.0, SVG Export Plug-In . SVG Version: 6.00 Build 0)  -->
<svg version="1.1" id="Layer_1" xmlns="http://www.w3.org/2000/svg" xmlns:xlink="http://www.w3.org/1999/xlink" x="0px" y="0px"
	 viewBox="0 0 512 512" style="enable-background:new 0 0 512 512;" xml:space="preserve">
<path d="M8,256c0,137,111,248,248,248s248-111,248-248S393,8,256,8S8,119,8,256z M208,208c0,17.7-14.3,32-32,32s-32-14.3-32-32
	s14.3-32,32-32S208,190.3,208,208z M366.5,224.5c-14.8-13.2-46.2-13.2-61,0L296,233c-8.3,7.4-21.6,0.4-19.8-10.8
	c4-25.2,34.2-42.1,59.9-42.1S392,197,396,222.2c1.7,11.1-11.4,18.3-19.8,10.8L366.5,224.5z M165.8,325.8
	C188.2,352.7,221,368,256,368s67.8-15.4,90.2-42.2c13.6-16.2,38.1,4.2,24.6,20.5C342.3,380.4,300.5,400,256,400
	s-86.3-19.6-114.8-53.8C127.7,329.9,152.4,309.5,165.8,325.8L165.8,325.8z"/>
</svg>
