<?xml version="1.0" encoding="utf-8"?>
<!-- Generator: Adobe Illustrator 24.0.0, SVG Export Plug-In . SVG Version: 6.00 Build 0)  -->
<svg version="1.1" id="Layer_1" xmlns="http://www.w3.org/2000/svg" xmlns:xlink="http://www.w3.org/1999/xlink" x="0px" y="0px"
	 viewBox="0 0 512 512" style="enable-background:new 0 0 512 512;" xml:space="preserve">
<path d="M256,8C119,8,8,119,8,256s111,248,248,248s248-111,248-248S393,8,256,8z M336,176c17.7,0,32,14.3,32,32s-14.3,32-32,32
	s-32-14.3-32-32S318.3,176,336,176z M176,176c17.7,0,32,14.3,32,32s-14.3,32-32,32s-32-14.3-32-32S158.3,176,176,176z M370.8,346.2
	C342.3,380.4,300.5,400,256,400s-86.3-19.6-114.8-53.8c-13.6-16.3,11-36.7,24.6-20.5c22.4,26.9,55.2,42.2,90.2,42.2
	s67.8-15.4,90.2-42.2C359.6,309.5,384.3,329.9,370.8,346.2L370.8,346.2z"/>
</svg>
