<?xml version="1.0" encoding="utf-8"?>
<!-- Generator: Adobe Illustrator 24.0.0, SVG Export Plug-In . SVG Version: 6.00 Build 0)  -->
<svg version="1.1" id="Layer_1" xmlns="http://www.w3.org/2000/svg" xmlns:xlink="http://www.w3.org/1999/xlink" x="0px" y="0px"
	 viewBox="0 0 512 512" style="enable-background:new 0 0 512 512;" xml:space="preserve">
<path d="M256,8C119,8,8,119,8,256s111,248,248,248s248-111,248-248S393,8,256,8z M256,456c-110.3,0-200-89.7-200-200
	S145.7,56,256,56s200,89.7,200,200S366.3,456,256,456z M176,240c17.7,0,32-14.3,32-32s-14.3-32-32-32s-32,14.3-32,32
	S158.3,240,176,240z M336,240c17.7,0,32-14.3,32-32s-14.3-32-32-32s-32,14.3-32,32S318.3,240,336,240z M340,312.6
	c-20.8,25-51.5,39.4-84,39.4s-63.2-14.3-84-39.4c-8.5-10.2-23.7-11.5-33.8-3.1c-10.2,8.5-11.5,23.6-3.1,33.8
	c30,36,74.1,56.6,120.9,56.6s90.9-20.6,120.9-56.6c8.5-10.2,7.1-25.3-3.1-33.8C363.7,301.1,348.5,302.4,340,312.6z"/>
</svg>
