<?xml version="1.0" encoding="utf-8"?>
<!-- Generator: Adobe Illustrator 24.0.0, SVG Export Plug-In . SVG Version: 6.00 Build 0)  -->
<svg version="1.1" id="Layer_1" xmlns="http://www.w3.org/2000/svg" xmlns:xlink="http://www.w3.org/1999/xlink" x="0px" y="0px"
	 viewBox="0 0 512 512" style="enable-background:new 0 0 512 512;" xml:space="preserve">
<path d="M256,8C119,8,8,119,8,256s111,248,248,248s248-111,248-248S393,8,256,8z M256,456c-110.3,0-200-89.7-200-200
	S145.7,56,256,56s200,89.7,200,200S366.3,456,256,456z M340,312.6c-20.8,25-51.5,39.4-84,39.4s-63.2-14.3-84-39.4
	c-8.5-10.2-23.6-11.5-33.8-3.1c-10.2,8.5-11.5,23.6-3.1,33.8c30,36,74.1,56.6,120.9,56.6s90.9-20.6,120.9-56.6
	c8.5-10.2,7.1-25.3-3.1-33.8C363.6,301.1,348.5,302.4,340,312.6z M144.5,211c7.7-13.7,19.2-21.6,31.5-21.6s23.8,7.9,31.5,21.6
	l9.5,17c2.1,3.7,6.2,4.7,9.3,3.7c3.6-1.1,6-4.5,5.7-8.3c-3.3-42.1-32.2-71.4-56-71.4s-52.7,29.3-56,71.4c-0.3,3.7,2.1,7.2,5.7,8.3
	c3.4,1.1,7.4-0.5,9.3-3.7L144.5,211z M336,152c-23.8,0-52.7,29.3-56,71.4c-0.3,3.7,2.1,7.2,5.7,8.3c3.5,1.1,7.4-0.5,9.3-3.7l9.5-17
	c7.7-13.7,19.2-21.6,31.5-21.6s23.8,7.9,31.5,21.6l9.5,17c2.1,3.7,6.2,4.7,9.3,3.7c3.6-1.1,6-4.5,5.7-8.3
	C388.7,181.3,359.8,152,336,152z"/>
</svg>
