<?xml version="1.0" encoding="utf-8"?>
<!-- Generator: Adobe Illustrator 24.0.0, SVG Export Plug-In . SVG Version: 6.00 Build 0)  -->
<svg version="1.1" id="Layer_1" xmlns="http://www.w3.org/2000/svg" xmlns:xlink="http://www.w3.org/1999/xlink" x="0px" y="0px"
	 viewBox="0 0 512 512" style="enable-background:new 0 0 512 512;" xml:space="preserve">
<path d="M499.2,345.6H64c-7,0-12.8,5.8-12.8,12.8v12.8c0,7,5.8,12.8,12.8,12.8h435.2c7,0,12.8-5.8,12.8-12.8v-12.8
	C512,351.4,506.2,345.6,499.2,345.6z M115.2,422.4H12.8c-7,0-12.8,5.8-12.8,12.8V448c0,7,5.8,12.8,12.8,12.8h102.4
	c7,0,12.8-5.8,12.8-12.8v-12.8C128,428.2,122.2,422.4,115.2,422.4z M448,422.4H179.2c-7,0-12.8,5.8-12.8,12.8V448
	c0,7,5.8,12.8,12.8,12.8H448c7,0,12.8-5.8,12.8-12.8v-12.8C460.8,428.2,455,422.4,448,422.4z M115.2,281.6h124.9
	c18,15.8,41.3,25.6,67.1,25.6c25.8,0,49-9.8,67.1-25.6h48.1c49.5,0,89.6-40.1,89.6-89.6s-40.1-89.6-89.6-89.6
	c-14.4,0-27.8,3.7-39.8,9.7c-19.4-36.1-57.2-60.9-101-60.9c-32.8,0-62.2,13.8-83.2,35.8c-21-22-50.4-35.8-83.2-35.8
	C51.6,51.2,0,102.8,0,166.4S51.6,281.6,115.2,281.6z"/>
</svg>
