<?xml version="1.0" encoding="utf-8"?>
<!-- Generator: Adobe Illustrator 24.0.0, SVG Export Plug-In . SVG Version: 6.00 Build 0)  -->
<svg version="1.1" id="Layer_1" xmlns="http://www.w3.org/2000/svg" xmlns:xlink="http://www.w3.org/1999/xlink" x="0px" y="0px"
	 viewBox="0 0 512 512" style="enable-background:new 0 0 512 512;" xml:space="preserve">
<path d="M505.6,332.8h-38.4c-3.5,0-6.4,2.9-6.4,6.4v115.2c0,3.5,2.9,6.4,6.4,6.4h38.4c3.5,0,6.4-2.9,6.4-6.4V339.2
	C512,335.7,509.1,332.8,505.6,332.8z M442.6,120.9c-4.6-3-7.4-8-7.4-13.4V57.6c0-3.5-2.9-6.4-6.4-6.4h-38.4c-3.5,0-6.4,2.9-6.4,6.4
	v49.8c0,17.6,8.2,34.7,22.9,44.3c33.8,21.8,53.9,59,53.9,99.2v24.2c0,3.5,2.9,6.4,6.4,6.4h38.4c3.5,0,6.4-2.9,6.4-6.4V251
	C512,198.6,486.1,150,442.6,120.9z M345.6,332.8H38.4C17.2,332.8,0,350,0,371.2v51.2c0,21.2,17.2,38.4,38.4,38.4h307.2
	c7,0,12.8-5.8,12.8-12.8V345.6C358.4,338.6,352.6,332.8,345.6,332.8z M320,422.4H179.2v-51.2H320V422.4z M390.2,164.5
	c-19.1-13.3-31.8-33.8-31.8-57V57.6c0-3.5-2.9-6.4-6.4-6.4h-38.4c-3.5,0-6.4,2.9-6.4,6.4v53.1c0,35,19.7,65.3,48.2,85.4
	c17.9,12.6,28.6,33,28.6,54.9v24.2c0,3.5,2.9,6.4,6.4,6.4h38.4c3.5,0,6.4-2.9,6.4-6.4V251C435.2,216.3,418.4,184.2,390.2,164.5z
	 M428.8,332.8h-38.4c-3.5,0-6.4,2.9-6.4,6.4v115.2c0,3.5,2.9,6.4,6.4,6.4h38.4c3.5,0,6.4-2.9,6.4-6.4V339.2
	C435.2,335.7,432.3,332.8,428.8,332.8z"/>
</svg>
