<?xml version="1.0" encoding="utf-8"?>
<!-- Generator: Adobe Illustrator 24.0.0, SVG Export Plug-In . SVG Version: 6.00 Build 0)  -->
<svg version="1.1" id="Layer_1" xmlns="http://www.w3.org/2000/svg" xmlns:xlink="http://www.w3.org/1999/xlink" x="0px" y="0px"
	 viewBox="0 0 512 512" style="enable-background:new 0 0 512 512;" xml:space="preserve">
<path d="M472.1,355.2l-39.2-23l34.1-9.3c8.4-2.3,13.4-11.1,11.1-19.6l-4.1-15.5c-2.2-8.5-10.9-13.6-19.3-11.3L375,298.2L303.2,256
	l71.9-42.2l79.7,21.7c8.4,2.3,17-2.8,19.3-11.3l4.1-15.5c2.2-8.5-2.7-17.3-11.1-19.6l-34.1-9.3l39.2-23c7.5-4.4,10.1-14.2,5.8-21.9
	l-7.9-13.9c-4.3-7.7-14-10.3-21.5-5.9l-39.2,23l9.1-34.7c2.2-8.5-2.7-17.3-11.1-19.6l-15.2-4.1c-8.4-2.3-17,2.8-19.3,11.3l-21.3,81
	l-71.9,42.2v-84.5L338,70.4c6.1-6.2,6.1-16.4,0-22.6l-11.1-11.3c-6.1-6.2-16.1-6.2-22.2,0l-24.9,25.4V16c0-8.8-7-16-15.7-16h-15.7
	c-8.7,0-15.7,7.2-15.7,16v46.1l-24.9-25.4c-6.1-6.2-16.1-6.2-22.2,0L174.1,48c-6.1,6.2-6.1,16.4,0,22.6l58.3,59.3v84.5l-71.9-42.2
	l-21.3-81c-2.2-8.5-10.9-13.6-19.3-11.3L104.7,84c-8.4,2.3-13.4,11.1-11.1,19.6l9.1,34.7l-39.2-23c-7.5-4.4-17.1-1.8-21.5,5.9
	l-7.9,13.9c-4.3,7.7-1.8,17.4,5.8,21.9l39.2,23L45,189.1c-8.4,2.3-13.4,11.1-11.1,19.6l4.1,15.5c2.2,8.5,10.9,13.6,19.3,11.3
	l79.7-21.7l71.9,42.2L137,298.2l-79.7-21.7c-8.4-2.3-17,2.8-19.3,11.3l-4.1,15.5c-2.2,8.5,2.7,17.3,11.1,19.6l34.1,9.3l-39.2,23
	c-7.5,4.4-10.1,14.2-5.8,21.9L42,391c4.3,7.7,14,10.3,21.5,5.9l39.2-23l-9.1,34.7c-2.2,8.5,2.7,17.3,11.1,19.6l15.2,4.1
	c8.4,2.3,17-2.8,19.3-11.3l21.3-81l71.9-42.2v84.5l-58.3,59.3c-6.1,6.2-6.1,16.4,0,22.6l11.1,11.3c6.1,6.2,16.1,6.2,22.2,0
	l24.9-25.4V496c0,8.8,7,16,15.7,16h15.7c8.7,0,15.7-7.2,15.7-16v-46.1l24.9,25.4c6.1,6.2,16.1,6.2,22.2,0l11.1-11.3
	c6.1-6.2,6.1-16.4,0-22.6l-58.3-59.3v-84.5l71.9,42.2l21.3,81c2.2,8.5,10.9,13.6,19.3,11.3L407,428c8.4-2.3,13.4-11.1,11.1-19.6
	l-9.1-34.7l39.2,23c7.5,4.4,17.1,1.8,21.5-5.9l7.9-13.9C482.2,369.4,479.7,359.6,472.1,355.2L472.1,355.2z"/>
</svg>
