<?xml version="1.0" encoding="utf-8"?>
<!-- Generator: Adobe Illustrator 24.0.0, SVG Export Plug-In . SVG Version: 6.00 Build 0)  -->
<svg version="1.1" id="Layer_1" xmlns="http://www.w3.org/2000/svg" xmlns:xlink="http://www.w3.org/1999/xlink" x="0px" y="0px"
	 viewBox="0 0 512 512" style="enable-background:new 0 0 512 512;" xml:space="preserve">
<path d="M96,352c-10.6,0-19.2,8.6-19.2,19.2c0,10.6,8.6,19.2,19.2,19.2s19.2-8.6,19.2-19.2C115.2,360.6,106.6,352,96,352z M160,352
	c-10.6,0-19.2,8.6-19.2,19.2c0,10.6,8.6,19.2,19.2,19.2c10.6,0,19.2-8.6,19.2-19.2C179.2,360.6,170.6,352,160,352z M224,352
	c-10.6,0-19.2,8.6-19.2,19.2c0,10.6,8.6,19.2,19.2,19.2c10.6,0,19.2-8.6,19.2-19.2C243.2,360.6,234.6,352,224,352z M288,352
	c-10.6,0-19.2,8.6-19.2,19.2c0,10.6,8.6,19.2,19.2,19.2c10.6,0,19.2-8.6,19.2-19.2C307.2,360.6,298.6,352,288,352z M478.9,391.5
	c-11.6-11.6-18.1-27.3-18.1-43.7v-81.3c0-16.4,6.5-32.1,18.1-43.7l29.4-29.4c5-5,5-13.1,0-18.1l-18.1-18.1c-5-5-13.1-5-18.1,0
	l-29.4,29.4c-21.2,21.2-33.1,49.9-33.1,79.9v15h-51.2v-40.7c0-7-1.4-13.8-4.2-20.2L291.6,74.5c-6.1-14.2-19.9-23.3-35.4-23.3H140.8
	c-21.2,0-38.4,17.2-38.4,38.4v89.6H89.6c-21.2,0-38.4,17.2-38.4,38.4v73C21,305,0,335.5,0,371.2c0,49.5,40.1,89.6,89.6,89.6h204.8
	c49.5,0,89.6-40.1,89.6-89.6c0-13.8-3.4-26.7-9-38.4h34.6v15c0,30,11.9,58.7,33.1,79.9l29.4,29.4c5,5,13.1,5,18.1,0l18.1-18.1
	c5-5,5-13.1,0-18.1L478.9,391.5z M153.6,102.4h94.2l54.9,128h-97.9l-51.2-51.2V102.4z M294.4,409.6H89.6
	c-21.2,0-38.4-17.2-38.4-38.4c0-21.2,17.2-38.4,38.4-38.4h204.8c21.2,0,38.4,17.2,38.4,38.4C332.8,392.4,315.6,409.6,294.4,409.6z"
	/>
</svg>
