<?xml version="1.0" encoding="utf-8"?>
<!-- Generator: Adobe Illustrator 24.0.0, SVG Export Plug-In . SVG Version: 6.00 Build 0)  -->
<svg version="1.1" id="Layer_1" xmlns="http://www.w3.org/2000/svg" xmlns:xlink="http://www.w3.org/1999/xlink" x="0px" y="0px"
	 viewBox="0 0 512 512" style="enable-background:new 0 0 512 512;" xml:space="preserve">
<path d="M472.3,345.2l-33.8-19.5l26-7c8.2-2.2,13.1-10.7,10.9-18.9l-4-14.9c-2.2-8.2-10.7-13.1-18.9-10.9l-70.8,19l-63.9-37
	l63.8-36.9l70.8,19c8.2,2.2,16.7-2.7,18.9-10.9l4-14.9c2.2-8.2-2.7-16.7-10.9-18.9l-26-7l33.8-19.5c7.4-4.3,9.9-13.7,5.7-21.1
	L462.4,119c-4.3-7.4-13.7-9.9-21.1-5.7l-33.8,19.5l7-26c2.2-8.2-2.7-16.7-10.9-18.9l-14.9-4c-8.2-2.2-16.7,2.7-18.9,10.9l-19,70.8
	L288,201.8v-77.5l53.7-53.7c6.2-6.2,6.2-16.4,0-22.6l-11.3-11.3c-6.2-6.2-16.4-6.2-22.6,0L288,56.4V16c0-8.8-7.2-16-16-16h-32
	c-8.8,0-16,7.2-16,16v40.4l-19.7-19.7c-6.2-6.2-16.4-6.2-22.6,0L170.3,48c-6.3,6.2-6.3,16.4,0,22.6l53.7,53.7v77.5l-62.8-36.2
	l-19-70.8c-2.2-8.2-10.7-13.1-18.9-10.9l-14.9,4c-8.2,2.2-13.1,10.7-10.9,18.9l7,26l-33.8-19.5c-7.4-4.3-16.8-1.7-21.1,5.7
	l-15.5,26.7c-4.3,7.4-1.7,16.8,5.7,21.1l33.8,19.5l-26,7c-8.3,2.2-13.2,10.7-11,19l4,14.9c2.2,8.2,10.7,13.1,18.9,10.9l70.8-19
	l63.8,36.9l-63.8,36.9l-70.8-19c-8.2-2.2-16.7,2.7-18.9,10.9l-4,14.9c-2.2,8.2,2.7,16.7,10.9,18.9l26,7l-33.8,19.6
	c-7.4,4.3-9.9,13.7-5.7,21.1l15.5,26.8c4.3,7.4,13.7,9.9,21.1,5.7l33.8-19.5l-7,26c-2.2,8.2,2.7,16.7,10.9,18.9l14.9,4
	c8.2,2.2,16.7-2.7,18.9-10.9l19-70.8l62.8-36.2v77.5l-53.7,53.7c-6.3,6.2-6.3,16.4,0,22.6l11.3,11.3c6.2,6.2,16.4,6.2,22.6,0
	l19.7-19.7V496c0,8.8,7.2,16,16,16h32c8.8,0,16-7.2,16-16v-40.4l19.7,19.7c6.2,6.2,16.4,6.2,22.6,0l11.3-11.3
	c6.2-6.2,6.2-16.4,0-22.6L288,387.7v-77.5l62.8,36.2l19,70.8c2.2,8.2,10.7,13.1,18.9,10.9l14.9-4c8.2-2.2,13.1-10.7,10.9-18.9l-7-26
	l33.8,19.5c7.4,4.3,16.8,1.7,21.1-5.7l15.5-26.8C482.2,358.9,479.7,349.4,472.3,345.2L472.3,345.2z"/>
</svg>
