<?xml version="1.0" encoding="utf-8"?>
<!-- Generator: Adobe Illustrator 24.0.0, SVG Export Plug-In . SVG Version: 6.00 Build 0)  -->
<svg version="1.1" id="Layer_1" xmlns="http://www.w3.org/2000/svg" xmlns:xlink="http://www.w3.org/1999/xlink" x="0px" y="0px"
	 viewBox="0 0 512 512" style="enable-background:new 0 0 512 512;" xml:space="preserve">
<path d="M345.6,409.6l-38.4,0V384H204.8v25.8l-38.4,0c-7.1,0-12.8,5.7-12.8,12.8l0,25.4c0,7.1,5.7,12.8,12.8,12.8l179.2-0.2
	c7.1,0,12.8-5.7,12.8-12.8l0-25.4C358.4,415.3,352.7,409.6,345.6,409.6L345.6,409.6z M468.2,72.6c-2.1-12.3-13-21.4-25.7-21.4H69.5
	c-12.7,0-23.6,9-25.7,21.4C-2.7,346.5,0,329.7,0,332.8c0,13.9,11.4,25.6,26.1,25.6h459.8c14.6,0,26-11.6,26.1-25.4
	C512,329.7,514.6,346.5,468.2,72.6z M207.9,102.4h96.3l7.8,76.8H200L207.9,102.4z M147.7,307.2H56.9l15.2-89.6h84.8L147.7,307.2
	L147.7,307.2z M160.8,179.2H78.6l13-76.8h77L160.8,179.2L160.8,179.2z M187,307.2l9.1-89.6h119.7l9.1,89.6H187L187,307.2z
	 M343.4,102.4h77l13,76.8h-82.2L343.4,102.4L343.4,102.4z M364.3,307.2l-9.1-89.6h84.8l15.2,89.6H364.3z"/>
</svg>
