<?xml version="1.0" encoding="utf-8"?>
<!-- Generator: Adobe Illustrator 24.0.0, SVG Export Plug-In . SVG Version: 6.00 Build 0)  -->
<svg version="1.1" id="Layer_1" xmlns="http://www.w3.org/2000/svg" xmlns:xlink="http://www.w3.org/1999/xlink" x="0px" y="0px"
	 viewBox="0 0 512 512" style="enable-background:new 0 0 512 512;" xml:space="preserve">
<path d="M208,352h-48V48c0-8.8-7.2-16-16-16h-32c-8.8,0-16,7.2-16,16v304H48c-14.2,0-21.4,17.2-11.3,27.3l80,96
	c6.2,6.2,16.4,6.2,22.6,0l80-96C229.4,369.3,222.2,352,208,352z M448,288H320c-8.8,0-16,7.2-16,16v32c0,8.8,7.2,16,16,16h56
	l-61.3,70.5c-6.8,6.1-10.7,14.8-10.7,23.9V464c0,8.8,7.2,16,16,16h128c8.8,0,16-7.2,16-16v-32c0-8.8-7.2-16-16-16h-56l61.3-70.5
	c6.8-6.1,10.7-14.8,10.7-23.9V304C464,295.2,456.8,288,448,288z M479.1,202.6l-59.3-160c-2.3-6.4-8.3-10.6-15.1-10.6h-41.4
	c-6.8,0-12.8,4.3-15.1,10.6l-59.3,160c-3,8.3,1.4,17.5,9.7,20.4c1.7,0.6,3.5,0.9,5.4,0.9h24.8c6.9,0,13.1-4.5,15.2-11.1l4.4-12.9h71
	l4.4,12.9c2.1,6.6,8.3,11.1,15.3,11.1H464c8.8,0,16-7.2,16-16C480,206.2,479.7,204.3,479.1,202.6z M367.6,144L384,96l16.4,48H367.6z
	"/>
</svg>
