<?xml version="1.0" encoding="utf-8"?>
<!-- Generator: Adobe Illustrator 24.0.0, SVG Export Plug-In . SVG Version: 6.00 Build 0)  -->
<svg version="1.1" id="Layer_1" xmlns="http://www.w3.org/2000/svg" xmlns:xlink="http://www.w3.org/1999/xlink" x="0px" y="0px"
	 viewBox="0 0 512 512" style="enable-background:new 0 0 512 512;" xml:space="preserve">
<path d="M362.2,258.9c-26.5,7.3-47.3,27.8-55,54.2c-14.3,51,21.2,97.8,68.8,102.5c-6.3,5.3-13.3,9.6-20.9,12.9
	c-7.6,3.4-10.8,12.5-8.2,20.3l9.9,20c2.9,8.6,12.5,13.5,20.9,9.9c58-24.8,86.3-61.6,86.3-132V336C464,284.8,415.6,244.7,362.2,258.9
	L362.2,258.9z M384,356c-11,0-20-9-20-20s9-20,20-20s20,9,20,20S395,356,384,356z M336,96h16v64h-16c-8.8,0-16,7.2-16,16v32
	c0,8.8,7.2,16,16,16h96c8.8,0,16-7.2,16-16v-32c0-8.8-7.2-16-16-16h-16V48c0-8.8-7.2-16-16-16h-48c-6,0-11.6,3.4-14.3,8.8l-16,32
	c-4,7.9-0.8,17.5,7.1,21.5C331.1,95.4,333.5,96,336,96z M139.3,36.7c-6.2-6.2-16.4-6.2-22.6,0l-80,96C26.6,142.7,33.8,160,48,160h48
	v304c0,8.8,7.2,16,16,16h32c8.8,0,16-7.2,16-16V160h48c14.2,0,21.4-17.2,11.3-27.3L139.3,36.7z"/>
</svg>
