<?xml version="1.0" encoding="utf-8"?>
<!-- Generator: Adobe Illustrator 24.0.0, SVG Export Plug-In . SVG Version: 6.00 Build 0)  -->
<svg version="1.1" id="Layer_1" xmlns="http://www.w3.org/2000/svg" xmlns:xlink="http://www.w3.org/1999/xlink" x="0px" y="0px"
	 viewBox="0 0 512 512" style="enable-background:new 0 0 512 512;" xml:space="preserve">
<path d="M208,352h-48V48c0-8.8-7.2-16-16-16h-32c-8.8,0-16,7.2-16,16v304H48c-14.2,0-21.4,17.2-11.3,27.3l80,96
	c6.2,6.2,16.4,6.2,22.6,0l80-96C229.4,369.3,222.2,352,208,352z M432,416h-16V304c0-8.8-7.2-16-16-16h-48c-6,0-11.6,3.4-14.3,8.8
	l-16,32c-4,7.9-0.8,17.5,7.1,21.5c2.2,1.1,4.7,1.7,7.2,1.7h16v64h-16c-8.8,0-16,7.2-16,16v32c0,8.8,7.2,16,16,16h96
	c8.8,0,16-7.2,16-16v-32C448,423.2,440.8,416,432,416z M362.2,34.9c-26.5,7.3-47.3,27.8-55,54.2c-14.3,51.1,21.2,97.8,68.8,102.5
	c-6.3,5.3-13.3,9.6-20.9,12.9c-7.6,3.4-10.8,12.5-8.2,20.3l9.9,20c2.9,8.6,12.5,13.5,20.9,9.9c58-24.8,86.3-61.6,86.3-132V112
	C464,60.8,415.6,20.7,362.2,34.9L362.2,34.9z M384,132c-11,0-20-9-20-20s9-20,20-20s20,9,20,20S395,132,384,132z"/>
</svg>
