<?xml version="1.0" encoding="utf-8"?>
<!-- Generator: Adobe Illustrator 24.0.0, SVG Export Plug-In . SVG Version: 6.00 Build 0)  -->
<svg version="1.1" id="Layer_1" xmlns="http://www.w3.org/2000/svg" xmlns:xlink="http://www.w3.org/1999/xlink" x="0px" y="0px"
	 viewBox="0 0 512 512" style="enable-background:new 0 0 512 512;" xml:space="preserve">
<path d="M89.1,256.3l4.6,52l-4.6,54.6c-0.2,2-1.8,3.5-3.5,3.5s-3.4-1.5-3.4-3.5l-4.5-54.6l4.5-52c0-1.8,1.5-3.4,3.4-3.4
	C87.3,252.9,88.8,254.5,89.1,256.3z M106.2,219.8c-2.2,0-3.8,1.8-4,4l-4,84.5l4,54.6c0.2,2.2,1.8,4,4,4c2,0,3.8-1.8,3.8-4l4.6-54.6
	l-4.6-84.5C110,221.5,108.2,219.8,106.2,219.8z M126.6,200.5c-2.5,0-4.2,1.8-4.5,4.2l-3.5,104l3.5,54.2c0.2,2.5,2,4.2,4.5,4.2
	c2.2,0,4.2-1.8,4.2-4.2l4.2-54.2l-4.2-104C130.9,202.2,128.9,200.5,126.6,200.5L126.6,200.5z M5.7,277.8c-1.1,0-1.8,0.9-2,2L0,308.3
	l3.8,28c0.2,1.1,0.9,2,2,2s1.8-0.9,2-2l4.5-28l-4.5-28.5C7.5,278.7,6.8,277.8,5.7,277.8L5.7,277.8z M24.6,260.3c-1.1,0-2,0.9-2,2
	l-5.1,46l5.1,44.9c0,1.4,0.9,2.2,2,2.2c1.1,0,2-0.9,2.2-2l5.8-45.1l-5.8-46C26.6,261.1,25.7,260.3,24.6,260.3z M44.8,251.1
	c-1.4,0-2.5,1.1-2.6,2.6l-4.6,54.5l4.6,52.6c0.2,1.4,1.4,2.5,2.6,2.5c1.4,0,2.5-1.1,2.5-2.5l5.5-52.6l-5.5-54.5
	C47.3,252.2,46.2,251.1,44.8,251.1L44.8,251.1z M65.1,249.4c-1.5,0-2.9,1.1-2.9,2.9l-4.6,56l4.6,54.2c0,1.8,1.4,2.9,2.9,2.9
	c1.5,0,2.9-1.1,3.1-2.9l5.1-54.2l-5.1-56C68,250.5,66.6,249.4,65.1,249.4L65.1,249.4z M258.2,160.6c-0.9-0.6-2.2-1.1-3.4-1.1
	c-1.8,0-3.4,0.6-4.5,1.5c-1.5,1.4-2.5,3.4-2.6,5.4v0.6l-2.6,141.4l1.4,26l1.4,25.4c0.2,3.8,3.4,6.9,7.1,6.9c3.8,0,6.9-3.1,6.9-6.9
	l3.1-51.4l-3.1-142C261.5,164,260.2,161.8,258.2,160.6L258.2,160.6z M236.9,172.9c-1.1-0.6-2.2-1.1-3.5-1.1c-1.3,0-2.5,0.5-3.5,1.1
	c-1.8,1.1-2.9,3.1-2.9,5.4l-0.2,1.4l-2.2,128.7c0,0,0,0.2,2.5,52.5v0.2c0,1.4,0.5,2.6,1.4,3.8c1.4,1.5,3.1,2.5,5.1,2.5
	c1.8,0,3.4-0.9,4.5-2c1.4-1.1,2-2.6,2-4.5l0.2-5.4l2.5-46.9L240,178.2C239.7,176,238.6,174,236.9,172.9L236.9,172.9z M147.7,190.9
	c-2.5,0-4.6,2.2-4.6,4.9l-3.5,112.5l3.5,53.8c0.2,2.6,2.2,4.6,4.6,4.6c2.6,0,4.6-2,4.9-4.6l4-53.8l-4-112.5
	C152.5,193.1,150.5,190.9,147.7,190.9L147.7,190.9z M449.1,241.1c-8.6,0-16.9,1.8-24.5,4.9C419.5,189.4,372,144.9,314,144.9
	c-14.2,0-28,2.6-40.2,7.5c-4.9,1.8-6.2,3.5-6.2,7.4v199.8c0,4,3.1,6.9,6.9,7.4h174.7c34.6,0,62.9-28,62.9-62.6
	C512,269.4,483.8,241.1,449.1,241.1L449.1,241.1z M211.7,192.9c-3.4,0-6,2.6-6.2,6.2l-2.6,109.4l2.6,52.5c0.2,3.4,2.9,6,6.2,6
	c3.4,0,6-2.6,6-6l3.1-52.5l-3.1-109.4C217.5,195.5,215.1,192.9,211.7,192.9L211.7,192.9z M168.9,186.6c-2.6,0-5.1,2.5-5.1,5.4
	l-3.1,116.3l3.1,53.5c0.2,2.9,2.5,5.1,5.1,5.1c2.9,0,5.1-2.2,5.4-5.1l3.5-53.5L174.2,192C174,189.1,171.7,186.6,168.9,186.6z
	 M190.2,189.4c-3.1,0-5.5,2.5-5.5,5.5l-3.1,113.4l3.1,53.1c0.2,3.1,2.5,5.5,5.5,5.5c3,0,5.5-2.5,5.5-5.5l3.4-53.1l-3.4-113.4
	C195.7,191.8,193.3,189.4,190.2,189.4L190.2,189.4z"/>
</svg>
