<?xml version="1.0" encoding="utf-8"?>
<!-- Generator: Adobe Illustrator 24.0.0, SVG Export Plug-In . SVG Version: 6.00 Build 0)  -->
<svg version="1.1" id="Layer_1" xmlns="http://www.w3.org/2000/svg" xmlns:xlink="http://www.w3.org/1999/xlink" x="0px" y="0px"
	 viewBox="0 0 512 512" style="enable-background:new 0 0 512 512;" xml:space="preserve">
<path d="M505.1,199.1c-25.8,0.1-120,5.5-190.1,73.8c-29.4,26.3-47.4,56.3-59,84.3c-11.6-28.1-29.6-58-59-84.3
	c-70.1-68.3-164.3-73.7-190.1-73.8c-3.9,0-6.9,3-6.9,7c0.2,24.8,6.3,112.1,78.9,177.2c74.7,72.7,148.6,71.9,177.1,71.9
	s102.4,0.8,177.1-71.9c72.6-65,78.7-152.3,78.9-177.2C512,202.1,509,199.1,505.1,199.1L505.1,199.1z M256,297.4
	c11.4-16.8,24.5-31.8,39.2-44.9c17-16.5,35.2-29.6,53.6-40.2c-14.6-62.7-46-118.3-86-153.1c-3.7-3.2-9.8-3.2-13.5,0
	c-40,34.8-71.4,90.3-86,153c18.1,10.4,36,23.2,52.6,39.5C231.1,265.3,244.5,280.6,256,297.4z"/>
</svg>
