<?xml version="1.0" encoding="utf-8"?>
<!-- Generator: Adobe Illustrator 24.0.0, SVG Export Plug-In . SVG Version: 6.00 Build 0)  -->
<svg version="1.1" id="Layer_1" xmlns="http://www.w3.org/2000/svg" xmlns:xlink="http://www.w3.org/1999/xlink" x="0px" y="0px"
	 viewBox="0 0 512 512" style="enable-background:new 0 0 512 512;" xml:space="preserve">
<path d="M474.1,217.8c-26.3-12.3-61.5-19.4-96.5-19.4H149.1c-4-5.2-8.5-9.6-13.4-12.8h165.1C183.3,161.4,175.5,76.8,76.8,76.8h0
	v102.4H64V76.8c-21.2,0-38.4,22.9-38.4,51.2v51.2C7,179.2,0,187.2,0,198.4v32c0,11.2,7.1,19.2,25.6,19.2v12.8
	C7,262.4,0,270.4,0,281.6v32c0,11.2,7.1,19.2,25.6,19.2V384c0,28.3,17.2,51.2,38.4,51.2V332.8h12.8v102.4h0
	c98.7,0,106.5-84.6,224-108.8H135.7c4.9-3.2,9.4-7.6,13.4-12.8h228.5c35,0,70.2-7.1,96.5-19.4c23.7-11.1,37.9-25.4,37.9-38.2
	S497.8,228.9,474.1,217.8z M390.4,288c-3.5,0-6.4-2.9-6.4-6.4v-51.2c0-3.5,2.9-6.4,6.4-6.4C415.9,224,416,288,390.4,288z"/>
</svg>
