<?xml version="1.0" encoding="utf-8"?>
<!-- Generator: Adobe Illustrator 24.0.0, SVG Export Plug-In . SVG Version: 6.00 Build 0)  -->
<svg version="1.1" id="Layer_1" xmlns="http://www.w3.org/2000/svg" xmlns:xlink="http://www.w3.org/1999/xlink" x="0px" y="0px"
	 viewBox="0 0 512 512" style="enable-background:new 0 0 512 512;" xml:space="preserve">
<path d="M96,391.8c-79.4-88.2-72-224.4,16.6-304.1s224.8-73,304.2,15.2s72,224.4-16.6,304.1c-18.7,16.9,64,43.1,42,52.3
	C360.1,493.5,188.3,494.3,96,391.8L96,391.8z M309.3,180.2l38.5-40.9c-9.6-8.9-32-26.8-76.2-27.6c-52.3-0.9-95.9,28.3-96.8,80
	c-0.2,11.3,0.3,36.7,29.4,54.8c34.5,21.4,86.5,21.5,86,52.3c-0.4,21.3-26.4,25.8-38.6,25.6c-3,0-30.2-0.5-47.6-24.6l-40,42.6
	c28.2,27,59,32.6,83.5,33c10.2,0.2,96.4,0.3,97.8-81c0.3-15.8-2.1-39.7-28.9-56.6c-34.4-21.6-85-19.4-84.4-49.8
	c0.4-23.3,31-25.4,37.5-25.3C270.1,162.9,296.3,163.1,309.3,180.2L309.3,180.2z"/>
</svg>
