<?xml version="1.0" encoding="utf-8"?>
<!-- Generator: Adobe Illustrator 24.0.0, SVG Export Plug-In . SVG Version: 6.00 Build 0)  -->
<svg version="1.1" id="Layer_1" xmlns="http://www.w3.org/2000/svg" xmlns:xlink="http://www.w3.org/1999/xlink" x="0px" y="0px"
	 viewBox="0 0 512 512" style="enable-background:new 0 0 512 512;" xml:space="preserve">
<path d="M241.8,256H323c38.4,0,72.9-28.6,75.1-67c1.2-21.1-7-41.7-22.5-56.1c6.5-12.2,9.3-26.1,8.1-39.9
	c-3.4-37.4-37.7-64.6-75.3-64.6h-66.7c-7.9,0-14.2,6.4-14.2,14.2v199.1C227.6,249.6,233.9,256,241.8,256z M277.3,78.2h35.6
	c11.8,0,21.3,9.6,21.3,21.3s-9.6,21.3-21.3,21.3h-35.6V78.2z M277.3,163.6h49.8c11.8,0,21.3,9.6,21.3,21.3
	c0,11.8-9.6,21.3-21.3,21.3h-49.8V163.6z M137.9,48.2c-3.8-11.8-14.7-19.8-27.1-19.8H88.3c-12.4,0-23.3,8-27.1,19.8L0.5,238
	c-2.1,7.6,2.3,15.4,9.9,17.5c1.2,0.3,2.5,0.5,3.8,0.5h22.2c6.4,0,12-4.3,13.7-10.4l10.6-32.2h77.7l10.6,32.2
	c1.7,6.2,7.3,10.4,13.7,10.4h22.2c7.9,0,14.2-6.4,14.2-14.2c0-1.3-0.2-2.6-0.5-3.8L137.9,48.2z M79.4,156.4l20.1-61.1l20.1,61.1
	H79.4z M507.9,274.2l-40.2-40.3c-5.5-5.5-14.4-5.6-20-0.1c0,0-0.1,0.1-0.1,0.1L313,368.6l-49.3-49.3c-5.5-5.5-14.4-5.6-20-0.1
	c0,0-0.1,0.1-0.1,0.1l-40.3,40.3c-5.5,5.6-5.5,14.5,0,20.1l99.6,99.7c5.5,5.5,14.4,5.6,20,0.1c0,0,0.1-0.1,0.1-0.1l184.9-185.1
	C513.4,288.7,513.4,279.7,507.9,274.2L507.9,274.2z"/>
</svg>
