<?xml version="1.0" encoding="utf-8"?>
<!-- Generator: Adobe Illustrator 24.0.0, SVG Export Plug-In . SVG Version: 6.00 Build 0)  -->
<svg version="1.1" id="Layer_1" xmlns="http://www.w3.org/2000/svg" xmlns:xlink="http://www.w3.org/1999/xlink" x="0px" y="0px"
	 viewBox="0 0 512 512" style="enable-background:new 0 0 512 512;" xml:space="preserve">
<path d="M134.4,177.2l23,7.7h4.2l4.6-23.2c0.6-3.2,1.6-6.7,2.9-10.5l-18-36.1l21.2-63.5c2.5-7.4-1.5-15.5-9-18l-13.5-4.5
	c-7.4-2.5-15.5,1.5-18,9l-23,69c-2.4,7.2-1.8,15,1.5,21.7L134.4,177.2z M509.6,339l-46.9-70.3c-5.3-7.9-14.2-12.7-23.7-12.7h-69.3
	l61.3-21.7c6-2,11.2-5.9,14.7-11.2l47.6-71.5c4.4-6.5,2.6-15.4-3.9-19.7l-11.8-7.9c-6.5-4.4-15.4-2.6-19.7,3.9L413,195.4l-53.8,17.9
	h-32.1l-9.2-46.1c-1.9-9.8-15.4-53.5-61.9-53.5s-59.9,43.7-61.9,53.5l-9.2,46.1h-32.1L99,195.4l-45-67.4c-4.4-6.5-13.2-8.3-19.7-3.9
	l-11.8,7.9c-6.5,4.4-8.3,13.2-3.9,19.7l47.6,71.5c3.5,5.3,8.7,9.2,14.7,11.2l61.3,21.6H72.9c-9.5,0-18.4,4.8-23.7,12.7L2.4,339
	c-4.4,6.5-2.6,15.4,3.9,19.7l11.8,7.9c6.5,4.4,15.4,2.6,19.7-3.9l42.7-64h41.8l-54.1,86.5c-2.8,4.5-4.3,9.7-4.3,15.1v69.1
	c0,7.9,6.4,14.2,14.2,14.2h14.2c7.9,0,14.2-6.4,14.2-14.2v-65L172.5,299c-0.9,12.5-1.8,25-1.8,37.5c0,47.2,36.2,90.2,85.3,90.2
	s85.3-43,85.3-90.2c0-12.5-1-25-1.8-37.5l65.8,105.4v65c0,7.9,6.4,14.2,14.2,14.2h14.2c7.9,0,14.2-6.4,14.2-14.2v-69.1
	c0-5.3-1.5-10.6-4.3-15.1l-54.1-86.5h41.8l42.7,64c4.4,6.5,13.2,8.3,19.7,3.9l11.8-7.9C512.2,354.4,514,345.5,509.6,339z M361,115.1
	l-18,36.1c1.3,3.7,2.2,7.3,2.9,10.5l4.6,23.2h4.2l23-7.7l24.1-48.3c3.4-6.7,3.9-14.6,1.5-21.7l-23-69c-2.5-7.4-10.5-11.5-18-9
	l-13.5,4.5c-7.4,2.5-11.5,10.5-9,18L361,115.1L361,115.1z"/>
</svg>
