<?xml version="1.0" encoding="utf-8"?>
<!-- Generator: Adobe Illustrator 24.0.0, SVG Export Plug-In . SVG Version: 6.00 Build 0)  -->
<svg version="1.1" id="Layer_1" xmlns="http://www.w3.org/2000/svg" xmlns:xlink="http://www.w3.org/1999/xlink" x="0px" y="0px"
	 viewBox="0 0 512 512" style="enable-background:new 0 0 512 512;" xml:space="preserve">
<path d="M507.8,251.8l-20.1-20.1c-5.6-5.6-14.6-5.6-20.1,0l-40.9,40.9l-40.9-40.9c-5.6-5.6-14.6-5.6-20.1,0l-20.1,20.1
	c-5.6,5.6-5.6,14.6,0,20.1l40.9,40.9l-40.9,40.9c-5.6,5.6-5.6,14.6,0,20.1l20.1,20.1c5.6,5.6,14.6,5.6,20.1,0l40.9-40.9l40.9,40.9
	c5.6,5.6,14.6,5.6,20.1,0l20.1-20.1c5.6-5.6,5.6-14.6,0-20.1l-40.9-40.9l40.9-40.9C513.4,266.4,513.4,257.4,507.8,251.8z
	 M490.7,28.4H273.5c-12.9,0-24.2,8.7-27.5,21.2l-75.4,286.9l-51.9-94.3c-5-9.1-14.5-14.7-24.9-14.7H21.3C9.6,227.6,0,237.1,0,248.9
	v42.7c0,11.8,9.6,21.3,21.3,21.3h38.8l79,145.5c11.1,17.6,26.5,25.1,43.1,25.1c15.4,0,39.5-8,48.2-36.9l86.9-332.9h173.3
	c11.8,0,21.3-9.6,21.3-21.3V49.8C512,38,502.4,28.4,490.7,28.4z"/>
</svg>
