<?xml version="1.0" encoding="utf-8"?>
<!-- Generator: Adobe Illustrator 24.0.0, SVG Export Plug-In . SVG Version: 6.00 Build 0)  -->
<svg version="1.1" id="Layer_1" xmlns="http://www.w3.org/2000/svg" xmlns:xlink="http://www.w3.org/1999/xlink" x="0px" y="0px"
	 viewBox="0 0 512 512" style="enable-background:new 0 0 512 512;" xml:space="preserve">
<path d="M276.6,232.4c0,8.5-4.3,20.5-21.3,20.5h-19.6v-41.5h19.6C272.4,211.4,276.6,223.8,276.6,232.4z M480,32v448H32V32H480z
	 M183.3,287.8c0-21.2-12.1-34.5-46.7-44.9c-20.6-7.4-26-10.9-26-18.6s7-14.6,20.4-14.6c14.1,0,20.8,8.4,20.8,18.4h30.7l0.2-0.6
	c0.5-19.6-15.1-41.7-51.1-41.7c-23.4,0-52.6,10.8-52.6,38.3c0,19.4,9.3,31.3,50.7,44.4c17.3,6.1,21.9,10.4,21.9,19.5
	c0,15.2-19.1,14.2-19.5,14.2c-20.4,0-25.7-9.1-25.7-21.9H75.7l-0.2,0.6c-0.7,31.3,28.4,45.2,56.6,45.2
	C162.2,326.1,183.3,312.6,183.3,287.8L183.3,287.8z M308.7,232.2c0-25.3-18.4-45.5-53.4-45.5h-51.8v138.2h32.2v-47.4h19.6
	C285.5,277.6,308.7,261.6,308.7,232.2L308.7,232.2z M329.9,325L379,186.8h-31.1L300,325H329.9z M436.5,186.8h-31.1L357.5,325h29.9
	L436.5,186.8z"/>
</svg>
