<?xml version="1.0" encoding="utf-8"?>
<!-- Generator: Adobe Illustrator 24.0.0, SVG Export Plug-In . SVG Version: 6.00 Build 0)  -->
<svg version="1.1" id="Layer_1" xmlns="http://www.w3.org/2000/svg" xmlns:xlink="http://www.w3.org/1999/xlink" x="0px" y="0px"
	 viewBox="0 0 512 512" style="enable-background:new 0 0 512 512;" xml:space="preserve">
<path d="M429.7,256l53.2-89.4c14.4-24.2-3.4-54.6-32-54.6H344l-56-94c-7.1-12-19.6-18-32-18s-24.9,6-32,18l-56,94H61.1
	c-28.6,0-46.4,30.4-32,54.6L82.3,256l-53.2,89.4c-14.4,24.2,3.4,54.6,32,54.6H168l55.9,94c7.1,12,19.6,18,32,18s24.9-6,32-18
	l55.9-94h106.9c28.6,0,46.4-30.4,32-54.6L429.7,256z M416.9,168l-19.8,33.3L377.3,168H416.9z M364.5,256l-52.4,88H199.9l-52.4-88
	l52.4-88h112.2L364.5,256z M256,73.7l22.8,38.3h-45.6L256,73.7z M95.1,168h39.6l-19.8,33.3L95.1,168z M95.1,344l19.8-33.3l19.8,33.3
	H95.1z M256,438.3L233.2,400h45.6L256,438.3z M377.3,344l19.8-33.3l19.8,33.3H377.3L377.3,344z"/>
</svg>
