<?xml version="1.0" encoding="utf-8"?>
<!-- Generator: Adobe Illustrator 24.0.0, SVG Export Plug-In . SVG Version: 6.00 Build 0)  -->
<svg version="1.1" id="Layer_1" xmlns="http://www.w3.org/2000/svg" xmlns:xlink="http://www.w3.org/1999/xlink" x="0px" y="0px"
	 viewBox="0 0 512 512" style="enable-background:new 0 0 512 512;" xml:space="preserve">
<path d="M485.8,175.3L346,154.9L283.5,28.5c-5.6-11.3-16.6-17-27.5-17c-10.9,0-21.8,5.6-27.4,17L166,154.9L26.2,175.3
	c-25.1,3.6-35.1,34.5-16.9,52.1l101.1,98.4l-23.9,139c-3.4,19.8,12.4,35.8,30.2,35.8c4.7,0,9.6-1.1,14.2-3.6L256,431.3L381,497
	c4.6,2.4,9.5,3.5,14.2,3.5c17.8,0,33.6-15.9,30.2-35.7l-23.9-139l101.2-98.4C520.9,209.8,510.9,178.9,485.8,175.3L485.8,175.3z
	 M369.5,293l-17.3,16.8l4.1,23.8l18.6,108.4l-97.6-51.2L256,379.5l0-303l48.7,98.7l10.7,21.6l23.9,3.5l109.1,15.9L369.5,293z"/>
</svg>
