<?xml version="1.0" encoding="utf-8"?>
<!-- Generator: Adobe Illustrator 24.0.0, SVG Export Plug-In . SVG Version: 6.00 Build 0)  -->
<svg version="1.1" id="Layer_1" xmlns="http://www.w3.org/2000/svg" xmlns:xlink="http://www.w3.org/1999/xlink" x="0px" y="0px"
	 viewBox="0 0 512 512" style="enable-background:new 0 0 512 512;" xml:space="preserve">
<path d="M418.7,292.5l2.7,2.7l-170-167.3c-3.5-3.5-9.7-3.7-13.8-0.5L180.3,171c-4.2,3.2-4.6,8.7-1.1,12.2l68.1,64.3
	c3.6,3.5,9.9,3.7,14,0.5l0.1-0.1c4.1-3.2,10.4-3,14,0.5l84,81.3c3.6,3.5,3.2,9-0.9,12.2l-93.2,74c-4.2,3.3-10.5,3.1-14.2-0.4
	L99.2,268c-3.5-3.5-9.7-3.7-13.9-0.5l-45.8,34.9c-4.2,3.2-4.7,8.7-1.2,12.2L247,510.7c0,0,7.4,6.8,17.3-0.8l198-163.9
	c4-3.2,4.4-8.7,0.7-12.2L418.7,292.5z M473.2,209.1L262.7,2.5c-1.5-1.2-8-5.5-16.3,1.1L39.6,165.7c-4.2,3.2-4.8,8.7-1.2,12.2
	l42.3,41.7l171.7,165.1c3.7,3.5,10.1,3.7,14.3,0.4l50.2-38.8l-0.3-0.3l7.7-6c4.2-3.2,4.6-8.7,0.9-12.2l-57.1-54.4
	c-3.6-3.5-10-3.7-14.2-0.5l-0.1,0.1c-4.2,3.2-10.5,3.1-14.2-0.4L145,180.8c-3.6-3.5-3.1-8.9,1.1-12.2l92.2-71.5
	c4.1-3.2,10.3-3,13.9,0.5l160.4,159c3.7,3.5,10,3.7,14.1,0.5l45.8-35.8C476.6,218.1,476.9,212.6,473.2,209.1L473.2,209.1z"/>
</svg>
