<?xml version="1.0" encoding="utf-8"?>
<!-- Generator: Adobe Illustrator 24.0.0, SVG Export Plug-In . SVG Version: 6.00 Build 0)  -->
<svg version="1.1" id="Layer_1" xmlns="http://www.w3.org/2000/svg" xmlns:xlink="http://www.w3.org/1999/xlink" x="0px" y="0px"
	 viewBox="0 0 512 512" style="enable-background:new 0 0 512 512;" xml:space="preserve">
<path d="M217.2,356.5c7.7-18.5-1-39.7-19.6-47.4l-29.5-12.2c11.4-4.3,24.3-4.5,36.4,0.5c12.2,5.1,21.6,14.6,26.7,26.7
	c5,12.2,5,25.6-0.1,37.7c-10.5,25.1-39.4,37-64.6,26.5c-11.6-4.8-20.4-13.6-25.4-24.2l28.5,11.8C188.2,383.7,209.5,375,217.2,356.5
	L217.2,356.5z M432,32H80c-26.5,0-48,21.5-48,48v160.7l116.6,48.1c12-8.2,26.2-12.1,40.7-11.3l55.4-80.2v-1.1
	c0-48.2,39.3-87.5,87.6-87.5s87.6,39.3,87.6,87.5c0,49.2-40.9,88.7-89.6,87.5l-79,56.3c1.6,38.5-29.1,68.8-65.7,68.8
	c-31.8,0-58.5-22.7-64.5-52.7L32,319.2V432c0,26.5,21.5,48,48,48h352c26.5,0,48-21.5,48-48V80C480,53.5,458.5,32,432,32z
	 M332.3,254.5c-32.2,0-58.4-26.1-58.4-58.3s26.2-58.3,58.4-58.3s58.4,26.2,58.4,58.3S364.5,254.5,332.3,254.5z M332.4,239.9
	c24.2,0,43.9-19.6,43.9-43.8s-19.6-43.8-43.9-43.8c-24.2,0-43.9,19.6-43.9,43.8S308.2,239.9,332.4,239.9z"/>
</svg>
