<?xml version="1.0" encoding="utf-8"?>
<!-- Generator: Adobe Illustrator 24.0.0, SVG Export Plug-In . SVG Version: 6.00 Build 0)  -->
<svg version="1.1" id="Layer_1" xmlns="http://www.w3.org/2000/svg" xmlns:xlink="http://www.w3.org/1999/xlink" x="0px" y="0px"
	 viewBox="0 0 512 512" style="enable-background:new 0 0 512 512;" xml:space="preserve">
<path d="M427.5,177.5c0,33.8-27.5,61-61,61c-33.8,0-61-27.3-61-61s27.3-61,61-61C400,116.5,427.5,143.7,427.5,177.5z M480,177.7
	c0,63-51,113.8-113.7,113.8L257,371.3c-4,43-40.5,76.8-84.5,76.8c-40.5,0-74.7-28.8-83-67L32,358V250.7l97.2,39.3
	c15.1-9.2,32.2-13.3,52-11.5l71-101.7c0.5-62.3,51.5-112.8,114-112.8C429,64,480,115,480,177.7z M235,363
	c0-34.7-27.8-62.5-62.5-62.5c-4.5,0-9,0.5-13.5,1.5l26,10.5c25.5,10.2,38,39,27.7,64.5c-10.2,25.5-39.2,38-64.7,27.5
	c-10.2-4-20.5-8.3-30.7-12.2c10.5,19.7,31.2,33.2,55.2,33.2C207.2,425.5,235,397.7,235,363z M442.5,177.7c0-42-34.3-76.2-76.2-76.2
	c-42.3,0-76.5,34.2-76.5,76.2c0,42.2,34.3,76.2,76.5,76.2C408.2,254,442.5,220,442.5,177.7z"/>
</svg>
