<?xml version="1.0" encoding="utf-8"?>
<!-- Generator: Adobe Illustrator 24.0.0, SVG Export Plug-In . SVG Version: 6.00 Build 0)  -->
<svg version="1.1" id="Layer_1" xmlns="http://www.w3.org/2000/svg" xmlns:xlink="http://www.w3.org/1999/xlink" x="0px" y="0px"
	 viewBox="0 0 512 512" style="enable-background:new 0 0 512 512;" xml:space="preserve">
<path d="M480,348.1V80c0-26.5-21.5-48-48-48H80c-26.5,0-48,21.5-48,48v352c0,26.5,21.5,48,48,48h268.1c12.7,0,24.9-5.1,33.9-14.1
	l83.9-83.9C474.9,373,480,360.8,480,348.1z M352,428.1V352h76.1L352,428.1z M432,80v224H328c-13.3,0-24,10.7-24,24v104H80V80H432z"
	/>
</svg>
