<?xml version="1.0" encoding="utf-8"?>
<!-- Generator: Adobe Illustrator 24.0.0, SVG Export Plug-In . SVG Version: 6.00 Build 0)  -->
<svg version="1.1" id="Layer_1" xmlns="http://www.w3.org/2000/svg" xmlns:xlink="http://www.w3.org/1999/xlink" x="0px" y="0px"
	 viewBox="0 0 512 512" style="enable-background:new 0 0 512 512;" xml:space="preserve">
<path d="M499.3,205.9C498.1,206.1,499.5,205.9,499.3,205.9z M493.8,137.1c-6.8-19.8-4.5-6.4-11.9-32.8c-1.4-5.8-3.2-12.9-5.5-17.8
	c-3.9-7.7-4.1-6.7-4.1-8.4c0-4.7,27.3-40.3,16.9-41.7c-5.1-0.5-10.8,10.3-18.3,15.1c-7.6,3.7-7.1,4.4-9.2,4.4
	c-2.3,0-5.1-2.7-5.5-4.4c-1.8-5.1,1.7-23-3.2-23c-3.2,0-10.9,22-15.1,22.9c-4.6,1.2-24.8-10.1-66.7,16c-22.5,11.7-77.2,57.9-77.3,58
	c-6,4.2-17.8,4.2-31.6,14.2c-39.5,26.8-97.4,8.4-98.4,8c-98.3-23.8-113.8-13.5-141.3,10.2C4,173.8,1.5,190.3,1,192.5
	c-3.7,18.1,4.6,42.9,6,57.1c1.6,17.2-2.4,15.7,6.8,87.4c0.4,0.9,3.6,0,4.5,1.3c0,7.5-3.4,10.8-3.6,11.6c-1.3,4-1.3,9.3,0,14.2
	c2,7.3,7.3,33.1,7.3,41.7c0,37.2,0.4,39.1,2.3,43.9c3.5,8.9,11.1,8.1,15.1,10.7c2.8,3.1-0.4,7.6,0.9,11.1c0.4,1.8,3.2,3.6,5.5,4.4
	c8.2,3.2,24,0.3,26.6-2.2c1.4-1.3,0.4-4,2.8-4.4c4.5,0,9.6-0.4,12.8-2.2c4.5-2.2,3.6-5.3,1.3-9.3c-0.4-0.7-6.2-11.8-8.7-14.2
	c-1.9-1.8-4.5-2.7-6.4-4c-5.2-4.4-9.2-17.2-9.2-17.3c-4.1-17.2-9.2-41.2-3.6-59.4c4.1-15.3,35.1-77.9,35.2-78
	c3.6-5.8,15.1-10.2,24.3-6.2c5.3,1.7,17.2,19.6,58.1,27.5c42.6,7.7,86.6-1.8,99.7-1.8c2.5,1.8-1.7,11.6-0.4,34.6
	c0,23.5-0.4,12.2-3.6,26.6c-2,8.6,3,20.6-1.3,41.7c-1.2,8.7-8.8,29.1-7.3,38.6c0.4,0.9,0.9,1.8,1.3,3.1c0.4,4,1.3,7.6,4.1,8.9
	c6.5,3.2,10.7-3.1,8.7,10.2c-0.6,2.8-2.3,10.7,1.3,13.3c3.9,3.3,27.2,3,32.4,0.4c2.3-1.3,1.4-4,5.7-6.6c1.7-0.8,10-0.4,10-5.8
	c0.3-1.6-8.2-17.7-8.3-17.8c-2.3-3.1-8.2-4-10-7.1c-6.1-9-1.5-46.7,0.4-52.8c2.7-9.8,5-19.9,7.7-28.8c9.8-37.8,9.2-45,14.7-60.7
	c0.7-1.6,5.7-20.5,9.2-26.6c8.3-15.1,19.3-28.8,29.8-42.1c16-20.4,30.2-41.7,46.2-62c5.4-6.2,7.3-12.2,16-7.1
	c9.6,5.1,19.2,6.2,28.4,15.1c13,11.4,9.1,16.2,10.5,20.4c1.3,4.4,6.8,9.3,13.2,8.4c9.2-1.8,11.6-2.2,11.9-2.2
	c2.3-0.4,5.1-4.4,6.4-7.1c2.8-4.9,6.4-8,6.4-14.7C512.1,177.3,511.7,181.6,493.8,137.1L493.8,137.1z"/>
</svg>
