<?xml version="1.0" encoding="utf-8"?>
<!-- Generator: Adobe Illustrator 24.0.0, SVG Export Plug-In . SVG Version: 6.00 Build 0)  -->
<svg version="1.1" id="Layer_1" xmlns="http://www.w3.org/2000/svg" xmlns:xlink="http://www.w3.org/1999/xlink" x="0px" y="0px"
	 viewBox="0 0 512 512" style="enable-background:new 0 0 512 512;" xml:space="preserve">
<path d="M464,304c0,114.9-93.1,208-208,208S48,418.9,48,304c0-104,76.3-190.2,176-205.5V64h-28c-6.6,0-12-5.4-12-12V12
	c0-6.6,5.4-12,12-12h120c6.6,0,12,5.4,12,12v40c0,6.6-5.4,12-12,12h-28v34.5c37.5,5.8,71.7,21.6,99.7,44.6l27.5-27.5
	c4.7-4.7,12.3-4.7,17,0l28.3,28.3c4.7,4.7,4.7,12.3,0,17l-29.4,29.4l-0.6,0.6C451.7,223.3,464,262.2,464,304z M288,340V188.5
	c0-6.6-5.4-12-12-12h-40c-6.6,0-12,5.4-12,12V340c0,6.6,5.4,12,12,12h40C282.6,352,288,346.6,288,340z"/>
</svg>
