<?xml version="1.0" encoding="utf-8"?>
<!-- Generator: Adobe Illustrator 24.0.0, SVG Export Plug-In . SVG Version: 6.00 Build 0)  -->
<svg version="1.1" id="Layer_1" xmlns="http://www.w3.org/2000/svg" xmlns:xlink="http://www.w3.org/1999/xlink" x="0px" y="0px"
	 viewBox="0 0 512 512" style="enable-background:new 0 0 512 512;" xml:space="preserve">
<path d="M430.5,190.9l0.6-0.6l26.6-26.6c6.2-6.2,6.3-16.4,0-22.6c0,0,0,0,0,0L435,118.4c-6.2-6.2-16.4-6.3-22.6,0c0,0,0,0,0,0
	l-24.7,24.7c-28.6-23.5-63.1-38.9-99.7-44.6V64h32c8.8,0,16-7.2,16-16V16c0-8.8-7.2-16-16-16H192c-8.8,0-16,7.2-16,16v32
	c0,8.8,7.2,16,16,16h32v34.5c-98.9,15.4-172.8,99-175.9,199.1C44.6,411.5,138.8,510.2,252.7,512C369.1,513.8,464,420,464,304
	C464.1,263.8,452.5,224.5,430.5,190.9z M236.4,377.5c4.5-0.1,8.2,3.5,8.3,8.1v22.3c-0.1,4.5-3.8,8.1-8.3,8.1h-82.9
	c-9.1,0.1-16.5-7.2-16.6-16.3c0-0.5,0-0.9,0-1.4c2.8-35.2,14.7-57.4,38.4-91.4c20.4-29.2,27.1-37.3,27.1-62.3
	c0-16.9-1.8-24.3-12.2-24.3c-9.4,0-12.7,7.4-12.7,22.7v5.2c-0.1,4.5-3.8,8.1-8.3,8.1c0,0,0,0,0,0h-24.9c-4.5,0.1-8.3-3.5-8.3-8.1
	c0,0,0,0,0,0v-4.1c0-27.3,8.5-60.2,56.4-60.2c43,0,55.6,25.9,55.6,61c0,35.6-12.4,51.2-34.4,81.3c-11.6,15-24.6,35.6-26.4,51.2
	L236.4,377.5z M376,352.3c0,35.2-12.3,63.7-57.2,63.7c-43.6,0-54.8-29.5-54.8-63.5V247.2c0-40.7,19.6-63.2,56.2-63.2
	c36.8,0,55.8,22.6,55.8,61.3V352.3z M319.9,221.7c-9.4,0-13.2,7.5-13.2,20v115.9c0,13.1,3.6,20.6,13.2,20.6s13-8,13-21.3V241.1
	C332.9,229.8,329.9,221.7,319.9,221.7z"/>
</svg>
