<?xml version="1.0" encoding="utf-8"?>
<!-- Generator: Adobe Illustrator 24.0.0, SVG Export Plug-In . SVG Version: 6.00 Build 0)  -->
<svg version="1.1" id="Layer_1" xmlns="http://www.w3.org/2000/svg" xmlns:xlink="http://www.w3.org/1999/xlink" x="0px" y="0px"
	 viewBox="0 0 512 512" style="enable-background:new 0 0 512 512;" xml:space="preserve">
<path d="M256,358.4H102.4v-128H51.2v204.8c0,14.2,11.4,25.6,25.6,25.6h204.8c14.2,0,25.6-11.4,25.6-25.6V230.4H256V358.4z
	 M507.7,165L439.5,62.5c-4.8-7.1-12.8-11.4-21.4-11.4H93.9c-8.6,0-16.6,4.2-21.3,11.4L4.4,165c-11.4,17,0.8,39.8,21.3,39.8h460.8
	C506.8,204.8,519,182,507.7,165z M409.6,448c0,7,5.8,12.8,12.8,12.8H448c7,0,12.8-5.8,12.8-12.8V230.4h-51.2V448z"/>
</svg>
