<?xml version="1.0" encoding="utf-8"?>
<!-- Generator: Adobe Illustrator 24.0.0, SVG Export Plug-In . SVG Version: 6.00 Build 0)  -->
<svg version="1.1" id="Layer_1" xmlns="http://www.w3.org/2000/svg" xmlns:xlink="http://www.w3.org/1999/xlink" x="0px" y="0px"
	 viewBox="0 0 512 512" style="enable-background:new 0 0 512 512;" xml:space="preserve">
<path d="M14.3,150.1L4.4,165c-11.4,17,0.8,39.8,21.3,39.8h59.4L14.3,150.1z M460.8,381.9V230.4h-51.2v112l-102.4-79.2v-32.8h-42.5
	l-33.1-25.6h254.8c20.4,0,32.6-22.8,21.3-39.8L439.4,62.6c-4.8-7.1-12.8-11.4-21.4-11.4H93.9c-8.6,0-16.5,4.2-21.3,11.4l-8.5,12.8
	L36.4,53.9c-5.6-4.3-13.6-3.3-18,2.2c0,0,0,0,0,0L2.7,76.4C-1.6,82-0.6,90,4.9,94.3l470.7,363.8c5.6,4.3,13.6,3.3,18-2.2
	c0,0,0,0,0,0l15.7-20.2c4.3-5.6,3.3-13.6-2.2-18L460.8,381.9z M256,358.4H102.4v-128H51.2v204.8c0,14.1,11.5,25.6,25.6,25.6h204.8
	c14.1,0,25.6-11.5,25.6-25.6v-58.7L256,336.9V358.4z"/>
</svg>
