<?xml version="1.0" encoding="utf-8"?>
<!-- Generator: Adobe Illustrator 24.0.0, SVG Export Plug-In . SVG Version: 6.00 Build 0)  -->
<svg version="1.1" id="Layer_1" xmlns="http://www.w3.org/2000/svg" xmlns:xlink="http://www.w3.org/1999/xlink" x="0px" y="0px"
	 viewBox="0 0 512 512" style="enable-background:new 0 0 512 512;" xml:space="preserve">
<path d="M500.4,141.8l-53.9-86.1c-4.8-7.7-13.4-12.5-22.5-12.5H88.1c-9.1,0-17.7,4.7-22.5,12.5l-53.9,86.1
	c-27.8,44.5-3.2,106.3,48.9,113.4c3.7,0.5,7.6,0.7,11.4,0.7c24.6,0,46.4-10.8,61.3-27.5c15,16.7,36.8,27.5,61.3,27.5
	c24.6,0,46.4-10.8,61.3-27.5c15,16.7,36.8,27.5,61.3,27.5c24.6,0,46.4-10.8,61.3-27.5c15,16.7,36.8,27.5,61.3,27.5
	c3.9,0,7.6-0.2,11.4-0.7C503.6,248.2,528.3,186.3,500.4,141.8z M440.1,282.6c-8.3,0-16.5-1.2-24.5-3.2v83H96.4v-83
	c-8,1.8-16.2,3.2-24.5,3.2c-5,0-10.1-0.3-15-1c-4.7-0.7-9.2-1.7-13.6-3v163.6c0,14.7,11.9,26.6,26.6,26.6h372.4
	c14.7,0,26.6-11.9,26.6-26.6V278.6c-4.5,1.3-9,2.4-13.6,3C450.2,282.3,445.2,282.6,440.1,282.6L440.1,282.6z"/>
</svg>
