<?xml version="1.0" encoding="utf-8"?>
<!-- Generator: Adobe Illustrator 24.0.0, SVG Export Plug-In . SVG Version: 6.00 Build 0)  -->
<svg version="1.1" id="Layer_1" xmlns="http://www.w3.org/2000/svg" xmlns:xlink="http://www.w3.org/1999/xlink" x="0px" y="0px"
	 viewBox="0 0 512 512" style="enable-background:new 0 0 512 512;" xml:space="preserve">
<path d="M102.3,363.8v-84c-7.7,2-15.6,3.1-23.6,3.2c-4.8,0-9.6-0.3-14.4-1c-4.4-0.7-8.8-1.7-13.1-3v165.7
	c0,14.9,11.4,26.9,25.6,26.9h349.1L293.4,363.8H102.3z M78.7,255.9c21.1,0,39.8-9,53.9-22.9L20.2,141.5
	c-25.7,45-2.1,106.5,47.6,113.7C71.4,255.7,75.1,255.9,78.7,255.9L78.7,255.9z M507.1,426.2l-46.3-37.6V278.9
	c-4.3,1.4-8.7,2.4-13.1,3c-4.8,0.7-9.7,1-14.6,1c-8-0.1-15.9-1.2-23.6-3.2v67.1l-116.1-94.4c6.9,2.2,14.1,3.4,21.4,3.5
	c23.7,0,44.6-10.9,59-27.9c14.5,16.9,35.4,27.9,59,27.9c3.7,0,7.3-0.3,10.9-0.8c50.2-7.1,74.1-69.7,47.2-114.9L439,53
	c-4.5-7.7-12.7-12.5-21.7-12.6h-323c-8.9,0.1-17.2,4.9-21.7,12.6l-7.9,13.3l-28.3-23c-5.3-4.4-13.1-3.6-17.4,1.6
	c-0.2,0.2-0.4,0.5-0.6,0.7L2.7,66.9c-4.3,5.9-3.4,14.2,2.2,18.9l470.7,382.9c5.3,4.4,13.1,3.6,17.4-1.7c0.2-0.2,0.4-0.5,0.5-0.7
	l15.7-21.3C513.6,439.2,512.7,430.9,507.1,426.2z"/>
</svg>
