<?xml version="1.0" encoding="utf-8"?>
<!-- Generator: Adobe Illustrator 24.0.0, SVG Export Plug-In . SVG Version: 6.00 Build 0)  -->
<svg version="1.1" id="Layer_1" xmlns="http://www.w3.org/2000/svg" xmlns:xlink="http://www.w3.org/1999/xlink" x="0px" y="0px"
	 viewBox="0 0 512 512" style="enable-background:new 0 0 512 512;" xml:space="preserve">
<path d="M132,166.9l-34.6,7.4l-0.2,113.9c0,21,15.8,34.6,36.9,34.6c11.7,0,20.2-2.2,25-4.7v-27c-4.6,1.8-27,8.4-27-12.6V228h27
	v-30.2h-27L132,166.9z M203.3,208.2l-2.2-10.5h-30.7v122.6h35.4v-82.5c8.4-11,22.6-8.9,27.1-7.4v-32.6
	C228.2,196.1,211.6,192.9,203.3,208.2L203.3,208.2z M277.1,150.4l-35.7,7.6v29l35.7-7.6V150.4z M35.9,233.8c0-5.5,4.6-7.7,12.1-7.8
	c10.8,0,24.6,3.3,35.4,9.1v-33.4c-11.8-4.6-23.5-6.5-35.3-6.5c-28.8,0-48,15-48,40.2c0,39.4,54,33,54,49.9c0,6.6-5.7,8.7-13.6,8.7
	c-11.8,0-27-4.9-38.9-11.4v32c13.2,5.7,26.6,8.1,38.8,8.1c29.5,0,49.8-12.6,49.8-38.2C90.2,242.2,35.9,249.8,35.9,233.8L35.9,233.8z
	 M512,260.5c0-36.4-17.6-65.1-51.4-65.1s-54.3,28.7-54.3,64.9c0,42.8,24.2,62.6,58.8,62.6c17,0,29.7-3.8,39.4-9.2v-26.7
	c-9.7,4.9-20.8,7.8-34.9,7.8c-13.8,0-26-4.9-27.6-21.5h69.5C511.7,271.4,512.1,263.9,512,260.5L512,260.5z M441.7,247
	c0-16,9.8-22.7,18.7-22.7c8.7,0,18,6.7,18,22.7H441.7z M351.4,195.3c-13.9,0-22.9,6.6-27.8,11.1l-1.8-8.8h-31.3v163.9l35.5-7.5
	l0.1-40.2c5.1,3.8,12.7,9,25.1,9c25.4,0,48.6-18.6,48.6-63.7C399.9,217.8,376.3,195.3,351.4,195.3L351.4,195.3z M342.9,293.4
	c-8.3,0-13.3-3-16.7-6.7l-0.2-52.8c3.7-4.1,8.8-7,17-7c13,0,21.9,14.6,21.9,33.1C364.9,279,356.1,293.4,342.9,293.4L342.9,293.4z
	 M241.5,320.3h35.7V197.7h-35.7V320.3z"/>
</svg>
