<?xml version="1.0" encoding="utf-8"?>
<!-- Generator: Adobe Illustrator 24.0.0, SVG Export Plug-In . SVG Version: 6.00 Build 0)  -->
<svg version="1.1" id="Layer_1" xmlns="http://www.w3.org/2000/svg" xmlns:xlink="http://www.w3.org/1999/xlink" x="0px" y="0px"
	 viewBox="0 0 512 512" style="enable-background:new 0 0 512 512;" xml:space="preserve">
<path d="M219.3,154.6c0-22.3,18.6-30.9,48.4-30.9c43.4,0,98.5,13.3,141.9,36.7V26.1C362.3,7.2,315.1,0,267.8,0
	C152.1,0,75,60.4,75,161.4c0,157.9,216.8,132.3,216.8,200.4c0,26.4-22.9,34.9-54.7,34.9c-47.2,0-108.2-19.5-156.1-45.5v128.5
	c49.3,21.3,102.3,32.3,156,32.4c118.6,0,200.3-51,200.3-153.6C437.3,188.3,219.3,218.8,219.3,154.6L219.3,154.6z"/>
</svg>
