<?xml version="1.0" encoding="utf-8"?>
<!-- Generator: Adobe Illustrator 24.0.0, SVG Export Plug-In . SVG Version: 6.00 Build 0)  -->
<svg version="1.1" id="Layer_1" xmlns="http://www.w3.org/2000/svg" xmlns:xlink="http://www.w3.org/1999/xlink" x="0px" y="0px"
	 viewBox="0 0 512 512" style="enable-background:new 0 0 512 512;" xml:space="preserve">
<path d="M264,8C127,8,16,119,16,256s111,248,248,248s248-111,248-248S401,8,264,8z M264,185.5c-9.8,0-17.8,8-17.8,17.8v106.9
	c0,40.9-33.9,73.9-74.9,73.9c-41.4,0-74.9-33.5-74.9-74.9v-46.5h57.3v45.8c0,10,8,17.8,17.8,17.8s17.8-7.9,17.8-17.8V200.1
	c0-40,34.2-72.1,74.7-72.1c40.7,0,74.7,32.3,74.7,72.6v23.7l-34.1,10.1l-22.9-10.7v-20.6C281.8,193.5,273.8,185.5,264,185.5
	L264,185.5z M431.6,309.1c0,41.4-33.5,74.9-74.9,74.9c-41.2,0-74.9-33.2-74.9-74.2V263l22.9,10.7l34.1-10.1v47.1
	c0,9.8,8,17.6,17.8,17.6s17.8-7.9,17.8-17.6v-48h57.3C431.6,308.6,431.6,309.1,431.6,309.1L431.6,309.1z"/>
</svg>
