<?xml version="1.0" encoding="utf-8"?>
<!-- Generator: Adobe Illustrator 24.0.0, SVG Export Plug-In . SVG Version: 6.00 Build 0)  -->
<svg version="1.1" id="Layer_1" xmlns="http://www.w3.org/2000/svg" xmlns:xlink="http://www.w3.org/1999/xlink" x="0px" y="0px"
	 viewBox="0 0 512 512" style="enable-background:new 0 0 512 512;" xml:space="preserve">
<path d="M400,160H112c-26.5,0-48,21.5-48,48v224c0,26.5,21.5,48,48,48h16v16c0,8.8,7.2,16,16,16h32c8.8,0,16-7.2,16-16v-16h128v16
	c0,8.8,7.2,16,16,16h32c8.8,0,16-7.2,16-16v-16h16c26.5,0,48-21.5,48-48V208C448,181.5,426.5,160,400,160z M384,376c0,4.4-3.6,8-8,8
	H136c-4.4,0-8-3.6-8-8v-16c0-4.4,3.6-8,8-8h240c4.4,0,8,3.6,8,8V376z M384,280c0,4.4-3.6,8-8,8H136c-4.4,0-8-3.6-8-8v-16
	c0-4.4,3.6-8,8-8h240c4.4,0,8,3.6,8,8V280z M208,48h96v80h48V48c0-26.5-21.5-48-48-48h-96c-26.5,0-48,21.5-48,48v80h48V48z"/>
</svg>
