<?xml version="1.0" encoding="utf-8"?>
<!-- Generator: Adobe Illustrator 24.0.0, SVG Export Plug-In . SVG Version: 6.00 Build 0)  -->
<svg version="1.1" id="Layer_1" xmlns="http://www.w3.org/2000/svg" xmlns:xlink="http://www.w3.org/1999/xlink" x="0px" y="0px"
	 viewBox="0 0 512 512" style="enable-background:new 0 0 512 512;" xml:space="preserve">
<path d="M480,32c-83.3,11-166.8,22-250,33C138,77.5,66.7,151.7,61,245c-3.3,55.5,18,109.5,57.8,148.2L32,480
	c83.3-11,166.5-22,249.8-33c91.8-12.5,163.3-86.8,168.7-179.8c3.5-55.5-18-109.5-57.7-148.2L480,32z M400.3,264.3
	c-4.2,79.5-74,139.2-152.8,134.5c-79.5-4.7-140.7-71-136.3-151c4.5-79.2,74.3-139.3,153-134.5C343.5,118,404.7,184.3,400.3,264.3z"
	/>
</svg>
