<?xml version="1.0" encoding="utf-8"?>
<!-- Generator: Adobe Illustrator 24.0.0, SVG Export Plug-In . SVG Version: 6.00 Build 0)  -->
<svg version="1.1" id="Layer_1" xmlns="http://www.w3.org/2000/svg" xmlns:xlink="http://www.w3.org/1999/xlink" x="0px" y="0px"
	 viewBox="0 0 512 512" style="enable-background:new 0 0 512 512;" xml:space="preserve">
<path d="M512,257.5c0,51.3-87.2,92.9-194.8,92.9c-19.8,0-38.9-1.4-56.9-4c6.2,0.3,12.4,0.5,18.7,0.5c107.6,0,194.8-45.5,194.8-101.7
	c0-23.5-15.3-45.1-41-62.4C480.9,199.6,512,226.8,512,257.5z M38.2,229.8c-0.1-56.2,87-101.8,194.6-102.1c6.3,0,12.5,0.2,18.6,0.4
	c-18-2.6-37-3.9-56.8-3.9C87,124.5-0.1,166.3,0,217.5c0.1,30.6,31.3,57.8,79.4,74.6C53.6,275,38.2,253.3,38.2,229.8L38.2,229.8z
	 M86.3,261.7c0,0,8.4,10.6,23.4,10.6c14.3,0,22.7-9.2,22.7-20.1c0-22.4-32.2-20.1-32.2-31.8c0-4.3,4.2-7.3,10-7.3c4.6,0,9,2.1,9,5.3
	v3.1h11.4v-6.3c0-9.7-12.3-13.4-20.3-13.4c-13.2,0-22.8,8.2-22.8,19.3c0,21.3,32.2,20.3,32.2,31.9c0,5.3-4.6,8.1-9.8,8.1
	c-9.5,0-16.6-8.1-16.6-8.1L86.3,261.7z M183,202.8v43.5c0,9-5.7,14.2-14.2,14.2s-14.2-5.2-14.2-14.2v-43.6H142v44
	c0,15.1,10.7,25.5,27,25.5c16.1,0,26.7-10.4,26.7-25.5v-44L183,202.8L183,202.8z M210.5,271.1h12.6v-23.6h12.4
	c12.8,0,21.8-9.2,21.8-22.5s-9-22.2-21.8-22.2h-31.3v10.7h6.2L210.5,271.1L210.5,271.1z M223.1,236.7v-23.3h10.3c7,0,11,4.6,11,11.5
	c0,7.1-4.1,11.8-11.2,11.8H223.1L223.1,236.7z M268.7,271.1h12.6v-23.6h12.4c12.8,0,21.8-9.2,21.8-22.5s-9-22.2-21.8-22.2h-31.3
	v10.7h6.2L268.7,271.1L268.7,271.1z M281.3,236.7v-23.3h10.3c7,0,11,4.6,11,11.5c0,7.1-4,11.8-11.2,11.8H281.3L281.3,236.7z
	 M327,264.6c0,4.6,1.9,6.6,6.6,6.6h30.1c4.6,0,6.6-1.9,6.6-6.6v-10.4h-11.4v4.2c0,1.4-0.8,2.1-2.1,2.1h-14.9c-1.4,0-2.1-0.8-2.1-2.1
	v-49c0-4.6-1.9-6.6-6.6-6.6h-12.3v10.7h4.2c1.4,0,2.1,0.8,2.1,2.1L327,264.6L327,264.6z M377.7,264.6c0,4.6,1.9,6.6,6.6,6.6h31
	c4.6,0,6.6-1.9,6.6-6.6v-10.4h-11.4v4.2c0,1.4-0.8,2.1-2.1,2.1h-15.8c-1.4,0-2.1-0.8-2.1-2.1v-16.2h22.2v-10.7h-22.2v-17.9h15.4
	c1.4,0,2.1,0.8,2.1,2.1v4.2h11.4v-10.4c0-4.6-2-6.6-6.6-6.6h-41.3v10.7h6.2L377.7,264.6L377.7,264.6z M424.8,203.8v4.7h1.3v-4.7h2.2
	v-1h-5.6v1H424.8z M429.4,202.8v5.7h1.2v-4.6l1.8,4.6h1l1.8-4.6v4.6h1.2v-5.7h-1.8l-1.7,4.1l-1.7-4.1H429.4z"/>
</svg>
