<?xml version="1.0" encoding="utf-8"?>
<!-- Generator: Adobe Illustrator 24.0.0, SVG Export Plug-In . SVG Version: 6.00 Build 0)  -->
<svg version="1.1" id="Layer_1" xmlns="http://www.w3.org/2000/svg" xmlns:xlink="http://www.w3.org/1999/xlink" x="0px" y="0px"
	 viewBox="0 0 512 512" style="enable-background:new 0 0 512 512;" xml:space="preserve">
<path d="M378.4,131.7c0,0-0.2,14.8-0.2,16.5c-7.4-2.4-60.3-19.5-110-21.3c-42.1-1.5-99.5-3.5-180.7,46.4
	c-15.7,10-59.9,37.4-80.7,88.9C2.3,273-3.4,297.3,2.3,320C5,330.4,9.6,340.2,15.7,349c14.1,20.3,37.8,33.7,63.3,36
	c36,3.2,63.3-13,72.9-43.2c6.6-20.9,0-51.5-25.5-67.2c-20.7-12.7-43.2-9.8-56.1-1.3c-11.3,7.5-17.7,19-17.5,31.8
	c0.2,22.5,19.7,34.5,33.6,34.5c4.4,0,8.7-0.8,12.8-2.2c5.3-1.5,10.8-5.3,10.8-12.1c0-9.8-9.4-12-13.6-11.3c-2.4,0.4-3.6,1.6-9.6,1.9
	c-1.6-0.2-9.7-2.5-9.7-11.3v0c0.2-10,10.7-14.6,20.7-13.7c26.2,2.3,38.7,33,23.1,53.2c-14.8,19.2-62.1,18.8-80.8-16.5
	c-21.1-39.9,10.3-90.1,70.5-79.7c26.9,4.6,67.7,28.8,83,84.5h37.2c-4.6-14.3-7.2-55.4,34.6-55.4c45.9,0,51.8,32.3,64.7,55.4h39.4
	c-10.4-14.8-17.6-31.4-15.3-45.2c4.5-27.4,32.2-14.9,66.8-14.1c53.9,0.3,82.7-21.9,83.6-22.7c3-2.5,5.3-12.8,5.7-14.3
	c1.1-4.1-2.6-1.9-2.6-1.9c-7.1,4.2-24.7,12.3-41.2,12.6c-20.5,0.4-61.8-20.6-66.1-22.9c-0.2-0.3,0.1,1-8.9-20.7
	c71.6,47.2,95.9,32.8,117.7,17.6c0.6-0.5,3.5-2.4,2.9-4.6c-11.2-39-18.2-50.8-28-56.4c-30-17.5-101.3-28.1-104.7-28.6
	C379.2,131.1,378.4,130.9,378.4,131.7L378.4,131.7z M427.4,190.7c0.5-16.8,14.6-30,31.4-29.4c0,0,0.1,0,0.1,0
	c27.1,1,39.5,34.3,19.8,52.8C459.1,232.5,426.5,217.8,427.4,190.7L427.4,190.7z M458.6,170.2c-11.8-0.4-21.6,8.8-22,20.6
	c-0.4,11.8,8.8,21.6,20.6,22c11.7,0.4,21.5-8.8,22-20.5c0.5-11.7-8.7-21.6-20.4-22C458.8,170.2,458.7,170.2,458.6,170.2z
	 M462.1,193.5c-12.5,0-12.5-12.6,0-12.6S474.6,193.6,462.1,193.5L462.1,193.5z"/>
</svg>
