<?xml version="1.0" encoding="utf-8"?>
<!-- Generator: Adobe Illustrator 24.0.0, SVG Export Plug-In . SVG Version: 6.00 Build 0)  -->
<svg version="1.1" id="Layer_1" xmlns="http://www.w3.org/2000/svg" xmlns:xlink="http://www.w3.org/1999/xlink" x="0px" y="0px"
	 viewBox="0 0 512 512" style="enable-background:new 0 0 512 512;" xml:space="preserve">
<path d="M480,156.1c0-4.5-0.1-9-0.2-13.5c-0.1-9.9-1-19.7-2.6-29.4c-1.7-9.7-4.8-19.2-9.2-28C459,67.4,444.6,53,426.8,44
	c-8.8-4.5-18.3-7.6-28-9.2c-9.7-1.6-19.6-2.5-29.4-2.6c-4.5-0.1-9-0.2-13.5-0.2H156.1c-4.5,0-9,0.1-13.5,0.2
	c-2.4,0.1-4.9,0.2-7.4,0.3c-7.4,0.3-14.8,1.1-22.1,2.3c-7.3,1.3-14.4,3.3-21.2,6.1c-2.3,1-4.6,2-6.8,3.1
	c-6.6,3.4-12.8,7.5-18.4,12.3c-1.9,1.6-3.7,3.3-5.4,5c-7,7-12.9,15-17.3,23.9c-4.4,8.8-7.6,18.3-9.2,28c-1.6,9.7-2.4,19.6-2.5,29.4
	c-0.1,4.5-0.2,9-0.2,13.5v199.8c0,4.5,0.1,9,0.2,13.5c0.1,9.9,1,19.7,2.6,29.4c1.7,9.7,4.8,19.2,9.2,28c9,17.7,23.4,32.1,41.1,41.1
	c8.8,4.4,18.3,7.5,28,9.2c9.7,1.6,19.6,2.5,29.4,2.6c4.5,0.1,9,0.2,13.5,0.2h199.8c4.5,0,9-0.1,13.5-0.2c9.9-0.1,19.7-1,29.4-2.6
	c9.7-1.7,19.2-4.8,28-9.2c17.7-9,32.1-23.4,41.1-41.2c4.4-8.8,7.6-18.3,9.2-28c1.6-9.7,2.5-19.6,2.6-29.4c0.1-4.5,0.2-9,0.2-13.5
	V172.1C480,166.8,480,161.4,480,156.1z M410.1,397.1c-20-38.9-57.2-29.3-76.3-19.5c-1.7,1-3.5,2-5.3,3l-0.4,0.3
	c-39.5,21-92.5,22.5-145.9-0.4c-43.4-18.8-80.1-50.3-105.3-90.4c12.3,9.1,25.4,16.9,39.2,23.4c56.4,26.4,113,24.5,153,0
	c-57-43.9-104.6-101-141.1-147.2c-7-8.1-13.2-16.8-18.8-25.9c43.7,40,112.7,90.2,137.5,104.1c-52.6-55.5-98.9-123.9-96.7-121.7
	c82.8,83.4,159.2,130.6,159.2,130.6c2.9,1.6,5,2.9,6.7,4c1.6-4.1,3-8.2,4.2-12.5c13.2-48.3-1.7-103.6-35.3-149.2
	c76.8,46.1,122.2,133.7,103.6,207.8c-0.4,1.7-1,3.4-1.4,5.1C425.5,355.9,415,406.7,410.1,397.1L410.1,397.1z"/>
</svg>
