<?xml version="1.0" encoding="utf-8"?>
<!-- Generator: Adobe Illustrator 24.0.0, SVG Export Plug-In . SVG Version: 6.00 Build 0)  -->
<svg version="1.1" id="Layer_1" xmlns="http://www.w3.org/2000/svg" xmlns:xlink="http://www.w3.org/1999/xlink" x="0px" y="0px"
	 viewBox="0 0 512 512" style="enable-background:new 0 0 512 512;" xml:space="preserve">
<path d="M151.7,299.7c2.8,2.6,12.2,7.5,27.5,7.5s24.7-4.9,27.5-7.5c12.8-11.8,27.6-18.1,42.8-18.1h13c15.2,0,30,6.2,42.8,18.1
	c2.8,2.6,12.2,7.5,27.5,7.5s24.7-4.9,27.5-7.5c11.9-11,25.5-16.9,39.5-17.7l-90.3-64.5l14.4-10.3c2.9-2.1,6.6-2.8,10.1-2.1
	l80.3,17.2c20.7,4.4,41.2-8.8,45.6-29.5c4.4-20.7-8.8-41.2-29.5-45.6L350.1,130c-24.6-5.3-50.4,0.1-70.8,14.7l-64,45.7
	c-8.3,5.9-15.5,13.2-21.4,21.6L139,290.4C143.4,293,147.7,295.9,151.7,299.7z M499.2,332.8h-12.8c-20.8,0-36.6-6.7-44.9-14.3
	c-7.1-6.6-15.7-11.3-25.4-11.3h-13c-9.7,0-18.3,4.7-25.4,11.3c-8.2,7.6-24,14.3-44.9,14.3c-20.8,0-36.6-6.7-44.9-14.3
	c-7.1-6.6-15.7-11.3-25.4-11.3h-13c-9.7,0-18.3,4.7-25.4,11.3c-8.2,7.6-24,14.3-44.9,14.3s-36.6-6.7-44.9-14.3
	c-7.1-6.6-15.7-11.3-25.4-11.3h-13c-9.7,0-18.3,4.7-25.4,11.3c-8.2,7.6-24,14.3-44.9,14.3H12.8c-7.1,0-12.8,5.7-12.8,12.8v25.6
	c0,7.1,5.7,12.8,12.8,12.8h12.8c30.9,0,58.2-9.8,76.8-25.5c18.6,15.7,45.9,25.5,76.8,25.5s58.2-9.8,76.8-25.5
	c18.6,15.7,45.9,25.5,76.8,25.5s58.2-9.8,76.8-25.5c18.6,15.7,45.9,25.5,76.8,25.5h12.8c7.1,0,12.8-5.7,12.8-12.8v-25.6
	C512,338.5,506.3,332.8,499.2,332.8z M89.6,256c35.3,0,64-28.7,64-64s-28.7-64-64-64s-64,28.7-64,64S54.3,256,89.6,256z"/>
</svg>
