<?xml version="1.0" encoding="utf-8"?>
<!-- Generator: Adobe Illustrator 24.0.0, SVG Export Plug-In . SVG Version: 6.00 Build 0)  -->
<svg version="1.1" id="Layer_1" xmlns="http://www.w3.org/2000/svg" xmlns:xlink="http://www.w3.org/1999/xlink" x="0px" y="0px"
	 viewBox="0 0 512 512" style="enable-background:new 0 0 512 512;" xml:space="preserve">
<path d="M499.2,384h-12.8c-20.8,0-36.6-6.7-44.9-14.3c-7.1-6.6-15.7-11.3-25.4-11.3h-13c-9.7,0-18.3,4.7-25.4,11.3
	c-8.2,7.6-24,14.3-44.9,14.3c-20.8,0-36.6-6.7-44.9-14.3c-7.1-6.6-15.7-11.3-25.4-11.3h-13c-9.7,0-18.3,4.7-25.4,11.3
	c-8.2,7.6-24,14.3-44.9,14.3s-36.6-6.7-44.9-14.3c-7.1-6.6-15.7-11.3-25.4-11.3h-13c-9.7,0-18.3,4.7-25.4,11.3
	c-8.2,7.6-24,14.3-44.9,14.3H12.8C5.7,384,0,389.7,0,396.8v25.6c0,7.1,5.7,12.8,12.8,12.8h12.8c30.9,0,58.2-9.8,76.8-25.5
	c18.6,15.7,45.9,25.5,76.8,25.5s58.2-9.8,76.8-25.5c18.6,15.7,45.9,25.5,76.8,25.5s58.2-9.8,76.8-25.5
	c18.6,15.7,45.9,25.5,76.8,25.5h12.8c7.1,0,12.8-5.7,12.8-12.8v-25.6C512,389.7,506.3,384,499.2,384z M179.2,358.4v-76.8h153.6v76.8
	c15.3,0,24.7-4.9,27.5-7.5c7.3-6.8,15.4-11.5,23.7-14.5V153.6c0-14.1,11.5-25.6,25.6-25.6c14.1,0,25.6,11.5,25.6,25.6v12.8
	c0,7.1,5.7,12.8,12.8,12.8h25.6c7.1,0,12.8-5.7,12.8-12.8v-12.8c0-42.4-34.4-76.8-76.8-76.8s-76.8,34.4-76.8,76.8v76.8H179.2v-76.8
	c0-14.1,11.5-25.6,25.6-25.6c14.1,0,25.6,11.5,25.6,25.6v12.8c0,7.1,5.7,12.8,12.8,12.8h25.6c7.1,0,12.8-5.7,12.8-12.8v-12.8
	c0-42.4-34.4-76.8-76.8-76.8S128,111.2,128,153.6v182.8c8.3,3,16.4,7.7,23.7,14.5C154.5,353.5,163.9,358.4,179.2,358.4z"/>
</svg>
