<?xml version="1.0" encoding="utf-8"?>
<!-- Generator: Adobe Illustrator 24.0.0, SVG Export Plug-In . SVG Version: 6.00 Build 0)  -->
<svg version="1.1" id="Layer_1" xmlns="http://www.w3.org/2000/svg" xmlns:xlink="http://www.w3.org/1999/xlink" x="0px" y="0px"
	 viewBox="0 0 512 512" style="enable-background:new 0 0 512 512;" xml:space="preserve">
<path d="M56,208.4L5.3,265.8c-3.4,3.9-5.3,8.9-5.3,14.1v180.9h102.4V242.9L72,208.4C67.8,203.6,60.2,203.6,56,208.4L56,208.4z
	 M506.7,265.8L456,208.4c-4.2-4.8-11.8-4.8-16,0l-30.4,34.5v217.9H512V279.9C512,274.7,510.1,269.7,506.7,265.8z M272,56.8
	c-9.4-7.5-22.6-7.5-32,0l-102.4,81.9c-6.1,4.9-9.6,12.2-9.6,20v302.1h76.8v-74.1c0-25.5,17.4-49.1,42.6-53.2
	c32.1-5.2,59.8,19.4,59.8,50.5v76.8H384V158.7c0-7.8-3.5-15.1-9.6-20C374.4,138.7,272,56.8,272,56.8z M313.6,229.2
	c1.6,2.5-0.2,5.8-3.2,5.8h-31.2l-20.1,32c-1.5,2.4-4.9,2.4-6.4,0l-20.1-32h-31.2c-3,0-4.8-3.3-3.2-5.8l15.4-24.4l-15.4-24.4
	c-1.6-2.5,0.2-5.8,3.2-5.8h31.2l20.1-32c1.5-2.4,4.9-2.4,6.4,0l20.1,32h31.2c3,0,4.8,3.3,3.2,5.8l-15.4,24.5L313.6,229.2z"/>
</svg>
