<?xml version="1.0" encoding="utf-8"?>
<!-- Generator: Adobe Illustrator 24.0.0, SVG Export Plug-In . SVG Version: 6.00 Build 0)  -->
<svg version="1.1" id="Layer_1" xmlns="http://www.w3.org/2000/svg" xmlns:xlink="http://www.w3.org/1999/xlink" x="0px" y="0px"
	 viewBox="0 0 512 512" style="enable-background:new 0 0 512 512;" xml:space="preserve">
<path d="M128,204.8c-64.9,0-118,46.8-127.9,107.8c-0.6,3.8,2.6,7.4,6.6,7.4h242.6c4,0,7.3-3.6,6.6-7.4
	C246,251.6,192.9,204.8,128,204.8z M249.3,345.6H6.7c-4,0-7.3,3.6-6.6,7.4c9.9,61,63,107.8,127.9,107.8S246,414,255.9,353
	C256.6,349.2,253.3,345.6,249.3,345.6z M474.7,88.5c-45.2-45.2-115.4-49.1-165.5-12.8c-3.2,2.3-3.4,7.1-0.6,9.8l169,169.1
	c2.8,2.8,7.6,2.6,9.8-0.6C523.8,203.8,519.9,133.7,474.7,88.5L474.7,88.5z M290.4,103.8c-2.8-2.8-7.6-2.6-9.8,0.6
	c-36.3,50.2-32.4,120.3,12.7,165.5c45.2,45.2,115.4,49.1,165.5,12.7c3.2-2.3,3.4-7.1,0.6-9.8L290.4,103.8z"/>
</svg>
