<?xml version="1.0" encoding="utf-8"?>
<!-- Generator: Adobe Illustrator 24.0.0, SVG Export Plug-In . SVG Version: 6.00 Build 0)  -->
<svg version="1.1" id="Layer_1" xmlns="http://www.w3.org/2000/svg" xmlns:xlink="http://www.w3.org/1999/xlink" x="0px" y="0px"
	 viewBox="0 0 512 512" style="enable-background:new 0 0 512 512;" xml:space="preserve">
<path d="M256,56.9c-141.4,0-256,114.6-256,256c0,46.9,12.7,90.9,34.7,128.7c5,8.6,14.5,13.5,24.4,13.5h393.8c9.9,0,19.4-5,24.4-13.5
	c22.1-37.8,34.7-81.8,34.7-128.7C512,171.5,397.4,56.9,256,56.9z M256,113.8c13.1,0,23.6,9,27,21c-1,2-2.3,3.8-3.1,5.9l-8.2,24.6
	c-4.6,3.1-9.8,5.3-15.7,5.3c-15.7,0-28.4-12.7-28.4-28.4S240.3,113.8,256,113.8z M85.3,369.8c-15.7,0-28.4-12.7-28.4-28.4
	c0-15.7,12.7-28.4,28.4-28.4s28.4,12.7,28.4,28.4C113.8,357,101,369.8,85.3,369.8z M128,227.6c-15.7,0-28.4-12.7-28.4-28.4
	s12.7-28.4,28.4-28.4s28.4,12.7,28.4,28.4S143.7,227.6,128,227.6z M347.4,163.2l-54.5,163.6c12.2,10.4,20.1,25.7,20.1,43
	c0,10.4-3,20-7.9,28.4h-98c-4.9-8.4-7.9-18-7.9-28.4c0-30.2,23.6-54.6,53.2-56.5l54.5-163.6c3.7-11.2,15.8-17.3,27-13.5
	C345,139.9,351.1,152,347.4,163.2L347.4,163.2z M360.4,214l13.8-41.4c3.1-1.1,6.3-2,9.8-2c15.7,0,28.4,12.7,28.4,28.4
	s-12.7,28.4-28.4,28.4C373.9,227.6,365.4,222,360.4,214L360.4,214z M426.7,369.8c-15.7,0-28.4-12.7-28.4-28.4
	c0-15.7,12.7-28.4,28.4-28.4c15.7,0,28.4,12.7,28.4,28.4C455.1,357,442.4,369.8,426.7,369.8z"/>
</svg>
