<?xml version="1.0" encoding="utf-8"?>
<!-- Generator: Adobe Illustrator 24.0.0, SVG Export Plug-In . SVG Version: 6.00 Build 0)  -->
<svg version="1.1" id="Layer_1" xmlns="http://www.w3.org/2000/svg" xmlns:xlink="http://www.w3.org/1999/xlink" x="0px" y="0px"
	 viewBox="0 0 512 512" style="enable-background:new 0 0 512 512;" xml:space="preserve">
<path d="M398.4,232L228.8,62.4c-7.2-7.2-17-11.2-27.2-11.2H38.4C17.2,51.2,0,68.4,0,89.6v163.3c0,10.2,4,20,11.2,27.2l169.5,169.5
	c15,15,39.3,15,54.3,0l163.3-163.3C413.3,271.3,413.3,246.9,398.4,232L398.4,232z M89.6,179.2c-21.2,0-38.4-17.2-38.4-38.4
	s17.2-38.4,38.4-38.4s38.4,17.2,38.4,38.4S110.8,179.2,89.6,179.2z M500.8,286.3L337.5,449.6c-15,15-39.3,15-54.3,0l-0.3-0.3
	L422.1,310c13.6-13.6,21.1-31.7,21.1-50.9s-7.5-37.3-21.1-50.9l-157-157h39c10.2,0,20,4,27.2,11.2L500.8,232
	C515.7,246.9,515.7,271.3,500.8,286.3L500.8,286.3z"/>
</svg>
