<?xml version="1.0" encoding="utf-8"?>
<!-- Generator: Adobe Illustrator 24.0.0, SVG Export Plug-In . SVG Version: 6.00 Build 0)  -->
<svg version="1.1" id="Layer_1" xmlns="http://www.w3.org/2000/svg" xmlns:xlink="http://www.w3.org/1999/xlink" x="0px" y="0px"
	 viewBox="0 0 512 512" style="enable-background:new 0 0 512 512;" xml:space="preserve">
<path d="M179.2,204.8c-28.2,0-51.2,23-51.2,51.2s23,51.2,51.2,51.2s51.2-23,51.2-51.2S207.4,204.8,179.2,204.8z M499.2,384H304.5
	c33.2-32.6,53.9-77.8,53.9-128c0-99-80.2-179.2-179.2-179.2S0,157,0,256s80.2,179.2,179.2,179.2h320c7,0,12.8-5.8,12.8-12.8v-25.6
	C512,389.8,506.2,384,499.2,384z M179.2,332.8c-42.4,0-76.8-34.4-76.8-76.8s34.4-76.8,76.8-76.8S256,213.6,256,256
	S221.6,332.8,179.2,332.8z"/>
</svg>
