<?xml version="1.0" encoding="utf-8"?>
<!-- Generator: Adobe Illustrator 24.0.0, SVG Export Plug-In . SVG Version: 6.00 Build 0)  -->
<svg version="1.1" id="Layer_1" xmlns="http://www.w3.org/2000/svg" xmlns:xlink="http://www.w3.org/1999/xlink" x="0px" y="0px"
	 viewBox="0 0 512 512" style="enable-background:new 0 0 512 512;" xml:space="preserve">
<path d="M435.2,51.2H76.8C34.4,51.2,0,85.6,0,128v256c0,42.4,34.4,76.8,76.8,76.8h358.4c42.4,0,76.8-34.4,76.8-76.8V128
	C512,85.6,477.6,51.2,435.2,51.2z M128,345.6c0,21.2-17.2,38.4-38.4,38.4s-38.4-17.2-38.4-38.4v-51.2c0-7.1,5.7-12.8,12.8-12.8h51.2
	c7.1,0,12.8,5.7,12.8,12.8V345.6z M128,243.2c0,7.1-5.7,12.8-12.8,12.8H64c-7.1,0-12.8-5.7-12.8-12.8V192
	c0-21.2,17.2-38.4,38.4-38.4S128,170.8,128,192V243.2z M243.2,339.2c0,24.7-20.1,44.8-44.8,44.8s-44.8-20.1-44.8-44.8v-44.8
	c0-7.1,5.7-12.8,12.8-12.8h64c7.1,0,12.8,5.7,12.8,12.8V339.2z M243.2,243.2c0,7.1-5.7,12.8-12.8,12.8h-64
	c-7.1,0-12.8-5.7-12.8-12.8v-70.4c0-24.7,20.1-44.8,44.8-44.8s44.8,20.1,44.8,44.8V243.2z M358.4,339.2c0,24.7-20.1,44.8-44.8,44.8
	s-44.8-20.1-44.8-44.8v-44.8c0-7.1,5.7-12.8,12.8-12.8h64c7.1,0,12.8,5.7,12.8,12.8V339.2z M358.4,243.2c0,7.1-5.7,12.8-12.8,12.8
	h-64c-7.1,0-12.8-5.7-12.8-12.8v-70.4c0-24.7,20.1-44.8,44.8-44.8s44.8,20.1,44.8,44.8V243.2z M460.8,345.6
	c0,21.2-17.2,38.4-38.4,38.4S384,366.8,384,345.6v-51.2c0-7.1,5.7-12.8,12.8-12.8H448c7.1,0,12.8,5.7,12.8,12.8V345.6z M460.8,243.2
	c0,7.1-5.7,12.8-12.8,12.8h-51.2c-7.1,0-12.8-5.7-12.8-12.8V192c0-21.2,17.2-38.4,38.4-38.4s38.4,17.2,38.4,38.4V243.2z"/>
</svg>
