<?xml version="1.0" encoding="utf-8"?>
<!-- Generator: Adobe Illustrator 24.0.0, SVG Export Plug-In . SVG Version: 6.00 Build 0)  -->
<svg version="1.1" id="Layer_1" xmlns="http://www.w3.org/2000/svg" xmlns:xlink="http://www.w3.org/1999/xlink" x="0px" y="0px"
	 viewBox="0 0 512 512" style="enable-background:new 0 0 512 512;" xml:space="preserve">
<path d="M435.2,51.2H76.8C34.4,51.2,0,85.6,0,128v51.2c0,28.3,22.9,51.2,51.2,51.2h409.6c28.3,0,51.2-22.9,51.2-51.2V128
	C512,85.6,477.6,51.2,435.2,51.2z M128,192c0,7.1-5.7,12.8-12.8,12.8H64c-7.1,0-12.8-5.7-12.8-12.8v-25.6
	c0-21.2,17.2-38.4,38.4-38.4s38.4,17.2,38.4,38.4V192z M243.2,192c0,7.1-5.7,12.8-12.8,12.8h-64c-7.1,0-12.8-5.7-12.8-12.8v-44.8
	c0-24.7,20.1-44.8,44.8-44.8s44.8,20.1,44.8,44.8V192z M358.4,192c0,7.1-5.7,12.8-12.8,12.8h-64c-7.1,0-12.8-5.7-12.8-12.8v-44.8
	c0-24.7,20.1-44.8,44.8-44.8s44.8,20.1,44.8,44.8V192z M460.8,192c0,7.1-5.7,12.8-12.8,12.8h-51.2c-7.1,0-12.8-5.7-12.8-12.8v-25.6
	c0-21.2,17.2-38.4,38.4-38.4s38.4,17.2,38.4,38.4V192z M460.8,307.2H51.2C22.9,307.2,0,330.1,0,358.4V384
	c0,42.4,34.4,76.8,76.8,76.8h358.4c42.4,0,76.8-34.4,76.8-76.8v-25.6C512,330.1,489.1,307.2,460.8,307.2z M128,371.2
	c0,21.2-17.2,38.4-38.4,38.4s-38.4-17.2-38.4-38.4v-25.6c0-7.1,5.7-12.8,12.8-12.8h51.2c7.1,0,12.8,5.7,12.8,12.8V371.2z
	 M243.2,364.8c0,24.7-20.1,44.8-44.8,44.8s-44.8-20.1-44.8-44.8v-19.2c0-7.1,5.7-12.8,12.8-12.8h64c7.1,0,12.8,5.7,12.8,12.8V364.8z
	 M358.4,364.8c0,24.7-20.1,44.8-44.8,44.8s-44.8-20.1-44.8-44.8v-19.2c0-7.1,5.7-12.8,12.8-12.8h64c7.1,0,12.8,5.7,12.8,12.8V364.8z
	 M460.8,371.2c0,21.2-17.2,38.4-38.4,38.4S384,392.4,384,371.2v-25.6c0-7.1,5.7-12.8,12.8-12.8H448c7.1,0,12.8,5.7,12.8,12.8V371.2z
	"/>
</svg>
