<?xml version="1.0" encoding="utf-8"?>
<!-- Generator: Adobe Illustrator 24.0.0, SVG Export Plug-In . SVG Version: 6.00 Build 0)  -->
<svg version="1.1" id="Layer_1" xmlns="http://www.w3.org/2000/svg" xmlns:xlink="http://www.w3.org/1999/xlink" x="0px" y="0px"
	 viewBox="0 0 512 512" style="enable-background:new 0 0 512 512;" xml:space="preserve">
<path d="M136.3,495.8c1.4,19.9-27.6,22.2-29.7,2.9C95,368.8,137.7,259.2,208,185.5c-15.6-34,9.2-77.1,50.6-77.1
	c30.3,0,55.1,24.6,55.1,55.1c0,44-49.5,70.8-86.9,45.1C161.1,279.9,125.4,378.4,136.3,495.8L136.3,495.8z M256,0.1
	c-125.9,0-204.3,134.2-148.3,242.3c8.7,17.4,35.3,4.5,26.3-13.4C87.7,136.4,155,29.8,256,29.8c75.4,0,136.9,61.4,136.9,136.9
	c0,90.8-86.9,153.9-167.7,133.1c-19.1-4.1-25.6,24.4-6.6,29.1c110.7,23.2,204-60,204-162.3C422.6,74.7,348,0.1,256,0.1z"/>
</svg>
