<?xml version="1.0" encoding="utf-8"?>
<!-- Generator: Adobe Illustrator 24.0.0, SVG Export Plug-In . SVG Version: 6.00 Build 0)  -->
<svg version="1.1" id="Layer_1" xmlns="http://www.w3.org/2000/svg" xmlns:xlink="http://www.w3.org/1999/xlink" x="0px" y="0px"
	 viewBox="0 0 512 512" style="enable-background:new 0 0 512 512;" xml:space="preserve">
<path d="M436,160H76c-6.6,0-12,5.4-12,12v56c0,6.6,5.4,12,12,12h140v228c0,6.6,5.4,12,12,12h56c6.6,0,12-5.4,12-12V240h140
	c6.6,0,12-5.4,12-12v-56C448,165.4,442.6,160,436,160z M436,32H76c-6.6,0-12,5.4-12,12v56c0,6.6,5.4,12,12,12h360
	c6.6,0,12-5.4,12-12V44C448,37.4,442.6,32,436,32z"/>
</svg>
