<?xml version="1.0" encoding="utf-8"?>
<!-- Generator: Adobe Illustrator 24.0.0, SVG Export Plug-In . SVG Version: 6.00 Build 0)  -->
<svg version="1.1" id="Layer_1" xmlns="http://www.w3.org/2000/svg" xmlns:xlink="http://www.w3.org/1999/xlink" x="0px" y="0px"
	 viewBox="0 0 512 512" style="enable-background:new 0 0 512 512;" xml:space="preserve">
<path d="M206.4,270.1L50.9,425.6c-7.5,7.5-19.7,7.5-27.2,0L5.6,407.5c-7.5-7.5-7.5-19.6,0-27.1l123.2-123.8L5.6,132.8
	c-7.5-7.5-7.5-19.6,0-27.1l18.1-18.1c7.5-7.5,19.7-7.5,27.2,0L206.4,243C213.9,250.5,213.9,262.6,206.4,270.1z M512,416.6V391
	c0-10.6-8.6-19.2-19.2-19.2H249.6c-10.6,0-19.2,8.6-19.2,19.2v25.6c0,10.6,8.6,19.2,19.2,19.2h243.2
	C503.4,435.8,512,427.2,512,416.6z"/>
</svg>
