<?xml version="1.0" encoding="utf-8"?>
<!-- Generator: Adobe Illustrator 24.0.0, SVG Export Plug-In . SVG Version: 6.00 Build 0)  -->
<svg version="1.1" id="Layer_1" xmlns="http://www.w3.org/2000/svg" xmlns:xlink="http://www.w3.org/1999/xlink" x="0px" y="0px"
	 viewBox="0 0 512 512" style="enable-background:new 0 0 512 512;" xml:space="preserve">
<path d="M464,32H48c-8.8,0-16,7.2-16,16v80c0,8.8,7.2,16,16,16h32c8.8,0,16-7.2,16-16v-16h120v112h-24c-8.8,0-16,7.2-16,16v32
	c0,8.8,7.2,16,16,16h128c8.8,0,16-7.2,16-16v-32c0-8.8-7.2-16-16-16h-24V112h120v16c0,8.8,7.2,16,16,16h32c8.8,0,16-7.2,16-16V48
	C480,39.2,472.8,32,464,32z M395.3,292.7c-9.3-9.3-27.3-4.3-27.3,11.3v48H144v-48c0-14.3-17.3-21.3-27.3-11.3l-80,80
	c-6.2,6.2-6.2,16.4,0,22.6l80,80c9.3,9.3,27.3,4.3,27.3-11.3v-48h224v48c0,14.3,17.3,21.3,27.3,11.3l80-80c6.2-6.2,6.2-16.4,0-22.6
	L395.3,292.7z"/>
</svg>
