<?xml version="1.0" encoding="utf-8"?>
<!-- Generator: Adobe Illustrator 24.0.0, SVG Export Plug-In . SVG Version: 6.00 Build 0)  -->
<svg version="1.1" id="Layer_1" xmlns="http://www.w3.org/2000/svg" xmlns:xlink="http://www.w3.org/1999/xlink" x="0px" y="0px"
	 viewBox="0 0 512 512" style="enable-background:new 0 0 512 512;" xml:space="preserve">
<path d="M270.2,56.9h-256C6.4,56.9,0,63.3,0,71.1v85.3c0,7.9,6.4,14.2,14.2,14.2h28.4c7.9,0,14.2-6.4,14.2-14.2V128h49.8v270.2H71.1
	c-7.9,0-14.2,6.4-14.2,14.2v28.4c0,7.9,6.4,14.2,14.2,14.2h142.2c7.9,0,14.2-6.4,14.2-14.2v-28.4c0-7.9-6.4-14.2-14.2-14.2h-35.6
	V128h49.8v28.4c0,7.9,6.4,14.2,14.2,14.2h28.4c7.9,0,14.2-6.4,14.2-14.2V71.1C284.4,63.3,278.1,56.9,270.2,56.9z M497.8,355.6h-42.7
	V156.4h42.7c12.7,0,19-15.4,10.1-24.3l-71.1-71.1c-5.6-5.5-14.6-5.5-20.1,0l-71.1,71.1c-8.3,8.3-3.8,24.3,10.1,24.3h42.7v199.1
	h-42.7c-12.7,0-19,15.4-10.1,24.3l71.1,71.1c5.6,5.5,14.6,5.5,20.1,0l71.1-71.1C516.1,371.6,511.7,355.6,497.8,355.6z"/>
</svg>
