<?xml version="1.0" encoding="utf-8"?>
<!-- Generator: Adobe Illustrator 24.0.0, SVG Export Plug-In . SVG Version: 6.00 Build 0)  -->
<svg version="1.1" id="Layer_1" xmlns="http://www.w3.org/2000/svg" xmlns:xlink="http://www.w3.org/1999/xlink" x="0px" y="0px"
	 viewBox="0 0 512 512" style="enable-background:new 0 0 512 512;" xml:space="preserve">
<path d="M165.5,247.3c-28.7,8.4-48,33-46,59.3c9.1-10.2,23-19,39.9-24.7L165.5,247.3L165.5,247.3z M76.6,287.2L51.3,143.6
	c-0.2-1.3,0.2-2.1,0.2-2.1c46.2-25.6,98.5-39.2,151.2-39.2c1.3,0,2.6,0.1,3.9,0.2c11.2-10.8,25.4-18.3,41.3-20.8
	c15.1-2.4,30.4-3.6,45.7-4.3c-8-11.2-19.6-19.4-33.4-21.6c-19.1-3-38.4-4.6-57.5-4.6c-61.3,0-121.8,15.5-176.1,45.6
	C7.2,107.6-3.1,130,0.8,152.5l25.4,143.6c11.4,64.4,109.1,113.7,163.6,113.7c2.9,0,5.4-0.4,8-0.6c-10.8-13.7-23.2-32.4-31.6-54.1
	C128.1,344.6,81.3,313.7,76.6,287.2L76.6,287.2z M154.7,177.2c-0.6-3.3-1.8-6.3-3.3-9.1c-6.6,7.1-16.5,12.6-28.3,14.7
	c-11.7,2.1-22.9,0.3-31.6-4.1c-0.4,3.2-0.5,6.4,0.1,9.7c3.1,17.4,19.7,29,37.1,25.9C146.1,211.2,157.8,194.6,154.7,177.2z
	 M485.4,147.9c-71.2-39.5-153.1-53.9-233.6-41.1c-21.8,3.5-39.3,21-43.2,43.5l-25.4,143.6c-12.3,69.6,76.2,157,126.6,165.9
	c50.4,8.9,163.6-43,175.9-112.7l25.4-143.6C515.1,181,504.8,158.6,485.4,147.9L485.4,147.9z M266.8,225.4
	c3.1-17.4,19.7-29,37.1-25.9c17.4,3.1,29,19.6,26,37c-0.6,3.3-1.8,6.3-3.3,9.1c-6.6-7.1-16.5-12.6-28.3-14.7
	c-11.7-2.1-22.9-0.3-31.6,4.1C266.4,231.9,266.3,228.7,266.8,225.4L266.8,225.4z M323.2,384.4c-44.5-7.8-74.8-47.4-71.2-90.3
	c16.5,20.4,45,36.9,79.6,43s67.1,0.3,89.5-13.3C409.8,365.3,367.8,392.2,323.2,384.4L323.2,384.4z M427.5,263.3
	c-6.6-7.1-16.5-12.6-28.3-14.7c-11.7-2.1-22.9-0.3-31.6,4.1c-0.4-3.2-0.5-6.4,0.1-9.7c3.1-17.4,19.7-29,37.1-25.9
	c17.4,3.1,29,19.6,26,37C430.1,257.5,428.9,260.5,427.5,263.3L427.5,263.3z"/>
</svg>
