<?xml version="1.0" encoding="utf-8"?>
<!-- Generator: Adobe Illustrator 24.0.0, SVG Export Plug-In . SVG Version: 6.00 Build 0)  -->
<svg version="1.1" id="Layer_1" xmlns="http://www.w3.org/2000/svg" xmlns:xlink="http://www.w3.org/1999/xlink" x="0px" y="0px"
	 viewBox="0 0 512 512" style="enable-background:new 0 0 512 512;" xml:space="preserve">
<path d="M234.9,8.4c9.9-5.7,26-5.8,35.9-0.2L462,115.8c10,5.6,18,19.4,18,30.9V364c0,11.4-8.1,25.3-18,31L270.8,503.7
	c-9.9,5.7-26,5.6-35.9-0.2L49.9,395.1C40,389.3,32,375.4,32,364V146.7c0-11.4,8-25.4,17.9-31.1L234.9,8.4z M157.5,208.3
	c-15.9,0-31.9,0.1-47.8,0.1v101.4h19.1V280h28.7C207.2,280,207.1,208.3,157.5,208.3z M297.6,308.6l-30.7-34.6
	c37-7.5,34.8-65.2-10.9-65.5c-16.1,0-32.2-0.1-48.3-0.1v101.6h19.1v-33.9h18.4l29.6,33.9h22.8L297.6,308.6z M256,226.2
	c23.3,0,23.3,32.5,0,32.5h-29.1v-32.5H256z M160.5,224.6c21.2,0,21.1,38.9,0,38.9h-32.3v-38.8L160.5,224.6z M353.1,206.4
	c-68.5,0-71,105.8,0,105.8C422.6,312.2,422.5,206.4,353.1,206.4L353.1,206.4z M353.1,223.8c44.1,0,44.8,70.9,0,70.9
	S308.7,223.8,353.1,223.8z"/>
</svg>
