<?xml version="1.0" encoding="utf-8"?>
<!-- Generator: Adobe Illustrator 24.0.0, SVG Export Plug-In . SVG Version: 6.00 Build 0)  -->
<svg version="1.1" id="Layer_1" xmlns="http://www.w3.org/2000/svg" xmlns:xlink="http://www.w3.org/1999/xlink" x="0px" y="0px"
	 viewBox="0 0 512 512" style="enable-background:new 0 0 512 512;" xml:space="preserve">
<path d="M352,96c0-53-43-96-96-96s-96,43-96,96v203.3c-19.8,22.4-31.8,51.8-32,84c-0.4,70.3,56.8,128.2,127.1,128.7
	c0.3,0,0.6,0,0.9,0c70.7,0,128-57.3,128-128c0-32.5-12.1-62.1-32-84.7V96z M256,464l-0.6,0c-43.9-0.3-79.6-36.5-79.4-80.4
	c0.2-34,19.3-51.7,32-66.1V96c0-26.5,21.5-48,48-48s48,21.5,48,48v221.5c12.6,14.3,32,32.2,32,66.5C336,428.1,300.1,464,256,464z
	 M320,384c0,35.3-28.7,64-64,64s-64-28.7-64-64c0-23.7,12.9-44.3,32-55.4V96c0-17.7,14.3-32,32-32s32,14.3,32,32v232.6
	C307.1,339.7,320,360.3,320,384z"/>
</svg>
