<?xml version="1.0" encoding="utf-8"?>
<!-- Generator: Adobe Illustrator 24.0.0, SVG Export Plug-In . SVG Version: 6.00 Build 0)  -->
<svg version="1.1" id="Layer_1" xmlns="http://www.w3.org/2000/svg" xmlns:xlink="http://www.w3.org/1999/xlink" x="0px" y="0px"
	 viewBox="0 0 512 512" style="enable-background:new 0 0 512 512;" xml:space="preserve">
<path d="M362,214.3L349.8,96H392c13.3,0,24-10.7,24-24V24c0-13.3-10.7-24-24-24H120c-13.3,0-24,10.7-24,24v48c0,13.3,10.7,24,24,24
	h42.2L150,214.3c-48.5,22.6-86,63-86,113.7c0,13.3,10.7,24,24,24h136v104c0,1.2,0.3,2.5,0.8,3.6l24,48c2.9,5.9,11.4,5.9,14.3,0
	l24-48c0.6-1.1,0.8-2.3,0.8-3.6V352h136c13.3,0,24-10.7,24-24C448,276.8,410,236.6,362,214.3z"/>
</svg>
