<?xml version="1.0" encoding="utf-8"?>
<!-- Generator: Adobe Illustrator 24.0.0, SVG Export Plug-In . SVG Version: 6.00 Build 0)  -->
<svg version="1.1" id="Layer_1" xmlns="http://www.w3.org/2000/svg" xmlns:xlink="http://www.w3.org/1999/xlink" x="0px" y="0px"
	 viewBox="0 0 512 512" style="enable-background:new 0 0 512 512;" xml:space="preserve">
<path d="M113.8,170.7h284.4v170.7H113.8V170.7z M469.3,256c0,23.6,19.1,42.7,42.7,42.7V384c0,23.6-19.1,42.7-42.7,42.7H42.7
	C19.1,426.7,0,407.6,0,384v-85.3c23.6,0,42.7-19.1,42.7-42.7S23.6,213.3,0,213.3V128c0-23.6,19.1-42.7,42.7-42.7h426.7
	c23.6,0,42.7,19.1,42.7,42.7v85.3C488.4,213.3,469.3,232.4,469.3,256z M426.7,163.6c0-11.8-9.6-21.3-21.3-21.3H106.7
	c-11.8,0-21.3,9.6-21.3,21.3v184.9c0,11.8,9.6,21.3,21.3,21.3h298.7c11.8,0,21.3-9.6,21.3-21.3V163.6z"/>
</svg>
