<?xml version="1.0" encoding="utf-8"?>
<!-- Generator: Adobe Illustrator 24.0.0, SVG Export Plug-In . SVG Version: 6.00 Build 0)  -->
<svg version="1.1" id="Layer_1" xmlns="http://www.w3.org/2000/svg" xmlns:xlink="http://www.w3.org/1999/xlink" x="0px" y="0px"
	 viewBox="0 0 512 512" style="enable-background:new 0 0 512 512;" xml:space="preserve">
<path d="M322.7,256l100.1-100.1c12.3-12.3,12.3-32.2,0-44.5l-22.2-22.2c-12.3-12.3-32.2-12.3-44.5,0L256,189.3L155.9,89.2
	c-12.3-12.3-32.2-12.3-44.5,0l-22.2,22.2c-12.3,12.3-12.3,32.2,0,44.5L189.3,256L89.2,356.1c-12.3,12.3-12.3,32.2,0,44.5l22.2,22.2
	c12.3,12.3,32.2,12.3,44.5,0L256,322.7l100.1,100.1c12.3,12.3,32.2,12.3,44.5,0l22.2-22.2c12.3-12.3,12.3-32.2,0-44.5L322.7,256z"/>
</svg>
