<?xml version="1.0" encoding="utf-8"?>
<!-- Generator: Adobe Illustrator 24.0.0, SVG Export Plug-In . SVG Version: 6.00 Build 0)  -->
<svg version="1.1" id="Layer_1" xmlns="http://www.w3.org/2000/svg" xmlns:xlink="http://www.w3.org/1999/xlink" x="0px" y="0px"
	 viewBox="0 0 512 512" style="enable-background:new 0 0 512 512;" xml:space="preserve">
<path d="M507.1,417.7L396,331.8c0.4-4.5,0.8-8.9,0.8-13.5c0-89.4-79.8-122.7-117.4-249.5c-6.4-23-39.6-24.1-46.8,0
	c-12.4,41.9-29.5,73.6-46.8,100.5L36.4,53.9c-5.6-4.3-13.6-3.3-18,2.2L2.7,76.4c-4.3,5.6-3.3,13.6,2.2,18l470.7,363.8
	c5.6,4.3,13.6,3.3,18-2.2l15.7-20.2C513.6,430.1,512.6,422,507.1,417.7z M115.2,318.3c0,78.8,63,142.5,140.8,142.5
	c35.8,0,68.3-13.6,93.1-35.8L130.2,255.8C121,274.6,115.2,294.5,115.2,318.3z"/>
</svg>
