<?xml version="1.0" encoding="utf-8"?>
<!-- Generator: Adobe Illustrator 24.0.0, SVG Export Plug-In . SVG Version: 6.00 Build 0)  -->
<svg version="1.1" id="Layer_1" xmlns="http://www.w3.org/2000/svg" xmlns:xlink="http://www.w3.org/1999/xlink" x="0px" y="0px"
	 viewBox="0 0 512 512" style="enable-background:new 0 0 512 512;" xml:space="preserve">
<path d="M285.2,22.1c-7.9-28.8-49.4-30.1-58.4,0C180,179.9,80,222.7,80,333.9C80,432.4,158.7,512,256,512s176-79.6,176-178.1
	C432,222.2,332.2,180.6,285.2,22.1z M256,448c-61.8,0-112-50.3-112-112c0-8.8,7.2-16,16-16s16,7.2,16,16c0,44.1,35.9,80,80,80
	c8.8,0,16,7.2,16,16S264.8,448,256,448z"/>
</svg>
