<?xml version="1.0" encoding="utf-8"?>
<!-- Generator: Adobe Illustrator 24.0.0, SVG Export Plug-In . SVG Version: 6.00 Build 0)  -->
<svg version="1.1" id="Layer_1" xmlns="http://www.w3.org/2000/svg" xmlns:xlink="http://www.w3.org/1999/xlink" x="0px" y="0px"
	 viewBox="0 0 512 512" style="enable-background:new 0 0 512 512;" xml:space="preserve">
<path d="M256,8C119,8,8,119,8,256s111,248,248,248s248-111,248-248S393,8,256,8z M256,456c-110.3,0-200-89.7-200-200
	S145.7,56,256,56s200,89.7,200,200S366.3,456,256,456z M385.1,152.2c-3.8-4.4-10.3-5.4-15.3-2.5l-80,48c-3.6,2.2-5.8,6.1-5.8,10.3
	s2.2,8.1,5.8,10.3l80,48c5.4,3.2,11.8,1.6,15.3-2.5c3.8-4.5,3.9-11,0.1-15.5L351.6,208l33.6-40.3C389,163.2,388.9,156.6,385.1,152.2
	L385.1,152.2z M228,208c0-4.2-2.2-8.1-5.8-10.3l-80-48c-5-3-11.5-1.9-15.3,2.5c-3.8,4.5-3.9,11-0.1,15.5l33.6,40.3l-33.6,40.3
	c-3.8,4.5-3.7,11,0.1,15.5c3.5,4.1,9.9,5.7,15.3,2.5l80-48C225.8,216.1,228,212.2,228,208L228,208z M256,272
	c-45.4,0-100.9,38.3-107.8,93.3c-1.5,11.8,6.9,21.6,15.5,17.9C186.4,373.5,220,368,256,368s69.6,5.5,92.3,15.2
	c8.5,3.7,17-6,15.5-17.9C356.9,310.3,301.4,272,256,272L256,272z"/>
</svg>
