<?xml version="1.0" encoding="utf-8"?>
<!-- Generator: Adobe Illustrator 24.0.0, SVG Export Plug-In . SVG Version: 6.00 Build 0)  -->
<svg version="1.1" id="Layer_1" xmlns="http://www.w3.org/2000/svg" xmlns:xlink="http://www.w3.org/1999/xlink" x="0px" y="0px"
	 viewBox="0 0 512 512" style="enable-background:new 0 0 512 512;" xml:space="preserve">
<path d="M256,8C119,8,8,119,8,256s111,248,248,248s248-111,248-248S393,8,256,8z M289.8,197.7l80-48c11.6-6.9,24,7.7,15.4,18
	L351.6,208l33.6,40.3c8.7,10.4-3.9,24.8-15.4,18l-80-48C282.1,213.6,282.1,202.4,289.8,197.7L289.8,197.7z M126.8,167.7
	c-8.6-10.3,3.8-24.9,15.4-18l80,48c7.8,4.7,7.8,15.9,0,20.6l-80,48c-11.5,6.8-24-7.6-15.4-18l33.6-40.3L126.8,167.7L126.8,167.7z
	 M256,288c51.9,0,115.3,43.8,123.2,106.7c1.7,13.6-8,24.6-17.7,20.4c-25.9-11.1-64.4-17.4-105.5-17.4s-79.6,6.3-105.5,17.4
	c-9.8,4.2-19.4-7-17.7-20.4C140.7,331.8,204.1,288,256,288z"/>
</svg>
