<?xml version="1.0" encoding="utf-8"?>
<!-- Generator: Adobe Illustrator 24.0.0, SVG Export Plug-In . SVG Version: 6.00 Build 0)  -->
<svg version="1.1" id="Layer_1" xmlns="http://www.w3.org/2000/svg" xmlns:xlink="http://www.w3.org/1999/xlink" x="0px" y="0px"
	 viewBox="0 0 512 512" style="enable-background:new 0 0 512 512;" xml:space="preserve">
<path d="M341.3,85.3H170.7C76.4,85.3,0,161.7,0,256s76.4,170.7,170.7,170.7h170.7c94.3,0,170.7-76.4,170.7-170.7
	S435.6,85.3,341.3,85.3z M56.9,256c0-62.9,50.9-113.8,113.8-113.8c62.9,0,113.8,50.9,113.8,113.8c0,62.9-50.9,113.8-113.8,113.8
	C107.8,369.8,56.9,318.9,56.9,256z M341.3,369.8h-43.5c58-64.8,58-162.8,0-227.6h43.5c62.9,0,113.8,50.9,113.8,113.8
	C455.1,318.9,404.2,369.8,341.3,369.8z"/>
</svg>
