<?xml version="1.0" encoding="utf-8"?>
<!-- Generator: Adobe Illustrator 24.0.0, SVG Export Plug-In . SVG Version: 6.00 Build 0)  -->
<svg version="1.1" id="Layer_1" xmlns="http://www.w3.org/2000/svg" xmlns:xlink="http://www.w3.org/1999/xlink" x="0px" y="0px"
	 viewBox="0 0 512 512" style="enable-background:new 0 0 512 512;" xml:space="preserve">
<path d="M113.8,28.4c-47.1,0-85.3,76.4-85.3,170.7v153c0,36.6-8.7,55.8-27.7,112.8c-3.1,9.2,3.8,18.7,13.5,18.7h249.7
	c12.2,0,23.1-7.8,27-19.4c11.4-34.2,22-64.4,22-112v-153c0-74.3,21-136.5,53.7-170.7H113.8z M85.3,227.6c-7.9,0-14.2-6.4-14.2-14.2
	s6.4-14.2,14.2-14.2s14.2,6.4,14.2,14.2S93.2,227.6,85.3,227.6z M142.2,227.6c-7.9,0-14.2-6.4-14.2-14.2s6.4-14.2,14.2-14.2
	s14.2,6.4,14.2,14.2S150.1,227.6,142.2,227.6z M199.1,227.6c-7.9,0-14.2-6.4-14.2-14.2s6.4-14.2,14.2-14.2c7.9,0,14.2,6.4,14.2,14.2
	S207,227.6,199.1,227.6z M256,227.6c-7.9,0-14.2-6.4-14.2-14.2s6.4-14.2,14.2-14.2c7.9,0,14.2,6.4,14.2,14.2S263.9,227.6,256,227.6z
	 M426.7,28.4c-47.1,0-85.3,76.4-85.3,170.7s38.2,170.7,85.3,170.7c47.1,0,85.3-76.4,85.3-170.7S473.8,28.4,426.7,28.4z M426.7,256
	c-15.7,0-28.4-25.5-28.4-56.9s12.7-56.9,28.4-56.9c15.7,0,28.4,25.5,28.4,56.9S442.4,256,426.7,256z"/>
</svg>
