<?xml version="1.0" encoding="utf-8"?>
<!-- Generator: Adobe Illustrator 24.0.0, SVG Export Plug-In . SVG Version: 6.00 Build 0)  -->
<svg version="1.1" id="Layer_1" xmlns="http://www.w3.org/2000/svg" xmlns:xlink="http://www.w3.org/1999/xlink" x="0px" y="0px"
	 viewBox="0 0 512 512" style="enable-background:new 0 0 512 512;" xml:space="preserve">
<path d="M51.2,204.8v137.7c0,32.9-7.8,50.2-24.9,101.5c-2.2,6.7,1.4,13.9,8.2,16.2c1.3,0.4,2.6,0.6,3.9,0.6h224.7
	c11,0,20.8-7,24.3-17.5c7.4-22.3,14.4-42.7,17.7-68.4L52.3,179.5C51.6,187.7,51.2,196.2,51.2,204.8z M507.1,417.7l-81.6-63
	c34.8-14.7,60.9-76,60.9-149.8c0-84.8-34.4-153.6-76.8-153.6s-76.8,68.8-76.8,153.6c0,33.6,5.6,64.3,14.7,89.6l-40.3-31.2v-58.4
	c0-66.9,18.9-122.8,48.4-153.6H128c-18.7,0-35.7,13.5-49,35.6L36.4,53.9c-5.6-4.3-13.6-3.3-18,2.2c0,0,0,0,0,0L2.7,76.4
	c-4.3,5.6-3.3,13.6,2.2,18c0,0,0,0,0,0l470.7,363.8c5.6,4.3,13.6,3.3,18-2.2c0,0,0,0,0,0l15.7-20.2
	C513.6,430.1,512.6,422,507.1,417.7C507.1,417.7,507.1,417.7,507.1,417.7z M409.6,256c-14.1,0-25.6-22.9-25.6-51.2
	s11.5-51.2,25.6-51.2c14.1,0,25.6,22.9,25.6,51.2S423.7,256,409.6,256z"/>
</svg>
