<?xml version="1.0" encoding="utf-8"?>
<!-- Generator: Adobe Illustrator 24.0.0, SVG Export Plug-In . SVG Version: 6.00 Build 0)  -->
<svg version="1.1" id="Layer_1" xmlns="http://www.w3.org/2000/svg" xmlns:xlink="http://www.w3.org/1999/xlink" x="0px" y="0px"
	 viewBox="0 0 512 512" style="enable-background:new 0 0 512 512;" xml:space="preserve">
<path d="M432,48c8.8,0,16-7.2,16-16V16c0-8.8-7.2-16-16-16H80c-8.8,0-16,7.2-16,16v16c0,8.8,7.2,16,16,16h16v156.7
	c-20.2,10.1-32,22.2-32,35.3c0,67.2,34.6,126.2,86.8,160.5l-21.4,70.2c-6.3,20.5,9.1,41.3,30.6,41.3h192c21.5,0,36.9-20.8,30.6-41.3
	l-21.4-70.2C413.4,366.2,448,307.2,448,240c0-13.1-11.8-25.2-32-35.3V48H432z M144,72c0-4.4,3.6-8,8-8h48c4.4,0,8,3.6,8,8v16
	c0,4.4-3.6,8-8,8h-48c-4.4,0-8-3.6-8-8V72z M256,272c-77.1,0-139.6-14.3-139.6-32s62.5-32,139.6-32s139.6,14.3,139.6,32
	S333.1,272,256,272z"/>
</svg>
