<?xml version="1.0" encoding="utf-8"?>
<!-- Generator: Adobe Illustrator 24.0.0, SVG Export Plug-In . SVG Version: 6.00 Build 0)  -->
<svg version="1.1" id="Layer_1" xmlns="http://www.w3.org/2000/svg" xmlns:xlink="http://www.w3.org/1999/xlink" x="0px" y="0px"
	 viewBox="0 0 512 512" style="enable-background:new 0 0 512 512;" xml:space="preserve">
<path d="M476,96.3C465,51,428.9,14.2,384,2.5c-32.2-8.4-63,5.1-89.1,24.3c-3.3,2.4-7,3.7-10.5,5.5l28.3,18.2
	c7.4,4.8,9.6,14.7,4.8,22.1c-4.5,6.9-14.3,9.9-22.1,4.8L194.8,12.8C174.1,2,151.4-3.6,128,2.5C83.1,14.2,47,51,36,96.3
	c-10.1,41.6-0.4,80.8,21.5,110.4c23.4,31.6,32.7,68.7,36.3,107.4c4.4,47.2,10.3,94.2,20.9,140.3l7.8,34
	c3.2,13.9,15.5,23.7,29.7,23.7c14,0,26.1-9.5,29.5-23.2l34.5-138.4c4.6-18.3,21-31.2,39.8-31.2s35.2,12.9,39.8,31.2l34.5,138.4
	c3.4,13.6,15.6,23.2,29.5,23.2c14.2,0,26.5-9.8,29.7-23.7l7.8-34c10.6-46.1,16.5-93.2,20.9-140.3c3.6-38.7,12.9-75.8,36.3-107.4
	C476.4,177.1,486.1,137.9,476,96.3L476,96.3z"/>
</svg>
