<?xml version="1.0" encoding="utf-8"?>
<!-- Generator: Adobe Illustrator 24.0.0, SVG Export Plug-In . SVG Version: 6.00 Build 0)  -->
<svg version="1.1" id="Layer_1" xmlns="http://www.w3.org/2000/svg" xmlns:xlink="http://www.w3.org/1999/xlink" x="0px" y="0px"
	 viewBox="0 0 512 512" style="enable-background:new 0 0 512 512;" xml:space="preserve">
<path d="M256,344.4l14.2-23.7h-28.4L256,344.4z M335.4,211.6h-29.5l14.8,24.7L335.4,211.6z M38.4,51.2C17.2,51.2,0,62.7,0,76.8
	v358.4c0,14.1,17.2,25.6,38.4,25.6s38.4-11.5,38.4-25.6V76.8C76.8,62.7,59.6,51.2,38.4,51.2z M176.6,300.4h29.5l-14.8-24.7
	L176.6,300.4z M306,300.4h29.5l-14.8-24.6L306,300.4z M102.4,422.4h307.2V89.6H102.4V422.4z M155.8,199.9c3-5.3,8.7-8.6,14.8-8.6
	h47.6l23.3-39c3-5.2,8.6-8.3,14.6-8.3c5.9,0,11.4,3.1,14.4,8.2l23.4,39.1h47.6c9.3,0,16.9,7.6,16.9,16.9c0,3.1-0.8,6.1-2.4,8.7
	L332.5,256l23.5,39.2c3.2,5.2,3.2,11.7,0.2,16.9c-3,5.3-8.7,8.6-14.8,8.6h-47.6l-23.3,39c-3,5.1-8.6,8.3-14.5,8.3
	c-5.9,0-11.4-3.1-14.4-8.2l-23.4-39.1h-47.6c-9.3,0-16.9-7.5-16.9-16.9c0-3.1,0.8-6.1,2.4-8.7l23.4-39.1L156,216.8
	C152.9,211.6,152.8,205.1,155.8,199.9L155.8,199.9z M473.6,51.2c-21.2,0-38.4,11.5-38.4,25.6v358.4c0,14.1,17.2,25.6,38.4,25.6
	s38.4-11.5,38.4-25.6V76.8C512,62.7,494.8,51.2,473.6,51.2z M256,167.6l-14.2,23.7h28.4L256,167.6z M206,211.6h-29.4l14.8,24.6
	L206,211.6z M229.7,300.4h52.6l26.5-44.4l-26.6-44.4h-52.6L203.1,256L229.7,300.4z"/>
</svg>
