<?xml version="1.0" encoding="utf-8"?>
<!-- Generator: Adobe Illustrator 24.0.0, SVG Export Plug-In . SVG Version: 6.00 Build 0)  -->
<svg version="1.1" id="Layer_1" xmlns="http://www.w3.org/2000/svg" xmlns:xlink="http://www.w3.org/1999/xlink" x="0px" y="0px"
	 viewBox="0 0 512 512" style="enable-background:new 0 0 512 512;" xml:space="preserve">
<path d="M422.4,320c-38.9,0-70.4,31.5-70.4,70.4s31.5,70.4,70.4,70.4s70.4-31.5,70.4-70.4S461.3,320,422.4,320z M422.4,409.6
	c-10.6,0-19.2-8.6-19.2-19.2s8.6-19.2,19.2-19.2c10.6,0,19.2,8.6,19.2,19.2S433,409.6,422.4,409.6z M486.4,179.2h-51.2V147
	c0-11.3,3.8-22.2,10.5-31.1c3.5-4.6,2.8-11.2-1.1-15.6L427.4,81c-5.3-6-14.7-5.5-19.8,0.6C392.5,99.9,384,123,384,147v32.2h-81.9
	L257.3,74.5c-6-14.1-19.9-23.3-35.3-23.3H115.2c-21.2,0-38.4,17.2-38.4,38.4v117.2c-6.9-5.4-16.8-5.2-23.1,1.2l-24.9,24.9
	c-6.9,6.9-6.9,18,0,24.9l4,4c-4,7.4-7.2,15.1-9.5,23h-5.7c-9.7,0-17.6,7.9-17.6,17.6v35.2c0,9.7,7.9,17.6,17.6,17.6h5.7
	c2.4,7.9,5.5,15.6,9.5,23l-4,4c-6.9,6.9-6.9,18,0,24.9L53.7,432c6.9,6.9,18,6.9,24.9,0l4-4c7.4,4,15.1,7.2,23,9.5v5.7
	c0,9.7,7.9,17.6,17.6,17.6h35.2c9.7,0,17.6-7.9,17.6-17.6v-5.7c7.9-2.4,15.6-5.5,23-9.5l4,4c6.9,6.9,18,6.9,24.9,0l24.9-24.9
	c6.9-6.9,6.9-18,0-24.9l-4-4c4-7.4,7.2-15.1,9.5-23h5.7c9.7,0,17.6-7.9,17.6-17.6v-4.8H346c17.5-23.2,45.1-38.4,76.4-38.4
	c14.9,0,28.9,3.7,41.4,9.8l40.7-40.7c4.8-4.8,7.5-11.3,7.5-18.1v-40.6C512,190.7,500.5,179.2,486.4,179.2z M140.8,384
	c-35.3,0-64-28.7-64-64s28.7-64,64-64s64,28.7,64,64S176.1,384,140.8,384z M158.4,179.2H128v-76.8h85.5l32.9,76.8H158.4z"/>
</svg>
