<?xml version="1.0" encoding="utf-8"?>
<!-- Generator: Adobe Illustrator 24.0.0, SVG Export Plug-In . SVG Version: 6.00 Build 0)  -->
<svg version="1.1" id="Layer_1" xmlns="http://www.w3.org/2000/svg" xmlns:xlink="http://www.w3.org/1999/xlink" x="0px" y="0px"
	 viewBox="0 0 512 512" style="enable-background:new 0 0 512 512;" xml:space="preserve">
<path d="M208.5,128H9.6c-5.3,0-9.6,4.3-9.6,9.6v34.5c0,5.3,4.3,9.6,9.6,9.6h68.1v192.7c0,5.3,4.3,9.6,9.6,9.6h43.4
	c5.3,0,9.6-4.3,9.6-9.6V181.7h68.1c5.3,0,9.6-4.3,9.6-9.6v-34.5C218.1,132.3,213.8,128,208.5,128z M512,373.6l-19.2-236.8
	c-0.4-5-4.6-8.8-9.6-8.8h-52.3c-4.1,0-7.8,2.6-9,6.5l-35,101.7c-5.8,16.5-12.9,42.2-12.9,42.2h-0.7c0,0-7.1-25.8-12.9-42.2
	l-35-101.7c-1.4-3.8-5-6.5-9-6.5h-52.3c-5,0-9.1,3.8-9.6,8.8l-19.5,236.8c-0.5,5.6,3.9,10.4,9.6,10.4H288c5,0,9.2-3.9,9.6-9
	l7.3-106.3c1.4-19.4,0-43,0-43h0.7c0,0,8.6,26.9,14.3,43l24.6,67.8c1.4,3.8,5,6.3,9,6.3h40.2c4.1,0,7.7-2.6,9-6.3l24.6-67.8
	c5.8-16.1,14.3-43,14.3-43h0.7c0,0-1.4,23.6,0,43l7.3,106.3c0.3,5,4.6,9,9.6,9h43.1C508,384,512.4,379.2,512,373.6L512,373.6z"/>
</svg>
