<?xml version="1.0" encoding="utf-8"?>
<!-- Generator: Adobe Illustrator 24.0.0, SVG Export Plug-In . SVG Version: 6.00 Build 0)  -->
<svg version="1.1" id="Layer_1" xmlns="http://www.w3.org/2000/svg" xmlns:xlink="http://www.w3.org/1999/xlink" x="0px" y="0px"
	 viewBox="0 0 512 512" style="enable-background:new 0 0 512 512;" xml:space="preserve">
<path d="M256,8.8c-137,0-248,111-248,248s111,248,248,248s248-111,248-248S393,8.8,256,8.8L256,8.8z M256,491.6
	c-129.7,0-234.8-105.1-234.8-234.8S126.3,22,256,22s234.8,105.1,234.8,234.8S385.7,491.6,256,491.6L256,491.6z M411.1,163.1v-46.8
	H217.3V198H62.2l36.7,46h117.7v196.8h48.8V245h83.3v-47h-83.3v-34.8h145.7L411.1,163.1z M337.8,208.2v23.9h-82.9v197.4h-26.8V232.1
	H104.3l-20.1-23.9h143.9v-80.6h171.8V152h-145v56.2L337.8,208.2z M176.5,139.2l-12.4-20.7l2.1,23.8l-23.5,5.4l23.3,5.4l-2.1,24
	l12.3-20.5l22.2,9.5L182.7,148l15.8-18.1L176.5,139.2z M146.9,119.5l9.3-11.5l-12.7,5.9l-8-12.4l1.7,13.9l-14.3,3.8l13.7,2.7
	l-0.8,14.7l6.8-12.2l13.8,5.3L146.9,119.5z M312.3,264.7l-13.1,5.6l-7.3-12.2l1.3,14.2l-13.9,3.2l13.9,3.2l-1.2,14.2l7.3-12.2
	l13.1,5.5l-9.4-10.7L312.3,264.7z M419.2,187.5l-20.9,9.1l-12-19.6l2.2,22.7l-22.3,5.4l22.2,4.9l-1.8,22.9l11.5-19.6l21.2,8.8
	l-15.1-17L419.2,187.5z M256,29.9c-125.3,0-226.9,101.6-226.9,226.9S130.7,483.7,256,483.7s226.9-101.6,226.9-226.9
	S381.3,29.9,256,29.9z M350.6,196v51h-83.3v195.7h-52.7V245.9H97.9l-40-49.9h157.4v-81.6h197.8v50.7H267.4V196H350.6z M256,43.2
	c60.3,0,114.8,25,153.6,65.2H210.5V190H53.1C81.1,104.8,161.4,43.2,256,43.2z M256,470.3c-117.9,0-213.6-95.6-213.6-213.5
	c0-21.2,3.1-41.8,8.9-61.1L95.1,252h114.7v196.8h64.6V253h83.3v-62.7h-83.2v-19.2h145.6v-50.8c30.8,37,49.3,84.6,49.3,136.5
	C469.5,374.7,373.9,470.3,256,470.3L256,470.3z M186.8,275l-11-21.4l1.7,24.5l-23.7,3.9l23.8,5.9l-3.7,23.8l13-20.9l21.5,10.8
	l-15.8-18.8l16.9-17.1L186.8,275z"/>
</svg>
