<?xml version="1.0" encoding="utf-8"?>
<!-- Generator: Adobe Illustrator 24.0.0, SVG Export Plug-In . SVG Version: 6.00 Build 0)  -->
<svg version="1.1" id="Layer_1" xmlns="http://www.w3.org/2000/svg" xmlns:xlink="http://www.w3.org/1999/xlink" x="0px" y="0px"
	 viewBox="0 0 512 512" style="enable-background:new 0 0 512 512;" xml:space="preserve">
<path d="M448,192h-64v-37.9c37.2-13.2,64-48.4,64-90.1h-64V32c0-17.7-14.3-32-32-32H160c-17.7,0-32,14.3-32,32v32H64
	c0,41.7,26.8,76.9,64,90.1V192H64c0,41.7,26.8,76.9,64,90.1V320H64c0,42.8,28.3,78.7,67,91c12.4,57.7,63.6,101,125,101
	s112.6-43.3,125-101c38.7-12.4,67-48.2,67-91h-64v-37.9C421.2,268.9,448,233.7,448,192z M256,416c-26.5,0-48-21.5-48-48
	s21.5-48,48-48s48,21.5,48,48S282.5,416,256,416z M256,288c-26.5,0-48-21.5-48-48s21.5-48,48-48s48,21.5,48,48S282.5,288,256,288z
	 M256,160c-26.5,0-48-21.5-48-48s21.5-48,48-48s48,21.5,48,48S282.5,160,256,160z"/>
</svg>
