<?xml version="1.0" encoding="utf-8"?>
<!-- Generator: Adobe Illustrator 24.0.0, SVG Export Plug-In . SVG Version: 6.00 Build 0)  -->
<svg version="1.1" id="Layer_1" xmlns="http://www.w3.org/2000/svg" xmlns:xlink="http://www.w3.org/1999/xlink" x="0px" y="0px"
	 viewBox="0 0 512 512" style="enable-background:new 0 0 512 512;" xml:space="preserve">
<path d="M480,96v256c0,51.8-61.6,96-130,96l63,49.7c5.9,4.7,2.6,14.3-5,14.3H104c-7.6,0-10.9-9.6-5-14.3l63-49.7
	c-68.2,0-130-44-130-96V96C32,43,96,0,160,0h192C417,0,480,43,480,96z M432,232V120c0-13.3-10.7-24-24-24H104c-13.3,0-24,10.7-24,24
	v112c0,13.3,10.7,24,24,24h304C421.3,256,432,245.3,432,232z M256,296c-30.9,0-56,25.1-56,56s25.1,56,56,56s56-25.1,56-56
	S286.9,296,256,296z"/>
</svg>
