<?xml version="1.0" encoding="utf-8"?>
<!-- Generator: Adobe Illustrator 24.0.0, SVG Export Plug-In . SVG Version: 6.00 Build 0)  -->
<svg version="1.1" id="Layer_1" xmlns="http://www.w3.org/2000/svg" xmlns:xlink="http://www.w3.org/1999/xlink" x="0px" y="0px"
	 viewBox="0 0 512 512" style="enable-background:new 0 0 512 512;" xml:space="preserve">
<path d="M499.2,310.4h-64v-192c0-7.1-5.7-12.8-12.8-12.8H12.8c-7.1,0-12.8,5.7-12.8,12.8v230.4c0,7.1,5.7,12.8,12.8,12.8h39.7
	c6.3-43.4,43.2-76.8,88.3-76.8s82,33.4,88.3,76.8h270.1c7.1,0,12.8-5.7,12.8-12.8v-25.6C512,316.1,506.3,310.4,499.2,310.4z
	 M76.8,249.3c-9.1,4.6-17.7,10.1-25.6,16.6V163.2c0-3.5,2.9-6.4,6.4-6.4h12.8c3.5,0,6.4,2.9,6.4,6.4V249.3z M153.6,234.5
	c-4.2-0.4-8.5-0.9-12.8-0.9s-8.6,0.5-12.8,0.9v-71.3c0-3.5,2.9-6.4,6.4-6.4h12.8c3.5,0,6.4,2.9,6.4,6.4V234.5z M230.4,265.9
	c-7.9-6.4-16.5-12-25.6-16.6v-86.1c0-3.5,2.9-6.4,6.4-6.4H224c3.5,0,6.4,2.9,6.4,6.4V265.9z M307.2,310.4h-25.6V163.2
	c0-3.5,2.9-6.4,6.4-6.4h12.8c3.5,0,6.4,2.9,6.4,6.4V310.4z M384,310.4h-25.6V163.2c0-3.5,2.9-6.4,6.4-6.4h12.8
	c3.5,0,6.4,2.9,6.4,6.4V310.4z M140.8,310.4c-35.3,0-64,28.7-64,64s28.7,64,64,64s64-28.7,64-64S176.1,310.4,140.8,310.4z
	 M140.8,400c-14.1,0-25.6-11.5-25.6-25.6c0-14.1,11.5-25.6,25.6-25.6s25.6,11.5,25.6,25.6C166.4,388.5,154.9,400,140.8,400z"/>
</svg>
