<?xml version="1.0" encoding="utf-8"?>
<!-- Generator: Adobe Illustrator 24.0.0, SVG Export Plug-In . SVG Version: 6.00 Build 0)  -->
<svg version="1.1" id="Layer_1" xmlns="http://www.w3.org/2000/svg" xmlns:xlink="http://www.w3.org/1999/xlink" x="0px" y="0px"
	 viewBox="0 0 512 512" style="enable-background:new 0 0 512 512;" xml:space="preserve">
<path d="M484,0h-79c-10.7,0-16,12.9-8.5,20.5l16.9,16.9l-80.7,80.7C310.5,104.1,284.2,96,256,96s-54.5,8.1-76.7,22.1l-16.5-16.5
	l19.8-19.8c4.7-4.7,4.7-12.3,0-17l-28.3-28.3c-4.7-4.7-12.3-4.7-17,0l-19.8,19.8l-19-19l16.9-16.9C123.1,12.9,117.7,0,107,0H28
	c-6.6,0-12,5.4-12,12v79c0,10.7,12.9,16,20.5,8.5l16.9-16.9l19,19l-19.8,19.8c-4.7,4.7-4.7,12.3,0,17l28.3,28.3
	c4.7,4.7,12.3,4.7,17,0l19.8-19.8l16.5,16.5C120.1,185.5,112,211.8,112,240c0,68.5,47.9,125.9,112,140.4V408h-36
	c-6.6,0-12,5.4-12,12v40c0,6.6,5.4,12,12,12h36v28c0,6.6,5.4,12,12,12h40c6.6,0,12-5.4,12-12v-28h36c6.6,0,12-5.4,12-12v-40
	c0-6.6-5.4-12-12-12h-36v-27.6c64.1-14.6,112-71.9,112-140.4c0-28.2-8.1-54.5-22.1-76.7l80.7-80.7l16.9,16.9
	c7.6,7.6,20.5,2.2,20.5-8.5V12C496,5.4,490.6,0,484,0L484,0z M256,320c-44.1,0-80-35.9-80-80s35.9-80,80-80s80,35.9,80,80
	S300.1,320,256,320z"/>
</svg>
