<?xml version="1.0" encoding="utf-8"?>
<!-- Generator: Adobe Illustrator 24.0.0, SVG Export Plug-In . SVG Version: 6.00 Build 0)  -->
<svg version="1.1" id="Layer_1" xmlns="http://www.w3.org/2000/svg" xmlns:xlink="http://www.w3.org/1999/xlink" x="0px" y="0px"
	 viewBox="0 0 512 512" style="enable-background:new 0 0 512 512;" xml:space="preserve">
<path d="M464,32H344l-9.4-18.7C330.5,5.1,322.2,0,313.1,0H198.8c-9.1,0-17.4,5.1-21.4,13.3L168,32H48c-8.8,0-16,7.2-16,16v32
	c0,8.8,7.2,16,16,16h416c8.8,0,16-7.2,16-16V48C480,39.2,472.8,32,464,32z M85.2,467c1.6,25.3,22.6,45,47.9,45h245.8
	c25.3,0,46.3-19.7,47.9-45L448,128H64L85.2,467z"/>
</svg>
