<?xml version="1.0" encoding="utf-8"?>
<!-- Generator: Adobe Illustrator 24.0.0, SVG Export Plug-In . SVG Version: 6.00 Build 0)  -->
<svg version="1.1" id="Layer_1" xmlns="http://www.w3.org/2000/svg" xmlns:xlink="http://www.w3.org/1999/xlink" x="0px" y="0px"
	 viewBox="0 0 512 512" style="enable-background:new 0 0 512 512;" xml:space="preserve">
<path d="M470.1,187.4l41.9-45.5h-92.7c-98.4-67-227.8-67-326.2,0H0l41.9,45.5c-51.9,47.9-55.2,128.8-7.3,180.8
	c47.8,51.8,128.4,55.2,180.4,7.6l41,44.6l41-44.6c51.8,48,132.8,44.9,180.8-6.9c21.9-23.7,34.1-54.7,34.1-87h0
	C511.9,245.9,496.8,211.6,470.1,187.4z M128.1,368.5c-47.8,0-86.6-38.8-86.6-86.6s38.8-86.6,86.6-86.6s86.6,38.8,86.6,86.6
	C214.6,329.7,175.9,368.5,128.1,368.5L128.1,368.5z M256,279.4c0-57-41.4-105.8-96.1-126.7c61.5-25.6,130.7-25.6,192.2,0
	C297.4,173.6,256,222.5,256,279.4z M383.9,368.5L383.9,368.5c-47.8,0-86.6-38.8-86.6-86.6s38.8-86.6,86.6-86.6s86.6,38.8,86.6,86.6
	C470.5,329.7,431.7,368.5,383.9,368.5z M128.1,236.6L128.1,236.6c-25.1,0-45.4,20.3-45.4,45.4s20.3,45.4,45.4,45.4
	s45.4-20.3,45.4-45.4l0,0v-0.1C173.4,256.8,153.1,236.5,128.1,236.6C128.1,236.6,128.1,236.6,128.1,236.6z M383.9,236.6
	c-25.1,0-45.4,20.3-45.4,45.4s20.3,45.4,45.4,45.4c25.1,0,45.4-20.3,45.4-45.4l0,0C429.3,256.9,409,236.6,383.9,236.6z"/>
</svg>
