<?xml version="1.0" encoding="utf-8"?>
<!-- Generator: Adobe Illustrator 24.0.0, SVG Export Plug-In . SVG Version: 6.00 Build 0)  -->
<svg version="1.1" id="Layer_1" xmlns="http://www.w3.org/2000/svg" xmlns:xlink="http://www.w3.org/1999/xlink" x="0px" y="0px"
	 viewBox="0 0 512 512" style="enable-background:new 0 0 512 512;" xml:space="preserve">
<path d="M499.2,281.6h-12.8v-51.2c0-14.1-11.5-25.6-25.6-25.6h-38.4L335.4,96c-9.7-12.1-24.4-19.2-40-19.2h-90.6
	c-14.1,0-25.6,11.5-25.6,25.6v102.4h-128c-14.1,0-25.6,11.5-25.6,25.6v51.2H12.8c-7.1,0-12.8,5.7-12.8,12.8V320
	c0,7.1,5.7,12.8,12.8,12.8h39.7c-0.6,4.2-1.3,8.4-1.3,12.8c0,49.5,40.1,89.6,89.6,89.6s89.6-40.1,89.6-89.6c0-4.4-0.7-8.6-1.3-12.8
	h53.8c-0.6,4.2-1.3,8.4-1.3,12.8c0,49.5,40.1,89.6,89.6,89.6s89.6-40.1,89.6-89.6c0-4.4-0.7-8.6-1.3-12.8h39.7
	c7.1,0,12.8-5.7,12.8-12.8v-25.6C512,287.3,506.3,281.6,499.2,281.6z M230.4,128h65l61.4,76.8H230.4V128z M140.8,384
	c-21.2,0-38.4-17.2-38.4-38.4s17.2-38.4,38.4-38.4s38.4,17.2,38.4,38.4S162,384,140.8,384z M371.2,384c-21.2,0-38.4-17.2-38.4-38.4
	s17.2-38.4,38.4-38.4c21.2,0,38.4,17.2,38.4,38.4S392.4,384,371.2,384z"/>
</svg>
