<?xml version="1.0" encoding="utf-8"?>
<!-- Generator: Adobe Illustrator 24.0.0, SVG Export Plug-In . SVG Version: 6.00 Build 0)  -->
<svg version="1.1" id="Layer_1" xmlns="http://www.w3.org/2000/svg" xmlns:xlink="http://www.w3.org/1999/xlink" x="0px" y="0px"
	 viewBox="0 0 512 512" style="enable-background:new 0 0 512 512;" xml:space="preserve">
<path d="M499.2,230.4h-12.8v-51.2c0-14.1-11.5-25.6-25.6-25.6h-58.9l-66.5-83.2c-9.7-12.1-24.4-19.2-40-19.2h-90.6
	c-14.1,0-25.6,11.5-25.6,25.6v76.8H38.4c-7.1,0-12.8,5.7-12.8,12.8v64H12.8c-7.1,0-12.8,5.7-12.8,12.8v25.6
	c0,7.1,5.7,12.8,12.8,12.8h13.4c23.4-30.9,60.1-51.2,101.8-51.2s78.5,20.3,101.8,51.2h52.4c23.4-30.9,60.1-51.2,101.8-51.2
	c41.7,0,78.5,20.3,101.8,51.2h13.4c7.1,0,12.8-5.7,12.8-12.8v-25.6C512,236.1,506.3,230.4,499.2,230.4z M230.4,153.6v-51.2h65
	l41,51.2H230.4z M473.6,332.8h-4.2c-1.8-5.9-4.1-11.4-6.9-16.7l2.9-2.9c5-5,5-13.1,0-18.1l-18.1-18.1c-5-5-13.1-5-18.1,0l-2.9,2.9
	c-5.3-2.9-10.9-5.2-16.7-6.9v-4.2c0-7.1-5.7-12.8-12.8-12.8h-25.6c-7.1,0-12.8,5.7-12.8,12.8v4.2c-5.9,1.8-11.4,4.1-16.7,6.9
	l-2.9-2.9c-5-5-13.1-5-18.1,0L302.5,295c-5,5-5,13.1,0,18.1l2.9,2.9c-2.9,5.3-5.2,10.9-6.9,16.7h-4.2c-7.1,0-12.8,5.7-12.8,12.8
	v25.6c0,7.1,5.7,12.8,12.8,12.8h4.2c1.8,5.9,4.1,11.4,6.9,16.7l-2.9,2.9c-5,5-5,13.1,0,18.1l18.1,18.1c5,5,13.1,5,18.1,0l2.9-2.9
	c5.3,2.9,10.9,5.2,16.7,6.9v4.2c0,7.1,5.7,12.8,12.8,12.8h25.6c7.1,0,12.8-5.7,12.8-12.8v-4.2c5.9-1.8,11.4-4.1,16.7-6.9l2.9,2.9
	c5,5,13.1,5,18.1,0l18.1-18.1c5-5,5-13.1,0-18.1l-2.9-2.9c2.9-5.3,5.2-10.9,6.9-16.7h4.2c7.1,0,12.8-5.7,12.8-12.8v-25.6
	C486.4,338.5,480.7,332.8,473.6,332.8L473.6,332.8z M384,396.8c-21.2,0-38.4-17.2-38.4-38.4S362.8,320,384,320s38.4,17.2,38.4,38.4
	S405.2,396.8,384,396.8z M217.6,332.8h-4.2c-1.8-5.9-4.1-11.4-6.9-16.7l2.9-2.9c5-5,5-13.1,0-18.1l-18.1-18.1c-5-5-13.1-5-18.1,0
	l-2.9,2.9c-5.3-2.9-10.9-5.2-16.7-6.9v-4.2c0-7.1-5.7-12.8-12.8-12.8h-25.6c-7.1,0-12.8,5.7-12.8,12.8v4.2
	c-5.9,1.8-11.4,4.1-16.7,6.9l-2.9-2.9c-5-5-13.1-5-18.1,0L46.5,295c-5,5-5,13.1,0,18.1l2.9,2.9c-2.9,5.3-5.2,10.9-6.9,16.7h-4.2
	c-7.1,0-12.8,5.7-12.8,12.8v25.6c0,7.1,5.7,12.8,12.8,12.8h4.2c1.8,5.9,4.1,11.4,6.9,16.7l-2.9,2.9c-5,5-5,13.1,0,18.1l18.1,18.1
	c5,5,13.1,5,18.1,0l2.9-2.9c5.3,2.9,10.9,5.2,16.7,6.9v4.2c0,7.1,5.7,12.8,12.8,12.8h25.6c7.1,0,12.8-5.7,12.8-12.8v-4.2
	c5.9-1.8,11.4-4.1,16.7-6.9l2.9,2.9c5,5,13.1,5,18.1,0l18.1-18.1c5-5,5-13.1,0-18.1l-2.9-2.9c2.9-5.3,5.2-10.9,6.9-16.7h4.2
	c7.1,0,12.8-5.7,12.8-12.8v-25.6C230.4,338.5,224.7,332.8,217.6,332.8z M128,396.8c-21.2,0-38.4-17.2-38.4-38.4S106.8,320,128,320
	s38.4,17.2,38.4,38.4S149.2,396.8,128,396.8z"/>
</svg>
