<?xml version="1.0" encoding="utf-8"?>
<!-- Generator: Adobe Illustrator 24.0.0, SVG Export Plug-In . SVG Version: 6.00 Build 0)  -->
<svg version="1.1" id="Layer_1" xmlns="http://www.w3.org/2000/svg" xmlns:xlink="http://www.w3.org/1999/xlink" x="0px" y="0px"
	 viewBox="0 0 512 512" style="enable-background:new 0 0 512 512;" xml:space="preserve">
<path d="M497,241l-46.8-46.8c-9.6-9.6-22.6-15-36.2-15h-30v-76.9c0-14.2-11.4-25.6-25.6-25.6H25.6C11.4,76.8,0,88.2,0,102.4v268.8
	c0,35.4,28.6,64,64,64c21,0,39.5-10.3,51.2-25.9c11.7,15.7,30.2,25.9,51.2,25.9c35.4,0,64-28.6,64-64c0-4.4-0.5-8.6-1.3-12.8h130.6
	c-0.9,4.2-1.3,8.4-1.3,12.8c0,35.4,28.6,64,64,64c35.4,0,64-28.6,64-64c0-4.4-0.5-8.6-1.3-12.8h14.1c7,0,12.8-5.8,12.8-12.8v-68.4
	C512,263.6,506.6,250.6,497,241z M64,396.8c-14.1,0-25.6-11.5-25.6-25.6c0-14.1,11.5-25.6,25.6-25.6s25.6,11.5,25.6,25.6
	C89.6,385.3,78.1,396.8,64,396.8z M166.4,396.8c-14.1,0-25.6-11.5-25.6-25.6c0-14.1,11.5-25.6,25.6-25.6c14.1,0,25.6,11.5,25.6,25.6
	C192,385.3,180.5,396.8,166.4,396.8z M384,217.6h30c3.4,0,6.6,1.4,9,3.8l34.6,34.6H384V217.6z M422.4,396.8
	c-14.1,0-25.6-11.5-25.6-25.6c0-14.1,11.5-25.6,25.6-25.6s25.6,11.5,25.6,25.6C448,385.3,436.5,396.8,422.4,396.8z"/>
</svg>
