<?xml version="1.0" encoding="utf-8"?>
<!-- Generator: Adobe Illustrator 24.0.0, SVG Export Plug-In . SVG Version: 6.00 Build 0)  -->
<svg version="1.1" id="Layer_1" xmlns="http://www.w3.org/2000/svg" xmlns:xlink="http://www.w3.org/1999/xlink" x="0px" y="0px"
	 viewBox="0 0 512 512" style="enable-background:new 0 0 512 512;" xml:space="preserve">
<path d="M40.2,351.7c1.8,6.8,8.9,10.9,15.7,9L229,314.3c6.8-1.8,10.9-8.9,9-15.7l-39.8-148.4c-1.8-6.8-8.9-10.9-15.7-9l-61.8,16.6
	l19.8,74.2l-49.4,13.2L71.4,171L9.5,187.6c-6.8,1.8-10.9,8.9-9,15.7C0.5,203.3,40.2,351.7,40.2,351.7z M307.2,51.2
	c-14.2,0-25.6,11.4-25.6,25.6v258.9L4.7,411.2c-3.4,1-5.4,4.5-4.5,7.8l10.1,37c1,3.4,4.5,5.4,7.8,4.5l315-85.9
	c1.9,47.8,41,86.2,89.3,86.2c49.5,0,89.6-40.1,89.6-89.6v-320H307.2z M422.4,409.6c-21.2,0-38.4-17.2-38.4-38.4s17.2-38.4,38.4-38.4
	s38.4,17.2,38.4,38.4S443.6,409.6,422.4,409.6z"/>
</svg>
