<?xml version="1.0" encoding="utf-8"?>
<!-- Generator: Adobe Illustrator 24.0.0, SVG Export Plug-In . SVG Version: 6.00 Build 0)  -->
<svg version="1.1" id="Layer_1" xmlns="http://www.w3.org/2000/svg" xmlns:xlink="http://www.w3.org/1999/xlink" x="0px" y="0px"
	 viewBox="0 0 512 512" style="enable-background:new 0 0 512 512;" xml:space="preserve">
<path d="M504.9,128.4L349.2,51.2C333.1,73.5,297.5,89,256,89s-77.1-15.5-93.2-37.8L7.1,128.4c-6.3,3.2-8.9,10.9-5.8,17.2l45.8,91.6
	c3.2,6.3,10.9,8.9,17.2,5.8l45.3-22.2c8.5-4.2,18.4,2,18.4,11.5v202.9c0,14.2,11.4,25.6,25.6,25.6h204.8c14.2,0,25.6-11.4,25.6-25.6
	V232.2c0-9.4,9.9-15.7,18.4-11.5l45.3,22.2c6.3,3.2,14,0.6,17.2-5.8l45.8-91.5C513.8,139.3,511.2,131.5,504.9,128.4z"/>
</svg>
