<?xml version="1.0" encoding="utf-8"?>
<!-- Generator: Adobe Illustrator 24.0.0, SVG Export Plug-In . SVG Version: 6.00 Build 0)  -->
<svg version="1.1" id="Layer_1" xmlns="http://www.w3.org/2000/svg" xmlns:xlink="http://www.w3.org/1999/xlink" x="0px" y="0px"
	 viewBox="0 0 512 512" style="enable-background:new 0 0 512 512;" xml:space="preserve">
<path d="M473.6,51.2H38.4C17.2,51.2,0,68.4,0,89.6v256C0,366.8,17.2,384,38.4,384h192v25.6H89.6c-7.1,0-12.8,5.7-12.8,12.8V448
	c0,7.1,5.7,12.8,12.8,12.8h332.8c7.1,0,12.8-5.7,12.8-12.8v-25.6c0-7.1-5.7-12.8-12.8-12.8H281.6V384h192
	c21.2,0,38.4-17.2,38.4-38.4v-256C512,68.4,494.8,51.2,473.6,51.2z M460.8,332.8H51.2V102.4h409.6V332.8z"/>
</svg>
