<?xml version="1.0" encoding="utf-8"?>
<!-- Generator: Adobe Illustrator 24.0.0, SVG Export Plug-In . SVG Version: 6.00 Build 0)  -->
<svg version="1.1" id="Layer_1" xmlns="http://www.w3.org/2000/svg" xmlns:xlink="http://www.w3.org/1999/xlink" x="0px" y="0px"
	 viewBox="0 0 512 512" style="enable-background:new 0 0 512 512;" xml:space="preserve">
<path d="M210.7,78.4c0-24.7,5.4-32.4,13.9-39.4c-69.5,8.5-149.3,34-176.3,66.4c-5.4,7.7-9.3,20.8-9.3,37.1
	C39,246,145.8,480,223.1,480c36.3,0,97.3-59.5,146.7-139c-7,2.3-11.6,2.3-18.5,2.3C294.1,343.3,210.7,144.8,210.7,78.4L210.7,78.4z
	 M333.5,32c-30.1,0-41.7,5.4-41.7,36.3c0,66.4,53.8,198.5,101.7,198.5c26.3,0,78.8-99.7,78.8-182.3C472.3,43.6,405.3,32,333.5,32
	L333.5,32z"/>
</svg>
