<?xml version="1.0" encoding="utf-8"?>
<!-- Generator: Adobe Illustrator 24.0.0, SVG Export Plug-In . SVG Version: 6.00 Build 0)  -->
<svg version="1.1" id="Layer_1" xmlns="http://www.w3.org/2000/svg" xmlns:xlink="http://www.w3.org/1999/xlink" x="0px" y="0px"
	 viewBox="0 0 512 512" style="enable-background:new 0 0 512 512;" xml:space="preserve">
<path d="M446.1,32H65.9C47.2,32,32,47.2,32,65.9V446c0,18.8,15.2,34,33.9,34H446c18.7,0,33.9-15.2,33.9-33.9V65.9
	C480,47.2,464.8,32,446.1,32z M269.6,391.1c-74.6,7.5-141.2-46.9-148.7-121.5h94.4V290c0,3.7,3,6.8,6.8,6.8H290c3.7,0,6.8-3,6.8-6.8
	v-67.9c0-3.7-3-6.8-6.8-6.8h-67.9c-3.7,0-6.8,3-6.8,6.8v20.4h-94.4c7-69.4,65.4-122.2,135.1-122.2s128.1,52.8,135.1,122.2
	C398.6,317,344.2,383.6,269.6,391.1z"/>
</svg>
