<?xml version="1.0" encoding="utf-8"?>
<!-- Generator: Adobe Illustrator 24.0.0, SVG Export Plug-In . SVG Version: 6.00 Build 0)  -->
<svg version="1.1" id="Layer_1" xmlns="http://www.w3.org/2000/svg" xmlns:xlink="http://www.w3.org/1999/xlink" x="0px" y="0px"
	 viewBox="0 0 512 512" style="enable-background:new 0 0 512 512;" xml:space="preserve">
<path d="M256,8C119,8,8,119,8,256s111,248,248,248s248-111,248-248S393,8,256,8z M308.7,101c8.8-15.2,28.3-20.5,43.5-11.7
	c15.3,8.8,20.5,28.3,11.7,43.6c-8.8,15.2-28.3,20.5-43.5,11.7C305.1,135.7,299.9,116.2,308.7,101z M95.4,287.9
	c-17.6,0-31.9-14.3-31.9-31.9s14.3-31.9,31.9-31.9s31.9,14.3,31.9,31.9S113,287.9,95.4,287.9z M123.5,291
	c22.3-17.9,22.4-51.9,0-69.9c8.6-32.8,29.1-60.7,56.5-79.1l23.7,39.6c-51.5,36.3-51.5,112.5,0,148.8L180,370
	C152.6,351.7,132.2,323.7,123.5,291z M352.2,422.7c-15.3,8.8-34.7,3.6-43.5-11.7c-8.8-15.3-3.6-34.8,11.7-43.6
	c15.2-8.8,34.7-3.6,43.5,11.7C372.7,394.4,367.5,413.9,352.2,422.7z M352.5,353.2c-26.7-10.3-56.1,6.6-60.5,35
	c-5.2,1.4-48.9,14.3-96.7-9.4l22.5-40.3c57,26.5,123.4-11.7,128.9-74.4l46.1,0.7C390.5,299.3,375.5,330.3,352.5,353.2L352.5,353.2z
	 M346.6,247.9c-5.4-62-71.3-101.2-128.9-74.4l-22.5-40.3c47.9-23.7,91.5-10.8,96.7-9.4c4.4,28.3,33.8,45.3,60.5,35
	c23.1,22.9,38,53.9,40.2,88.5L346.6,247.9L346.6,247.9z"/>
</svg>
