<?xml version="1.0" encoding="utf-8"?>
<!-- Generator: Adobe Illustrator 24.0.0, SVG Export Plug-In . SVG Version: 6.00 Build 0)  -->
<svg version="1.1" id="Layer_1" xmlns="http://www.w3.org/2000/svg" xmlns:xlink="http://www.w3.org/1999/xlink" x="0px" y="0px"
	 viewBox="0 0 512 512" style="enable-background:new 0 0 512 512;" xml:space="preserve">
<path d="M92.3,160.7l81.7,29.7c28.2-65.2,69-115.4,111.2-139c-76.7-3.9-151,29.6-198.8,89.4C81,147.7,84.2,157.8,92.3,160.7z
	 M198.1,199.2l190.8,69.5c28.6-97.1,15-185.3-34.1-203.2c-5.9-2.2-12.1-3.2-18.5-3.2C289.9,62.3,233.7,117.7,198.1,199.2
	L198.1,199.2z M417.2,99.6c5,13,8.7,27.7,10.6,44.2c4.6,39.9-1.1,86.6-15.2,133.6l82.1,29.9c8.1,2.9,17-2.7,17.3-11.3
	C513.8,219.3,478.4,145.9,417.2,99.6L417.2,99.6z M448,409.6H256.8l52-142.8l-48.1-17.5l-58.3,160.3H12.8c-7.1,0-12.8,5.7-12.8,12.8
	V448c0,7.1,5.7,12.8,12.8,12.8H448c7.1,0,12.8-5.7,12.8-12.8v-25.6C460.8,415.3,455.1,409.6,448,409.6L448,409.6z"/>
</svg>
