<?xml version="1.0" encoding="utf-8"?>
<!-- Generator: Adobe Illustrator 24.0.0, SVG Export Plug-In . SVG Version: 6.00 Build 0)  -->
<svg version="1.1" id="Layer_1" xmlns="http://www.w3.org/2000/svg" xmlns:xlink="http://www.w3.org/1999/xlink" x="0px" y="0px"
	 viewBox="0 0 512 512" style="enable-background:new 0 0 512 512;" xml:space="preserve">
<path d="M256.4,8C119.4,7.8,8.1,118.7,8,255.7C7.9,392.7,119,503.9,256,504c136.9,0,247.8-110.7,248-247.7S393.3,8.2,256.4,8z
	 M401.4,274c-0.8,27.1-5.4,48.8-14,65c-8.6,16.2-23.1,27.9-43.5,35c-20.4,7.1-48.9,10.6-85.4,10.5h-4.6c-36.5,0.1-65-3.3-85.4-10.5
	s-34.9-18.8-43.5-35c-8.6-16.2-13.2-37.9-14-65c-0.7-10.2-0.7-20.5,0-30.7c0.4-14.7,1.6-29.3,3.6-43.9c1.9-13.4,3.6-22.6,5.4-32
	c1-4.9,1.3-6.4,1.8-8.4c0.5-2.3,2.6-3.9,4.9-3.9h0.7l32,5c2.4,0.4,4.2,2.5,4.2,5c0,0.3,0,0.5,0,0.8l-1.7,8.8
	c-1.6,8.8-3.2,20.1-4.8,33.7c-1.7,14-2.5,28.1-2.6,42.1c-0.2,27,2.5,46.9,8.1,59.8c5.8,13,17.4,22.3,31.3,25.2
	c18.8,4,38.1,5.7,57.3,5.1h10.3c19.2,0.6,38.5-1.2,57.3-5.2c13.8-2.9,25.4-12.3,31.1-25.2c5.7-12.9,8.4-32.9,8.1-59.8
	c-0.1-14.1-1-28.2-2.6-42.1c-1.7-13.6-3.3-24.8-4.9-33.7l-1.7-8.8c0-0.3,0-0.5,0-0.8c0-2.5,1.8-4.6,4.2-5l32-5h0.8
	c2.3,0,4.4,1.6,4.9,3.9c0.5,2.1,0.8,3.6,1.8,8.4c1.8,9.6,3.5,18.8,5.4,32c2,14.6,3.2,29.2,3.6,43.9C402,253.5,402,263.8,401.4,274
	L401.4,274z"/>
</svg>
