<?xml version="1.0" encoding="utf-8"?>
<!-- Generator: Adobe Illustrator 24.0.0, SVG Export Plug-In . SVG Version: 6.00 Build 0)  -->
<svg version="1.1" id="Layer_1" xmlns="http://www.w3.org/2000/svg" xmlns:xlink="http://www.w3.org/1999/xlink" x="0px" y="0px"
	 viewBox="0 0 512 512" style="enable-background:new 0 0 512 512;" xml:space="preserve">
<path d="M511.7,278c-25.4-121.2-123-194-227.3-205.3V56.9c0-15.7-12.7-28.4-28.4-28.4s-28.4,12.7-28.4,28.4v15.9
	C122.9,84.1,26.2,156.9,0.3,278c-2,9,7.6,18.9,16.6,10.1c46.2-48.9,95.7-46.6,141,32.9c4.7,8.4,13.2,7.6,17.5,0
	c18-31.5,39.9-65.1,80.6-65.1c52,0,78.4,61.2,80.6,65.1c4.3,7.6,12.8,8.4,17.5,0c45.3-79.6,95.2-81.2,141-32.9
	C504.3,297.1,513.7,287,511.7,278z M227.6,296.6v115.8c0,7.8-6.4,14.2-14.2,14.2c-6.9,0-11.7-4.7-13.4-9.5
	c-5.2-14.8-21.4-22.6-36.3-17.3c-14.8,5.2-22.6,21.5-17.3,36.3c10,28.4,37,47.4,67,47.4c39.2,0,71.1-31.9,71.1-71.1V296.5
	c-8.1-7-17.6-12.1-28.4-12.1C245.1,284.5,236.1,288.7,227.6,296.6z"/>
</svg>
