<?xml version="1.0" encoding="utf-8"?>
<!-- Generator: Adobe Illustrator 24.0.0, SVG Export Plug-In . SVG Version: 6.00 Build 0)  -->
<svg version="1.1" id="Layer_1" xmlns="http://www.w3.org/2000/svg" xmlns:xlink="http://www.w3.org/1999/xlink" x="0px" y="0px"
	 viewBox="0 0 512 512" style="enable-background:new 0 0 512 512;" xml:space="preserve">
<path d="M203.7,232.8c2.2,0,4.1-1.3,5-3.3c2.2-9.8,7.4-18.6,14.9-25.3c1.2-0.8,1.7-2.5,1.7-4.1c-0.1-1.4-0.9-2.6-2.1-3.3
	l-116.8-68.3L181,85c3-1.7,4.9-4.8,5-8.3c0.1-3.5-1.9-6.7-5-8.3l-22.4-12.8c-3-1.7-6.6-1.7-9.5,0l-100.2,58c-3,1.7-4.9,4.8-5,8.3
	V237c-0.1,3.5,1.9,6.7,5,8.3l22.4,12.8c1.5,0.9,3.2,1.3,5,1.2c2.4,0.1,4.8-0.8,6.6-2.5c1.8-1.9,2.8-4.4,2.9-7v-85.3l115.9,67.9
	C202.3,232.7,203,232.8,203.7,232.8z M355.3,377.7c-1.7,0.1-3.4,0.5-5,1.2L275.8,422V287.9c0-2.9-2.9-5.8-6.2-4.6
	c-9.4,2.8-19.5,3-29,0.4c-2.6-0.7-5.3,0.7-6,3.3c-0.1,0.4-0.2,0.8-0.2,1.2v133.3l-74.5-43.1c-1.5-0.9-3.2-1.3-5-1.2
	c-5.2,0.1-9.5,4.3-9.5,9.5v26.1c-0.1,3.5,1.9,6.7,5,8.3l100.2,57.6c1.5,0.9,3.2,1.3,5,1.2c1.7,0,3.4-0.4,5-1.2l100.2-57.6
	c3-1.7,4.9-4.8,5-8.3v-26.1C364.8,382.3,360.2,377.7,355.3,377.7z M318,78c12.7,0,23-10.3,23-23s-10.3-23-23-23s-23,10.3-23,23
	S305.3,78,318,78z M381.6,67.9c-12.7,0-23,10.3-23,23s10.3,23,23,23s23-10.3,23-23C404.6,78.2,394.3,67.9,381.6,67.9L381.6,67.9z
	 M444.8,151.6c12.7,0,23-10.3,23-23s-10.3-23-23-23s-23,10.3-23,23l0,0C421.8,141.3,432.1,151.6,444.8,151.6z M381.6,142.4
	c-12.7,0-23,10.3-23,23s10.3,23,23,23s23-10.3,23-23l0,0C404.6,152.7,394.3,142.4,381.6,142.4C381.6,142.4,381.6,142.4,381.6,142.4
	L381.6,142.4z M318,225.6c12.7,0,23-10.3,23-23s-10.3-23-23-23s-23,10.3-23,23l0,0C295,215.3,305.3,225.6,318,225.6
	C318,225.6,318,225.6,318,225.6L318,225.6z M255.9,262c12.7,0,23-10.3,23-23s-10.3-23-23-23s-23,10.3-23,23l0,0
	C232.9,251.7,243.2,262,255.9,262C255.9,262,255.9,262,255.9,262L255.9,262z M444.8,179.6c-12.7,0-23,10.3-23,23s10.3,23,23,23
	s23-10.3,23-23l0,0C467.8,189.9,457.5,179.6,444.8,179.6L444.8,179.6z M444.8,251.9c-12.7,0-23,10.3-23,23s10.3,23,23,23
	s23-10.3,23-23l0,0C467.8,262.2,457.5,251.9,444.8,251.9L444.8,251.9z"/>
</svg>
