<?xml version="1.0" encoding="utf-8"?>
<!-- Generator: Adobe Illustrator 24.0.0, SVG Export Plug-In . SVG Version: 6.00 Build 0)  -->
<svg version="1.1" id="Layer_1" xmlns="http://www.w3.org/2000/svg" xmlns:xlink="http://www.w3.org/1999/xlink" x="0px" y="0px"
	 viewBox="0 0 512 512" style="enable-background:new 0 0 512 512;" xml:space="preserve">
<path d="M256,480c39.5,0,76.2-11.8,106.8-32.2H149.3C179.8,468.2,216.5,480,256,480z M166.9,286.9v-12.4H64v12.4c0,2.5,0,5,0.1,7.4
	h103.1C167,291.9,166.9,289.4,166.9,286.9z M187.4,343.9H72.5c2.6,8.5,5.8,16.8,9.6,24.8h138.3C207.5,363,196.3,354.5,187.4,343.9z
	 M169.7,309.2H65.3c0.9,7.6,2.2,15,3.9,22.3h109.7C174.9,324.6,171.7,317.1,169.7,309.2z M166.9,239.9H64v17.3h102.9V239.9z
	 M166.9,66.7H64v4.9h102.9V66.7z M166.9,32H64v2.5h102.9V32z M166.9,101.3H64v7.4h102.9V101.3z M166.9,205.3H64v14.8h102.9V205.3z
	 M166.9,136H64v9.9h102.9V136z M166.9,170.6H64V183h102.9V170.6z M333.1,331.5h109.7c1.8-7.3,3.1-14.7,3.9-22.3H342.3
	C340.2,317.1,337.1,324.6,333.1,331.5z M345.1,145.8H448V136H345.1L345.1,145.8z M345.1,183H448v-12.4H345.1L345.1,183z
	 M345.1,108.7H448v-7.4H345.1L345.1,108.7z M345.1,32v2.5H448V32L345.1,32z M142.1,442.9h227.7c11.8-8.7,22.7-18.6,32.2-29.7H108.9
	C118.5,424.2,130.3,434.2,142.1,442.9L142.1,442.9z M345.1,71.6H448v-4.9H345.1L345.1,71.6z M345.1,220.1H448v-14.8H345.1
	L345.1,220.1z M102.8,405.7h305.3c6.7-8.5,12.6-17.6,17.8-27.2H87C92.2,388.1,96.2,397.2,102.8,405.7z M291.6,368.6H431
	c3.7-8,5.8-16.2,8.5-24.8h-115C315.7,354.5,304.4,363,291.6,368.6z M345.1,286.9c0,2.5-0.1,5-0.4,7.4h103.1c0.1-2.5,0.2-4.9,0.2-7.4
	v-12.4H345.1V286.9z M345.1,257.2H448v-17.3H345.1V257.2z"/>
</svg>
