<?xml version="1.0" encoding="utf-8"?>
<!-- Generator: Adobe Illustrator 24.0.0, SVG Export Plug-In . SVG Version: 6.00 Build 0)  -->
<svg version="1.1" id="Layer_1" xmlns="http://www.w3.org/2000/svg" xmlns:xlink="http://www.w3.org/1999/xlink" x="0px" y="0px"
	 viewBox="0 0 512 512" style="enable-background:new 0 0 512 512;" xml:space="preserve">
<path d="M323.9,84c-66.6,133.6-70.6,127.3-73.4,144.6l-4.3,27.4c-1.6,10-5.5,19.6-11.4,27.9L110.4,457.2c-6.3,8.8-17,13.5-27.9,12.2
	c-33.6-4.2-64.9-26.9-79.5-57.2c-4.8-9.8-3.8-21.5,2.6-30.4l124.3-173.5c5.9-8.3,13.7-15,22.7-19.8l24.5-12.9
	c15.4-8.2,8.1-9.9,113.2-115.9c0.8-4,0.8-6.1,3-6.7c2.5-0.6,5.5-0.8,5.3-3.8l-0.3-3.8c-0.2-1.6,1.1-3,2.7-3c3.8-0.1,11,1,21.4,8.3
	c10.3,7.4,13.7,14,14.8,17.6c0.5,1.5-0.5,3.1-2,3.5l-3.8,0.9c-2.8,0.8-2.1,3.7-1.9,6.2C329.4,81.2,327.4,81.9,323.9,84L323.9,84z
	 M181,72.7c2.8,0.8,2.1,3.7,1.9,6.2c-0.2,2.3,1.8,2.9,5.3,5c6.6,13.3,12.8,25.5,18.5,36.7c0.6,1.1,1.9,1.3,2.8,0.4
	c9.3-10,20.5-21.9,33.8-35.6c1.1-1.2,1.2-2.9,0.1-4.1c-6.7-6.8-13.8-14.1-21.4-21.8c-0.8-3.9-0.8-6.1-3-6.7
	c-2.5-0.7-5.5-0.8-5.3-3.8c0.3-2.8,1.2-6.8-2.3-6.8c-3.8-0.1-11,0.9-21.4,8.3c-10.3,7.4-13.7,14-14.8,17.6
	C174.1,71.7,178.3,72,181,72.7z M506.4,381.8L382.2,208.3c-11-15.4-22.2-19.5-47.1-32.6c-9.3-4.9-11.9-9.1-25.5-24.1
	c-0.8-0.9-2.4-0.8-3,0.4C268,226,267.4,221,265.8,231c-1.4,8.9-1.1,16.7,0.3,24.9c1.6,10,5.5,19.6,11.4,27.9l124.3,173.5
	c6.3,8.8,16.9,13.5,27.6,12.3c33.6-4.1,65.1-26.7,79.9-57.3C513.7,402.4,512.8,390.7,506.4,381.8z"/>
</svg>
