<?xml version="1.0" encoding="utf-8"?>
<!-- Generator: Adobe Illustrator 24.0.0, SVG Export Plug-In . SVG Version: 6.00 Build 0)  -->
<svg version="1.1" id="Layer_1" xmlns="http://www.w3.org/2000/svg" xmlns:xlink="http://www.w3.org/1999/xlink" x="0px" y="0px"
	 viewBox="0 0 512 512" style="enable-background:new 0 0 512 512;" xml:space="preserve">
<path d="M167.2,303c-5.2,3.6-32.6,13.1-32.6-19V180h-32.7v102.6c0,74.9,80.2,51.1,97.9,39V180h-32.6L167.2,303z M68,74.8v220.9
	c0,103.7,74.9,135.2,187.7,184.1c112.4-48.9,187.7-80.2,187.7-184.1V74.8C327.1,13.2,161.6,25.2,68,74.8z M426.1,295.7
	c0,86.6-53.2,113.6-170.4,165.3C138.2,409.2,85.2,382.3,85.2,295.7V169.3c102.3-93.8,231.6-100,340.9-89.8V295.7z M216.5,188.3
	v212.8h32.7v-68.7c24.4,7.3,71.7-2.6,71.7-78.5C320.9,156.5,240.2,173,216.5,188.3L216.5,188.3z M249.2,305.6V205.3
	c8.4-4.2,38.4-12.7,38.4,49.3C287.6,322.5,251.2,306.4,249.2,305.6L249.2,305.6z M328.3,219.2c0.1,47.3,51.6,42.5,52.2,70.4
	c0.6,23.5-30.4,23-50.8,4.9v30.1c36.2,21.5,81.9,8.1,83.2-33.5c1.7-51.5-54.1-46.6-53.4-73.2c0.6-20.3,30.6-20.5,48.5-2.2v-28.4
	C379.5,165.3,328.1,178.1,328.3,219.2L328.3,219.2z"/>
</svg>
