<?xml version="1.0" encoding="utf-8"?>
<!-- Generator: Adobe Illustrator 24.0.0, SVG Export Plug-In . SVG Version: 6.00 Build 0)  -->
<svg version="1.1" id="Layer_1" xmlns="http://www.w3.org/2000/svg" xmlns:xlink="http://www.w3.org/1999/xlink" x="0px" y="0px"
	 viewBox="0 0 512 512" style="enable-background:new 0 0 512 512;" xml:space="preserve">
<path d="M512.8,256c0,2.5-1.4,4.9-3.6,6L438,304.7c-1.1,0.6-2.2,1.1-3.6,1.1c-1.1,0-2.5-0.2-3.6-0.9c-2.2-1.4-3.6-3.6-3.6-6.2v-28.4
	H236.8c20.2,31.6,32.3,85.3,55.5,85.3h21.3v-21.4c0-4,3.1-7.1,7.1-7.1h71.1c4,0,7.1,3.1,7.1,7.1v71.1c0,4-3.1,7.1-7.1,7.1h-71.1
	c-4,0-7.1-3.1-7.1-7.1V384h-21.3c-60.2,0-64.7-113.7-99.5-113.7h-80.1c-6.5,24.4-28.7,42.7-55.1,42.7c-31.4-0.1-56.9-25.6-56.9-57
	s25.5-56.9,56.9-56.9c26.4,0,48.7,18.2,55.1,42.7c31.2,0,35,7.6,59.5-48.2c32-71.1,46.4-65.5,86.9-65.5c6-16.7,21.5-28.4,40.2-28.4
	c23.5,0,42.7,19.1,42.7,42.7s-19.1,42.7-42.7,42.7c-18.7,0-34.2-11.8-40.2-28.4h-23.8c-23.2,0-35.4,53.8-55.5,85.3h247.5v-28.4
	c0-2.6,1.4-4.9,3.6-6.2s5.1-1.1,7.1,0.2l71.1,42.7C511.4,251.1,512.8,253.5,512.8,256L512.8,256z"/>
</svg>
