<?xml version="1.0" encoding="utf-8"?>
<!-- Generator: Adobe Illustrator 24.0.0, SVG Export Plug-In . SVG Version: 6.00 Build 0)  -->
<svg version="1.1" id="Layer_1" xmlns="http://www.w3.org/2000/svg" xmlns:xlink="http://www.w3.org/1999/xlink" x="0px" y="0px"
	 viewBox="0 0 512 512" style="enable-background:new 0 0 512 512;" xml:space="preserve">
<path d="M351.4,320L256,415.4L160.6,320C89.1,323.1,32,381.6,32,453.8c0,32.1,26.1,58.2,58.2,58.2h331.6c32.1,0,58.2-26.1,58.2-58.2
	C480,381.6,422.9,323.1,351.4,320z M256,304c70.7,0,128-57.3,128-128V65.8c0-13.4-8.3-25.3-20.8-30L278.5,4.1
	c-14.5-5.4-30.5-5.4-44.9,0l-84.8,31.8c-12.5,4.7-20.8,16.6-20.8,30V176C128,246.7,185.3,304,256,304z M216,71.7c0-2.8,2.2-5,5-5
	h21.7V45c0-2.8,2.2-5,5-5h16.7c2.8,0,5,2.2,5,5v21.7H291c2.8,0,5,2.2,5,5v16.7c0,2.8-2.2,5-5,5h-21.7V115c0,2.8-2.2,5-5,5h-16.7
	c-2.8,0-5-2.2-5-5V93.3H221c-2.8,0-5-2.2-5-5V71.7z M176,160h160v16c0,44.2-35.8,80-80,80s-80-35.8-80-80V160z"/>
</svg>
