<?xml version="1.0" encoding="utf-8"?>
<!-- Generator: Adobe Illustrator 24.0.0, SVG Export Plug-In . SVG Version: 6.00 Build 0)  -->
<svg version="1.1" id="Layer_1" xmlns="http://www.w3.org/2000/svg" xmlns:xlink="http://www.w3.org/1999/xlink" x="0px" y="0px"
	 viewBox="0 0 512 512" style="enable-background:new 0 0 512 512;" xml:space="preserve">
<path d="M504.5,343.1L432.2,271c-9.6-9.6-22.6-15-36.2-15h-63.4c-14.2,0-25.6,11.4-25.6,25.6V345c0,13.6,5.4,26.6,15,36.2l72.2,72.2
	c10,10,26.2,10,36.2,0l74-74C514.5,369.3,514.5,353.1,504.5,343.1L504.5,343.1z M358.2,326.3c-10.6,0-19.2-8.6-19.2-19.2
	c0-10.6,8.6-19.2,19.2-19.2c10.6,0,19.2,8.6,19.2,19.2C377.4,317.7,368.9,326.3,358.2,326.3z M179.2,255.9
	c56.6,0,102.4-45.8,102.4-102.4c0-56.5-45.8-102.3-102.4-102.3S76.8,97,76.8,153.6C76.8,210.1,122.6,255.9,179.2,255.9L179.2,255.9z
	 M281.4,344.9v-58.5c-9.8-2.9-19.9-5-30.6-5h-13.4c-17.8,8.2-37.5,12.8-58.3,12.8s-40.5-4.6-58.3-12.8h-13.4
	C48.1,281.5,0,329.7,0,389v33.3c0,21.2,17.2,38.4,38.4,38.4H320c12.4,0,23.3-6,30.3-15.1l-46.4-46.4
	C289.4,384.7,281.4,365.4,281.4,344.9L281.4,344.9z"/>
</svg>
