<?xml version="1.0" encoding="utf-8"?>
<!-- Generator: Adobe Illustrator 24.0.0, SVG Export Plug-In . SVG Version: 6.00 Build 0)  -->
<svg version="1.1" id="Layer_1" xmlns="http://www.w3.org/2000/svg" xmlns:xlink="http://www.w3.org/1999/xlink" x="0px" y="0px"
	 viewBox="0 0 512 512" style="enable-background:new 0 0 512 512;" xml:space="preserve">
<path d="M256,256c70.7,0,128-57.3,128-128S326.7,0,256,0S128,57.3,128,128S185.3,256,256,256z M351.8,288.6L304,480l-32-136l32-56
	h-96l32,56l-32,136l-47.8-191.4C88.9,292,32,350.3,32,422.4V464c0,26.5,21.5,48,48,48h352c26.5,0,48-21.5,48-48v-41.6
	C480,350.3,423.1,292,351.8,288.6L351.8,288.6z"/>
</svg>
