<?xml version="1.0" encoding="utf-8"?>
<!-- Generator: Adobe Illustrator 24.0.0, SVG Export Plug-In . SVG Version: 6.00 Build 0)  -->
<svg version="1.1" id="Layer_1" xmlns="http://www.w3.org/2000/svg" xmlns:xlink="http://www.w3.org/1999/xlink" x="0px" y="0px"
	 viewBox="0 0 512 512" style="enable-background:new 0 0 512 512;" xml:space="preserve">
<path d="M179.2,256c56.6,0,102.4-45.8,102.4-102.4S235.8,51.2,179.2,51.2S76.8,97,76.8,153.6S122.6,256,179.2,256z M250.9,281.6
	h-13.4c-17.8,8.2-37.5,12.8-58.3,12.8s-40.5-4.6-58.3-12.8h-13.4C48.2,281.6,0,329.8,0,389.1v33.3c0,21.2,17.2,38.4,38.4,38.4H320
	c21.2,0,38.4-17.2,38.4-38.4v-33.3C358.4,329.8,310.2,281.6,250.9,281.6z M509.3,178.9L487,156.4c-3.7-3.8-9.7-3.8-13.4-0.1
	l-83.8,83.2l-36.4-36.6c-3.7-3.8-9.7-3.8-13.4-0.1l-22.5,22.3c-3.8,3.7-3.8,9.7-0.1,13.4l65.4,65.8c3.7,3.8,9.7,3.8,13.4,0.1
	l113-112.2C512.9,188.6,513,182.6,509.3,178.9z"/>
</svg>
