<?xml version="1.0" encoding="utf-8"?>
<!-- Generator: Adobe Illustrator 24.0.0, SVG Export Plug-In . SVG Version: 6.00 Build 0)  -->
<svg version="1.1" id="Layer_1" xmlns="http://www.w3.org/2000/svg" xmlns:xlink="http://www.w3.org/1999/xlink" x="0px" y="0px"
	 viewBox="0 0 512 512" style="enable-background:new 0 0 512 512;" xml:space="preserve">
<path d="M309.4,12C293.1,4.5,275.1,0,256,0c-53.7,0-99.5,33.1-118.5,80h81.2C218.7,80,309.4,12,309.4,12z M374.5,80
	c-7.9-19.5-20.7-36.2-36.5-49.5L272,80H374.5z M256,256c70.7,0,128-57.3,128-128c0-5.5-1-10.7-1.6-16H129.6
	c-0.7,5.3-1.6,10.5-1.6,16C128,198.7,185.3,256,256,256z M112,299.7V512h128.3l-98.4-221.5C131.5,292.4,121.5,295.5,112,299.7z
	 M32,464c0,26.5,21.5,48,48,48V320.2c-29.1,24.7-48,61-48,102.2V464z M288,416h-55.4l42.7,96H288c26.5,0,48-21.5,48-48
	S314.5,416,288,416z M345.6,288h-16.7c-22.2,10.2-46.9,16-72.9,16c-26,0-50.6-5.8-72.9-16h-7.4l42.7,96H288c44.1,0,80,35.9,80,80
	c0,18.1-6.3,34.6-16.4,48H432c26.5,0,48-21.5,48-48v-41.6C480,348.2,419.8,288,345.6,288z"/>
</svg>
