<?xml version="1.0" encoding="utf-8"?>
<!-- Generator: Adobe Illustrator 24.0.0, SVG Export Plug-In . SVG Version: 6.00 Build 0)  -->
<svg version="1.1" id="Layer_1" xmlns="http://www.w3.org/2000/svg" xmlns:xlink="http://www.w3.org/1999/xlink" x="0px" y="0px"
	 viewBox="0 0 512 512" style="enable-background:new 0 0 512 512;" xml:space="preserve">
<path d="M499.2,217.6H448v-51.2c0-7-5.8-12.8-12.8-12.8h-25.6c-7,0-12.8,5.8-12.8,12.8v51.2h-51.2c-7,0-12.8,5.8-12.8,12.8V256
	c0,7,5.8,12.8,12.8,12.8h51.2V320c0,7,5.8,12.8,12.8,12.8h25.6c7,0,12.8-5.8,12.8-12.8v-51.2h51.2c7,0,12.8-5.8,12.8-12.8v-25.6
	C512,223.4,506.2,217.6,499.2,217.6z M179.2,256c56.6,0,102.4-45.8,102.4-102.4S235.8,51.2,179.2,51.2S76.8,97,76.8,153.6
	S122.6,256,179.2,256z M250.9,281.6h-13.4c-17.8,8.2-37.5,12.8-58.3,12.8s-40.5-4.6-58.3-12.8h-13.4C48.2,281.6,0,329.8,0,389.1
	v33.3c0,21.2,17.2,38.4,38.4,38.4H320c21.2,0,38.4-17.2,38.4-38.4v-33.3C358.4,329.8,310.2,281.6,250.9,281.6z"/>
</svg>
