<?xml version="1.0" encoding="utf-8"?>
<!-- Generator: Adobe Illustrator 24.0.0, SVG Export Plug-In . SVG Version: 6.00 Build 0)  -->
<svg version="1.1" id="Layer_1" xmlns="http://www.w3.org/2000/svg" xmlns:xlink="http://www.w3.org/1999/xlink" x="0px" y="0px"
	 viewBox="0 0 512 512" style="enable-background:new 0 0 512 512;" xml:space="preserve">
<path d="M396.8,230.4c-63.7,0-115.2,51.5-115.2,115.2s51.5,115.2,115.2,115.2S512,409.3,512,345.6S460.5,230.4,396.8,230.4z
	 M448,350.6c0,4.2-3.5,7.8-7.8,7.8h-48.5c-4.2,0-7.8-3.5-7.8-7.8v-61.3c0-4.2,3.5-7.8,7.8-7.8h10.1c4.2,0,7.8,3.5,7.8,7.8v43.4h30.6
	c4.2,0,7.8,3.5,7.8,7.8V350.6L448,350.6z M256,345.6c0-22.2,5.4-43.3,14.6-62c-6.4-1.2-13-2-19.7-2h-13.4
	c-17.8,8.2-37.5,12.8-58.3,12.8s-40.5-4.6-58.3-12.8h-13.4C48.2,281.6,0,329.8,0,389.1v33.3c0,21.2,17.2,38.4,38.4,38.4h277.7
	C279.8,435.3,256,393.2,256,345.6z M179.2,256c56.6,0,102.4-45.8,102.4-102.4S235.8,51.2,179.2,51.2S76.8,97,76.8,153.6
	S122.6,256,179.2,256z"/>
</svg>
