<?xml version="1.0" encoding="utf-8"?>
<!-- Generator: Adobe Illustrator 24.0.0, SVG Export Plug-In . SVG Version: 6.00 Build 0)  -->
<svg version="1.1" id="Layer_1" xmlns="http://www.w3.org/2000/svg" xmlns:xlink="http://www.w3.org/1999/xlink" x="0px" y="0px"
	 viewBox="0 0 512 512" style="enable-background:new 0 0 512 512;" xml:space="preserve">
<path d="M153.6,256c49.5,0,89.6-40.1,89.6-89.6s-40.1-89.6-89.6-89.6S64,116.9,64,166.4S104.1,256,153.6,256z M215,281.6h-6.6
	c-16.6,8-35.1,12.8-54.8,12.8s-38.1-4.8-54.8-12.8h-6.6C41.3,281.6,0,322.9,0,373.8v23c0,21.2,17.2,38.4,38.4,38.4h230.4
	c21.2,0,38.4-17.2,38.4-38.4v-23C307.2,322.9,265.9,281.6,215,281.6z M384,256c42.4,0,76.8-34.4,76.8-76.8s-34.4-76.8-76.8-76.8
	s-76.8,34.4-76.8,76.8S341.6,256,384,256z M422.4,281.6h-3c-11.1,3.8-22.9,6.4-35.4,6.4s-24.2-2.6-35.4-6.4h-3
	c-16.3,0-31.4,4.7-44.6,12.3c19.5,21,31.8,49,31.8,79.8v30.7c0,1.8-0.4,3.4-0.5,5.1h141.3c21.2,0,38.4-17.2,38.4-38.4
	C512,321.7,471.9,281.6,422.4,281.6z"/>
</svg>
