<?xml version="1.0" encoding="utf-8"?>
<!-- Generator: Adobe Illustrator 24.0.0, SVG Export Plug-In . SVG Version: 6.00 Build 0)  -->
<svg version="1.1" id="Layer_1" xmlns="http://www.w3.org/2000/svg" xmlns:xlink="http://www.w3.org/1999/xlink" x="0px" y="0px"
	 viewBox="0 0 512 512" style="enable-background:new 0 0 512 512;" xml:space="preserve">
<path d="M497.8,268.1l-92.2-36c-3.3-1.3-10.1-3-17.8,0l-92.2,36c-8.6,3.4-14.2,11.2-14.2,19.9c0,89.3,55,151,106.3,171.1
	c7.7,3,14.4,1.3,17.8,0c41-16,106.3-71.5,106.3-171.1C512,279.3,506.4,271.4,497.8,268.1z M396.8,421.1V269.8l76.4,29.8
	C468.7,369.4,424.5,408,396.8,421.1L396.8,421.1z M179.2,256c56.6,0,102.4-45.8,102.4-102.4S235.8,51.2,179.2,51.2
	S76.8,97,76.8,153.6S122.6,256,179.2,256z M256,288c0-2,0.6-3.8,0.9-5.8c-2-0.1-3.9-0.6-6-0.6h-13.4c-17.8,8.2-37.5,12.8-58.3,12.8
	s-40.5-4.6-58.3-12.8h-13.4C48.2,281.6,0,329.8,0,389.1v33.3c0,21.2,17.2,38.4,38.4,38.4H320c5.4,0,10.6-1.2,15.4-3.2
	C292.2,423.3,256,364.2,256,288z"/>
</svg>
