<?xml version="1.0" encoding="utf-8"?>
<!-- Generator: Adobe Illustrator 24.0.0, SVG Export Plug-In . SVG Version: 6.00 Build 0)  -->
<svg version="1.1" id="Layer_1" xmlns="http://www.w3.org/2000/svg" xmlns:xlink="http://www.w3.org/1999/xlink" x="0px" y="0px"
	 viewBox="0 0 512 512" style="enable-background:new 0 0 512 512;" xml:space="preserve">
<path d="M351.4,320.6L256,416l-95.4-95.4C89.1,323.7,32,382.2,32,454.4v9.6c0,26.5,21.5,48,48,48h352c26.5,0,48-21.5,48-48v-9.6
	C480,382.2,422.9,323.7,351.4,320.6L351.4,320.6z M45.6,79.8l6.4,1.5v58.4c-7,4.2-12,11.5-12,20.3c0,8.4,4.6,15.4,11.1,19.7
	L35.5,242c-1.7,6.9,2.1,14,7.6,14h41.8c5.5,0,9.3-7.1,7.6-14l-15.6-62.3C83.4,175.4,88,168.4,88,160c0-8.8-5-16.1-12-20.3V87.1
	l66,15.9c-8.6,17.2-14,36.4-14,57c0,70.7,57.3,128,128,128s128-57.3,128-128c0-20.6-5.3-39.8-14-57l96.3-23.2
	c18.2-4.4,18.2-27.1,0-31.5l-190.4-46c-13-3.1-26.7-3.1-39.7,0L45.6,48.2C27.5,52.6,27.5,75.4,45.6,79.8z"/>
</svg>
