<?xml version="1.0" encoding="utf-8"?>
<!-- Generator: Adobe Illustrator 24.0.0, SVG Export Plug-In . SVG Version: 6.00 Build 0)  -->
<svg version="1.1" id="Layer_1" xmlns="http://www.w3.org/2000/svg" xmlns:xlink="http://www.w3.org/1999/xlink" x="0px" y="0px"
	 viewBox="0 0 512 512" style="enable-background:new 0 0 512 512;" xml:space="preserve">
<path d="M488.4,324.3c2.1-11.3,2.1-22.8,0-34.1l20.6-11.9c2.4-1.4,3.4-4.2,2.6-6.8c-5.4-17.3-14.6-33-26.6-45.9
	c-1.8-2-4.8-2.5-7.2-1.1l-20.6,11.9c-8.7-7.4-18.7-13.2-29.5-17v-23.8c0-2.7-1.9-5.1-4.6-5.7c-17.8-4-36-3.8-53,0
	c-2.6,0.6-4.6,3-4.6,5.7v23.8c-10.8,3.8-20.8,9.6-29.5,17l-20.6-11.9c-2.3-1.4-5.4-0.9-7.2,1.1c-12,13-21.2,28.6-26.6,45.9
	c-0.8,2.6,0.3,5.4,2.6,6.8l20.6,11.9c-2.1,11.3-2.1,22.8,0,34.1l-20.6,11.9c-2.4,1.4-3.4,4.2-2.6,6.8c5.4,17.3,14.6,32.9,26.6,45.9
	c1.8,2,4.8,2.5,7.2,1.1l20.6-11.9c8.7,7.4,18.7,13.2,29.5,17V419c0,2.7,1.9,5.1,4.6,5.7c17.8,4,36,3.8,53,0c2.6-0.6,4.6-3,4.6-5.7
	v-23.8c10.8-3.8,20.8-9.6,29.5-17l20.6,11.9c2.3,1.4,5.4,0.9,7.2-1.1c12-13,21.2-28.6,26.6-45.9c0.8-2.6-0.3-5.4-2.6-6.8
	L488.4,324.3z M396.8,346c-21.4,0-38.8-17.4-38.8-38.8s17.4-38.8,38.8-38.8s38.8,17.4,38.8,38.8S418.3,346,396.8,346z M76.8,230.4
	c28.2,0,51.2-23,51.2-51.2S105,128,76.8,128s-51.2,23-51.2,51.2S48.5,230.4,76.8,230.4z M256,256c1.5,0,3-0.4,4.5-0.5
	c6.6-17.4,16.4-33.7,29-47.4c5.9-6.4,14.3-10.1,23.1-10.1c5.5,0,11,1.4,15.7,4.2l6.3,3.7c0.6-0.4,1.3-0.7,1.9-1.1
	c5.6-11.7,9-24.6,9-38.4c0-49.5-40.1-89.6-89.6-89.6s-89.5,40-89.5,89.5S206.5,256,256,256z M340.2,411.6c-1.8-1-3.7-2.1-5.4-3.1
	c-6.6,3.8-12.2,7.8-22,7.8c-8.7,0-17.1-3.7-23.1-10.1c-14.6-15.8-25.8-35.1-32.2-55.7c-8.6-27.6,19.9-39.8,20.6-40.2
	c-0.1-2.1-0.1-4.2,0-6.2l-6.3-3.7c-3-1.8-5.6-4-7.8-6.5c-2.6,0.2-5.2,0.5-7.8,0.5c-19.7,0-38.1-4.8-54.8-12.8h-6.6
	c-51,0-92.2,41.3-92.2,92.2v23c0,21.2,17.2,38.4,38.4,38.4h204.3c-3-4.8-5-10.2-5-16.2L340.2,411.6L340.2,411.6z M138.5,270.9
	c-9.3-9.2-22-14.9-36.1-14.9H51.2C22.9,256,0,279,0,307.2v25.6c0,14.2,11.4,25.6,25.6,25.6h52.7C83.3,320.5,106.2,288.6,138.5,270.9
	z"/>
</svg>
