<?xml version="1.0" encoding="utf-8"?>
<!-- Generator: Adobe Illustrator 24.0.0, SVG Export Plug-In . SVG Version: 6.00 Build 0)  -->
<svg version="1.1" id="Layer_1" xmlns="http://www.w3.org/2000/svg" xmlns:xlink="http://www.w3.org/1999/xlink" x="0px" y="0px"
	 viewBox="0 0 512 512" style="enable-background:new 0 0 512 512;" xml:space="preserve">
<path d="M256,256c70.7,0,128-57.3,128-128S326.7,0,256,0S128,57.3,128,128S185.3,256,256,256z M136,424c0,13.3,10.7,24,24,24
	s24-10.7,24-24s-10.7-24-24-24S136,410.7,136,424z M352,288.6v49c36.5,7.4,64,39.8,64,78.4v41.7c0,7.6-5.4,14.2-12.9,15.7l-32.2,6.4
	c-4.3,0.9-8.5-1.9-9.4-6.3l-3.1-15.7c-0.9-4.3,1.9-8.6,6.3-9.4l19.3-3.9V416c0-62.8-96-65.1-96,1.9v26.7l19.3,3.9
	c4.3,0.9,7.1,5.1,6.3,9.4l-3.1,15.7c-0.9,4.3-5.1,7.1-9.4,6.3l-31.2-4.2c-7.9-1.1-13.8-7.8-13.8-15.9V416c0-38.6,27.5-70.9,64-78.4
	v-45.2c-2.2,0.7-4.4,1.1-6.6,1.9c-18,6.3-37.3,9.8-57.4,9.8s-39.4-3.5-57.4-9.8c-7.4-2.6-14.9-4.2-22.6-5.2v81.6
	c23.1,6.9,40,28.1,40,53.4c0,30.9-25.1,56-56,56s-56-25.1-56-56c0-25.3,16.9-46.5,40-53.4v-80.4C80.5,301,32,355.8,32,422.4v44.8
	c0,24.7,20.1,44.8,44.8,44.8h358.4c24.7,0,44.8-20.1,44.8-44.8v-44.8C480,350.4,423.2,292.1,352,288.6L352,288.6z"/>
</svg>
