<?xml version="1.0" encoding="utf-8"?>
<!-- Generator: Adobe Illustrator 24.0.0, SVG Export Plug-In . SVG Version: 6.00 Build 0)  -->
<svg version="1.1" id="Layer_1" xmlns="http://www.w3.org/2000/svg" xmlns:xlink="http://www.w3.org/1999/xlink" x="0px" y="0px"
	 viewBox="0 0 512 512" style="enable-background:new 0 0 512 512;" xml:space="preserve">
<path d="M488.4,349.8c2.1-11.3,2.1-22.8,0-34.1l20.6-11.9c2.4-1.4,3.4-4.2,2.6-6.8c-5.4-17.3-14.6-33-26.6-45.9
	c-1.8-2-4.8-2.5-7.2-1.1l-20.6,11.9c-8.7-7.4-18.7-13.2-29.5-17V221c0-2.7-1.9-5.1-4.6-5.7c-17.8-4-36-3.8-53,0
	c-2.6,0.6-4.6,3-4.6,5.7v23.8c-10.8,3.8-20.8,9.6-29.5,17L315.5,250c-2.3-1.4-5.4-0.9-7.2,1.1c-12,13-21.2,28.6-26.6,45.9
	c-0.8,2.6,0.3,5.4,2.6,6.8l20.6,11.9c-2.1,11.3-2.1,22.8,0,34.1l-20.6,11.9c-2.4,1.4-3.4,4.2-2.6,6.8c5.4,17.3,14.6,32.9,26.6,45.9
	c1.8,2,4.8,2.5,7.2,1.1l20.6-11.9c8.7,7.4,18.7,13.2,29.5,17v23.8c0,2.7,1.9,5.1,4.6,5.7c17.8,4,36,3.8,53,0c2.6-0.6,4.6-3,4.6-5.7
	v-23.8c10.8-3.8,20.8-9.6,29.5-17l20.6,11.9c2.3,1.4,5.4,0.9,7.2-1.1c12-13,21.2-28.6,26.6-45.9c0.8-2.6-0.3-5.4-2.6-6.8
	L488.4,349.8z M396.8,371.6c-21.4,0-38.8-17.4-38.8-38.8c0-21.4,17.4-38.8,38.8-38.8s38.8,17.4,38.8,38.8
	C435.6,354.2,418.3,371.6,396.8,371.6z M179.2,256c56.6,0,102.4-45.8,102.4-102.4S235.8,51.2,179.2,51.2S76.8,97,76.8,153.6
	S122.6,256,179.2,256z M340.2,437.2c-1.8-1-3.7-2.1-5.4-3.1l-6.3,3.7c-4.8,2.7-10.2,4.2-15.7,4.2c-8.7,0-17.1-3.7-23.1-10.1
	c-14.6-15.8-25.8-35.1-32.2-55.7c-4.4-14.2,1.5-29.1,14.3-36.6l6.3-3.7c-0.1-2.1-0.1-4.2,0-6.2l-6.3-3.7
	c-12.8-7.4-18.7-22.4-14.3-36.6c0.7-2.3,1.8-4.6,2.6-7c-3-0.2-6-1-9.1-1h-13.4c-17.8,8.2-37.5,12.8-58.3,12.8s-40.5-4.6-58.3-12.8
	h-13.4C48.1,281.6,0,329.8,0,389.1v33.3c0,21.2,17.2,38.4,38.4,38.4H320c8.1,0,15.6-2.6,21.8-6.8c-1-3-1.6-6.2-1.6-9.4V437.2z"/>
</svg>
