<?xml version="1.0" encoding="utf-8"?>
<!-- Generator: Adobe Illustrator 24.0.0, SVG Export Plug-In . SVG Version: 6.00 Build 0)  -->
<svg version="1.1" id="Layer_1" xmlns="http://www.w3.org/2000/svg" xmlns:xlink="http://www.w3.org/1999/xlink" x="0px" y="0px"
	 viewBox="0 0 512 512" style="enable-background:new 0 0 512 512;" xml:space="preserve">
<path d="M256,8C119,8,8,119,8,256s111,248,248,248s248-111,248-248S393,8,256,8z M256,104c48.6,0,88,39.4,88,88s-39.4,88-88,88
	s-88-39.4-88-88S207.4,104,256,104z M256,448c-58.7,0-111.3-26.6-146.5-68.2c18.8-35.4,55.6-59.8,98.5-59.8c2.4,0,4.8,0.4,7.1,1.1
	c13,4.2,26.6,6.9,40.9,6.9s28-2.7,40.9-6.9c2.3-0.7,4.7-1.1,7.1-1.1c42.9,0,79.7,24.4,98.5,59.8C367.3,421.4,314.7,448,256,448z"/>
</svg>
