<?xml version="1.0" encoding="utf-8"?>
<!-- Generator: Adobe Illustrator 24.0.0, SVG Export Plug-In . SVG Version: 6.00 Build 0)  -->
<svg version="1.1" id="Layer_1" xmlns="http://www.w3.org/2000/svg" xmlns:xlink="http://www.w3.org/1999/xlink" x="0px" y="0px"
	 viewBox="0 0 512 512" style="enable-background:new 0 0 512 512;" xml:space="preserve">
<path d="M357.4,289.2L256,390.6L154.6,289.2C86,295.3,32,352.2,32,422.4V464c0,26.5,21.5,48,48,48h352c26.5,0,48-21.5,48-48v-41.6
	C480,352.2,426,295.3,357.4,289.2z M64,192c27.3,0,51.8-11.5,69.2-29.7c15.1,53.9,64,93.7,122.8,93.7c70.7,0,128-57.3,128-128
	S326.7,0,256,0c-50.4,0-93.6,29.4-114.5,71.8C124.1,47.8,96,32,64,32c0,33.4,17.1,62.8,43.1,80C81.1,129.2,64,158.6,64,192z M208,96
	h96c17.7,0,32,14.3,32,32H176C176,110.3,190.3,96,208,96z"/>
</svg>
