<?xml version="1.0" encoding="utf-8"?>
<!-- Generator: Adobe Illustrator 24.0.0, SVG Export Plug-In . SVG Version: 6.00 Build 0)  -->
<svg version="1.1" id="Layer_1" xmlns="http://www.w3.org/2000/svg" xmlns:xlink="http://www.w3.org/1999/xlink" x="0px" y="0px"
	 viewBox="0 0 512 512" style="enable-background:new 0 0 512 512;" xml:space="preserve">
<path d="M507,417.7L289.8,249.8c39.8-14.1,68.6-51.6,68.6-96.2C358.4,97,312.6,51.2,256,51.2c-53.7,0-97.2,41.4-101.5,93.9
	L36.4,53.9c-5.6-4.3-13.6-3.4-18,2.2L2.7,76.3c-4.3,5.6-3.4,13.6,2.2,17.9L475.7,458c5.6,4.3,13.6,3.4,18-2.2l15.7-20.2
	C513.7,430.1,512.6,422,507,417.7L507,417.7z M76.8,389.1v33.3c0,21.2,17.2,38.4,38.4,38.4h280.2L165.9,283.4
	C115.4,292.2,76.8,336,76.8,389.1z"/>
</svg>
