<?xml version="1.0" encoding="utf-8"?>
<!-- Generator: Adobe Illustrator 24.0.0, SVG Export Plug-In . SVG Version: 6.00 Build 0)  -->
<svg version="1.1" id="Layer_1" xmlns="http://www.w3.org/2000/svg" xmlns:xlink="http://www.w3.org/1999/xlink" x="0px" y="0px"
	 viewBox="0 0 512 512" style="enable-background:new 0 0 512 512;" xml:space="preserve">
<path d="M256,256c70.7,0,128-57.3,128-128S326.7,0,256,0S128,57.3,128,128S185.3,256,256,256z M345.6,288h-16.7
	c-22.2,10.2-46.9,16-72.9,16s-50.6-5.8-72.9-16h-16.7C92.2,288,32,348.2,32,422.4V464c0,26.5,21.5,48,48,48h352
	c26.5,0,48-21.5,48-48v-41.6C480,348.2,419.8,288,345.6,288z"/>
</svg>
