<?xml version="1.0" encoding="utf-8"?>
<!-- Generator: Adobe Illustrator 24.0.0, SVG Export Plug-In . SVG Version: 6.00 Build 0)  -->
<svg version="1.1" id="Layer_1" xmlns="http://www.w3.org/2000/svg" xmlns:xlink="http://www.w3.org/1999/xlink" x="0px" y="0px"
	 viewBox="0 0 512 512" style="enable-background:new 0 0 512 512;" xml:space="preserve">
<path d="M96,224h13.5c24.7,56.5,80.9,96,146.5,96s121.8-39.5,146.5-96H416c8.8,0,16-7.2,16-16v-96c0-8.8-7.2-16-16-16h-13.5
	C377.8,39.5,321.6,0,256,0S134.2,39.5,109.5,96H96c-8.8,0-16,7.2-16,16v96C80,216.8,87.2,224,96,224z M136,136c0-22.1,21.5-40,48-40
	h144c26.5,0,48,17.9,48,40v24c0,53-43,96-96,96h-48c-53,0-96-43-96-96V136z M208,208l12-36l36-12l-36-12l-12-36l-12,36l-36,12l36,12
	L208,208z M359.6,321.4C329.7,340.7,294.2,352,256,352s-73.7-11.3-103.6-30.6C84.9,328.5,32,385,32,454.4v9.6c0,26.5,21.5,48,48,48
	h80v-64c0-17.7,14.3-32,32-32h128c17.7,0,32,14.3,32,32v64h80c26.5,0,48-21.5,48-48v-9.6C480,385,427.1,328.5,359.6,321.4z M304,448
	c-8.8,0-16,7.2-16,16s7.2,16,16,16s16-7.2,16-16S312.8,448,304,448z M208,448c-8.8,0-16,7.2-16,16v48h32v-48
	C224,455.2,216.8,448,208,448z"/>
</svg>
