<?xml version="1.0" encoding="utf-8"?>
<!-- Generator: Adobe Illustrator 24.0.0, SVG Export Plug-In . SVG Version: 6.00 Build 0)  -->
<svg version="1.1" id="Layer_1" xmlns="http://www.w3.org/2000/svg" xmlns:xlink="http://www.w3.org/1999/xlink" x="0px" y="0px"
	 viewBox="0 0 512 512" style="enable-background:new 0 0 512 512;" xml:space="preserve">
<path d="M256,104c-53,0-96,43-96,96s43,96,96,96s96-43,96-96S309,104,256,104z M256,248c-26.5,0-48-21.5-48-48s21.5-48,48-48
	s48,21.5,48,48S282.5,248,256,248z M256,8C119,8,8,119,8,256s111,248,248,248s248-111,248-248S393,8,256,8z M256,456
	c-49.7,0-95.1-18.3-130.1-48.4c14.9-23,40.4-38.6,69.6-39.5c20.8,6.4,40.6,9.6,60.5,9.6s39.7-3.1,60.5-9.6
	c29.2,1,54.7,16.5,69.6,39.5C351.1,437.7,305.7,456,256,456z M418.7,371.9c-24.4-31.4-62.1-51.9-105.1-51.9c-10.2,0-26,9.6-57.6,9.6
	c-31.5,0-47.4-9.6-57.6-9.6c-42.9,0-80.6,20.5-105.1,51.9C69.9,339.2,56,299.2,56,256c0-110.3,89.7-200,200-200s200,89.7,200,200
	C456,299.2,442.1,339.2,418.7,371.9z"/>
</svg>
