<?xml version="1.0" encoding="utf-8"?>
<!-- Generator: Adobe Illustrator 24.0.0, SVG Export Plug-In . SVG Version: 6.00 Build 0)  -->
<svg version="1.1" id="Layer_1" xmlns="http://www.w3.org/2000/svg" xmlns:xlink="http://www.w3.org/1999/xlink" x="0px" y="0px"
	 viewBox="0 0 512 512" style="enable-background:new 0 0 512 512;" xml:space="preserve">
<path d="M179.2,256c56.6,0,102.4-45.8,102.4-102.4S235.8,51.2,179.2,51.2S76.8,97,76.8,153.6S122.6,256,179.2,256z M256,307.2
	c0.1-8.6,2.3-16.9,6.5-24.4c-3.8-0.4-7.6-1.2-11.6-1.2h-13.4c-37,17.1-79.6,17.1-116.6,0h-13.4C48.1,281.6,0,329.7,0,389.1v33.3
	c0,21.2,17.2,38.4,38.4,38.4l0,0h224.7c-4.6-7.8-7.1-16.6-7.1-25.6V307.2z M486.4,281.6h-25.6v-64c0-35.3-28.7-64-64-64
	c-35.3,0-64,28.7-64,64v64h-25.6c-14.1,0-25.6,11.5-25.6,25.6v128c0,14.1,11.5,25.6,25.6,25.6h179.2c14.1,0,25.6-11.5,25.6-25.6
	v-128C512,293.1,500.5,281.6,486.4,281.6z M396.8,396.8c-14.1,0-25.6-11.5-25.6-25.6c0-14.1,11.5-25.6,25.6-25.6
	s25.6,11.5,25.6,25.6C422.4,385.3,410.9,396.8,396.8,396.8z M422.4,281.6h-51.2v-64c0-14.1,11.5-25.6,25.6-25.6s25.6,11.5,25.6,25.6
	V281.6z"/>
</svg>
