<?xml version="1.0" encoding="utf-8"?>
<!-- Generator: Adobe Illustrator 24.0.0, SVG Export Plug-In . SVG Version: 6.00 Build 0)  -->
<svg version="1.1" id="Layer_1" xmlns="http://www.w3.org/2000/svg" xmlns:xlink="http://www.w3.org/1999/xlink" x="0px" y="0px"
	 viewBox="0 0 512 512" style="enable-background:new 0 0 512 512;" xml:space="preserve">
<path d="M179.2,256c56.6,0,102.4-45.8,102.4-102.4S235.8,51.2,179.2,51.2S76.8,97,76.8,153.6S122.6,256,179.2,256z M250.9,281.6
	h-13.4c-17.8,8.2-37.5,12.8-58.3,12.8s-40.5-4.6-58.3-12.8h-13.4C48.1,281.6,0,329.8,0,389.1v33.3c0,21.2,17.2,38.4,38.4,38.4h219.9
	c-1.9-5.4-2.7-11.2-2.1-17l5.4-48.7l1-8.9l6.3-6.3l61.8-61.8C311.2,295.8,282.8,281.6,250.9,281.6z M287.1,397.8l-5.4,48.8
	c-0.9,8.2,6,15,14.1,14.1l48.7-5.4L454.8,345l-57.4-57.4L287.1,397.8z M506.4,266.3L476.1,236c-7.4-7.4-19.6-7.4-27,0l-30.2,30.2
	l-3.3,3.3l57.4,57.4l33.4-33.4C513.8,285.9,513.8,273.8,506.4,266.3z"/>
</svg>
