<?xml version="1.0" encoding="utf-8"?>
<!-- Generator: Adobe Illustrator 24.0.0, SVG Export Plug-In . SVG Version: 6.00 Build 0)  -->
<svg version="1.1" id="Layer_1" xmlns="http://www.w3.org/2000/svg" xmlns:xlink="http://www.w3.org/1999/xlink" x="0px" y="0px"
	 viewBox="0 0 512 512" style="enable-background:new 0 0 512 512;" xml:space="preserve">
<path d="M428.3,241.7c25.8-41.3,15.2-48.8-11.7-48.8h-27c-0.1,0-1.5-1.4-10.9,8c-11.2,5.6-37.9,6.3-37.9,8.7c0,4.5,70.3-3.1,88.1,0
	c9.5,1.5-1.5,20.4-4.4,32C424,246.1,426.9,243.9,428.3,241.7z M316.2,264.3c64-21.3,97.3-23.9,102-26.2c4.4-2.9-4.4-6.6-26.2-5.8
	c-51.7,2.2-137.6,37.1-172.6,53.9l-30.7-93.3h196.6c-2.7-28.2-152.9-22.6-337.9-22.6L-5,415.8C191.4,318.5,253.9,285.5,316.2,264.3
	L316.2,264.3z M62.7,96c253.3,53.7,330,65.7,332.1,85.2c36.4,0,45.9,0,52.4,6.6c21.1,19.7-14.6,67.7-14.6,67.7
	c-4.4,2.9-406.4,160.2-406.4,160.2h423.1L517,96H62.7z"/>
</svg>
