<?xml version="1.0" encoding="utf-8"?>
<!-- Generator: Adobe Illustrator 24.0.0, SVG Export Plug-In . SVG Version: 6.00 Build 0)  -->
<svg version="1.1" id="Layer_1" xmlns="http://www.w3.org/2000/svg" xmlns:xlink="http://www.w3.org/1999/xlink" x="0px" y="0px"
	 viewBox="0 0 512 512" style="enable-background:new 0 0 512 512;" xml:space="preserve">
<path d="M255.9,15.2c0.8,4.7,16.1,94.5,16.1,128.8c0,52.3-27.8,89.6-68.9,104.6L216,486.7c0.7,13.7-10.2,25.3-24,25.3h-64
	c-13.7,0-24.7-11.5-24-25.3l12.9-238.1C75.7,233.6,48,196.2,48,144c0-34.4,15.3-124.1,16.1-128.8c3.2-20.3,45.3-20.6,47.9,1.1v141.2
	c1.3,3.4,15.1,3.2,16,0c1.4-25.3,7.9-139.2,8-141.8c3.3-20.8,44.7-20.8,47.9,0c0.2,2.7,6.6,116.5,8,141.8c0.9,3.2,14.8,3.4,16,0
	V16.3C210.5-5.3,252.7-5.1,255.9,15.2z M375.1,300.9l-15,185.1c-1.2,14,9.9,26,23.9,26h56c13.3,0,24-10.7,24-24V24
	c0-13.2-10.7-24-24-24C357.5,0,218.6,178.5,375.1,300.9L375.1,300.9z"/>
</svg>
