<?xml version="1.0" encoding="utf-8"?>
<!-- Generator: Adobe Illustrator 24.0.0, SVG Export Plug-In . SVG Version: 6.00 Build 0)  -->
<svg version="1.1" id="Layer_1" xmlns="http://www.w3.org/2000/svg" xmlns:xlink="http://www.w3.org/1999/xlink" x="0px" y="0px"
	 viewBox="0 0 512 512" style="enable-background:new 0 0 512 512;" xml:space="preserve">
<path d="M469.3,239.9L416,160V32c0-17.7-14.3-32-32-32h-32c-4.7,0-9.4,1.4-13.3,4l-25,16.7c-34.9,23.3-80.5,23.3-115.4,0L173.3,4
	c-3.9-2.6-8.6-4-13.3-4h-32c-17.7,0-32,14.3-32,32v128l-53.3,79.9c-7,10.5-10.7,22.9-10.7,35.5V480c0,17.7,14.3,32,32,32h160V288
	c0-3.4,0.6-6.9,1.6-10.1l13.5-40.5L182.2,66.6c22.5,12.8,47.9,19.5,73.8,19.7c25.9-0.1,51.3-6.9,73.8-19.7L256,288v224h192
	c17.7,0,32-14.3,32-32V275.4C480,262.7,476.3,250.4,469.3,239.9z M163.3,371.3l-48,48c-6.4,6.1-16.5,6-22.6-0.4c-6-6.2-6-16,0-22.2
	l48-48c6.4-6.1,16.5-6,22.6,0.4C169.3,355.3,169.3,365.1,163.3,371.3z M419.3,419.3c-6.2,6.2-16.4,6.3-22.6,0c0,0,0,0,0,0l-48-48
	c-6.1-6.4-6-16.5,0.4-22.6c6.2-6,16-6,22.2,0l48,48C425.6,402.9,425.6,413.1,419.3,419.3C419.3,419.3,419.3,419.3,419.3,419.3z"/>
</svg>
