<?xml version="1.0" encoding="utf-8"?>
<!-- Generator: Adobe Illustrator 24.0.0, SVG Export Plug-In . SVG Version: 6.00 Build 0)  -->
<svg version="1.1" id="Layer_1" xmlns="http://www.w3.org/2000/svg" xmlns:xlink="http://www.w3.org/1999/xlink" x="0px" y="0px"
	 viewBox="0 0 512 512" style="enable-background:new 0 0 512 512;" xml:space="preserve">
<path d="M469.3,239.9L416,160V32c0-17.7-14.3-32-32-32h-32c-4.7,0-9.4,1.4-13.3,4l-25,16.7c-34.9,23.3-80.5,23.3-115.4,0L173.3,4
	c-3.9-2.6-8.6-4-13.3-4h-32c-17.7,0-32,14.3-32,32v128l-53.3,79.9c-7,10.5-10.7,22.9-10.7,35.5V480c0,17.7,14.3,32,32,32h160V288
	c0-3.4,0.6-6.9,1.6-10.1l13.5-40.5L182.2,66.6c22.5,12.8,47.9,19.5,73.8,19.7c25.9-0.1,51.3-6.9,73.8-19.7L256,288v224h192
	c17.7,0,32-14.3,32-32V275.4C480,262.7,476.3,250.4,469.3,239.9z M95.5,272.5c-4.6-4.7-4.6-12.3,0.2-17c4.7-4.6,12.2-4.6,16.8,0
	L128,271l15.5-15.5c4.7-4.7,12.3-4.6,17,0.1c4.6,4.7,4.6,12.2,0,16.8L145,288l15.5,15.5c4.6,4.7,4.6,12.3-0.2,17
	c-4.7,4.6-12.2,4.6-16.8,0L128,305l-15.5,15.5c-4.7,4.7-12.3,4.6-17-0.1c-4.6-4.7-4.6-12.2,0-16.8L111,288L95.5,272.5z M128,456
	c-22.1,0-40-17.9-40-40s17.9-40,40-40s40,17.9,40,40S150.1,456,128,456z M391.2,335.8l-48.5,0.2c-3.7,0-6.7-3-6.7-6.6c0,0,0,0,0-0.1
	l0.2-48.6c0.1-13.8,11.4-24.9,25.2-24.7c0.7,0,1.3,0,2,0.1c12.8,1.2,22.1,12.6,22.1,25.4l0,5.1l5.1,0c12.8,0,24.2,9.3,25.4,22.1
	c1.2,13.7-8.9,25.8-22.6,27.1C392.6,335.7,391.9,335.8,391.2,335.8z"/>
</svg>
