<?xml version="1.0" encoding="utf-8"?>
<!-- Generator: Adobe Illustrator 24.0.0, SVG Export Plug-In . SVG Version: 6.00 Build 0)  -->
<svg version="1.1" id="Layer_1" xmlns="http://www.w3.org/2000/svg" xmlns:xlink="http://www.w3.org/1999/xlink" x="0px" y="0px"
	 viewBox="0 0 512 512" style="enable-background:new 0 0 512 512;" xml:space="preserve">
<path d="M432,32H80c-26.5,0-48,21.5-48,48v352c0,26.5,21.5,48,48,48h352c26.5,0,48-21.5,48-48V80C480,53.5,458.5,32,432,32z
	 M312.7,381.2c-42.4,46.2-120,46.6-162.4,0c-68-73.6-19.8-196.1,81.2-196.1c13.3,0,26.6,2.1,39.1,6.7c-4.3,8.4-7.3,17.6-8.4,27.1
	c-9.7-4.1-20.2-6-30.7-6c-48.8,0-84.6,41.7-84.6,88.9c0,43,28.5,78.7,69.5,85.9c61.5-24,72.9-117.6,72.9-175c0-7.3,0-14.8-0.6-22.1
	c-11.2-32.9-26.6-64.6-44.2-94.5c27.1,18.3,41.9,62.5,44.2,94.1v0.4c7.7,22.5,11.8,46.2,11.8,70c0,54.1-21.9,99-68.3,128.2l-2.4,0.2
	c50,1,86.2-38.6,86.2-87.2c0-12.2-2.1-24.3-6.9-35.7c9.5-1.9,18.5-5.6,26.4-10.5C350.8,292.2,348.1,342.9,312.7,381.2L312.7,381.2z
	 M341,233.7c-13.3,0-25.1-7.1-34.4-16.1c21.9-12,49.6-30.7,62.3-53c1.5-3,4.1-8.6,4.5-12c-12.5,27.9-44.2,49.8-73.9,56.7
	c-4.7-7.3-7.5-15.5-7.5-24.3c0-10.3,5.2-24.1,12.9-31.6c21.6-20.5,53-8.5,72.4-50C409.8,149.6,390.4,233.7,341,233.7L341,233.7z"/>
</svg>
