<?xml version="1.0" encoding="utf-8"?>
<!-- Generator: Adobe Illustrator 24.0.0, SVG Export Plug-In . SVG Version: 6.00 Build 0)  -->
<svg version="1.1" id="Layer_1" xmlns="http://www.w3.org/2000/svg" xmlns:xlink="http://www.w3.org/1999/xlink" x="0px" y="0px"
	 viewBox="0 0 512 512" style="enable-background:new 0 0 512 512;" xml:space="preserve">
<path d="M308.2,150.5v0.7C290.3,98.6,265.6,47.8,237.4,0C280.7,29.2,304.4,100,308.2,150.5z M340.9,272.2c7.6,18.2,11,37.5,11,57
	c0,77.7-57.8,141-137.8,139.4l3.8-0.3c74.2-46.7,109.3-118.6,109.3-205.1c0-38.1-6.5-75.9-18.9-112c1,11.7,1,23.7,1,35.4
	c0,91.8-18.1,241.6-116.6,280C127,455.2,81.4,398,81.4,329.2c0-75.6,57.4-142.3,135.4-142.3c16.8,0,33.7,3.1,49.1,9.6
	c1.7-15.1,6.5-29.9,13.4-43.3c-19.9-7.2-41.2-10.7-62.5-10.7c-161.5,0-238.7,195.9-129.9,313.7c67.9,74.6,192,73.9,259.8,0
	c56.6-61.3,60.9-142.4,36.4-201C370.4,263.2,356,269.1,340.9,272.2L340.9,272.2z M450.1,11.7c-31,66.5-81.3,47.2-115.8,80.1
	c-12.4,12-20.6,34-20.6,50.5c0,14.1,4.5,27.1,12,38.8c47.4-11,98.3-46,118.2-90.7c-0.7,5.5-4.8,14.4-7.2,19.2
	c-20.3,35.7-64.6,65.6-99.7,84.9c14.8,14.4,33.7,25.8,55,25.8C471,220.3,502.1,85.7,450.1,11.7L450.1,11.7z"/>
</svg>
