<?xml version="1.0" encoding="utf-8"?>
<!-- Generator: Adobe Illustrator 24.0.0, SVG Export Plug-In . SVG Version: 6.00 Build 0)  -->
<svg version="1.1" id="Layer_1" xmlns="http://www.w3.org/2000/svg" xmlns:xlink="http://www.w3.org/1999/xlink" x="0px" y="0px"
	 viewBox="0 0 512 512" style="enable-background:new 0 0 512 512;" xml:space="preserve">
<path d="M493.7,186.1L325.5,18.3c-3.1-3.1-8.2-3.1-11.3,0l-34,33.9c-3.1,3.1-3.1,8.2,0,11.3l11.2,11.1L49,316.5
	c-38.8,38.7-45.1,102-9.4,143.5c20.6,24,49.5,36,78.4,35.9c26.4,0,52.8-10,72.9-30.1l246.3-245.7l11.2,11.1c3.1,3.1,8.2,3.1,11.3,0
	l34-33.9C496.8,194.3,496.8,189.2,493.7,186.1L493.7,186.1z M334,256H177l148-147.7l78.5,78.3L334,256z"/>
</svg>
