<?xml version="1.0" encoding="utf-8"?>
<!-- Generator: Adobe Illustrator 24.0.0, SVG Export Plug-In . SVG Version: 6.00 Build 0)  -->
<svg version="1.1" id="Layer_1" xmlns="http://www.w3.org/2000/svg" xmlns:xlink="http://www.w3.org/1999/xlink" x="0px" y="0px"
	 viewBox="0 0 512 512" style="enable-background:new 0 0 512 512;" xml:space="preserve">
<path d="M57.6,102.4h19.2v192c0,35.3,28.7,64,64,64s64-28.7,64-64v-192H224c3.5,0,6.4-2.9,6.4-6.4V57.6c0-3.5-2.9-6.4-6.4-6.4H57.6
	c-3.5,0-6.4,2.9-6.4,6.4V96C51.2,99.5,54.1,102.4,57.6,102.4z M115.2,102.4h51.2v76.8h-51.2V102.4z M499.2,409.6H12.8
	c-7,0-12.8,5.8-12.8,12.8V448c0,7,5.8,12.8,12.8,12.8h486.4c7,0,12.8-5.8,12.8-12.8v-25.6C512,415.4,506.2,409.6,499.2,409.6z
	 M288,102.4h19.2v192c0,35.3,28.7,64,64,64s64-28.7,64-64v-192h19.2c3.5,0,6.4-2.9,6.4-6.4V57.6c0-3.5-2.9-6.4-6.4-6.4H288
	c-3.5,0-6.4,2.9-6.4,6.4V96C281.6,99.5,284.5,102.4,288,102.4z M345.6,102.4h51.2v76.8h-51.2V102.4z"/>
</svg>
