<?xml version="1.0" encoding="utf-8"?>
<!-- Generator: Adobe Illustrator 24.0.0, SVG Export Plug-In . SVG Version: 6.00 Build 0)  -->
<svg version="1.1" id="Layer_1" xmlns="http://www.w3.org/2000/svg" xmlns:xlink="http://www.w3.org/1999/xlink" x="0px" y="0px"
	 viewBox="0 0 512 512" style="enable-background:new 0 0 512 512;" xml:space="preserve">
<path d="M507.1,417.7l-44-34c12.3-1.1,23.4-11,23.4-24.9V153.2c0-20.4-23.3-32.3-40.3-20.6L358.4,193v109.8L332.8,283V140.6
	c0-21.1-17.1-38.2-38.2-38.2H99.1L36.4,53.9c-5.6-4.3-13.6-3.4-18,2.2L2.7,76.3C-1.6,81.9-0.6,89.9,5,94.2l29.2,22.6l298.6,230.9
	l142.8,110.4c5.6,4.3,13.6,3.4,18-2.2l15.7-20.2C513.7,430.1,512.7,422,507.1,417.7L507.1,417.7z M25.6,371.4
	c0,21.1,17.1,38.2,38.2,38.2h230.7c9,0,17.1-3.2,23.7-8.4L25.6,175V371.4z"/>
</svg>
