<?xml version="1.0" encoding="utf-8"?>
<!-- Generator: Adobe Illustrator 24.0.0, SVG Export Plug-In . SVG Version: 6.00 Build 0)  -->
<svg version="1.1" id="Layer_1" xmlns="http://www.w3.org/2000/svg" xmlns:xlink="http://www.w3.org/1999/xlink" x="0px" y="0px"
	 viewBox="0 0 512 512" style="enable-background:new 0 0 512 512;" xml:space="preserve">
<path d="M506.3,371.8l-71.1-39v-51.2l44.1-14.2c9.4-4.7,9.4-18.2,0-22.9L384,204.8v-51.2l21.8-13c6.2-6.2,4.5-16.6-3.3-20.5
	L256,51.2l-146.5,68.9c-7.8,3.9-9.5,14.3-3.3,20.5l21.8,13v51.2l-95.3,39.8c-9.4,4.7-9.4,18.2,0,22.9l44.1,14.2v51.2l-71.1,39
	c-4.3,2.9-6.2,7.7-5.6,12.2c0.5,4,2.9,7.8,7,9.9l44.1,15.7V448c0,7.1,5.7,12.8,12.8,12.8h25.6c7.1,0,12.8-5.7,12.8-12.8v-38.4h128
	V448c0,7.1,5.7,12.8,12.8,12.8h25.6c7.1,0,12.8-5.7,12.8-12.8v-38.4h128V448c0,7.1,5.7,12.8,12.8,12.8H448c7.1,0,12.8-5.7,12.8-12.8
	v-38.4l44.1-15.7c4.1-2.1,6.5-5.9,7-9.9C512.5,379.5,510.6,374.7,506.3,371.8z M179.2,153.6h153.6v51.2H179.2V153.6z M128,332.8
	v-51.2h256v51.2H128z"/>
</svg>
