<?xml version="1.0" encoding="utf-8"?>
<!-- Generator: Adobe Illustrator 24.0.0, SVG Export Plug-In . SVG Version: 6.00 Build 0)  -->
<svg version="1.1" id="Layer_1" xmlns="http://www.w3.org/2000/svg" xmlns:xlink="http://www.w3.org/1999/xlink" x="0px" y="0px"
	 viewBox="0 0 512 512" style="enable-background:new 0 0 512 512;" xml:space="preserve">
<path d="M435.2,32H76.8C52.1,32,32,52.1,32,76.8v358.4c0,24.7,20.1,44.8,44.8,44.8h358.4c24.7,0,44.8-20.1,44.8-44.8V76.8
	C480,52.1,459.9,32,435.2,32L435.2,32z M409,180.8c-1.4,31.5-23.4,74.7-66,129.4c-44,57.2-81.3,85.8-111.7,85.8
	c-18.9,0-34.8-17.4-47.9-52.3c-25.5-93.3-36.4-148-57.4-148c-2.4,0-10.9,5.1-25.4,15.2l-15.2-19.6c37.3-32.8,72.9-69.2,95.2-71.2
	c25.2-2.4,40.7,14.8,46.5,51.7c20.7,131.2,29.9,151,67.6,91.6c13.5-21.4,20.8-37.7,21.8-48.9c3.5-33.2-25.9-30.9-45.8-22.4
	c15.9-52.1,46.3-77.4,91.2-76C395.2,117,410.9,138.6,409,180.8L409,180.8z"/>
</svg>
