<?xml version="1.0" encoding="utf-8"?>
<!-- Generator: Adobe Illustrator 24.0.0, SVG Export Plug-In . SVG Version: 6.00 Build 0)  -->
<svg version="1.1" id="Layer_1" xmlns="http://www.w3.org/2000/svg" xmlns:xlink="http://www.w3.org/1999/xlink" x="0px" y="0px"
	 viewBox="0 0 512 512" style="enable-background:new 0 0 512 512;" xml:space="preserve">
<path d="M432,32H80c-26.5,0-48,21.5-48,48v352c0,26.5,21.5,48,48,48h352c26.5,0,48-21.5,48-48V80C480,53.5,458.5,32,432,32z
	 M415.8,181.6c-1.4,31.1-23.2,73.8-65.3,127.9c-43.5,56.5-80.3,84.8-110.4,84.8c-18.7,0-34.4-17.2-47.3-51.6
	c-25.2-92.3-35.9-146.4-56.7-146.4c-2.4,0-10.8,5-25.1,15.1L96,192c36.9-32.4,72.1-68.4,94.1-70.4c24.9-2.4,40.2,14.6,46,51.1
	c20.5,129.6,29.6,149.2,66.8,90.5c13.4-21.2,20.6-37.2,21.5-48.3c3.4-32.8-25.6-30.6-45.2-22.2c15.7-51.5,45.8-76.5,90.1-75.1
	C402.2,118.6,417.7,140,415.8,181.6L415.8,181.6z"/>
</svg>
