<?xml version="1.0" encoding="utf-8"?>
<!-- Generator: Adobe Illustrator 24.0.0, SVG Export Plug-In . SVG Version: 6.00 Build 0)  -->
<svg version="1.1" id="Layer_1" xmlns="http://www.w3.org/2000/svg" xmlns:xlink="http://www.w3.org/1999/xlink" x="0px" y="0px"
	 viewBox="0 0 512 512" style="enable-background:new 0 0 512 512;" xml:space="preserve">
<path d="M448,254.7v52.1c-18.4,4.2-36.9,6.1-52.1,6.1c-36.9,77.4-103,143.8-125.1,156.2c-14,7.9-27.1,8.4-42.7-0.8
	C201,452,98.2,367.7,64,102.7h74.5c18.7,159.1,64.5,240.7,114.8,301.8c27.9-27.9,54.8-65.1,75.6-106.9
	c-49.8-25.3-80.1-80.9-80.1-145.6c0-65.6,37.7-115.1,102.2-115.1c114.9,0,106.2,127.9,81.6,181.5c0,0-46.4,9.2-63.5-20.5
	c3.4-11.3,8.2-30.8,8.2-48.5c0-31.3-11.3-46.6-28.4-46.6c-18.2,0-30.8,17.1-30.8,50C318.2,232,377.5,271.5,448,254.7L448,254.7z"/>
</svg>
