<?xml version="1.0" encoding="utf-8"?>
<!-- Generator: Adobe Illustrator 24.0.0, SVG Export Plug-In . SVG Version: 6.00 Build 0)  -->
<svg version="1.1" id="Layer_1" xmlns="http://www.w3.org/2000/svg" xmlns:xlink="http://www.w3.org/1999/xlink" x="0px" y="0px"
	 viewBox="0 0 512 512" style="enable-background:new 0 0 512 512;" xml:space="preserve">
<path d="M91.2,233.3H73.9c-12.6,0-22.7,10.2-22.7,22.7c0,12.6,10.2,22.7,22.7,22.7h17.3c40.6,0,60.9,49,32.2,77.7l-12.2,12.2
	c-9.2,8.6-9.8,23-1.3,32.2c8.5,9.2,23,9.8,32.2,1.3c0.4-0.4,0.9-0.8,1.3-1.3l12.2-12.2c28.6-28.6,77.7-8.4,77.7,32.2V438
	c0,12.6,10.2,22.7,22.8,22.7c12.6,0,22.7-10.2,22.7-22.7v-17.2c0-21.3,13.6-36.7,30.6-42.7L113.7,226.9
	C106.9,231,99.1,233.2,91.2,233.3z M493.6,455.9l15.7-20.2c4.3-5.6,3.4-13.6-2.2-18L376.5,316.8c3.4-20.3,19.9-38,44.3-38H438
	c12.6,0,22.7-10.2,22.7-22.7c0-12.6-10.2-22.7-22.7-22.7h-17.2c-40.6,0-60.9-49-32.2-77.7l12.2-12.2c8.6-9.2,8-23.6-1.3-32.2
	c-8.7-8.1-22.2-8.1-30.9,0l-12.2,12.2c-28.6,28.6-77.7,8.4-77.7-32.2V74c-0.1-12.6-10.2-22.8-22.8-22.8c-12.6,0-22.7,10.2-22.7,22.7
	v17.3c0,40.6-49,60.9-77.7,32.2l-12.2-12.2c-8.9-8.9-23.5-8.5-32.4,0.4L36.4,53.9c-5.6-4.3-13.6-3.4-18,2.2L2.7,76.4
	C-1.6,82-0.7,90,4.9,94.4l470.8,363.8C481.2,462.5,489.3,461.5,493.6,455.9z M268.3,233.2L218,194.3c3.9-1.4,8.2-2.2,12.3-2.3
	c21.2,0,38.4,17.2,38.4,38.4C268.8,231.4,268.4,232.2,268.3,233.2z"/>
</svg>
