<?xml version="1.0" encoding="utf-8"?>
<!-- Generator: Adobe Illustrator 24.0.0, SVG Export Plug-In . SVG Version: 6.00 Build 0)  -->
<svg version="1.1" id="Layer_1" xmlns="http://www.w3.org/2000/svg" xmlns:xlink="http://www.w3.org/1999/xlink" x="0px" y="0px"
	 viewBox="0 0 512 512" style="enable-background:new 0 0 512 512;" xml:space="preserve">
<path d="M499.2,332.8h-9.7c-22.8,0-34.2-27.6-18.1-43.7l6.9-6.9c5-5,5-13.1,0-18.1c-5-5-13.1-5-18.1,0l-6.9,6.9
	c-16.1,16.1-43.7,4.7-43.7-18.1v-9.7c0-7.1-5.7-12.8-12.8-12.8c-7.1,0-12.8,5.7-12.8,12.8v9.7c0,22.8-27.6,34.2-43.7,18.1l-6.9-6.9
	c-5-5-13.1-5-18.1,0c-5,5-5,13.1,0,18.1l6.9,6.9c16.1,16.1,4.7,43.7-18.1,43.7h-9.7c-7.1,0-12.8,5.7-12.8,12.8s5.7,12.8,12.8,12.8
	h9.7c22.8,0,34.2,27.6,18.1,43.7l-6.9,6.9c-5,5-5,13.1,0,18.1c5,5,13.1,5,18.1,0l6.9-6.9c16.1-16.1,43.7-4.7,43.7,18.1v9.7
	c0,7.1,5.7,12.8,12.8,12.8c7.1,0,12.8-5.7,12.8-12.8v-9.7c0-22.8,27.6-34.2,43.7-18.1l6.9,6.9c5,5,13.1,5,18.1,0c5-5,5-13.1,0-18.1
	l-6.9-6.9c-16.1-16.1-4.7-43.7,18.1-43.7h9.7c7.1,0,12.8-5.7,12.8-12.8C512,338.5,506.3,332.8,499.2,332.8z M384,358.4
	c-14.1,0-25.6-11.5-25.6-25.6s11.5-25.6,25.6-25.6s25.6,11.5,25.6,25.6S398.1,358.4,384,358.4z M277.2,221.9h12.9
	c9.4,0,17.1-7.6,17.1-17.1c0-9.4-7.6-17.1-17.1-17.1h-12.9c-30.4,0-45.6-36.8-24.1-58.3l9.1-9.2c6.6-6.7,6.6-17.5-0.1-24.1
	c-6.7-6.6-17.4-6.6-24,0l-9.1,9.1c-21.5,21.5-58.3,6.3-58.3-24.1V68.3c0-9.4-7.6-17.1-17.1-17.1c-9.4,0-17.1,7.6-17.1,17.1v12.9
	c0,30.4-36.8,45.6-58.3,24.1l-9.1-9.1c-6.7-6.6-17.5-6.6-24.1,0.1c-6.6,6.7-6.6,17.4,0,24.1l9.1,9.2c21.5,21.5,6.3,58.3-24.1,58.3
	H17.1c-9.4,0-17.1,7.6-17.1,17.1s7.6,17.1,17.1,17.1H30c30.4,0,45.6,36.8,24.1,58.3l-9.1,9.1c-6.7,6.7-6.7,17.5,0,24.1
	c6.7,6.7,17.5,6.7,24.1,0l9.1-9.1c21.5-21.5,58.3-6.3,58.3,24.1v12.9c0,9.4,7.6,17.1,17.1,17.1s17.1-7.6,17.1-17.1v-12.9
	c0-30.4,36.8-45.6,58.3-24.1l9.1,9.1c6.7,6.7,17.5,6.7,24.1,0c6.7-6.7,6.7-17.5,0-24.1l-9.1-9.1
	C231.6,258.6,246.8,221.9,277.2,221.9z M128,204.8c-14.1,0-25.6-11.5-25.6-25.6s11.5-25.6,25.6-25.6s25.6,11.5,25.6,25.6
	S142.1,204.8,128,204.8z M192,230.4c-7.1,0-12.8-5.7-12.8-12.8c0-7.1,5.7-12.8,12.8-12.8s12.8,5.7,12.8,12.8
	C204.8,224.7,199.1,230.4,192,230.4z"/>
</svg>
