<?xml version="1.0" encoding="utf-8"?>
<!-- Generator: Adobe Illustrator 24.0.0, SVG Export Plug-In . SVG Version: 6.00 Build 0)  -->
<svg version="1.1" id="Layer_1" xmlns="http://www.w3.org/2000/svg" xmlns:xlink="http://www.w3.org/1999/xlink" x="0px" y="0px"
	 viewBox="0 0 512 512" style="enable-background:new 0 0 512 512;" xml:space="preserve">
<path d="M500.3,124.5c3.5-11.9,0-20.6-16.9-20.6h-56c-14.3,0-20.8,7.5-24.3,15.9c0,0-28.5,69.5-68.8,114.5c-13,13-19,17.2-26.1,17.2
	c-3.5,0-8.9-4.2-8.9-16.1V124.5c0-14.3-4-20.6-15.8-20.6h-88c-8.9,0-14.3,6.7-14.3,12.8c0,13.5,20.2,16.6,22.2,54.7v82.5
	c0,18.1-3.2,21.4-10.4,21.4c-19,0-65.2-69.8-92.6-149.6c-5.5-15.5-10.9-21.8-25.3-21.8h-56c-16,0-19.2,7.5-19.2,15.9
	c0,14.8,19,88.5,88.5,185.8c46.3,66.4,111.5,102.5,170.8,102.5c35.6,0,40-8,40-21.8c0-63.5-3.2-69.5,14.6-69.5
	c8.3,0,22.5,4.2,55.8,36.2c38,38,44.3,55,65.6,55h56c16,0,24-8,19.4-23.8c-10.6-33.2-82.6-101.4-85.8-106c-8.3-10.6-5.9-15.4,0-24.9
	C424.9,253.3,493.2,157.2,500.3,124.5L500.3,124.5z"/>
</svg>
