<?xml version="1.0" encoding="utf-8"?>
<!-- Generator: Adobe Illustrator 24.0.0, SVG Export Plug-In . SVG Version: 6.00 Build 0)  -->
<svg version="1.1" id="Layer_1" xmlns="http://www.w3.org/2000/svg" xmlns:xlink="http://www.w3.org/1999/xlink" x="0px" y="0px"
	 viewBox="0 0 512 512" style="enable-background:new 0 0 512 512;" xml:space="preserve">
<path d="M83.9,336c-27.3,0-37.1-24.3-37.1-24.3L2.1,222.5c0,0-8.3-14.5,8.3-14.5h26.2c8.3,0,10.6,7,15,14.5L81,282.1
	c0,0,4.2,10.5,16.9,10.5s16.9-10.5,16.9-10.5l29.4-59.6c4.5-7.6,6.7-14.5,15-14.5h26.2c16.6,0,8.3,14.5,8.3,14.5l-44.6,89.2
	c0,0-9.8,24.3-37.1,24.3H83.9z M399.9,336c-27.3,0-37.1-24.3-37.1-24.3l-44.7-89.2c0,0-8.3-14.5,8.3-14.5h26.2c8.3,0,10.6,7,15,14.5
	l29.4,59.6c0,0,4.2,10.5,16.9,10.5s16.9-10.5,16.9-10.5l29.4-59.6c4.5-7.6,6.7-14.5,15-14.5h26.3c16.6,0,8.3,14.5,8.3,14.5
	l-44.7,89.2c0,0-9.8,24.3-37.1,24.3H399.9L399.9,336z M270.1,208c27.3,0,37.1,24.3,37.1,24.3l44.7,89.2c0,0,8.3,14.5-8.3,14.5h-26.2
	c-8.3,0-10.6-7-15-14.5L273,261.9c0,0-4.2-10.5-16.9-10.5c-12.7,0-16.9,10.5-16.9,10.5l-29.4,59.6c-4.5,7.5-6.7,14.5-15,14.5h-26.3
	c-16.6,0-8.3-14.5-8.3-14.5l44.7-89.2c0,0,9.8-24.3,37.1-24.3H270.1L270.1,208z"/>
</svg>
