<?xml version="1.0" encoding="utf-8"?>
<!-- Generator: Adobe Illustrator 24.0.0, SVG Export Plug-In . SVG Version: 6.00 Build 0)  -->
<svg version="1.1" id="Layer_1" xmlns="http://www.w3.org/2000/svg" xmlns:xlink="http://www.w3.org/1999/xlink" x="0px" y="0px"
	 viewBox="0 0 512 512" style="enable-background:new 0 0 512 512;" xml:space="preserve">
<path d="M396.8,156.8c-63.6,0-115.2,51.6-115.2,115.2c0,22.8,6.8,45.1,19.4,64h-90c35.3-52.9,21.1-124.4-31.8-159.8
	S54.8,155.1,19.4,208S-1.7,332.4,51.2,367.8c18.9,12.7,41.2,19.4,64,19.4h281.6c63.6,0,115.2-51.6,115.2-115.2
	S460.4,156.8,396.8,156.8z M51.2,272c0-35.3,28.7-64,64-64s64,28.7,64,64s-28.7,64-64,64S51.2,307.3,51.2,272z M396.8,336
	c-35.3,0-64-28.7-64-64s28.7-64,64-64s64,28.7,64,64S432.1,336,396.8,336z"/>
</svg>
