<?xml version="1.0" encoding="utf-8"?>
<!-- Generator: Adobe Illustrator 24.0.0, SVG Export Plug-In . SVG Version: 6.00 Build 0)  -->
<svg version="1.1" id="Layer_1" xmlns="http://www.w3.org/2000/svg" xmlns:xlink="http://www.w3.org/1999/xlink" x="0px" y="0px"
	 viewBox="0 0 512 512" style="enable-background:new 0 0 512 512;" xml:space="preserve">
<path d="M191.1,91.6l-79.1,79.1H21.3C9.5,170.7,0,180.2,0,192v128c0,11.8,9.5,21.3,21.3,21.3h90.7l79.1,79.1
	c13.4,13.4,36.4,4,36.4-15.1V106.7C227.6,87.6,204.5,78.3,191.1,91.6z M398.5,46.2c-9.9-6.5-23.3-3.8-29.8,6.2
	c-6.5,9.9-3.8,23.3,6.2,29.8C433.8,120.8,469,185.8,469,256s-35.2,135.2-94.1,173.8c-9.9,6.5-12.7,19.9-6.2,29.8
	c6.3,9.5,19.5,12.9,29.8,6.2C469.6,419.2,512,340.7,512,256S469.6,92.8,398.5,46.2z M426.7,256c0-56.5-28.5-108.4-76.2-138.9
	c-9.9-6.3-23.1-3.4-29.4,6.6c-6.3,10-3.4,23.3,6.6,29.7C362.9,176,384,214.3,384,256s-21.1,80-56.4,102.6
	c-9.9,6.3-12.9,19.6-6.6,29.7c5.8,9.2,18.8,13.5,29.4,6.6C398.2,364.4,426.7,312.5,426.7,256z M300.6,187.7
	c-10.3-5.6-23.3-1.9-29,8.4c-5.7,10.3-1.9,23.3,8.4,29c11.5,6.3,18.6,18.2,18.6,30.9c0,12.8-7.1,24.6-18.6,30.9
	c-10.3,5.7-14.1,18.7-8.4,29c5.7,10.4,18.7,14,29,8.4c25.1-13.8,40.7-40,40.7-68.3S325.8,201.5,300.6,187.7L300.6,187.7z"/>
</svg>
