<?xml version="1.0" encoding="utf-8"?>
<!-- Generator: Adobe Illustrator 24.0.0, SVG Export Plug-In . SVG Version: 6.00 Build 0)  -->
<svg version="1.1" id="Layer_1" xmlns="http://www.w3.org/2000/svg" xmlns:xlink="http://www.w3.org/1999/xlink" x="0px" y="0px"
	 viewBox="0 0 512 512" style="enable-background:new 0 0 512 512;" xml:space="preserve">
<path d="M279,72l-89,89H88c-13.3,0-24,10.7-24,24v144c0,13.3,10.7,24,24,24h102.1l89,89c15,15,41,4.5,41-17V89
	C320,67.5,294,57,279,72z M402.2,180.1c-11.6-6.3-26.2-2.2-32.6,9.4c-6.4,11.6-2.2,26.2,9.5,32.6C392,229.3,400,242.6,400,257
	s-8,27.7-20.9,34.8c-11.6,6.4-15.8,21-9.5,32.6c6.4,11.7,21,15.8,32.6,9.5c28.2-15.5,45.8-45,45.8-76.9S430.5,195.7,402.2,180.1z"/>
</svg>
