<?xml version="1.0" encoding="utf-8"?>
<!-- Generator: Adobe Illustrator 24.0.0, SVG Export Plug-In . SVG Version: 6.00 Build 0)  -->
<svg version="1.1" id="Layer_1" xmlns="http://www.w3.org/2000/svg" xmlns:xlink="http://www.w3.org/1999/xlink" x="0px" y="0px"
	 viewBox="0 0 512 512" style="enable-background:new 0 0 512 512;" xml:space="preserve">
<path d="M486.4,307.2h-51.2v51.2h17.9c4.2,0,7.7,2.9,7.7,6.4v12.8c0,3.5-3.4,6.4-7.7,6.4H58.9c-4.2,0-7.7-2.9-7.7-6.4v-12.8
	c0-3.5,3.4-6.4,7.7-6.4h17.9v-51.2H25.6C11.4,307.2,0,318.6,0,332.8v76.8c0,14.2,11.4,25.6,25.6,25.6h460.8
	c14.2,0,25.6-11.4,25.6-25.6v-76.8C512,318.6,500.6,307.2,486.4,307.2z M409.6,358.4V102.6c0-14.3-11.6-25.8-25.8-25.8H128.3
	c-14.3,0-25.9,11.6-25.9,25.8v255.8H409.6z M169,212.8l20.4-20.2c3.4-3.4,8.8-3.4,12.2,0.1l33,33.3l76.2-75.5
	c3.4-3.4,8.8-3.4,12.2,0.1l20.2,20.4c3.4,3.4,3.4,8.8-0.1,12.2L240.4,284.8c-3.4,3.4-8.8,3.4-12.2-0.1L169,225
	C165.5,221.6,165.6,216.2,169,212.8L169,212.8z"/>
</svg>
