<?xml version="1.0" encoding="utf-8"?>
<!-- Generator: Adobe Illustrator 24.0.0, SVG Export Plug-In . SVG Version: 6.00 Build 0)  -->
<svg version="1.1" id="Layer_1" xmlns="http://www.w3.org/2000/svg" xmlns:xlink="http://www.w3.org/1999/xlink" x="0px" y="0px"
	 viewBox="0 0 512 512" style="enable-background:new 0 0 512 512;" xml:space="preserve">
<path d="M486.4,102.4H25.6C11.5,102.4,0,113.9,0,128v256c0,14.1,11.5,25.6,25.6,25.6h128.2c20.2,0,38.4-11.8,46.7-30.2l22.2-49.3
	c6.3-14,19.2-22.9,33.3-22.9s27,8.9,33.3,22.9l22.2,49.3c8.3,18.4,26.5,30.2,46.7,30.2h128.2c14.1,0,25.6-11.5,25.6-25.6V128
	C512,113.9,500.5,102.4,486.4,102.4z M128,294.4c-28.3,0-51.2-22.9-51.2-51.2S99.7,192,128,192s51.2,22.9,51.2,51.2
	S156.3,294.4,128,294.4z M384,294.4c-28.3,0-51.2-22.9-51.2-51.2S355.7,192,384,192c28.3,0,51.2,22.9,51.2,51.2
	S412.3,294.4,384,294.4z"/>
</svg>
