<?xml version="1.0" encoding="utf-8"?>
<!-- Generator: Adobe Illustrator 24.0.0, SVG Export Plug-In . SVG Version: 6.00 Build 0)  -->
<svg version="1.1" id="Layer_1" xmlns="http://www.w3.org/2000/svg" xmlns:xlink="http://www.w3.org/1999/xlink" x="0px" y="0px"
	 viewBox="0 0 512 512" style="enable-background:new 0 0 512 512;" xml:space="preserve">
<path d="M304,96c26.5,0,48-21.5,48-48S330.5,0,304,0s-48,21.5-48,48S277.5,96,304,96z M398.5,245.1l-23.3-11.8l-9.7-29.4
	c-14.7-44.6-55.7-75.8-102.2-75.9c-36-0.1-55.9,10.1-93.3,25.2c-21.6,8.7-39.3,25.2-49.7,46.2l-6.7,13.6c-7.8,15.8-1.5,35,14.2,42.9
	c15.6,7.9,34.6,1.5,42.5-14.3L177,228c3.5-7,9.3-12.5,16.5-15.4l26.8-10.8l-15.2,60.7c-5.2,20.8,0.4,42.9,14.9,58.8l59.9,65.4
	c7.2,7.9,12.3,17.4,14.9,27.7l18.3,73.3c4.3,17.1,21.7,27.6,38.8,23.3c17.1-4.3,27.6-21.7,23.3-38.8l-22.2-89
	c-2.6-10.3-7.7-19.9-14.9-27.7l-45.5-49.7l17.2-68.7l5.5,16.5c5.3,16.1,16.7,29.4,31.7,37l23.3,11.8c15.6,7.9,34.6,1.5,42.5-14.3
	C420.5,272.4,414.2,253,398.5,245.1L398.5,245.1z M169.6,385.8c-3.2,8.1-8,15.4-14.2,21.5l-50,50.1c-12.5,12.5-12.5,32.8,0,45.3
	c12.5,12.5,32.7,12.5,45.2,0l59.4-59.4c6.1-6.1,10.9-13.4,14.2-21.5l13.5-33.8c-55.3-60.3-38.7-41.8-47.4-53.7
	C190.3,334.3,169.6,385.8,169.6,385.8z"/>
</svg>
