<?xml version="1.0" encoding="utf-8"?>
<!-- Generator: Adobe Illustrator 24.0.0, SVG Export Plug-In . SVG Version: 6.00 Build 0)  -->
<svg version="1.1" id="Layer_1" xmlns="http://www.w3.org/2000/svg" xmlns:xlink="http://www.w3.org/1999/xlink" x="0px" y="0px"
	 viewBox="0 0 512 512" style="enable-background:new 0 0 512 512;" xml:space="preserve">
<path d="M403.2,332.8H109.1c-3.5,0-6.4,2.9-6.4,6.4l-0.1,38.4c0,3.5,2.9,6.4,6.4,6.4h294.2c3.5,0,6.4-2.9,6.4-6.4v-38.4
	C409.6,335.7,406.7,332.8,403.2,332.8z M403.2,409.6H108.9c-3.5,0-6.4,2.9-6.4,6.4l-0.1,38.4c0,3.5,2.9,6.4,6.4,6.4h294.4
	c3.5,0,6.4-2.9,6.4-6.4V416C409.6,412.5,406.7,409.6,403.2,409.6z M403.2,256H109.3c-3.5,0-6.4,2.9-6.4,6.4l-0.1,38.4
	c0,3.5,2.9,6.4,6.4,6.4h294c3.5,0,6.4-2.9,6.4-6.4v-38.4C409.6,258.9,406.7,256,403.2,256z M488.4,144.8L270.7,54.2
	c-9.4-3.9-20.1-3.9-29.5,0L23.6,144.8C9.4,150.8,0,164.7,0,180.2v274.2c0,3.5,2.9,6.4,6.4,6.4h64c3.5,0,6.4-2.9,6.4-6.4V256
	c0-14.1,11.7-25.6,26.1-25.6h306.2c14.4,0,26.1,11.5,26.1,25.6v198.4c0,3.5,2.9,6.4,6.4,6.4h64c3.5,0,6.4-2.9,6.4-6.4V180.2
	C512,164.7,502.6,150.8,488.4,144.8z"/>
</svg>
