<?xml version="1.0" encoding="utf-8"?>
<!-- Generator: Adobe Illustrator 24.0.0, SVG Export Plug-In . SVG Version: 6.00 Build 0)  -->
<svg version="1.1" id="Layer_1" xmlns="http://www.w3.org/2000/svg" xmlns:xlink="http://www.w3.org/1999/xlink" x="0px" y="0px"
	 viewBox="0 0 512 512" style="enable-background:new 0 0 512 512;" xml:space="preserve">
<path d="M353.2,167.6c6.4,0,12.6,0.3,18.8,1.1C355.4,90.3,271.3,32,175.7,32C68.5,32-19,104.8-19,197.4c0,53.4,29.3,97.5,77.9,131.6
	l-19.3,58.6l68-34.1c24.4,4.8,43.8,9.7,68.2,9.7c6.2,0,12.1-0.3,18.3-0.8c-4-12.9-6.2-26.6-6.2-40.8
	C187.8,236.7,260.8,167.6,353.2,167.6L353.2,167.6z M248.7,114.7c14.5,0,24.2,9.7,24.2,24.4c0,14.5-9.7,24.2-24.2,24.2
	c-14.8,0-29.3-9.7-29.3-24.2C219.5,124.4,234,114.7,248.7,114.7z M112.3,163.3c-14.5,0-29.3-9.7-29.3-24.2
	c0-14.8,14.8-24.4,29.3-24.4c14.8,0,24.4,9.7,24.4,24.4C136.7,153.7,127.1,163.3,112.3,163.3z M531,319.4
	c0-77.9-77.9-141.3-165.4-141.3c-92.7,0-165.4,63.4-165.4,141.3S273,460.7,365.6,460.7c19.3,0,38.9-5.1,58.6-9.9l53.4,29.3
	l-14.8-48.6C502,402.1,531,363.2,531,319.4z M311.9,294.9c-9.7,0-19.3-9.7-19.3-19.6c0-9.7,9.7-19.3,19.3-19.3
	c14.8,0,24.4,9.7,24.4,19.3C336.3,285.3,326.6,294.9,311.9,294.9z M419,294.9c-9.7,0-19.3-9.7-19.3-19.6c0-9.7,9.7-19.3,19.3-19.3
	c14.5,0,24.4,9.7,24.4,19.3C443.5,285.3,433.5,294.9,419,294.9z"/>
</svg>
