<?xml version="1.0" encoding="utf-8"?>
<!-- Generator: Adobe Illustrator 24.0.0, SVG Export Plug-In . SVG Version: 6.00 Build 0)  -->
<svg version="1.1" id="Layer_1" xmlns="http://www.w3.org/2000/svg" xmlns:xlink="http://www.w3.org/1999/xlink" x="0px" y="0px"
	 viewBox="0 0 512 512" style="enable-background:new 0 0 512 512;" xml:space="preserve">
<path d="M512,92.2l-0.2,9.8c-22.5,0.6-36,12.6-44.6,32.2c-20,46.2-82.6,192-124.2,286.8H332l-65.5-154.5
	c-26,50.9-54.6,104-79.3,154.5c-0.2,0.2-12,0-12-0.2C137.6,333,98.3,245.9,60.7,157.9c-9.1-21.4-39.5-56-60.5-55.8
	c0-2.5-0.2-8-0.2-11.4h129.5v11.1c-15.4,0.9-42.2,10.6-34.6,27.4c17.5,39.8,82.9,192.2,100.5,230.8c12-23.8,46.2-87.3,60.2-114.2
	c-11.1-22.6-46.9-107.1-58.2-128c-7.8-14.2-28.9-15.5-44.6-15.8V91.1l114,0.2v10.5c-15.5,0.5-30.5,6.2-23.5,20.9
	c15.1,32,24.5,54.5,38.5,83.7c4.5-8.6,27.8-55.5,38.5-80.6c7.1-16.5-3.1-22.9-30.9-23.5c0.2-2.9,0-8.2,0.2-10.9
	c35.5-0.2,88.9-0.2,98.5-0.5v10.9c-18,0.6-36.6,10.2-46.5,25.4l-47.4,98.2c5.1,12.9,50.6,114.2,55.4,125.3l97.9-226
	c-6.9-18.5-29.1-22.5-37.8-22.6V90.9l102.2,0.9C511.8,91.8,512,92.2,512,92.2z"/>
</svg>
