<?xml version="1.0" encoding="utf-8"?>
<!-- Generator: Adobe Illustrator 24.0.0, SVG Export Plug-In . SVG Version: 6.00 Build 0)  -->
<svg version="1.1" id="Layer_1" xmlns="http://www.w3.org/2000/svg" xmlns:xlink="http://www.w3.org/1999/xlink" x="0px" y="0px"
	 viewBox="0 0 512 512" style="enable-background:new 0 0 512 512;" xml:space="preserve">
<path d="M328,464h-40V346.8c68.5-15.9,118-79.9,111.4-154.2l-16-178.1C382.7,6.3,375.9,0,367.7,0H144.3c-8.1,0-15,6.3-15.7,14.6
	l-16,178.1c-6.7,74.3,42.9,138.3,111.4,154.2V464h-40c-22.1,0-40,17.9-40,40c0,4.4,3.6,8,8,8h208c4.4,0,8-3.6,8-8
	C368,481.9,350.1,464,328,464z M173.8,48h164.5l7.2,80H166.6L173.8,48z"/>
</svg>
