<?xml version="1.0" encoding="utf-8"?>
<!-- Generator: Adobe Illustrator 24.0.0, SVG Export Plug-In . SVG Version: 6.00 Build 0)  -->
<svg version="1.1" id="Layer_1" xmlns="http://www.w3.org/2000/svg" xmlns:xlink="http://www.w3.org/1999/xlink" x="0px" y="0px"
	 viewBox="0 0 512 512" style="enable-background:new 0 0 512 512;" xml:space="preserve">
<path d="M314.7,156.6c0,10.4,1.7,26.2-22.9,35.1c-7.6,2.8-12.8,7.7-12.8,7.7c0-24.8,3.8-33.8,13.9-39.1
	C300.7,156.2,314.7,156.6,314.7,156.6z M222.1,185l-27.4,106.1l-22.8-86.9c-6.2-25.6-16.6-38.8-38.7-38.8
	c-21.9,0-32.5,12.9-38.7,38.8l-22.8,86.9L44.2,185c-4.4-21.4-25.1-30.6-44.2-28.2l52.5,198.3c0,0,17.3,1.2,26-3.2
	c11.4-5.8,16.8-10.3,23.7-37.3c6.1-24.1,23.3-94.7,24.9-99.8c3.8-12,8.9-11,12.3,0c1.6,5,18.8,75.7,24.9,99.8
	c6.9,27,12.3,31.5,23.7,37.3c8.7,4.4,26,3.2,26,3.2l52.5-198.3C246.8,154.3,226.4,163.9,222.1,185L222.1,185z M314.7,189.2
	c0,0-3.3,5.1-10.8,9.3c-4.8,2.7-9.4,4.5-14.4,6.9c-12.1,5.8-10.5,11.2-10.5,28.2v121.7c0,0,13.2,1.7,21.9-2.7
	c11.1-5.7,13.7-11.2,13.8-35.8V196.3l0,0L314.7,189.2L314.7,189.2z M445.4,256.4l66.6-99c0,0-28.1-4.8-42,7.9
	c-10.6,9.7-19.5,23.6-43.3,58c-0.4,0.6-5,8.4-10.5,0c-23.4-33.8-32.6-48.2-43.3-58c-13.9-12.7-42-7.9-42-7.9l66.6,99L331,355.1
	c0,0,29.3,3.7,43.2-9c9.2-8.4,14.1-16.3,42-56.6c5.4-8.4,10.1-0.6,10.5,0c23.5,33.9,31.4,46.4,42.5,56.6c13.9,12.7,42.7,9,42.7,9
	L445.4,256.4L445.4,256.4z"/>
</svg>
