<?xml version="1.0" encoding="utf-8"?>
<!-- Generator: Adobe Illustrator 24.0.0, SVG Export Plug-In . SVG Version: 6.00 Build 0)  -->
<svg version="1.1" id="Layer_1" xmlns="http://www.w3.org/2000/svg" xmlns:xlink="http://www.w3.org/1999/xlink" x="0px" y="0px"
	 viewBox="0 0 512 512" style="enable-background:new 0 0 512 512;" xml:space="preserve">
<path d="M175.4,327.8c-1.5,1.1-8.9,6.8-0.2,18.9c3.7,5.1,11.3,10.2,17.4,5.2c5.2-3.9,5.9-10.3,0.2-18.4
	C188.4,327.2,181.3,323.1,175.4,327.8z M444.8,388.5c-0.3,1.4-0.4,1.3,0.6,0c1.7-3.4,3.4-8.2,4-15.9c2.5-30.8-32.3-57.2-81.1-62.4
	c-43.8-4.8-99.5,7.3-151,48.4l-0.2,1.3c2.1,4,4,8.6,2.7,17l0.6,0.2c51.1-46.7,105-61.8,147.5-59.1c46.7,2.9,80,27.2,80,54.5
	C447.9,380.3,445.8,384.9,444.8,388.5L444.8,388.5z M313.8,243.5c0.6,5.7,3.4,8.2,7.3,8.4c4.4,0.2,7.5-2.1,8.4-5.2
	c0.6-2.7,1.7-23.9,1.7-23.9s-9,5.2-11.9,8.4C316.3,234.1,313.4,237.9,313.8,243.5L313.8,243.5z M273.8,122.7
	c-163.6,0-263.3,110-273.2,121.5c-0.8,0.4-1,0.6,0.6,1c48.4,13.2,124.6,64.9,156.9,161.7l0.8,0.2c44.2-55.9,112.7-102.4,189.6-102.4
	c64.7,0,104.1,33.7,104.1,64.3c0,14.7-5.2,26.8-17.8,37.1c0,0.8-0.2,0.6,0.6,0.6c11.7-8.6,22-23,22-38.5c0-18.2-9.6-30.6-9.6-30.6
	c5.7,5.7,8.6,13,8.6,13c4.6-32.7,21.6-49.9,21.6-49.9c-1.9-7.8-5.4-14.2-5.4-14.2c6.1,6.5,11.5,22,11.5,33.1
	c0,8.4-2.7,18.2-10.1,25.6l0.2,0.4c6.5-4,13.2-13.4,13.2-30.4c0-12.6-3.8-20.7-3.8-20.7c4.6-4.2,9-7.3,12.8-9.4
	c0.6,2.7,1.7,7.8,1.9,11.9c0,0.8,0.6,1.5,0.8,0c0.6-4.6-0.2-13-0.2-13.2c4.8-2.5,7.8-3.6,7.8-3.6C494.2,192,391.5,122.7,273.8,122.7
	z M194.4,354.4c-8.8,7.2-19.4,3.3-24.5-3.4c-6-7.7-5.4-19.3,3.4-26c11.9-9.1,21.7-0.4,24.9,4.4C198.4,329.7,207.9,342.7,194.4,354.4
	z M196.1,245.2l7.5-14.2l9.4,56.8l-10.1,4.8l-19.7-23l11.3-21.4l2.9,3.6L196.1,245.2L196.1,245.2z M211,339.3l-0.2-0.2
	c1.6-3.3-2-5.3-14-25.4c-1-1.9-2.5-2.3-3.6-2.1l-0.2-0.4c6.3-4.6,12.4-8.2,20.3-12.6l0.4,0.2c1,1.5,1.7,2.3,2.7,3.8l-0.2,0.4
	c-0.8-0.2-1.9-0.6-4.2,0.2c-1.7,0.6-6.3,2.9-9.8,6.1v1c1.3,1.9,3.1,5.2,4.6,7.8h0.2c8-5,6-3.6,9.2-6.3h0.2c0.4,1.5,0.4,1.5,1.5,4.4
	l-0.2,0.2c-2.4,0.5-3.7,0.3-9.2,4.4v0.2c7.6,13.6,8.8,13.4,10.1,12.8l0.2,0.2C216.8,335.3,213.7,337.4,211,339.3L211,339.3z
	 M255.2,313.3c-2.5,1.3-4.8,2.3-8,4l-0.2-0.2c1-2.1,0.9-2.2-9.4-26l-0.2-0.2c-0.1,0-7.1,2.9-8,5.9H229l-0.8-4.6l0.2-0.4
	c5.8-3.6,20.4-9.3,22.2-10.1l0.4,0.2l2.5,4l-0.2,0.4c-2.8-1.4-5.9,0.6-9.8,2.1v0.2c9.8,25.6,10.1,24.5,11.7,24.5V313.3L255.2,313.3z
	 M291,300.1c-3.4,0.8-4.2,1-7.8,2.3l-0.2-0.2l0.4-3.6c-0.8-2.7-2.5-9.2-2.9-10.9l-0.2-0.2c-2.7,0.6-7.1,2.1-10.3,3.1l-0.2,0.2
	c0.6,2.1,2.5,8,3.4,11.1c0.6,1.9,1.5,2.3,2.3,2.5v0.4c-2.9,0.8-5.7,2.1-8.2,3.1l-0.2-0.2c0.8-1,0.8-2.3,0.2-4
	c-0.8-2.5-6.5-19.1-7.3-21.8c-0.4-1.5-1.3-2.5-2.1-2.5v-0.4c2.5-0.8,4.8-1.7,8.6-2.7l0.2,0.2l-0.2,3.8c1,3.1,1.9,6.1,2.5,7.8h0.2
	c3.1-1,7.5-2.3,10.3-3.1l0.2-0.2l-2.1-7.5c-0.4-1.5-0.8-2.7-2.1-3.1v-0.2c3.6-0.8,5.9-1.5,8.6-1.9l0.2,0.2c-0.8,1-0.8,2.3-0.4,3.6
	c1.3,5,3.8,16.3,5,21.2C289.3,299,290.4,299.7,291,300.1z M316.8,294.6l-0.2,0.2c-3.8,0.4-11.3,1.9-18,3.4l-0.2-0.2l0.6-3.4
	c-1.3-6.3-2.7-14.9-4-21c-0.2-1.5-0.6-2.3-2.1-2.9l0.6-0.4c7.3-1.3,16.1-1.9,19.9-2.1l0.2,0.2c0.4,1.9,0.6,2.5,1.3,4.4l-0.2,0.2
	c-0.9-0.9-2.7-2.6-13-0.6l-0.2,0.2c0.2,1.3,0.8,5.2,1.3,8l0.2,0.2c7.6-1.3,3.8,0,8.6-1.9h0.2c0,1.3-0.2,1.5-0.2,4.2h-0.2
	c-3.8-0.8-1.7-0.7-8.2,0l-0.2,0.2c0.2,1.7,1.3,7.5,1.7,10.1l0.2,0.2c0.9,0.3,11.4-0.5,13-3.8h0.2
	C317.6,291.7,317.2,293.2,316.8,294.6L316.8,294.6z M325.3,259c-3.6,1.9-6.5,2.3-8.8,2.3c-0.2,0-9.1,0.9-14-8
	c-5.4-8.6-0.8-20.2,4.4-25.4c7-6.5,18.7-8.1,22.8-13.6c6.4-8.3-10.4-17.8-23.7-4.6l-2.1-2.3l4.2-13c20.5-1.3,36.2-2.4,40,13
	c0.6,2.5,0,7.5-0.2,9.6c0,2.1-1.5,15.1-1.7,18.4c-0.4,3.4-0.6,14.7-0.6,16.6c0.2,1.9,0.4,3.4,1.3,4.4c1.3,1.5,4.6,1.5,4.6,1.5
	l-0.6,3.8c-9.5-0.9-8.2-0.5-16.3-0.8c-2.6-4.1-1.8-2.6-3.4-6.3C331.2,254.6,327.9,257.8,325.3,259z M355.1,276
	c-5.1-8.5-15.9-5.7-17.4,4.4c-2.1,13.7,11.4,15.8,16.6,8.2l0.2,0.2c-0.4,1.5-1.5,4.8-1.5,5l-0.4,0.4c-8.2,5.5-22.8-2-20.5-14.9
	c1.6-8.7,11.6-15.1,23-8l0.2,0.4C355.3,272.7,355.1,274.5,355.1,276L355.1,276z M359.7,205.8v-5.2c0.6,0,15.7,2.6,22.2,5.9l-1.3,14
	c0,0,8.2-7.5,12.4-8.6c4.2-1.3,11.9,5.9,11.9,5.9l-9,9c-9.7-5.1-15.7-0.1-16.6,0.6c-4.2,31-6.9,33.7,3.6,36.9l-0.4,3.8
	c-14-3.4-14.8-3.6-29.5-5.9l0.6-3.8c5.8,0,6-4.3,6.1-5.4c0,0,4-42.5,4-44.2C363.7,206.5,359.7,205.8,359.7,205.8L359.7,205.8z
	 M368.5,297.4c-6.5-1.7-11.3-8.8-8.6-16.6c2.5-7.5,9.8-9.8,15.1-8.2c7.3,2.1,10.3,9.4,8.6,15.5C381.5,295.3,376,299.3,368.5,297.4z
	 M402.2,305.1c-1.9-0.4-5.7-1.9-6.9-2.3v-0.2l1.3-1.5c0.5-6.6,0.5-5.8,0.2-6.1c-3.9-1.4-5.3-1.9-5.7-1.9c-1,1.5-2.3,3.6-2.9,4.4
	l-0.6,2.7v0.2c-1-0.2-3.1-1-4.8-1.3v-0.2l2.1-1.5c2.7-3.8,8-11.3,11.1-16.1v-1.7l0.4-0.2c1.7,0.6,4.4,1.7,6.1,2.3
	c0.4,0.4,0.1-1.5-0.8,20.1C401.4,303.4,401.6,304.1,402.2,305.1L402.2,305.1z M398.5,233.3c9-14.6,24.6-13,27.2-2.7l6.1-21
	c1.9-5-2.3-7.9-3.6-9l1.5-2.9c9.8,8.3,13.1,11.2,18,16.3c-20.7,58.5-24.6,64.6-19.7,67.5l-1.5,3.6c-5.1-2.7-7.1-3.5-14.2-6.9
	l1.7-5.4c-0.2-0.2-3.1,3.1-7.8,2.9C390.9,274.6,387.9,250.2,398.5,233.3L398.5,233.3z M421.9,296.7c0-4.6-5.1-6.3-6.3-4.2
	c-1,1.7,0.8,4,2.3,6.7c1.3,2.1,2.1,5,0.8,7.5c-2.1,5.1-9.9,4.2-12.4-0.6c0-0.6-0.2,0.1,1.5-3.8l0.6-0.2c-0.5,4.5,4.8,7.7,6.7,4
	c0.8-1.7-0.4-4.4-1.7-6.7c-1.3-2.1-2.9-5-1.5-7.8c2.2-4,9-3.6,11.7,1.9v0.4L421.9,296.7L421.9,296.7z M438.9,307.4
	c-1.6-2.6-0.7-1.7-3.6-3.8h-0.2c-1.9,3.4-4.6,8.4-6.9,13c-1,1.9-0.8,2.7-0.6,3.1l-0.2,0.2l-4.6-3.6l0.2-0.2l1.7-1
	c2.5-4.6,5.2-9.6,7.3-13.6v-0.2c-2.1-1.6-1-1.2-4.8-1.5v-0.2l2.5-2.7h0.2c2.9,1.9,8,5.4,9.8,7.1l0.2,0.2L438.9,307.4z M460.7,272
	l-2.3-2.3c0.6-1.9,1.5-4,1.7-6.1c0.6-7.8-9.2-9.5-9.2-4c0,4,6.3,15.5,6.3,22.2c0,8.2-4.6,12.6-11.1,13.2c-6.7,0.6-16.1-8.4-16.1-8.4
	l4-11.5l2.3,1.7c-2.4,14.2,14.1,16.3,10.7,4.2c-0.8-3.2-15-27.4,1.7-30.6c10.9-1.9,18.4,13.2,18.4,13.2L460.7,272L460.7,272z
	 M489.2,263.9c-8.8-24.3-48.4-102-153.6-103.7c-42.7-0.8-75.4,12.4-106.2,30.4l68.5-7.3l-73.1,16.6l20.1,15.7l-3.1-13.2
	c6-1.4,31.3-6.8,53.4-7.1l-17.8,64.3c10.9-0.6,15.2-7.2,15.7-18.2l4-0.8l0.2,21.4c-18,2.6-29.8,5.4-39.6,8l10.5-34.6l-49.2-29.3
	l1.9,6.5l8.2,4c5,14.9,15.5,45.2,16.3,46.9c1.6,3.4,2.5,4.6,9.6,3.6l0.8,4c-12.9,3.9-18.9,6.1-31.2,11.5l-1.9-3.8
	c3.5-2.4,7-3.2,4.4-10.3c-19-50-17.2-46.5-18.2-47.6l1.9-3.6l26.8,53.8c-3.1-9.5,1.3,1.4-26.4-63.1l-33.5,70.8l3.8-11.1l-28.7-33.7
	l22.2,74.8l-9.4,6.7c-89.5-81.3-84.7-78.7-90.9-79c-4.4-0.2-10.9,4.4-10.9,4.4l-4-4.8c24.4-18.8,25.3-19.5,46.7-34.1l3.4,5.7
	c0,0-4.6,3.4-6.3,5.7c-4.7,7.4,1.3,10.6,49.4,60.5l-15.1-47.1l31.8-8.2l20.5,24.5l3.6-9.8l-4-19.7l10.5-2.7l0.4,2.5l2.9-8.4
	l-75.4,23.5l9-4l-10.9-33.9l13.8-7.3l24.1,28.9l22.8-10.5c-1.1-6-2-11.6-3.8-15.7l13.8,11.1l3.8-1.7L153.5,161l18.5,9.2
	c15.2-4.9,20.2-6,25.8-7.8l2.1,8.8c-10,10,1.1,13.5,5.2,15.5L194.2,138l9.6,22.6c3.4-1,5.9-1.7,5.9-1.7l2.1,6.9c0,0-2.5,0.8-5,1.7
	l7.1,16.8l27-52.6l-16.6,48.8c33.9-19.3,65.2-29.3,105.6-28.7c53.6,0.8,133.9,32.7,159.8,111.9C490.4,265.3,489.8,265.7,489.2,263.9
	L489.2,263.9z M162.8,173.1c0,0,1.5-0.4,3.4-1l7.5,6.1c-0.3,0-2.8-0.2-9,1.9L162.8,173.1L162.8,173.1z M277.8,203.9
	c-1.3-0.5-21.2-3.8-26.6,16.6l17.4,13.6L277.8,203.9z M254.7,104.9c-46.7,0-84.8,9.6-92,11.5v0.6c6.7,1.7,11.5,3.4,17,9.4l1.3,0.2
	c5.2-1.5,39.2-11.1,88.2-11.1c144.1,0,241.3,93.4,241.3,178.7v8c0,1,0.6,2.1,0.8,0.4c0.4-1.7,0.6-6.9,0.6-15.7
	C512.2,219.9,434.7,104.9,254.7,104.9z M423.6,240.6c1-4.6,0-9.8-5.9-10.5c-7.7-0.9-12.9,19-13.6,26.8c-0.6,4.4-1,11.9,4.8,11.9
	C412.7,268.9,416.7,268.2,423.6,240.6L423.6,240.6z M374.4,275c-2.1-0.6-7.5-0.6-10.1,8.4c-1.5,5.4,0.4,10.7,4.8,11.7
	c2.9,0.8,7.1,0.4,9.4-8.6C380.6,278.5,377.1,275.6,374.4,275L374.4,275z M392.8,291.7c1.5,0.4,2.5,0.8,4.6,1.5
	c0-1.5,0.4-6.7,0.6-9.6c-0.8,1-4.4,6.5-5.2,8L392.8,291.7L392.8,291.7z"/>
</svg>
