<?xml version="1.0" encoding="utf-8"?>
<!-- Generator: Adobe Illustrator 24.0.0, SVG Export Plug-In . SVG Version: 6.00 Build 0)  -->
<svg version="1.1" id="Layer_1" xmlns="http://www.w3.org/2000/svg" xmlns:xlink="http://www.w3.org/1999/xlink" x="0px" y="0px"
	 viewBox="0 0 512 512" style="enable-background:new 0 0 512 512;" xml:space="preserve">
<path d="M142.7,323h-29.9l-23.1-93h-0.4l-22.8,93H36.2L0,186.4h30l21.6,93H52l23.7-93h28.1l23.3,94.1h0.4l22.4-94.1h29.5L142.7,323z
	 M217.1,221.4c31.2,0,51.3,20.7,51.3,52.2c0,31.4-20.1,52-51.3,52c-31,0-51.1-20.7-51.1-52C166,242,186.1,221.4,217.1,221.4z
	 M217.1,305.2c18.6,0,24.1-15.9,24.1-31.6c0-15.9-5.5-31.8-24.1-31.8c-22.2,0-23.9,15.9-23.9,31.8
	C193.2,289.3,198.8,305.2,217.1,305.2z M348.1,310.3h-0.4c-6.3,10.7-17.4,15.3-30,15.3c-29.8,0-44.4-25.6-44.4-53
	c0-26.6,14.7-51.3,43.8-51.3c11.7,0,23.2,5,29.5,14.7h0.2v-49.7h27.2V323h-25.8V310.3z M324.3,241.8c-17.8,0-23.9,15.3-23.9,31.6
	c0,15.5,7.1,31.8,23.9,31.8c18,0,23.3-15.7,23.3-32C347.7,257.1,341.9,241.8,324.3,241.8z M474.4,323h-25.8v-13.8H448
	c-6.9,11.1-18.7,16.5-30.2,16.5c-28.9,0-36.2-16.3-36.2-40.8V224h27.2v55.9c0,16.3,4.8,24.3,17.4,24.3c14.7,0,21-8.2,21-28.3V224
	h27.2V323z M482,293.5h30V323h-30V293.5z"/>
</svg>
