<?xml version="1.0" encoding="utf-8"?>
<!-- Generator: Adobe Illustrator 24.0.0, SVG Export Plug-In . SVG Version: 6.00 Build 0)  -->
<svg version="1.1" id="Layer_1" xmlns="http://www.w3.org/2000/svg" xmlns:xlink="http://www.w3.org/1999/xlink" x="0px" y="0px"
	 viewBox="0 0 512 512" style="enable-background:new 0 0 512 512;" xml:space="preserve">
<path d="M501.3,199.1c5.9,0,10.7-4.8,10.7-10.7v-35.6c0-5.9-4.8-10.7-10.7-10.7h-42.7l16.5-71.6c1.5-6.7-3.6-13.1-10.4-13.1h-41
	c-5.1,0-9.4,3.6-10.4,8.4l-12.8,76.3h-97.7l-17.5-76.4c-1.2-4.9-5.4-8.3-10.4-8.3h-39.1c-5,0-9.2,3.4-10.4,8.3l-17.8,76.4h-96.6
	L95.6,66.1c-1-5-5.4-8.5-10.5-8.5H47.6c-6.8,0-11.9,6.3-10.4,13l16.1,71.7H10.7c-5.9,0-10.7,4.8-10.7,10.7v35.6
	c0,5.9,4.8,10.7,10.7,10.7H66l6.4,28.4H10.7c-5.9,0-10.7,4.8-10.7,10.7v35.6c0,5.9,4.8,10.7,10.7,10.7h74.6l36.4,162.3
	c1.1,4.9,5.4,8.4,10.4,8.4h50.5c5,0,9.2-3.5,10.4-8.3l37.6-162.4h49l37.7,162.4c1.2,4.8,5.4,8.3,10.4,8.3H378c5,0,9.2-3.5,10.4-8.3
	l37.4-162.4h75.5c5.9,0,10.7-4.8,10.7-10.7v-35.6c0-5.9-4.8-10.7-10.7-10.7H439l6.6-28.4H501.3z M163.4,332.5c-5.5,22.9-6,42-6.5,42
	h-1c0,0-1.5-19.6-6-42l-9.8-48h34.5L163.4,332.5z M187.8,227.6h-59.4l-5.8-28.4h71.8L187.8,227.6z M243.7,227.6l1.8-7.6
	c1.7-7.1,3.1-14.2,4.3-20.8h10.5c1.2,6.6,2.6,13.7,4.3,20.8l1.8,7.6H243.7z M360.1,332.5c-4.5,22.4-6,42-6,42h-1c-0.5,0-1-19-6.5-42
	l-11-48h34.8L360.1,332.5z M382.5,227.6h-59.9l-6.5-28.4h72.5L382.5,227.6z"/>
</svg>
