<?xml version="1.0" encoding="utf-8"?>
<!-- Generator: Adobe Illustrator 24.0.0, SVG Export Plug-In . SVG Version: 6.00 Build 0)  -->
<svg version="1.1" id="Layer_1" xmlns="http://www.w3.org/2000/svg" xmlns:xlink="http://www.w3.org/1999/xlink" x="0px" y="0px"
	 viewBox="0 0 512 512" style="enable-background:new 0 0 512 512;" xml:space="preserve">
<path d="M480,75.2v361.7c0,24.3-19,43.2-43.2,43.2H75.2C51.3,480,32,461.4,32,436.8V75.2C32,51.1,50.8,32,75.2,32h361.7
	C460.9,32,480,50.8,480,75.2L480,75.2z M442.7,436.8V75.2c0-3-2.6-5.8-5.8-5.8h-9.3L317.3,144L256,94.1L194.8,144L84.5,69.3h-9.3
	c-3.2,0-5.8,2.8-5.8,5.8v361.7c0,3,2.6,5.8,5.8,5.8h361.7C440.1,442.7,442.7,439.9,442.7,436.8L442.7,436.8z M182.2,186v37h-73.5
	v-37H182.2z M182.2,260.4v37.3h-73.5v-37.3H182.2z M193.3,113.1l54-43.7H128.8L193.3,113.1z M403.3,186v37h-196v-37H403.3z
	 M403.3,260.4v37.3h-196v-37.3H403.3z M318.7,113.1l64.5-43.7H264.8L318.7,113.1L318.7,113.1z M403.3,335v37.3h-99.4V335H403.3z"/>
</svg>
