<?xml version="1.0" encoding="utf-8"?>
<!-- Generator: Adobe Illustrator 24.0.0, SVG Export Plug-In . SVG Version: 6.00 Build 0)  -->
<svg version="1.1" id="Layer_1" xmlns="http://www.w3.org/2000/svg" xmlns:xlink="http://www.w3.org/1999/xlink" x="0px" y="0px"
	 viewBox="0 0 512 512" style="enable-background:new 0 0 512 512;" xml:space="preserve">
<path d="M256,8C119,8,8,119,8,256s111,248,248,248s248-111,248-248S393,8,256,8z M427.3,166.6c-15.2,34.5-30.4,69-45.6,103.5
	c-2.4,5.5-6.9,8.2-13,8.2c-23,0-46,0.1-69.1,0c-5.1,0-8.3,1.9-10.3,6.7c-10.2,23.6-20.6,47-30.9,70.5c-1.5,3.5-4.1,5.3-7.9,5.3
	c-45.9,0-91.9,0-137.8,0c-3.1,0-5.6-1.1-7.7-3.5c-11.2-12.3-22.5-24.6-33.7-36.9c-2.7-3-2.8-6.2-1.2-9.7
	c8.7-19.5,17.3-39.1,25.9-58.7c12.9-29.4,25.9-58.7,38.8-88.1c1.7-3.9,4.3-5.7,8.5-5.6c14.2,0.1,28.5,0,42.7,0.1
	c6.2,0,9.2,4.8,6.7,10.6c-13.6,30.8-27.2,61.6-40.7,92.3c-5.7,13-11.4,26-17.1,39c-3.9,9,7.1,12,10.9,5.6c0.2-0.4-1.4,4.2,30-67.7
	c1.4-3.1,3.4-4.4,6.8-4.4c15.2,0.1,30.4,0,45.6,0c5.6,0,7.9,3.6,5.7,8.8c-8.3,19-16.7,37.9-25,56.9c-5,11.4,8.1,12.5,11.3,5.3
	c0-0.1,27.9-63.3,32.2-73.2c2-4.6,5.4-6.5,10.4-6.5c26.4,0.1,52.9,0,79.3,0.1c12.4,0,13.9-13.6,3.9-13.6c-25.3,0-50.5,0-75.8,0
	c-6.3,0-7.8-2.5-5.3-8.3c5.8-13.1,11.6-26.1,17.3-39.2c1.7-4,4.5-5.8,8.8-5.8c23.1,0.1,26,0,130.8,0
	C427.8,158.3,429.7,161.1,427.3,166.6L427.3,166.6z"/>
</svg>
