<?xml version="1.0" encoding="utf-8"?>
<!-- Generator: Adobe Illustrator 24.0.0, SVG Export Plug-In . SVG Version: 6.00 Build 0)  -->
<svg version="1.1" id="Layer_1" xmlns="http://www.w3.org/2000/svg" xmlns:xlink="http://www.w3.org/1999/xlink" x="0px" y="0px"
	 viewBox="0 0 512 512" style="enable-background:new 0 0 512 512;" xml:space="preserve">
<path d="M192,358.4c-7,0-12.8,5.8-12.8,12.8c0,7,5.8,12.8,12.8,12.8s12.8-5.8,12.8-12.8C204.8,364.2,199,358.4,192,358.4z M320,384
	c7,0,12.8-5.8,12.8-12.8c0-7-5.8-12.8-12.8-12.8s-12.8,5.8-12.8,12.8C307.2,378.2,313,384,320,384z M499.2,51.2H12.8
	C5.8,51.2,0,57,0,64v25.6c0,7,5.8,12.8,12.8,12.8h486.4c7,0,12.8-5.8,12.8-12.8V64C512,57,506.2,51.2,499.2,51.2z M499.2,409.6
	h-38.4V128H51.2v281.6H12.8c-7,0-12.8,5.8-12.8,12.8V448c0,7,5.8,12.8,12.8,12.8h486.4c7,0,12.8-5.8,12.8-12.8v-25.6
	C512,415.4,506.2,409.6,499.2,409.6z M384,249.6c0,3.5-2.9,6.4-6.4,6.4H268.8v25.6H352c3.5,0,6.4,2.9,6.4,6.4v12.8
	c0,3.5-2.9,6.4-6.4,6.4h-83.2v25.6H320c21.2,0,38.4,17.2,38.4,38.4c0,21.2-17.2,38.4-38.4,38.4s-38.4-17.2-38.4-38.4v-12.8h-51.2
	v12.8c0,21.2-17.2,38.4-38.4,38.4s-38.4-17.2-38.4-38.4c0-21.2,17.2-38.4,38.4-38.4h51.2v-25.6H160c-3.5,0-6.4-2.9-6.4-6.4V288
	c0-3.5,2.9-6.4,6.4-6.4h83.2V256H134.4c-3.5,0-6.4-2.9-6.4-6.4v-12.8c0-3.5,2.9-6.4,6.4-6.4h108.8v-25.6H160c-3.5,0-6.4-2.9-6.4-6.4
	v-12.8c0-3.5,2.9-6.4,6.4-6.4h83.2V160c0-3.5,2.9-6.4,6.4-6.4h12.8c3.5,0,6.4,2.9,6.4,6.4v19.2H352c3.5,0,6.4,2.9,6.4,6.4v12.8
	c0,3.5-2.9,6.4-6.4,6.4h-83.2v25.6h108.8c3.5,0,6.4,2.9,6.4,6.4V249.6z"/>
</svg>
