<?xml version="1.0" encoding="utf-8"?>
<!-- Generator: Adobe Illustrator 24.0.0, SVG Export Plug-In . SVG Version: 6.00 Build 0)  -->
<svg version="1.1" id="Layer_1" xmlns="http://www.w3.org/2000/svg" xmlns:xlink="http://www.w3.org/1999/xlink" x="0px" y="0px"
	 viewBox="0 0 512 512" style="enable-background:new 0 0 512 512;" xml:space="preserve">
<path d="M106.9,240.3l99.6,48.6c19.2,9.4,16.2,37.5-4.5,42.7L94.5,358.5c-12.2,3.1-24.6-4.3-27.7-16.5c-0.3-1-0.4-2-0.6-3.1
	c-3.3-28.8-0.2-57.9,9-85.3c4-11.9,17-18.3,28.9-14.3C105.1,239.5,106,239.9,106.9,240.3L106.9,240.3z M150.9,479.6
	c23.8,16.3,50.9,27.3,79.4,32.1c12.4,2.1,24.2-6.2,26.3-18.6c0.2-1,0.3-2,0.3-3.1l3.9-110.8c0.7-21.3-25.5-31.9-39.8-16.1
	l-74.2,82.4c-8.4,9.4-7.7,23.8,1.7,32.2C149.3,478.4,150.1,479,150.9,479.6L150.9,479.6z M296.2,369.7l58.8,94
	c6.7,10.7,20.9,14,31.6,7.2c0.8-0.5,1.6-1.1,2.4-1.7c22.3-18.4,40.3-41.5,52.7-67.6c5.4-11.5,0.4-25.2-11.1-30.6
	c-0.8-0.4-1.6-0.7-2.5-1l-105.4-34.3C302.4,329.2,284.9,351.5,296.2,369.7L296.2,369.7z M444.6,237.4
	c-11.5-26.5-28.7-50.2-50.4-69.3c-9.5-8.3-23.9-7.4-32.2,2.1c-0.6,0.7-1.2,1.5-1.8,2.3l-62,91.9c-11.9,17.7,4.7,40.6,25.2,34.7
	L430,268.6c12.2-3.6,19.2-16.4,15.6-28.6C445.3,239.2,445,238.3,444.6,237.4L444.6,237.4z M126.1,30.2
	c-11.4,5.5-16.2,19.1-10.7,30.5c0.2,0.5,0.5,1,0.8,1.5l104.1,180.4c11.7,20.2,42.6,11.9,42.6-11.4V22.9C263.1,10.4,253,0.1,240.5,0
	c-0.7,0-1.4,0-2,0.1C199.5,3.2,161.4,13.4,126.1,30.2z"/>
</svg>
