<?xml version="1.0" encoding="utf-8"?>
<!-- Generator: Adobe Illustrator 24.0.0, SVG Export Plug-In . SVG Version: 6.00 Build 0)  -->
<svg version="1.1" id="Layer_1" xmlns="http://www.w3.org/2000/svg" xmlns:xlink="http://www.w3.org/1999/xlink" x="0px" y="0px"
	 viewBox="0 0 512 512" style="enable-background:new 0 0 512 512;" xml:space="preserve">
<path d="M415.2,32h-65.3c-4.6,0-8.8,2.6-10.8,6.7l-55.4,113.2c-14.5,34.7-27.1,71.9-27.1,71.9h-1.3c0,0-12.6-37.2-27.1-71.9
	L172.8,38.7c-2-4.1-6.2-6.7-10.8-6.7H96.8c-9.1,0-14.8,9.7-10.6,17.6L166.3,200H108c-6.6,0-12,5.4-12,12v32c0,6.6,5.4,12,12,12h88.2
	l19.8,37.2V320H108c-6.6,0-12,5.4-12,12v32c0,6.6,5.4,12,12,12h108v92c0,6.6,5.4,12,12,12h56c6.6,0,12-5.4,12-12v-92h108
	c6.6,0,12-5.4,12-12v-32c0-6.6-5.4-12-12-12H296v-26.8l19.8-37.2H404c6.6,0,12-5.4,12-12v-32c0-6.6-5.4-12-12-12h-58.3l80.1-150.4
	C430.1,41.7,424.3,32,415.2,32z"/>
</svg>
