<?xml version="1.0" encoding="utf-8"?>
<!-- Generator: Adobe Illustrator 24.0.0, SVG Export Plug-In . SVG Version: 6.00 Build 0)  -->
<svg version="1.1" id="Layer_1" xmlns="http://www.w3.org/2000/svg" xmlns:xlink="http://www.w3.org/1999/xlink" x="0px" y="0px"
	 viewBox="0 0 512 512" style="enable-background:new 0 0 512 512;" xml:space="preserve">
<path d="M123.3,76h186l-7,18.9h-179c-39.7,0-71.9,31.6-71.9,70.3v205.4c0,35.4,24.9,70.3,84,70.3V460h-12.1
	C73.2,460,32,419.8,32,370.5V165.2C32,115.9,72.7,76,123.3,76z M352.4,20h66.5C275.1,398.1,273.2,418.9,234.2,459.3
	c-20.8,21.6-49.3,31.7-78.3,32.7v-51.1c49.2-7.7,64.6-49.9,64.6-75.3c0-20.1,0.6-12.6-82.1-223.2h61.4L250.2,299L352.4,20L352.4,20z
	 M480,161.5V460H266c6.6-9.6,10.7-16.3,12.1-19.4h182.5V161.5c0-32.5-17.1-51.9-48.2-62.9l6.7-17.6C460.8,94.6,480,124.1,480,161.5z
	"/>
</svg>
