<?xml version="1.0" encoding="utf-8"?>
<!-- Generator: Adobe Illustrator 24.0.0, SVG Export Plug-In . SVG Version: 6.00 Build 0)  -->
<svg version="1.1" id="Layer_1" xmlns="http://www.w3.org/2000/svg" xmlns:xlink="http://www.w3.org/1999/xlink" x="0px" y="0px"
	 viewBox="0 0 512 512" style="enable-background:new 0 0 512 512;" xml:space="preserve">
<path d="M218.8,202.1l95.2,54.1l-95.2,54.1V202.1z M480,80v352c0,26.5-21.5,48-48,48H80c-26.5,0-48-21.5-48-48V80
	c0-26.5,21.5-48,48-48h352C458.5,32,480,53.5,480,80z M438,256.3c0,0,0-59.6-7.6-88.2c-4.2-15.8-16.5-28.2-32.2-32.4
	C369.9,128,256,128,256,128s-113.9,0-142.2,7.7c-15.7,4.2-28,16.6-32.2,32.4C74,196.6,74,256.3,74,256.3s0,59.6,7.6,88.2
	c4.2,15.8,16.5,27.7,32.2,31.9C142.1,384,256,384,256,384s113.9,0,142.2-7.7c15.7-4.2,28-16.1,32.2-31.9
	C438,315.9,438,256.3,438,256.3L438,256.3z"/>
</svg>
