<?xml version="1.0" encoding="utf-8"?>
<!-- Generator: Adobe Illustrator 24.0.0, SVG Export Plug-In . SVG Version: 6.00 Build 0)  -->
<svg version="1.1" id="Layer_1" xmlns="http://www.w3.org/2000/svg" xmlns:xlink="http://www.w3.org/1999/xlink" x="0px" y="0px"
	 viewBox="0 0 512 512" style="enable-background:new 0 0 512 512;" xml:space="preserve">
<path d="M136.4,169.7v174l18.7,0l6.2,21.1l33.6-21.1h39.6v-174H136.4z M214.6,324.8h-22.4l-22.3,14l-4.1-14l-9.5,0V188.6h58.3V324.8
	z M119.9,249.3H78c1.4-21.7,1.8-41.3,1.8-58.8h40.9c0,0,1.6-18-6.9-17.8H43c2.8-10.5,6.3-21.3,10.5-32.5c0,0-19.3,0-25.8,17.3
	C25,164.6,17.1,192,3.1,219.9c4.7-0.5,20.3-0.9,29.5-17.8c1.7-4.7,2-5.3,4.1-11.6h23.1c0,8.4-1,53.5-1.3,58.8H16.7
	c-9.4,0-12.4,18.9-12.4,18.9h52.5C53.2,308.1,34.3,341.7,0,368.3c16.4,4.7,32.7-0.7,40.8-7.9c0,0,18.4-16.7,28.5-55.4l43.2,52
	c0,0,6.3-21.5-1-32c-6.1-7.1-22.4-26.4-29.4-33.4l-11.7,9.3c3.5-11.2,5.6-22,6.3-32.5h49.3C125.9,268.2,125.9,249.3,119.9,249.3
	L119.9,249.3L119.9,249.3z M449.5,248.1c16.7-20.5,36-46.9,36-46.9s-14.9-11.8-21.9-3.2c-4.8,6.5-29.5,38.6-29.5,38.6L449.5,248.1
	L449.5,248.1z M329.4,200.8c-7.2-6.6-20.7,1.7-20.7,1.7s31.6,44,32.9,46l15.6-11C357.1,237.5,336.6,207.4,329.4,200.8L329.4,200.8
	L329.4,200.8z M512,257.9c-15.8,0-104.7,0.7-104.8,0.7v-80.8c3.8,0,9.9-0.3,18.3-1c32.7-1.9,56.1-3.2,70.2-3.8
	c0,0,9.8-21.8-0.5-26.8c-2.5-0.9-18.5,3.7-18.5,3.7s-132.2,13.2-185.9,14.4c1.3,7.1,6.1,13.7,12.6,15.6c10.6,2.8,18.2,1.4,39.3,0.7
	c19.9-1.3,34.9-1.9,45.2-1.9v79.8H281.1c0,0,2.3,17.8,20.4,18.3h86.4v56.7c0,11.2-9,17.6-19.6,16.9c-11.3,0.1-20.9-0.9-33.4-1.4
	c1.6,3.2,5.1,11.5,15.4,17.5c7.9,3.8,12.9,5.3,20.8,5.3c23.6,0,36.5-13.8,35.9-36.2v-58.7H505C512.8,276.9,512,257.9,512,257.9
	L512,257.9L512,257.9z"/>
</svg>
