<?xml version="1.0" encoding="utf-8"?>
<!-- Generator: Adobe Illustrator 25.4.1, SVG Export Plug-In . SVG Version: 6.00 Build 0)  -->
<svg version="1.1" id="Layer_1" xmlns="http://www.w3.org/2000/svg" xmlns:xlink="http://www.w3.org/1999/xlink" x="0px" y="0px"
	 viewBox="0 0 130 80" style="enable-background:new 0 0 130 80;" xml:space="preserve">
<style type="text/css">
	.st0{fill:#BDC5CB;}
	.st1{fill:none;stroke:#D2D2D2;stroke-miterlimit:10;}
</style>
<g>
	<g>
		<rect x="18.6" y="30.5" class="st0" width="20.9" height="19.1"/>
		<rect x="42.5" y="30.5" class="st0" width="20.9" height="19.1"/>
		<rect x="66.5" y="30.5" class="st0" width="20.9" height="19.1"/>
		<rect x="90.4" y="30.4" class="st0" width="20.9" height="19.1"/>
	</g>
	<g transform="translate(0,-952.36218)">
		<path class="st0" d="M118.5,992.4l-0.4-0.4l-3-3l-0.9,0.9l2.6,2.6l-2.6,2.6l0.9,0.9l3-3C118.1,992.8,118.5,992.4,118.5,992.4z"/>
	</g>
	<g transform="translate(0,-952.36218)">
		<path class="st0" d="M11.9,992.8l3,3l0.9-0.9l-2.6-2.6l2.6-2.6l-0.9-0.9l-3,3l-0.4,0.4C11.5,992.4,11.9,992.8,11.9,992.8z"/>
	</g>
</g>
<rect x="0.5" y="0.5" class="st1" width="129" height="79"/>
</svg>
