<?xml version="1.0" encoding="utf-8"?>
<!-- Generator: Adobe Illustrator 24.3.0, SVG Export Plug-In . SVG Version: 6.00 Build 0)  -->
<svg version="1.1" id="Layer_1" xmlns="http://www.w3.org/2000/svg" xmlns:xlink="http://www.w3.org/1999/xlink" x="0px" y="0px"
	 viewBox="0 0 100 100" style="enable-background:new 0 0 100 100;" xml:space="preserve">
<style type="text/css">
	.st0{display:none;fill:#DDDDDD;}
	.st1{fill:#666666;}
	.st2{fill:#D2D2D2;}
	.st3{opacity:0.7;fill:#444444;}
	.st4{fill:#F8F8F8;}
</style>
<path class="st0" d="M98,74.6H2c-1.1,0-2-0.9-2-2v-70c0-1.1,0.9-2,2-2h96c1.1,0,2,0.9,2,2v70C100,73.7,99.1,74.6,98,74.6z"/>
<g>
	<path class="st1" d="M84.4,19.4H15.6c-2.8,0-5,2.2-5,5v51.3c0,2.8,2.2,5,5,5h68.8c2.8,0,5-2.2,5-5V24.4
		C89.4,21.7,87.2,19.4,84.4,19.4z M84.4,24.4v36.3l-9.8-9c-1.5-1.3-3.8-1.3-5.2,0.1l-10,10.1L39.8,38.5c-1.5-1.8-4.3-1.8-5.7,0
		L15.6,59.7V24.4H84.4z M63.1,37.5c0-3.8,3-6.9,6.9-6.9c3.8,0,6.9,3,6.9,6.9s-3,6.9-6.9,6.9C66.3,44.4,63.1,41.4,63.1,37.5z"/>
</g>
<g>
	<path class="st2" d="M97.8,100h-95c-1.4,0-2.5-1.1-2.5-2.5v-95C0.3,1.1,1.5,0,2.8,0h95c1.4,0,2.5,1.1,2.5,2.5v95
		C100.3,98.9,99.2,100,97.8,100z M2.8,1C2,1,1.3,1.7,1.3,2.5v95C1.3,98.3,2,99,2.8,99h95c0.8,0,1.5-0.7,1.5-1.5v-95
		c0-0.8-0.7-1.5-1.5-1.5H2.8z"/>
</g>
<path class="st3" d="M98,100H2c-1.1,0-2-0.9-2-2V2c0-1.1,0.9-2,2-2h96c1.1,0,2,0.9,2,2v96C100,99.1,99.1,100,98,100z"/>
<g>
	<path class="st4" d="M76.5,45.5h-53c-0.6,0-1-0.4-1-1v-2c0-0.6,0.4-1,1-1h53c0.6,0,1,0.4,1,1v2C77.5,45.1,77.1,45.5,76.5,45.5z"/>
	<path class="st4" d="M81.5,51.8h-63c-0.6,0-1-0.4-1-1v-0.5c0-0.6,0.4-1,1-1h63c0.6,0,1,0.4,1,1v0.5C82.5,51.3,82.1,51.8,81.5,51.8z
		"/>
	<path class="st4" d="M81.5,56.1h-63c-0.6,0-1-0.4-1-1v-0.5c0-0.6,0.4-1,1-1h63c0.6,0,1,0.4,1,1v0.5C82.5,55.7,82.1,56.1,81.5,56.1z
		"/>
	<path class="st4" d="M73.3,60.2H26.7c-0.6,0-1-0.4-1-1v0c0-0.6,0.4-1,1-1h46.5c0.6,0,1,0.4,1,1v0C74.3,59.8,73.8,60.2,73.3,60.2z"
		/>
</g>
</svg>
