<?xml version="1.0" encoding="utf-8"?>
<!-- Generator: Adobe Illustrator 24.3.0, SVG Export Plug-In . SVG Version: 6.00 Build 0)  -->
<svg version="1.1" id="Layer_1" xmlns="http://www.w3.org/2000/svg" xmlns:xlink="http://www.w3.org/1999/xlink" x="0px" y="0px"
	 viewBox="0 0 100 100" style="enable-background:new 0 0 100 100;" xml:space="preserve">
<style type="text/css">
	.st0{display:none;fill:#DDDDDD;}
	.st1{fill:#D2D2D2;}
	.st2{fill:#BCC5CB;}
</style>
<path class="st0" d="M98,74.6H2c-1.1,0-2-0.9-2-2v-70c0-1.1,0.9-2,2-2h96c1.1,0,2,0.9,2,2v70C100,73.7,99.1,74.6,98,74.6z"/>
<g>
	<path class="st1" d="M97.8,100h-95c-1.4,0-2.5-1.1-2.5-2.5v-95C0.3,1.1,1.5,0,2.8,0h95c1.4,0,2.5,1.1,2.5,2.5v95
		C100.3,98.9,99.2,100,97.8,100z M2.8,1C2,1,1.3,1.7,1.3,2.5v95C1.3,98.3,2,99,2.8,99h95c0.8,0,1.5-0.7,1.5-1.5v-95
		c0-0.8-0.7-1.5-1.5-1.5H2.8z"/>
</g>
<g>
	<path class="st2" d="M81.1,41H53.4c-0.3,0-0.5-0.3-0.5-0.8v-1.5c0-0.5,0.2-0.8,0.5-0.8h27.6c0.3,0,0.5,0.3,0.5,0.8v1.5
		C81.6,40.6,81.4,41,81.1,41z"/>
	<path class="st2" d="M87.2,46.4H53.5c-0.3,0-0.6-0.3-0.6-0.8v-0.4c0-0.5,0.2-0.8,0.6-0.8h33.8c0.3,0,0.6,0.3,0.6,0.8v0.5
		C87.8,46,87.6,46.4,87.2,46.4z"/>
	<path class="st2" d="M87.2,50.3H53.5c-0.3,0-0.6-0.3-0.6-0.8v-0.4c0-0.5,0.2-0.8,0.6-0.8h33.8c0.3,0,0.6,0.3,0.6,0.8v0.4
		C87.8,49.9,87.6,50.3,87.2,50.3z"/>
	<g>
		<path class="st2" d="M46.5,36H15c-1.3,0-2.3,1-2.3,2.3v23.4c0,1.3,1,2.3,2.3,2.3h31.4c1.3,0,2.3-1,2.3-2.3V38.3
			C48.7,37.1,47.7,36,46.5,36z M46.5,38.3v16.6L42,50.8c-0.7-0.6-1.7-0.6-2.4,0.1L35,55.4l-8.9-10.7c-0.7-0.8-1.9-0.8-2.6,0L15,54.4
			V38.3H46.5z M36.8,44.3c0-1.7,1.4-3.2,3.2-3.2c1.7,0,3.2,1.4,3.2,3.2s-1.4,3.2-3.2,3.2C38.2,47.4,36.8,46.1,36.8,44.3z"/>
	</g>
	<path class="st2" d="M72.6,54.6H53.2c-0.2,0-0.3-0.3-0.3-0.8v-0.4c0-0.5,0.1-0.8,0.3-0.8h19.4c0.2,0,0.3,0.3,0.3,0.8v0.4
		C72.9,54.2,72.8,54.6,72.6,54.6z"/>
</g>
</svg>
