<?xml version="1.0" encoding="utf-8"?>
<!-- Generator: Adobe Illustrator 24.3.0, SVG Export Plug-In . SVG Version: 6.00 Build 0)  -->
<svg version="1.1" id="Layer_1" xmlns="http://www.w3.org/2000/svg" xmlns:xlink="http://www.w3.org/1999/xlink" x="0px" y="0px"
	 viewBox="0 0 100 100" style="enable-background:new 0 0 100 100;" xml:space="preserve">
<style type="text/css">
	.st0{display:none;fill:#DDDDDD;}
	.st1{fill:#BCC5CB;}
	.st2{fill:#D2D2D2;}
</style>
<path class="st0" d="M98,74.6H2c-1.1,0-2-0.9-2-2v-70c0-1.1,0.9-2,2-2h96c1.1,0,2,0.9,2,2v70C100,73.7,99.1,74.6,98,74.6z"/>
<path class="st1" d="M81.1,19.7H19.5c-0.7,0-1.2-0.4-1.2-1v-2c0-0.6,0.5-1,1.2-1h61.7c0.7,0,1.2,0.4,1.2,1v2
	C82.3,19.2,81.8,19.7,81.1,19.7z"/>
<path class="st1" d="M81.3,24.9h-62c-0.6,0-1-0.4-1-1v-0.5c0-0.6,0.4-1,1-1h62c0.6,0,1,0.4,1,1V24C82.3,24.4,81.9,24.9,81.3,24.9z"
	/>
<path class="st1" d="M81.3,28.8h-62c-0.6,0-1-0.4-1-1v-0.5c0-0.6,0.4-1,1-1h62c0.6,0,1,0.4,1,1v0.5C82.3,28.3,81.9,28.8,81.3,28.8z"
	/>
<g>
	<path class="st1" d="M78.6,33.9H22c-2.3,0-4.1,1.8-4.1,4.1v42.2c0,2.3,1.8,4.1,4.1,4.1h56.6c2.3,0,4.1-1.8,4.1-4.1V38
		C82.7,35.8,80.9,33.9,78.6,33.9z M78.6,38v29.9l-8.1-7.4c-1.2-1.1-3.1-1.1-4.3,0.1L58,68.9L41.9,49.6c-1.2-1.5-3.5-1.5-4.7,0
		L22,67.1V38H78.6z M61.1,48.8c0-3.1,2.5-5.7,5.7-5.7c3.1,0,5.7,2.5,5.7,5.7s-2.5,5.7-5.7,5.7C63.7,54.5,61.1,52,61.1,48.8z"/>
</g>
<g>
	<path class="st2" d="M97.8,100h-95c-1.4,0-2.5-1.1-2.5-2.5v-95C0.3,1.1,1.5,0,2.8,0h95c1.4,0,2.5,1.1,2.5,2.5v95
		C100.3,98.9,99.2,100,97.8,100z M2.8,1C2,1,1.3,1.7,1.3,2.5v95C1.3,98.3,2,99,2.8,99h95c0.8,0,1.5-0.7,1.5-1.5v-95
		c0-0.8-0.7-1.5-1.5-1.5H2.8z"/>
</g>
</svg>
