<?xml version="1.0" encoding="utf-8"?>
<!-- Generator: Adobe Illustrator 24.3.0, SVG Export Plug-In . SVG Version: 6.00 Build 0)  -->
<svg version="1.1" id="Layer_1" xmlns="http://www.w3.org/2000/svg" xmlns:xlink="http://www.w3.org/1999/xlink" x="0px" y="0px"
	 viewBox="0 0 195.9 32.3" style="enable-background:new 0 0 195.9 32.3;" xml:space="preserve">
<style type="text/css">
	.st0{fill:#FFFFFF;}
</style>
<g>
	<polygon class="st0" points="28.4,18 24.6,13.3 26.9,11.4 30.7,16.1 	"/>
	<polygon class="st0" points="26.9,20.9 24.6,19 28.4,14.3 30.7,16.2 	"/>
</g>
<g>
	<polygon class="st0" points="12.6,18 10.3,16.1 14.1,11.4 16.4,13.3 	"/>
	<polygon class="st0" points="14.1,20.9 10.3,16.2 12.6,14.3 16.4,19 	"/>
</g>
<g>
	<path class="st0" d="M37.6,29.5H3.4V2.8h34.2V29.5z M7.3,25.6h26.5V6.7H7.3V25.6z"/>
</g>
<g>
	<path class="st0" d="M62.4,7.7l-3,17.5c-0.5,0-0.9,0.1-1.2,0.1s-0.8,0-1.2,0c-0.4,0-0.7-0.1-1-0.4s-0.4-0.7-0.5-1.2L55,21
		c-0.2-1.2-0.5-3.4-0.8-6.4c-0.3,3.1-0.6,5.2-0.8,6.4l-0.7,4.2c-0.8,0.1-1.7,0.1-2.6,0.1c-0.4,0-0.6-0.1-0.9-0.4s-0.4-0.7-0.5-1.1
		c-0.3-1.7-0.8-4.4-1.4-8c-0.6-3.7-1-6.1-1.2-7.3c0-0.1,0-0.2,0-0.3c0-0.1,0-0.3,0.1-0.3c0.1-0.1,0.3-0.1,0.5-0.1H49l1.2,8.2
		c0.4,2.2,0.6,4.4,0.7,6.5h0.2c0.1-2,0.3-4.2,0.6-6.5l1.1-6.7c0-0.3,0.1-0.5,0.2-0.6s0.2-0.2,0.5-0.2h2l1.3,7.5
		c0.3,1.6,0.5,3.8,0.7,6.5h0.2c0.1-2.1,0.3-4.3,0.6-6.5l1.1-7.5c0-0.3,0.1-0.5,0.2-0.6s0.2-0.2,0.5-0.2H62.4z"/>
	<path class="st0" d="M63.7,25c-0.5-0.3-1-1-1.2-1.9s-0.4-2.3-0.4-4.2c0-4.3,1.4-6.5,4.1-6.5c0.9,0,1.7,0.2,2.2,0.6
		c0.6,0.4,1,1,1.2,1.9c0.3,0.9,0.4,2.2,0.4,3.9c0,2.4-0.3,4-1,5.1c-0.7,1-1.7,1.5-3.1,1.5C65,25.5,64.3,25.3,63.7,25z M66.6,22.9
		c0.1-0.2,0.2-0.6,0.3-1.2s0.1-1.5,0.1-2.7c0-1.2,0-2.1-0.1-2.7c0-0.6-0.1-1-0.3-1.2c-0.1-0.2-0.3-0.3-0.6-0.3
		c-0.3,0-0.6,0.3-0.7,0.9c-0.2,0.6-0.3,1.7-0.3,3.3c0,1.3,0,2.2,0.1,2.8c0.1,0.6,0.2,1,0.3,1.2c0.1,0.2,0.3,0.3,0.5,0.3
		C66.3,23.2,66.4,23.1,66.6,22.9z"/>
	<path class="st0" d="M71.7,13.6c1.1-0.8,2.3-1.1,3.5-1.1c0.7,0,1.1,0.1,1.3,0.3c0.2,0.2,0.4,0.5,0.4,1c0,0.5-0.1,1.1-0.3,1.6
		c-0.3-0.1-0.6-0.2-0.9-0.2c-0.2,0-0.4,0-0.5,0.1c-0.2,0.1-0.4,0.2-0.6,0.3l0,9.2c0,0.2,0,0.3-0.1,0.4s-0.4,0.1-0.8,0.1
		s-1.1,0-1.9,0V13.6z"/>
	<path class="st0" d="M79.3,25c-0.6-0.3-1-0.8-1.4-1.7c-0.4-0.9-0.5-2.1-0.5-3.8c0-2.4,0.3-4.2,0.9-5.4c0.6-1.1,1.5-1.7,2.5-1.7
		c0.6,0,1.1,0.1,1.5,0.5V8.1c0-0.4,0.1-0.7,0.2-0.9c0.1-0.2,0.4-0.3,0.7-0.3c0.3,0,1-0.1,1.8-0.1v17.9c-1.1,0.5-2.4,0.8-3.7,0.8
		C80.5,25.5,79.8,25.3,79.3,25z M82.3,22.8V15c-0.1-0.1-0.3-0.1-0.5-0.1c-0.2,0-0.4,0.1-0.6,0.3c-0.2,0.2-0.3,0.6-0.5,1.2
		c-0.1,0.6-0.2,1.6-0.2,2.9c0,1.5,0.1,2.5,0.2,3s0.4,0.8,0.7,0.8C81.8,23,82,22.9,82.3,22.8z"/>
	<path class="st0" d="M92.4,8.2C93.1,8.5,93.6,9,94,9.7c0.4,0.8,0.6,1.8,0.6,3.1c0,2.1-0.4,3.5-1.3,4.4c-0.9,0.8-2,1.2-3.4,1.2h-0.2
		v6.3c0,0.2,0,0.3-0.1,0.4s-0.4,0.1-0.8,0.1s-1.1,0-1.8,0v-17c0-0.2,0-0.3,0.1-0.4c0.1-0.1,0.2-0.1,0.4-0.1h2.4
		C90.8,7.7,91.7,7.9,92.4,8.2z M91.1,15.2c0.2-0.5,0.3-1.4,0.3-2.7c0-0.8-0.1-1.4-0.3-1.8c-0.2-0.4-0.5-0.6-0.9-0.6h-0.7v5.8h0.5
		C90.5,15.9,90.9,15.7,91.1,15.2z"/>
	<path class="st0" d="M95.9,13.6c1.1-0.8,2.3-1.1,3.5-1.1c0.7,0,1.1,0.1,1.3,0.3c0.2,0.2,0.3,0.5,0.3,1c0,0.5-0.1,1.1-0.3,1.6
		c-0.3-0.1-0.6-0.2-0.9-0.2c-0.2,0-0.4,0-0.6,0.1c-0.2,0.1-0.4,0.2-0.5,0.3l0,9.2c0,0.2,0,0.3-0.1,0.4c-0.1,0.1-0.4,0.1-0.8,0.1
		c-0.5,0-1.1,0-1.9,0V13.6z"/>
	<path class="st0" d="M108.7,22.1c0.1,0.5,0.2,1.1,0.2,1.9c0,0.5-0.3,0.9-1,1.1c-0.7,0.3-1.5,0.4-2.5,0.4c-1.2,0-2.2-0.4-2.9-1.3
		c-0.7-0.9-1-2.4-1-4.6c0-1.9,0.2-3.4,0.6-4.4c0.4-1,0.9-1.8,1.5-2.1c0.6-0.4,1.4-0.5,2.3-0.5c2.1,0,3.2,1.4,3.2,4.1
		c0,1.4-0.1,2.6-0.3,3.6c-1,0.2-2.4,0.3-4.3,0.3c0,0.9,0.2,1.5,0.4,1.8c0.2,0.4,0.6,0.5,1.2,0.5C106.9,22.8,107.7,22.5,108.7,22.1z
		 M104.7,15.7c-0.2,0.5-0.3,1.4-0.3,2.6c0.9,0,1.6-0.1,1.9-0.2c0.1-0.2,0.1-0.7,0.1-1.3c0-0.8-0.1-1.3-0.2-1.5
		c-0.1-0.2-0.3-0.4-0.7-0.4C105.2,14.9,104.9,15.1,104.7,15.7z"/>
	<path class="st0" d="M110.4,24c0-0.5,0.2-1,0.5-1.5c0.7,0.4,1.4,0.5,2.2,0.5c0.4,0,0.8-0.1,1-0.3s0.3-0.5,0.3-0.8
		c0-0.5-0.2-1-0.6-1.4l-2.2-2.3c-0.4-0.4-0.7-0.9-0.9-1.4c-0.2-0.5-0.3-0.9-0.3-1.3c0-1,0.3-1.7,1-2.3c0.7-0.6,1.7-0.8,3.2-0.8
		c1.2,0,2.1,0.2,2.5,0.5c0.4,0.3,0.6,0.7,0.6,1.1c0,0.2,0,0.4-0.1,0.7c-0.1,0.2-0.2,0.5-0.4,0.6c-0.7-0.4-1.4-0.5-2.2-0.5
		s-1.2,0.3-1.2,0.8c0,0.2,0,0.3,0.2,0.5c0.1,0.2,0.3,0.4,0.6,0.7l1.8,1.9c0.5,0.6,0.8,1.1,1,1.5c0.2,0.4,0.3,1,0.3,1.6
		c0,1.1-0.4,2-1.1,2.6s-1.8,1-3,1C111.3,25.5,110.4,25,110.4,24z"/>
	<path class="st0" d="M118.6,24c0-0.5,0.2-1,0.5-1.5c0.7,0.4,1.4,0.5,2.2,0.5c0.4,0,0.8-0.1,1-0.3s0.3-0.5,0.3-0.8
		c0-0.5-0.2-1-0.6-1.4l-2.2-2.3c-0.4-0.4-0.7-0.9-0.9-1.4c-0.2-0.5-0.3-0.9-0.3-1.3c0-1,0.3-1.7,1-2.3c0.7-0.6,1.7-0.8,3.2-0.8
		c1.2,0,2.1,0.2,2.5,0.5c0.4,0.3,0.6,0.7,0.6,1.1c0,0.2,0,0.4-0.1,0.7c-0.1,0.2-0.2,0.5-0.4,0.6c-0.7-0.4-1.4-0.5-2.2-0.5
		s-1.2,0.3-1.2,0.8c0,0.2,0,0.3,0.2,0.5c0.1,0.2,0.3,0.4,0.6,0.7l1.8,1.9c0.5,0.6,0.8,1.1,1,1.5c0.2,0.4,0.3,1,0.3,1.6
		c0,1.1-0.4,2-1.1,2.6s-1.8,1-3,1C119.6,25.5,118.6,25,118.6,24z"/>
	<path class="st0" d="M132.4,24.8c-0.6-0.5-1-1.3-1.3-2.5c-0.3-1.2-0.5-3-0.5-5.3c0-6.4,1.7-9.6,5-9.6c1,0,1.6,0.1,1.9,0.4
		s0.5,0.6,0.5,1.1c0,0.5-0.1,1.1-0.4,1.7c-0.4-0.3-0.8-0.4-1.3-0.4c-0.8,0-1.5,0.5-2,1.4s-0.8,2.7-0.8,5.2c0,1.4,0.1,2.6,0.2,3.4
		c0.1,0.8,0.3,1.4,0.6,1.7s0.7,0.5,1.2,0.5c0.8,0,1.5-0.1,1.9-0.4c0.2,0.5,0.4,1,0.4,1.6c0,0.6-0.3,1-0.8,1.4
		c-0.5,0.3-1.3,0.5-2.2,0.5C133.8,25.5,133,25.2,132.4,24.8z"/>
	<path class="st0" d="M140.7,25.2c-0.5-0.2-0.9-0.6-1.2-1.1c-0.3-0.6-0.5-1.4-0.5-2.5c0-1.6,0.3-2.6,0.8-3.2
		c0.5-0.6,1.2-0.9,2.1-0.9c0.2,0,0.5,0,0.8,0.1c0.3,0.1,0.6,0.2,0.8,0.3v-1.7c0-0.3-0.1-0.6-0.2-0.7c-0.2-0.1-0.4-0.2-0.8-0.2
		c-0.5,0-1,0.1-1.5,0.2c-0.6,0.1-1.1,0.2-1.5,0.4c-0.2-0.5-0.4-1-0.4-1.6c0-0.2,0-0.3,0.1-0.5c0.1-0.2,0.1-0.3,0.2-0.4
		c0.2-0.2,0.7-0.3,1.3-0.5c0.7-0.2,1.5-0.2,2.4-0.2c1.2,0,2,0.2,2.4,0.7c0.5,0.5,0.7,1.2,0.7,2.4v1.2c0,4.1,0,6.7-0.1,8
		c-0.9,0.5-2.1,0.8-3.6,0.8C141.8,25.5,141.2,25.4,140.7,25.2z M143.4,22.9c0-0.4,0-1.5,0-3.2c-0.2-0.1-0.4-0.2-0.7-0.2
		c-0.3,0-0.5,0.1-0.7,0.4c-0.2,0.3-0.2,0.8-0.2,1.6c0,0.6,0.1,1.1,0.2,1.3c0.1,0.3,0.3,0.4,0.7,0.4S143.3,23.1,143.4,22.9z"/>
	<path class="st0" d="M148,13.6c1.1-0.8,2.3-1.1,3.5-1.1c0.7,0,1.1,0.1,1.3,0.3c0.2,0.2,0.3,0.5,0.3,1c0,0.5-0.1,1.1-0.3,1.6
		c-0.3-0.1-0.6-0.2-0.9-0.2c-0.2,0-0.4,0-0.6,0.1c-0.2,0.1-0.4,0.2-0.5,0.3l0,9.2c0,0.2,0,0.3-0.1,0.4c-0.1,0.1-0.4,0.1-0.8,0.1
		c-0.5,0-1.1,0-1.9,0V13.6z"/>
	<path class="st0" d="M155.3,25c-0.6-0.3-1-1-1.2-1.9c-0.3-0.9-0.4-2.3-0.4-4.2c0-4.3,1.4-6.5,4.2-6.5c0.9,0,1.7,0.2,2.2,0.6
		c0.6,0.4,1,1,1.2,1.9c0.3,0.9,0.4,2.2,0.4,3.9c0,2.4-0.3,4-1,5.1c-0.7,1-1.7,1.5-3.1,1.5C156.6,25.5,155.9,25.3,155.3,25z
		 M158.2,22.9c0.1-0.2,0.2-0.6,0.3-1.2s0.1-1.5,0.1-2.7c0-1.2,0-2.1-0.1-2.7c0-0.6-0.1-1-0.3-1.2c-0.1-0.2-0.3-0.3-0.6-0.3
		c-0.3,0-0.6,0.3-0.7,0.9c-0.2,0.6-0.3,1.7-0.3,3.3c0,1.3,0,2.2,0.1,2.8c0.1,0.6,0.2,1,0.3,1.2c0.1,0.2,0.3,0.3,0.6,0.3
		C157.9,23.2,158.1,23.1,158.2,22.9z"/>
	<path class="st0" d="M164,24.5c-0.5-0.6-0.8-1.6-0.8-2.8v-8.5c0-0.2,0-0.3,0.1-0.4c0.1-0.1,0.4-0.1,0.8-0.1c0.5,0,1.1,0,1.9,0v9.1
		c0,0.4,0.1,0.7,0.2,0.9c0.1,0.2,0.3,0.3,0.7,0.3c0.4,0,0.7-0.1,1-0.3v-9.6c0-0.2,0-0.3,0.1-0.4c0.1-0.1,0.3-0.1,0.8-0.1
		c0.5,0,1.1,0,1.9,0v11.8c-0.5,0.3-1,0.5-1.7,0.7c-0.7,0.2-1.3,0.3-2,0.3C165.6,25.5,164.6,25.1,164,24.5z"/>
	<path class="st0" d="M172.2,24c0-0.5,0.2-1,0.5-1.5c0.7,0.4,1.4,0.5,2.2,0.5c0.4,0,0.8-0.1,1-0.3s0.3-0.5,0.3-0.8
		c0-0.5-0.2-1-0.6-1.4l-2.2-2.3c-0.4-0.4-0.7-0.9-0.9-1.4c-0.2-0.5-0.3-0.9-0.3-1.3c0-1,0.3-1.7,1-2.3c0.7-0.6,1.7-0.8,3.2-0.8
		c1.2,0,2.1,0.2,2.5,0.5c0.4,0.3,0.6,0.7,0.6,1.1c0,0.2,0,0.4-0.1,0.7c-0.1,0.2-0.2,0.5-0.4,0.6c-0.7-0.4-1.4-0.5-2.2-0.5
		s-1.2,0.3-1.2,0.8c0,0.2,0,0.3,0.2,0.5c0.1,0.2,0.3,0.4,0.6,0.7l1.8,1.9c0.5,0.6,0.8,1.1,1,1.5c0.2,0.4,0.3,1,0.3,1.6
		c0,1.1-0.4,2-1.1,2.6s-1.8,1-3,1C173.2,25.5,172.2,25,172.2,24z"/>
	<path class="st0" d="M187.6,22.1c0.1,0.5,0.2,1.1,0.2,1.9c0,0.5-0.3,0.9-1,1.1c-0.7,0.3-1.5,0.4-2.5,0.4c-1.2,0-2.2-0.4-2.9-1.3
		c-0.7-0.9-1-2.4-1-4.6c0-1.9,0.2-3.4,0.6-4.4c0.4-1,0.9-1.8,1.5-2.1c0.6-0.4,1.4-0.5,2.3-0.5c2.1,0,3.2,1.4,3.2,4.1
		c0,1.4-0.1,2.6-0.3,3.6c-1,0.2-2.4,0.3-4.3,0.3c0,0.9,0.2,1.5,0.4,1.8c0.2,0.4,0.6,0.5,1.2,0.5C185.8,22.8,186.7,22.5,187.6,22.1z
		 M183.6,15.7c-0.2,0.5-0.3,1.4-0.3,2.6c0.9,0,1.6-0.1,1.9-0.2c0.1-0.2,0.1-0.7,0.1-1.3c0-0.8-0.1-1.3-0.2-1.5
		c-0.1-0.2-0.3-0.4-0.7-0.4C184.1,14.9,183.8,15.1,183.6,15.7z"/>
	<path class="st0" d="M189.6,8.1c0-0.4,0.1-0.7,0.2-0.9c0.2-0.2,0.4-0.3,0.7-0.3c0.3,0,0.9-0.1,1.8-0.1v17.9c0,0.2,0,0.3-0.1,0.4
		c-0.1,0.1-0.3,0.1-0.8,0.1s-1.1,0-1.8,0V8.1z"/>
</g>
</svg>
