<svg xmlns="http://www.w3.org/2000/svg" height="300" width="300" fill="#1BA2AC" viewBox="0 0 100 100"  xmlns:v="https://vecta.io/nano"><path d="M99.38 78.68V97h-51.6L21.22 74.63a3.75 3.75 0 0 1 1.85-6.58h0A18 18 0 0 1 36 71l10.1 7 1.19-51.38a6.85 6.85 0 1 1 13.7 0l1.81 30.12 22.07 4.32a18 18 0 0 1 14.51 17.62zM4.82 11.43h45.33a4.2 4.2 0 1 0 0-8.4H4.82a4.2 4.2 0 1 0 0 8.4zm0 16.73h31.74a4.2 4.2 0 1 0 0-8.4H4.82a4.2 4.2 0 1 0 0 8.4zm0 16.73h29.7a4.2 4.2 0 1 0 0-8.4H4.82a4.2 4.2 0 1 0 0 8.4zm32.57 12.52a4.2 4.2 0 0 0-4.2-4.2H4.82a4.2 4.2 0 1 0 0 8.4h28.37a4.2 4.2 0 0 0 4.2-4.2z"/></svg>