<svg xmlns="http://www.w3.org/2000/svg" xmlns:xlink="http://www.w3.org/1999/xlink" height="300" width="300" fill="#1BA2AC" viewBox="0 0 128 128" xmlns:v="https://vecta.io/nano"><path d="M64 18h8a2 2 0 1 0 0-4h-8a2 2 0 1 0 0 4zm-16 0h8a2 2 0 1 0 0-4h-8a2 2 0 1 0 0 4zm32 0h8a2 2 0 1 0 0-4h-8a2 2 0 1 0 0 4zm-56 0a2 2 0 1 0 0-4h-8a2 2 0 1 0 0 4h8zm72 0h8a2.01 2.01 0 0 0 .573-.083 2.01 2.01 0 0 0 .525.238c1.298.376 2.347 1.414 2.736 2.709a2 2 0 0 0 1.914 1.425 2.01 2.01 0 0 0 .577-.086 2 2 0 0 0 1.342-2.483 8.06 8.06 0 0 0-5.461-5.409c-.184-.053-.37-.078-.552-.078-.196 0-.389.029-.572.085A1.99 1.99 0 0 0 104 14h-8a2 2 0 1 0 0 4zm-64 0h8a2 2 0 1 0 0-4h-8a2 2 0 1 0 0 4z"/><use xlink:href="#B"/><path d="M5.622 93.206C4.591 92.435 4 91.267 4 90v-.56a2 2 0 1 0-4 0v.649l.001.026v.04l.001.012v.039l.001.024v.001l.001.024.002.038.001.027.002.038.001.025.001.015.001.023.004.077.003.038.001.026.002.024.005.064.002.024.001.001.002.023.001.015.002.012.002.024.001.014.003.024.001.014.002.024.001.014.004.037.003.024.003.025v.001l.006.048.002.014.002.012.003.024.003.025v.001l.005.036.004.026.003.024.004.025v.001l.004.024v.001l.003.023.004.025.001.001.002.013.012.072.006.037.004.025.004.023v.002l.007.036.004.025.005.024.002.012.002.013.007.035.003.014.005.023v.001l.005.024.005.023.005.025h.001l.01.048.016.072.009.037.003.012.006.023.015.06.006.023.006.024H.25l.006.023v.001l.005.022.01.036.003.013.006.023v.001l.02.07.004.012.003.012.006.022.001.002.003.012.003.011.025.082v.001l.003.012.011.035.003.012.007.022.007.024.007.023.008.023v.001l.004.011.007.022.001.001.011.034.004.013.007.023h.001l.012.034v.001l.012.035.008.023.008.022.004.012.008.022v.001l.012.033v.002l.012.033.026.068.009.023.008.022.009.023.005.012.013.033.005.013.009.021v.001l.013.033.01.023v.001l.005.012.018.044v.002l.009.021v.001l.01.022.01.024.014.032v.001l.005.011.009.021v.001l.005.012.009.02.021.044.006.013.009.021.011.022.02.044v.001l.005.011.01.02.042.088.022.042.022.043.012.022.022.042.007.013.01.019.012.022.022.042.012.022.011.021.024.042.011.021.024.043.011.02.013.021.024.042.013.021.012.02.012.021.013.021.024.04.014.022.012.02.026.042.012.02.014.021.013.02.012.019.014.022.012.019.013.019.014.021.011.017.012.019.016.023.013.018.001.001.007.011.012.017v.001l.02.028.008.013.012.018.029.041a8.11 8.11 0 0 0 1.762 1.81 1.99 1.99 0 0 0 1.196.399 2 2 0 0 0 1.2-3.602zM8.88 96a2 2 0 0 0 2 2H12v-4h-1.12a2 2 0 0 0-2 2zM10 16a2 2 0 0 0-2-2h-.09l-.026.001-.051.001h-.104l-.05.002-.024.001-.05.002h-.002l-.023.001-.051.002h-.001l-.037.002-.025.002-.026.001h-.001l-.1.008-.025.003-.075.006h-.001l-.024.002-.025.002h-.001l-.024.002-.026.003-.023.002-.025.003-.014.002-.024.003-.05.006h-.001l-.024.003h-.001l-.024.003-.037.005-.024.003-.025.004-.013.002-.024.003-.025.004-.026.004-.024.003-.001.001-.037.006-.023.004h-.002l-.023.004-.013.002-.048.008-.025.005-.037.006-.025.005h-.001l-.023.004-.061.012h-.001l-.023.005-.024.005-.037.008-.024.005H6.32l-.024.005c-2.1.46-3.897 1.751-5.028 3.507a2 2 0 0 0 .601 2.759 1.99 1.99 0 0 0 1.082.319 2 2 0 0 0 1.683-.917A4 4 0 0 1 8 18a2 2 0 0 0 2-2z"/><use xlink:href="#B" y="16"/><use xlink:href="#B" y="32"/><use xlink:href="#B" y="48"/><path d="M79.683 76.81a2 2 0 0 1 1.131-1.541l3.723-1.751-18.525-3.85 5.793 17.162 1.705-4.054a2 2 0 0 1 1.385-1.171 1.99 1.99 0 0 1 .459-.053 2 2 0 0 1 1.303.482l11.91 10.226 3.514-3.604-11.718-10.06a2 2 0 0 1-.679-1.787zM120 30H24c-4.4 0-8 3.6-8 8v68c0 4.4 3.6 8 8 8h96c4.4 0 8-3.6 8-8V38c0-4.4-3.6-8-8-8zM67 54a2 2 0 1 1 4 0v6a2 2 0 1 1-4 0v-6zM56.329 71.973l-6 1a2.01 2.01 0 0 1-.331.028 2 2 0 0 1-.326-3.973l6-1c1.083-.182 2.12.554 2.301 1.644a2 2 0 0 1-1.644 2.301zm3.085-9.559a1.99 1.99 0 0 1-2.828 0l-6-6a2 2 0 0 1 2.828-2.828l6 6a2 2 0 0 1 0 2.828zm37.018 27.509l-6.312 6.473c-.391.401-.911.604-1.433.604a2 2 0 0 1-1.302-.482l-11.252-9.661-2.689 6.396c-.322.767-1.089 1.252-1.916 1.223a2 2 0 0 1-1.823-1.359l-8.6-25.477a2 2 0 0 1 .398-1.966c.476-.536 1.205-.777 1.904-.632l27.808 5.779a2 2 0 0 1 .444 3.768l-6.346 2.985 10.991 9.436a2 2 0 0 1 .129 2.914z"/><defs ><path id="B" d="M2 35.44a2 2 0 0 0 2-2v-8a2 2 0 1 0-4 0v8a2 2 0 0 0 2 2z"/></defs></svg>