<svg xmlns="http://www.w3.org/2000/svg" viewBox="0 0 300 300" height="75" width="75"  fill="#1dafb9" xmlns:v="https://vecta.io/nano"><path d="M150 12C73.8 12 12 73.8 12 150s61.8 138 138 138 138-61.8 138-138S226.2 12 150 12zm0 246c-59.6 0-108-48.4-108-108S90.4 42 150 42c59.7 0 108 48.4 108 108s-48.4 108-108 108z"/><circle cx="109.5" cy="116.6" r="20"/><circle cx="190.5" cy="116.6" r="20"/><path d="M212.5 173.6c-6.4-3.9-14.7-1.9-18.6 4.5-8.1 13.3-25.4 21.9-44 21.9s-35.8-8.6-44-21.9c-3.9-6.4-12.2-8.4-18.6-4.5s-8.4 12.2-4.5 18.6c13.1 21.5 38.8 34.8 67 34.8s53.9-13.3 67-34.8c4.1-6.3 2.1-14.7-4.3-18.6z"/></svg>