<svg xmlns="http://www.w3.org/2000/svg" height="300" width="300" fill="#1BA2AC" viewBox="0 0 68 62"  xmlns:v="https://vecta.io/nano"><path fill-rule="evenodd" d="M35.195 62H3.828l15.683-15.683L35.195 62zm30.78-.196c.07.129.08.196.025.196H40.852L29.751 50.898l12.66-12.66 23.565 23.565zM68 58.172V20a2 2 0 0 0-2-2H2a2 2 0 0 0-2 2l.007 40.165 18.091-18.091a2 2 0 0 1 2.828 0l5.996 5.996 14.074-14.074a2 2 0 0 1 2.828 0L68 58.172zM19 32a5 5 0 1 0 0-10 5 5 0 1 0 0 10zM63 7.828l-1.879 1.879A1 1 0 0 1 59.7 9.7L58.3 8.3c-.394-.394-.397-1.031-.007-1.42L60.172 5l-1.879-1.879A1 1 0 0 1 58.3 1.7L59.7.3c.394-.394 1.031-.397 1.42-.007L63 2.172 64.879.292A1 1 0 0 1 66.3.3L67.7 1.7c.394.394.397 1.031.007 1.42L65.828 5l1.879 1.879A1 1 0 0 1 67.7 8.3L66.3 9.7c-.394.394-1.031.397-1.42.007L63 7.828z"/></svg>