<svg xmlns="http://www.w3.org/2000/svg" height="300" width="300" fill="#1BA2AC" viewBox="0 0 100 100"  xmlns:v="https://vecta.io/nano"><path d="M22.5 70h45c2.5 0 2.5 0 2.5-2.5v-45c0-2.5 0-2.5-2.5-2.5h-45C20 20 20 20 20 22.5v45c0 2.5 0 2.5 2.5 2.5zm9.55-12.1c-3.3-3.3-3.2-8.6.05-11.8l5.7-5.7c.55-.55 1.15-1.05 1.85-1.4 3.8-2.2 8.65-1 11 2.55l-3.4 3.3c-.75-1.75-2.65-2.75-4.65-2.5-.75.2-1.45.55-2 1.1l-5.4 5.4c-1.6 1.6-1.45 4.25.1 5.85 1.6 1.55 4.2 1.65 5.8.05l1.1-1.1c1.55.6 3.3 1.1 5.55.4L43.9 57.9c-3.2 3.2-8.55 3.35-11.85 0zM32.5 80h45c2.5 0 2.5 0 2.5-2.5v-45c0-2.5 0-2.5-2.5-2.5H75v45H30v2.5c0 2.5 0 2.5 2.5 2.5zm18.1-29.2c-3.85 2.15-8.7.95-11.05-2.55l3.4-3.3c.75 1.75 2.65 2.75 4.65 2.45.75-.15 1.45-.5 2-1.1l5.2-5.15c1.6-1.6 1.45-4.25-.1-5.85-1.55-1.55-4.2-1.65-5.8-.05l-1.1 1.1c-1.55-.65-3.3-1.15-5.55-.4l3.85-3.85c3.2-3.25 8.55-3.35 11.85-.05 3.3 3.35 3.2 8.6-.05 11.85l-5.5 5.5c-.55.55-1.15 1.05-1.8 1.4zm0 0"/></svg>