<svg xmlns="http://www.w3.org/2000/svg" xmlns:xlink="http://www.w3.org/1999/xlink" fill="#1BA2AC" viewBox="0 0 300 300" xmlns:v="https://vecta.io/nano"><path d="M268.4 15.2H33c-9.5 0-17.3 7.8-17.3 17.3v235.4c0 9.5 7.8 17.3 17.3 17.3h235.4c9.5 0 17.3-7.8 17.3-17.3V32.5a17.31 17.31 0 0 0-17.3-17.3zM63 35.6h203.1a4.91 4.91 0 0 1 4.9 4.9 4.91 4.91 0 0 1-4.9 4.9H63a4.91 4.91 0 0 1-4.9-4.9 4.91 4.91 0 0 1 4.9-4.9zM42.4 32c4.7 0 8.5 3.8 8.5 8.5S47.1 49 42.4 49s-8.5-3.8-8.5-8.5 3.8-8.5 8.5-8.5zm226 238.2H33c-1.2 0-2.3-1.1-2.3-2.3V63.4h240v204.5c0 1.2-1.1 2.3-2.3 2.3zM52.8 83.9H113V131H52.8zm67.7 0h60.2V131h-60.2zm68.4 0h60.2V131h-60.2z"/><use xlink:href="#B"/><use xlink:href="#C"/><use xlink:href="#B" x="46.3"/><path d="M52.5 176.9h60.2V224H52.5zm67.8 0h60.2V224h-60.2zm68.3 0h60.2V224h-60.2z"/><use xlink:href="#C" x="-23.4" y="93"/><use xlink:href="#B" x="22.9" y="93"/><use xlink:href="#C" x="22.9" y="93"/><defs ><path id="B" d="M127.5 155.6a7.13 7.13 0 0 0 7.1-7.1 7.13 7.13 0 0 0-7.1-7.1 7.13 7.13 0 0 0-7.1 7.1c.1 4 3.2 7.1 7.1 7.1"/><path id="C" d="M150.7 155.6a7.13 7.13 0 0 0 7.1-7.1 7.13 7.13 0 0 0-7.1-7.1 7.13 7.13 0 0 0-7.1 7.1c0 4 3.2 7.1 7.1 7.1"/></defs></svg>