<svg xmlns="http://www.w3.org/2000/svg" height="300" width="300" fill="#1BA2AC" viewBox="0 0 100 100"  xmlns:v="https://vecta.io/nano"><path d="M93.9 66.74H81.08a1 1 0 0 1-1-1V26.46a1 1 0 0 1 .29-.71l13.07-13.07a1.85 1.85 0 0 0 0-2.62L90.2 6.85a1.86 1.86 0 0 0-2.63 0l-13 13a1 1 0 0 1-.71.3H34.41a1 1 0 0 1-1-1V6.18a2.17 2.17 0 0 0-2.22-2.1H22.3a2.16 2.16 0 0 0-2.22 2.1v12.9a1 1 0 0 1-1 1H6.18a2.16 2.16 0 0 0-2.1 2.22v8.89a2.17 2.17 0 0 0 2.1 2.22h12.9a1 1 0 0 1 1 1V78A2.15 2.15 0 0 0 22 80.05a2.4 2.4 0 0 0 .28 0h43.46a1 1 0 0 1 1 1V93.9a2.13 2.13 0 0 0 2.22 2h8.89a2.13 2.13 0 0 0 2.23-2V81.08a1 1 0 0 1 1-1H93.9a2.13 2.13 0 0 0 2-2.23V69a2.13 2.13 0 0 0-2-2.26zM59.26 35.12L35.12 59.26a1 1 0 0 1-1.71-.7V34.41a1 1 0 0 1 1-1h24.15a1 1 0 0 1 .7 1.71zM41.09 65L65 41.09a1 1 0 0 1 1.7.7v23.95a1 1 0 0 1-1 1H41.79a1 1 0 0 1-.7-1.74z"/></svg>