<svg xmlns="http://www.w3.org/2000/svg" height="300" width="300" fill="#1BA2AC" viewBox="0 0 100 100"  xmlns:v="https://vecta.io/nano"><circle cx="45.215" cy="12.772" r="7.772" transform="matrix(.973249 -.229754 .229754 .973249 -1.72495 10.73008)"/><path d="M16.356 15.736h17.828a11.317 11.317 0 0 1 0-5.931H16.356a.989.989 0 0 0-.989.989v3.954a.989.989 0 0 0 .989.988zm67.288 0a.988.988 0 0 0 .988-.988v-3.954a.989.989 0 0 0-.988-.988H56.247a11.314 11.314 0 0 1 0 5.931zm-64.02 50.112a4.394 4.394 0 0 0-2.38 3.325c-.127 1.23.344 2.718 1.722 3.006a15.115 15.115 0 0 1 4.374-.127 19.113 19.113 0 0 1 7.376 6.213c3.297 4.931 7.316 7.967 12.567 10.921a3.964 3.964 0 0 1 1.899 3.497A2.351 2.351 0 0 0 47.533 95h19.805a2.351 2.351 0 0 0 2.351-2.351v-3.643c0-4.19 3.164-8.072 3.977-12.656a36.022 36.022 0 0 0-.862-16.732c-.632-2.239-1.722-4.046-3.646-4.046h-.79a3.444 3.444 0 0 0-3.484 3.401v-2.896a3.444 3.444 0 0 0-3.484-3.401h-.79a3.444 3.444 0 0 0-3.484 3.401v-2.37a3.444 3.444 0 0 0-3.484-3.401h-.79a3.327 3.327 0 0 0-3.374 2.543c.121-4.821.048-13.552-.072-19.536a4.191 4.191 0 0 0-8.38-.042c-.253 8.414-.474 22.086-.134 31.124.279 7.414-2.312 4.868-3.874 3.709-3.541-2.246-4.629-3.619-9.328-3.993a14.927 14.927 0 0 0-8.066 1.738z"/></svg>