<svg xmlns="http://www.w3.org/2000/svg" height="300" width="300" fill="#1BA2AC" viewBox="0 0 68 46"  xmlns:v="https://vecta.io/nano"><path fill-rule="evenodd" d="M16 3.997C16 1.787 17.787 0 20.002 0h27.997A4 4 0 0 1 52 3.997v22.006C52 28.213 50.213 30 47.998 30H20.002A4 4 0 0 1 16 26.003V3.997zM28 9v12c0 1.555 1.696 2.515 3.029 1.715l10-6c1.295-.777 1.295-2.653 0-3.43l-10-6C29.696 6.485 28 7.445 28 9zm4 8.468v-4.935L36.113 15 32 17.468zM0 28V2a2 2 0 0 1 2-2h6.002C10.216 0 12 1.788 12 3.997v22.006A4 4 0 0 1 8.002 30H2a2 2 0 0 1-2-2zm66 2h-6.002A4 4 0 0 1 56 26.003V3.997C56 1.788 57.784 0 59.998 0H66a2 2 0 0 1 2 2v26a2 2 0 0 1-2 2zM17 46a1 1 0 0 1-1-1v-2a1 1 0 0 1 1-1h14a1 1 0 0 1 1 1h0v2a1 1 0 0 1-1 1H17zm0-8a1 1 0 0 1-1-1v-2a1 1 0 0 1 1-1h26a1 1 0 0 1 1 1v2a1 1 0 0 1-1 1H17z"/></svg>