<svg xmlns="http://www.w3.org/2000/svg" xmlns:xlink="http://www.w3.org/1999/xlink" viewBox="0 0 920 540" xmlns:v="https://vecta.io/nano"><style><![CDATA[.B{fill:#1daeb9}.C{opacity:.7}.D{fill:#d7e8e8}.E{opacity:.4}]]></style><ellipse cx="465.1" cy="430.2" rx="118.6" ry="12.8" class="B C"/><path fill="#010b15" d="M625.8,366.9H307.6V185.5c0-4.2,3.4-7.6,7.6-7.6h303c4.2,0,7.6,3.4,7.6,7.6V366.9z"/><path fill="#143544" d="M307.6,366.9V186.1c0-4.5,3.7-8.2,8.2-8.2h301.8c4.5,0,8.2,3.7,8.2,8.2L307.6,366.9z" opacity=".5"/><path d="M307.6 366.9h318.2v21.8a7.6 7.6 0 0 1-7.6 7.6h-303a7.6 7.6 0 0 1-7.6-7.6v-21.8z" class="D"/><path fill="#e8f7f8" d="M319.7 190h294.1v165.2H319.7z"/><circle fill="#fff" cx="466.7" cy="183.6" r="1.8"/><g class="D"><path d="M515.1 431.4s-9.4-2.7-11.8-3.6c-1.3-.5-1.7-3-1.9-4.1l-2.9-27.5h-63.6l-2.9 27.5c-.1 1.1-.6 3.6-1.9 4.1-2.3.9-11.8 3.6-11.8 3.6-.5 0-.8.4-.8.8 0 .5.4.8.8.8H515c.5 0 .8-.4.8-.8.1-.4-.3-.8-.7-.8z"/><path d="M499.1 402.1l-65.8 9.6 1.6-15.4h63.6z"/></g><path d="M277.2 265.9c5-.9 8.9-4.9 9.8-9.8 0-.2.4-.2.4 0 .9 5 4.9 8.9 9.8 9.8.2 0 .2.4 0 .4-5 .9-8.9 4.9-9.8 9.8 0 .2-.4.2-.4 0-.9-5-4.9-8.9-9.8-9.8-.3-.1-.3-.4 0-.4zm360.1 21.8c5-.9 8.9-4.9 9.8-9.8 0-.2.4-.2.4 0 .9 5 4.9 8.9 9.8 9.8.2 0 .2.4 0 .4-5 .9-8.9 4.9-9.8 9.8 0 .2-.4.2-.4 0-.9-5-4.9-8.9-9.8-9.8-.2-.1-.2-.4 0-.4z" fill="#c8417d"/><use xlink:href="#C" fill="#ff6d53"/><path fill="#02c7a8" d="M655.6 252.9a7.04 7.04 0 0 0 5.6-5.6c0-.1.2-.1.2 0a7.04 7.04 0 0 0 5.6 5.6c.1 0 .1.2 0 .2a7.04 7.04 0 0 0-5.6 5.6c0 .1-.2.1-.2 0a7.04 7.04 0 0 0-5.6-5.6c-.1 0-.1-.2 0-.2z"/><g fill="#f5a31e"><use xlink:href="#C" x="367.7" y="-30"/><circle cx="261.2" cy="289.9" r="1.5"/></g><g fill="#ff6d53"><circle cx="299.2" cy="312.1" r="1.5"/><circle cx="637.1" cy="258.8" r="1.5"/><circle cx="565.7" cy="404.8" r="1.5"/></g><circle fill="#f5a31e" cx="374.6" cy="407" r="1.5"/><g fill="#02c7a8"><circle cx="682.2" cy="320.3" r="1.5"/><circle cx="272.3" cy="196.3" r="1.5"/></g><path fill="#fff" d="M608.1,211.5v129.6c0,2.6-2.5,4.6-5.7,4.6H331.1c-3.1,0-5.7-2.1-5.7-4.6V211.5H608.1z"/><circle fill="#e8a59e" cx="459.7" cy="307.7" r="2.1"/><circle fill="#624675" cx="465.7" cy="307.7" r="2.1"/><circle fill="#e8a59e" cx="471.1" cy="307.7" r="2.1"/><path fill="#395962" d="M602.5 201.3H331.1c-3.1 0-5.7 2-5.7 4.5v6.7H608v-6.7c.1-2.5-2.4-4.5-5.5-4.5z"/><use xlink:href="#D" class="B C"/><path d="M385.5 298.5h-38.7c-1.3 0-2.4-.9-2.4-2.1v-18.6h43.5v18.6c0 1.2-1 2.1-2.4 2.1z" class="D"/><g class="B"><use xlink:href="#E"/><path d="M382.8 288.7h-33.2c-.8 0-1.5-.5-1.5-1.2h0c0-.7.7-1.2 1.5-1.2h33.2c.8 0 1.5.5 1.5 1.2h0c0 .7-.7 1.2-1.5 1.2z"/><use xlink:href="#F" class="E"/><use xlink:href="#D" x="50.8" class="C"/></g><use xlink:href="#G" class="D"/><g class="B"><path d="M433.9 283.9H400c-.7 0-1.2-.5-1.2-1.2h0c0-.7.5-1.2 1.2-1.2h33.9c.7 0 1.2.5 1.2 1.2h0c0 .7-.5 1.2-1.2 1.2zm-.1 4.8h-33.7c-.7 0-1.3-.5-1.3-1.2h0c0-.7.6-1.2 1.3-1.2h33.7c.7 0 1.3.5 1.3 1.2h0c0 .7-.6 1.2-1.3 1.2z"/><path d="M417 293.6h-17c-.7 0-1.2-.5-1.2-1.2h0c0-.7.5-1.2 1.2-1.2h17c.7 0 1.2.5 1.2 1.2h0c0 .6-.6 1.2-1.2 1.2z" class="E"/><path d="M489.5 277.9H446v-30c0-1.2 1.1-2.1 2.4-2.1h38.7c1.3 0 2.4 1 2.4 2.1v30z" class="C"/></g><use xlink:href="#G" x="50.8" class="D"/><g class="B"><use xlink:href="#H"/><path d="M484.2 288.7h-33c-.9 0-1.6-.5-1.6-1.2h0c0-.7.7-1.2 1.6-1.2h33c.9 0 1.6.5 1.6 1.2h0c.1.7-.6 1.2-1.6 1.2z"/><path d="M467.7 293.6h-16.9c-.7 0-1.2-.5-1.2-1.2h0c0-.7.5-1.2 1.2-1.2h16.9c.7 0 1.2.5 1.2 1.2h0c.1.6-.5 1.2-1.2 1.2z" class="E"/><use xlink:href="#D" x="152.4" class="C"/></g><use xlink:href="#G" x="101.6" class="D"/><g class="B"><use xlink:href="#H" x="50.8"/><path d="M535.3 288.7h-33.5c-.8 0-1.4-.5-1.4-1.2h0c0-.7.6-1.2 1.4-1.2h33.5c.8 0 1.4.5 1.4 1.2h0c0 .7-.7 1.2-1.4 1.2z"/><use xlink:href="#F" x="152.3" class="E"/><path d="M591.1 277.9h-43.5v-30.5c0-.9.9-1.7 1.9-1.7h39.7c1 0 1.9.8 1.9 1.7v30.5z" class="C"/></g><path d="M589.2 298.5h-39.7c-1 0-1.9-.7-1.9-1.6v-19h43.5v19c0 .9-.9 1.6-1.9 1.6z" class="D"/><g class="B"><use xlink:href="#E" x="203.1"/><use xlink:href="#E" x="203.1" y="4.8"/><use xlink:href="#F" x="203.1" class="E"/></g><circle fill="#e83d6a" cx="336" cy="206.9" r="2.1"/><circle fill="#ffc800" cx="344.3" cy="206.9" r="2.1"/><circle fill="#27c840" cx="352.6" cy="206.9" r="2.1"/><path opacity=".5" d="M598.2 271.6a1.08 1.08 0 0 1-.7-.3c-.4-.4-.4-1 0-1.4l2.9-2.9-2.9-2.9c-.4-.4-.4-1 0-1.4s1-.4 1.4 0l3.6 3.6c.2.2.3.4.3.7s-.1.5-.3.7l-3.6 3.6c-.2.3-.4.3-.7.3zm-262.6-.3l-3.6-3.6c-.2-.2-.3-.4-.3-.7s.1-.5.3-.7l3.6-3.6c.4-.4 1-.4 1.4 0s.4 1 0 1.4l-2.9 2.9 2.9 2.9c.4.4.4 1 0 1.4a1.08 1.08 0 0 1-.7.3c-.2 0-.5 0-.7-.3z" fill="#624675"/><path opacity=".3" d="M920 374.6V540H0V390.2c108.5-16.7 174.1-8.1 214.6 3.5 29.2 8.4 51.2 20 94.4 23 52.6 3.6 65.2-10.6 123.1-15.9 85.3-7.9 148.5 31.9 250.9 15.3 67.8-11 69.5-39.6 147.2-45.8 36-3 66.3.8 89.8 4.3z" class="B"/><path fill="#1ea7b5" d="M0 520.2h920V540H0z" class="C"/><linearGradient id="A" gradientUnits="userSpaceOnUse" x1="165.185" y1="134.555" x2="230.87" y2="68.87"><stop offset="0" stop-color="#225e64"/><stop offset="0" stop-color="#187895"/><stop offset="1" stop-color="#1caab7"/></linearGradient><path fill="url(#A)" d="M227.8 135.8h-59.6c-2.4 0-4.3-1.9-4.3-4.3V71.9c0-2.4 1.9-4.3 4.3-4.3h59.6c2.4 0 4.3 1.9 4.3 4.3v59.6c0 2.4-1.9 4.3-4.3 4.3z"/><g opacity=".9" fill="#fff"><path d="M209 104.3l-5.3-6.6 3.2-2.6 5.4 6.6z"/><path d="M206.9 108.3l-3.2-2.5 5.4-6.7 3.2 2.6zm-19.8-4l-3.3-2.6 5.3-6.6 3.3 2.6z"/><path d="M189.1 108.3l-5.3-6.6 3.2-2.6 5.3 6.7zm32.7 12h-47.6V83.2h47.6v37.1zm-42.2-5.4h36.9V88.6h-36.9v26.3z"/></g><g fill="#1a9faf"><path d="M262.9 80.2H259v14h-3.1v-14H252v-2.7h10.8v2.7zm11.4 2.9c.6.8.9 1.8.9 3.2v7.9h-3.1v-7.6c0-.7-.2-1.2-.5-1.6s-.8-.6-1.3-.6c-.4 0-.7.1-1.1.3-.3.2-.6.5-.8.8s-.3.7-.3 1.1v7.6h-3V75.9h2.8v6l-.1 1.8c.8-1.2 2-1.8 3.6-1.8 1.4.1 2.3.4 2.9 1.2z"/><use xlink:href="#I"/><use xlink:href="#J"/><use xlink:href="#K"/><use xlink:href="#L"/><path d="M339.3 94.1c-.5-.3-.9-.8-1.1-1.4s-.3-1.4-.3-2.4v-5.5h-1.6v-2.5h1.7l.2-2.5 2.6-1.1v3.6h3v2.5h-3v5.5c0 .7.1 1.1.3 1.4s.5.4.8.4.7-.1 1.1-.3.7-.4 1-.6l.6 2.4c-.4.2-.9.5-1.5.6-.7.2-1.2.3-1.6.3-1 .1-1.7-.1-2.2-.4zm21.2-15.3c1.1.9 1.7 2.4 1.7 4.5a8.29 8.29 0 0 1-.6 3.2c-.4 1-1.1 1.7-2 2.3s-2 .9-3.4.9h-1.5v4.5h-3.1V77.5h4.5c1.8 0 3.3.4 4.4 1.3zm-2.2 7.4c.5-.6.8-1.5.8-2.8 0-.8-.1-1.5-.3-2s-.6-.9-1-1.2-1.1-.4-1.9-.4h-1.2v7.3h1.3c1 .1 1.8-.2 2.3-.9zm7.9 7.5c-.8-.5-1.5-1.2-1.9-2.1s-.6-2-.6-3.4c0-1.3.2-2.4.7-3.4.4-.9 1.1-1.6 1.9-2.1s1.9-.7 3-.7c1.2 0 2.1.3 3 .8.8.5 1.4 1.2 1.8 2.2s.6 2 .6 3.3-.2 2.4-.6 3.3a5.1 5.1 0 0 1-1.9 2.2c-.8.5-1.8.8-3 .8-1.2-.2-2.2-.4-3-.9zm4.7-2.6c.4-.6.6-1.6.6-2.9s-.2-2.2-.6-2.9-1-1-1.7-1c-.8 0-1.4.3-1.8.9s-.6 1.6-.6 2.9.2 2.3.6 2.9 1 .9 1.8.9c.8.1 1.4-.2 1.7-.8zm5-8.9h3l1.4 5.7.6 2.5.5-2.5 1.6-5.7h2.5l1.7 5.7.6 2.5.6-2.5 1.4-5.7h3l-3.8 12h-2.4l-1.9-6.5-.4-1.9-.4 1.9-1.8 6.5h-2.4l-3.8-12zm20.4 11.5c-.8-.5-1.5-1.3-1.8-2.2s-.6-2-.6-3.1c0-1.2.2-2.3.7-3.2.4-1 1.1-1.7 1.9-2.3s1.8-.9 3-.9c1.7 0 3 .5 3.7 1.5s1.1 2.5 1.1 4.5v1.3H397c0 1 .3 1.7.8 2.2s1.2.8 2.2.8c.5 0 1-.1 1.6-.3a3.22 3.22 0 0 0 1.3-.8l1 2.3c-1.1.8-2.6 1.1-4.3 1.1-1.4-.1-2.4-.4-3.3-.9zm4.9-6.4c0-1.2-.1-2-.4-2.4s-.7-.7-1.3-.7c-.8 0-1.4.3-1.8.9s-.7 1.3-.7 2.2h4.2zm5.8-5.1h2.7l.1 2.1c.3-.6.7-1.1 1.2-1.6.6-.4 1.3-.7 2.3-.7.4 0 .8.1 1.1.2l-.7 3.1c-.1-.1-.3-.2-.5-.3s-.4-.1-.7-.1c-.6 0-1 .1-1.4.4a2.36 2.36 0 0 0-.9.8c-.2.3-.2.7-.2.9v7.2h-3v-12zm9.5 2.6h-1.6v-2.5h1.6V80c0-1.1.2-2 .6-2.7s.9-1.1 1.5-1.4 1.2-.4 1.9-.4 1.2.1 1.7.2c.4.1.7.2.8.3v2.6c-.2-.2-.4-.4-.8-.5-.3-.1-.7-.2-1-.2-1.3 0-1.9.6-1.9 1.9v2.3h2.9v2.5h-2.9V94h-2.9v-9.2z"/><use xlink:href="#M"/><path d="M437.5 76h2.9v18.2h-2.9V76zm11.7 18.1c-.5-.3-.9-.8-1.1-1.3s-.4-1.2-.4-1.8.2-1.2.6-1.7c.4-.6 1.1-1.1 2.1-1.5s2.3-.6 4-.6v-.6c0-.7-.2-1.2-.5-1.5-.3-.4-.9-.5-1.7-.5-.6 0-1.2.1-1.8.3a3.22 3.22 0 0 0-1.3.8l-1-2.3c.5-.4 1.2-.7 2-.9.8-.3 1.7-.4 2.6-.4 1.1 0 2 .2 2.7.5s1.1.8 1.4 1.5c.3.6.4 1.4.4 2.4v7.8h-2.6l-.2-1.7c-.4.7-.9 1.2-1.5 1.5s-1.3.5-2 .5c-.6-.1-1.2-.2-1.7-.5zm4.2-2.3c.4-.3.7-.7 1-1.1V89h-.6c-.8 0-1.5.1-2.2.4s-1 .7-1 1.3.1 1 .4 1.2.6.4 1.2.4c.4-.1.8-.2 1.2-.5z"/><use xlink:href="#N"/><path d="M475.4 93.8c-.7-.5-1.3-1.3-1.7-2.2s-.6-2-.6-3.3c0-2 .4-3.5 1.2-4.6s2-1.6 3.6-1.6c.8 0 1.5.2 2.1.6s.9 1 1.1 1.7l-.2-1.8V76h2.8v18.2h-2.6v-2.4c-.2.9-.6 1.5-1.2 2s-1.2.8-2.1.8c-.8-.1-1.7-.3-2.4-.8zm4.3-2.1a3.22 3.22 0 0 0 .8-1.3c.2-.6.3-1.3.3-2.2 0-1.3-.2-2.2-.5-2.9s-.9-1-1.6-1a1.92 1.92 0 0 0-1.2.4 2.73 2.73 0 0 0-.9 1.2c-.2.6-.4 1.3-.4 2.3 0 .9.1 1.6.3 2.2a3.22 3.22 0 0 0 .8 1.3 1.92 1.92 0 0 0 1.2.4c.5.1.9-.1 1.2-.4zm13.7 1.3c-1.1-1-1.6-2.6-1.6-4.8V77.5h3.1v11.1c0 1.3.3 2.1.8 2.6.6.5 1.2.7 2 .7s1.4-.2 1.9-.7.8-1.3.8-2.6V77.5h3.1v10.8c0 2.2-.5 3.9-1.6 4.8a6.5 6.5 0 0 1-4.2 1.5c-1.8-.1-3.2-.6-4.3-1.6z"/><use xlink:href="#O"/><path d="M519 93.7c-.8-.5-1.5-1.3-1.8-2.2s-.6-2-.6-3.1c0-1.2.2-2.3.7-3.2.4-1 1.1-1.7 1.9-2.3s1.8-.9 3-.9c1.7 0 3 .5 3.7 1.5S527 86 527 88v1.3h-7.2c0 1 .3 1.7.8 2.2s1.2.8 2.2.8c.5 0 1-.1 1.6-.3a3.22 3.22 0 0 0 1.3-.8l1 2.3c-1.1.8-2.6 1.1-4.3 1.1-1.5-.1-2.5-.4-3.4-.9zm4.9-6.4c0-1.2-.1-2-.4-2.4s-.7-.7-1.3-.7c-.8 0-1.4.3-1.8.9s-.7 1.3-.7 2.2h4.2z"/><use xlink:href="#P"/><path d="M538.4 85.9h7.7v2.4h-7.7v-2.4zm11.2-1.1H548v-2.5h1.6V80c0-1.1.2-2 .6-2.7s.9-1.1 1.5-1.4 1.2-.4 1.9-.4 1.2.1 1.7.2c.4.1.7.2.8.3v2.6c-.2-.2-.4-.4-.8-.5-.3-.1-.7-.2-1-.2-1.3 0-1.9.6-1.9 1.9v2.3h2.9v2.5h-2.9V94h-2.9v-9.2z"/><use xlink:href="#P" x="28"/><path d="M566.9 77.1h3.4v3.2h-3.4v-3.2zm.1 5.1h3.1v12H567v-12z"/><use xlink:href="#I" x="294.9"/><path d="M595.2 83.1c.6.8.9 1.8.9 3.2v7.9H593v-7.6c0-.7-.1-1.2-.4-1.6s-.7-.6-1.3-.6a1.69 1.69 0 0 0-1 .3c-.3.2-.6.5-.8.8s-.3.7-.3 1.1v7.6h-3.1v-12h2.8l.1 1.6c.8-1.2 2-1.9 3.5-1.9 1.2.1 2.1.4 2.7 1.2zm5.9 10.7c-.7-.5-1.3-1.3-1.7-2.2s-.6-2-.6-3.3c0-2 .4-3.5 1.2-4.6s2-1.6 3.6-1.6c.8 0 1.5.2 2.1.6s.9 1 1.1 1.7l-.2-1.8V76h2.8v18.2h-2.6v-2.4c-.2.9-.6 1.5-1.2 2s-1.2.8-2.1.8c-.9-.1-1.7-.3-2.4-.8zm4.3-2.1a3.22 3.22 0 0 0 .8-1.3c.2-.6.3-1.3.3-2.2 0-1.3-.2-2.2-.5-2.9s-.9-1-1.6-1a1.92 1.92 0 0 0-1.2.4 2.73 2.73 0 0 0-.9 1.2c-.2.6-.4 1.3-.4 2.3 0 .9.1 1.6.3 2.2a3.22 3.22 0 0 0 .8 1.3 1.92 1.92 0 0 0 1.2.4c.5.1.8-.1 1.2-.4zm7.7-15.7h2.9v18.2h-2.9V76zm9.1 17.4l-4.5-11.1h3.3l1.8 5.3.8 2.8.8-2.8 1.8-5.3h3.1l-6.1 16.5h-3l2-5.4z"/><use xlink:href="#J" x="339.7"/><use xlink:href="#M" x="229.1"/><path d="M666.6 76h2.9v18.2h-2.9V76zm8.4 18.1c-.5-.3-.9-.8-1.1-1.4s-.3-1.4-.3-2.4v-5.5H672v-2.5h1.7l.2-2.5 2.6-1.1v3.6h3v2.5h-3v5.5c0 .7.1 1.1.3 1.4s.5.4.8.4.7-.1 1.1-.3.7-.4 1-.6l.6 2.4c-.4.2-.9.5-1.5.6s-1.2.3-1.7.3c-.9.1-1.6-.1-2.1-.4zm7.4-17h3.4v3.2h-3.4v-3.2zm.1 5.1h3.1v12h-3.1v-12zm6.6 3.7h7.7v2.4h-7.7v-2.4zm11.1-3.7h2.9v.4l-.2 1.7c.1-.4.3-.9.7-1.2l1.3-.9c.5-.2 1-.3 1.5-.3 1.5 0 2.7.5 3.4 1.6s1.1 2.6 1.1 4.5c0 1.4-.2 2.5-.6 3.5a4.83 4.83 0 0 1-1.7 2.2c-.7.5-1.6.8-2.5.8-.8 0-1.5-.3-2.1-.8s-.9-1.2-1.1-1.9l.3 2.3v5.4h-2.9V82.2zm6.3 9.5c.4-.3.6-.7.9-1.3.2-.6.3-1.4.3-2.3s-.1-1.6-.3-2.1a3.22 3.22 0 0 0-.8-1.3c-.3-.3-.7-.4-1.2-.4s-.9.2-1.2.5-.6.8-.8 1.4-.3 1.3-.3 2c0 .8.1 1.4.3 2s.4 1 .8 1.3c.3.3.7.5 1.2.5.3.2.7 0 1.1-.3z"/><use xlink:href="#M" x="289.2"/><use xlink:href="#P" x="196.8"/><path d="M735.9 82.2h2.9v.4l-.2 1.7c.1-.4.3-.9.7-1.2l1.3-.9c.5-.2 1-.3 1.5-.3 1.5 0 2.7.5 3.4 1.6s1.1 2.6 1.1 4.5c0 1.4-.2 2.5-.6 3.5a4.83 4.83 0 0 1-1.7 2.2c-.7.5-1.6.8-2.5.8-.8 0-1.5-.3-2.1-.8s-.9-1.2-1.1-1.9l.3 2.3v5.4H736V82.2zm6.3 9.5c.4-.3.6-.7.9-1.3.2-.6.3-1.4.3-2.3s-.1-1.6-.3-2.1a3.22 3.22 0 0 0-.8-1.3c-.3-.3-.7-.4-1.2-.4s-.9.2-1.2.5-.6.8-.8 1.4-.3 1.3-.3 2c0 .8.1 1.4.3 2s.4 1 .8 1.3c.3.3.7.5 1.2.5.3.2.7 0 1.1-.3z"/><use xlink:href="#Q"/><use xlink:href="#O" x="255.5"/><use xlink:href="#R"/><path d="M271.1 106.3l-5.5 16.8h-.4l-3.9-9.6-3.9 9.6h-.4l-5.6-16.7h3.3l2.9 9.7 3.5-9.7h.4l3.5 9.7 2.7-9.7h3.4z"/><use xlink:href="#K" x="-42.2" y="28.8"/><use xlink:href="#S"/><path d="M295.2 122.6c-.7-.5-1.3-1.3-1.7-2.2s-.6-2-.6-3.3c0-2 .4-3.5 1.2-4.6s2-1.6 3.6-1.6c.8 0 1.5.2 2.1.6s.9 1 1.1 1.7l-.2-1.8v-6.6h2.8V123h-2.6v-2.4c-.2.9-.6 1.5-1.2 2s-1.2.8-2.1.8c-.9-.1-1.7-.3-2.4-.8zm4.3-2.1a3.22 3.22 0 0 0 .8-1.3c.2-.6.3-1.3.3-2.2 0-1.3-.2-2.2-.5-2.9-.4-.7-.9-1-1.6-1a1.92 1.92 0 0 0-1.2.4c-.4.2-.7.7-.9 1.2s-.4 1.3-.4 2.3c0 .9.1 1.6.3 2.2a3.22 3.22 0 0 0 .8 1.3c.3.3.8.4 1.2.4.5.1.8-.1 1.2-.4zm16.9-12.9c1.1.9 1.7 2.4 1.7 4.5a8.29 8.29 0 0 1-.6 3.2c-.4 1-1.1 1.7-2 2.3s-2 .9-3.4.9h-1.5v4.5h-3.1v-16.7h4.5c1.8 0 3.3.4 4.4 1.3zm-2.3 7.4c.5-.6.8-1.5.8-2.8 0-.8-.1-1.5-.3-2s-.6-.9-1-1.2-1.1-.4-1.9-.4h-1.2v7.3h1.3c1 .1 1.8-.2 2.3-.9z"/><use xlink:href="#S" x="35.6"/><use xlink:href="#I" x="50.4" y="28.8"/><use xlink:href="#L" x="14.7" y="28.8"/><use xlink:href="#L" x="25.2" y="28.8"/><path d="M369.7 122.3c-1-.7-1.9-1.6-2.5-3-.6-1.3-.9-3-.9-4.9 0-1.8.3-3.3.9-4.6s1.5-2.2 2.5-2.9c1.1-.7 2.3-1 3.6-1 .8 0 1.5.1 2.1.2.6.2 1 .3 1.3.5s.6.4.9.7l-1.3 2.5-.7-.7c-.2-.2-.5-.3-.8-.4s-.8-.1-1.3-.1c-.8 0-1.5.2-2.1.7s-1 1.1-1.3 1.9-.5 1.8-.5 2.9c0 1.3.2 2.5.5 3.4.3 1 .7 1.7 1.3 2.1s1.1.7 1.8.7 1.3-.1 1.9-.3c.5-.2 1-.5 1.3-.8l1.3 2.4c-.5.4-1.1.7-1.8 1s-1.6.4-2.8.4c-1.2.3-2.3 0-3.4-.7zm10.8.6c-.5-.3-.9-.8-1.1-1.3s-.4-1.2-.4-1.8.2-1.2.6-1.7c.4-.6 1.1-1.1 2.1-1.5s2.3-.6 4-.6v-.6c0-.7-.2-1.2-.5-1.5-.3-.4-.9-.5-1.7-.5-.6 0-1.2.1-1.8.3a3.22 3.22 0 0 0-1.3.8l-1-2.3c.5-.4 1.2-.7 2-.9s1.7-.4 2.6-.4c1.1 0 2 .2 2.7.5s1.1.8 1.4 1.5c.3.6.4 1.4.4 2.4v7.8H386l-.2-1.7c-.4.7-.9 1.2-1.5 1.5s-1.3.5-2 .5c-.8-.1-1.4-.2-1.8-.5zm4.2-2.3c.4-.3.7-.7 1-1.1v-1.7h-.6c-.8 0-1.5.1-2.2.4-.6.3-1 .7-1 1.3s.1 1 .4 1.2.6.4 1.2.4c.4-.1.8-.2 1.2-.5z"/><use xlink:href="#S" x="107.1"/><use xlink:href="#Q" x="-348.6" y="28.8"/><use xlink:href="#T"/><use xlink:href="#O" x="-80.1" y="28.8"/><path d="M438.9 122.5c-.8-.5-1.5-1.3-1.8-2.2s-.6-2-.6-3.1c0-1.2.2-2.3.7-3.2.4-1 1.1-1.7 1.9-2.3s1.8-.9 3-.9c1.7 0 3 .5 3.7 1.5s1.1 2.5 1.1 4.5v1.3h-7.2c0 1 .3 1.7.8 2.2s1.2.8 2.2.8c.5 0 1-.1 1.6-.3a3.22 3.22 0 0 0 1.3-.8l1 2.3c-1.1.8-2.6 1.1-4.3 1.1-1.5-.1-2.5-.4-3.4-.9zm5-6.4c0-1.2-.1-2-.4-2.4s-.7-.7-1.3-.7c-.8 0-1.4.3-1.8.9s-.7 1.3-.7 2.2h4.2zm5.9-11.3h2.9V123h-2.9v-18.2zm11.1 6.2h2.9v.4l-.2 1.7c.1-.4.3-.9.7-1.2l1.3-.9c.5-.2 1-.3 1.5-.3 1.5 0 2.7.5 3.4 1.6s1.1 2.6 1.1 4.5c0 1.4-.2 2.5-.6 3.5a4.83 4.83 0 0 1-1.7 2.2c-.7.5-1.6.8-2.5.8-.8 0-1.5-.3-2.1-.8s-.9-1.2-1.1-1.9l.3 2.3v5.4H461V111zm6.3 9.5c.4-.3.6-.7.9-1.3.2-.6.3-1.4.3-2.3s-.1-1.6-.3-2.1a3.22 3.22 0 0 0-.8-1.3c-.3-.3-.7-.4-1.2-.4s-.9.2-1.2.5-.6.8-.8 1.4-.3 1.3-.3 2c0 .8.1 1.4.3 2s.4 1 .8 1.3c.3.3.7.5 1.2.5.4.2.7 0 1.1-.3zm7.2-15.7h2.9V123h-2.9v-18.2z"/><use xlink:href="#T" x="67.2"/><use xlink:href="#U"/><path d="M507.3 105.9h3.4v3.2h-3.4v-3.2zm.1 5.1h3.1v12h-3.1v-12zm15.7.9c.6.8.9 1.8.9 3.2v7.9h-3v-7.6c0-.7-.1-1.2-.4-1.6s-.7-.6-1.3-.6a1.69 1.69 0 0 0-1 .3c-.3.2-.6.5-.8.8s-.3.7-.3 1.1v7.6h-3.1v-12h2.8l.1 1.6c.8-1.2 2-1.9 3.5-1.9 1.1.1 2 .4 2.6 1.2zm10.8 11c-.5-.3-.9-.8-1.1-1.4s-.3-1.4-.3-2.4v-5.5H531V111h1.7l.2-2.5 2.6-1.1v3.6h3v2.5h-3v5.5c0 .7.1 1.1.3 1.4s.5.4.8.4.7-.1 1.1-.3.7-.4 1-.6l.6 2.4c-.4.2-.9.5-1.5.6s-1.2.3-1.7.3c-1 .2-1.7 0-2.2-.3zm9-.4c-.8-.5-1.5-1.2-1.9-2.1s-.6-2-.6-3.4c0-1.3.2-2.4.7-3.4.4-.9 1.1-1.6 1.9-2.1s1.8-.7 3-.7 2.1.3 3 .8c.8.5 1.4 1.2 1.8 2.2s.6 2 .6 3.3-.2 2.4-.6 3.3a5.1 5.1 0 0 1-1.9 2.2c-.8.5-1.8.8-3 .8-1.2-.2-2.2-.4-3-.9zm4.8-2.6c.4-.6.6-1.6.6-2.9s-.2-2.2-.6-2.9-1-1-1.7-1c-.8 0-1.4.3-1.8.9s-.6 1.6-.6 2.9.2 2.3.6 2.9 1 .9 1.8.9c.7.1 1.3-.2 1.7-.8zM561 123c-.7-.2-1.2-.4-1.7-.7s-.9-.6-1.2-.9l1.2-2.5.8.8c.3.3.8.5 1.3.7s1 .3 1.4.3c.6 0 1.2-.2 1.6-.5s.6-.8.6-1.5c0-.4-.1-.8-.3-1.1s-.5-.6-.8-.8-.8-.6-1.5-1l-2.2-1.4c-.5-.4-1-.9-1.3-1.6s-.6-1.4-.6-2.3.2-1.7.6-2.4.9-1.2 1.7-1.6c.7-.4 1.6-.6 2.7-.6 1.7 0 3.1.5 4.3 1.6l-1.3 2.4c-.1-.2-.3-.4-.6-.6l-1-.6c-.4-.2-.8-.2-1.2-.2-.6 0-1.1.2-1.4.5s-.5.8-.5 1.3c0 .4.1.8.3 1.1s.5.6.8.8l1.3.9 2.3 1.5c.5.4 1 .9 1.3 1.6.4.6.5 1.4.5 2.3 0 1-.2 1.8-.6 2.5s-1 1.2-1.8 1.6-1.7.6-2.7.6c-.7.1-1.4 0-2-.2zm9.9-18.2h2.9V123h-2.9v-18.2zm6.4 1.1h3.4v3.2h-3.4v-3.2zm.2 5.1h3.1v12h-3.1v-12zm8.2 11.6c-.7-.5-1.3-1.3-1.7-2.2s-.6-2-.6-3.3c0-2 .4-3.5 1.2-4.6s2-1.6 3.6-1.6c.8 0 1.5.2 2.1.6s.9 1 1.1 1.7l-.2-1.8v-6.6h2.8V123h-2.6v-2.4c-.2.9-.6 1.5-1.2 2s-1.2.8-2.1.8c-.9-.1-1.7-.3-2.4-.8zm4.3-2.1a3.22 3.22 0 0 0 .8-1.3c.2-.6.3-1.3.3-2.2 0-1.3-.2-2.2-.5-2.9s-.9-1-1.6-1a1.92 1.92 0 0 0-1.2.4 2.73 2.73 0 0 0-.9 1.2c-.2.6-.4 1.3-.4 2.3 0 .9.1 1.6.3 2.2a3.22 3.22 0 0 0 .8 1.3 1.92 1.92 0 0 0 1.2.4c.5.1.8-.1 1.2-.4z"/><use xlink:href="#R" x="-175.7" y="28.8"/><use xlink:href="#V"/><path d="M636.7 111v12H634l-.1-1.5c-.4.6-.8 1-1.3 1.3s-1.2.5-2 .5c-1.2 0-2.1-.4-2.7-1.1s-.9-1.8-.9-3.2v-8h3v7.6c0 .7.1 1.2.4 1.6s.7.6 1.2.6a1.69 1.69 0 0 0 1-.3c.3-.2.5-.5.7-.8s.3-.7.3-1.2V111h3.1zm5.4 11.9c-.5-.3-.9-.8-1.1-1.4s-.3-1.4-.3-2.4v-5.5h-1.6V111h1.7l.2-2.5 2.6-1.1v3.6h3v2.5h-3v5.5c0 .7.1 1.1.3 1.4s.5.4.8.4.7-.1 1.1-.3.7-.4 1-.6l.6 2.4c-.4.2-.9.5-1.5.6s-1.2.3-1.7.3c-.9.2-1.6 0-2.1-.3z"/><use xlink:href="#V" x="40"/><path d="M667.4 113.6h-1.6V111h1.6v-2.2c0-1.1.2-2 .6-2.7s.9-1.1 1.5-1.4 1.2-.4 1.9-.4 1.2.1 1.7.2c.4.1.7.2.8.3v2.6c-.2-.2-.4-.4-.8-.5-.3-.1-.7-.2-1-.2-1.3 0-1.9.6-1.9 1.9v2.3h2.9v2.5h-2.9v9.4h-2.9v-9.2zm20.8 7h-6l-.9 2.4H678l7.1-17h.2l7.1 17h-3.3l-.9-2.4zm-.9-2.4l-1.8-4.6-.4-1.3-.4 1.3-1.7 4.6h4.3z"/><use xlink:href="#N" x="233.2" y="28.8"/><path d="M709.3 122.2l-4.5-11.1h3.3l1.8 5.3.8 2.8.8-2.8 1.8-5.3h3.1l-6.1 16.5h-3l2-5.4zm10.6.7c-.5-.3-.9-.8-1.1-1.4s-.3-1.4-.3-2.4v-5.5H717V111h1.7l.2-2.5 2.6-1.1v3.6h3v2.5h-3v5.5c0 .7.1 1.1.3 1.4s.5.4.8.4.7-.1 1.1-.3.7-.4 1-.6l.6 2.4c-.4.2-.9.5-1.5.6s-1.2.3-1.7.3c-1 .2-1.7 0-2.2-.3zm16.7-11c.6.8.9 1.8.9 3.2v7.9h-3.1v-7.6c0-.7-.2-1.2-.5-1.6s-.8-.6-1.3-.6c-.4 0-.7.1-1.1.3-.3.2-.6.5-.8.8s-.3.7-.3 1.1v7.6h-3v-18.3h2.8v6l-.1 1.8c.8-1.2 2-1.8 3.6-1.8 1.4.1 2.3.4 2.9 1.2zm4.4-6h3.4v3.2H741v-3.2zm.1 5.1h3.1v12h-3.1v-12z"/><use xlink:href="#N" x="287.3" y="28.8"/><use xlink:href="#U" x="267.3"/><path d="M774 119.4h2.8v3.6H774v-3.6z"/></g><defs ><path id="C" d="M266.3 249.3a7.04 7.04 0 0 0 5.6-5.6c0-.1.2-.1.2 0a7.04 7.04 0 0 0 5.6 5.6c.1 0 .1.2 0 .2a7.04 7.04 0 0 0-5.6 5.6c0 .1-.2.1-.2 0a7.04 7.04 0 0 0-5.6-5.6c-.2 0-.2-.2 0-.2z"/><path id="D" d="M387.9 277.9h-43.5v-30c0-1.2 1.1-2.1 2.4-2.1h38.7c1.3 0 2.4 1 2.4 2.1v30z"/><path id="E" d="M383.1 283.9h-33.9c-.7 0-1.2-.5-1.2-1.2h0c0-.7.5-1.2 1.2-1.2h33.9c.7 0 1.2.5 1.2 1.2h0c0 .7-.5 1.2-1.2 1.2z"/><path id="F" d="M366.2 293.6h-16.9c-.7 0-1.2-.5-1.2-1.2h0c0-.7.5-1.2 1.2-1.2h16.9c.7 0 1.2.5 1.2 1.2h0c0 .6-.5 1.2-1.2 1.2z"/><path id="G" d="M436.3 298.5h-38.7c-1.3 0-2.4-.9-2.4-2.1v-18.6h43.5v18.6c0 1.2-1.1 2.1-2.4 2.1z"/><path id="H" d="M484.7 283.9h-33.9c-.7 0-1.2-.5-1.2-1.2h0c0-.7.5-1.2 1.2-1.2h33.9c.7 0 1.2.5 1.2 1.2h0c0 .7-.6 1.2-1.2 1.2z"/><path id="I" d="M280.5 93.7c-.8-.5-1.5-1.3-1.8-2.2s-.6-2-.6-3.1c0-1.2.2-2.3.7-3.2.4-1 1.1-1.7 1.9-2.3s1.8-.9 3-.9c1.7 0 3 .5 3.7 1.5s1.1 2.5 1.1 4.5v1.3h-7.2c0 1 .3 1.7.8 2.2s1.2.8 2.2.8c.5 0 1-.1 1.6-.3a3.22 3.22 0 0 0 1.3-.8l1 2.3c-1.1.8-2.6 1.1-4.3 1.1-1.5-.1-2.6-.4-3.4-.9zm4.9-6.4c0-1.2-.1-2-.4-2.4s-.7-.7-1.3-.7c-.8 0-1.4.3-1.8.9s-.7 1.3-.7 2.2h4.2z"/><path id="J" d="M310.1 77.2v17h-3V87l.1-2.8-.9 1.3-3.3 3.9-3.3-3.9-.9-1.3.1 2.8v7.2h-3v-17h.2l6.8 8 6.7-8h.5z"/><path id="K" d="M315.6 93.7c-.8-.5-1.5-1.2-1.9-2.1s-.6-2-.6-3.4c0-1.3.2-2.4.7-3.4.4-.9 1.1-1.6 1.9-2.1s1.9-.7 3-.7c1.2 0 2.1.3 3 .8.8.5 1.4 1.2 1.8 2.2s.6 2 .6 3.3-.2 2.4-.6 3.3a5.1 5.1 0 0 1-1.9 2.2c-.8.5-1.8.8-3 .8-1.1-.2-2.1-.4-3-.9zm4.8-2.6c.4-.6.6-1.6.6-2.9s-.2-2.2-.6-2.9-1-1-1.7-1c-.8 0-1.4.3-1.8.9s-.6 1.6-.6 2.9.2 2.3.6 2.9 1 .9 1.8.9c.7.1 1.3-.2 1.7-.8z"/><path id="L" d="M327.5 94c-.7-.3-1.1-.6-1.4-.9l.9-2.3c1 .8 2.1 1.3 3.3 1.3.5 0 .9-.1 1.2-.3s.4-.5.4-.8-.2-.6-.7-.9-1.1-.6-1.9-1c-.6-.2-1-.5-1.4-.8s-.8-.6-1.1-1.1-.5-1-.5-1.6c0-.7.2-1.3.5-1.9.4-.5.9-.9 1.6-1.2s1.5-.4 2.4-.4c.6 0 1.1.1 1.6.2s.9.3 1.3.5.6.4.8.5l-.8 2.2c-.4-.3-.8-.5-1.3-.7s-1-.3-1.5-.3c-.6 0-1 .1-1.3.2-.2.2-.4.4-.4.8s.2.7.5.9l1.6.8c1.1.4 1.9.9 2.5 1.5s.9 1.3.9 2.1c0 .7-.2 1.3-.5 1.9s-.8 1-1.5 1.4c-.7.3-1.6.5-2.6.5-1-.2-1.9-.3-2.6-.6z"/><path id="M" d="M433.9 82.2v12h-2.7l-.1-1.5c-.4.6-.8 1-1.3 1.3s-1.2.5-2 .5c-1.2 0-2.1-.4-2.7-1.1s-.9-1.8-.9-3.2v-7.9h3v7.6c0 .7.1 1.2.4 1.6s.7.6 1.2.6a1.69 1.69 0 0 0 1-.3c.3-.2.5-.5.7-.8s.3-.7.3-1.2v-7.6h3.1z"/><path id="N" d="M469.6 83.1c.6.8.9 1.8.9 3.2v7.9h-3.1v-7.6c0-.7-.1-1.2-.4-1.6s-.7-.6-1.3-.6a1.69 1.69 0 0 0-1 .3c-.3.2-.6.5-.8.8s-.3.7-.3 1.1v7.6h-3.1v-12h2.8l.1 1.6c.8-1.2 2-1.9 3.5-1.9 1.2.1 2.1.4 2.7 1.2z"/><path id="O" d="M507.5 94c-.7-.3-1.1-.6-1.4-.9l.9-2.3c1 .8 2.1 1.3 3.3 1.3.5 0 .9-.1 1.2-.3s.4-.5.4-.8-.2-.6-.7-.9c-.4-.3-1.1-.6-1.9-1-.6-.2-1-.5-1.4-.8s-.8-.6-1.1-1.1-.5-1-.5-1.6c0-.7.2-1.3.5-1.9.4-.5.9-.9 1.6-1.2s1.5-.4 2.4-.4c.6 0 1.1.1 1.6.2s.9.3 1.3.5.6.4.8.5l-.8 2.2c-.4-.3-.8-.5-1.3-.7s-1-.3-1.5-.3c-.6 0-1 .1-1.3.2-.2.2-.4.4-.4.8s.2.7.5.9c.4.2.9.5 1.7.8 1.1.4 1.9.9 2.5 1.5s.9 1.3.9 2.1c0 .7-.2 1.3-.5 1.9s-.8 1-1.5 1.4c-.7.3-1.6.5-2.6.5-1.2-.2-2.1-.3-2.7-.6z"/><path id="P" d="M529.7 82.2h2.7l.1 2.1c.3-.6.7-1.1 1.2-1.6.6-.4 1.3-.7 2.3-.7.4 0 .8.1 1.1.2l-.7 3.1c-.1-.1-.3-.2-.5-.3s-.4-.1-.7-.1c-.6 0-1 .1-1.4.4a2.36 2.36 0 0 0-.9.8c-.2.3-.3.6-.3.8v7.2h-3V82.2z"/><path id="Q" d="M751.1 93.7c-.8-.5-1.5-1.2-1.9-2.1s-.6-2-.6-3.4c0-1.3.2-2.4.7-3.4.4-.9 1.1-1.6 1.9-2.1s1.8-.7 3-.7 2.1.3 3 .8c.8.5 1.4 1.2 1.8 2.2s.6 2 .6 3.3-.2 2.4-.6 3.3a5.1 5.1 0 0 1-1.9 2.2c-.8.5-1.8.8-3 .8-1.2-.2-2.2-.4-3-.9zm4.7-2.6c.4-.6.6-1.6.6-2.9s-.2-2.2-.6-2.9-1-1-1.7-1c-.8 0-1.4.3-1.8.9s-.6 1.6-.6 2.9.2 2.3.6 2.9 1 .9 1.8.9c.8.1 1.3-.2 1.7-.8z"/><path id="R" d="M774.5 93.7c-.8-.5-1.5-1.3-1.8-2.2s-.6-2-.6-3.1c0-1.2.2-2.3.7-3.2.4-1 1.1-1.7 1.9-2.3s1.8-.9 3-.9c1.7 0 3 .5 3.7 1.5s1.1 2.5 1.1 4.5v1.3h-7.2c0 1 .3 1.7.8 2.2s1.2.8 2.2.8c.5 0 1-.1 1.6-.3a3.22 3.22 0 0 0 1.3-.8l1 2.3c-1.1.8-2.6 1.1-4.3 1.1-1.5-.1-2.5-.4-3.4-.9zm4.9-6.4c0-1.2-.1-2-.4-2.4s-.7-.7-1.3-.7c-.8 0-1.4.3-1.8.9s-.7 1.3-.7 2.2h4.2z"/><path id="S" d="M284.6 111h2.7l.1 2.1c.3-.6.7-1.1 1.2-1.6.6-.4 1.3-.7 2.3-.7.4 0 .8.1 1.1.2l-.7 3.1c-.1-.1-.3-.2-.5-.3s-.4-.1-.7-.1c-.6 0-1 .1-1.4.4a2.36 2.36 0 0 0-.9.8c-.2.3-.3.6-.3.8v7.2h-3V111z"/><path id="T" d="M423.2 111v12h-2.7l-.1-1.5c-.4.6-.8 1-1.3 1.3s-1.2.5-2 .5c-1.2 0-2.1-.4-2.7-1.1s-.9-1.8-.9-3.2v-8h3v7.6c0 .7.1 1.2.4 1.6s.7.6 1.2.6a1.69 1.69 0 0 0 1-.3c.3-.2.5-.5.7-.8s.3-.7.3-1.2V111h3.1z"/><path id="U" d="M498.1 125.8c1 0 1.8-.3 2.3-.8s.8-1.4.8-2.5v-1.9c-.2.7-.5 1.4-1 1.8-.5.5-1.2.7-2.1.7s-1.8-.2-2.5-.6-1.3-1.1-1.7-2-.6-2.1-.6-3.5.2-2.6.6-3.5 1-1.6 1.7-2.1c.7-.4 1.5-.7 2.4-.7.6 0 1.2.1 1.6.3.5.2.8.5 1.1.9s.4.7.5 1.1l.3-2.1h2.4v11.4c0 1.2-.2 2.3-.6 3.2s-1 1.6-1.8 2.1-1.8.7-3 .7c-.9 0-1.7-.1-2.4-.3s-1.3-.5-1.8-.7l1.3-2.3c.8.5 1.6.8 2.5.8zm2.2-6c.4-.7.6-1.6.6-2.8s-.2-2.1-.5-2.8c-.4-.7-.9-1-1.6-1a1.92 1.92 0 0 0-1.2.4 2.73 2.73 0 0 0-.9 1.2c-.2.6-.3 1.3-.3 2.2 0 1.2.2 2.2.6 2.8s1 .9 1.7.9c.7.1 1.2-.2 1.6-.9z"/><path id="V" d="M615.9 122.5c-.8-.5-1.5-1.2-1.9-2.1s-.6-2-.6-3.4c0-1.3.2-2.4.7-3.4.4-.9 1.1-1.6 1.9-2.1s1.8-.7 3-.7 2.1.3 3 .8c.8.5 1.4 1.2 1.8 2.2s.6 2 .6 3.3-.2 2.4-.6 3.3a5.1 5.1 0 0 1-1.9 2.2c-.8.5-1.8.8-3 .8-1.1-.2-2.1-.4-3-.9zm4.8-2.6c.4-.6.6-1.6.6-2.9s-.2-2.2-.6-2.9-1-1-1.7-1c-.8 0-1.4.3-1.8.9s-.6 1.6-.6 2.9.2 2.3.6 2.9 1 .9 1.8.9c.7.1 1.3-.2 1.7-.8z"/></defs></svg>