<svg xmlns="http://www.w3.org/2000/svg" viewBox="0 0 1418.9 916.3"  xmlns:v="https://vecta.io/nano"><path fill="#395962" d="M1409.6 916.3H9.3c-5.1 0-9.3-4.2-9.3-9.3v-9.7c0-5.1 4.2-9.3 9.3-9.3h1400.3c5.1 0 9.3 4.2 9.3 9.3v9.7c0 5.1-4.1 9.3-9.3 9.3z"/><path fill="#333" d="M1223.2 890.2H236.4c-20.3 0-36.8-16.5-36.8-36.8V151.8c0-20.3 16.5-36.8 36.8-36.8h986.8c20.3 0 36.8 16.5 36.8 36.8v701.6c0 20.3-16.5 36.8-36.8 36.8z"/><path fill="#daeef7" d="M1184.5 860H238.8c-6.5 0-11.7-5.3-11.7-11.7v-691c0-6.5 5.3-11.7 11.7-11.7h945.7V860z"/><path fill="#fff" d="M265.8 240.3h873.6v583.6H265.8z"/><path fill="#395962" d="M1139.5 256.9v-45c0-15.4-12.5-27.9-27.9-27.9H293.8c-15.4 0-27.9 12.5-27.9 27.9v45h873.6z"/><path fill="#fff" d="M1086.6 238.2H741.4a15.41 15.41 0 0 1-15.4-15.4v-4.6a15.41 15.41 0 0 1 15.4-15.4h345.2a15.41 15.41 0 0 1 15.4 15.4v4.6a15.41 15.41 0 0 1-15.4 15.4z"/><g fill="#daeef7"><path opacity=".3" d="M1250.3 500.4c1.3 16.6-12.4 30.3-29 29-13-1-23.6-11.6-24.6-24.6-1.3-16.6 12.4-30.3 29-29 13 1 23.5 11.6 24.6 24.6z"/><path d="M1231.5 513.8h-16c-1.8 0-3.2-1.4-3.2-3.2v-16c0-1.8 1.4-3.2 3.2-3.2h16c1.8 0 3.2 1.4 3.2 3.2v16c0 1.8-1.5 3.2-3.2 3.2zm-16.1-21.6a2.26 2.26 0 0 0-2.3 2.3v16a2.26 2.26 0 0 0 2.3 2.3h16a2.26 2.26 0 0 0 2.3-2.3v-16a2.26 2.26 0 0 0-2.3-2.3h-16z"/></g><circle fill="#e63d6a" cx="307.7" cy="220.5" r="12.1"/><circle fill="#fdc602" cx="347.2" cy="220.5" r="12.1"/><circle fill="#2bc641" cx="386.6" cy="220.5" r="12.1"/><circle fill="#c4dfe8" cx="666.4" cy="655.6" r="12.1"/><circle fill="#395962" cx="705.8" cy="655.6" r="12.1"/><circle fill="#c4dfe8" cx="745.2" cy="655.6" r="12.1"/><path fill="#e6f3ff" d="M322.2 346.8H559V623H322.2z"/><g fill="#1daeb9"><path opacity=".7" d="M519.4 559.3H361.7a.94.94 0 0 1-1-1v-6c0-1.7 1.3-3 3-3h155.7a.94.94 0 0 1 1 1v8a1.08 1.08 0 0 1-1 1z"/><path opacity=".5" d="M346.6 575.7h187.8v6.7H346.6zm0 12.9h187.8v6.7H346.6z"/><path d="M322.2 514.4l54.8-61c3.3-3.7 8.6-4 12.3-.8l51.4 44.4 53-71.8c1.6-2.2 4.1-3.6 6.8-3.7 2.7.1 5.3 1.1 7 3.1l51.5 59V346.8H322.2v167.6zM372 379.9c14 0 25.4 12.1 25.4 27.1 0 14.9-11.4 27.1-25.4 27.1S346.6 422 346.6 407s11.4-27.1 25.4-27.1zm128.5 45.4c-1.6.1-3 .9-4 2.2l-54.1 73.3c-.3.4-.7.7-1.2.7a1.48 1.48 0 0 1-1.3-.4L387 455.5c-2.2-1.9-5.4-1.7-7.4.5l-57.4 64v8.8H559v-39.6l-54.2-62c-1.1-1.2-2.6-1.9-4.3-1.9z"/></g><path fill="#e6f3ff" d="M587.2 346.8H824V623H587.2z"/><g fill="#1daeb9"><path opacity=".7" d="M784.4 559.3H626.7a.94.94 0 0 1-1-1v-6c0-1.7 1.3-3 3-3h155.7a.94.94 0 0 1 1 1v8c0 .5-.4 1-1 1z"/><path opacity=".5" d="M611.7 575.7h187.8v6.7H611.7zm0 12.9h187.8v6.7H611.7z"/><path d="M587.2 514.4l54.8-61c3.3-3.7 8.6-4 12.3-.8l51.4 44.4 53-71.8c1.6-2.2 4.1-3.6 6.8-3.7 2.7.1 5.3 1.1 7 3.1l51.5 59V346.8H587.2v167.6zM637 379.9c14 0 25.4 12.1 25.4 27.1 0 14.9-11.4 27.1-25.4 27.1S611.6 422 611.6 407s11.4-27.1 25.4-27.1zm128.6 45.4c-1.6.1-3 .9-4 2.2l-54.1 73.3c-.3.4-.7.7-1.2.7a1.48 1.48 0 0 1-1.3-.4l-53-45.6c-2.2-1.9-5.4-1.7-7.4.5l-57.4 64v8.8H824v-39.6l-54.2-62c-1.1-1.2-2.6-1.9-4.2-1.9z"/></g><path fill="#e6f3ff" d="M852.2 346.8H1089V623H852.2z"/><g fill="#1daeb9"><path opacity=".7" d="M1049.5 559.3H891.8a.94.94 0 0 1-1-1v-6c0-1.7 1.3-3 3-3h155.7a.94.94 0 0 1 1 1v8a1.08 1.08 0 0 1-1 1z"/><path opacity=".5" d="M876.7 575.7h187.8v6.7H876.7zm0 12.9h187.8v6.7H876.7z"/><path d="M852.2 514.4l54.8-61c3.3-3.7 8.6-4 12.3-.8l51.4 44.4 53-71.8c1.6-2.2 4.1-3.6 6.8-3.7 2.7.1 5.3 1.1 7 3.1l51.5 59V346.8H852.2v167.6zm49.9-134.5c14 0 25.4 12.1 25.4 27.1 0 14.9-11.4 27.1-25.4 27.1S876.7 422 876.7 407s11.4-27.1 25.4-27.1zm128.5 45.4c-1.6.1-3 .9-4 2.2l-54.1 73.3c-.3.4-.7.7-1.2.7a1.48 1.48 0 0 1-1.3-.4l-52.9-45.6c-2.2-1.9-5.4-1.7-7.4.5l-57.5 64v8.8H1089v-39.6l-54.2-62c-1-1.2-2.5-1.9-4.2-1.9z"/></g><path fill="#404347" d="M1110.1 177.4s-2.5 2.2-4.7 5.5c-2.2 3.4-8.2 3.5-8.4 8.1-.3 4.6 8.1 4.7 12.4 3.2 4.4-1.5 5-6 7.7-7.1 2.6-1.1 4-2 3.8-4.2s-1.7-5.7-1.7-5.7-1.6.5-2.6.6-4.3.2-6.5-.4z"/><path fill="#30aabd" d="M1140 53.4l-3 16.5c-.5 2.7-1 4.8-1.3 5.4-.4.8-3.5 4.2-7.4 8.2l-15.7 15.7-3.5-6.6 13.3-15.5c2.5-2.9 4.4-5.1 4.8-5.4 1.1-1 2.4-10.9 4.3-19 1.8-8.2 5.5-12.7 5.5-12.7l3 13.4z"/><path fill="#dba585" d="M1128.3 83.5l-15.7 15.7-3.5-6.6 13.3-15.5c1.6.8 4.7 2.8 5.9 6.4z"/><path fill="#404347" d="M1171.5 174.6l3.6 4.1c1.4 1.5 6.5 4.3 6.6 8.8 0 4.9-3.8 4.5-7.3 4.3-3.4-.2-6.2-2.6-7.7-5.4-1.4-2.8-5.3-3.5-5.6-5.8s1.8-6.3 1.8-6.3l8.6.3z"/><path d="M1163.5 170.2l-.4 4.2s7.2 3.1 8.5.2l-.3-3.8-7.8-.6zm-53.1 4.1l-.4 3s4.3 1.5 9.1-.1l.1-2.7-8.8-.2z" fill="#5a554e"/><path fill="#30aabd" d="M1171.9 97.9c.2.9-45.9 0-45.9 0s12.8-9.3 13.6-11.8-3.2-17.4-3.8-22.2c-.4-3.9-1.5-21.2 1.1-23.9 2.7-2.8 12.3-5.7 12.3-5.7l14 .5s2.3.5 4 1.3 11.1 4.1 12.6 8.9-9.4 19.9-9.4 19.9 0 .7-.1 1.8h0c0 1.5-.1 3.8-.2 6.2-.1 3.2-.1 6.7-.1 9.3.1 6 1.7 14.8 1.9 15.7z"/><path fill="#365d8c" d="M1171.9 97.9s6.3 9.2 6.4 15.5-2.3 23.7-2.5 27.2-3.4 32.3-3.4 32.3-2.5 2.3-10-.6l-1.8-30.2c-.2-2.9-.2-16.4-1.9-18.3s-11.9-8.1-13.2-9.2c-1.3-1.2-24.5 4.4-26.9 5-6.3 1.6-3.4 12.6-2 17.5 2.3 8.2 4.4 37.8 4.4 37.8s-4.5 1.9-12 .3l-15.2-58.8c-.5-5.3-.7-14.1 35.6-20.7l42.5 2.2z"/><g fill="#dba585"><path d="M1153.1 3.9s-12.2-2.7-9.4 12.6 5.7 16.5 13 13.4c7.3-3.2 6.7-13 7.1-17.8.3-4.9-6.9-8-10.7-8.2z"/><path d="M1149.8 38.3s5.4 5.7 13.9.5c0 0-1.9-12.4-.9-18.4s-11.1 9.3-11.1 9.3c.2.1.3.7.3 1.5 0 .7 0 1.6-.1 2.5-.3 2-.9 4.1-2.1 4.6zm9.8-23.9c.2-1.4 2.8-1.8 3 .2s-1.2 5.6-2.2 5.2c-1-.3-1-3.5-.8-5.4z"/></g><path fill="#3d4062" d="M1163.2 19.9s-.3-4.8-2.1-5-2 1.8-2 1.8l-1.8.3s.6-4.2-1.2-5c-1.8-.7-11.4 2.3-12.8 1.1s-.7-9.8 1.8-11c2.6-1.2 9.6-3.8 14.8-.3 0 0 4-.5 4.6 2.8s-.2 12.9-1.3 15.3z"/><path fill="#997761" d="M1151.9 33.7c8.8-2.7 9.5-8 9.5-8.1-2.9 5-9.3 5.6-9.3 5.6-.1.7-.1 1.6-.2 2.5z"/><path fill="#dba585" d="M1167.3 36.2s-6.4 12.8-16.8 12-1.8-13.7-1.3-13.8c.5-.2 10.7-2.7 18.1 1.8z"/><path fill="#1e8ca6" d="M1120.8 97.2s31.9 3.9 51.2.6l-36.9-4.6c0 .1-.3 1-14.3 4z"/><path fill="#dba585" d="M1144.6 91.8l-2.4 1.2s.5 3.8 1.8 4.9l2.7-.7c0 0-.5-4.1-2.1-5.4z"/><path fill="#30aabd" d="M1181.5 84.1c-.5.5-6.7 3.1-13.8 5.8h0c-9.7 3.7-20.6 7.2-20.6 7.2l-2.5-5.3 19.1-10.6c3.6-2.1 6.5-3.7 6.9-4.1 1.2-1.2 1.6-3.1.6-6.4-.9-3.3-3-18.5-3.2-20.3s.6-6.5 5-6.7 6.7 1 6.7 1 1.1.5 1.9 11.2c.9 10.9 1 26.9-.1 28.2z"/><path d="M1170.4 66.4v.3l-.2 6.2c-4.3-10.6-1.8-19.1-1.8-19.2-.5 2.9 1.9 12.5 2 12.7zm-33.4 3.5h0c-.5 2.7-1 4.8-1.3 5.4-1.5-7.1-.1-16.3-.1-16.3.1 4.4 1.4 10.9 1.4 10.9z" fill="#1e8ca6"/><path fill="#dba585" d="M1167.7 89.9h0c-9.7 3.7-20.9 7.4-20.9 7.4l-2.1-5.4 19.1-10.6c-.1 0 2.7 1.3 3.9 8.6z"/><path fill="#5d5954" d="M1143.9 97.6l-45.3-.7 22.9 11.6z"/><path fill="#8c867e" d="M1121.5 108.5l22.4-8.7v-2.2l-24.2 8.7z"/><g fill="#dba585"><path d="M1142.7 93.1l-4.8-.9c-1.5-.4-5.3.1-6.2 1.1-1 1-4 7.7-4.6 8.1s.3 1.4 1.3.9c0 0 .9 3 3.2 1.9s3.8-3.5 5.1-4l8.2-2.6s-.4-5.2-2.2-4.5z"/><path d="M1132.4 92.9s-1.8.9-2.3 1.3l-2.9 2.2c-.5.3.7 1.3 4.1-.2 3.5-1.6 1.1-3.3 1.1-3.3z"/></g><path fill="#6c6760" d="M1121.5 108.5L1108 71.7l-43.4.7 12.9 33.9z"/><path fill="#7b6f66" d="M1094.1 88c1.3 2.6.9 5.5-.9 6.4s-4.4-.5-5.7-3.1-.9-5.5.9-6.4c1.9-1 4.4.5 5.7 3.1z"/><path d="M143.9 858.3l1.3 5.6s14.4 5.8 16.6 5.7c2.3-.1 29.1-7.6 27.3 18.7l-67.9 3.1.6-32 22.1-1.1zm-46.4 30l.3 6.3s-26 10-39-.5c0 0-.3-2.2.2-5.6.6-4.4 2.6-10.8 8.4-16.4l1.8-14.2 20.2 4.1.4 8s7 14.3 7.8 17.8c-.2.3-.1.4-.1.5z" fill="#414042"/><path fill="#e09088" d="M229 487.2s5.3 7.7 6.1 8.3 3.9 1.5 5.2 1.9 3.3-.5 2.4-4.4c-1-3.5-1.1-5-1.9-5.7-.8-.6-9.3-4.4-9.3-4.4l-2.5 4.3z"/><path fill="#eda89e" d="M246.5 490c-1.2-4.2-1.2-5.9-2.1-6.8-.5-.4-3.3-2-5.9-3.5-1.3 1.7-3.2 2.8-5.1 3.8l7.4 4.1c.9.8 1.2 6.7 2.8 7.3 1.4.7 3.8-.2 2.9-4.9z"/><path fill="#f4b7ac" d="M221.6 496.4s7.8-11.6 10.2-14.2c2.3-2.6 16.5-6.5 20.1-8.4 4-1.6 5.5 1.4.7 4.5-5.1 3.3-14.3 7.8-15 8.2-.7.5-1.6 6.9-1.4 7.6.2.6 5.3 0 6.1-.4s3.9-5.4 8.2-4.6-4 9.8-6.1 10.9-8.8 5.7-14.9 5.1l-7.9-5.7v-3z"/><path fill="#28516b" d="M139.7 551.3l3.3 3.8c5.6 6.4 17 19.1 24.5 23.9h0c.7.4 1.3.8 1.9 1.1 12.7 6.9 64.2-71.9 64.2-71.9L219 492.7s-43 56.8-43.9 54.2l-24.8-41.3s-33.5 9.2-10.6 45.7z"/><path fill="#365d8c" d="M63.9 623.2l1.2 239.7 28.3 1.2 15.7-195.7 8.7 194.6 31.4-1.4-2.6-241.2z"/><path fill="#28516b" d="M60.5 622c3.3 5.5 16.4 36.2 16.4 36.2s10.2 3.1 26.9 2.3c5.1-7.5 5.5-15.4 5.5-15.4s2.4 10.3 7.3 14.2c9.3-1.4 26.1-5.1 34.2-13.8l-.6-7.6-7.3-83.6 7.4-48.9s-21.6-26.7-48.6-30.4c-30.3 5-59.5 35.3-59.5 35.3l21 49.1c4.3 10.1-2.7 62.6-2.7 62.6z"/><g fill="#353535"><path d="M109.3 645.2l-.2-18.5-.4-18.4-1.1-36.8-2.3-55.2-1-18.4.2 18.4.4 18.4 1.1 36.9 1.5 36.8.8 18.4z"/><circle cx="110.4" cy="523.5" r="1.7"/><path d="M113.2 548.3c0 .9-.7 1.7-1.6 1.8-.9 0-1.7-.7-1.8-1.6 0-.9.7-1.7 1.6-1.8s1.8.7 1.8 1.6z"/><circle cx="112.7" cy="573.3" r="1.7"/><path d="M115.5 598.1c0 .9-.7 1.7-1.6 1.8-.9 0-1.7-.7-1.8-1.6s.7-1.7 1.6-1.8 1.7.7 1.8 1.6zm1.1 24.9c0 .9-.7 1.7-1.6 1.8s-1.7-.7-1.8-1.6c0-.9.7-1.7 1.6-1.8s1.8.6 1.8 1.6z"/></g><path fill="#28516b" d="M42.2 510.4s-10.7 38-14.2 79.9C27 604.1 64.1 668 64.1 668l10.1-15.5S56.9 606.9 54.4 592c2.5-10.9 5.4-22.5 8.8-32.4 17.6-39.3-21-49.2-21-49.2z"/><path fill="#f4b7ac" d="M118.9 486.2s-1.3 11.1-18.5 11.9-22.5-12.7-22.5-12.7l1.8-8.9 4.2-32 16.3 18.5 17.2-3.5.8 14.8.7 11.9z"/><g fill="#317791"><path d="M79.7 476.5l24.6 21.4-7.6 18.3-25-30z"/><path d="M118.4 476.4l-14.1 21.5 11.5 14.9 9.1-29.8zM219 492.7l-7.4 6.7 5.2 4.4 6-3.7-2.6 6.5 10.1 9.1 5.2-8.3z"/></g><path opacity=".5" fill="#e07f86" d="M118 473.2c-7.5 6-19-.6-36.5-11.2l2.3-17.6 16.3 18.5 17.2-3.5.7 13.8z"/><path fill="#353535" d="M130.8 412.5s4.2 7.5 1.6 14.3l-7.5-12 5.9-2.3z"/><path fill="#f4b7ac" d="M107.3 397.4s0-.1 0 0c0 0-20.6-4.2-30.3 20.8 0 0-5.7 16.2 1.6 31.3 0 0 15.2 19.8 32.2 24.8 11.9 3.1 20.4-18.4 22.1-39.6.8-19.5-12.1-36.2-25.6-37.3z"/><path fill="#fff" d="M122.1 452.1s-6.5 4.8-16.4.1c0 0 2.7 6.4 7.8 6.5 5.1.2 7.9-4.4 8.6-6.6z"/><path fill="#f4b7ac" d="M79.7 441.2l.4 9.5c-7.9 3.3-14.9-4.4-16.4-10.8-.7-3.2-.1-6.2 2.5-7.3 5.5-2.3 9.9 2.9 12.1 6.2.9 1.3 1.4 2.4 1.4 2.4z"/><path fill="#353535" d="M65.2 400.5c4.2-6.3 12-4.5 12-4.5h0c21-40 63.3 7.4 63.3 7.4l-10 .5 18.6 6.4c-17 10.8-43.3 11.8-43.3 11.8h0c-9.7.7-17.5.4-17.5.4s.9 6.5-6.3 10.1c.5 9.3-.5 18.4-.5 18.4-2.2-4.8-3.4-9.6-4.1-13.6h0s-2.1-2.7-4.4-4.1c-2.5-1.1-4.8-1.1-4.8-1.1s-7.2-25.4-3-31.7z"/><path fill="#e07f86" d="M68.9 438c5.6-.3 9.1 4.6 9.2 4.8s.1.5-.1.7c-.1.1-.2.1-.2.1-.2 0-.3-.1-.4-.2 0 0-1.3-1.9-3.5-3.2-1.9 1.4-.7 4.6-.7 4.6.1.2 0 .5-.3.6h-.1a.55.55 0 0 1-.5-.3c-.1-.2-1.3-3.6.7-5.4-1.1-.5-2.4-.8-3.8-.8h-.1c-.2.1-.5-.2-.5-.4-.1-.2.1-.5.3-.5z"/><g fill="#353535"><ellipse transform="matrix(.999 -.045076 .045076 .999 -19.6527 5.107)" cx="103.4" cy="438.3" rx="1.7" ry="6.1"/><path d="M125 437c.1 3.2-.4 5.8-1.2 5.8s-1.6-2.5-1.8-5.7c-.1-3.2.4-5.8 1.2-5.8.9-.1 1.6 2.5 1.8 5.7z"/></g><path fill="#e07f86" d="M115.9 449.9h.2c.7-.1 2.3-.8 2.3-5 0-7-1.3-10.8-1.4-10.9-.1-.2-.4-.4-.6-.3s-.4.4-.3.6c0 0 1.3 3.8 1.3 10.6 0 2.9-.8 4-1.5 4.1-1.1.2-2.8-1.6-3.6-4.7-.1-.2-.3-.4-.6-.3s-.4.3-.3.6c.8 3.2 2.7 5.4 4.5 5.3z"/><path d="M131.7 432c-.5 0-2.2-3.2-4.5-4.2-1.4-.6-3-.5-4.9.2-.6.3-1.4 0-1.6-.7-.3-.6 0-1.4.7-1.6 2.5-1 4.8-1.1 6.8-.2 3.3 1.4 3.7 6.5 3.5 6.5zm-38 2.1c-.7-.2.2-5.7 3.6-7.6 2.2-1.2 4.8-1.3 7.7-.5a1.423 1.423 0 1 1-.9 2.7c-2.2-.7-4-.6-5.5.2-2.3 1.4-4.7 5.3-4.9 5.2zm3.8 454.2l.3 6.3s-26 10-39-.5c0 0-.3-2.2.2-5.6 18 8.6 37.3-.2 38.5-.7-.1.3 0 .4 0 .5zm23.7 3l.1-6.4 67.7-2.2.1 5.6z" fill="#353535"/><ellipse fill="#75c64e" cx="1340" cy="811.5" rx="11" ry="36.5"/><path fill="#bbe8e3" d="M1340 841.1a.68.68 0 0 1-.7-.7v-57.9a.68.68 0 1 1 1.4 0v57.9c0 .4-.4.7-.7.7z"/><path fill="#75c64e" d="M1369 826.3c-11.4 12.5-18.5 23.2-22.9 21.8-4.3-1.1-6.8-14.2 1.6-29.5 8.3-15.4 26.7-23.6 33.9-19.6 7.4 4.2-1.4 14.9-12.6 27.3z"/><path fill="#bbe8e3" d="M1347.9 843.4h-.1c-.3-.1-.5-.5-.4-.8 5.3-14.9 15.2-28.6 28.5-39.5.3-.3.7-.1.9.1.3.3.1.7-.1.9-13 10.8-22.8 24.4-28.1 39-.2 0-.5.3-.7.3z"/><path fill="#75c64e" d="M1330.4 824.9c7.6 12.5 7.3 24 3.7 25.4-3.7 1.5-10.8-7.2-19.7-18.2s-15.2-21-10.1-24c5-2.8 18.5 4.2 26.1 16.8z"/><path fill="#bbe8e3" d="M1332 846.1c-.3 0-.5-.1-.5-.4-5.5-12.2-13.4-23.4-23.6-33.3-.3-.3-.3-.7 0-.9.3-.3.7-.3.9 0 10.1 10.1 18.2 21.4 23.8 33.7.1.3 0 .7-.3.8-.2.1-.2.1-.3.1z"/><path fill="#606060" d="M1352.5 887.3H1327c-2.8 0-5.2-2-5.7-4.8l-7.2-35.8c-.4-1.9 1.1-3.5 2.9-3.5h45.6c1.9 0 3.2 1.7 2.9 3.5l-7.2 35.8c-.6 3-3 4.8-5.8 4.8z"/><path opacity=".7" d="M300.4 511.6l-15.8-15.8c-.7-.7-1.2-1.7-1.2-3s.5-2.3 1.2-3l15.8-15.8c1.7-1.7 4.3-1.7 6 0s1.7 4.3 0 6l-12.8 12.8 12.8 12.8c1.7 1.7 1.7 4.3 0 6-.7.7-2 1.2-3 1.2s-2.2-.2-3-1.2zm806.5.9c-1 0-2.3-.5-3-1.2-1.7-1.7-1.7-4.3 0-6l12.8-12.8-12.8-12.8c-1.7-1.7-1.7-4.3 0-6s4.3-1.7 6 0l15.8 15.8c.7.7 1.2 1.7 1.2 3 0 1.2-.5 2.3-1.2 3l-15.8 15.8c-.7.8-2 1-3 1.2z" fill="#333"/></svg>